<?xml version="1.0" encoding="UTF-8"?>
<svg width="492px" height="214px" viewBox="0 0 492 214" version="1.1" xmlns="http://www.w3.org/2000/svg" xmlns:xlink="http://www.w3.org/1999/xlink">
    <title>Group 24</title>
    <defs>
        <polygon id="path-1" points="0 0 154.543901 0 154.543901 192.4579 0 192.4579"></polygon>
        <polygon id="path-3" points="0 0 113.045838 0 113.045838 133.745842 0 133.745842"></polygon>
    </defs>
    <g id="Page-1" stroke="none" stroke-width="1" fill="none" fill-rule="evenodd">
        <g id="Error-405" transform="translate(-750.000000, -250.000000)">
            <g id="Group-24" transform="translate(750.000000, 250.000000)">
                <path d="M74.383,23.8004 L0,140.7914 L0,179.7894 L89.91,179.7894 L89.91,208.6754 L137.934,208.6754 L137.934,179.7894 L159.237,179.7894 L159.237,140.7914 L137.934,140.7914 L137.934,23.8004 L74.383,23.8004 Z M49.468,139.3474 L89.549,75.7974 L90.993,75.7974 L90.993,140.7914 L49.468,140.7914 L49.468,139.3474 Z" id="Fill-1" fill="#DFE6E9"></path>
                <g id="Group-23" transform="translate(174.941299, 0.000000)">
                    <g id="Group-5" transform="translate(0.000000, 21.273100)">
                        <mask id="mask-2" fill="white">
                            <use xlink:href="#path-1"></use>
                        </mask>
                        <g id="Clip-4"></g>
                        <path d="M0,96.048 C0,31.956 26.9009014,0 77.2729014,0 C127.553901,0 154.454901,31.776 154.543901,95.687 C154.454901,159.96 127.553901,192.548 77.2729014,192.458186 C26.9009014,192.367 -0.180098573,160.05 0,96.048" id="Fill-3" fill="#DFE6E9" mask="url(#mask-2)"></path>
                    </g>
                    <path d="M78.5277014,183.556 C78.9057014,184.53 79.2707014,185.507 79.6137014,186.489 C79.2727014,185.51 78.9127014,184.533 78.5277014,183.556" id="Fill-6" fill="#CFCAAA"></path>
                    <path d="M79.6244014,186.5145 C79.6194014,186.5075 79.6144014,186.4995 79.6144014,186.4895 C79.2364014,185.4035 78.8634014,184.3025 78.4034014,183.2485 C77.6234014,181.2535 76.7384014,179.3005 75.7994014,177.3735 C75.7944014,177.3615 75.7894014,177.3445 75.7764014,177.3345 C71.0354014,167.5925 64.2134014,158.8375 55.9824014,151.7995 C55.2034014,151.1325 54.4074014,150.4875 53.6034014,149.8515 C53.7294014,149.9515 53.8614014,150.0435 53.9874014,150.1445 L54.0594014,150.0575 C47.5674014,144.9425 41.8954014,138.8115 37.2794014,131.9575 C32.1554014,124.3405 28.3434014,115.8665 26.0564014,106.9765 C24.7274014,101.8105 23.9214014,96.5125 23.6534014,91.1865 C15.6684014,99.8845 9.71440143,110.3365 6.19540143,121.5995 C5.08640143,125.1565 4.22740143,128.7895 3.63040143,132.4645 L3.60140143,132.4645 C2.67540143,138.1255 2.38440143,143.8795 2.68440143,149.6035 C10.6524014,192.1795 36.2284014,213.6575 77.2724014,213.7307 C79.5794014,213.7355 81.8194014,213.6465 84.0274014,213.5135 C84.1104014,205.5385 83.0114014,197.4835 80.6304014,189.6185 C80.3174014,188.5775 79.9794014,187.5435 79.6244014,186.5145" id="Fill-8" fill="#B2BEC3"></path>
                    <path d="M80.6303014,189.6185 C84.2293014,201.5075 80.4743014,189.0965 80.6303014,189.6185" id="Fill-10" fill="#000000"></path>
                    <path d="M39.2299014,45.6107 C38.5559014,44.5247 37.8509014,43.4837 37.1049014,42.4667 C34.4629014,46.4027 32.1939014,50.5607 30.3129014,54.8727 C25.3399014,66.2297 23.0219014,78.6737 23.6529014,91.1857 C25.3549014,89.3217 27.1599014,87.5327 29.0559014,85.8277 C27.4999014,77.5677 28.1159014,69.1427 30.6789014,61.3367 C32.5299014,55.6627 35.4159014,50.3177 39.2299014,45.6107" id="Fill-12" fill="#B2BEC3"></path>
                    <path d="M130.817801,131.1424 C124.995801,132.6734 118.359801,133.5774 112.405801,133.7794 L112.313801,133.7264 L41.3398014,94.0854 L41.3398014,94.0884 L41.3378014,94.0854 C47.2928014,82.3514 48.3408014,68.4294 44.1268014,55.9564 C42.9038014,52.3424 41.2728014,48.8334 39.2298014,45.6104 C32.2698014,54.1994 28.3498014,65.0944 28.2138014,76.1484 C28.1738014,79.3914 28.4568014,82.6374 29.0558014,85.8234 C27.1598014,87.5324 25.3578014,89.3224 23.6528014,91.1854 C23.9888014,97.8304 25.1588014,104.4914 27.2118014,111.0174 L27.2118014,111.0154 C30.9768014,123.1304 37.6998014,134.3284 46.5938014,143.3714 C48.9398014,145.7544 51.4348014,147.9894 54.0588014,150.0594 L53.9848014,150.1464 C61.4928014,156.1504 68.0278014,163.6104 73.1278014,172.3914 C76.0228014,165.7014 80.4068014,159.6864 85.8988014,154.8954 C91.5578014,149.9594 98.3418014,146.3414 105.590801,144.3904 C110.000801,143.2024 114.602801,142.6134 119.170801,142.7184 C121.374801,142.5764 123.539801,142.0244 125.551801,141.1204 C129.769801,139.2194 132.942801,135.9084 134.749801,131.9774 C135.080801,131.2544 135.368801,130.5134 135.601801,129.7504 L135.601801,129.7454 C134.214801,130.1754 131.965801,130.8414 130.817801,131.1424" id="Fill-14" fill="#FFFFFF"></path>
                    <path d="M81.4701014,97.681 C82.5331014,99.649 83.8041014,101.513 85.1711014,103.28 C85.8291014,104.133 86.5001014,104.98 87.1991014,105.805 C87.5721014,106.243 87.9491014,106.677 88.3391014,107.102 C88.6721014,107.468 89.0231014,107.957 89.4301014,108.241 C92.0371014,110.87 94.9061014,113.199 98.0391014,115.167 C98.0461014,115.169 98.0491014,115.174 98.0541014,115.177 C98.2901014,115.328 98.5261014,115.477 98.7671014,115.619 L98.7701014,115.617 C105.972101,119.973 114.289101,122.471 122.697101,122.813 C125.237101,122.915 127.973101,122.968 130.480101,122.48 C130.488101,122.48 130.495101,122.478 130.505101,122.475 C131.429101,122.286 134.498101,121.735 136.171101,121.235 C135.985101,120.162 135.684101,118.929 135.294101,117.87 C132.240101,117.286 129.240101,116.469 126.260101,115.592 C117.140101,112.704 108.533101,108.206 100.991101,102.316 C93.5951014,96.54 87.2481014,89.45 82.2981014,81.48 C80.8201014,79.102 79.4651014,76.647 78.2421014,74.127 C77.6461014,72.899 77.0791014,71.657 76.5501014,70.402 C76.2771014,69.763 75.8891014,69.072 75.7941014,68.386 C75.6951014,67.661 75.6901014,66.905 75.6671014,66.172 C74.3981014,74.577 75.3551014,83.292 78.4181014,91.217 C79.2911014,93.476 80.4091014,95.569 81.4921014,97.726 C81.4731014,97.683 81.4481014,97.646 81.4261014,97.606 C81.4431014,97.629 81.4581014,97.656 81.4701014,97.681 C81.6291014,97.979 81.3311014,97.435 81.4701014,97.681" id="Fill-16" fill="#FFFFFF"></path>
                    <g id="Group-20" transform="translate(23.394201, 0.000000)">
                        <mask id="mask-4" fill="white">
                            <use xlink:href="#path-3"></use>
                        </mask>
                        <g id="Clip-19"></g>
                        <path d="M112.779,121.1527 C109.135,122.3357 105.318,122.8227 101.499,122.8477 C96.854,122.8747 92.172,122.2837 87.704,120.9907 C85.154,120.2557 82.661,119.3507 80.253,118.2327 C80.253,118.2297 80.256,118.2297 80.256,118.2297 C73.275,114.9867 67.091,110.1037 62.333,104.0547 C57.005,97.2847 53.475,89.1287 52.233,80.6027 C51.535,75.8207 51.551,70.9427 52.27,66.1657 C54.931,55.4277 55.409,44.1227 53.588,33.2077 C53.07,30.1037 52.333,27.0567 51.469,24.0327 C51.465,24.0257 51.463,24.0097 51.463,24.0007 C50.839,21.9727 50.269,19.9227 49.397,17.9817 C50.071,19.7137 50.677,21.4677 51.226,23.2427 C50.677,21.4677 50.071,19.7137 49.397,17.9817 C49.384,17.9417 49.37,17.9017 49.352,17.8717 C45.993,10.0187 39.703,4.2757 32.274,1.4127 C32.258,1.4077 32.242,1.4007 32.227,1.3907 L32.222,1.3927 C31.643,1.1517 31.051,0.9437 30.451,0.7687 C30.749,0.8657 31.04,0.9777 31.338,1.0827 C31.04,0.9777 30.749,0.8657 30.451,0.7687 C28.564,0.0457 26.258,-0.0733 24.262,0.0337 C22.091,0.1507 19.948,0.6627 17.953,1.5297 C15.157,2.7397 13.174,4.3777 11.374,6.5997 C16.906,3.6117 23.987,4.0667 29.282,7.3127 C30.803,8.2467 32.187,9.4027 33.376,10.7347 L33.398,10.7167 C31.603,8.7347 29.549,6.9917 27.3,5.5457 C33.927,9.8127 38.683,16.6047 40.48,24.2737 C37.374,18.0907 32.269,13.0927 25.99,10.1707 C24.28,9.3757 22.496,8.7367 20.672,8.2647 C20.672,8.2647 20.678,8.2667 20.683,8.2747 C20.569,8.2397 20.458,8.2047 20.339,8.1747 C20.318,8.1697 20.291,8.1627 20.263,8.1597 C17.918,7.6257 15.587,7.3997 13.186,7.7127 C10.86,8.0187 8.345,8.7387 6.364,10.0307 C3.698,11.5597 1.55,13.6647 0,16.1027 C5.286,12.3297 12.475,11.8057 18.331,14.5147 C19.958,15.2677 21.476,16.2567 22.821,17.4447 L22.836,17.4297 C27.639,21.6347 31.054,27.3277 32.538,33.5357 C32.55,33.5137 32.558,33.5017 32.56,33.4767 C32.486,33.2007 32.401,32.9297 32.324,32.6537 C32.401,32.9297 32.486,33.2007 32.56,33.4767 C35.026,42.4997 35.858,51.9217 35.083,61.2377 C34.856,63.9447 34.491,66.6407 33.987,69.3077 L33.979,69.3097 C33.768,69.3867 33.551,69.4567 33.341,69.5307 C32.513,69.7127 31.68,70.1127 30.89,70.4127 C30.018,70.7457 29.151,71.0937 28.291,71.4567 C26.589,72.1747 24.911,72.9557 23.263,73.7877 C22.955,80.8187 21.151,87.8197 17.943,94.0867 C21.508,100.1947 25.89,105.8467 30.953,110.7897 L30.955,110.7967 C42.924,122.5517 58.173,130.0917 74.345,132.7087 L74.348,132.7087 C84.13,134.2987 94.192,134.0627 103.882,131.9857 C106.386,131.4487 108.8,130.6607 111.278,130.0297 C111.598,129.9357 111.912,129.8387 112.207,129.7517 C113.057,127.0227 113.286,124.0747 112.779,121.1527 C112.068,121.3837 113.286,124.0747 112.779,121.1527 M23.313,3.3757 C24.002,3.6867 24.68,4.0247 25.346,4.3847 C24.68,4.0247 24.002,3.6867 23.313,3.3757" id="Fill-18" fill="#B2BEC3" mask="url(#mask-4)"></path>
                    </g>
                    <path d="M53.8422014,95.787 C55.4852014,98.675 58.5272014,100.68 62.0932014,100.844 C66.4592014,101.04 70.2942014,98.404 71.8202014,94.562 C70.1772014,91.677 67.1402014,89.671 63.5762014,89.509 C59.2152014,89.313 55.3782014,91.95 53.8422014,95.787" id="Fill-21" fill="#FFFFFF"></path>
                </g>
                <path d="M417.230031,211.525566 C462.239221,211.525566 491.644023,184.195336 491.554072,145.500061 C491.644023,110.412736 467.109955,85.6080722 434.187402,85.6080722 C415.426056,85.6080722 400.272661,93.9063598 394.499939,105.091008 L393.417554,105.091008 L397.025505,64.3211607 L480.008381,64.3211607 L480.008381,24.2729034 L355.894863,24.2729034 L348.67896,126.017125 L392.695964,134.676207 C396.935306,125.656329 406.586576,120.244403 417.230031,120.244403 C432.563824,120.244403 443.297478,130.79766 443.207279,146.943241 C443.297478,163.088822 432.563824,173.642079 417.230031,173.642079 C403.970811,173.642079 393.056759,165.524189 392.695964,152.715963 L343.988624,152.715963 C344.25922,187.171896 374.656208,211.525566 417.230031,211.525566 Z" id="5" fill="#DFE6E9" fill-rule="nonzero"></path>
            </g>
        </g>
    </g>
</svg>