<?xml version="1.0" encoding="iso-8859-1"?>
<!-- Generator: Adobe Illustrator 29.0.1, SVG Export Plug-In . SVG Version: 9.03 Build 54978)  -->
<svg version="1.1" id="Capa_1" xmlns="http://www.w3.org/2000/svg" xmlns:xlink="http://www.w3.org/1999/xlink" x="0px" y="0px"
	 width="283.465px" height="283.465px" viewBox="0 0 283.465 283.465" enable-background="new 0 0 283.465 283.465"
	 xml:space="preserve">
<g>
	<path fill="#007C8F" d="M226.475,250.628H35.635c-0.332,0-0.601-0.269-0.601-0.601c0-0.332,0.269-0.601,0.601-0.601h190.84
		c0.332,0,0.601,0.269,0.601,0.601C227.076,250.36,226.807,250.628,226.475,250.628z"/>
</g>
<g>
	<polygon fill="#0F4954" points="175.712,174.922 175.425,142.092 177.595,142.068 177.882,174.899 	"/>
	<polygon fill="#0F4954" points="162.694,174.535 163.009,141.184 165.156,141.121 164.84,174.472 	"/>
	<path fill="#EA7145" d="M181.975,142.548h-22.946c-0.957,0-1.732-0.776-1.732-1.732v-0.178c0-0.957,0.776-1.732,1.732-1.732h22.946
		c0.957,0,1.732,0.776,1.732,1.732v0.178C183.708,141.772,182.932,142.548,181.975,142.548z"/>
	<path fill="#FFF7ED" d="M162.023,133.049l-1.025,9.38c-0.197,1.807,1.31,3.341,3.119,3.173l9.138-0.848
		c1.223-0.113,1.95-1.422,1.4-2.521l-1.549-3.737l3.263-0.19l-4.794-8.275L162.023,133.049z"/>
	
		<path fill="none" stroke="#007C8F" stroke-width="0.6052" stroke-linecap="round" stroke-linejoin="round" stroke-miterlimit="10" d="
		M162.147,132.867l-1.025,9.38c-0.197,1.807,1.31,3.341,3.119,3.173l9.138-0.848c1.223-0.113,1.95-1.422,1.4-2.521l-1.472-2.947
		c0,0,0.75-0.254,1.566-0.417c0.602-0.12,1.767-0.027,1.767-0.027l-4.942-8.811L162.147,132.867z"/>
	
		<path fill="none" stroke="#007C8F" stroke-width="0.6052" stroke-linecap="round" stroke-linejoin="round" stroke-miterlimit="10" d="
		M165.156,141.121c0,0-0.675,0.668-0.068,2.085c0.607,1.417,1.214,2.024,1.214,2.024"/>
	
		<path fill="none" stroke="#007C8F" stroke-width="0.6052" stroke-linecap="round" stroke-linejoin="round" stroke-miterlimit="10" d="
		M168.293,140.716c0,0-0.675,0.668-0.068,2.085c0.607,1.417,1.214,2.024,1.214,2.024"/>
	
		<path fill="none" stroke="#007C8F" stroke-width="0.6052" stroke-linecap="round" stroke-linejoin="round" stroke-miterlimit="10" d="
		M171.329,140.412c0,0-0.675,0.668-0.068,2.085c0.607,1.417,1.214,2.024,1.214,2.024"/>
	<path fill="#FFF7ED" d="M83.063,128.91l-2.725,12.251c-0.976,3.231-1.272,6.291,0.908,8.867l4.717,6.833
		c0.627,0.587,1.54,1.173,2.234,0.667l0,0l-2.737-5.955l2.936,5.783c0.138,0.118,0.74,0.643,0.921,0.66l-0.021-0.03
		c0.65,0.059,1.344-0.886,1.097-1.49l-2.594-6.006l2.985,6.5c0.215,0.226,0.542,0.304,0.836,0.198h0
		c0.464-0.167,0.662-0.714,0.413-1.139l-2.299-6.826l2.425,6.718l0,0c0.565-0.496,0.8-1.271,0.606-1.998l-0.823-7.704
		c-0.579-1.951-0.482-3.188-0.228-4.491l2.146-11.784L83.063,128.91z"/>
	
		<path fill="none" stroke="#007C8F" stroke-width="0.6052" stroke-linecap="round" stroke-linejoin="round" stroke-miterlimit="10" d="
		M82.658,128.707l-2.725,12.251c-0.976,3.231-0.837,6.291,0.908,8.867l4.282,6.833c0.151,0.385,1.165,1.353,2.669,0.667h0
		l-2.737-5.955l2.936,5.783c0.138,0.118,0.287,0.675,0.921,0.66l-0.021-0.03c0.65,0.059,1.344-0.886,1.097-1.49l-2.594-6.006
		l2.985,6.5c0.215,0.226,0.542,0.304,0.836,0.198l0,0c0.464-0.167,0.662-0.714,0.413-1.139l-2.299-6.826l2.425,6.718l0,0
		c0.494,0.104,1.256-0.059,1.147-1.636l-1.523-8.048c-0.278-1.59-0.14-2.986-0.069-4.509l2.146-11.784L82.658,128.707z"/>
	<path fill="#007C8F" d="M124.13,238.978c0.189,1.495-1.136,2.739-2.615,2.45c-1.53-0.3-3.652-0.845-6.365-1.838
		c-3.121-1.142-4.346-3.137-4.939-3.98c-0.326-0.464-0.461-1.031-0.375-1.593c0.257-1.685,1.075-4.325,2.582-5.659
		c4.026-3.565,4.708-2.069,6.863-1.601c0.295,0.064,0.573,0.193,0.817,0.37l2.023,1.477c0.492,0.359,0.814,0.905,0.89,1.51
		L124.13,238.978z"/>
	<path fill="#BC474B" d="M99.517,115.277l-1.821,16.089c-0.607,6.071,0.532,12.022,2.128,16.721l13.657,40.199l2.125,39.616
		l11.232,1.062l1.214-109.286L99.517,115.277z"/>
	
		<rect x="124.667" y="212" transform="matrix(0.9634 0.2682 -0.2682 0.9634 63.2803 -27.3986)" fill="#0F4954" width="14.515" height="11.839"/>
	
		<rect x="125.718" y="212.319" transform="matrix(0.9634 0.2682 -0.2682 0.9634 63.365 -27.3806)" fill="#FFF7ED" width="12.366" height="11.839"/>
	<path fill="#BC474B" d="M153.958,121.399l-3.596,60.932c-0.099,1.673-0.358,3.332-0.773,4.956l-7.875,29.536l-17.607-4.705
		l2.226-32.128l-3.946-52.518L153.958,121.399z"/>
	<g>
		<path fill="#007C8F" d="M106.6,58.559l39.465,4.048l7.893,61.727c0,0-15.179,8.095-30.155,7.083
			c-14.976-1.012-28.738-11.333-28.738-11.333L106.6,58.559z"/>
		<path fill="#007C8F" d="M120.969,51.881l22.6,4.902c4.394,0.967,8.567,5.015,10.388,13.11l8.095,25.956l12.244,33.14
			l-15.381,5.262l-21.351-51L120.969,51.881z"/>
		<path fill="#007C8F" d="M126.383,52.69l-22.938,4.498c-4.868,0.955-8.698,4.721-9.732,9.573L77.761,139.31l14.572,1.214
			L126.383,52.69z"/>
	</g>
	<polygon fill="#EA7145" points="113.178,77.178 120.311,76.723 110.041,55.726 101.945,57.143 	"/>
	<polygon fill="#EA7145" points="136.097,77.482 128.963,77.027 139.234,56.029 147.33,57.446 	"/>
	<path fill="#0F4954" d="M135.844,25.369c0,0,5.262,8.5,11.131,23.274c2.599,6.543-3.036,8.095-5.464,8.095
		c-5.266,0-7.083-1.417-10.321,1.214c-4.026,3.271-1.417,8.5-11.738,5.06c-6.989-2.33-7.083-6.679-9.107-6.679
		c-2.024,0-10.109-0.822-7.488-7.083c3.643-8.702,6.001-19.438,9.31-24.488C116.011,18.892,126.737,14.44,135.844,25.369z"/>
	<path fill="#EA7145" d="M128.174,115.58h-4.645c-9.489,0-17.182-7.693-17.182-17.182v-14.36c0-9.489,7.693-17.182,17.182-17.182
		h4.645c9.489,0,17.182,7.693,17.182,17.182v14.36C145.356,107.888,137.664,115.58,128.174,115.58z"/>
	
		<path fill="none" stroke="#BC474B" stroke-width="0.9251" stroke-linecap="round" stroke-linejoin="round" stroke-miterlimit="10" d="
		M141.957,69.795c0.191,0.745,0.293,1.525,0.293,2.329v30.556c0,5.161-4.184,9.345-9.345,9.345h-14.631
		c-5.161,0-9.345-4.184-9.345-9.345V72.125c0-0.824,0.107-1.622,0.307-2.383"/>
	
		<path fill="none" stroke="#BC474B" stroke-width="0.9251" stroke-linecap="round" stroke-linejoin="round" stroke-miterlimit="10" d="
		M133.213,67.009c0,4.359-3.534,7.893-7.893,7.893c-4.359,0-7.893-3.534-7.893-7.893"/>
	
		<path fill="none" stroke="#BC474B" stroke-width="0.9251" stroke-linecap="round" stroke-linejoin="round" stroke-miterlimit="10" d="
		M119.562,67.009c0,3.18,2.578,5.758,5.758,5.758c3.18,0,5.758-2.578,5.758-5.758"/>
	
		<polyline fill="none" stroke="#0F4954" stroke-width="0.5397" stroke-linecap="round" stroke-linejoin="round" stroke-miterlimit="10" points="
		125.472,141.536 129.57,179.938 125.472,212.724 141.713,216.822 149.404,189.298 	"/>
	
		<path fill="none" stroke="#0F4954" stroke-width="0.5397" stroke-linecap="round" stroke-linejoin="round" stroke-miterlimit="10" d="
		M105.74,136.679c0,0,4.25,5.768,11.839,5.464c7.589-0.304,8.045-1.67,8.045-1.67s3.036,3.188,11.688,2.884
		c8.652-0.304,11.08-4.705,11.08-4.705"/>
	
		<path fill="none" stroke="#0F4954" stroke-width="0.5397" stroke-linecap="round" stroke-linejoin="round" stroke-miterlimit="10" d="
		M114.189,200.834l1.417,27.069c0,0,0.152-0.025,3.188,0.379c3.036,0.405,5.515,0.278,5.515,0.278"/>
	
		<path fill="none" stroke="#0F4954" stroke-width="0.5397" stroke-linecap="round" stroke-linejoin="round" stroke-miterlimit="10" d="
		M85.654,105.917l-7.893,33.393l14.572,1.214c0,0,6.982-18.366,12.042-33.14"/>
	<path fill="#007C8F" d="M123.168,219.099c0,0-1.004,0.597-2.437,5.674c-1.465,5.189-0.78,9.318-0.78,9.318l19.512,15.668
		l0.979-6.035c0.233-2.285-0.259-4.586-1.4-6.552l-1.242-6.393c-0.196-1.011-0.232-2.049-0.107-3.072l0.383-4.876
		c0,0-1.562-3.525-6.914-4.72C126.758,217.129,123.168,219.099,123.168,219.099z"/>
	<path fill="#0F4954" d="M125.75,226.081h2.112c2.674,0,5.03,1.761,5.785,4.327l5.723,19.504l-17.211-0.189L119.785,233
		C119.242,229.356,122.066,226.081,125.75,226.081z"/>
	
		<polyline fill="none" stroke="#0F4954" stroke-width="0.5397" stroke-linecap="round" stroke-linejoin="round" stroke-miterlimit="10" points="
		148.392,104.095 158.916,134.25 174.297,128.988 161.749,95.241 	"/>
	<g>
		
			<rect x="113.972" y="90.245" transform="matrix(0.715 -0.6991 0.6991 0.715 -29.1631 114.3186)" fill="#BC474B" width="23.351" height="5.375"/>
		
			<rect x="122.961" y="81.257" transform="matrix(0.715 -0.6991 0.6991 0.715 -29.1631 114.3186)" fill="#BC474B" width="5.375" height="23.352"/>
	</g>
	<g>
		<path fill="#0F4954" d="M86.961,20.138c0.374,0.21,0.67,0.511,0.889,0.904s0.329,0.847,0.329,1.366s-0.11,0.976-0.329,1.371
			c-0.219,0.395-0.515,0.699-0.889,0.912c-0.373,0.213-0.789,0.32-1.246,0.32c-0.661,0-1.155-0.194-1.483-0.583v0.5h-1.677v-6.874
			h1.76v2.288c0.34-0.345,0.806-0.518,1.399-0.518C86.172,19.823,86.588,19.928,86.961,20.138z M86.104,23.292
			c0.198-0.213,0.297-0.508,0.297-0.885c0-0.37-0.099-0.66-0.297-0.871s-0.451-0.315-0.759-0.315c-0.309,0-0.562,0.105-0.76,0.315
			s-0.296,0.5-0.296,0.871c0,0.377,0.099,0.672,0.296,0.885c0.198,0.213,0.45,0.32,0.76,0.32
			C85.653,23.612,85.907,23.505,86.104,23.292z"/>
		<path fill="#0F4954" d="M94.145,19.907l-2.168,5.224c-0.253,0.618-0.562,1.052-0.927,1.302c-0.364,0.25-0.809,0.376-1.334,0.376
			c-0.265,0-0.533-0.042-0.801-0.126c-0.268-0.083-0.486-0.193-0.653-0.329l0.611-1.232c0.099,0.092,0.218,0.165,0.357,0.217
			c0.139,0.053,0.28,0.079,0.422,0.079c0.167,0,0.304-0.034,0.412-0.102c0.108-0.068,0.199-0.176,0.273-0.324l-2.149-5.086h1.807
			l1.232,3.066l1.242-3.066H94.145z"/>
		<path fill="#0F4954" d="M99.565,22.861h-3.65c0.074,0.26,0.217,0.459,0.43,0.598c0.213,0.139,0.48,0.208,0.801,0.208
			c0.241,0,0.449-0.034,0.625-0.102c0.176-0.068,0.354-0.179,0.533-0.334l0.926,0.964c-0.488,0.543-1.201,0.815-2.14,0.815
			c-0.587,0-1.102-0.111-1.547-0.333c-0.445-0.222-0.789-0.531-1.033-0.927c-0.244-0.395-0.366-0.843-0.366-1.343
			c0-0.494,0.119-0.937,0.357-1.33c0.237-0.392,0.566-0.699,0.986-0.921c0.42-0.223,0.892-0.333,1.417-0.333
			c0.5,0,0.954,0.103,1.362,0.31c0.408,0.207,0.73,0.506,0.968,0.899c0.237,0.392,0.356,0.857,0.356,1.395
			C99.592,22.438,99.583,22.584,99.565,22.861z M96.235,21.305c-0.183,0.155-0.298,0.365-0.348,0.63h2.057
			c-0.05-0.265-0.166-0.476-0.348-0.63c-0.182-0.154-0.409-0.232-0.681-0.232S96.417,21.151,96.235,21.305z"/>
		<path fill="#0F4954" d="M100.482,24.728c-0.198-0.188-0.297-0.418-0.297-0.69c0-0.278,0.099-0.506,0.297-0.686
			c0.198-0.179,0.45-0.268,0.759-0.268c0.309,0,0.561,0.09,0.755,0.268c0.195,0.179,0.292,0.408,0.292,0.686
			c0,0.272-0.099,0.502-0.296,0.69s-0.448,0.283-0.751,0.283C100.932,25.011,100.679,24.916,100.482,24.728z M100.195,18.443h2.093
			l-0.352,4.122h-1.399L100.195,18.443z"/>
	</g>
	
		<line fill="none" stroke="#007C8F" stroke-width="0.6052" stroke-linecap="round" stroke-linejoin="round" stroke-miterlimit="10" x1="99.668" y1="40.294" x2="94.002" y2="29.973"/>
	<g>
		<g>
			<path fill="#BC474B" d="M157.522,242.091l25.622,0.004c5.906,0.001,10.694-4.785,10.697-10.69l0.023-48.811
				c0.003-5.908-4.785-10.699-10.694-10.7l-25.622-0.004c-5.906-0.001-10.694,4.785-10.697,10.69l-0.023,48.811
				C146.826,237.299,151.614,242.09,157.522,242.091z"/>
		</g>
		<g>
			<path fill="#EA7145" d="M157.371,228.386l25.622,0.005c5.905,0.001,10.694-4.784,10.697-10.69l0.019-35.08
				c0.003-5.908-4.785-10.7-10.693-10.701l-25.622-0.005c-5.905-0.001-10.694,4.784-10.697,10.69l-0.019,35.08
				C146.674,223.593,151.462,228.385,157.371,228.386z"/>
		</g>
		<path fill="#0F4954" d="M157.814,249.63h-1.844c-2.006,0-3.632-1.626-3.632-3.632v-4.261c0-2.006,1.626-3.632,3.632-3.632h1.844
			c2.006,0,3.632,1.626,3.632,3.632v4.261C161.446,248.004,159.82,249.63,157.814,249.63z"/>
		<path fill="#0F4954" d="M183.921,249.63h-1.844c-2.006,0-3.632-1.626-3.632-3.632v-4.261c0-2.006,1.626-3.632,3.632-3.632h1.844
			c2.006,0,3.632,1.626,3.632,3.632v4.261C187.553,248.004,185.927,249.63,183.921,249.63z"/>
		<path fill="#0F4954" d="M183.618,233.595h-1.844c-2.006,0-3.632-1.626-3.632-3.632v-1.308c0-2.006,1.626-3.632,3.632-3.632h1.844
			c2.006,0,3.632,1.626,3.632,3.632v1.308C187.249,231.969,185.623,233.595,183.618,233.595z"/>
		<path fill="#0F4954" d="M157.814,233.595h-1.844c-2.006,0-3.632-1.626-3.632-3.632v-1.308c0-2.006,1.626-3.632,3.632-3.632h1.844
			c2.006,0,3.632,1.626,3.632,3.632v1.308C161.446,231.969,159.82,233.595,157.814,233.595z"/>
	</g>
	
		<path fill="none" stroke="#BC474B" stroke-width="0.6407" stroke-linecap="round" stroke-linejoin="round" stroke-miterlimit="10" d="
		M176.793,181.355h-13.17c-0.718,0-1.3-0.582-1.3-1.3v-0.134c0-0.718,0.582-1.3,1.3-1.3h13.17c0.718,0,1.3,0.582,1.3,1.3v0.134
		C178.093,180.773,177.511,181.355,176.793,181.355z"/>
</g>
</svg>
