<svg width="85" height="56" viewBox="0 0 85 56" fill="none" xmlns="http://www.w3.org/2000/svg">
    <path
        d="M84.4123 55.933H0.200988C0.0896124 55.933 0 55.7929 0 55.6188C0 55.4447 0.0896124 55.3047 0.200988 55.3047H84.4123C84.5237 55.3047 84.6133 55.4447 84.6133 55.6188C84.6133 55.7929 84.5237 55.933 84.4123 55.933Z"
        fill="#114954" />
    <path fill-rule="evenodd" clip-rule="evenodd"
        d="M33.3633 55.6214L33.7961 55.1051C34.5917 54.1567 35.0727 53.0021 35.1869 51.7696L35.7541 45.5547H48.8522L49.4194 51.7696C49.5316 53.0021 50.0126 54.1567 50.8102 55.1051L51.243 55.6214H33.3633Z"
        fill="#61BDB3" />
    <path
        d="M48.5652 45.8666L49.1063 51.7953C49.2246 53.0859 49.7336 54.3105 50.5692 55.305H34.0362C34.8699 54.3105 35.3809 53.0879 35.4991 51.7953L36.0402 45.8666H48.5652ZM49.1384 45.2383H35.4651L35.4129 45.8085L34.8719 51.7373C34.7657 52.9058 34.3087 54.0003 33.5532 54.9008L32.6875 55.9312H51.9139L51.0482 54.9008C50.2927 54.0003 49.8378 52.9078 49.7296 51.7373L49.1885 45.8085L49.1364 45.2383H49.1384Z"
        fill="#114954" />
    <path fill-rule="evenodd" clip-rule="evenodd"
        d="M35.6406 47.0898V48.1443L49.1897 48.6506V47.0898H35.6406Z" fill="#114954" />
    <path
        d="M47.5971 53.8431H37.0099C36.8356 53.8431 36.6953 53.7031 36.6953 53.529C36.6953 53.3549 36.8356 53.2148 37.0099 53.2148H47.5971C47.7715 53.2148 47.9117 53.3549 47.9117 53.529C47.9117 53.7031 47.7715 53.8431 47.5971 53.8431Z"
        fill="#114954" />
    <path
        d="M76.7376 4.44531H8.1425C7.20949 4.44531 6.45312 5.20051 6.45312 6.1321V45.2343C6.45312 46.1658 7.20949 46.9211 8.1425 46.9211H76.7376C77.6706 46.9211 78.427 46.1658 78.427 45.2343V6.1321C78.427 5.20051 77.6706 4.44531 76.7376 4.44531Z"
        fill="#61BDB3" />
    <path
        d="M76.603 4.1875H8.00791C6.9017 4.1875 6.00391 5.08392 6.00391 6.18843V45.2886C6.00391 46.3931 6.9017 47.2895 8.00791 47.2895H76.601C77.7072 47.2895 78.605 46.3931 78.605 45.2886V6.18843C78.605 5.08392 77.7072 4.1875 76.601 4.1875H76.603ZM8.00991 4.81579H76.603C77.3605 4.81579 77.9778 5.43208 77.9778 6.18843V40.6164H6.63316V6.18843C6.63316 5.43208 7.2504 4.81579 8.00791 4.81579H8.00991ZM76.603 46.6632H8.00791C7.2504 46.6632 6.63316 46.0469 6.63316 45.2906V41.2447H77.9778V45.2906C77.9778 46.0469 77.3605 46.6632 76.603 46.6632Z"
        fill="#114954" />
    <path
        d="M42.3067 44.9541C42.8601 44.9541 43.3087 44.5061 43.3087 43.9536C43.3087 43.401 42.8601 42.9531 42.3067 42.9531C41.7533 42.9531 41.3047 43.401 41.3047 43.9536C41.3047 44.5061 41.7533 44.9541 42.3067 44.9541Z"
        fill="#114954" />
    <path
        d="M61.5302 52.8697C61.0753 52.9237 60.7266 53.4479 60.7266 54.0762V55.1987C60.7266 55.4308 60.8628 55.6189 61.0312 55.6189H68.9209C69.0893 55.6189 69.2255 55.4308 69.2255 55.1987V54.0762C69.2255 53.4479 68.8769 52.9257 68.4219 52.8697C66.1274 52.5955 63.8207 52.5955 61.5282 52.8697H61.5302Z"
        fill="#61BDB3" />
    <path
        d="M68.9231 55.9322H61.0333C60.6866 55.9322 60.4141 55.6101 60.4141 55.1979V54.0754C60.4141 53.285 60.879 52.6327 61.4942 52.5587C63.8068 52.2825 66.1515 52.2825 68.4621 52.5587C69.0774 52.6327 69.5423 53.285 69.5423 54.0754V55.1979C69.5423 55.6101 69.2698 55.9322 68.9231 55.9322ZM61.0674 55.3059H68.889C68.901 55.2879 68.9131 55.2499 68.9131 55.1999V54.0774C68.9131 53.6192 68.6766 53.217 68.386 53.1829C66.1235 52.9128 63.8289 52.9128 61.5664 53.1829C61.2758 53.217 61.0393 53.6192 61.0393 54.0774V55.1999C61.0393 55.2499 61.0533 55.2879 61.0634 55.3059H61.0674Z"
        fill="#114954" />
    <path
        d="M8.00604 2.62922C7.83169 2.62922 7.69141 2.48916 7.69141 2.31508V0.314146C7.69141 0.140065 7.83169 0 8.00604 0C8.18039 0 8.32066 0.140065 8.32066 0.314146V2.31508C8.32066 2.48916 8.18039 2.62922 8.00604 2.62922Z"
        fill="#114954" />
    <path
        d="M5.26221 3.76511C5.18205 3.76511 5.10189 3.73509 5.03976 3.67306L3.62293 2.2584C3.50069 2.13635 3.50069 1.93626 3.62293 1.8142C3.74518 1.69214 3.94558 1.69214 4.06782 1.8142L5.48465 3.22886C5.6069 3.35091 5.6069 3.55101 5.48465 3.67306C5.42253 3.73509 5.34237 3.76511 5.26221 3.76511Z"
        fill="#114954" />
    <path
        d="M4.12723 6.50329H2.12322C1.94888 6.50329 1.80859 6.36323 1.80859 6.18915C1.80859 6.01507 1.94888 5.875 2.12322 5.875H4.12723C4.30158 5.875 4.44186 6.01507 4.44186 6.18915C4.44186 6.36323 4.30158 6.50329 4.12723 6.50329Z"
        fill="#114954" />
    <ellipse cx="41.9933" cy="22.798" rx="6.30974" ry="6.11439" fill="#FBF7ED" />
    <ellipse cx="33.622" cy="14.6737" rx="1.61023" ry="1.56038" fill="#FBF7ED" />
    <ellipse cx="50.1259" cy="14.6737" rx="1.61023" ry="1.56038" fill="#FBF7ED" />
    <ellipse cx="50.1259" cy="31.326" rx="1.61023" ry="1.56038" fill="#FBF7ED" />
    <ellipse cx="33.7821" cy="31.326" rx="1.61023" ry="1.56038" fill="#FBF7ED" />
    <path
        d="M47.0312 28.5429L48.6886 30.2003C48.4994 30.4859 48.3886 30.8274 48.3886 31.1948C48.3886 32.1904 49.1984 33 50.1938 33C51.189 33 51.999 32.1904 51.999 31.1948C51.999 30.1994 51.189 29.3896 50.1938 29.3896C49.8264 29.3896 49.4847 29.5006 49.1993 29.6898L47.5419 28.0322C47.3798 28.2106 47.2096 28.381 47.0312 28.5429ZM51.2769 31.1948C51.2769 31.7921 50.791 32.2779 50.1938 32.2779C49.5965 32.2779 49.1107 31.7921 49.1107 31.1948C49.1107 30.5976 49.5965 30.1116 50.1938 30.1116C50.791 30.1116 51.2769 30.5976 51.2769 31.1948Z"
        fill="#114954" />
    <path
        d="M36.9676 17.4582L35.3102 15.8009C35.4994 15.5153 35.6104 15.1737 35.6104 14.8062C35.6104 13.8108 34.8004 13.001 33.8052 13.001C32.8098 13.001 32 13.8108 32 14.8062C32 15.8018 32.8098 16.6114 33.8052 16.6114C34.1724 16.6114 34.5141 16.5006 34.7997 16.3114L36.4571 17.9688C36.619 17.7906 36.7894 17.6202 36.9676 17.4582ZM34.8884 14.8062C34.8884 15.4035 34.4024 15.8893 33.8052 15.8893C33.2079 15.8893 32.7221 15.4035 32.7221 14.8062C32.7221 14.209 33.2079 13.7231 33.8052 13.7231C34.4024 13.7231 34.8884 14.209 34.8884 14.8062Z"
        fill="#114954" />
    <path
        d="M47.5418 17.9688L49.1991 16.3114C49.4847 16.5007 49.8264 16.6116 50.1938 16.6116C51.189 16.6116 51.999 15.802 51.999 14.8064C51.999 13.811 51.189 13.0012 50.1938 13.0012C49.1984 13.0012 48.3886 13.811 48.3886 14.8064C48.3886 15.1737 48.4994 15.5155 48.6886 15.801L47.0312 17.4582C47.2094 17.6203 47.3798 17.7906 47.5418 17.9688ZM49.1107 14.8064C49.1107 14.2092 49.5965 13.7232 50.1938 13.7232C50.791 13.7232 51.2769 14.2092 51.2769 14.8064C51.2769 15.4037 50.791 15.8895 50.1938 15.8895C49.5965 15.8895 49.1107 15.4037 49.1107 14.8064Z"
        fill="#114954" />
    <path
        d="M33.8052 29.3896C32.8098 29.3896 32 30.1994 32 31.1948C32 32.1904 32.8098 33 33.8052 33C34.8004 33 35.6104 32.1904 35.6104 31.1948C35.6104 30.8274 35.4994 30.4859 35.3102 30.2003L36.9676 28.5429C36.7894 28.381 36.619 28.2106 36.4571 28.0324L34.7997 29.6898C34.5141 29.5006 34.1724 29.3896 33.8052 29.3896ZM34.8884 31.1948C34.8884 31.7921 34.4024 32.2779 33.8052 32.2779C33.2079 32.2779 32.7221 31.7921 32.7221 31.1948C32.7221 30.5976 33.2079 30.1116 33.8052 30.1116C34.4024 30.1116 34.8884 30.5976 34.8884 31.1948Z"
        fill="#114954" />
    <path
        d="M45.9792 26.5265C46.1523 26.3317 46.311 26.1241 46.4541 25.9055C46.0983 25.806 45.7257 25.7188 45.3394 25.6448C45.4955 24.9391 45.5905 24.1698 45.6123 23.3581H47.3087C47.3167 23.2386 47.3223 23.1186 47.3223 22.9971C47.3223 22.8756 47.3167 22.7555 47.3087 22.636H45.6123C45.5905 21.8244 45.4955 21.0549 45.3394 20.3492C45.7257 20.2752 46.0983 20.1882 46.4541 20.0887C46.311 19.8701 46.1523 19.6625 45.9793 19.4677C45.7143 19.5349 45.4383 19.5935 45.1565 19.6466C45.0215 19.1946 44.8599 18.7758 44.6749 18.3981C44.3175 18.1894 43.9342 18.0208 43.5306 17.8993C43.89 18.3788 44.1981 19.018 44.4303 19.765C43.7667 19.8571 43.0719 19.9112 42.3601 19.925V17.6874C42.2406 17.6793 42.1205 17.6739 41.999 17.6739C41.8775 17.6739 41.7575 17.6793 41.638 17.6874V19.925C40.9262 19.9112 40.2313 19.8571 39.5677 19.765C39.7999 19.018 40.108 18.3788 40.4675 17.8993C40.0638 18.0208 39.6806 18.1894 39.3233 18.3981C39.1381 18.7758 38.9765 19.1946 38.8415 19.6466C38.5597 19.5935 38.2839 19.5349 38.0187 19.4677C37.8457 19.6625 37.6871 19.8701 37.5439 20.0887C37.8999 20.1882 38.2723 20.2752 38.6586 20.3492C38.5025 21.0549 38.4075 21.8244 38.3857 22.636H36.6893C36.6814 22.7555 36.6758 22.8756 36.6758 22.9971C36.6758 23.1186 36.6814 23.2386 36.6893 23.3581H38.3857C38.4075 24.1698 38.5025 24.9391 38.6586 25.6448C38.2723 25.719 37.8999 25.806 37.5439 25.9055C37.6872 26.1243 37.8457 26.3317 38.0189 26.5265C38.2839 26.4593 38.5597 26.4008 38.8415 26.3476C38.9765 26.7996 39.1381 27.2184 39.3233 27.5961C39.6806 27.8047 40.0638 27.9734 40.4675 28.0948C40.108 27.6152 39.8001 26.9762 39.5679 26.2293C40.2313 26.1371 40.9262 26.0829 41.638 26.0692V28.3068C41.7575 28.3147 41.8775 28.3203 41.999 28.3203C42.1205 28.3203 42.2406 28.3147 42.3601 28.3068V26.0692C43.072 26.0829 43.7669 26.1371 44.4303 26.2293C44.198 26.9762 43.89 27.6152 43.5306 28.0948C43.9342 27.9734 44.3175 27.8047 44.6749 27.5961C44.8599 27.2184 45.0215 26.7996 45.1565 26.3476C45.4383 26.4008 45.7143 26.4593 45.9792 26.5265ZM44.6193 20.4701C44.7716 21.1392 44.8664 21.871 44.8892 22.636H42.3601V20.6505C43.1363 20.636 43.8959 20.5747 44.6193 20.4701ZM39.3787 20.4701C40.1021 20.5747 40.8619 20.636 41.638 20.6505V22.636H39.1089C39.1318 21.871 39.2264 21.1392 39.3787 20.4701ZM39.3787 25.524C39.2264 24.855 39.1318 24.1232 39.1089 23.3581H41.638V25.3437C40.8617 25.3581 40.1021 25.4195 39.3787 25.524ZM42.3601 25.3437V23.3581H44.8892C44.8664 24.1232 44.7716 24.8548 44.6193 25.524C43.8959 25.4195 43.1363 25.3581 42.3601 25.3437Z"
        fill="#114954" />
    <path
        d="M41.9979 29.7656C45.7295 29.7656 48.7653 26.7298 48.7653 22.9982C48.7653 19.2666 45.7295 16.2308 41.9979 16.2308C38.2663 16.2308 35.2305 19.2666 35.2305 22.9982C35.2305 26.7298 38.2663 29.7656 41.9979 29.7656ZM41.9979 29.0435C38.6644 29.0435 35.9526 26.3316 35.9526 22.9982C35.9526 19.6649 38.6644 16.9529 41.9979 16.9529C45.3314 16.9529 48.0432 19.6649 48.0432 22.9982C48.0432 26.3316 45.3314 29.0435 41.9979 29.0435Z"
        fill="#114954" />
</svg>