<svg width="85" height="56" viewBox="0 0 85 56" fill="none" xmlns="http://www.w3.org/2000/svg">
<path d="M84.4123 55.933H0.200988C0.0896124 55.933 0 55.7929 0 55.6188C0 55.4447 0.0896124 55.3047 0.200988 55.3047H84.4123C84.5237 55.3047 84.6133 55.4447 84.6133 55.6188C84.6133 55.7929 84.5237 55.933 84.4123 55.933Z" fill="#114954"/>
<path fill-rule="evenodd" clip-rule="evenodd" d="M33.3597 55.6212L33.7916 55.1059C34.5869 54.1565 35.067 53.0031 35.1793 51.7698L35.7465 45.5547H48.8252L49.3924 51.7698C49.505 53.0031 49.9847 54.1565 50.7801 55.1059L51.2116 55.6212H33.3594H33.3597Z" fill="#BBA7F4"/>
<path d="M48.5388 45.8698L49.08 51.7996C49.1977 53.0904 49.7073 54.3148 50.5397 55.3084H34.032C34.8648 54.3148 35.374 53.0904 35.4917 51.7996L36.0329 45.8698H48.5388ZM49.1117 45.2422H35.4604L35.4082 45.8126L34.8669 51.7423C34.7601 52.9116 34.3052 54.0053 33.5512 54.9053L32.6875 55.936H51.8842L51.0205 54.9053C50.2662 54.0053 49.8113 52.9116 49.7048 51.7423L49.1635 45.8126L49.1113 45.2422H49.1117Z" fill="#114954"/>
<path fill-rule="evenodd" clip-rule="evenodd" d="M35.6328 47.0938V48.1471L49.1607 48.6542V47.0938H35.6328Z" fill="#114954"/>
<path d="M47.5689 53.8464H36.9974C36.8239 53.8464 36.6836 53.706 36.6836 53.5326C36.6836 53.3591 36.8239 53.2188 36.9974 53.2188H47.5689C47.7423 53.2188 47.8827 53.3591 47.8827 53.5326C47.8827 53.706 47.7423 53.8464 47.5689 53.8464Z" fill="#114954"/>
<path d="M8.04259 4.5H76.531C77.4623 4.5 78.2181 5.25611 78.2181 6.18712V45.2881C78.2181 46.2194 77.462 46.9752 76.531 46.9752H8.04259C7.11158 46.9752 6.35547 46.2191 6.35547 45.2881V6.18712C6.35547 5.25611 7.11158 4.5 8.04259 4.5Z" fill="#BBA7F4"/>
<path d="M76.528 4.1875H8.04C6.93481 4.1875 6.03906 5.08324 6.03906 6.18843V45.2894C6.03906 46.3946 6.93481 47.2903 8.04 47.2903H76.5284C77.6336 47.2903 78.5293 46.3946 78.5293 45.2894V6.18843C78.5293 5.08324 77.6336 4.1875 76.5284 4.1875H76.528ZM8.03964 4.81513H76.528C77.2852 4.81513 77.9013 5.43125 77.9013 6.18843V40.6156H6.66633V6.18843C6.66633 5.43125 7.28245 4.81513 8.03964 4.81513ZM76.528 46.6627H8.04C7.28281 46.6627 6.66669 46.0466 6.66669 45.2894V41.2436H77.902V45.2894C77.902 46.0466 77.2859 46.6627 76.5287 46.6627H76.528Z" fill="#114954"/>
<path d="M42.2856 44.9541C42.8382 44.9541 43.2861 44.5061 43.2861 43.9536C43.2861 43.4011 42.8382 42.9531 42.2856 42.9531C41.7331 42.9531 41.2852 43.4011 41.2852 43.9536C41.2852 44.5061 41.7331 44.9541 42.2856 44.9541Z" fill="#114954"/>
<path d="M61.4776 52.87C61.0238 52.9243 60.6758 53.448 60.6758 54.076V55.1981C60.6758 55.4302 60.8122 55.618 60.9806 55.618H68.8587C69.0268 55.618 69.1632 55.4298 69.1632 55.1981V54.076C69.1632 53.448 68.8148 52.9243 68.3614 52.87C66.0711 52.5954 63.7682 52.5954 61.478 52.87H61.4776Z" fill="#BBA7F4"/>
<path d="M68.8597 55.9323H60.9819C60.635 55.9323 60.3633 55.6098 60.3633 55.1985V54.0764C60.3633 53.2854 60.8268 52.6329 61.4415 52.5591C63.7501 52.2824 66.0908 52.2824 68.3994 52.5591C69.0141 52.6329 69.478 53.2854 69.478 54.0764V55.1985C69.478 55.6098 69.2063 55.9323 68.8597 55.9323ZM61.0157 55.3046H68.8255C68.8366 55.2856 68.8503 55.2489 68.8503 55.1985V54.0764C68.8503 53.6183 68.6146 53.2166 68.3245 53.1821C66.0656 52.9111 63.7749 52.9111 61.516 53.1821C61.2259 53.217 60.9902 53.6183 60.9902 54.0764V55.1985C60.9902 55.2489 61.0039 55.2856 61.015 55.3046H61.0157Z" fill="#114954"/>
<path d="M8.04038 2.62856C7.86692 2.62856 7.72656 2.48821 7.72656 2.31475V0.313815C7.72656 0.140353 7.86692 0 8.04038 0C8.21384 0 8.35419 0.140353 8.35419 0.313815V2.31475C8.35419 2.48821 8.21384 2.62856 8.04038 2.62856Z" fill="#114954"/>
<path d="M5.30272 3.76462C5.22247 3.76462 5.14222 3.73402 5.08068 3.67284L3.66599 2.25816C3.54363 2.1358 3.54363 1.93678 3.66599 1.81443C3.78835 1.69207 3.98736 1.69207 4.10972 1.81443L5.52441 3.22911C5.64677 3.35147 5.64677 3.55049 5.52441 3.67284C5.46323 3.73402 5.38298 3.76462 5.30236 3.76462H5.30272Z" fill="#114954"/>
<path d="M4.16631 6.50263H2.16538C1.99192 6.50263 1.85156 6.36228 1.85156 6.18882C1.85156 6.01535 1.99192 5.875 2.16538 5.875H4.16631C4.33977 5.875 4.48013 6.01535 4.48013 6.18882C4.48013 6.36228 4.33977 6.50263 4.16631 6.50263Z" fill="#114954"/>
<path d="M25.5977 40.9344V4.4293C25.5977 3.49902 26.3545 2.74219 27.2848 2.74219H57.5114C58.4417 2.74219 59.1986 3.49902 59.1986 4.4293V40.9344H25.5977Z" fill="#FBF7ED"/>
<path d="M27.7136 5.1029C28.0451 5.1029 28.3138 4.83415 28.3138 4.50262C28.3138 4.1711 28.0451 3.90234 27.7136 3.90234C27.382 3.90234 27.1133 4.1711 27.1133 4.50262C27.1133 4.83415 27.382 5.1029 27.7136 5.1029Z" fill="#114954"/>
<path d="M30.1159 5.1029C30.4474 5.1029 30.7162 4.83415 30.7162 4.50262C30.7162 4.1711 30.4474 3.90234 30.1159 3.90234C29.7844 3.90234 29.5156 4.1711 29.5156 4.50262C29.5156 4.83415 29.7844 5.1029 30.1159 5.1029Z" fill="#114954"/>
<path d="M32.5183 5.1029C32.8498 5.1029 33.1185 4.83415 33.1185 4.50262C33.1185 4.1711 32.8498 3.90234 32.5183 3.90234C32.1867 3.90234 31.918 4.1711 31.918 4.50262C31.918 4.83415 32.1867 5.1029 32.5183 5.1029Z" fill="#114954"/>
<path d="M57.5131 2.42578H27.2861C26.1809 2.42578 25.2852 3.32152 25.2852 4.42671V41.246H59.5141V4.42671C59.5141 3.32152 58.6183 2.42578 57.5131 2.42578ZM27.2861 3.05341H57.5131C58.2703 3.05341 58.8864 3.66953 58.8864 4.42671V5.95404H25.9128V4.42671C25.9128 3.66953 26.5289 3.05341 27.2861 3.05341ZM25.9128 40.6184V6.58168H58.8864V40.6184H25.9128Z" fill="#114954"/>
<ellipse cx="42.3021" cy="23.3685" rx="6.3099" ry="6.11455" fill="#BBA7F4"/>
<ellipse cx="33.9306" cy="15.2401" rx="1.61027" ry="1.56042" fill="#BBA7F4"/>
<ellipse cx="50.4345" cy="15.2401" rx="1.61027" ry="1.56042" fill="#BBA7F4"/>
<ellipse cx="50.4345" cy="31.8964" rx="1.61027" ry="1.56042" fill="#BBA7F4"/>
<ellipse cx="34.0907" cy="31.8964" rx="1.61027" ry="1.56042" fill="#BBA7F4"/>
<path d="M47.3398 29.1131L48.9973 30.7705C48.8081 31.0561 48.6972 31.3977 48.6972 31.765C48.6972 32.7607 49.5071 33.5703 50.5025 33.5703C51.4977 33.5703 52.3077 32.7607 52.3077 31.765C52.3077 30.7696 51.4977 29.9598 50.5025 29.9598C50.1351 29.9598 49.7934 30.0708 49.508 30.26L47.8505 28.6024C47.6884 28.7808 47.5182 28.9512 47.3398 29.1131ZM51.5856 31.765C51.5856 32.3624 51.0997 32.8482 50.5025 32.8482C49.9051 32.8482 49.4193 32.3624 49.4193 31.765C49.4193 31.1679 49.9051 30.6819 50.5025 30.6819C51.0997 30.6819 51.5856 31.1679 51.5856 31.765Z" fill="#114954"/>
<path d="M37.2763 18.0285L35.6189 16.3711C35.8081 16.0855 35.9191 15.744 35.9191 15.3764C35.9191 14.381 35.1091 13.5712 34.1139 13.5712C33.1184 13.5712 32.3086 14.381 32.3086 15.3764C32.3086 16.372 33.1184 17.1817 34.1139 17.1817C34.4811 17.1817 34.8228 17.0708 35.1084 16.8817L36.7658 18.5391C36.9277 18.3609 37.0981 18.1905 37.2763 18.0285ZM35.197 15.3764C35.197 15.9738 34.711 16.4596 34.1139 16.4596C33.5165 16.4596 33.0307 15.9738 33.0307 15.3764C33.0307 14.7792 33.5165 14.2933 34.1139 14.2933C34.711 14.2933 35.197 14.7792 35.197 15.3764Z" fill="#114954"/>
<path d="M47.8504 18.5391L49.5078 16.8816C49.7934 17.071 50.1351 17.1819 50.5025 17.1819C51.4977 17.1819 52.3077 16.3722 52.3077 15.3766C52.3077 14.3812 51.4977 13.5713 50.5025 13.5713C49.5071 13.5713 48.6972 14.3812 48.6972 15.3766C48.6972 15.744 48.8081 16.0857 48.9973 16.3713L47.3398 18.0285C47.518 18.1906 47.6884 18.3609 47.8504 18.5391ZM49.4193 15.3766C49.4193 14.7794 49.9051 14.2934 50.5025 14.2934C51.0997 14.2934 51.5856 14.7794 51.5856 15.3766C51.5856 15.974 51.0997 16.4598 50.5025 16.4598C49.9051 16.4598 49.4193 15.974 49.4193 15.3766Z" fill="#114954"/>
<path d="M34.1139 29.9598C33.1184 29.9598 32.3086 30.7696 32.3086 31.765C32.3086 32.7607 33.1184 33.5703 34.1139 33.5703C35.1091 33.5703 35.9191 32.7607 35.9191 31.765C35.9191 31.3977 35.8081 31.0561 35.6189 30.7705L37.2763 29.1131C37.0981 28.9512 36.9277 28.7808 36.7658 28.6026L35.1084 30.26C34.8228 30.0708 34.4811 29.9598 34.1139 29.9598ZM35.197 31.765C35.197 32.3624 34.711 32.8482 34.1139 32.8482C33.5165 32.8482 33.0307 32.3624 33.0307 31.765C33.0307 31.1679 33.5165 30.6819 34.1139 30.6819C34.711 30.6819 35.197 31.1679 35.197 31.765Z" fill="#114954"/>
<path d="M46.288 27.0967C46.4611 26.902 46.6198 26.6943 46.7629 26.4757C46.4071 26.3763 46.0345 26.2891 45.6482 26.215C45.8044 25.5094 45.8993 24.74 45.9212 23.9283H47.6176C47.6255 23.8088 47.6311 23.6888 47.6311 23.5673C47.6311 23.4458 47.6255 23.3257 47.6176 23.2062H45.9212C45.8993 22.3946 45.8044 21.625 45.6482 20.9193C46.0345 20.8453 46.4071 20.7583 46.7629 20.6588C46.6198 20.4402 46.4611 20.2326 46.2882 20.0378C46.0232 20.1049 45.7471 20.1636 45.4653 20.2167C45.3303 19.7647 45.1687 19.3458 44.9837 18.9682C44.6262 18.7595 44.243 18.5909 43.8393 18.4694C44.1988 18.9489 44.5069 19.5881 44.7391 20.3351C44.0755 20.4272 43.3806 20.4813 42.6688 20.4951V18.2574C42.5493 18.2493 42.4292 18.2439 42.3078 18.2439C42.1863 18.2439 42.0662 18.2493 41.9467 18.2574V20.4951C41.2349 20.4813 40.54 20.4272 39.8764 20.3351C40.1086 19.5881 40.4167 18.9489 40.7761 18.4694C40.3725 18.5909 39.9892 18.7595 39.632 18.9682C39.4468 19.3458 39.2852 19.7647 39.1501 20.2167C38.8683 20.1636 38.5925 20.1049 38.3273 20.0378C38.1544 20.2326 37.9957 20.4402 37.8525 20.6588C38.2085 20.7583 38.5809 20.8453 38.9673 20.9193C38.8111 21.625 38.7162 22.3946 38.6943 23.2062H36.9979C36.99 23.3257 36.9844 23.4458 36.9844 23.5673C36.9844 23.6888 36.99 23.8088 36.9979 23.9283H38.6943C38.7162 24.74 38.8111 25.5094 38.9673 26.215C38.5809 26.2892 38.2085 26.3763 37.8525 26.4757C37.9959 26.6945 38.1544 26.902 38.3275 27.0967C38.5925 27.0296 38.8683 26.9711 39.1501 26.9178C39.2852 27.3699 39.4468 27.7887 39.632 28.1664C39.9892 28.375 40.3725 28.5437 40.7761 28.6652C40.4167 28.1855 40.1087 27.5464 39.8766 26.7996C40.54 26.7073 41.2349 26.6532 41.9467 26.6395V28.8771C42.0662 28.885 42.1863 28.8906 42.3078 28.8906C42.4292 28.8906 42.5493 28.885 42.6688 28.8771V26.6395C43.3808 26.6532 44.0756 26.7073 44.7391 26.7996C44.5067 27.5464 44.1988 28.1855 43.8393 28.6652C44.243 28.5437 44.6262 28.375 44.9837 28.1664C45.1687 27.7887 45.3303 27.3699 45.4653 26.9178C45.7471 26.9711 46.0232 27.0296 46.288 27.0967ZM44.9281 21.0403C45.0804 21.7093 45.1752 22.4411 45.198 23.2062H42.6688V21.2206C43.4451 21.2061 44.2047 21.1448 44.9281 21.0403ZM39.6874 21.0403C40.4108 21.1448 41.1706 21.2061 41.9467 21.2206V23.2062H39.4175C39.4404 22.4411 39.535 21.7093 39.6874 21.0403ZM39.6874 26.0943C39.535 25.4252 39.4404 24.6934 39.4175 23.9283H41.9467V25.9139C41.1704 25.9284 40.4108 25.9897 39.6874 26.0943ZM42.6688 25.9139V23.9283H45.198C45.1752 24.6934 45.0804 25.4251 44.9281 26.0943C44.2047 25.9897 43.4451 25.9284 42.6688 25.9139Z" fill="#114954"/>
<path d="M42.3066 30.3359C46.0383 30.3359 49.0742 27.3 49.0742 23.5684C49.0742 19.8367 46.0383 16.8008 42.3066 16.8008C38.575 16.8008 35.5391 19.8367 35.5391 23.5684C35.5391 27.3 38.575 30.3359 42.3066 30.3359ZM42.3066 29.6138C38.973 29.6138 36.2612 26.9018 36.2612 23.5684C36.2612 20.2349 38.973 17.5229 42.3066 17.5229C45.6403 17.5229 48.3521 20.2349 48.3521 23.5684C48.3521 26.9018 45.6403 29.6138 42.3066 29.6138Z" fill="#114954"/>
</svg>
