<svg width="85" height="56" viewBox="0 0 85 56" fill="none" xmlns="http://www.w3.org/2000/svg">
<path d="M84.4123 55.933H0.200988C0.0896124 55.933 0 55.7929 0 55.6188C0 55.4447 0.0896124 55.3047 0.200988 55.3047H84.4123C84.5237 55.3047 84.6133 55.4447 84.6133 55.6188C84.6133 55.7929 84.5237 55.933 84.4123 55.933Z" fill="#114954"/>
<path fill-rule="evenodd" clip-rule="evenodd" d="M33.3597 55.6212L33.7916 55.1059C34.5869 54.1565 35.067 53.0031 35.1793 51.7698L35.7465 45.5547H48.8252L49.3924 51.7698C49.505 53.0031 49.9847 54.1565 50.7801 55.1059L51.2116 55.6212H33.3594H33.3597Z" fill="#BBA7F4"/>
<path d="M48.5388 45.8698L49.08 51.7996C49.1977 53.0904 49.7073 54.3148 50.5397 55.3084H34.032C34.8648 54.3148 35.374 53.0904 35.4917 51.7996L36.0329 45.8698H48.5388ZM49.1117 45.2422H35.4604L35.4082 45.8126L34.8669 51.7423C34.7601 52.9116 34.3052 54.0053 33.5512 54.9053L32.6875 55.936H51.8842L51.0205 54.9053C50.2662 54.0053 49.8113 52.9116 49.7048 51.7423L49.1635 45.8126L49.1113 45.2422H49.1117Z" fill="#114954"/>
<path fill-rule="evenodd" clip-rule="evenodd" d="M35.6328 47.0938V48.1471L49.1607 48.6542V47.0938H35.6328Z" fill="#114954"/>
<path d="M47.5728 53.8464H37.0013C36.8279 53.8464 36.6875 53.706 36.6875 53.5326C36.6875 53.3591 36.8279 53.2188 37.0013 53.2188H47.5728C47.7463 53.2188 47.8866 53.3591 47.8866 53.5326C47.8866 53.706 47.7463 53.8464 47.5728 53.8464Z" fill="#114954"/>
<path d="M8.03868 4.5H76.5271C77.4584 4.5 78.2142 5.25611 78.2142 6.18712V45.2881C78.2142 46.2194 77.4581 46.9752 76.5271 46.9752H8.03868C7.10767 46.9752 6.35156 46.2191 6.35156 45.2881V6.18712C6.35156 5.25611 7.10767 4.5 8.03868 4.5Z" fill="#BBA7F4"/>
<path d="M76.528 4.1875H8.04C6.93481 4.1875 6.03906 5.08324 6.03906 6.18843V45.2894C6.03906 46.3946 6.93481 47.2903 8.04 47.2903H76.5284C77.6336 47.2903 78.5293 46.3946 78.5293 45.2894V6.18843C78.5293 5.08324 77.6336 4.1875 76.5284 4.1875H76.528ZM8.03964 4.81513H76.528C77.2852 4.81513 77.9013 5.43125 77.9013 6.18843V40.6156H6.66633V6.18843C6.66633 5.43125 7.28245 4.81513 8.03964 4.81513ZM76.528 46.6627H8.04C7.28281 46.6627 6.66669 46.0466 6.66669 45.2894V41.2436H77.902V45.2894C77.902 46.0466 77.2859 46.6627 76.5287 46.6627H76.528Z" fill="#114954"/>
<path d="M42.2817 44.9541C42.8343 44.9541 43.2822 44.5061 43.2822 43.9536C43.2822 43.4011 42.8343 42.9531 42.2817 42.9531C41.7292 42.9531 41.2812 43.4011 41.2812 43.9536C41.2812 44.5061 41.7292 44.9541 42.2817 44.9541Z" fill="#114954"/>
<path d="M61.4815 52.87C61.0277 52.9243 60.6797 53.448 60.6797 54.076V55.1981C60.6797 55.4302 60.8161 55.618 60.9845 55.618H68.8626C69.0307 55.618 69.1671 55.4298 69.1671 55.1981V54.076C69.1671 53.448 68.8187 52.9243 68.3653 52.87C66.075 52.5954 63.7721 52.5954 61.4819 52.87H61.4815Z" fill="#BBA7F4"/>
<path d="M68.8597 55.9323H60.9819C60.635 55.9323 60.3633 55.6098 60.3633 55.1985V54.0764C60.3633 53.2854 60.8268 52.6329 61.4415 52.5591C63.7501 52.2824 66.0908 52.2824 68.3994 52.5591C69.0141 52.6329 69.478 53.2854 69.478 54.0764V55.1985C69.478 55.6098 69.2063 55.9323 68.8597 55.9323ZM61.0157 55.3046H68.8255C68.8366 55.2856 68.8503 55.2489 68.8503 55.1985V54.0764C68.8503 53.6183 68.6146 53.2166 68.3245 53.1821C66.0656 52.9111 63.7749 52.9111 61.516 53.1821C61.2259 53.217 60.9902 53.6183 60.9902 54.0764V55.1985C60.9902 55.2489 61.0039 55.2856 61.015 55.3046H61.0157Z" fill="#114954"/>
<path d="M8.04038 2.62856C7.86692 2.62856 7.72656 2.48821 7.72656 2.31475V0.313815C7.72656 0.140353 7.86692 0 8.04038 0C8.21384 0 8.35419 0.140353 8.35419 0.313815V2.31475C8.35419 2.48821 8.21384 2.62856 8.04038 2.62856Z" fill="#114954"/>
<path d="M5.29882 3.76462C5.21856 3.76462 5.13831 3.73402 5.07677 3.67284L3.66208 2.25816C3.53972 2.1358 3.53972 1.93678 3.66208 1.81443C3.78444 1.69207 3.98346 1.69207 4.10581 1.81443L5.5205 3.22911C5.64286 3.35147 5.64286 3.55049 5.5205 3.67284C5.45932 3.73402 5.37907 3.76462 5.29846 3.76462H5.29882Z" fill="#114954"/>
<path d="M4.16631 6.50263H2.16538C1.99192 6.50263 1.85156 6.36228 1.85156 6.18882C1.85156 6.01535 1.99192 5.875 2.16538 5.875H4.16631C4.33977 5.875 4.48013 6.01535 4.48013 6.18882C4.48013 6.36228 4.33977 6.50263 4.16631 6.50263Z" fill="#114954"/>
<path d="M25.4844 40.9344V4.4293C25.4844 3.49902 26.2412 2.74219 27.1715 2.74219H57.3982C58.3285 2.74219 59.0853 3.49902 59.0853 4.4293V40.9344H25.4844Z" fill="#FBF7ED"/>
<path d="M27.6003 5.1029C27.9318 5.1029 28.2006 4.83415 28.2006 4.50262C28.2006 4.1711 27.9318 3.90234 27.6003 3.90234C27.2688 3.90234 27 4.1711 27 4.50262C27 4.83415 27.2688 5.1029 27.6003 5.1029Z" fill="#114954"/>
<path d="M30.0026 5.1029C30.3341 5.1029 30.6029 4.83415 30.6029 4.50262C30.6029 4.1711 30.3341 3.90234 30.0026 3.90234C29.6711 3.90234 29.4023 4.1711 29.4023 4.50262C29.4023 4.83415 29.6711 5.1029 30.0026 5.1029Z" fill="#114954"/>
<path d="M32.405 5.1029C32.7365 5.1029 33.0052 4.83415 33.0052 4.50262C33.0052 4.1711 32.7365 3.90234 32.405 3.90234C32.0734 3.90234 31.8047 4.1711 31.8047 4.50262C31.8047 4.83415 32.0734 5.1029 32.405 5.1029Z" fill="#114954"/>
<path d="M57.3998 2.42578H27.1728C26.0676 2.42578 25.1719 3.32152 25.1719 4.42671V41.246H59.4008V4.42671C59.4008 3.32152 58.505 2.42578 57.3998 2.42578ZM27.1728 3.05341H57.3998C58.157 3.05341 58.7731 3.66953 58.7731 4.42671V5.95404H25.7995V4.42671C25.7995 3.66953 26.4156 3.05341 27.1728 3.05341ZM25.7995 40.6184V6.58168H58.7731V40.6184H25.7995Z" fill="#114954"/>
<path d="M43.1982 30.1582L43.4678 28.2979L43.4883 28.1553L43.6279 28.1191C44.1506 27.9839 44.6438 27.7782 45.0967 27.5107L45.2207 27.4375L45.3369 27.5244L46.8428 28.6494L48.2539 27.2383L47.1289 25.7314L47.042 25.6162L47.1162 25.4922C47.3837 25.0393 47.5889 24.546 47.7236 24.0234L47.7588 23.8838L47.9023 23.8633L49.7627 23.5947V21.5986L47.9023 21.3291L47.7588 21.3086L47.7236 21.1689C47.5889 20.6464 47.3837 20.1531 47.1162 19.7002L47.042 19.5762L47.1289 19.46L48.2529 17.9541L46.8428 16.5439L45.3369 17.668L45.2207 17.7549L45.0967 17.6807C44.6438 17.4132 44.1506 17.2085 43.6279 17.0732L43.4883 17.0371L43.4678 16.8945L43.1982 15.0342H41.2031L40.9336 16.8945L40.9131 17.0371L40.7734 17.0732L40.3867 17.1875C40.0065 17.3148 39.6443 17.4801 39.3047 17.6807L39.1807 17.7549L39.0654 17.668L37.5586 16.543L36.1475 17.9541L37.2725 19.46L37.3594 19.5762L37.2861 19.7002C37.0187 20.1531 36.8135 20.6464 36.6787 21.1689L36.6426 21.3086L36.5 21.3291L34.6387 21.5986V23.5947L36.5 23.8633L36.6426 23.8838L36.6787 24.0234C36.8135 24.546 37.0187 25.0393 37.2861 25.4922L37.3594 25.6162L37.2725 25.7314L36.1465 27.2383L37.5586 28.6504L39.0654 27.5244L39.1807 27.4375L39.3047 27.5107C39.7576 27.7782 40.2508 27.9839 40.7734 28.1191L40.9131 28.1553L40.9336 28.2979L41.2031 30.1582H43.1982Z" fill="#BBA7F4" stroke="#114954" stroke-width="0.433395"/>
<path d="M44.4216 22.5939C44.4216 23.8214 43.4266 24.8164 42.1991 24.8164C40.9716 24.8164 39.9766 23.8214 39.9766 22.5939C39.9766 21.3664 40.9716 20.3713 42.1991 20.3713C43.4266 20.3713 44.4216 21.3664 44.4216 22.5939Z" fill="#FBF7ED" stroke="#114954" stroke-width="0.433395"/>
</svg>
