<svg width="85" height="56" viewBox="0 0 85 56" fill="none" xmlns="http://www.w3.org/2000/svg">
  <path
    d="M84.4123 55.933H0.200988C0.0896124 55.933 0 55.7929 0 55.6188C0 55.4447 0.0896124 55.3047 0.200988 55.3047H84.4123C84.5237 55.3047 84.6133 55.4447 84.6133 55.6188C84.6133 55.7929 84.5237 55.933 84.4123 55.933Z"
    fill="#114954" />
  <path fill-rule="evenodd" clip-rule="evenodd"
    d="M33.3633 55.6214L33.7961 55.1051C34.5917 54.1567 35.0727 53.0021 35.1869 51.7696L35.7541 45.5547H48.8522L49.4194 51.7696C49.5316 53.0021 50.0126 54.1567 50.8102 55.1051L51.243 55.6214H33.3633Z"
    fill="#61BDB3" />
  <path
    d="M48.5652 45.8666L49.1063 51.7953C49.2246 53.0859 49.7336 54.3105 50.5692 55.305H34.0362C34.8699 54.3105 35.3809 53.0879 35.4991 51.7953L36.0402 45.8666H48.5652ZM49.1384 45.2383H35.4651L35.4129 45.8085L34.8719 51.7373C34.7657 52.9058 34.3087 54.0003 33.5532 54.9008L32.6875 55.9312H51.9139L51.0482 54.9008C50.2927 54.0003 49.8378 52.9078 49.7296 51.7373L49.1885 45.8085L49.1364 45.2383H49.1384Z"
    fill="#114954" />
  <path fill-rule="evenodd" clip-rule="evenodd"
    d="M35.6406 47.0898V48.1443L49.1897 48.6506V47.0898H35.6406Z" fill="#114954" />
  <path
    d="M47.5971 53.8431H37.0099C36.8356 53.8431 36.6953 53.7031 36.6953 53.529C36.6953 53.3549 36.8356 53.2148 37.0099 53.2148H47.5971C47.7715 53.2148 47.9117 53.3549 47.9117 53.529C47.9117 53.7031 47.7715 53.8431 47.5971 53.8431Z"
    fill="#114954" />
  <path
    d="M76.7376 4.44531H8.1425C7.20949 4.44531 6.45312 5.20051 6.45312 6.1321V45.2343C6.45312 46.1658 7.20949 46.9211 8.1425 46.9211H76.7376C77.6706 46.9211 78.427 46.1658 78.427 45.2343V6.1321C78.427 5.20051 77.6706 4.44531 76.7376 4.44531Z"
    fill="#61BDB3" />
  <g clip-path="url(#clip0_8863_18811)">
    <path
      d="M47.2813 20.7505C47.6301 16.5886 44.5389 12.932 40.3769 12.5832C36.215 12.2344 32.5584 15.3256 32.2096 19.4876C31.8608 23.6495 34.952 27.3062 39.114 27.6549C43.2759 28.0037 46.9326 24.9125 47.2813 20.7505Z"
      fill="#FBF7ED" />
    <path
      d="M39.7476 27.8976C35.4587 27.8976 31.9688 24.4087 31.9688 20.1187C31.9688 15.8288 35.4587 12.3398 39.7476 12.3398C44.0366 12.3398 47.5265 15.8298 47.5265 20.1187C47.5265 24.4077 44.0366 27.8976 39.7476 27.8976ZM39.7476 12.7731C35.6974 12.7731 32.402 16.0685 32.402 20.1187C32.402 24.169 35.6974 27.4644 39.7476 27.4644C43.7979 27.4644 47.0933 24.169 47.0933 20.1187C47.0933 16.0685 43.7988 12.7731 39.7476 12.7731Z"
      fill="#114954" />
    <path
      d="M39.7464 27.8976C37.6631 27.8976 36.0312 24.4809 36.0312 20.1187C36.0312 15.7566 37.6631 12.3398 39.7464 12.3398C41.8298 12.3398 43.4616 15.7566 43.4616 20.1187C43.4616 24.4809 41.8298 27.8976 39.7464 27.8976ZM39.7464 12.7731C37.9673 12.7731 36.4645 16.1369 36.4645 20.1187C36.4645 24.1006 37.9673 27.4644 39.7464 27.4644C41.5256 27.4644 43.0284 24.1006 43.0284 20.1187C43.0284 16.1369 41.5256 12.7731 39.7464 12.7731Z"
      fill="#114954" />
    <path
      d="M47.3099 20.3356H32.1854C32.066 20.3356 31.9688 20.2383 31.9688 20.119C31.9688 19.9996 32.066 19.9023 32.1854 19.9023H47.3099C47.4293 19.9023 47.5265 19.9996 47.5265 20.119C47.5265 20.2383 47.4293 20.3356 47.3099 20.3356Z"
      fill="#114954" />
    <path
      d="M46.1878 16.3746H33.3026C33.1832 16.3746 33.0859 16.2774 33.0859 16.158C33.0859 16.0386 33.1832 15.9414 33.3026 15.9414H46.1878C46.3072 15.9414 46.4044 16.0386 46.4044 16.158C46.4044 16.2774 46.3072 16.3746 46.1878 16.3746Z"
      fill="#114954" />
    <path
      d="M46.1878 24.2965H33.3026C33.1832 24.2965 33.0859 24.1993 33.0859 24.0799C33.0859 23.9605 33.1832 23.8633 33.3026 23.8633H46.1878C46.3072 23.8633 46.4044 23.9605 46.4044 24.0799C46.4044 24.1993 46.3072 24.2965 46.1878 24.2965Z"
      fill="#114954" />
    <path
      d="M39.7479 27.8976C39.6285 27.8976 39.5312 27.8004 39.5312 27.681V12.5565C39.5312 12.4371 39.6285 12.3398 39.7479 12.3398C39.8672 12.3398 39.9645 12.4371 39.9645 12.5565V27.681C39.9645 27.8004 39.8672 27.8976 39.7479 27.8976Z"
      fill="#114954" />
  </g>
  <g clip-path="url(#clip1_8863_18811)">
    <path
      d="M49.016 27.0047L44.8154 25.9959C44.3218 25.8774 43.8774 26.3218 43.9959 26.8154L45.0047 31.016C45.1288 31.5325 45.7707 31.7135 46.1458 31.3377L46.8994 30.5834L48.6749 32.3589C48.9405 32.6245 49.3703 32.6245 49.6358 32.3589L50.3589 31.6358C50.6245 31.3703 50.6245 30.9405 50.3589 30.6749L48.5834 28.8994L49.337 28.1458C49.7128 27.7701 49.5318 27.1288 49.0153 27.0047H49.016Z"
      fill="#114954" />
    <path
      d="M49.1552 32.7131C48.9417 32.7131 48.7274 32.6313 48.5645 32.4691L46.8992 30.8038L46.2552 31.4479C46.0382 31.6649 45.7324 31.7446 45.4378 31.6614C45.1424 31.5782 44.9241 31.3508 44.852 31.0527L43.8439 26.8514C43.7753 26.5664 43.8585 26.2725 44.0658 26.0652C44.2731 25.8579 44.5663 25.7761 44.852 25.8433L49.0526 26.8521C49.3507 26.9235 49.5781 27.1426 49.662 27.4379C49.7452 27.7332 49.6654 28.039 49.4484 28.2553L48.8051 28.8987L50.4704 30.5639C50.7962 30.8898 50.7962 31.4195 50.4704 31.7453L49.7473 32.4684C49.5843 32.6313 49.3701 32.7124 49.1566 32.7124L49.1552 32.7131ZM46.8992 30.4274C46.9408 30.4274 46.9803 30.444 47.0095 30.4731L48.785 32.2486C48.9888 32.4525 49.3209 32.4525 49.5254 32.2486L50.2485 31.5255C50.4523 31.3217 50.4523 30.9889 50.2485 30.7851L48.473 29.0096C48.412 28.9486 48.412 28.8501 48.473 28.7891L49.2266 28.0355C49.3625 27.8996 49.4124 27.7083 49.3604 27.5232C49.3084 27.3381 49.1656 27.2008 48.9784 27.1564L44.7785 26.147C44.5996 26.104 44.4159 26.156 44.2862 26.2857C44.1566 26.4153 44.1046 26.5997 44.1476 26.7779L45.1563 30.9785C45.2014 31.165 45.3379 31.3078 45.5231 31.3598C45.7075 31.4118 45.8995 31.3619 46.0354 31.226L46.7897 30.4717C46.8188 30.4426 46.8583 30.426 46.8999 30.426L46.8992 30.4274Z"
      fill="#114954" />
    <path
      d="M49.5317 26.4897L45.331 25.4803C44.8374 25.3618 44.393 25.8062 44.5116 26.2998L45.5203 30.5004C45.6444 31.0169 46.2864 31.1978 46.6614 30.8221L47.415 30.0685L49.1906 31.844C49.4561 32.1095 49.8859 32.1095 50.1514 31.844L50.8745 31.1209C51.1401 30.8554 51.1401 30.4255 50.8745 30.16L49.099 28.3845L49.8526 27.6309C50.2284 27.2551 50.0475 26.6138 49.531 26.4897H49.5317Z"
      fill="#FBF7ED" />
    <path
      d="M49.6708 32.1972C49.4566 32.1972 49.2431 32.1154 49.0801 31.9531L47.4149 30.2879L46.7715 30.9312C46.5545 31.1482 46.2487 31.2273 45.9541 31.1448C45.6588 31.0616 45.4397 30.8342 45.3683 30.5354L44.3595 26.3354C44.2909 26.0505 44.3741 25.7565 44.5814 25.5493C44.7887 25.342 45.0813 25.2602 45.3669 25.3281L49.5675 26.3368C49.8656 26.4082 50.0937 26.6273 50.1769 26.9227C50.2601 27.218 50.1804 27.523 49.9634 27.74L49.3193 28.3834L50.9846 30.0487C51.3104 30.3745 51.3104 30.9042 50.9846 31.2301L50.2615 31.9531C50.0986 32.1161 49.8843 32.1972 49.6708 32.1972ZM47.4149 29.9114C47.4551 29.9114 47.4946 29.9267 47.5251 29.9572L49.3006 31.7327C49.5044 31.9365 49.8372 31.9365 50.041 31.7327L50.7641 31.0096C50.968 30.8058 50.968 30.4737 50.7641 30.2692L48.9886 28.4936C48.9595 28.4645 48.9429 28.425 48.9429 28.3834C48.9429 28.3418 48.9595 28.3023 48.9886 28.2732L49.7429 27.5196C49.8788 27.3837 49.9287 27.1923 49.8767 27.0072C49.8247 26.8221 49.6819 26.6849 49.4947 26.6405L45.2941 25.6311C45.1152 25.5881 44.9315 25.6401 44.8019 25.7697C44.6722 25.8994 44.6202 26.0838 44.6632 26.262L45.6719 30.4626C45.717 30.6498 45.8543 30.7919 46.0387 30.8446C46.2238 30.8966 46.4151 30.8467 46.551 30.7108L47.3046 29.9572C47.3351 29.9267 47.3753 29.9114 47.4149 29.9114Z"
      fill="#114954" />
  </g>
  <path
    d="M76.603 4.1875H8.00791C6.9017 4.1875 6.00391 5.08392 6.00391 6.18843V45.2886C6.00391 46.3931 6.9017 47.2895 8.00791 47.2895H76.601C77.7072 47.2895 78.605 46.3931 78.605 45.2886V6.18843C78.605 5.08392 77.7072 4.1875 76.601 4.1875H76.603ZM8.00991 4.81579H76.603C77.3605 4.81579 77.9778 5.43208 77.9778 6.18843V40.6164H6.63316V6.18843C6.63316 5.43208 7.2504 4.81579 8.00791 4.81579H8.00991ZM76.603 46.6632H8.00791C7.2504 46.6632 6.63316 46.0469 6.63316 45.2906V41.2447H77.9778V45.2906C77.9778 46.0469 77.3605 46.6632 76.603 46.6632Z"
    fill="#114954" />
  <path
    d="M42.3067 44.9541C42.8601 44.9541 43.3087 44.5061 43.3087 43.9536C43.3087 43.401 42.8601 42.9531 42.3067 42.9531C41.7533 42.9531 41.3047 43.401 41.3047 43.9536C41.3047 44.5061 41.7533 44.9541 42.3067 44.9541Z"
    fill="#114954" />
  <path
    d="M61.5302 52.8697C61.0753 52.9237 60.7266 53.4479 60.7266 54.0762V55.1987C60.7266 55.4308 60.8628 55.6189 61.0312 55.6189H68.9209C69.0893 55.6189 69.2255 55.4308 69.2255 55.1987V54.0762C69.2255 53.4479 68.8769 52.9257 68.4219 52.8697C66.1274 52.5955 63.8207 52.5955 61.5282 52.8697H61.5302Z"
    fill="#61BDB3" />
  <path
    d="M68.9231 55.9322H61.0333C60.6866 55.9322 60.4141 55.6101 60.4141 55.1979V54.0754C60.4141 53.285 60.879 52.6327 61.4942 52.5587C63.8068 52.2825 66.1515 52.2825 68.4621 52.5587C69.0774 52.6327 69.5423 53.285 69.5423 54.0754V55.1979C69.5423 55.6101 69.2698 55.9322 68.9231 55.9322ZM61.0674 55.3059H68.889C68.901 55.2879 68.9131 55.2499 68.9131 55.1999V54.0774C68.9131 53.6192 68.6766 53.217 68.386 53.1829C66.1235 52.9128 63.8289 52.9128 61.5664 53.1829C61.2758 53.217 61.0393 53.6192 61.0393 54.0774V55.1999C61.0393 55.2499 61.0533 55.2879 61.0634 55.3059H61.0674Z"
    fill="#114954" />
  <path
    d="M8.00604 2.62922C7.83169 2.62922 7.69141 2.48916 7.69141 2.31508V0.314146C7.69141 0.140065 7.83169 0 8.00604 0C8.18039 0 8.32066 0.140065 8.32066 0.314146V2.31508C8.32066 2.48916 8.18039 2.62922 8.00604 2.62922Z"
    fill="#114954" />
  <path
    d="M5.26221 3.76511C5.18205 3.76511 5.10189 3.73509 5.03976 3.67306L3.62293 2.2584C3.50069 2.13635 3.50069 1.93626 3.62293 1.8142C3.74518 1.69214 3.94558 1.69214 4.06782 1.8142L5.48465 3.22886C5.6069 3.35091 5.6069 3.55101 5.48465 3.67306C5.42253 3.73509 5.34237 3.76511 5.26221 3.76511Z"
    fill="#114954" />
  <path
    d="M4.12723 6.50329H2.12322C1.94888 6.50329 1.80859 6.36323 1.80859 6.18915C1.80859 6.01507 1.94888 5.875 2.12322 5.875H4.12723C4.30158 5.875 4.44186 6.01507 4.44186 6.18915C4.44186 6.36323 4.30158 6.50329 4.12723 6.50329Z"
    fill="#114954" />
  <defs>
    <clipPath id="clip0_8863_18811">
      <rect width="15.5578" height="15.5578" fill="white" transform="translate(31.9688 12.3398)" />
    </clipPath>
    <clipPath id="clip1_8863_18811">
      <rect width="7.40847" height="7.40847" fill="white" transform="translate(43.8203 25.3047)" />
    </clipPath>
  </defs>
</svg>