<?xml version="1.0" encoding="UTF-8" standalone="no"?>
<!DOCTYPE svg PUBLIC "-//W3C//DTD SVG 1.1//EN"
 "http://www.w3.org/Graphics/SVG/1.1/DTD/svg11.dtd">
<!-- Generated by graphviz version 2.42.3 (20191010.1750)
 -->
<!-- Title: %3 Pages: 1 -->
<svg width="3173pt" height="1297pt"
 viewBox="0.00 0.00 3172.60 1296.69" xmlns="http://www.w3.org/2000/svg" xmlns:xlink="http://www.w3.org/1999/xlink">
<g id="graph0" class="graph" transform="scale(1 1) rotate(0) translate(4 1292.69)">
<title>%3</title>
<polygon fill="white" stroke="transparent" points="-4,4 -4,-1292.69 3168.6,-1292.69 3168.6,4 -4,4"/>
<g id="clust1" class="cluster">
<title>cluster_Stopped</title>
<polygon fill="none" stroke="black" points="2473.1,-963.69 2473.1,-1205.69 2586.1,-1205.69 2586.1,-963.69 2473.1,-963.69"/>
<text text-anchor="middle" x="2529.6" y="-1190.49" font-family="Times,serif" font-size="14.00">Stopped</text>
</g>
<g id="clust2" class="cluster">
<title>cluster_Started</title>
<polygon fill="none" stroke="black" points="2477.6,-126.69 2477.6,-313.69 2581.6,-313.69 2581.6,-126.69 2477.6,-126.69"/>
<text text-anchor="middle" x="2529.6" y="-298.49" font-family="Times,serif" font-size="14.00">Started</text>
</g>
<g id="clust3" class="cluster">
<title>cluster_Creating</title>
<polygon fill="none" stroke="black" points="32.6,-511.69 32.6,-588.69 2592.6,-588.69 2592.6,-511.69 32.6,-511.69"/>
<text text-anchor="middle" x="1312.6" y="-573.49" font-family="Times,serif" font-size="14.00">Creating</text>
</g>
<g id="clust4" class="cluster">
<title>cluster_Paused</title>
<polygon fill="none" stroke="black" points="2477.6,-349.69 2477.6,-426.69 2581.6,-426.69 2581.6,-349.69 2477.6,-349.69"/>
<text text-anchor="middle" x="2529.6" y="-411.49" font-family="Times,serif" font-size="14.00">Paused</text>
</g>
<!-- Pausing -->
<g id="node1" class="node">
<title>Pausing</title>
<path fill="none" stroke="black" d="M2505.1,-190.69C2505.1,-190.69 2554.1,-190.69 2554.1,-190.69 2560.1,-190.69 2566.1,-196.69 2566.1,-202.69 2566.1,-202.69 2566.1,-214.69 2566.1,-214.69 2566.1,-220.69 2560.1,-226.69 2554.1,-226.69 2554.1,-226.69 2505.1,-226.69 2505.1,-226.69 2499.1,-226.69 2493.1,-220.69 2493.1,-214.69 2493.1,-214.69 2493.1,-202.69 2493.1,-202.69 2493.1,-196.69 2499.1,-190.69 2505.1,-190.69"/>
<text text-anchor="middle" x="2529.6" y="-204.99" font-family="Times,serif" font-size="14.00">Pausing</text>
</g>
<!-- Unknown -->
<g id="node11" class="node">
<title>Unknown</title>
<path fill="none" stroke="black" d="M2803.1,-669.69C2803.1,-669.69 2863.1,-669.69 2863.1,-669.69 2869.1,-669.69 2875.1,-675.69 2875.1,-681.69 2875.1,-681.69 2875.1,-693.69 2875.1,-693.69 2875.1,-699.69 2869.1,-705.69 2863.1,-705.69 2863.1,-705.69 2803.1,-705.69 2803.1,-705.69 2797.1,-705.69 2791.1,-699.69 2791.1,-693.69 2791.1,-693.69 2791.1,-681.69 2791.1,-681.69 2791.1,-675.69 2797.1,-669.69 2803.1,-669.69"/>
<text text-anchor="middle" x="2833.1" y="-683.99" font-family="Times,serif" font-size="14.00">Unknown</text>
</g>
<!-- Pausing&#45;&gt;Unknown -->
<g id="edge52" class="edge">
<title>Pausing&#45;&gt;Unknown</title>
<path fill="none" stroke="black" d="M2566.49,-212.05C2614.36,-218.6 2697.9,-237.69 2739.6,-292.69 2761.88,-322.08 2749.88,-421.62 2757.6,-457.69 2773.63,-532.54 2804.63,-617.48 2821.14,-660.14"/>
<polygon fill="black" stroke="black" points="2817.92,-661.51 2824.81,-669.56 2824.44,-658.97 2817.92,-661.51"/>
<text text-anchor="middle" x="2674.1" y="-296.49" font-family="Times,serif" font-size="14.00">PausingFailure</text>
</g>
<!-- Pausing&#45;&gt;Unknown -->
<g id="edge53" class="edge">
<title>Pausing&#45;&gt;Unknown</title>
<path fill="none" stroke="black" d="M2566.2,-217.61C2576.01,-221.65 2585.8,-227.45 2592.6,-235.69 2613.45,-260.99 2584.57,-285.39 2608.6,-307.69 2651.72,-347.71 2698.16,-284.94 2739.6,-326.69 2760.3,-347.55 2751.05,-429.05 2757.6,-457.69 2774.67,-532.31 2805.23,-617.35 2821.4,-660.08"/>
<polygon fill="black" stroke="black" points="2818.16,-661.42 2824.99,-669.52 2824.7,-658.93 2818.16,-661.42"/>
<text text-anchor="middle" x="2674.1" y="-330.49" font-family="Times,serif" font-size="14.00">Unknown</text>
</g>
<!-- Paused -->
<g id="node21" class="node">
<title>Paused</title>
<path fill="none" stroke="black" d="M3104.6,-437.69C3104.6,-437.69 3148.6,-437.69 3148.6,-437.69 3154.6,-437.69 3160.6,-443.69 3160.6,-449.69 3160.6,-449.69 3160.6,-461.69 3160.6,-461.69 3160.6,-467.69 3154.6,-473.69 3148.6,-473.69 3148.6,-473.69 3104.6,-473.69 3104.6,-473.69 3098.6,-473.69 3092.6,-467.69 3092.6,-461.69 3092.6,-461.69 3092.6,-449.69 3092.6,-449.69 3092.6,-443.69 3098.6,-437.69 3104.6,-437.69"/>
<text text-anchor="middle" x="3126.6" y="-451.99" font-family="Times,serif" font-size="14.00">Paused</text>
</g>
<!-- Pausing&#45;&gt;Paused -->
<g id="edge51" class="edge">
<title>Pausing&#45;&gt;Paused</title>
<path fill="none" stroke="black" d="M2566.1,-206.76C2618.31,-204.62 2712.51,-203.68 2739.6,-222.69 2755.89,-234.12 2742.32,-250.94 2757.6,-263.69 2810.56,-307.9 2856.71,-254.22 2908.6,-299.69 2925.42,-314.43 2911.89,-329.84 2926.6,-346.69 2926.96,-347.11 3025.06,-400.75 3083.37,-432.62"/>
<polygon fill="black" stroke="black" points="3081.92,-435.81 3092.37,-437.54 3085.27,-429.67 3081.92,-435.81"/>
<text text-anchor="middle" x="2833.1" y="-303.49" font-family="Times,serif" font-size="14.00">PausingSuccess</text>
</g>
<!-- Stopping -->
<g id="node2" class="node">
<title>Stopping</title>
<path fill="none" stroke="black" d="M2501.1,-245.69C2501.1,-245.69 2558.1,-245.69 2558.1,-245.69 2564.1,-245.69 2570.1,-251.69 2570.1,-257.69 2570.1,-257.69 2570.1,-269.69 2570.1,-269.69 2570.1,-275.69 2564.1,-281.69 2558.1,-281.69 2558.1,-281.69 2501.1,-281.69 2501.1,-281.69 2495.1,-281.69 2489.1,-275.69 2489.1,-269.69 2489.1,-269.69 2489.1,-257.69 2489.1,-257.69 2489.1,-251.69 2495.1,-245.69 2501.1,-245.69"/>
<text text-anchor="middle" x="2529.6" y="-259.99" font-family="Times,serif" font-size="14.00">Stopping</text>
</g>
<!-- Stopping&#45;&gt;Unknown -->
<g id="edge55" class="edge">
<title>Stopping&#45;&gt;Unknown</title>
<path fill="none" stroke="black" d="M2546.7,-281.89C2560.24,-297.87 2579.45,-322.17 2592.6,-345.69 2602.14,-362.77 2594.44,-373.2 2608.6,-386.69 2653.06,-429.07 2695.71,-387.73 2739.6,-430.69 2756.65,-447.38 2804.08,-596.72 2823.57,-659.79"/>
<polygon fill="black" stroke="black" points="2820.27,-660.95 2826.55,-669.48 2826.96,-658.89 2820.27,-660.95"/>
<text text-anchor="middle" x="2674.1" y="-434.49" font-family="Times,serif" font-size="14.00">StoppingFailure</text>
</g>
<!-- Stopping&#45;&gt;Unknown -->
<g id="edge56" class="edge">
<title>Stopping&#45;&gt;Unknown</title>
<path fill="none" stroke="black" d="M2542.56,-281.99C2556.14,-301.17 2580.14,-330.57 2608.6,-345.69 2660.74,-373.39 2697.21,-326.6 2739.6,-367.69 2768.89,-396.09 2747.3,-418.22 2757.6,-457.69 2776.93,-531.76 2806.53,-617.03 2821.96,-659.94"/>
<polygon fill="black" stroke="black" points="2818.69,-661.21 2825.38,-669.42 2825.27,-658.83 2818.69,-661.21"/>
<text text-anchor="middle" x="2674.1" y="-371.49" font-family="Times,serif" font-size="14.00">Unknown</text>
</g>
<!-- Stopped -->
<g id="node20" class="node">
<title>Stopped</title>
<path fill="none" stroke="black" d="M3100.6,-1059.69C3100.6,-1059.69 3152.6,-1059.69 3152.6,-1059.69 3158.6,-1059.69 3164.6,-1065.69 3164.6,-1071.69 3164.6,-1071.69 3164.6,-1083.69 3164.6,-1083.69 3164.6,-1089.69 3158.6,-1095.69 3152.6,-1095.69 3152.6,-1095.69 3100.6,-1095.69 3100.6,-1095.69 3094.6,-1095.69 3088.6,-1089.69 3088.6,-1083.69 3088.6,-1083.69 3088.6,-1071.69 3088.6,-1071.69 3088.6,-1065.69 3094.6,-1059.69 3100.6,-1059.69"/>
<text text-anchor="middle" x="3126.6" y="-1073.99" font-family="Times,serif" font-size="14.00">Stopped</text>
</g>
<!-- Stopping&#45;&gt;Stopped -->
<g id="edge54" class="edge">
<title>Stopping&#45;&gt;Stopped</title>
<path fill="none" stroke="black" d="M2570.2,-259.86C2616.69,-257.66 2693.3,-261.53 2739.6,-303.69 2760.81,-323.01 2735.96,-346.85 2757.6,-365.69 2808.75,-410.23 2859.85,-340.54 2908.6,-387.69 2941.06,-419.09 2894.89,-455.54 2926.6,-487.69 2972.38,-534.11 3028.13,-466.22 3070.6,-515.69 3103.12,-553.57 3079.75,-915.55 3088.6,-964.69 3093.96,-994.47 3105.31,-1027.18 3114.04,-1049.72"/>
<polygon fill="black" stroke="black" points="3110.9,-1051.29 3117.83,-1059.31 3117.41,-1048.72 3110.9,-1051.29"/>
<text text-anchor="middle" x="2833.1" y="-391.49" font-family="Times,serif" font-size="14.00">StoppingSuccess</text>
</g>
<!-- Templating -->
<g id="node3" class="node">
<title>Templating</title>
<path fill="none" stroke="black" d="M2493.1,-1137.69C2493.1,-1137.69 2566.1,-1137.69 2566.1,-1137.69 2572.1,-1137.69 2578.1,-1143.69 2578.1,-1149.69 2578.1,-1149.69 2578.1,-1161.69 2578.1,-1161.69 2578.1,-1167.69 2572.1,-1173.69 2566.1,-1173.69 2566.1,-1173.69 2493.1,-1173.69 2493.1,-1173.69 2487.1,-1173.69 2481.1,-1167.69 2481.1,-1161.69 2481.1,-1161.69 2481.1,-1149.69 2481.1,-1149.69 2481.1,-1143.69 2487.1,-1137.69 2493.1,-1137.69"/>
<text text-anchor="middle" x="2529.6" y="-1151.99" font-family="Times,serif" font-size="14.00">Templating</text>
</g>
<!-- Templating&#45;&gt;Unknown -->
<g id="edge11" class="edge">
<title>Templating&#45;&gt;Unknown</title>
<path fill="none" stroke="black" d="M2571.94,-1173.79C2619,-1191.27 2695.1,-1209.5 2739.6,-1167.69 2763.05,-1145.66 2750.67,-910.11 2757.6,-878.69 2770.95,-818.17 2800.61,-751.61 2818.21,-715.23"/>
<polygon fill="black" stroke="black" points="2821.57,-716.32 2822.83,-705.8 2815.29,-713.24 2821.57,-716.32"/>
<text text-anchor="middle" x="2674.1" y="-1196.49" font-family="Times,serif" font-size="14.00">TemplatingFailure</text>
</g>
<!-- Templating&#45;&gt;Unknown -->
<g id="edge12" class="edge">
<title>Templating&#45;&gt;Unknown</title>
<path fill="none" stroke="black" d="M2578.23,-1150.37C2638.2,-1143.46 2734.12,-1131.56 2739.6,-1125.69 2758.37,-1105.57 2751.53,-905.53 2757.6,-878.69 2771.27,-818.24 2800.81,-751.66 2818.31,-715.25"/>
<polygon fill="black" stroke="black" points="2821.67,-716.34 2822.9,-705.82 2815.38,-713.28 2821.67,-716.34"/>
<text text-anchor="middle" x="2674.1" y="-1149.49" font-family="Times,serif" font-size="14.00">Unknown</text>
</g>
<!-- Templating&#45;&gt;Stopped -->
<g id="edge10" class="edge">
<title>Templating&#45;&gt;Stopped</title>
<path fill="none" stroke="black" d="M2549.37,-1173.77C2564.18,-1186.81 2586.04,-1203.5 2608.6,-1211.69 2734.02,-1257.21 2775.51,-1232.09 2908.6,-1222.69 2981.14,-1217.57 3012.45,-1243.36 3070.6,-1199.69 3100.58,-1177.18 3114.62,-1134.56 3120.9,-1106.14"/>
<polygon fill="black" stroke="black" points="3124.4,-1106.51 3122.95,-1096.01 3117.54,-1105.12 3124.4,-1106.51"/>
<text text-anchor="middle" x="2833.1" y="-1240.49" font-family="Times,serif" font-size="14.00">TemplatingSuccess</text>
</g>
<!-- Updating -->
<g id="node4" class="node">
<title>Updating</title>
<path fill="none" stroke="black" d="M2500.1,-1082.69C2500.1,-1082.69 2559.1,-1082.69 2559.1,-1082.69 2565.1,-1082.69 2571.1,-1088.69 2571.1,-1094.69 2571.1,-1094.69 2571.1,-1106.69 2571.1,-1106.69 2571.1,-1112.69 2565.1,-1118.69 2559.1,-1118.69 2559.1,-1118.69 2500.1,-1118.69 2500.1,-1118.69 2494.1,-1118.69 2488.1,-1112.69 2488.1,-1106.69 2488.1,-1106.69 2488.1,-1094.69 2488.1,-1094.69 2488.1,-1088.69 2494.1,-1082.69 2500.1,-1082.69"/>
<text text-anchor="middle" x="2529.6" y="-1096.99" font-family="Times,serif" font-size="14.00">Updating</text>
</g>
<!-- Updating&#45;&gt;Unknown -->
<g id="edge43" class="edge">
<title>Updating&#45;&gt;Unknown</title>
<path fill="none" stroke="black" d="M2571.12,-1086.57C2625.74,-1066.69 2718.56,-1029.66 2739.6,-1000.69 2771.81,-956.35 2743.55,-931.67 2757.6,-878.69 2773.48,-818.78 2802.23,-752.01 2818.99,-715.42"/>
<polygon fill="black" stroke="black" points="2822.36,-716.48 2823.38,-705.93 2816,-713.54 2822.36,-716.48"/>
<text text-anchor="middle" x="2674.1" y="-1074.49" font-family="Times,serif" font-size="14.00">UpdatingFailure</text>
</g>
<!-- Updating&#45;&gt;Unknown -->
<g id="edge44" class="edge">
<title>Updating&#45;&gt;Unknown</title>
<path fill="none" stroke="black" d="M2571.44,-1104.37C2625.46,-1108.27 2716.54,-1111.11 2739.6,-1088.69 2773.18,-1056.04 2746.98,-924.31 2757.6,-878.69 2771.65,-818.33 2801.06,-751.71 2818.43,-715.28"/>
<polygon fill="black" stroke="black" points="2821.79,-716.36 2822.98,-705.83 2815.49,-713.32 2821.79,-716.36"/>
<text text-anchor="middle" x="2674.1" y="-1110.49" font-family="Times,serif" font-size="14.00">Unknown</text>
</g>
<!-- Updating&#45;&gt;Stopped -->
<g id="edge42" class="edge">
<title>Updating&#45;&gt;Stopped</title>
<path fill="none" stroke="black" d="M2571.18,-1112.74C2579.19,-1116.72 2586.88,-1121.93 2592.6,-1128.69 2610.69,-1150.1 2586.41,-1172.57 2608.6,-1189.69 2654.7,-1225.26 2681.41,-1191.71 2739.6,-1189.69 2886.98,-1184.58 2944.37,-1242.93 3070.6,-1166.69 3093.18,-1153.05 3107.84,-1126.24 3116.3,-1105.6"/>
<polygon fill="black" stroke="black" points="3119.65,-1106.63 3119.97,-1096.04 3113.12,-1104.13 3119.65,-1106.63"/>
<text text-anchor="middle" x="2833.1" y="-1207.49" font-family="Times,serif" font-size="14.00">UpdatingSuccess</text>
</g>
<!-- Deleting -->
<g id="node5" class="node">
<title>Deleting</title>
<path fill="none" stroke="black" d="M2503.1,-1027.69C2503.1,-1027.69 2556.1,-1027.69 2556.1,-1027.69 2562.1,-1027.69 2568.1,-1033.69 2568.1,-1039.69 2568.1,-1039.69 2568.1,-1051.69 2568.1,-1051.69 2568.1,-1057.69 2562.1,-1063.69 2556.1,-1063.69 2556.1,-1063.69 2503.1,-1063.69 2503.1,-1063.69 2497.1,-1063.69 2491.1,-1057.69 2491.1,-1051.69 2491.1,-1051.69 2491.1,-1039.69 2491.1,-1039.69 2491.1,-1033.69 2497.1,-1027.69 2503.1,-1027.69"/>
<text text-anchor="middle" x="2529.6" y="-1041.99" font-family="Times,serif" font-size="14.00">Deleting</text>
</g>
<!-- Deleting&#45;&gt;Unknown -->
<g id="edge45" class="edge">
<title>Deleting&#45;&gt;Unknown</title>
<path fill="none" stroke="black" d="M2568.12,-1035.94C2577.27,-1031.94 2586.24,-1026.38 2592.6,-1018.69 2613.21,-993.76 2589.23,-973.6 2608.6,-947.69 2648.51,-894.31 2693.64,-922.96 2739.6,-874.69 2784.31,-827.74 2811.72,-755.02 2824.16,-715.52"/>
<polygon fill="black" stroke="black" points="2827.57,-716.36 2827.14,-705.77 2820.87,-714.31 2827.57,-716.36"/>
<text text-anchor="middle" x="2674.1" y="-951.49" font-family="Times,serif" font-size="14.00">DeletingFailure</text>
</g>
<!-- Deleting&#45;&gt;Unknown -->
<g id="edge46" class="edge">
<title>Deleting&#45;&gt;Unknown</title>
<path fill="none" stroke="black" d="M2568.29,-1034.32C2577.01,-1030.4 2585.74,-1025.28 2592.6,-1018.69 2604.36,-1007.4 2595.59,-995.51 2608.6,-985.69 2655.78,-950.08 2697.03,-1003.7 2739.6,-962.69 2767.1,-936.2 2746.63,-915.26 2757.6,-878.69 2775.46,-819.17 2803.61,-752 2819.71,-715.3"/>
<polygon fill="black" stroke="black" points="2823.07,-716.35 2823.91,-705.79 2816.67,-713.52 2823.07,-716.35"/>
<text text-anchor="middle" x="2674.1" y="-989.49" font-family="Times,serif" font-size="14.00">Unknown</text>
</g>
<!-- Deleted -->
<g id="node22" class="node">
<title>Deleted</title>
<path fill="none" stroke="black" d="M3102.6,-918.69C3102.6,-918.69 3150.6,-918.69 3150.6,-918.69 3156.6,-918.69 3162.6,-924.69 3162.6,-930.69 3162.6,-930.69 3162.6,-942.69 3162.6,-942.69 3162.6,-948.69 3156.6,-954.69 3150.6,-954.69 3150.6,-954.69 3102.6,-954.69 3102.6,-954.69 3096.6,-954.69 3090.6,-948.69 3090.6,-942.69 3090.6,-942.69 3090.6,-930.69 3090.6,-930.69 3090.6,-924.69 3096.6,-918.69 3102.6,-918.69"/>
<text text-anchor="middle" x="3126.6" y="-932.99" font-family="Times,serif" font-size="14.00">Deleted</text>
</g>
<!-- Deleting&#45;&gt;Deleted -->
<g id="edge47" class="edge">
<title>Deleting&#45;&gt;Deleted</title>
<path fill="none" stroke="black" d="M2568.22,-1047.04C2610.24,-1047.95 2680.19,-1047.65 2739.6,-1038.69 2816.57,-1027.09 2845.44,-1038.19 2908.6,-992.69 2920.3,-984.26 2914.41,-973.4 2926.6,-965.69 2972.95,-936.39 3037.32,-932.13 3080.16,-933.21"/>
<polygon fill="black" stroke="black" points="3080.18,-936.71 3090.3,-933.57 3080.43,-929.71 3080.18,-936.71"/>
<text text-anchor="middle" x="2833.1" y="-1039.49" font-family="Times,serif" font-size="14.00">DeletingSuccess</text>
</g>
<!-- Starting -->
<g id="node6" class="node">
<title>Starting</title>
<path fill="none" stroke="black" d="M2503.6,-972.69C2503.6,-972.69 2555.6,-972.69 2555.6,-972.69 2561.6,-972.69 2567.6,-978.69 2567.6,-984.69 2567.6,-984.69 2567.6,-996.69 2567.6,-996.69 2567.6,-1002.69 2561.6,-1008.69 2555.6,-1008.69 2555.6,-1008.69 2503.6,-1008.69 2503.6,-1008.69 2497.6,-1008.69 2491.6,-1002.69 2491.6,-996.69 2491.6,-996.69 2491.6,-984.69 2491.6,-984.69 2491.6,-978.69 2497.6,-972.69 2503.6,-972.69"/>
<text text-anchor="middle" x="2529.6" y="-986.99" font-family="Times,serif" font-size="14.00">Starting</text>
</g>
<!-- Starting&#45;&gt;Unknown -->
<g id="edge63" class="edge">
<title>Starting&#45;&gt;Unknown</title>
<path fill="none" stroke="black" d="M2537.82,-972.63C2554.58,-931.11 2595.67,-831.65 2608.6,-821.69 2655.44,-785.63 2688.45,-828.32 2739.6,-798.69 2774.01,-778.76 2801.28,-740.95 2817.05,-715.04"/>
<polygon fill="black" stroke="black" points="2820.26,-716.48 2822.33,-706.09 2814.24,-712.93 2820.26,-716.48"/>
<text text-anchor="middle" x="2674.1" y="-825.49" font-family="Times,serif" font-size="14.00">StartingFailure</text>
</g>
<!-- Starting&#45;&gt;Unknown -->
<g id="edge64" class="edge">
<title>Starting&#45;&gt;Unknown</title>
<path fill="none" stroke="black" d="M2535.97,-972.47C2545.51,-943.53 2568.29,-887.49 2608.6,-859.69 2657.26,-826.13 2690.63,-869.8 2739.6,-836.69 2783.22,-807.2 2810.12,-749.56 2822.98,-715.26"/>
<polygon fill="black" stroke="black" points="2826.28,-716.43 2826.38,-705.83 2819.69,-714.05 2826.28,-716.43"/>
<text text-anchor="middle" x="2674.1" y="-863.49" font-family="Times,serif" font-size="14.00">Unknown</text>
</g>
<!-- Started -->
<g id="node19" class="node">
<title>Started</title>
<path fill="none" stroke="black" d="M3103.1,-191.69C3103.1,-191.69 3150.1,-191.69 3150.1,-191.69 3156.1,-191.69 3162.1,-197.69 3162.1,-203.69 3162.1,-203.69 3162.1,-215.69 3162.1,-215.69 3162.1,-221.69 3156.1,-227.69 3150.1,-227.69 3150.1,-227.69 3103.1,-227.69 3103.1,-227.69 3097.1,-227.69 3091.1,-221.69 3091.1,-215.69 3091.1,-215.69 3091.1,-203.69 3091.1,-203.69 3091.1,-197.69 3097.1,-191.69 3103.1,-191.69"/>
<text text-anchor="middle" x="3126.6" y="-205.99" font-family="Times,serif" font-size="14.00">Started</text>
</g>
<!-- Starting&#45;&gt;Started -->
<g id="edge62" class="edge">
<title>Starting&#45;&gt;Started</title>
<path fill="none" stroke="black" d="M2567.62,-973.77C2580.49,-968.1 2595.09,-961.89 2608.6,-956.69 2665.92,-934.62 2686.14,-942.93 2739.6,-912.69 2907.81,-817.53 2981.87,-802.38 3070.6,-630.69 3091.29,-590.66 3082.84,-473.39 3088.6,-428.69 3097.48,-359.74 3112.21,-279.28 3120.14,-237.72"/>
<polygon fill="black" stroke="black" points="3123.6,-238.27 3122.05,-227.79 3116.72,-236.95 3123.6,-238.27"/>
<text text-anchor="middle" x="2833.1" y="-903.49" font-family="Times,serif" font-size="14.00">StartingSuccess</text>
</g>
<!-- CreatingPostDisk -->
<g id="node7" class="node">
<title>CreatingPostDisk</title>
<path fill="none" stroke="black" d="M2119.6,-520.69C2119.6,-520.69 2236.6,-520.69 2236.6,-520.69 2242.6,-520.69 2248.6,-526.69 2248.6,-532.69 2248.6,-532.69 2248.6,-544.69 2248.6,-544.69 2248.6,-550.69 2242.6,-556.69 2236.6,-556.69 2236.6,-556.69 2119.6,-556.69 2119.6,-556.69 2113.6,-556.69 2107.6,-550.69 2107.6,-544.69 2107.6,-544.69 2107.6,-532.69 2107.6,-532.69 2107.6,-526.69 2113.6,-520.69 2119.6,-520.69"/>
<text text-anchor="middle" x="2178.1" y="-534.99" font-family="Times,serif" font-size="14.00">CreatingPostDisk</text>
</g>
<!-- CreatingPostDisk&#45;&gt;Unknown -->
<g id="edge49" class="edge">
<title>CreatingPostDisk&#45;&gt;Unknown</title>
<path fill="none" stroke="black" d="M2248.89,-553.9C2255.54,-555.23 2262.19,-556.52 2268.6,-557.69 2411.92,-583.94 2462.65,-541.8 2592.6,-607.69 2601.57,-612.24 2599.76,-618.89 2608.6,-623.69 2660.91,-652.13 2682.56,-634.62 2739.6,-651.69 2753.28,-655.79 2767.8,-661 2781.18,-666.19"/>
<polygon fill="black" stroke="black" points="2780.11,-669.53 2790.69,-669.94 2782.67,-663.01 2780.11,-669.53"/>
<text text-anchor="middle" x="2529.6" y="-611.49" font-family="Times,serif" font-size="14.00">Unknown</text>
</g>
<!-- PostCreating -->
<g id="node17" class="node">
<title>PostCreating</title>
<path fill="none" stroke="black" d="M2486.6,-520.69C2486.6,-520.69 2572.6,-520.69 2572.6,-520.69 2578.6,-520.69 2584.6,-526.69 2584.6,-532.69 2584.6,-532.69 2584.6,-544.69 2584.6,-544.69 2584.6,-550.69 2578.6,-556.69 2572.6,-556.69 2572.6,-556.69 2486.6,-556.69 2486.6,-556.69 2480.6,-556.69 2474.6,-550.69 2474.6,-544.69 2474.6,-544.69 2474.6,-532.69 2474.6,-532.69 2474.6,-526.69 2480.6,-520.69 2486.6,-520.69"/>
<text text-anchor="middle" x="2529.6" y="-534.99" font-family="Times,serif" font-size="14.00">PostCreating</text>
</g>
<!-- CreatingPostDisk&#45;&gt;PostCreating -->
<g id="edge50" class="edge">
<title>CreatingPostDisk&#45;&gt;PostCreating</title>
<path fill="none" stroke="black" d="M2248.99,-538.69C2311.79,-538.69 2403.26,-538.69 2464.29,-538.69"/>
<polygon fill="black" stroke="black" points="2464.56,-542.19 2474.56,-538.69 2464.56,-535.19 2464.56,-542.19"/>
<text text-anchor="middle" x="2359.6" y="-542.49" font-family="Times,serif" font-size="14.00">CreatingPostDiskSuccess</text>
</g>
<!-- CreatingFailed -->
<g id="node18" class="node">
<title>CreatingFailed</title>
<path fill="none" stroke="black" d="M2480.6,-435.69C2480.6,-435.69 2578.6,-435.69 2578.6,-435.69 2584.6,-435.69 2590.6,-441.69 2590.6,-447.69 2590.6,-447.69 2590.6,-459.69 2590.6,-459.69 2590.6,-465.69 2584.6,-471.69 2578.6,-471.69 2578.6,-471.69 2480.6,-471.69 2480.6,-471.69 2474.6,-471.69 2468.6,-465.69 2468.6,-459.69 2468.6,-459.69 2468.6,-447.69 2468.6,-447.69 2468.6,-441.69 2474.6,-435.69 2480.6,-435.69"/>
<text text-anchor="middle" x="2529.6" y="-449.99" font-family="Times,serif" font-size="14.00">CreatingFailed</text>
</g>
<!-- CreatingPostDisk&#45;&gt;CreatingFailed -->
<g id="edge48" class="edge">
<title>CreatingPostDisk&#45;&gt;CreatingFailed</title>
<path fill="none" stroke="black" d="M2248.96,-523.8C2255.59,-522.4 2262.22,-521.02 2268.6,-519.69 2349.42,-502.9 2371.23,-505.36 2450.6,-482.69 2458.3,-480.49 2466.33,-477.88 2474.18,-475.15"/>
<polygon fill="black" stroke="black" points="2475.39,-478.43 2483.63,-471.77 2473.03,-471.84 2475.39,-478.43"/>
<text text-anchor="middle" x="2359.6" y="-523.49" font-family="Times,serif" font-size="14.00">CreatingPostDiskFailure</text>
</g>
<!-- CreatingXML -->
<g id="node8" class="node">
<title>CreatingXML</title>
<path fill="none" stroke="black" d="M688.6,-520.69C688.6,-520.69 776.6,-520.69 776.6,-520.69 782.6,-520.69 788.6,-526.69 788.6,-532.69 788.6,-532.69 788.6,-544.69 788.6,-544.69 788.6,-550.69 782.6,-556.69 776.6,-556.69 776.6,-556.69 688.6,-556.69 688.6,-556.69 682.6,-556.69 676.6,-550.69 676.6,-544.69 676.6,-544.69 676.6,-532.69 676.6,-532.69 676.6,-526.69 682.6,-520.69 688.6,-520.69"/>
<text text-anchor="middle" x="732.6" y="-534.99" font-family="Times,serif" font-size="14.00">CreatingXML</text>
</g>
<!-- CreatingXML&#45;&gt;Unknown -->
<g id="edge3" class="edge">
<title>CreatingXML&#45;&gt;Unknown</title>
<path fill="none" stroke="black" d="M747.41,-556.7C787.73,-607.06 911.16,-745.69 1048.1,-745.69 1048.1,-745.69 1048.1,-745.69 1618.6,-745.69 2117.09,-745.69 2245.19,-772.38 2739.6,-708.69 2753.14,-706.95 2767.6,-704.13 2780.98,-701.12"/>
<polygon fill="black" stroke="black" points="2782.01,-704.47 2790.96,-698.8 2780.43,-697.66 2782.01,-704.47"/>
<text text-anchor="middle" x="1812.1" y="-751.49" font-family="Times,serif" font-size="14.00">Unknown</text>
</g>
<!-- CreatingPostXML -->
<g id="node14" class="node">
<title>CreatingPostXML</title>
<path fill="none" stroke="black" d="M989.6,-520.69C989.6,-520.69 1108.6,-520.69 1108.6,-520.69 1114.6,-520.69 1120.6,-526.69 1120.6,-532.69 1120.6,-532.69 1120.6,-544.69 1120.6,-544.69 1120.6,-550.69 1114.6,-556.69 1108.6,-556.69 1108.6,-556.69 989.6,-556.69 989.6,-556.69 983.6,-556.69 977.6,-550.69 977.6,-544.69 977.6,-544.69 977.6,-532.69 977.6,-532.69 977.6,-526.69 983.6,-520.69 989.6,-520.69"/>
<text text-anchor="middle" x="1049.1" y="-534.99" font-family="Times,serif" font-size="14.00">CreatingPostXML</text>
</g>
<!-- CreatingXML&#45;&gt;CreatingPostXML -->
<g id="edge1" class="edge">
<title>CreatingXML&#45;&gt;CreatingPostXML</title>
<path fill="none" stroke="black" d="M788.74,-538.69C838.16,-538.69 911.29,-538.69 967.31,-538.69"/>
<polygon fill="black" stroke="black" points="967.56,-542.19 977.56,-538.69 967.56,-535.19 967.56,-542.19"/>
<text text-anchor="middle" x="883.1" y="-542.49" font-family="Times,serif" font-size="14.00">CreatingXMLSuccess</text>
</g>
<!-- CreatingXML&#45;&gt;CreatingFailed -->
<g id="edge2" class="edge">
<title>CreatingXML&#45;&gt;CreatingFailed</title>
<path fill="none" stroke="black" d="M788.89,-529.82C918.08,-509.59 1250.02,-460.51 1529.6,-443.69 1857.45,-423.97 1940.16,-442.91 2268.6,-442.69 2349.49,-442.64 2369.91,-437.03 2450.6,-442.69 2453.11,-442.87 2455.66,-443.07 2458.23,-443.31"/>
<polygon fill="black" stroke="black" points="2457.92,-446.79 2468.22,-444.33 2458.63,-439.83 2457.92,-446.79"/>
<text text-anchor="middle" x="1617.6" y="-447.49" font-family="Times,serif" font-size="14.00">CreatingXMLFailure</text>
</g>
<!-- Migrating -->
<g id="node9" class="node">
<title>Migrating</title>
<path fill="none" stroke="black" d="M2497.6,-135.69C2497.6,-135.69 2561.6,-135.69 2561.6,-135.69 2567.6,-135.69 2573.6,-141.69 2573.6,-147.69 2573.6,-147.69 2573.6,-159.69 2573.6,-159.69 2573.6,-165.69 2567.6,-171.69 2561.6,-171.69 2561.6,-171.69 2497.6,-171.69 2497.6,-171.69 2491.6,-171.69 2485.6,-165.69 2485.6,-159.69 2485.6,-159.69 2485.6,-147.69 2485.6,-147.69 2485.6,-141.69 2491.6,-135.69 2497.6,-135.69"/>
<text text-anchor="middle" x="2529.6" y="-149.99" font-family="Times,serif" font-size="14.00">Migrating</text>
</g>
<!-- Migrating&#45;&gt;Unknown -->
<g id="edge33" class="edge">
<title>Migrating&#45;&gt;Unknown</title>
<path fill="none" stroke="black" d="M2573.75,-150.17C2622.14,-148.86 2699.12,-155.17 2739.6,-202.69 2758.02,-224.32 2752.18,-429.81 2757.6,-457.69 2772.2,-532.84 2803.81,-617.65 2820.78,-660.21"/>
<polygon fill="black" stroke="black" points="2817.58,-661.64 2824.57,-669.61 2824.08,-659.02 2817.58,-661.64"/>
<text text-anchor="middle" x="2674.1" y="-206.49" font-family="Times,serif" font-size="14.00">MigratingFailure</text>
</g>
<!-- Migrating&#45;&gt;Unknown -->
<g id="edge34" class="edge">
<title>Migrating&#45;&gt;Unknown</title>
<path fill="none" stroke="black" d="M2566.21,-135.54C2612.6,-114.75 2693.24,-88.83 2739.6,-132.69 2765.87,-157.55 2750.97,-422.14 2757.6,-457.69 2771.63,-532.95 2803.48,-617.71 2820.64,-660.24"/>
<polygon fill="black" stroke="black" points="2817.45,-661.69 2824.47,-669.63 2823.93,-659.04 2817.45,-661.69"/>
<text text-anchor="middle" x="2674.1" y="-136.49" font-family="Times,serif" font-size="14.00">Unknown</text>
</g>
<!-- Migrating&#45;&gt;Started -->
<g id="edge32" class="edge">
<title>Migrating&#45;&gt;Started</title>
<path fill="none" stroke="black" d="M2537.33,-135.34C2548,-109.13 2571.48,-61.72 2608.6,-39.69 2723.41,28.43 2776.03,-8.96 2908.6,-24.69 2982.14,-33.42 3015.09,-14.67 3070.6,-63.69 3105.04,-94.11 3117.99,-148.32 3122.8,-181.44"/>
<polygon fill="black" stroke="black" points="3119.34,-181.93 3124.1,-191.39 3126.28,-181.03 3119.34,-181.93"/>
<text text-anchor="middle" x="2833.1" y="-28.49" font-family="Times,serif" font-size="14.00">MigratingSuccess</text>
</g>
<!-- Resuming -->
<g id="node10" class="node">
<title>Resuming</title>
<path fill="none" stroke="black" d="M2497.6,-358.69C2497.6,-358.69 2561.6,-358.69 2561.6,-358.69 2567.6,-358.69 2573.6,-364.69 2573.6,-370.69 2573.6,-370.69 2573.6,-382.69 2573.6,-382.69 2573.6,-388.69 2567.6,-394.69 2561.6,-394.69 2561.6,-394.69 2497.6,-394.69 2497.6,-394.69 2491.6,-394.69 2485.6,-388.69 2485.6,-382.69 2485.6,-382.69 2485.6,-370.69 2485.6,-370.69 2485.6,-364.69 2491.6,-358.69 2497.6,-358.69"/>
<text text-anchor="middle" x="2529.6" y="-372.99" font-family="Times,serif" font-size="14.00">Resuming</text>
</g>
<!-- Resuming&#45;&gt;Unknown -->
<g id="edge8" class="edge">
<title>Resuming&#45;&gt;Unknown</title>
<path fill="none" stroke="black" d="M2556.44,-394.9C2568.15,-403.78 2581.76,-415.06 2592.6,-426.69 2601.09,-435.8 2598.66,-442.19 2608.6,-449.69 2657.72,-486.8 2693.62,-453.76 2739.6,-494.69 2790,-539.56 2815.44,-617.9 2825.98,-659.64"/>
<polygon fill="black" stroke="black" points="2822.59,-660.52 2828.34,-669.42 2829.39,-658.88 2822.59,-660.52"/>
<text text-anchor="middle" x="2674.1" y="-498.49" font-family="Times,serif" font-size="14.00">ResumingFailure</text>
</g>
<!-- Resuming&#45;&gt;Unknown -->
<g id="edge9" class="edge">
<title>Resuming&#45;&gt;Unknown</title>
<path fill="none" stroke="black" d="M2561.41,-394.9C2572.89,-403.2 2584.98,-414.01 2592.6,-426.69 2611.96,-458.89 2581.43,-483.75 2608.6,-509.69 2651.15,-550.32 2690.84,-495.77 2739.6,-528.69 2785.97,-560.01 2812.2,-622.93 2824.13,-659.53"/>
<polygon fill="black" stroke="black" points="2820.94,-661.04 2827.25,-669.55 2827.62,-658.96 2820.94,-661.04"/>
<text text-anchor="middle" x="2674.1" y="-532.49" font-family="Times,serif" font-size="14.00">Unknown</text>
</g>
<!-- Resuming&#45;&gt;Started -->
<g id="edge7" class="edge">
<title>Resuming&#45;&gt;Started</title>
<path fill="none" stroke="black" d="M2547.07,-358.45C2561.74,-343.34 2584.56,-322.5 2608.6,-310.69 2662.04,-284.45 2692.1,-318.59 2739.6,-282.69 2753.24,-272.38 2743.44,-258.27 2757.6,-248.69 2809.31,-213.71 2994.6,-209.37 3080.85,-209.3"/>
<polygon fill="black" stroke="black" points="3080.86,-212.8 3090.86,-209.31 3080.87,-205.8 3080.86,-212.8"/>
<text text-anchor="middle" x="2833.1" y="-252.49" font-family="Times,serif" font-size="14.00">ResumingSuccess</text>
</g>
<!-- Unknown&#45;&gt;Started -->
<g id="edge13" class="edge">
<title>Unknown&#45;&gt;Started</title>
<path fill="none" stroke="black" d="M2837.63,-669.65C2846.69,-626.5 2873.89,-515.18 2926.6,-437.69 2974.93,-366.65 3016.99,-375.84 3070.6,-308.69 3088.28,-286.54 3103.49,-257.94 3113.41,-237.18"/>
<polygon fill="black" stroke="black" points="3116.65,-238.51 3117.71,-227.96 3110.31,-235.55 3116.65,-238.51"/>
<text text-anchor="middle" x="2998.6" y="-441.49" font-family="Times,serif" font-size="14.00">UnknownToStarted</text>
</g>
<!-- Unknown&#45;&gt;Stopped -->
<g id="edge15" class="edge">
<title>Unknown&#45;&gt;Stopped</title>
<path fill="none" stroke="black" d="M2842.82,-705.93C2858.45,-739.39 2891.22,-813.15 2908.6,-878.69 2915.62,-905.18 2907.34,-981.2 2926.6,-1000.69 2972.15,-1046.79 3012.74,-994.5 3070.6,-1023.69 3083.93,-1030.42 3096.09,-1041.54 3105.56,-1051.94"/>
<polygon fill="black" stroke="black" points="3103.07,-1054.41 3112.26,-1059.68 3108.36,-1049.82 3103.07,-1054.41"/>
<text text-anchor="middle" x="2998.6" y="-1027.49" font-family="Times,serif" font-size="14.00">UnknownToStopped</text>
</g>
<!-- Unknown&#45;&gt;Paused -->
<g id="edge14" class="edge">
<title>Unknown&#45;&gt;Paused</title>
<path fill="none" stroke="black" d="M2856.97,-669.49C2908.91,-628.15 3035.79,-527.17 3094.66,-480.32"/>
<polygon fill="black" stroke="black" points="3097.19,-482.78 3102.83,-473.81 3092.83,-477.3 3097.19,-482.78"/>
<text text-anchor="middle" x="2998.6" y="-615.49" font-family="Times,serif" font-size="14.00">UnknownToPaused</text>
</g>
<!-- Unknown&#45;&gt;Deleted -->
<g id="edge16" class="edge">
<title>Unknown&#45;&gt;Deleted</title>
<path fill="none" stroke="black" d="M2855.53,-706C2907.15,-750.09 3038.36,-862.17 3096.78,-912.08"/>
<polygon fill="black" stroke="black" points="3094.65,-914.86 3104.53,-918.69 3099.2,-909.53 3094.65,-914.86"/>
<text text-anchor="middle" x="2998.6" y="-892.49" font-family="Times,serif" font-size="14.00">UnknownToDeleted</text>
</g>
<!-- PreCreating -->
<g id="node12" class="node">
<title>PreCreating</title>
<path fill="none" stroke="black" d="M52.6,-520.69C52.6,-520.69 132.6,-520.69 132.6,-520.69 138.6,-520.69 144.6,-526.69 144.6,-532.69 144.6,-532.69 144.6,-544.69 144.6,-544.69 144.6,-550.69 138.6,-556.69 132.6,-556.69 132.6,-556.69 52.6,-556.69 52.6,-556.69 46.6,-556.69 40.6,-550.69 40.6,-544.69 40.6,-544.69 40.6,-532.69 40.6,-532.69 40.6,-526.69 46.6,-520.69 52.6,-520.69"/>
<text text-anchor="middle" x="92.6" y="-534.99" font-family="Times,serif" font-size="14.00">PreCreating</text>
</g>
<!-- PreCreating&#45;&gt;Unknown -->
<g id="edge18" class="edge">
<title>PreCreating&#45;&gt;Unknown</title>
<path fill="none" stroke="black" d="M101.38,-556.89C129.97,-620.6 235.78,-829.69 393.1,-829.69 393.1,-829.69 393.1,-829.69 1618.6,-829.69 2052.31,-829.69 2160.33,-805.05 2592.6,-769.69 2658.05,-764.34 2678.24,-778.09 2739.6,-754.69 2764.12,-745.34 2788.01,-727.75 2805.37,-712.94"/>
<polygon fill="black" stroke="black" points="2808.13,-715.17 2813.34,-705.94 2803.51,-709.91 2808.13,-715.17"/>
<text text-anchor="middle" x="1426.1" y="-833.49" font-family="Times,serif" font-size="14.00">Unknown</text>
</g>
<!-- CreatingPreXML -->
<g id="node13" class="node">
<title>CreatingPreXML</title>
<path fill="none" stroke="black" d="M337.6,-520.69C337.6,-520.69 450.6,-520.69 450.6,-520.69 456.6,-520.69 462.6,-526.69 462.6,-532.69 462.6,-532.69 462.6,-544.69 462.6,-544.69 462.6,-550.69 456.6,-556.69 450.6,-556.69 450.6,-556.69 337.6,-556.69 337.6,-556.69 331.6,-556.69 325.6,-550.69 325.6,-544.69 325.6,-544.69 325.6,-532.69 325.6,-532.69 325.6,-526.69 331.6,-520.69 337.6,-520.69"/>
<text text-anchor="middle" x="394.1" y="-534.99" font-family="Times,serif" font-size="14.00">CreatingPreXML</text>
</g>
<!-- PreCreating&#45;&gt;CreatingPreXML -->
<g id="edge19" class="edge">
<title>PreCreating&#45;&gt;CreatingPreXML</title>
<path fill="none" stroke="black" d="M144.75,-538.69C191.6,-538.69 261.63,-538.69 315.39,-538.69"/>
<polygon fill="black" stroke="black" points="315.58,-542.19 325.58,-538.69 315.58,-535.19 315.58,-542.19"/>
<text text-anchor="middle" x="235.1" y="-542.49" font-family="Times,serif" font-size="14.00">PreCreatingSuccess</text>
</g>
<!-- PreCreating&#45;&gt;CreatingFailed -->
<g id="edge17" class="edge">
<title>PreCreating&#45;&gt;CreatingFailed</title>
<path fill="none" stroke="black" d="M103.05,-520.55C135.1,-461.82 245.89,-280.69 393.1,-280.69 393.1,-280.69 393.1,-280.69 2179.1,-280.69 2304.53,-280.69 2363.46,-267.48 2450.6,-357.69 2471.64,-379.47 2451.16,-401.16 2467.37,-427.31"/>
<polygon fill="black" stroke="black" points="2464.82,-429.73 2473.66,-435.57 2470.39,-425.49 2464.82,-429.73"/>
<text text-anchor="middle" x="1230.6" y="-284.49" font-family="Times,serif" font-size="14.00">PreCreatingFailure</text>
</g>
<!-- CreatingPreXML&#45;&gt;CreatingXML -->
<g id="edge20" class="edge">
<title>CreatingPreXML&#45;&gt;CreatingXML</title>
<path fill="none" stroke="black" d="M462.79,-538.69C522.09,-538.69 607.7,-538.69 666.28,-538.69"/>
<polygon fill="black" stroke="black" points="666.52,-542.19 676.52,-538.69 666.52,-535.19 666.52,-542.19"/>
<text text-anchor="middle" x="569.6" y="-542.49" font-family="Times,serif" font-size="14.00">CreatingPreXMLSuccess</text>
</g>
<!-- CreatingPreXML&#45;&gt;Unknown -->
<g id="edge22" class="edge">
<title>CreatingPreXML&#45;&gt;Unknown</title>
<path fill="none" stroke="black" d="M407.09,-556.71C446.33,-613.29 577.32,-783.69 731.6,-783.69 731.6,-783.69 731.6,-783.69 1231.6,-783.69 1773.49,-783.69 1909.62,-790.18 2450.6,-758.69 2579.47,-751.19 2615.1,-763.79 2739.6,-729.69 2756.65,-725.02 2774.52,-717.57 2789.96,-710.24"/>
<polygon fill="black" stroke="black" points="2791.78,-713.24 2799.23,-705.71 2788.71,-706.95 2791.78,-713.24"/>
<text text-anchor="middle" x="1617.6" y="-787.49" font-family="Times,serif" font-size="14.00">Unknown</text>
</g>
<!-- CreatingPreXML&#45;&gt;CreatingFailed -->
<g id="edge21" class="edge">
<title>CreatingPreXML&#45;&gt;CreatingFailed</title>
<path fill="none" stroke="black" d="M409.74,-520.62C453.06,-469.35 586.6,-326.69 731.6,-326.69 731.6,-326.69 731.6,-326.69 2179.1,-326.69 2186.72,-326.69 2373.51,-395.88 2470.81,-432.12"/>
<polygon fill="black" stroke="black" points="2469.63,-435.42 2480.23,-435.63 2472.08,-428.86 2469.63,-435.42"/>
<text text-anchor="middle" x="1426.1" y="-330.49" font-family="Times,serif" font-size="14.00">CreatingPreXMLFailure</text>
</g>
<!-- CreatingPostXML&#45;&gt;Unknown -->
<g id="edge25" class="edge">
<title>CreatingPostXML&#45;&gt;Unknown</title>
<path fill="none" stroke="black" d="M1120.99,-554.54C1126.94,-555.68 1132.86,-556.75 1138.6,-557.69 1786.03,-664.43 1952.64,-678.4 2608.6,-694.69 2666.8,-696.14 2681.42,-696.89 2739.6,-694.69 2752.94,-694.19 2767.33,-693.28 2780.71,-692.27"/>
<polygon fill="black" stroke="black" points="2781,-695.76 2790.7,-691.5 2780.45,-688.78 2781,-695.76"/>
<text text-anchor="middle" x="2003.1" y="-679.49" font-family="Times,serif" font-size="14.00">Unknown</text>
</g>
<!-- CreatingPreDisk -->
<g id="node15" class="node">
<title>CreatingPreDisk</title>
<path fill="none" stroke="black" d="M1370.6,-520.69C1370.6,-520.69 1481.6,-520.69 1481.6,-520.69 1487.6,-520.69 1493.6,-526.69 1493.6,-532.69 1493.6,-532.69 1493.6,-544.69 1493.6,-544.69 1493.6,-550.69 1487.6,-556.69 1481.6,-556.69 1481.6,-556.69 1370.6,-556.69 1370.6,-556.69 1364.6,-556.69 1358.6,-550.69 1358.6,-544.69 1358.6,-544.69 1358.6,-532.69 1358.6,-532.69 1358.6,-526.69 1364.6,-520.69 1370.6,-520.69"/>
<text text-anchor="middle" x="1426.1" y="-534.99" font-family="Times,serif" font-size="14.00">CreatingPreDisk</text>
</g>
<!-- CreatingPostXML&#45;&gt;CreatingPreDisk -->
<g id="edge23" class="edge">
<title>CreatingPostXML&#45;&gt;CreatingPreDisk</title>
<path fill="none" stroke="black" d="M1120.63,-538.69C1185.51,-538.69 1281.51,-538.69 1348.3,-538.69"/>
<polygon fill="black" stroke="black" points="1348.35,-542.19 1358.35,-538.69 1348.35,-535.19 1348.35,-542.19"/>
<text text-anchor="middle" x="1230.6" y="-542.49" font-family="Times,serif" font-size="14.00">CreatingPostXMLSuccess</text>
</g>
<!-- CreatingPostXML&#45;&gt;CreatingFailed -->
<g id="edge24" class="edge">
<title>CreatingPostXML&#45;&gt;CreatingFailed</title>
<path fill="none" stroke="black" d="M1120.69,-528.5C1243.11,-511.3 1502.87,-476.91 1723.6,-461.69 1965.32,-445.02 2026.33,-451.58 2268.6,-448.69 2349.48,-447.73 2369.75,-446.1 2450.6,-448.69 2453.15,-448.77 2455.75,-448.87 2458.37,-448.98"/>
<polygon fill="black" stroke="black" points="2458.42,-452.48 2468.57,-449.45 2458.75,-445.49 2458.42,-452.48"/>
<text text-anchor="middle" x="1812.1" y="-465.49" font-family="Times,serif" font-size="14.00">CreatingPostXMLFailure</text>
</g>
<!-- CreatingPreDisk&#45;&gt;Unknown -->
<g id="edge26" class="edge">
<title>CreatingPreDisk&#45;&gt;Unknown</title>
<path fill="none" stroke="black" d="M1493.73,-551.58C1505.65,-553.74 1517.98,-555.86 1529.6,-557.69 1856.77,-609.23 1938.88,-622.37 2268.6,-653.69 2457.07,-671.6 2681.94,-681.84 2780.98,-685.79"/>
<polygon fill="black" stroke="black" points="2780.89,-689.29 2791.02,-686.18 2781.16,-682.29 2780.89,-689.29"/>
<text text-anchor="middle" x="2178.1" y="-654.49" font-family="Times,serif" font-size="14.00">Unknown</text>
</g>
<!-- CreatingDisk -->
<g id="node16" class="node">
<title>CreatingDisk</title>
<path fill="none" stroke="black" d="M1769.1,-520.69C1769.1,-520.69 1855.1,-520.69 1855.1,-520.69 1861.1,-520.69 1867.1,-526.69 1867.1,-532.69 1867.1,-532.69 1867.1,-544.69 1867.1,-544.69 1867.1,-550.69 1861.1,-556.69 1855.1,-556.69 1855.1,-556.69 1769.1,-556.69 1769.1,-556.69 1763.1,-556.69 1757.1,-550.69 1757.1,-544.69 1757.1,-544.69 1757.1,-532.69 1757.1,-532.69 1757.1,-526.69 1763.1,-520.69 1769.1,-520.69"/>
<text text-anchor="middle" x="1812.1" y="-534.99" font-family="Times,serif" font-size="14.00">CreatingDisk</text>
</g>
<!-- CreatingPreDisk&#45;&gt;CreatingDisk -->
<g id="edge27" class="edge">
<title>CreatingPreDisk&#45;&gt;CreatingDisk</title>
<path fill="none" stroke="black" d="M1493.99,-538.69C1565.16,-538.69 1676.95,-538.69 1747.03,-538.69"/>
<polygon fill="black" stroke="black" points="1747.06,-542.19 1757.06,-538.69 1747.06,-535.19 1747.06,-542.19"/>
<text text-anchor="middle" x="1617.6" y="-542.49" font-family="Times,serif" font-size="14.00">CreatingPreDiskSuccess</text>
</g>
<!-- CreatingPreDisk&#45;&gt;CreatingFailed -->
<g id="edge28" class="edge">
<title>CreatingPreDisk&#45;&gt;CreatingFailed</title>
<path fill="none" stroke="black" d="M1493.76,-529.53C1588.16,-516.83 1766.28,-493.83 1918.6,-479.69 2073.82,-465.29 2112.82,-462.7 2268.6,-456.69 2332.77,-454.21 2405.92,-453.56 2458.24,-453.47"/>
<polygon fill="black" stroke="black" points="2458.42,-456.97 2468.42,-453.46 2458.42,-449.97 2458.42,-456.97"/>
<text text-anchor="middle" x="2003.1" y="-483.49" font-family="Times,serif" font-size="14.00">CreatingPreDiskFailure</text>
</g>
<!-- CreatingDisk&#45;&gt;CreatingPostDisk -->
<g id="edge29" class="edge">
<title>CreatingDisk&#45;&gt;CreatingPostDisk</title>
<path fill="none" stroke="black" d="M1867.2,-538.69C1928.08,-538.69 2027.55,-538.69 2097.34,-538.69"/>
<polygon fill="black" stroke="black" points="2097.42,-542.19 2107.42,-538.69 2097.42,-535.19 2097.42,-542.19"/>
<text text-anchor="middle" x="2003.1" y="-542.49" font-family="Times,serif" font-size="14.00">CreatingDiskSuccess</text>
</g>
<!-- CreatingDisk&#45;&gt;Unknown -->
<g id="edge31" class="edge">
<title>CreatingDisk&#45;&gt;Unknown</title>
<path fill="none" stroke="black" d="M1867.25,-548.84C1883.72,-551.82 1901.88,-555 1918.6,-557.69 2246.47,-610.53 2642.38,-663.04 2781.12,-681.11"/>
<polygon fill="black" stroke="black" points="2780.68,-684.58 2791.05,-682.4 2781.58,-677.64 2780.68,-684.58"/>
<text text-anchor="middle" x="2359.6" y="-638.49" font-family="Times,serif" font-size="14.00">Unknown</text>
</g>
<!-- CreatingDisk&#45;&gt;CreatingFailed -->
<g id="edge30" class="edge">
<title>CreatingDisk&#45;&gt;CreatingFailed</title>
<path fill="none" stroke="black" d="M1867.19,-530.24C1925.83,-521.24 2022.22,-506.91 2105.6,-496.69 2229.39,-481.52 2374.03,-467.64 2458.08,-459.96"/>
<polygon fill="black" stroke="black" points="2458.63,-463.43 2468.27,-459.03 2457.99,-456.46 2458.63,-463.43"/>
<text text-anchor="middle" x="2178.1" y="-500.49" font-family="Times,serif" font-size="14.00">CreatingDiskFailure</text>
</g>
<!-- PostCreating&#45;&gt;Unknown -->
<g id="edge37" class="edge">
<title>PostCreating&#45;&gt;Unknown</title>
<path fill="none" stroke="black" d="M2567.81,-556.71C2576.18,-561.25 2584.87,-566.36 2592.6,-571.69 2600.38,-577.06 2600.08,-581.61 2608.6,-585.69 2661.92,-611.21 2686.13,-583.5 2739.6,-608.69 2766.68,-621.45 2792.13,-644.3 2809.45,-662.16"/>
<polygon fill="black" stroke="black" points="2806.95,-664.6 2816.36,-669.46 2812.03,-659.79 2806.95,-664.6"/>
<text text-anchor="middle" x="2674.1" y="-612.49" font-family="Times,serif" font-size="14.00">Unknown</text>
</g>
<!-- PostCreating&#45;&gt;CreatingFailed -->
<g id="edge36" class="edge">
<title>PostCreating&#45;&gt;CreatingFailed</title>
</g>
<!-- PostCreating&#45;&gt;Started -->
<g id="edge35" class="edge">
<title>PostCreating&#45;&gt;Started</title>
<path fill="none" stroke="black" d="M2547.76,-520.43C2562.52,-505.84 2585.09,-486.02 2608.6,-474.69 2662.24,-448.86 2698.04,-489.32 2739.6,-446.69 2769.91,-415.61 2727.66,-382.13 2757.6,-350.69 2805.18,-300.73 2843.61,-337.85 2908.6,-314.69 2972.32,-291.98 3042.09,-256.09 3084.86,-232.72"/>
<polygon fill="black" stroke="black" points="3086.75,-235.67 3093.83,-227.78 3083.38,-229.54 3086.75,-235.67"/>
<text text-anchor="middle" x="2833.1" y="-354.49" font-family="Times,serif" font-size="14.00">PostCreatingSuccess</text>
</g>
<!-- CreatingFailed&#45;&gt;Unknown -->
<g id="edge39" class="edge">
<title>CreatingFailed&#45;&gt;Unknown</title>
<path fill="none" stroke="black" d="M2556.73,-471.88C2568.91,-481.41 2582.85,-493.96 2592.6,-507.69 2603.68,-523.3 2593.56,-535.84 2608.6,-547.69 2654.82,-584.09 2688.87,-536.9 2739.6,-566.69 2776.88,-588.59 2804.28,-631.88 2819.2,-660.3"/>
<polygon fill="black" stroke="black" points="2816.13,-661.98 2823.78,-669.31 2822.37,-658.81 2816.13,-661.98"/>
<text text-anchor="middle" x="2674.1" y="-570.49" font-family="Times,serif" font-size="14.00">Unknown</text>
</g>
<!-- CreatingFailed&#45;&gt;PreCreating -->
<g id="edge38" class="edge">
<title>CreatingFailed&#45;&gt;PreCreating</title>
<path fill="none" stroke="black" d="M2473.13,-435.58C2471.49,-434.08 2469.97,-432.45 2468.6,-430.69 2426.32,-376.28 2499.13,-325.62 2450.6,-276.69 2364.96,-190.35 2300.71,-242.69 2179.1,-242.69 393.1,-242.69 393.1,-242.69 393.1,-242.69 287.57,-242.69 238.65,-226.53 162.6,-299.69 103.45,-356.6 94.1,-460.74 93.2,-510.61"/>
<polygon fill="black" stroke="black" points="89.7,-510.65 93.13,-520.67 96.7,-510.7 89.7,-510.65"/>
<text text-anchor="middle" x="1230.6" y="-246.49" font-family="Times,serif" font-size="14.00">CreatingRetry</text>
</g>
<!-- Started&#45;&gt;Pausing -->
<g id="edge4" class="edge">
<title>Started&#45;&gt;Pausing</title>
<path fill="none" stroke="black" d="M3105.26,-191.58C3095.42,-183.72 3083.05,-175.1 3070.6,-169.69 2929.09,-108.2 2684.41,-44.35 2608.6,-105.69 2582.1,-127.13 2613.99,-154.15 2592.6,-180.69 2587.96,-186.44 2581.89,-191.06 2575.36,-194.74"/>
<polygon fill="black" stroke="black" points="2573.69,-191.66 2566.26,-199.22 2576.78,-197.95 2573.69,-191.66"/>
<text text-anchor="middle" x="2833.1" y="-116.49" font-family="Times,serif" font-size="14.00">Pause</text>
</g>
<!-- Started&#45;&gt;Stopping -->
<g id="edge6" class="edge">
<title>Started&#45;&gt;Stopping</title>
<path fill="none" stroke="black" d="M3090.93,-200.07C3003.72,-177.9 2770.68,-131.49 2608.6,-217.69 2599.15,-222.72 2601.22,-229.35 2592.6,-235.69 2588.48,-238.72 2583.99,-241.52 2579.36,-244.09"/>
<polygon fill="black" stroke="black" points="2577.63,-241.04 2570.36,-248.74 2580.85,-247.26 2577.63,-241.04"/>
<text text-anchor="middle" x="2833.1" y="-176.49" font-family="Times,serif" font-size="14.00">Stop</text>
</g>
<!-- Started&#45;&gt;Migrating -->
<g id="edge5" class="edge">
<title>Started&#45;&gt;Migrating</title>
<path fill="none" stroke="black" d="M3119.52,-191.4C3111.55,-170.2 3095.58,-135.61 3070.6,-115.69 3011.58,-68.63 2983.21,-76.16 2908.6,-64.69 2776.69,-44.42 2729.92,-22.09 2608.6,-77.69 2584.67,-88.66 2563.7,-110.17 2549.55,-127.52"/>
<polygon fill="black" stroke="black" points="2546.59,-125.61 2543.16,-135.64 2552.1,-129.94 2546.59,-125.61"/>
<text text-anchor="middle" x="2833.1" y="-68.49" font-family="Times,serif" font-size="14.00">Migrate</text>
</g>
<!-- Stopped&#45;&gt;Templating -->
<g id="edge59" class="edge">
<title>Stopped&#45;&gt;Templating</title>
<path fill="none" stroke="black" d="M3124.42,-1095.95C3121.34,-1127.57 3110.26,-1192.35 3070.6,-1225.69 3014.55,-1272.81 2981.52,-1249 2908.6,-1255.69 2775.61,-1267.9 2727.97,-1298.58 2608.6,-1238.69 2583.16,-1225.93 2561.66,-1201.27 2547.72,-1182.14"/>
<polygon fill="black" stroke="black" points="2550.48,-1179.97 2541.86,-1173.8 2544.75,-1183.99 2550.48,-1179.97"/>
<text text-anchor="middle" x="2833.1" y="-1277.49" font-family="Times,serif" font-size="14.00">Template</text>
</g>
<!-- Stopped&#45;&gt;Updating -->
<g id="edge60" class="edge">
<title>Stopped&#45;&gt;Updating</title>
<path fill="none" stroke="black" d="M3088.54,-1089C3020.31,-1109.15 2869.86,-1150.5 2739.6,-1164.69 2681.72,-1171 2657.42,-1196.42 2608.6,-1164.69 2593.92,-1155.15 2604.94,-1141.11 2592.6,-1128.69 2588.95,-1125.02 2584.72,-1121.78 2580.24,-1118.94"/>
<polygon fill="black" stroke="black" points="2581.79,-1115.79 2571.35,-1113.95 2578.36,-1121.9 2581.79,-1115.79"/>
<text text-anchor="middle" x="2833.1" y="-1165.49" font-family="Times,serif" font-size="14.00">Update</text>
</g>
<!-- Stopped&#45;&gt;Deleting -->
<g id="edge61" class="edge">
<title>Stopped&#45;&gt;Deleting</title>
<path fill="none" stroke="black" d="M3088.42,-1079.22C3003.16,-1082.16 2787.18,-1086.48 2608.6,-1063.69 2598.67,-1062.42 2588.16,-1060.45 2578.18,-1058.26"/>
<polygon fill="black" stroke="black" points="2578.94,-1054.84 2568.41,-1056.02 2577.38,-1061.66 2578.94,-1054.84"/>
<text text-anchor="middle" x="2833.1" y="-1084.49" font-family="Times,serif" font-size="14.00">Delete</text>
</g>
<!-- Stopped&#45;&gt;Starting -->
<g id="edge57" class="edge">
<title>Stopped&#45;&gt;Starting</title>
<path fill="none" stroke="black" d="M3088.32,-1074.95C3037.42,-1070.46 2949.83,-1059.85 2926.6,-1038.69 2905.7,-1019.66 2930.63,-995.41 2908.6,-977.69 2849.92,-930.5 2814.85,-968.36 2739.6,-965.69 2681.41,-963.63 2666.12,-956.7 2608.6,-965.69 2598.27,-967.31 2587.44,-970.05 2577.26,-973.15"/>
<polygon fill="black" stroke="black" points="2576.18,-969.82 2567.72,-976.2 2578.31,-976.49 2576.18,-969.82"/>
<text text-anchor="middle" x="2833.1" y="-981.49" font-family="Times,serif" font-size="14.00">Start</text>
</g>
<!-- Stopped&#45;&gt;Unknown -->
<g id="edge58" class="edge">
<title>Stopped&#45;&gt;Unknown</title>
<path fill="none" stroke="black" d="M3118.84,-1059.36C3110.33,-1038.36 3093.93,-1003.98 3070.6,-981.69 3018.57,-931.98 2975.49,-960.48 2926.6,-907.69 2912.79,-892.77 2865.78,-771.4 2844.6,-715.58"/>
<polygon fill="black" stroke="black" points="2847.77,-714.08 2840.96,-705.97 2841.22,-716.56 2847.77,-714.08"/>
<text text-anchor="middle" x="2998.6" y="-985.49" font-family="Times,serif" font-size="14.00">Unknown</text>
</g>
<!-- Paused&#45;&gt;Resuming -->
<g id="edge40" class="edge">
<title>Paused&#45;&gt;Resuming</title>
<path fill="none" stroke="black" d="M3092.36,-451.28C2994.08,-438.23 2704.31,-399.76 2583.95,-383.78"/>
<polygon fill="black" stroke="black" points="2584.24,-380.28 2573.87,-382.44 2583.32,-387.22 2584.24,-380.28"/>
<text text-anchor="middle" x="2833.1" y="-429.49" font-family="Times,serif" font-size="14.00">Resume</text>
</g>
<!-- Paused&#45;&gt;Unknown -->
<g id="edge41" class="edge">
<title>Paused&#45;&gt;Unknown</title>
<path fill="none" stroke="black" d="M3092.53,-456C3042.89,-457.1 2952.2,-461.72 2926.6,-480.69 2867.75,-524.3 2845.58,-613.88 2837.86,-659.56"/>
<polygon fill="black" stroke="black" points="2834.37,-659.23 2836.27,-669.66 2841.29,-660.32 2834.37,-659.23"/>
<text text-anchor="middle" x="2998.6" y="-484.49" font-family="Times,serif" font-size="14.00">Unknown</text>
</g>
<!-- init -->
<g id="node23" class="node">
<title>init</title>
<ellipse fill="black" stroke="black" cx="1.8" cy="-538.69" rx="1.8" ry="1.8"/>
</g>
<!-- init&#45;&gt;PreCreating -->
<g id="edge65" class="edge">
<title>init&#45;&gt;PreCreating</title>
<path fill="none" stroke="black" d="M3.8,-538.69C6.99,-538.69 17.47,-538.69 30.14,-538.69"/>
<polygon fill="black" stroke="black" points="30.17,-542.19 40.17,-538.69 30.17,-535.19 30.17,-542.19"/>
</g>
</g>
</svg>
