<?xml version="1.0" encoding="UTF-8" standalone="no"?>
<!DOCTYPE svg PUBLIC "-//W3C//DTD SVG 1.1//EN"
 "http://www.w3.org/Graphics/SVG/1.1/DTD/svg11.dtd">
<!-- Generated by graphviz version 2.42.3 (20191010.1750)
 -->
<!-- Title: %3 Pages: 1 -->
<svg width="872pt" height="205pt"
 viewBox="0.00 0.00 871.60 205.48" xmlns="http://www.w3.org/2000/svg" xmlns:xlink="http://www.w3.org/1999/xlink">
<g id="graph0" class="graph" transform="scale(1 1) rotate(0) translate(4 201.48)">
<title>%3</title>
<polygon fill="white" stroke="transparent" points="-4,4 -4,-201.48 867.6,-201.48 867.6,4 -4,4"/>
<!-- Ready -->
<g id="node1" class="node">
<title>Ready</title>
<path fill="none" stroke="black" d="M52.6,-33.48C52.6,-33.48 89.6,-33.48 89.6,-33.48 95.6,-33.48 101.6,-39.48 101.6,-45.48 101.6,-45.48 101.6,-57.48 101.6,-57.48 101.6,-63.48 95.6,-69.48 89.6,-69.48 89.6,-69.48 52.6,-69.48 52.6,-69.48 46.6,-69.48 40.6,-63.48 40.6,-57.48 40.6,-57.48 40.6,-45.48 40.6,-45.48 40.6,-39.48 46.6,-33.48 52.6,-33.48"/>
<text text-anchor="middle" x="71.1" y="-47.78" font-family="Times,serif" font-size="14.00">Ready</text>
</g>
<!-- Migrating -->
<g id="node2" class="node">
<title>Migrating</title>
<path fill="none" stroke="black" d="M221.6,-141.48C221.6,-141.48 285.6,-141.48 285.6,-141.48 291.6,-141.48 297.6,-147.48 297.6,-153.48 297.6,-153.48 297.6,-165.48 297.6,-165.48 297.6,-171.48 291.6,-177.48 285.6,-177.48 285.6,-177.48 221.6,-177.48 221.6,-177.48 215.6,-177.48 209.6,-171.48 209.6,-165.48 209.6,-165.48 209.6,-153.48 209.6,-153.48 209.6,-147.48 215.6,-141.48 221.6,-141.48"/>
<text text-anchor="middle" x="253.6" y="-155.78" font-family="Times,serif" font-size="14.00">Migrating</text>
</g>
<!-- Ready&#45;&gt;Migrating -->
<g id="edge2" class="edge">
<title>Ready&#45;&gt;Migrating</title>
<path fill="none" stroke="black" d="M81.21,-69.66C89.4,-84.26 102.73,-104.28 119.6,-116.48 143.03,-133.43 173.47,-143.92 199.32,-150.29"/>
<polygon fill="black" stroke="black" points="198.81,-153.76 209.34,-152.61 200.39,-146.95 198.81,-153.76"/>
<text text-anchor="middle" x="155.6" y="-150.28" font-family="Times,serif" font-size="14.00">Migrating</text>
</g>
<!-- Down -->
<g id="node3" class="node">
<title>Down</title>
<path fill="none" stroke="black" d="M524.1,-81.48C524.1,-81.48 557.1,-81.48 557.1,-81.48 563.1,-81.48 569.1,-87.48 569.1,-93.48 569.1,-93.48 569.1,-105.48 569.1,-105.48 569.1,-111.48 563.1,-117.48 557.1,-117.48 557.1,-117.48 524.1,-117.48 524.1,-117.48 518.1,-117.48 512.1,-111.48 512.1,-105.48 512.1,-105.48 512.1,-93.48 512.1,-93.48 512.1,-87.48 518.1,-81.48 524.1,-81.48"/>
<text text-anchor="middle" x="540.6" y="-95.78" font-family="Times,serif" font-size="14.00">Down</text>
</g>
<!-- Ready&#45;&gt;Down -->
<g id="edge1" class="edge">
<title>Ready&#45;&gt;Down</title>
<path fill="none" stroke="black" d="M101.71,-52.63C144.86,-54.46 227.53,-58.55 297.6,-65.48 363.21,-71.98 379.32,-76.23 444.6,-85.48 463.33,-88.14 484.11,-91.19 501.46,-93.76"/>
<polygon fill="black" stroke="black" points="501.35,-97.29 511.76,-95.3 502.39,-90.36 501.35,-97.29"/>
<text text-anchor="middle" x="253.6" y="-69.28" font-family="Times,serif" font-size="14.00">Down</text>
</g>
<!-- Unknown -->
<g id="node4" class="node">
<title>Unknown</title>
<path fill="none" stroke="black" d="M791.6,-78.48C791.6,-78.48 851.6,-78.48 851.6,-78.48 857.6,-78.48 863.6,-84.48 863.6,-90.48 863.6,-90.48 863.6,-102.48 863.6,-102.48 863.6,-108.48 857.6,-114.48 851.6,-114.48 851.6,-114.48 791.6,-114.48 791.6,-114.48 785.6,-114.48 779.6,-108.48 779.6,-102.48 779.6,-102.48 779.6,-90.48 779.6,-90.48 779.6,-84.48 785.6,-78.48 791.6,-78.48"/>
<text text-anchor="middle" x="821.6" y="-92.78" font-family="Times,serif" font-size="14.00">Unknown</text>
</g>
<!-- Ready&#45;&gt;Unknown -->
<g id="edge3" class="edge">
<title>Ready&#45;&gt;Unknown</title>
<path fill="none" stroke="black" d="M101.74,-50.07C107.66,-49.83 113.82,-49.62 119.6,-49.48 206.69,-47.43 228.49,-48.71 315.6,-48.48 514.04,-47.98 569.21,-20.84 761.6,-69.48 766.86,-70.81 772.22,-72.6 777.47,-74.62"/>
<polygon fill="black" stroke="black" points="776.16,-77.86 786.74,-78.46 778.84,-71.4 776.16,-77.86"/>
<text text-anchor="middle" x="380.1" y="-52.28" font-family="Times,serif" font-size="14.00">Unknown</text>
</g>
<!-- Migrating&#45;&gt;Down -->
<g id="edge4" class="edge">
<title>Migrating&#45;&gt;Down</title>
<path fill="none" stroke="black" d="M292.79,-141.47C300.24,-138.46 308.07,-135.62 315.6,-133.48 349.81,-123.77 447.47,-110.81 501.86,-104.04"/>
<polygon fill="black" stroke="black" points="502.32,-107.51 511.81,-102.81 501.46,-100.57 502.32,-107.51"/>
<text text-anchor="middle" x="380.1" y="-137.28" font-family="Times,serif" font-size="14.00">Down</text>
</g>
<!-- Migrating&#45;&gt;Unknown -->
<g id="edge5" class="edge">
<title>Migrating&#45;&gt;Unknown</title>
<path fill="none" stroke="black" d="M297.93,-159.86C386.27,-159.77 593.08,-155.12 761.6,-117.48 764.24,-116.89 766.93,-116.22 769.63,-115.48"/>
<polygon fill="black" stroke="black" points="770.8,-118.79 779.39,-112.58 768.81,-112.08 770.8,-118.79"/>
<text text-anchor="middle" x="540.6" y="-158.28" font-family="Times,serif" font-size="14.00">Unknown</text>
</g>
<!-- Down&#45;&gt;Ready -->
<g id="edge7" class="edge">
<title>Down&#45;&gt;Ready</title>
<path fill="none" stroke="black" d="M511.74,-98.48C454.87,-96.31 321.34,-90.52 209.6,-80.48 169.46,-76.88 158.72,-79.14 119.6,-69.48 116.83,-68.8 114,-68 111.18,-67.13"/>
<polygon fill="black" stroke="black" points="112.25,-63.8 101.65,-63.93 110.02,-70.43 112.25,-63.8"/>
<text text-anchor="middle" x="253.6" y="-91.28" font-family="Times,serif" font-size="14.00">Ready</text>
</g>
<!-- Down&#45;&gt;Unknown -->
<g id="edge6" class="edge">
<title>Down&#45;&gt;Unknown</title>
<path fill="none" stroke="black" d="M569.12,-99.19C615.54,-98.69 710.14,-97.67 769.16,-97.04"/>
<polygon fill="black" stroke="black" points="769.43,-100.53 779.39,-96.93 769.35,-93.54 769.43,-100.53"/>
<text text-anchor="middle" x="699.1" y="-102.28" font-family="Times,serif" font-size="14.00">Unknown</text>
</g>
<!-- Unknown&#45;&gt;Ready -->
<g id="edge8" class="edge">
<title>Unknown&#45;&gt;Ready</title>
<path fill="none" stroke="black" d="M807.05,-78.34C796.3,-65.51 780.05,-49.26 761.6,-41.48 578.83,35.53 513.73,-17.41 315.6,-26.48 228.21,-30.49 206.46,-34.1 119.6,-44.48 117.07,-44.79 114.46,-45.12 111.83,-45.47"/>
<polygon fill="black" stroke="black" points="111.14,-42.03 101.71,-46.86 112.1,-48.96 111.14,-42.03"/>
<text text-anchor="middle" x="380.1" y="-30.28" font-family="Times,serif" font-size="14.00">UnknownToReady</text>
</g>
<!-- Unknown&#45;&gt;Migrating -->
<g id="edge9" class="edge">
<title>Unknown&#45;&gt;Migrating</title>
<path fill="none" stroke="black" d="M801.27,-114.66C790.38,-123.97 776.08,-134.74 761.6,-141.48 702.56,-168.98 683.33,-166.33 618.6,-173.48 484.75,-188.28 449.54,-185.45 315.6,-171.48 313.06,-171.22 310.48,-170.9 307.87,-170.54"/>
<polygon fill="black" stroke="black" points="308.19,-167.05 297.77,-168.98 307.12,-173.97 308.19,-167.05"/>
<text text-anchor="middle" x="540.6" y="-186.28" font-family="Times,serif" font-size="14.00">UnknownToMigrating</text>
</g>
<!-- Unknown&#45;&gt;Down -->
<g id="edge10" class="edge">
<title>Unknown&#45;&gt;Down</title>
<path fill="none" stroke="black" d="M779.37,-82.23C773.47,-80.68 767.43,-79.35 761.6,-78.48 706.65,-70.29 691.83,-72.45 636.6,-78.48 617.37,-80.58 596.33,-85.01 578.95,-89.26"/>
<polygon fill="black" stroke="black" points="578.03,-85.88 569.19,-91.72 579.74,-92.67 578.03,-85.88"/>
<text text-anchor="middle" x="699.1" y="-82.28" font-family="Times,serif" font-size="14.00">UnknownToDown</text>
</g>
<!-- init -->
<g id="node5" class="node">
<title>init</title>
<ellipse fill="black" stroke="black" cx="1.8" cy="-51.48" rx="1.8" ry="1.8"/>
</g>
<!-- init&#45;&gt;Ready -->
<g id="edge11" class="edge">
<title>init&#45;&gt;Ready</title>
<path fill="none" stroke="black" d="M3.97,-51.48C7.46,-51.48 18.31,-51.48 30.25,-51.48"/>
<polygon fill="black" stroke="black" points="30.39,-54.98 40.39,-51.48 30.39,-47.98 30.39,-54.98"/>
</g>
</g>
</svg>
