<?xml version="1.0" encoding="UTF-8" standalone="no"?>
<!DOCTYPE svg PUBLIC "-//W3C//DTD SVG 1.1//EN"
 "http://www.w3.org/Graphics/SVG/1.1/DTD/svg11.dtd">
<!-- Generated by graphviz version 2.42.3 (20191010.1750)
 -->
<!-- Title: %3 Pages: 1 -->
<svg width="3173pt" height="1357pt"
 viewBox="0.00 0.00 3172.60 1356.60" xmlns="http://www.w3.org/2000/svg" xmlns:xlink="http://www.w3.org/1999/xlink">
<g id="graph0" class="graph" transform="scale(1 1) rotate(0) translate(4 1352.6)">
<title>%3</title>
<polygon fill="white" stroke="transparent" points="-4,4 -4,-1352.6 3168.6,-1352.6 3168.6,4 -4,4"/>
<g id="clust1" class="cluster">
<title>cluster_Started</title>
<polygon fill="none" stroke="black" points="2477.6,-1007.6 2477.6,-1194.6 2581.6,-1194.6 2581.6,-1007.6 2477.6,-1007.6"/>
<text text-anchor="middle" x="2529.6" y="-1179.4" font-family="Times,serif" font-size="14.00">Started</text>
</g>
<g id="clust2" class="cluster">
<title>cluster_Stopped</title>
<polygon fill="none" stroke="black" points="2473.1,-110.6 2473.1,-352.6 2586.1,-352.6 2586.1,-110.6 2473.1,-110.6"/>
<text text-anchor="middle" x="2529.6" y="-337.4" font-family="Times,serif" font-size="14.00">Stopped</text>
</g>
<g id="clust3" class="cluster">
<title>cluster_Creating</title>
<polygon fill="none" stroke="black" points="32.6,-751.6 32.6,-828.6 2592.6,-828.6 2592.6,-751.6 32.6,-751.6"/>
<text text-anchor="middle" x="1312.6" y="-813.4" font-family="Times,serif" font-size="14.00">Creating</text>
</g>
<g id="clust4" class="cluster">
<title>cluster_Paused</title>
<polygon fill="none" stroke="black" points="2477.6,-560.6 2477.6,-637.6 2581.6,-637.6 2581.6,-560.6 2477.6,-560.6"/>
<text text-anchor="middle" x="2529.6" y="-622.4" font-family="Times,serif" font-size="14.00">Paused</text>
</g>
<!-- Updating -->
<g id="node1" class="node">
<title>Updating</title>
<path fill="none" stroke="black" d="M2500.1,-119.6C2500.1,-119.6 2559.1,-119.6 2559.1,-119.6 2565.1,-119.6 2571.1,-125.6 2571.1,-131.6 2571.1,-131.6 2571.1,-143.6 2571.1,-143.6 2571.1,-149.6 2565.1,-155.6 2559.1,-155.6 2559.1,-155.6 2500.1,-155.6 2500.1,-155.6 2494.1,-155.6 2488.1,-149.6 2488.1,-143.6 2488.1,-143.6 2488.1,-131.6 2488.1,-131.6 2488.1,-125.6 2494.1,-119.6 2500.1,-119.6"/>
<text text-anchor="middle" x="2529.6" y="-133.9" font-family="Times,serif" font-size="14.00">Updating</text>
</g>
<!-- Unknown -->
<g id="node16" class="node">
<title>Unknown</title>
<path fill="none" stroke="black" d="M2803.1,-607.6C2803.1,-607.6 2863.1,-607.6 2863.1,-607.6 2869.1,-607.6 2875.1,-613.6 2875.1,-619.6 2875.1,-619.6 2875.1,-631.6 2875.1,-631.6 2875.1,-637.6 2869.1,-643.6 2863.1,-643.6 2863.1,-643.6 2803.1,-643.6 2803.1,-643.6 2797.1,-643.6 2791.1,-637.6 2791.1,-631.6 2791.1,-631.6 2791.1,-619.6 2791.1,-619.6 2791.1,-613.6 2797.1,-607.6 2803.1,-607.6"/>
<text text-anchor="middle" x="2833.1" y="-621.9" font-family="Times,serif" font-size="14.00">Unknown</text>
</g>
<!-- Updating&#45;&gt;Unknown -->
<g id="edge32" class="edge">
<title>Updating&#45;&gt;Unknown</title>
<path fill="none" stroke="black" d="M2550.01,-119.5C2564.81,-107 2586.38,-91.44 2608.6,-84.6 2664.25,-67.49 2697.29,-44.61 2739.6,-84.6 2765.4,-108.99 2750.89,-368.74 2757.6,-403.6 2771.47,-475.71 2802.85,-556.57 2820.13,-597.94"/>
<polygon fill="black" stroke="black" points="2816.99,-599.49 2824.1,-607.34 2823.44,-596.77 2816.99,-599.49"/>
<text text-anchor="middle" x="2674.1" y="-88.4" font-family="Times,serif" font-size="14.00">UpdatingFailure</text>
</g>
<!-- Updating&#45;&gt;Unknown -->
<g id="edge33" class="edge">
<title>Updating&#45;&gt;Unknown</title>
<path fill="none" stroke="black" d="M2571.24,-127.55C2618.73,-118.5 2696.32,-112.55 2739.6,-156.6 2758.88,-176.23 2752.18,-376.62 2757.6,-403.6 2772.06,-475.59 2803.2,-556.5 2820.28,-597.91"/>
<polygon fill="black" stroke="black" points="2817.13,-599.44 2824.21,-607.32 2823.59,-596.75 2817.13,-599.44"/>
<text text-anchor="middle" x="2674.1" y="-160.4" font-family="Times,serif" font-size="14.00">Unknown</text>
</g>
<!-- Stopped -->
<g id="node20" class="node">
<title>Stopped</title>
<path fill="none" stroke="black" d="M3100.6,-182.6C3100.6,-182.6 3152.6,-182.6 3152.6,-182.6 3158.6,-182.6 3164.6,-188.6 3164.6,-194.6 3164.6,-194.6 3164.6,-206.6 3164.6,-206.6 3164.6,-212.6 3158.6,-218.6 3152.6,-218.6 3152.6,-218.6 3100.6,-218.6 3100.6,-218.6 3094.6,-218.6 3088.6,-212.6 3088.6,-206.6 3088.6,-206.6 3088.6,-194.6 3088.6,-194.6 3088.6,-188.6 3094.6,-182.6 3100.6,-182.6"/>
<text text-anchor="middle" x="3126.6" y="-196.9" font-family="Times,serif" font-size="14.00">Stopped</text>
</g>
<!-- Updating&#45;&gt;Stopped -->
<g id="edge31" class="edge">
<title>Updating&#45;&gt;Stopped</title>
<path fill="none" stroke="black" d="M2538.62,-119.48C2550.24,-95.62 2574.21,-54.5 2608.6,-35.6 2725.56,28.67 2775.53,-12.4 2908.6,-22.6 2981.24,-28.17 3014.39,-1.26 3070.6,-47.6 3108.2,-78.6 3120.1,-137.37 3123.86,-172.36"/>
<polygon fill="black" stroke="black" points="3120.39,-172.76 3124.79,-182.4 3127.36,-172.12 3120.39,-172.76"/>
<text text-anchor="middle" x="2833.1" y="-26.4" font-family="Times,serif" font-size="14.00">UpdatingSuccess</text>
</g>
<!-- CreatingXML -->
<g id="node2" class="node">
<title>CreatingXML</title>
<path fill="none" stroke="black" d="M688.6,-760.6C688.6,-760.6 776.6,-760.6 776.6,-760.6 782.6,-760.6 788.6,-766.6 788.6,-772.6 788.6,-772.6 788.6,-784.6 788.6,-784.6 788.6,-790.6 782.6,-796.6 776.6,-796.6 776.6,-796.6 688.6,-796.6 688.6,-796.6 682.6,-796.6 676.6,-790.6 676.6,-784.6 676.6,-784.6 676.6,-772.6 676.6,-772.6 676.6,-766.6 682.6,-760.6 688.6,-760.6"/>
<text text-anchor="middle" x="732.6" y="-774.9" font-family="Times,serif" font-size="14.00">CreatingXML</text>
</g>
<!-- CreatingPostXML -->
<g id="node3" class="node">
<title>CreatingPostXML</title>
<path fill="none" stroke="black" d="M989.6,-760.6C989.6,-760.6 1108.6,-760.6 1108.6,-760.6 1114.6,-760.6 1120.6,-766.6 1120.6,-772.6 1120.6,-772.6 1120.6,-784.6 1120.6,-784.6 1120.6,-790.6 1114.6,-796.6 1108.6,-796.6 1108.6,-796.6 989.6,-796.6 989.6,-796.6 983.6,-796.6 977.6,-790.6 977.6,-784.6 977.6,-784.6 977.6,-772.6 977.6,-772.6 977.6,-766.6 983.6,-760.6 989.6,-760.6"/>
<text text-anchor="middle" x="1049.1" y="-774.9" font-family="Times,serif" font-size="14.00">CreatingPostXML</text>
</g>
<!-- CreatingXML&#45;&gt;CreatingPostXML -->
<g id="edge14" class="edge">
<title>CreatingXML&#45;&gt;CreatingPostXML</title>
<path fill="none" stroke="black" d="M788.74,-778.6C838.16,-778.6 911.29,-778.6 967.31,-778.6"/>
<polygon fill="black" stroke="black" points="967.56,-782.1 977.56,-778.6 967.56,-775.1 967.56,-782.1"/>
<text text-anchor="middle" x="883.1" y="-782.4" font-family="Times,serif" font-size="14.00">CreatingXMLSuccess</text>
</g>
<!-- CreatingFailed -->
<g id="node5" class="node">
<title>CreatingFailed</title>
<path fill="none" stroke="black" d="M2480.6,-898.6C2480.6,-898.6 2578.6,-898.6 2578.6,-898.6 2584.6,-898.6 2590.6,-904.6 2590.6,-910.6 2590.6,-910.6 2590.6,-922.6 2590.6,-922.6 2590.6,-928.6 2584.6,-934.6 2578.6,-934.6 2578.6,-934.6 2480.6,-934.6 2480.6,-934.6 2474.6,-934.6 2468.6,-928.6 2468.6,-922.6 2468.6,-922.6 2468.6,-910.6 2468.6,-910.6 2468.6,-904.6 2474.6,-898.6 2480.6,-898.6"/>
<text text-anchor="middle" x="2529.6" y="-912.9" font-family="Times,serif" font-size="14.00">CreatingFailed</text>
</g>
<!-- CreatingXML&#45;&gt;CreatingFailed -->
<g id="edge12" class="edge">
<title>CreatingXML&#45;&gt;CreatingFailed</title>
<path fill="none" stroke="black" d="M788.85,-793.71C794.82,-795.12 800.82,-796.45 806.6,-797.6 1210.16,-877.78 1313.45,-892.02 1723.6,-924.6 1892.88,-938.05 1935.82,-929.26 2105.6,-932.6 2258.91,-935.62 2298.35,-953.88 2450.6,-935.6 2453.14,-935.3 2455.72,-934.94 2458.32,-934.53"/>
<polygon fill="black" stroke="black" points="2459.15,-937.94 2468.39,-932.77 2457.94,-931.05 2459.15,-937.94"/>
<text text-anchor="middle" x="1617.6" y="-926.4" font-family="Times,serif" font-size="14.00">CreatingXMLFailure</text>
</g>
<!-- CreatingXML&#45;&gt;Unknown -->
<g id="edge13" class="edge">
<title>CreatingXML&#45;&gt;Unknown</title>
<path fill="none" stroke="black" d="M745.57,-760.56C783.12,-706.33 904.7,-548.6 1048.1,-548.6 1048.1,-548.6 1048.1,-548.6 1618.6,-548.6 2051.5,-548.6 2160.52,-529.92 2592.6,-556.6 2658.24,-560.66 2677.04,-553.31 2739.6,-573.6 2759.86,-580.17 2780.68,-591.41 2797.43,-601.76"/>
<polygon fill="black" stroke="black" points="2795.96,-604.98 2806.28,-607.39 2799.72,-599.07 2795.96,-604.98"/>
<text text-anchor="middle" x="1812.1" y="-552.4" font-family="Times,serif" font-size="14.00">Unknown</text>
</g>
<!-- CreatingPostXML&#45;&gt;CreatingFailed -->
<g id="edge16" class="edge">
<title>CreatingPostXML&#45;&gt;CreatingFailed</title>
<path fill="none" stroke="black" d="M1121.02,-794.31C1126.95,-795.48 1132.87,-796.59 1138.6,-797.6 1636.16,-885.34 1763.49,-910.06 2268.6,-921.6 2349.47,-923.45 2369.75,-924.19 2450.6,-921.6 2453.15,-921.52 2455.75,-921.42 2458.37,-921.32"/>
<polygon fill="black" stroke="black" points="2458.75,-924.8 2468.57,-920.84 2458.42,-917.81 2458.75,-924.8"/>
<text text-anchor="middle" x="1812.1" y="-909.4" font-family="Times,serif" font-size="14.00">CreatingPostXMLFailure</text>
</g>
<!-- CreatingPreDisk -->
<g id="node14" class="node">
<title>CreatingPreDisk</title>
<path fill="none" stroke="black" d="M1370.6,-760.6C1370.6,-760.6 1481.6,-760.6 1481.6,-760.6 1487.6,-760.6 1493.6,-766.6 1493.6,-772.6 1493.6,-772.6 1493.6,-784.6 1493.6,-784.6 1493.6,-790.6 1487.6,-796.6 1481.6,-796.6 1481.6,-796.6 1370.6,-796.6 1370.6,-796.6 1364.6,-796.6 1358.6,-790.6 1358.6,-784.6 1358.6,-784.6 1358.6,-772.6 1358.6,-772.6 1358.6,-766.6 1364.6,-760.6 1370.6,-760.6"/>
<text text-anchor="middle" x="1426.1" y="-774.9" font-family="Times,serif" font-size="14.00">CreatingPreDisk</text>
</g>
<!-- CreatingPostXML&#45;&gt;CreatingPreDisk -->
<g id="edge15" class="edge">
<title>CreatingPostXML&#45;&gt;CreatingPreDisk</title>
<path fill="none" stroke="black" d="M1120.63,-778.6C1185.51,-778.6 1281.51,-778.6 1348.3,-778.6"/>
<polygon fill="black" stroke="black" points="1348.35,-782.1 1358.35,-778.6 1348.35,-775.1 1348.35,-782.1"/>
<text text-anchor="middle" x="1230.6" y="-782.4" font-family="Times,serif" font-size="14.00">CreatingPostXMLSuccess</text>
</g>
<!-- CreatingPostXML&#45;&gt;Unknown -->
<g id="edge17" class="edge">
<title>CreatingPostXML&#45;&gt;Unknown</title>
<path fill="none" stroke="black" d="M1078.47,-760.54C1139.39,-723.55 1288.32,-642.6 1425.1,-642.6 1425.1,-642.6 1425.1,-642.6 2004.1,-642.6 2265.66,-642.6 2331.07,-645.38 2592.6,-641.6 2657.95,-640.66 2674.44,-642.7 2739.6,-637.6 2752.98,-636.56 2767.39,-634.93 2780.76,-633.21"/>
<polygon fill="black" stroke="black" points="2781.3,-636.67 2790.75,-631.88 2780.38,-629.73 2781.3,-636.67"/>
<text text-anchor="middle" x="2003.1" y="-646.4" font-family="Times,serif" font-size="14.00">Unknown</text>
</g>
<!-- PostCreating -->
<g id="node4" class="node">
<title>PostCreating</title>
<path fill="none" stroke="black" d="M2486.6,-760.6C2486.6,-760.6 2572.6,-760.6 2572.6,-760.6 2578.6,-760.6 2584.6,-766.6 2584.6,-772.6 2584.6,-772.6 2584.6,-784.6 2584.6,-784.6 2584.6,-790.6 2578.6,-796.6 2572.6,-796.6 2572.6,-796.6 2486.6,-796.6 2486.6,-796.6 2480.6,-796.6 2474.6,-790.6 2474.6,-784.6 2474.6,-784.6 2474.6,-772.6 2474.6,-772.6 2474.6,-766.6 2480.6,-760.6 2486.6,-760.6"/>
<text text-anchor="middle" x="2529.6" y="-774.9" font-family="Times,serif" font-size="14.00">PostCreating</text>
</g>
<!-- PostCreating&#45;&gt;CreatingFailed -->
<g id="edge18" class="edge">
<title>PostCreating&#45;&gt;CreatingFailed</title>
<path fill="none" stroke="black" d="M2474.25,-772.65C2424.25,-770.7 2352.96,-777.18 2315.6,-823.1 2272.2,-876.46 2380.28,-900.16 2458.14,-910.08"/>
<polygon fill="black" stroke="black" points="2458.08,-913.59 2468.43,-911.33 2458.93,-906.65 2458.08,-913.59"/>
<text text-anchor="middle" x="2359.6" y="-826.9" font-family="Times,serif" font-size="14.00">PostCreatingFailure</text>
</g>
<!-- PostCreating&#45;&gt;Unknown -->
<g id="edge19" class="edge">
<title>PostCreating&#45;&gt;Unknown</title>
<path fill="none" stroke="black" d="M2584.79,-766.64C2637.55,-754.41 2713.48,-735.06 2739.6,-719.6 2769,-702.21 2795.55,-673.16 2812.58,-651.95"/>
<polygon fill="black" stroke="black" points="2815.43,-653.99 2818.85,-643.97 2809.92,-649.67 2815.43,-653.99"/>
<text text-anchor="middle" x="2674.1" y="-763.4" font-family="Times,serif" font-size="14.00">Unknown</text>
</g>
<!-- Started -->
<g id="node22" class="node">
<title>Started</title>
<path fill="none" stroke="black" d="M3103.1,-986.6C3103.1,-986.6 3150.1,-986.6 3150.1,-986.6 3156.1,-986.6 3162.1,-992.6 3162.1,-998.6 3162.1,-998.6 3162.1,-1010.6 3162.1,-1010.6 3162.1,-1016.6 3156.1,-1022.6 3150.1,-1022.6 3150.1,-1022.6 3103.1,-1022.6 3103.1,-1022.6 3097.1,-1022.6 3091.1,-1016.6 3091.1,-1010.6 3091.1,-1010.6 3091.1,-998.6 3091.1,-998.6 3091.1,-992.6 3097.1,-986.6 3103.1,-986.6"/>
<text text-anchor="middle" x="3126.6" y="-1000.9" font-family="Times,serif" font-size="14.00">Started</text>
</g>
<!-- PostCreating&#45;&gt;Started -->
<g id="edge20" class="edge">
<title>PostCreating&#45;&gt;Started</title>
<path fill="none" stroke="black" d="M2584.62,-794.96C2587.58,-797.19 2590.28,-799.73 2592.6,-802.6 2621.65,-838.69 2576.42,-872.28 2608.6,-905.6 2612.75,-909.9 2955.91,-973.39 3080.79,-996.37"/>
<polygon fill="black" stroke="black" points="3080.33,-999.85 3090.8,-998.21 3081.59,-992.96 3080.33,-999.85"/>
<text text-anchor="middle" x="2833.1" y="-966.4" font-family="Times,serif" font-size="14.00">PostCreatingSuccess</text>
</g>
<!-- PreCreating -->
<g id="node12" class="node">
<title>PreCreating</title>
<path fill="none" stroke="black" d="M52.6,-760.6C52.6,-760.6 132.6,-760.6 132.6,-760.6 138.6,-760.6 144.6,-766.6 144.6,-772.6 144.6,-772.6 144.6,-784.6 144.6,-784.6 144.6,-790.6 138.6,-796.6 132.6,-796.6 132.6,-796.6 52.6,-796.6 52.6,-796.6 46.6,-796.6 40.6,-790.6 40.6,-784.6 40.6,-784.6 40.6,-772.6 40.6,-772.6 40.6,-766.6 46.6,-760.6 52.6,-760.6"/>
<text text-anchor="middle" x="92.6" y="-774.9" font-family="Times,serif" font-size="14.00">PreCreating</text>
</g>
<!-- CreatingFailed&#45;&gt;PreCreating -->
<g id="edge21" class="edge">
<title>CreatingFailed&#45;&gt;PreCreating</title>
<path fill="none" stroke="black" d="M2513.16,-934.77C2499.58,-951.6 2480.23,-977.85 2468.6,-1003.6 2455.02,-1033.66 2475.68,-1054.18 2450.6,-1075.6 2358.5,-1154.29 2300.24,-1099.6 2179.1,-1099.6 393.1,-1099.6 393.1,-1099.6 393.1,-1099.6 290.1,-1099.6 239.82,-1143.76 162.6,-1075.6 122.37,-1040.1 102.59,-874.59 96.1,-807.23"/>
<polygon fill="black" stroke="black" points="99.55,-806.57 95.13,-796.94 92.58,-807.22 99.55,-806.57"/>
<text text-anchor="middle" x="1230.6" y="-1103.4" font-family="Times,serif" font-size="14.00">CreatingRetry</text>
</g>
<!-- CreatingFailed&#45;&gt;Unknown -->
<g id="edge22" class="edge">
<title>CreatingFailed&#45;&gt;Unknown</title>
<path fill="none" stroke="black" d="M2548.75,-898.5C2563.73,-884.39 2586.11,-865.15 2608.6,-852.6 2662.36,-822.6 2699.48,-854.29 2739.6,-807.6 2768.75,-773.68 2737.92,-748.76 2757.6,-708.6 2768.44,-686.49 2786.9,-665.86 2802.73,-650.7"/>
<polygon fill="black" stroke="black" points="2805.3,-653.09 2810.24,-643.72 2800.54,-647.96 2805.3,-653.09"/>
<text text-anchor="middle" x="2674.1" y="-856.4" font-family="Times,serif" font-size="14.00">Unknown</text>
</g>
<!-- Pausing -->
<g id="node6" class="node">
<title>Pausing</title>
<path fill="none" stroke="black" d="M2505.1,-1071.6C2505.1,-1071.6 2554.1,-1071.6 2554.1,-1071.6 2560.1,-1071.6 2566.1,-1077.6 2566.1,-1083.6 2566.1,-1083.6 2566.1,-1095.6 2566.1,-1095.6 2566.1,-1101.6 2560.1,-1107.6 2554.1,-1107.6 2554.1,-1107.6 2505.1,-1107.6 2505.1,-1107.6 2499.1,-1107.6 2493.1,-1101.6 2493.1,-1095.6 2493.1,-1095.6 2493.1,-1083.6 2493.1,-1083.6 2493.1,-1077.6 2499.1,-1071.6 2505.1,-1071.6"/>
<text text-anchor="middle" x="2529.6" y="-1085.9" font-family="Times,serif" font-size="14.00">Pausing</text>
</g>
<!-- Pausing&#45;&gt;Unknown -->
<g id="edge57" class="edge">
<title>Pausing&#45;&gt;Unknown</title>
<path fill="none" stroke="black" d="M2566.32,-1080.91C2620.28,-1066.99 2718.53,-1038.35 2739.6,-1009.6 2779.21,-955.56 2731.78,-770.44 2757.6,-708.6 2767.03,-686.03 2785.29,-665.52 2801.38,-650.54"/>
<polygon fill="black" stroke="black" points="2803.95,-652.93 2809.05,-643.65 2799.27,-647.73 2803.95,-652.93"/>
<text text-anchor="middle" x="2674.1" y="-1071.4" font-family="Times,serif" font-size="14.00">PausingFailure</text>
</g>
<!-- Pausing&#45;&gt;Unknown -->
<g id="edge58" class="edge">
<title>Pausing&#45;&gt;Unknown</title>
<path fill="none" stroke="black" d="M2566.2,-1080.69C2576.01,-1076.64 2585.8,-1070.85 2592.6,-1062.6 2613.45,-1037.31 2584.82,-1013.17 2608.6,-990.6 2651.42,-949.96 2699.93,-1012.33 2739.6,-968.6 2778.51,-925.71 2735.03,-761.94 2757.6,-708.6 2767.13,-686.08 2785.4,-665.57 2801.46,-650.58"/>
<polygon fill="black" stroke="black" points="2804.03,-652.97 2809.12,-643.67 2799.34,-647.77 2804.03,-652.97"/>
<text text-anchor="middle" x="2674.1" y="-994.4" font-family="Times,serif" font-size="14.00">Unknown</text>
</g>
<!-- Paused -->
<g id="node19" class="node">
<title>Paused</title>
<path fill="none" stroke="black" d="M3104.6,-688.6C3104.6,-688.6 3148.6,-688.6 3148.6,-688.6 3154.6,-688.6 3160.6,-694.6 3160.6,-700.6 3160.6,-700.6 3160.6,-712.6 3160.6,-712.6 3160.6,-718.6 3154.6,-724.6 3148.6,-724.6 3148.6,-724.6 3104.6,-724.6 3104.6,-724.6 3098.6,-724.6 3092.6,-718.6 3092.6,-712.6 3092.6,-712.6 3092.6,-700.6 3092.6,-700.6 3092.6,-694.6 3098.6,-688.6 3104.6,-688.6"/>
<text text-anchor="middle" x="3126.6" y="-702.9" font-family="Times,serif" font-size="14.00">Paused</text>
</g>
<!-- Pausing&#45;&gt;Paused -->
<g id="edge56" class="edge">
<title>Pausing&#45;&gt;Paused</title>
<path fill="none" stroke="black" d="M2566.1,-1103.22C2575.06,-1107.3 2584.45,-1112.16 2592.6,-1117.6 2600.71,-1123.02 2599.54,-1129.02 2608.6,-1132.6 2662.74,-1154.01 2696.76,-1172.03 2739.6,-1132.6 2775.04,-1099.99 2724.08,-951.19 2757.6,-916.6 2806.32,-866.33 3016.58,-925.15 3070.6,-880.6 3114.17,-844.68 3123.73,-774.43 3125.52,-735.07"/>
<polygon fill="black" stroke="black" points="3129.02,-734.94 3125.84,-724.84 3122.03,-734.72 3129.02,-734.94"/>
<text text-anchor="middle" x="2833.1" y="-920.4" font-family="Times,serif" font-size="14.00">PausingSuccess</text>
</g>
<!-- Migrating -->
<g id="node7" class="node">
<title>Migrating</title>
<path fill="none" stroke="black" d="M2497.6,-1126.6C2497.6,-1126.6 2561.6,-1126.6 2561.6,-1126.6 2567.6,-1126.6 2573.6,-1132.6 2573.6,-1138.6 2573.6,-1138.6 2573.6,-1150.6 2573.6,-1150.6 2573.6,-1156.6 2567.6,-1162.6 2561.6,-1162.6 2561.6,-1162.6 2497.6,-1162.6 2497.6,-1162.6 2491.6,-1162.6 2485.6,-1156.6 2485.6,-1150.6 2485.6,-1150.6 2485.6,-1138.6 2485.6,-1138.6 2485.6,-1132.6 2491.6,-1126.6 2497.6,-1126.6"/>
<text text-anchor="middle" x="2529.6" y="-1140.9" font-family="Times,serif" font-size="14.00">Migrating</text>
</g>
<!-- Migrating&#45;&gt;Unknown -->
<g id="edge59" class="edge">
<title>Migrating&#45;&gt;Unknown</title>
<path fill="none" stroke="black" d="M2573.72,-1146.28C2622.45,-1145.57 2700.13,-1136.04 2739.6,-1086.6 2765.84,-1053.75 2741.63,-747.5 2757.6,-708.6 2766.89,-685.97 2785.15,-665.47 2801.27,-650.5"/>
<polygon fill="black" stroke="black" points="2803.85,-652.89 2808.96,-643.61 2799.18,-647.67 2803.85,-652.89"/>
<text text-anchor="middle" x="2674.1" y="-1147.4" font-family="Times,serif" font-size="14.00">MigratingFailure</text>
</g>
<!-- Migrating&#45;&gt;Unknown -->
<g id="edge60" class="edge">
<title>Migrating&#45;&gt;Unknown</title>
<path fill="none" stroke="black" d="M2567.53,-1162.65C2614.24,-1182.56 2694.04,-1206.39 2739.6,-1162.6 2776,-1127.62 2738.61,-755.38 2757.6,-708.6 2766.74,-686.09 2784.81,-665.71 2800.87,-650.78"/>
<polygon fill="black" stroke="black" points="2803.43,-653.18 2808.54,-643.9 2798.76,-647.97 2803.43,-653.18"/>
<text text-anchor="middle" x="2674.1" y="-1190.4" font-family="Times,serif" font-size="14.00">Unknown</text>
</g>
<!-- Migrating&#45;&gt;Started -->
<g id="edge61" class="edge">
<title>Migrating&#45;&gt;Started</title>
<path fill="none" stroke="black" d="M2546.82,-1162.7C2561.33,-1177.44 2584.06,-1197.15 2608.6,-1205.6 2735.42,-1249.3 2782.92,-1219.48 2908.6,-1172.6 2986.39,-1143.59 3008.71,-1134.94 3070.6,-1079.6 3086.2,-1065.66 3100.09,-1046.62 3110.02,-1031.21"/>
<polygon fill="black" stroke="black" points="3113.05,-1032.96 3115.38,-1022.62 3107.12,-1029.25 3113.05,-1032.96"/>
<text text-anchor="middle" x="2833.1" y="-1226.4" font-family="Times,serif" font-size="14.00">MigratingSuccess</text>
</g>
<!-- Stopping -->
<g id="node8" class="node">
<title>Stopping</title>
<path fill="none" stroke="black" d="M2501.1,-1016.6C2501.1,-1016.6 2558.1,-1016.6 2558.1,-1016.6 2564.1,-1016.6 2570.1,-1022.6 2570.1,-1028.6 2570.1,-1028.6 2570.1,-1040.6 2570.1,-1040.6 2570.1,-1046.6 2564.1,-1052.6 2558.1,-1052.6 2558.1,-1052.6 2501.1,-1052.6 2501.1,-1052.6 2495.1,-1052.6 2489.1,-1046.6 2489.1,-1040.6 2489.1,-1040.6 2489.1,-1028.6 2489.1,-1028.6 2489.1,-1022.6 2495.1,-1016.6 2501.1,-1016.6"/>
<text text-anchor="middle" x="2529.6" y="-1030.9" font-family="Times,serif" font-size="14.00">Stopping</text>
</g>
<!-- Stopping&#45;&gt;Unknown -->
<g id="edge6" class="edge">
<title>Stopping&#45;&gt;Unknown</title>
<path fill="none" stroke="black" d="M2543.9,-1016.4C2558.08,-998.18 2582.1,-970.5 2608.6,-953.6 2660.51,-920.51 2701.62,-957.05 2739.6,-908.6 2767.13,-873.48 2739.79,-749.52 2757.6,-708.6 2767.36,-686.18 2785.63,-665.67 2801.64,-650.65"/>
<polygon fill="black" stroke="black" points="2804.21,-653.05 2809.26,-643.74 2799.5,-647.86 2804.21,-653.05"/>
<text text-anchor="middle" x="2674.1" y="-957.4" font-family="Times,serif" font-size="14.00">StoppingFailure</text>
</g>
<!-- Stopping&#45;&gt;Unknown -->
<g id="edge7" class="edge">
<title>Stopping&#45;&gt;Unknown</title>
<path fill="none" stroke="black" d="M2545.78,-1016.37C2559.66,-998.91 2579.91,-971.34 2592.6,-944.6 2603.52,-921.6 2589.58,-906.52 2608.6,-889.6 2652.71,-850.36 2698.99,-910.45 2739.6,-867.6 2764.06,-841.79 2743.03,-741.04 2757.6,-708.6 2767.62,-686.29 2785.89,-665.79 2801.83,-650.74"/>
<polygon fill="black" stroke="black" points="2804.4,-653.14 2809.43,-643.81 2799.68,-647.97 2804.4,-653.14"/>
<text text-anchor="middle" x="2674.1" y="-893.4" font-family="Times,serif" font-size="14.00">Unknown</text>
</g>
<!-- Stopping&#45;&gt;Stopped -->
<g id="edge8" class="edge">
<title>Stopping&#45;&gt;Stopped</title>
<path fill="none" stroke="black" d="M2570.25,-1034.94C2624.29,-1034.49 2716.98,-1030.18 2739.6,-1006.6 2769.73,-975.21 2730.34,-845.53 2757.6,-811.6 2849.06,-697.75 2981.85,-827.58 3070.6,-711.6 3097.77,-676.09 3080.33,-353.54 3088.6,-309.6 3093.96,-281.12 3105.12,-249.93 3113.79,-228.23"/>
<polygon fill="black" stroke="black" points="3117.15,-229.27 3117.69,-218.69 3110.67,-226.62 3117.15,-229.27"/>
<text text-anchor="middle" x="2833.1" y="-815.4" font-family="Times,serif" font-size="14.00">StoppingSuccess</text>
</g>
<!-- Templating -->
<g id="node9" class="node">
<title>Templating</title>
<path fill="none" stroke="black" d="M2493.1,-174.6C2493.1,-174.6 2566.1,-174.6 2566.1,-174.6 2572.1,-174.6 2578.1,-180.6 2578.1,-186.6 2578.1,-186.6 2578.1,-198.6 2578.1,-198.6 2578.1,-204.6 2572.1,-210.6 2566.1,-210.6 2566.1,-210.6 2493.1,-210.6 2493.1,-210.6 2487.1,-210.6 2481.1,-204.6 2481.1,-198.6 2481.1,-198.6 2481.1,-186.6 2481.1,-186.6 2481.1,-180.6 2487.1,-174.6 2493.1,-174.6"/>
<text text-anchor="middle" x="2529.6" y="-188.9" font-family="Times,serif" font-size="14.00">Templating</text>
</g>
<!-- Templating&#45;&gt;Unknown -->
<g id="edge47" class="edge">
<title>Templating&#45;&gt;Unknown</title>
<path fill="none" stroke="black" d="M2573.06,-210.78C2631,-235.96 2728.94,-280.02 2739.6,-294.6 2768.58,-334.24 2745.75,-355.95 2757.6,-403.6 2775.36,-475.04 2805.27,-556.48 2821.25,-598.04"/>
<polygon fill="black" stroke="black" points="2818.03,-599.42 2824.91,-607.48 2824.56,-596.89 2818.03,-599.42"/>
<text text-anchor="middle" x="2674.1" y="-298.4" font-family="Times,serif" font-size="14.00">TemplatingFailure</text>
</g>
<!-- Templating&#45;&gt;Unknown -->
<g id="edge48" class="edge">
<title>Templating&#45;&gt;Unknown</title>
<path fill="none" stroke="black" d="M2578.36,-180.86C2626,-172.29 2697.92,-168.39 2739.6,-209.6 2770.39,-240.04 2748.65,-361.24 2757.6,-403.6 2772.81,-475.63 2803.78,-556.83 2820.6,-598.19"/>
<polygon fill="black" stroke="black" points="2817.42,-599.66 2824.45,-607.58 2823.89,-597 2817.42,-599.66"/>
<text text-anchor="middle" x="2674.1" y="-213.4" font-family="Times,serif" font-size="14.00">Unknown</text>
</g>
<!-- Templating&#45;&gt;Stopped -->
<g id="edge46" class="edge">
<title>Templating&#45;&gt;Stopped</title>
<path fill="none" stroke="black" d="M2578.25,-177.28C2583.73,-173.85 2588.73,-169.67 2592.6,-164.6 2619.93,-128.84 2574.35,-93.81 2608.6,-64.6 2652.9,-26.83 2681.9,-56.82 2739.6,-64.6 2890.8,-85.01 2935.06,-85.55 3070.6,-155.6 3080.84,-160.89 3090.93,-168.31 3099.61,-175.61"/>
<polygon fill="black" stroke="black" points="3097.33,-178.26 3107.16,-182.2 3101.93,-172.99 3097.33,-178.26"/>
<text text-anchor="middle" x="2833.1" y="-95.4" font-family="Times,serif" font-size="14.00">TemplatingSuccess</text>
</g>
<!-- Deleting -->
<g id="node10" class="node">
<title>Deleting</title>
<path fill="none" stroke="black" d="M2503.1,-229.6C2503.1,-229.6 2556.1,-229.6 2556.1,-229.6 2562.1,-229.6 2568.1,-235.6 2568.1,-241.6 2568.1,-241.6 2568.1,-253.6 2568.1,-253.6 2568.1,-259.6 2562.1,-265.6 2556.1,-265.6 2556.1,-265.6 2503.1,-265.6 2503.1,-265.6 2497.1,-265.6 2491.1,-259.6 2491.1,-253.6 2491.1,-253.6 2491.1,-241.6 2491.1,-241.6 2491.1,-235.6 2497.1,-229.6 2503.1,-229.6"/>
<text text-anchor="middle" x="2529.6" y="-243.9" font-family="Times,serif" font-size="14.00">Deleting</text>
</g>
<!-- Deleting&#45;&gt;Unknown -->
<g id="edge10" class="edge">
<title>Deleting&#45;&gt;Unknown</title>
<path fill="none" stroke="black" d="M2568.25,-257.25C2577.4,-261.25 2586.33,-266.84 2592.6,-274.6 2615.36,-302.83 2584.35,-327.64 2608.6,-354.6 2649.39,-399.96 2694.79,-354.2 2739.6,-395.6 2799.11,-450.59 2821.12,-549.09 2828.6,-597.36"/>
<polygon fill="black" stroke="black" points="2825.16,-598.02 2830.06,-607.42 2832.08,-597.02 2825.16,-598.02"/>
<text text-anchor="middle" x="2674.1" y="-399.4" font-family="Times,serif" font-size="14.00">DeletingFailure</text>
</g>
<!-- Deleting&#45;&gt;Unknown -->
<g id="edge11" class="edge">
<title>Deleting&#45;&gt;Unknown</title>
<path fill="none" stroke="black" d="M2568.26,-258.53C2577.08,-262.48 2585.87,-267.72 2592.6,-274.6 2605.71,-287.99 2593.96,-301.91 2608.6,-313.6 2654.73,-350.45 2695.97,-295.83 2739.6,-335.6 2762.7,-356.67 2748.62,-373.66 2757.6,-403.6 2778.79,-474.29 2807.39,-556.36 2822.24,-598.12"/>
<polygon fill="black" stroke="black" points="2818.96,-599.36 2825.62,-607.6 2825.55,-597.01 2818.96,-599.36"/>
<text text-anchor="middle" x="2674.1" y="-339.4" font-family="Times,serif" font-size="14.00">Unknown</text>
</g>
<!-- Deleted -->
<g id="node21" class="node">
<title>Deleted</title>
<path fill="none" stroke="black" d="M3102.6,-319.6C3102.6,-319.6 3150.6,-319.6 3150.6,-319.6 3156.6,-319.6 3162.6,-325.6 3162.6,-331.6 3162.6,-331.6 3162.6,-343.6 3162.6,-343.6 3162.6,-349.6 3156.6,-355.6 3150.6,-355.6 3150.6,-355.6 3102.6,-355.6 3102.6,-355.6 3096.6,-355.6 3090.6,-349.6 3090.6,-343.6 3090.6,-343.6 3090.6,-331.6 3090.6,-331.6 3090.6,-325.6 3096.6,-319.6 3102.6,-319.6"/>
<text text-anchor="middle" x="3126.6" y="-333.9" font-family="Times,serif" font-size="14.00">Deleted</text>
</g>
<!-- Deleting&#45;&gt;Deleted -->
<g id="edge9" class="edge">
<title>Deleting&#45;&gt;Deleted</title>
<path fill="none" stroke="black" d="M2568.27,-261.79C2576.54,-265.51 2585.06,-269.83 2592.6,-274.6 2600.58,-279.66 2599.86,-285.01 2608.6,-288.6 2703.74,-327.68 2970.06,-294.9 3070.6,-316.6 3074,-317.34 3077.47,-318.25 3080.93,-319.27"/>
<polygon fill="black" stroke="black" points="3079.99,-322.65 3090.58,-322.42 3082.16,-315.99 3079.99,-322.65"/>
<text text-anchor="middle" x="2833.1" y="-313.4" font-family="Times,serif" font-size="14.00">DeletingSuccess</text>
</g>
<!-- Starting -->
<g id="node11" class="node">
<title>Starting</title>
<path fill="none" stroke="black" d="M2503.6,-284.6C2503.6,-284.6 2555.6,-284.6 2555.6,-284.6 2561.6,-284.6 2567.6,-290.6 2567.6,-296.6 2567.6,-296.6 2567.6,-308.6 2567.6,-308.6 2567.6,-314.6 2561.6,-320.6 2555.6,-320.6 2555.6,-320.6 2503.6,-320.6 2503.6,-320.6 2497.6,-320.6 2491.6,-314.6 2491.6,-308.6 2491.6,-308.6 2491.6,-296.6 2491.6,-296.6 2491.6,-290.6 2497.6,-284.6 2503.6,-284.6"/>
<text text-anchor="middle" x="2529.6" y="-298.9" font-family="Times,serif" font-size="14.00">Starting</text>
</g>
<!-- Starting&#45;&gt;Unknown -->
<g id="edge63" class="edge">
<title>Starting&#45;&gt;Unknown</title>
<path fill="none" stroke="black" d="M2534.51,-320.8C2542.44,-352.98 2563.62,-419.63 2608.6,-452.6 2656.28,-487.55 2690.68,-442.42 2739.6,-475.6 2783.5,-505.38 2810.37,-563.63 2823.13,-598.12"/>
<polygon fill="black" stroke="black" points="2819.85,-599.35 2826.51,-607.59 2826.45,-597 2819.85,-599.35"/>
<text text-anchor="middle" x="2674.1" y="-479.4" font-family="Times,serif" font-size="14.00">StartingFailure</text>
</g>
<!-- Starting&#45;&gt;Unknown -->
<g id="edge64" class="edge">
<title>Starting&#45;&gt;Unknown</title>
<path fill="none" stroke="black" d="M2537.73,-320.86C2548.76,-346.44 2572.51,-392.32 2608.6,-414.6 2658.65,-445.52 2692.16,-398.8 2739.6,-433.6 2794.19,-473.65 2818,-554.55 2827.14,-597.43"/>
<polygon fill="black" stroke="black" points="2823.76,-598.36 2829.16,-607.47 2830.62,-596.98 2823.76,-598.36"/>
<text text-anchor="middle" x="2674.1" y="-437.4" font-family="Times,serif" font-size="14.00">Unknown</text>
</g>
<!-- Starting&#45;&gt;Started -->
<g id="edge62" class="edge">
<title>Starting&#45;&gt;Started</title>
<path fill="none" stroke="black" d="M2554.35,-320.6C2569.22,-331.07 2589.19,-343.72 2608.6,-351.6 2663.76,-374 2684.9,-356.1 2739.6,-379.6 2903.49,-450.03 2976.83,-454.85 3070.6,-606.6 3071.21,-607.6 3109.34,-885.8 3121.74,-976.43"/>
<polygon fill="black" stroke="black" points="3118.3,-977.09 3123.13,-986.52 3125.24,-976.14 3118.3,-977.09"/>
<text text-anchor="middle" x="2833.1" y="-454.4" font-family="Times,serif" font-size="14.00">StartingSuccess</text>
</g>
<!-- PreCreating&#45;&gt;CreatingFailed -->
<g id="edge35" class="edge">
<title>PreCreating&#45;&gt;CreatingFailed</title>
<path fill="none" stroke="black" d="M101.73,-796.74C131.1,-859.2 238.22,-1061.6 393.1,-1061.6 393.1,-1061.6 393.1,-1061.6 2179.1,-1061.6 2303.18,-1061.6 2342.71,-1057.88 2450.6,-996.6 2474.08,-983.27 2495.09,-960.78 2509.37,-943.03"/>
<polygon fill="black" stroke="black" points="2512.43,-944.8 2515.83,-934.76 2506.91,-940.49 2512.43,-944.8"/>
<text text-anchor="middle" x="1230.6" y="-1065.4" font-family="Times,serif" font-size="14.00">PreCreatingFailure</text>
</g>
<!-- CreatingPreXML -->
<g id="node13" class="node">
<title>CreatingPreXML</title>
<path fill="none" stroke="black" d="M337.6,-760.6C337.6,-760.6 450.6,-760.6 450.6,-760.6 456.6,-760.6 462.6,-766.6 462.6,-772.6 462.6,-772.6 462.6,-784.6 462.6,-784.6 462.6,-790.6 456.6,-796.6 450.6,-796.6 450.6,-796.6 337.6,-796.6 337.6,-796.6 331.6,-796.6 325.6,-790.6 325.6,-784.6 325.6,-784.6 325.6,-772.6 325.6,-772.6 325.6,-766.6 331.6,-760.6 337.6,-760.6"/>
<text text-anchor="middle" x="394.1" y="-774.9" font-family="Times,serif" font-size="14.00">CreatingPreXML</text>
</g>
<!-- PreCreating&#45;&gt;CreatingPreXML -->
<g id="edge34" class="edge">
<title>PreCreating&#45;&gt;CreatingPreXML</title>
<path fill="none" stroke="black" d="M144.75,-778.6C191.6,-778.6 261.63,-778.6 315.39,-778.6"/>
<polygon fill="black" stroke="black" points="315.58,-782.1 325.58,-778.6 315.58,-775.1 315.58,-782.1"/>
<text text-anchor="middle" x="235.1" y="-782.4" font-family="Times,serif" font-size="14.00">PreCreatingSuccess</text>
</g>
<!-- PreCreating&#45;&gt;Unknown -->
<g id="edge36" class="edge">
<title>PreCreating&#45;&gt;Unknown</title>
<path fill="none" stroke="black" d="M100.4,-760.36C126.69,-693.35 228.49,-464.6 393.1,-464.6 393.1,-464.6 393.1,-464.6 2360.6,-464.6 2403.29,-464.6 2701.92,-507.53 2739.6,-527.6 2771.28,-544.48 2798.2,-576.32 2814.7,-599.13"/>
<polygon fill="black" stroke="black" points="2811.89,-601.21 2820.5,-607.38 2817.61,-597.19 2811.89,-601.21"/>
<text text-anchor="middle" x="1426.1" y="-468.4" font-family="Times,serif" font-size="14.00">Unknown</text>
</g>
<!-- CreatingPreXML&#45;&gt;CreatingXML -->
<g id="edge37" class="edge">
<title>CreatingPreXML&#45;&gt;CreatingXML</title>
<path fill="none" stroke="black" d="M462.79,-778.6C522.09,-778.6 607.7,-778.6 666.28,-778.6"/>
<polygon fill="black" stroke="black" points="666.52,-782.1 676.52,-778.6 666.52,-775.1 666.52,-782.1"/>
<text text-anchor="middle" x="569.6" y="-782.4" font-family="Times,serif" font-size="14.00">CreatingPreXMLSuccess</text>
</g>
<!-- CreatingPreXML&#45;&gt;CreatingFailed -->
<g id="edge38" class="edge">
<title>CreatingPreXML&#45;&gt;CreatingFailed</title>
<path fill="none" stroke="black" d="M407.46,-796.64C447.3,-852.46 578.76,-1018.6 731.6,-1018.6 731.6,-1018.6 731.6,-1018.6 2179.1,-1018.6 2303.18,-1018.6 2333.58,-994.86 2450.6,-953.6 2462.08,-949.55 2474.14,-944.35 2485.24,-939.13"/>
<polygon fill="black" stroke="black" points="2486.81,-942.25 2494.31,-934.76 2483.78,-935.95 2486.81,-942.25"/>
<text text-anchor="middle" x="1426.1" y="-1022.4" font-family="Times,serif" font-size="14.00">CreatingPreXMLFailure</text>
</g>
<!-- CreatingPreXML&#45;&gt;Unknown -->
<g id="edge39" class="edge">
<title>CreatingPreXML&#45;&gt;Unknown</title>
<path fill="none" stroke="black" d="M405.56,-760.4C442,-699.64 569.95,-507.6 731.6,-507.6 731.6,-507.6 731.6,-507.6 1231.6,-507.6 1327.26,-507.6 2291.12,-533.6 2450.6,-539.6 2579.1,-544.44 2619.02,-508.92 2739.6,-553.6 2766.08,-563.42 2791.03,-583.74 2808.32,-600.3"/>
<polygon fill="black" stroke="black" points="2806.14,-603.06 2815.71,-607.6 2811.05,-598.08 2806.14,-603.06"/>
<text text-anchor="middle" x="1617.6" y="-522.4" font-family="Times,serif" font-size="14.00">Unknown</text>
</g>
<!-- CreatingPreDisk&#45;&gt;CreatingFailed -->
<g id="edge41" class="edge">
<title>CreatingPreDisk&#45;&gt;CreatingFailed</title>
<path fill="none" stroke="black" d="M1493.77,-791.21C1505.69,-793.39 1518.01,-795.6 1529.6,-797.6 1785.07,-841.68 1848.19,-858.83 2105.6,-889.6 2177.76,-898.23 2196.09,-897.76 2268.6,-902.6 2332.77,-906.89 2405.91,-910.73 2458.24,-913.31"/>
<polygon fill="black" stroke="black" points="2458.26,-916.81 2468.42,-913.8 2458.6,-909.82 2458.26,-916.81"/>
<text text-anchor="middle" x="2003.1" y="-890.4" font-family="Times,serif" font-size="14.00">CreatingPreDiskFailure</text>
</g>
<!-- CreatingPreDisk&#45;&gt;Unknown -->
<g id="edge42" class="edge">
<title>CreatingPreDisk&#45;&gt;Unknown</title>
<path fill="none" stroke="black" d="M1493.62,-772.41C1553.7,-766.84 1644.56,-758.51 1723.6,-751.6 1893.33,-736.77 1935.82,-733.81 2105.6,-719.6 2246.49,-707.81 2602.63,-701.62 2739.6,-666.6 2756.37,-662.32 2773.94,-655.25 2789.2,-648.19"/>
<polygon fill="black" stroke="black" points="2790.86,-651.27 2798.38,-643.81 2787.85,-644.96 2790.86,-651.27"/>
<text text-anchor="middle" x="2178.1" y="-723.4" font-family="Times,serif" font-size="14.00">Unknown</text>
</g>
<!-- CreatingDisk -->
<g id="node17" class="node">
<title>CreatingDisk</title>
<path fill="none" stroke="black" d="M1769.1,-760.6C1769.1,-760.6 1855.1,-760.6 1855.1,-760.6 1861.1,-760.6 1867.1,-766.6 1867.1,-772.6 1867.1,-772.6 1867.1,-784.6 1867.1,-784.6 1867.1,-790.6 1861.1,-796.6 1855.1,-796.6 1855.1,-796.6 1769.1,-796.6 1769.1,-796.6 1763.1,-796.6 1757.1,-790.6 1757.1,-784.6 1757.1,-784.6 1757.1,-772.6 1757.1,-772.6 1757.1,-766.6 1763.1,-760.6 1769.1,-760.6"/>
<text text-anchor="middle" x="1812.1" y="-774.9" font-family="Times,serif" font-size="14.00">CreatingDisk</text>
</g>
<!-- CreatingPreDisk&#45;&gt;CreatingDisk -->
<g id="edge40" class="edge">
<title>CreatingPreDisk&#45;&gt;CreatingDisk</title>
<path fill="none" stroke="black" d="M1493.99,-778.6C1565.16,-778.6 1676.95,-778.6 1747.03,-778.6"/>
<polygon fill="black" stroke="black" points="1747.06,-782.1 1757.06,-778.6 1747.06,-775.1 1747.06,-782.1"/>
<text text-anchor="middle" x="1617.6" y="-782.4" font-family="Times,serif" font-size="14.00">CreatingPreDiskSuccess</text>
</g>
<!-- Resuming -->
<g id="node15" class="node">
<title>Resuming</title>
<path fill="none" stroke="black" d="M2497.6,-569.6C2497.6,-569.6 2561.6,-569.6 2561.6,-569.6 2567.6,-569.6 2573.6,-575.6 2573.6,-581.6 2573.6,-581.6 2573.6,-593.6 2573.6,-593.6 2573.6,-599.6 2567.6,-605.6 2561.6,-605.6 2561.6,-605.6 2497.6,-605.6 2497.6,-605.6 2491.6,-605.6 2485.6,-599.6 2485.6,-593.6 2485.6,-593.6 2485.6,-581.6 2485.6,-581.6 2485.6,-575.6 2491.6,-569.6 2497.6,-569.6"/>
<text text-anchor="middle" x="2529.6" y="-583.9" font-family="Times,serif" font-size="14.00">Resuming</text>
</g>
<!-- Resuming&#45;&gt;Unknown -->
<g id="edge44" class="edge">
<title>Resuming&#45;&gt;Unknown</title>
<path fill="none" stroke="black" d="M2573.78,-597.3C2585.07,-599.6 2597.26,-601.89 2608.6,-603.6 2667.25,-612.48 2735.13,-618.58 2780.56,-622.06"/>
<polygon fill="black" stroke="black" points="2780.51,-625.57 2790.75,-622.83 2781.04,-618.59 2780.51,-625.57"/>
<text text-anchor="middle" x="2674.1" y="-622.4" font-family="Times,serif" font-size="14.00">ResumingFailure</text>
</g>
<!-- Resuming&#45;&gt;Unknown -->
<g id="edge45" class="edge">
<title>Resuming&#45;&gt;Unknown</title>
<path fill="none" stroke="black" d="M2573.97,-581.45C2616.62,-576.68 2683.33,-572.69 2739.6,-584.6 2757.1,-588.31 2775.32,-595.56 2790.92,-602.94"/>
<polygon fill="black" stroke="black" points="2789.74,-606.26 2800.26,-607.53 2792.82,-599.98 2789.74,-606.26"/>
<text text-anchor="middle" x="2674.1" y="-588.4" font-family="Times,serif" font-size="14.00">Unknown</text>
</g>
<!-- Resuming&#45;&gt;Started -->
<g id="edge43" class="edge">
<title>Resuming&#45;&gt;Started</title>
<path fill="none" stroke="black" d="M2537.6,-605.89C2555.48,-652.45 2601.91,-772.25 2608.6,-778.6 2710.23,-875.08 2797.9,-789.69 2908.6,-875.6 2920.88,-885.14 2914.77,-895.51 2926.6,-905.6 2979.08,-950.4 3010.44,-929.82 3070.6,-963.6 3079.23,-968.45 3088.06,-974.47 3096.04,-980.4"/>
<polygon fill="black" stroke="black" points="3093.94,-983.19 3104.01,-986.48 3098.18,-977.63 3093.94,-983.19"/>
<text text-anchor="middle" x="2833.1" y="-879.4" font-family="Times,serif" font-size="14.00">ResumingSuccess</text>
</g>
<!-- Unknown&#45;&gt;Paused -->
<g id="edge51" class="edge">
<title>Unknown&#45;&gt;Paused</title>
<path fill="none" stroke="black" d="M2875.24,-617.08C2924.64,-609.04 3008.59,-602.46 3070.6,-634.6 3089.16,-644.23 3103.27,-663.26 3112.56,-679.35"/>
<polygon fill="black" stroke="black" points="3109.61,-681.26 3117.46,-688.38 3115.77,-677.92 3109.61,-681.26"/>
<text text-anchor="middle" x="2998.6" y="-638.4" font-family="Times,serif" font-size="14.00">UnknownToPaused</text>
</g>
<!-- Unknown&#45;&gt;Stopped -->
<g id="edge52" class="edge">
<title>Unknown&#45;&gt;Stopped</title>
<path fill="none" stroke="black" d="M2839.85,-607.49C2857.33,-552.86 2909.61,-392.42 2926.6,-374.6 2974.56,-324.3 3020.18,-361.45 3070.6,-313.6 3095.22,-290.24 3110.23,-253.54 3118.21,-228.34"/>
<polygon fill="black" stroke="black" points="3121.6,-229.23 3121.12,-218.65 3114.9,-227.22 3121.6,-229.23"/>
<text text-anchor="middle" x="2998.6" y="-378.4" font-family="Times,serif" font-size="14.00">UnknownToStopped</text>
</g>
<!-- Unknown&#45;&gt;Deleted -->
<g id="edge49" class="edge">
<title>Unknown&#45;&gt;Deleted</title>
<path fill="none" stroke="black" d="M2852.33,-607.59C2902.43,-558.09 3042.29,-419.91 3100.1,-362.8"/>
<polygon fill="black" stroke="black" points="3102.72,-365.13 3107.37,-355.61 3097.8,-360.15 3102.72,-365.13"/>
<text text-anchor="middle" x="2998.6" y="-536.4" font-family="Times,serif" font-size="14.00">UnknownToDeleted</text>
</g>
<!-- Unknown&#45;&gt;Started -->
<g id="edge50" class="edge">
<title>Unknown&#45;&gt;Started</title>
<path fill="none" stroke="black" d="M2853.6,-643.68C2896.83,-684.5 3002.32,-788.27 3070.6,-890.6 3089.06,-918.27 3104.92,-953.08 3114.8,-976.91"/>
<polygon fill="black" stroke="black" points="3111.65,-978.45 3118.66,-986.4 3118.13,-975.81 3111.65,-978.45"/>
<text text-anchor="middle" x="2998.6" y="-894.4" font-family="Times,serif" font-size="14.00">UnknownToStarted</text>
</g>
<!-- CreatingDisk&#45;&gt;CreatingFailed -->
<g id="edge54" class="edge">
<title>CreatingDisk&#45;&gt;CreatingFailed</title>
<path fill="none" stroke="black" d="M1867.21,-791.56C1952.3,-811.67 2122.74,-850.84 2268.6,-877.6 2303.92,-884.08 2394.03,-897.33 2458.24,-906.58"/>
<polygon fill="black" stroke="black" points="2457.92,-910.07 2468.31,-908.02 2458.91,-903.14 2457.92,-910.07"/>
<text text-anchor="middle" x="2178.1" y="-877.4" font-family="Times,serif" font-size="14.00">CreatingDiskFailure</text>
</g>
<!-- CreatingDisk&#45;&gt;Unknown -->
<g id="edge55" class="edge">
<title>CreatingDisk&#45;&gt;Unknown</title>
<path fill="none" stroke="black" d="M1867.28,-773.57C1925.99,-768.12 2022.44,-759.2 2105.6,-751.6 2322.03,-731.84 2376.34,-729.14 2592.6,-707.6 2658,-701.09 2678.19,-715 2739.6,-691.6 2763.84,-682.37 2787.58,-665.21 2804.94,-650.7"/>
<polygon fill="black" stroke="black" points="2807.62,-653.01 2812.93,-643.84 2803.06,-647.7 2807.62,-653.01"/>
<text text-anchor="middle" x="2359.6" y="-740.4" font-family="Times,serif" font-size="14.00">Unknown</text>
</g>
<!-- CreatingPostDisk -->
<g id="node18" class="node">
<title>CreatingPostDisk</title>
<path fill="none" stroke="black" d="M2119.6,-760.6C2119.6,-760.6 2236.6,-760.6 2236.6,-760.6 2242.6,-760.6 2248.6,-766.6 2248.6,-772.6 2248.6,-772.6 2248.6,-784.6 2248.6,-784.6 2248.6,-790.6 2242.6,-796.6 2236.6,-796.6 2236.6,-796.6 2119.6,-796.6 2119.6,-796.6 2113.6,-796.6 2107.6,-790.6 2107.6,-784.6 2107.6,-784.6 2107.6,-772.6 2107.6,-772.6 2107.6,-766.6 2113.6,-760.6 2119.6,-760.6"/>
<text text-anchor="middle" x="2178.1" y="-774.9" font-family="Times,serif" font-size="14.00">CreatingPostDisk</text>
</g>
<!-- CreatingDisk&#45;&gt;CreatingPostDisk -->
<g id="edge53" class="edge">
<title>CreatingDisk&#45;&gt;CreatingPostDisk</title>
<path fill="none" stroke="black" d="M1867.2,-778.6C1928.08,-778.6 2027.55,-778.6 2097.34,-778.6"/>
<polygon fill="black" stroke="black" points="2097.42,-782.1 2107.42,-778.6 2097.42,-775.1 2097.42,-782.1"/>
<text text-anchor="middle" x="2003.1" y="-782.4" font-family="Times,serif" font-size="14.00">CreatingDiskSuccess</text>
</g>
<!-- CreatingPostDisk&#45;&gt;PostCreating -->
<g id="edge1" class="edge">
<title>CreatingPostDisk&#45;&gt;PostCreating</title>
<path fill="none" stroke="black" d="M2248.99,-778.6C2311.79,-778.6 2403.26,-778.6 2464.29,-778.6"/>
<polygon fill="black" stroke="black" points="2464.56,-782.1 2474.56,-778.6 2464.56,-775.1 2464.56,-782.1"/>
<text text-anchor="middle" x="2359.6" y="-782.4" font-family="Times,serif" font-size="14.00">CreatingPostDiskSuccess</text>
</g>
<!-- CreatingPostDisk&#45;&gt;CreatingFailed -->
<g id="edge2" class="edge">
<title>CreatingPostDisk&#45;&gt;CreatingFailed</title>
<path fill="none" stroke="black" d="M2199.55,-796.75C2216.73,-810.9 2242.57,-829.75 2268.6,-839.6 2344.85,-868.48 2374.46,-833.45 2450.6,-862.6 2468.6,-869.49 2486.44,-881.37 2500.51,-892.23"/>
<polygon fill="black" stroke="black" points="2498.33,-894.97 2508.33,-898.47 2502.69,-889.5 2498.33,-894.97"/>
<text text-anchor="middle" x="2359.6" y="-866.4" font-family="Times,serif" font-size="14.00">CreatingPostDiskFailure</text>
</g>
<!-- CreatingPostDisk&#45;&gt;Unknown -->
<g id="edge3" class="edge">
<title>CreatingPostDisk&#45;&gt;Unknown</title>
<path fill="none" stroke="black" d="M2248.87,-791C2255.53,-791.97 2262.18,-792.86 2268.6,-793.6 2411.76,-810.21 2449.12,-820.15 2592.6,-806.6 2625.71,-803.48 2716.07,-802.11 2739.6,-778.6 2769.69,-748.54 2735.54,-720.98 2757.6,-684.6 2765.95,-670.83 2778.77,-658.98 2791.43,-649.6"/>
<polygon fill="black" stroke="black" points="2793.51,-652.41 2799.67,-643.79 2789.48,-646.68 2793.51,-652.41"/>
<text text-anchor="middle" x="2529.6" y="-816.4" font-family="Times,serif" font-size="14.00">Unknown</text>
</g>
<!-- Paused&#45;&gt;Resuming -->
<g id="edge4" class="edge">
<title>Paused&#45;&gt;Resuming</title>
<path fill="none" stroke="black" d="M3092.38,-710.25C3052.76,-713.95 2984.62,-718.27 2926.6,-711.6 2782.44,-695.05 2742.29,-694.02 2608.6,-637.6 2592.55,-630.83 2576.13,-620.84 2562.51,-611.57"/>
<polygon fill="black" stroke="black" points="2564.2,-608.48 2554,-605.62 2560.19,-614.22 2564.2,-608.48"/>
<text text-anchor="middle" x="2833.1" y="-713.4" font-family="Times,serif" font-size="14.00">Resume</text>
</g>
<!-- Paused&#45;&gt;Unknown -->
<g id="edge5" class="edge">
<title>Paused&#45;&gt;Unknown</title>
<path fill="none" stroke="black" d="M3092.41,-698.13C3052.83,-687.94 2984.72,-670.13 2926.6,-653.6 2913.09,-649.76 2898.53,-645.44 2885.05,-641.36"/>
<polygon fill="black" stroke="black" points="2886.04,-638 2875.45,-638.45 2884,-644.7 2886.04,-638"/>
<text text-anchor="middle" x="2998.6" y="-696.4" font-family="Times,serif" font-size="14.00">Unknown</text>
</g>
<!-- Stopped&#45;&gt;Updating -->
<g id="edge27" class="edge">
<title>Stopped&#45;&gt;Updating</title>
<path fill="none" stroke="black" d="M3121.26,-182.4C3114.56,-158.25 3099.34,-115.96 3070.6,-92.6 3012.7,-45.55 2982.37,-59.78 2908.6,-48.6 2895.2,-46.57 2628.42,-33.23 2608.6,-42.6 2579.1,-56.55 2557.01,-87.74 2544,-110.59"/>
<polygon fill="black" stroke="black" points="2540.86,-109.04 2539.15,-119.49 2547.01,-112.39 2540.86,-109.04"/>
<text text-anchor="middle" x="2833.1" y="-52.4" font-family="Times,serif" font-size="14.00">Update</text>
</g>
<!-- Stopped&#45;&gt;Templating -->
<g id="edge26" class="edge">
<title>Stopped&#45;&gt;Templating</title>
<path fill="none" stroke="black" d="M3088.45,-190.57C3082.5,-189.13 3076.4,-187.75 3070.6,-186.6 2868.96,-146.75 2811.07,-130.15 2608.6,-165.6 2600.67,-166.99 2592.47,-169.07 2584.49,-171.47"/>
<polygon fill="black" stroke="black" points="2583.37,-168.15 2574.91,-174.53 2585.5,-174.82 2583.37,-168.15"/>
<text text-anchor="middle" x="2833.1" y="-159.4" font-family="Times,serif" font-size="14.00">Template</text>
</g>
<!-- Stopped&#45;&gt;Deleting -->
<g id="edge28" class="edge">
<title>Stopped&#45;&gt;Deleting</title>
<path fill="none" stroke="black" d="M3088.27,-197.64C2976.47,-189.09 2649.52,-166.44 2608.6,-190.6 2595.92,-198.09 2603.42,-209.62 2592.6,-219.6 2588.15,-223.71 2583,-227.29 2577.6,-230.4"/>
<polygon fill="black" stroke="black" points="2575.64,-227.47 2568.38,-235.18 2578.86,-233.69 2575.64,-227.47"/>
<text text-anchor="middle" x="2833.1" y="-189.4" font-family="Times,serif" font-size="14.00">Delete</text>
</g>
<!-- Stopped&#45;&gt;Starting -->
<g id="edge29" class="edge">
<title>Stopped&#45;&gt;Starting</title>
<path fill="none" stroke="black" d="M3088.39,-206.98C2984.69,-224.76 2692.48,-274.85 2577.72,-294.53"/>
<polygon fill="black" stroke="black" points="2577.08,-291.08 2567.82,-296.22 2578.27,-297.98 2577.08,-291.08"/>
<text text-anchor="middle" x="2833.1" y="-267.4" font-family="Times,serif" font-size="14.00">Start</text>
</g>
<!-- Stopped&#45;&gt;Unknown -->
<g id="edge30" class="edge">
<title>Stopped&#45;&gt;Unknown</title>
<path fill="none" stroke="black" d="M3109.27,-218.86C3099.03,-229.36 3085.08,-242.13 3070.6,-250.6 3012.39,-284.69 2970.54,-247.42 2926.6,-298.6 2895.76,-334.53 2920.17,-357.69 2908.6,-403.6 2890.62,-474.99 2860.8,-556.45 2844.89,-598.03"/>
<polygon fill="black" stroke="black" points="2841.58,-596.88 2841.25,-607.47 2848.11,-599.4 2841.58,-596.88"/>
<text text-anchor="middle" x="2998.6" y="-302.4" font-family="Times,serif" font-size="14.00">Unknown</text>
</g>
<!-- Started&#45;&gt;Pausing -->
<g id="edge23" class="edge">
<title>Started&#45;&gt;Pausing</title>
<path fill="none" stroke="black" d="M3092.83,-1022.63C3027.84,-1057.22 2877.04,-1131.77 2739.6,-1157.6 2682.38,-1168.36 2656.81,-1190.24 2608.6,-1157.6 2592.74,-1146.87 2605.84,-1131.43 2592.6,-1117.6 2587.77,-1112.56 2581.87,-1108.35 2575.64,-1104.86"/>
<polygon fill="black" stroke="black" points="2576.88,-1101.57 2566.37,-1100.25 2573.77,-1107.84 2576.88,-1101.57"/>
<text text-anchor="middle" x="2833.1" y="-1157.4" font-family="Times,serif" font-size="14.00">Pause</text>
</g>
<!-- Started&#45;&gt;Migrating -->
<g id="edge24" class="edge">
<title>Started&#45;&gt;Migrating</title>
<path fill="none" stroke="black" d="M3124.29,-1022.96C3120.18,-1074.68 3105.68,-1219.65 3070.6,-1248.6 2912.23,-1379.3 2790.69,-1343.5 2608.6,-1248.6 2577.33,-1232.3 2555.17,-1197.16 2542.65,-1172.24"/>
<polygon fill="black" stroke="black" points="2545.66,-1170.43 2538.18,-1162.93 2539.35,-1173.46 2545.66,-1170.43"/>
<text text-anchor="middle" x="2833.1" y="-1337.4" font-family="Times,serif" font-size="14.00">Migrate</text>
</g>
<!-- Started&#45;&gt;Stopping -->
<g id="edge25" class="edge">
<title>Started&#45;&gt;Stopping</title>
<path fill="none" stroke="black" d="M3091.04,-1007.67C3023.55,-1013.51 2869.47,-1026.13 2739.6,-1031.6 2685.17,-1033.9 2622.71,-1034.53 2580.35,-1034.66"/>
<polygon fill="black" stroke="black" points="2580.29,-1031.16 2570.3,-1034.69 2580.3,-1038.16 2580.29,-1031.16"/>
<text text-anchor="middle" x="2833.1" y="-1033.4" font-family="Times,serif" font-size="14.00">Stop</text>
</g>
<!-- init -->
<g id="node23" class="node">
<title>init</title>
<ellipse fill="black" stroke="black" cx="1.8" cy="-778.6" rx="1.8" ry="1.8"/>
</g>
<!-- init&#45;&gt;PreCreating -->
<g id="edge65" class="edge">
<title>init&#45;&gt;PreCreating</title>
<path fill="none" stroke="black" d="M3.8,-778.6C6.99,-778.6 17.47,-778.6 30.14,-778.6"/>
<polygon fill="black" stroke="black" points="30.17,-782.1 40.17,-778.6 30.17,-775.1 30.17,-782.1"/>
</g>
</g>
</svg>
