<?xml version="1.0" encoding="UTF-8" standalone="no"?>
<!DOCTYPE svg PUBLIC "-//W3C//DTD SVG 1.1//EN"
 "http://www.w3.org/Graphics/SVG/1.1/DTD/svg11.dtd">
<!-- Generated by graphviz version 2.42.3 (20191010.1750)
 -->
<!-- Title: %3 Pages: 1 -->
<svg width="3173pt" height="1578pt"
 viewBox="0.00 0.00 3172.60 1577.77" xmlns="http://www.w3.org/2000/svg" xmlns:xlink="http://www.w3.org/1999/xlink">
<g id="graph0" class="graph" transform="scale(1 1) rotate(0) translate(4 1573.77)">
<title>%3</title>
<polygon fill="white" stroke="transparent" points="-4,4 -4,-1573.77 3168.6,-1573.77 3168.6,4 -4,4"/>
<g id="clust1" class="cluster">
<title>cluster_Stopped</title>
<polygon fill="none" stroke="black" points="2473.1,-1141.77 2473.1,-1383.77 2586.1,-1383.77 2586.1,-1141.77 2473.1,-1141.77"/>
<text text-anchor="middle" x="2529.6" y="-1368.57" font-family="Times,serif" font-size="14.00">Stopped</text>
</g>
<g id="clust2" class="cluster">
<title>cluster_Started</title>
<polygon fill="none" stroke="black" points="2477.6,-707.77 2477.6,-894.77 2581.6,-894.77 2581.6,-707.77 2477.6,-707.77"/>
<text text-anchor="middle" x="2529.6" y="-879.57" font-family="Times,serif" font-size="14.00">Started</text>
</g>
<g id="clust3" class="cluster">
<title>cluster_Creating</title>
<polygon fill="none" stroke="black" points="32.6,-508.77 32.6,-585.77 2592.6,-585.77 2592.6,-508.77 32.6,-508.77"/>
<text text-anchor="middle" x="1312.6" y="-570.57" font-family="Times,serif" font-size="14.00">Creating</text>
</g>
<g id="clust4" class="cluster">
<title>cluster_Paused</title>
<polygon fill="none" stroke="black" points="2477.6,-593.77 2477.6,-670.77 2581.6,-670.77 2581.6,-593.77 2477.6,-593.77"/>
<text text-anchor="middle" x="2529.6" y="-655.57" font-family="Times,serif" font-size="14.00">Paused</text>
</g>
<!-- CreatingPostXML -->
<g id="node1" class="node">
<title>CreatingPostXML</title>
<path fill="none" stroke="black" d="M989.6,-517.77C989.6,-517.77 1108.6,-517.77 1108.6,-517.77 1114.6,-517.77 1120.6,-523.77 1120.6,-529.77 1120.6,-529.77 1120.6,-541.77 1120.6,-541.77 1120.6,-547.77 1114.6,-553.77 1108.6,-553.77 1108.6,-553.77 989.6,-553.77 989.6,-553.77 983.6,-553.77 977.6,-547.77 977.6,-541.77 977.6,-541.77 977.6,-529.77 977.6,-529.77 977.6,-523.77 983.6,-517.77 989.6,-517.77"/>
<text text-anchor="middle" x="1049.1" y="-532.07" font-family="Times,serif" font-size="14.00">CreatingPostXML</text>
</g>
<!-- Unknown -->
<g id="node11" class="node">
<title>Unknown</title>
<path fill="none" stroke="black" d="M2803.1,-741.77C2803.1,-741.77 2863.1,-741.77 2863.1,-741.77 2869.1,-741.77 2875.1,-747.77 2875.1,-753.77 2875.1,-753.77 2875.1,-765.77 2875.1,-765.77 2875.1,-771.77 2869.1,-777.77 2863.1,-777.77 2863.1,-777.77 2803.1,-777.77 2803.1,-777.77 2797.1,-777.77 2791.1,-771.77 2791.1,-765.77 2791.1,-765.77 2791.1,-753.77 2791.1,-753.77 2791.1,-747.77 2797.1,-741.77 2803.1,-741.77"/>
<text text-anchor="middle" x="2833.1" y="-756.07" font-family="Times,serif" font-size="14.00">Unknown</text>
</g>
<!-- CreatingPostXML&#45;&gt;Unknown -->
<g id="edge24" class="edge">
<title>CreatingPostXML&#45;&gt;Unknown</title>
<path fill="none" stroke="black" d="M1120.92,-520.96C1326.03,-479.65 1938.55,-367.55 2450.6,-388.77 2579.38,-394.11 2647.8,-322.31 2739.6,-412.77 2768.86,-441.61 2746.91,-557.1 2757.6,-596.77 2771.09,-646.87 2798.62,-700.86 2816.17,-732.42"/>
<polygon fill="black" stroke="black" points="2813.31,-734.47 2821.27,-741.46 2819.41,-731.03 2813.31,-734.47"/>
<text text-anchor="middle" x="2003.1" y="-407.57" font-family="Times,serif" font-size="14.00">Unknown</text>
</g>
<!-- CreatingPreDisk -->
<g id="node13" class="node">
<title>CreatingPreDisk</title>
<path fill="none" stroke="black" d="M1370.6,-517.77C1370.6,-517.77 1481.6,-517.77 1481.6,-517.77 1487.6,-517.77 1493.6,-523.77 1493.6,-529.77 1493.6,-529.77 1493.6,-541.77 1493.6,-541.77 1493.6,-547.77 1487.6,-553.77 1481.6,-553.77 1481.6,-553.77 1370.6,-553.77 1370.6,-553.77 1364.6,-553.77 1358.6,-547.77 1358.6,-541.77 1358.6,-541.77 1358.6,-529.77 1358.6,-529.77 1358.6,-523.77 1364.6,-517.77 1370.6,-517.77"/>
<text text-anchor="middle" x="1426.1" y="-532.07" font-family="Times,serif" font-size="14.00">CreatingPreDisk</text>
</g>
<!-- CreatingPostXML&#45;&gt;CreatingPreDisk -->
<g id="edge22" class="edge">
<title>CreatingPostXML&#45;&gt;CreatingPreDisk</title>
<path fill="none" stroke="black" d="M1120.63,-535.77C1185.51,-535.77 1281.51,-535.77 1348.3,-535.77"/>
<polygon fill="black" stroke="black" points="1348.35,-539.27 1358.35,-535.77 1348.35,-532.27 1348.35,-539.27"/>
<text text-anchor="middle" x="1230.6" y="-539.57" font-family="Times,serif" font-size="14.00">CreatingPostXMLSuccess</text>
</g>
<!-- CreatingFailed -->
<g id="node17" class="node">
<title>CreatingFailed</title>
<path fill="none" stroke="black" d="M2480.6,-243.77C2480.6,-243.77 2578.6,-243.77 2578.6,-243.77 2584.6,-243.77 2590.6,-249.77 2590.6,-255.77 2590.6,-255.77 2590.6,-267.77 2590.6,-267.77 2590.6,-273.77 2584.6,-279.77 2578.6,-279.77 2578.6,-279.77 2480.6,-279.77 2480.6,-279.77 2474.6,-279.77 2468.6,-273.77 2468.6,-267.77 2468.6,-267.77 2468.6,-255.77 2468.6,-255.77 2468.6,-249.77 2474.6,-243.77 2480.6,-243.77"/>
<text text-anchor="middle" x="2529.6" y="-258.07" font-family="Times,serif" font-size="14.00">CreatingFailed</text>
</g>
<!-- CreatingPostXML&#45;&gt;CreatingFailed -->
<g id="edge23" class="edge">
<title>CreatingPostXML&#45;&gt;CreatingFailed</title>
<path fill="none" stroke="black" d="M1052.99,-517.64C1060.04,-480.14 1081.86,-394.33 1138.6,-355.77 1279.1,-260.29 1737.99,-343.92 1900.6,-294.77 1909.36,-292.12 1909.82,-287.37 1918.6,-284.77 2068.11,-240.52 2112.77,-266.11 2268.6,-260.77 2332.78,-258.57 2405.92,-259.13 2458.25,-260.05"/>
<polygon fill="black" stroke="black" points="2458.36,-263.56 2468.42,-260.24 2458.49,-256.56 2458.36,-263.56"/>
<text text-anchor="middle" x="1812.1" y="-315.57" font-family="Times,serif" font-size="14.00">CreatingPostXMLFailure</text>
</g>
<!-- Templating -->
<g id="node2" class="node">
<title>Templating</title>
<path fill="none" stroke="black" d="M2493.1,-1315.77C2493.1,-1315.77 2566.1,-1315.77 2566.1,-1315.77 2572.1,-1315.77 2578.1,-1321.77 2578.1,-1327.77 2578.1,-1327.77 2578.1,-1339.77 2578.1,-1339.77 2578.1,-1345.77 2572.1,-1351.77 2566.1,-1351.77 2566.1,-1351.77 2493.1,-1351.77 2493.1,-1351.77 2487.1,-1351.77 2481.1,-1345.77 2481.1,-1339.77 2481.1,-1339.77 2481.1,-1327.77 2481.1,-1327.77 2481.1,-1321.77 2487.1,-1315.77 2493.1,-1315.77"/>
<text text-anchor="middle" x="2529.6" y="-1330.07" font-family="Times,serif" font-size="14.00">Templating</text>
</g>
<!-- Templating&#45;&gt;Unknown -->
<g id="edge31" class="edge">
<title>Templating&#45;&gt;Unknown</title>
<path fill="none" stroke="black" d="M2578.32,-1349.71C2625.92,-1362.26 2697.8,-1371.6 2739.6,-1330.77 2777.38,-1293.87 2739.54,-905.41 2757.6,-855.77 2767.51,-828.54 2788.24,-802.89 2805.32,-784.96"/>
<polygon fill="black" stroke="black" points="2807.87,-787.36 2812.37,-777.77 2802.87,-782.46 2807.87,-787.36"/>
<text text-anchor="middle" x="2674.1" y="-1363.57" font-family="Times,serif" font-size="14.00">TemplatingFailure</text>
</g>
<!-- Templating&#45;&gt;Unknown -->
<g id="edge32" class="edge">
<title>Templating&#45;&gt;Unknown</title>
<path fill="none" stroke="black" d="M2578.24,-1319.45C2588.22,-1316.7 2598.72,-1313.99 2608.6,-1311.77 2637.4,-1305.31 2720.07,-1311.91 2739.6,-1289.77 2771.53,-1253.58 2741.02,-901.1 2757.6,-855.77 2767.56,-828.55 2788.28,-802.9 2805.35,-784.98"/>
<polygon fill="black" stroke="black" points="2807.9,-787.38 2812.4,-777.78 2802.9,-782.48 2807.9,-787.38"/>
<text text-anchor="middle" x="2674.1" y="-1315.57" font-family="Times,serif" font-size="14.00">Unknown</text>
</g>
<!-- Stopped -->
<g id="node20" class="node">
<title>Stopped</title>
<path fill="none" stroke="black" d="M3100.6,-1338.77C3100.6,-1338.77 3152.6,-1338.77 3152.6,-1338.77 3158.6,-1338.77 3164.6,-1344.77 3164.6,-1350.77 3164.6,-1350.77 3164.6,-1362.77 3164.6,-1362.77 3164.6,-1368.77 3158.6,-1374.77 3152.6,-1374.77 3152.6,-1374.77 3100.6,-1374.77 3100.6,-1374.77 3094.6,-1374.77 3088.6,-1368.77 3088.6,-1362.77 3088.6,-1362.77 3088.6,-1350.77 3088.6,-1350.77 3088.6,-1344.77 3094.6,-1338.77 3100.6,-1338.77"/>
<text text-anchor="middle" x="3126.6" y="-1353.07" font-family="Times,serif" font-size="14.00">Stopped</text>
</g>
<!-- Templating&#45;&gt;Stopped -->
<g id="edge30" class="edge">
<title>Templating&#45;&gt;Stopped</title>
<path fill="none" stroke="black" d="M2533.4,-1352C2539.82,-1387.28 2559.08,-1464.83 2608.6,-1503.77 2661.63,-1545.48 2690.45,-1526.3 2757.6,-1532.77 2896.62,-1546.18 2963.16,-1594.01 3070.6,-1504.77 3106.66,-1474.83 3119.08,-1418.85 3123.36,-1384.98"/>
<polygon fill="black" stroke="black" points="3126.86,-1385.15 3124.48,-1374.83 3119.91,-1384.38 3126.86,-1385.15"/>
<text text-anchor="middle" x="2833.1" y="-1558.57" font-family="Times,serif" font-size="14.00">TemplatingSuccess</text>
</g>
<!-- Updating -->
<g id="node3" class="node">
<title>Updating</title>
<path fill="none" stroke="black" d="M2500.1,-1260.77C2500.1,-1260.77 2559.1,-1260.77 2559.1,-1260.77 2565.1,-1260.77 2571.1,-1266.77 2571.1,-1272.77 2571.1,-1272.77 2571.1,-1284.77 2571.1,-1284.77 2571.1,-1290.77 2565.1,-1296.77 2559.1,-1296.77 2559.1,-1296.77 2500.1,-1296.77 2500.1,-1296.77 2494.1,-1296.77 2488.1,-1290.77 2488.1,-1284.77 2488.1,-1284.77 2488.1,-1272.77 2488.1,-1272.77 2488.1,-1266.77 2494.1,-1260.77 2500.1,-1260.77"/>
<text text-anchor="middle" x="2529.6" y="-1275.07" font-family="Times,serif" font-size="14.00">Updating</text>
</g>
<!-- Updating&#45;&gt;Unknown -->
<g id="edge53" class="edge">
<title>Updating&#45;&gt;Unknown</title>
<path fill="none" stroke="black" d="M2571.18,-1267.41C2579.2,-1263.56 2586.89,-1258.47 2592.6,-1251.77 2611.07,-1230.12 2587.7,-1209.09 2608.6,-1189.77 2652.01,-1149.65 2700.29,-1210.92 2739.6,-1166.77 2762.62,-1140.92 2745.44,-888.18 2757.6,-855.77 2767.78,-828.64 2788.49,-802.98 2805.49,-785.03"/>
<polygon fill="black" stroke="black" points="2808.04,-787.43 2812.51,-777.83 2803.03,-782.54 2808.04,-787.43"/>
<text text-anchor="middle" x="2674.1" y="-1193.57" font-family="Times,serif" font-size="14.00">UpdatingFailure</text>
</g>
<!-- Updating&#45;&gt;Unknown -->
<g id="edge54" class="edge">
<title>Updating&#45;&gt;Unknown</title>
<path fill="none" stroke="black" d="M2571.4,-1277.16C2620.21,-1272.82 2700.24,-1257.53 2739.6,-1204.77 2762.82,-1173.65 2744.08,-892.17 2757.6,-855.77 2767.69,-828.61 2788.41,-802.95 2805.44,-785.01"/>
<polygon fill="black" stroke="black" points="2807.99,-787.41 2812.47,-777.81 2802.98,-782.52 2807.99,-787.41"/>
<text text-anchor="middle" x="2674.1" y="-1274.57" font-family="Times,serif" font-size="14.00">Unknown</text>
</g>
<!-- Updating&#45;&gt;Stopped -->
<g id="edge55" class="edge">
<title>Updating&#45;&gt;Stopped</title>
<path fill="none" stroke="black" d="M2571.24,-1290.35C2579.35,-1294.37 2587.07,-1299.7 2592.6,-1306.77 2616.84,-1337.73 2578.39,-1368.61 2608.6,-1393.77 2642.6,-1422.09 2840.23,-1407.79 3070.6,-1370.77 3073.24,-1370.35 3075.95,-1369.85 3078.67,-1369.31"/>
<polygon fill="black" stroke="black" points="3079.48,-1372.72 3088.51,-1367.18 3078,-1365.88 3079.48,-1372.72"/>
<text text-anchor="middle" x="2833.1" y="-1410.57" font-family="Times,serif" font-size="14.00">UpdatingSuccess</text>
</g>
<!-- Deleting -->
<g id="node4" class="node">
<title>Deleting</title>
<path fill="none" stroke="black" d="M2503.1,-1205.77C2503.1,-1205.77 2556.1,-1205.77 2556.1,-1205.77 2562.1,-1205.77 2568.1,-1211.77 2568.1,-1217.77 2568.1,-1217.77 2568.1,-1229.77 2568.1,-1229.77 2568.1,-1235.77 2562.1,-1241.77 2556.1,-1241.77 2556.1,-1241.77 2503.1,-1241.77 2503.1,-1241.77 2497.1,-1241.77 2491.1,-1235.77 2491.1,-1229.77 2491.1,-1229.77 2491.1,-1217.77 2491.1,-1217.77 2491.1,-1211.77 2497.1,-1205.77 2503.1,-1205.77"/>
<text text-anchor="middle" x="2529.6" y="-1220.07" font-family="Times,serif" font-size="14.00">Deleting</text>
</g>
<!-- Deleting&#45;&gt;Unknown -->
<g id="edge34" class="edge">
<title>Deleting&#45;&gt;Unknown</title>
<path fill="none" stroke="black" d="M2568.17,-1213.21C2577.1,-1209.24 2585.95,-1203.9 2592.6,-1196.77 2607.08,-1181.25 2594.89,-1167.98 2608.6,-1151.77 2651.64,-1100.88 2703.55,-1134.83 2739.6,-1078.77 2766.49,-1036.96 2739.61,-902.12 2757.6,-855.77 2768.09,-828.75 2788.77,-803.09 2805.69,-785.1"/>
<polygon fill="black" stroke="black" points="2808.24,-787.51 2812.67,-777.89 2803.2,-782.64 2808.24,-787.51"/>
<text text-anchor="middle" x="2674.1" y="-1155.57" font-family="Times,serif" font-size="14.00">DeletingFailure</text>
</g>
<!-- Deleting&#45;&gt;Unknown -->
<g id="edge35" class="edge">
<title>Deleting&#45;&gt;Unknown</title>
<path fill="none" stroke="black" d="M2568.35,-1214.59C2577.61,-1210.59 2586.59,-1204.88 2592.6,-1196.77 2629.12,-1147.53 2565.86,-1103.72 2608.6,-1059.77 2649.62,-1017.6 2698.99,-1083.34 2739.6,-1040.77 2768.11,-1010.89 2742.34,-894.15 2757.6,-855.77 2768.31,-828.84 2788.98,-803.17 2805.83,-785.16"/>
<polygon fill="black" stroke="black" points="2808.38,-787.57 2812.78,-777.93 2803.33,-782.71 2808.38,-787.57"/>
<text text-anchor="middle" x="2674.1" y="-1063.57" font-family="Times,serif" font-size="14.00">Unknown</text>
</g>
<!-- Deleted -->
<g id="node21" class="node">
<title>Deleted</title>
<path fill="none" stroke="black" d="M3102.6,-1112.77C3102.6,-1112.77 3150.6,-1112.77 3150.6,-1112.77 3156.6,-1112.77 3162.6,-1118.77 3162.6,-1124.77 3162.6,-1124.77 3162.6,-1136.77 3162.6,-1136.77 3162.6,-1142.77 3156.6,-1148.77 3150.6,-1148.77 3150.6,-1148.77 3102.6,-1148.77 3102.6,-1148.77 3096.6,-1148.77 3090.6,-1142.77 3090.6,-1136.77 3090.6,-1136.77 3090.6,-1124.77 3090.6,-1124.77 3090.6,-1118.77 3096.6,-1112.77 3102.6,-1112.77"/>
<text text-anchor="middle" x="3126.6" y="-1127.07" font-family="Times,serif" font-size="14.00">Deleted</text>
</g>
<!-- Deleting&#45;&gt;Deleted -->
<g id="edge33" class="edge">
<title>Deleting&#45;&gt;Deleted</title>
<path fill="none" stroke="black" d="M2568.15,-1240.52C2612.98,-1257.72 2688.31,-1277.5 2739.6,-1242.77 2757.44,-1230.7 2740.32,-1210.63 2757.6,-1197.77 2869.65,-1114.39 2939.55,-1218.06 3070.6,-1169.77 3080.06,-1166.29 3089.37,-1160.74 3097.57,-1154.9"/>
<polygon fill="black" stroke="black" points="3099.8,-1157.61 3105.68,-1148.79 3095.58,-1152.02 3099.8,-1157.61"/>
<text text-anchor="middle" x="2833.1" y="-1201.57" font-family="Times,serif" font-size="14.00">DeletingSuccess</text>
</g>
<!-- Starting -->
<g id="node5" class="node">
<title>Starting</title>
<path fill="none" stroke="black" d="M2503.6,-1150.77C2503.6,-1150.77 2555.6,-1150.77 2555.6,-1150.77 2561.6,-1150.77 2567.6,-1156.77 2567.6,-1162.77 2567.6,-1162.77 2567.6,-1174.77 2567.6,-1174.77 2567.6,-1180.77 2561.6,-1186.77 2555.6,-1186.77 2555.6,-1186.77 2503.6,-1186.77 2503.6,-1186.77 2497.6,-1186.77 2491.6,-1180.77 2491.6,-1174.77 2491.6,-1174.77 2491.6,-1162.77 2491.6,-1162.77 2491.6,-1156.77 2497.6,-1150.77 2503.6,-1150.77"/>
<text text-anchor="middle" x="2529.6" y="-1165.07" font-family="Times,serif" font-size="14.00">Starting</text>
</g>
<!-- Starting&#45;&gt;Unknown -->
<g id="edge11" class="edge">
<title>Starting&#45;&gt;Unknown</title>
<path fill="none" stroke="black" d="M2533.35,-1150.48C2539.99,-1111.83 2560.07,-1020.64 2608.6,-962.77 2652.14,-910.85 2691.25,-932.24 2739.6,-884.77 2750.43,-874.15 2748.94,-868.23 2757.6,-855.77 2774.49,-831.48 2795.24,-804.99 2810.54,-786.01"/>
<polygon fill="black" stroke="black" points="2813.37,-788.07 2816.95,-778.1 2807.93,-783.67 2813.37,-788.07"/>
<text text-anchor="middle" x="2674.1" y="-966.57" font-family="Times,serif" font-size="14.00">StartingFailure</text>
</g>
<!-- Starting&#45;&gt;Unknown -->
<g id="edge12" class="edge">
<title>Starting&#45;&gt;Unknown</title>
<path fill="none" stroke="black" d="M2535.81,-1150.73C2545.39,-1120.69 2568.54,-1060.3 2608.6,-1025.77 2655.57,-985.29 2700.46,-1025.87 2739.6,-977.77 2774.19,-935.26 2736.09,-906.19 2757.6,-855.77 2768.87,-829.35 2789.22,-803.88 2805.81,-785.82"/>
<polygon fill="black" stroke="black" points="2808.81,-787.75 2813.12,-778.07 2803.72,-782.94 2808.81,-787.75"/>
<text text-anchor="middle" x="2674.1" y="-1029.57" font-family="Times,serif" font-size="14.00">Unknown</text>
</g>
<!-- Started -->
<g id="node19" class="node">
<title>Started</title>
<path fill="none" stroke="black" d="M3103.1,-822.77C3103.1,-822.77 3150.1,-822.77 3150.1,-822.77 3156.1,-822.77 3162.1,-828.77 3162.1,-834.77 3162.1,-834.77 3162.1,-846.77 3162.1,-846.77 3162.1,-852.77 3156.1,-858.77 3150.1,-858.77 3150.1,-858.77 3103.1,-858.77 3103.1,-858.77 3097.1,-858.77 3091.1,-852.77 3091.1,-846.77 3091.1,-846.77 3091.1,-834.77 3091.1,-834.77 3091.1,-828.77 3097.1,-822.77 3103.1,-822.77"/>
<text text-anchor="middle" x="3126.6" y="-837.07" font-family="Times,serif" font-size="14.00">Started</text>
</g>
<!-- Starting&#45;&gt;Started -->
<g id="edge10" class="edge">
<title>Starting&#45;&gt;Started</title>
<path fill="none" stroke="black" d="M2567.66,-1164.98C2683.56,-1152.81 3033.68,-1113.47 3070.6,-1078.77 3100.94,-1050.26 3117.09,-925.48 3122.97,-868.88"/>
<polygon fill="black" stroke="black" points="3126.47,-869.12 3123.98,-858.82 3119.5,-868.42 3126.47,-869.12"/>
<text text-anchor="middle" x="2833.1" y="-1146.57" font-family="Times,serif" font-size="14.00">StartingSuccess</text>
</g>
<!-- PreCreating -->
<g id="node6" class="node">
<title>PreCreating</title>
<path fill="none" stroke="black" d="M52.6,-517.77C52.6,-517.77 132.6,-517.77 132.6,-517.77 138.6,-517.77 144.6,-523.77 144.6,-529.77 144.6,-529.77 144.6,-541.77 144.6,-541.77 144.6,-547.77 138.6,-553.77 132.6,-553.77 132.6,-553.77 52.6,-553.77 52.6,-553.77 46.6,-553.77 40.6,-547.77 40.6,-541.77 40.6,-541.77 40.6,-529.77 40.6,-529.77 40.6,-523.77 46.6,-517.77 52.6,-517.77"/>
<text text-anchor="middle" x="92.6" y="-532.07" font-family="Times,serif" font-size="14.00">PreCreating</text>
</g>
<!-- CreatingPreXML -->
<g id="node7" class="node">
<title>CreatingPreXML</title>
<path fill="none" stroke="black" d="M337.6,-517.77C337.6,-517.77 450.6,-517.77 450.6,-517.77 456.6,-517.77 462.6,-523.77 462.6,-529.77 462.6,-529.77 462.6,-541.77 462.6,-541.77 462.6,-547.77 456.6,-553.77 450.6,-553.77 450.6,-553.77 337.6,-553.77 337.6,-553.77 331.6,-553.77 325.6,-547.77 325.6,-541.77 325.6,-541.77 325.6,-529.77 325.6,-529.77 325.6,-523.77 331.6,-517.77 337.6,-517.77"/>
<text text-anchor="middle" x="394.1" y="-532.07" font-family="Times,serif" font-size="14.00">CreatingPreXML</text>
</g>
<!-- PreCreating&#45;&gt;CreatingPreXML -->
<g id="edge37" class="edge">
<title>PreCreating&#45;&gt;CreatingPreXML</title>
<path fill="none" stroke="black" d="M144.75,-535.77C191.6,-535.77 261.63,-535.77 315.39,-535.77"/>
<polygon fill="black" stroke="black" points="315.58,-539.27 325.58,-535.77 315.58,-532.27 315.58,-539.27"/>
<text text-anchor="middle" x="235.1" y="-539.57" font-family="Times,serif" font-size="14.00">PreCreatingSuccess</text>
</g>
<!-- PreCreating&#45;&gt;Unknown -->
<g id="edge36" class="edge">
<title>PreCreating&#45;&gt;Unknown</title>
<path fill="none" stroke="black" d="M93.5,-517.68C93.42,-438.14 97.27,-120.54 162.6,-51.77 234.49,23.9 288.72,-6.77 393.1,-6.77 393.1,-6.77 393.1,-6.77 2530.6,-6.77 2632.45,-6.77 2682.75,-16.27 2739.6,-100.77 2770.38,-146.53 2744.89,-543.11 2757.6,-596.77 2769.55,-647.26 2797.54,-701.13 2815.61,-732.56"/>
<polygon fill="black" stroke="black" points="2812.8,-734.69 2820.87,-741.56 2818.85,-731.16 2812.8,-734.69"/>
<text text-anchor="middle" x="1426.1" y="-10.57" font-family="Times,serif" font-size="14.00">Unknown</text>
</g>
<!-- PreCreating&#45;&gt;CreatingFailed -->
<g id="edge38" class="edge">
<title>PreCreating&#45;&gt;CreatingFailed</title>
<path fill="none" stroke="black" d="M93.63,-517.64C94.14,-442.15 100.23,-154.01 162.6,-94.77 237.28,-23.84 290.1,-70.77 393.1,-70.77 393.1,-70.77 393.1,-70.77 1813.1,-70.77 2096.88,-70.77 2213.3,48.86 2450.6,-106.77 2494.73,-135.72 2514.99,-197.65 2523.38,-233.85"/>
<polygon fill="black" stroke="black" points="2519.99,-234.73 2525.53,-243.76 2526.84,-233.25 2519.99,-234.73"/>
<text text-anchor="middle" x="1230.6" y="-74.57" font-family="Times,serif" font-size="14.00">PreCreatingFailure</text>
</g>
<!-- CreatingPreXML&#45;&gt;Unknown -->
<g id="edge41" class="edge">
<title>CreatingPreXML&#45;&gt;Unknown</title>
<path fill="none" stroke="black" d="M397.39,-517.52C405.57,-455.21 435.29,-252.34 480.6,-207.77 562.45,-127.27 616.8,-146.77 731.6,-146.77 731.6,-146.77 731.6,-146.77 1618.6,-146.77 2118.65,-146.77 2461.03,172.49 2739.6,-242.77 2761.54,-275.48 2748.25,-558.51 2757.6,-596.77 2769.92,-647.17 2797.8,-701.07 2815.74,-732.53"/>
<polygon fill="black" stroke="black" points="2812.92,-734.64 2820.96,-741.54 2818.98,-731.13 2812.92,-734.64"/>
<text text-anchor="middle" x="1617.6" y="-150.57" font-family="Times,serif" font-size="14.00">Unknown</text>
</g>
<!-- CreatingXML -->
<g id="node12" class="node">
<title>CreatingXML</title>
<path fill="none" stroke="black" d="M688.6,-517.77C688.6,-517.77 776.6,-517.77 776.6,-517.77 782.6,-517.77 788.6,-523.77 788.6,-529.77 788.6,-529.77 788.6,-541.77 788.6,-541.77 788.6,-547.77 782.6,-553.77 776.6,-553.77 776.6,-553.77 688.6,-553.77 688.6,-553.77 682.6,-553.77 676.6,-547.77 676.6,-541.77 676.6,-541.77 676.6,-529.77 676.6,-529.77 676.6,-523.77 682.6,-517.77 688.6,-517.77"/>
<text text-anchor="middle" x="732.6" y="-532.07" font-family="Times,serif" font-size="14.00">CreatingXML</text>
</g>
<!-- CreatingPreXML&#45;&gt;CreatingXML -->
<g id="edge39" class="edge">
<title>CreatingPreXML&#45;&gt;CreatingXML</title>
<path fill="none" stroke="black" d="M462.79,-535.77C522.09,-535.77 607.7,-535.77 666.28,-535.77"/>
<polygon fill="black" stroke="black" points="666.52,-539.27 676.52,-535.77 666.52,-532.27 666.52,-539.27"/>
<text text-anchor="middle" x="569.6" y="-539.57" font-family="Times,serif" font-size="14.00">CreatingPreXMLSuccess</text>
</g>
<!-- CreatingPreXML&#45;&gt;CreatingFailed -->
<g id="edge40" class="edge">
<title>CreatingPreXML&#45;&gt;CreatingFailed</title>
<path fill="none" stroke="black" d="M402.3,-517.33C431.47,-446.09 548.08,-192.77 731.6,-192.77 731.6,-192.77 731.6,-192.77 1231.6,-192.77 1773.89,-192.77 1912.4,-179.3 2450.6,-245.77 2453.12,-246.08 2455.68,-246.43 2458.26,-246.81"/>
<polygon fill="black" stroke="black" points="2457.86,-250.29 2468.29,-248.41 2458.97,-243.38 2457.86,-250.29"/>
<text text-anchor="middle" x="1426.1" y="-196.57" font-family="Times,serif" font-size="14.00">CreatingPreXMLFailure</text>
</g>
<!-- Pausing -->
<g id="node8" class="node">
<title>Pausing</title>
<path fill="none" stroke="black" d="M2505.1,-716.77C2505.1,-716.77 2554.1,-716.77 2554.1,-716.77 2560.1,-716.77 2566.1,-722.77 2566.1,-728.77 2566.1,-728.77 2566.1,-740.77 2566.1,-740.77 2566.1,-746.77 2560.1,-752.77 2554.1,-752.77 2554.1,-752.77 2505.1,-752.77 2505.1,-752.77 2499.1,-752.77 2493.1,-746.77 2493.1,-740.77 2493.1,-740.77 2493.1,-728.77 2493.1,-728.77 2493.1,-722.77 2499.1,-716.77 2505.1,-716.77"/>
<text text-anchor="middle" x="2529.6" y="-731.07" font-family="Times,serif" font-size="14.00">Pausing</text>
</g>
<!-- Pausing&#45;&gt;Unknown -->
<g id="edge63" class="edge">
<title>Pausing&#45;&gt;Unknown</title>
<path fill="none" stroke="black" d="M2551.46,-716.67C2566.3,-705.06 2587.3,-691.01 2608.6,-684.77 2664.47,-668.4 2684.72,-665.32 2739.6,-684.77 2767.14,-694.54 2792.47,-716.38 2809.63,-733.99"/>
<polygon fill="black" stroke="black" points="2807.52,-736.85 2816.92,-741.73 2812.61,-732.05 2807.52,-736.85"/>
<text text-anchor="middle" x="2674.1" y="-688.57" font-family="Times,serif" font-size="14.00">PausingFailure</text>
</g>
<!-- Pausing&#45;&gt;Unknown -->
<g id="edge64" class="edge">
<title>Pausing&#45;&gt;Unknown</title>
<path fill="none" stroke="black" d="M2566.46,-727.4C2608.37,-720 2679.64,-711.23 2739.6,-722.77 2755.48,-725.83 2772.1,-731.59 2786.81,-737.67"/>
<polygon fill="black" stroke="black" points="2785.59,-740.96 2796.16,-741.69 2788.36,-734.53 2785.59,-740.96"/>
<text text-anchor="middle" x="2674.1" y="-726.57" font-family="Times,serif" font-size="14.00">Unknown</text>
</g>
<!-- Paused -->
<g id="node22" class="node">
<title>Paused</title>
<path fill="none" stroke="black" d="M3104.6,-474.77C3104.6,-474.77 3148.6,-474.77 3148.6,-474.77 3154.6,-474.77 3160.6,-480.77 3160.6,-486.77 3160.6,-486.77 3160.6,-498.77 3160.6,-498.77 3160.6,-504.77 3154.6,-510.77 3148.6,-510.77 3148.6,-510.77 3104.6,-510.77 3104.6,-510.77 3098.6,-510.77 3092.6,-504.77 3092.6,-498.77 3092.6,-498.77 3092.6,-486.77 3092.6,-486.77 3092.6,-480.77 3098.6,-474.77 3104.6,-474.77"/>
<text text-anchor="middle" x="3126.6" y="-489.07" font-family="Times,serif" font-size="14.00">Paused</text>
</g>
<!-- Pausing&#45;&gt;Paused -->
<g id="edge62" class="edge">
<title>Pausing&#45;&gt;Paused</title>
<path fill="none" stroke="black" d="M2556.55,-716.68C2569.64,-706.06 2584.44,-691.46 2592.6,-674.77 2607.13,-645.05 2584.72,-549.67 2608.6,-526.77 2642.44,-494.33 2963.97,-492.18 3082.23,-492.5"/>
<polygon fill="black" stroke="black" points="3082.36,-496 3092.37,-492.53 3082.38,-489 3082.36,-496"/>
<text text-anchor="middle" x="2833.1" y="-503.57" font-family="Times,serif" font-size="14.00">PausingSuccess</text>
</g>
<!-- Migrating -->
<g id="node9" class="node">
<title>Migrating</title>
<path fill="none" stroke="black" d="M2497.6,-771.77C2497.6,-771.77 2561.6,-771.77 2561.6,-771.77 2567.6,-771.77 2573.6,-777.77 2573.6,-783.77 2573.6,-783.77 2573.6,-795.77 2573.6,-795.77 2573.6,-801.77 2567.6,-807.77 2561.6,-807.77 2561.6,-807.77 2497.6,-807.77 2497.6,-807.77 2491.6,-807.77 2485.6,-801.77 2485.6,-795.77 2485.6,-795.77 2485.6,-783.77 2485.6,-783.77 2485.6,-777.77 2491.6,-771.77 2497.6,-771.77"/>
<text text-anchor="middle" x="2529.6" y="-786.07" font-family="Times,serif" font-size="14.00">Migrating</text>
</g>
<!-- Migrating&#45;&gt;Unknown -->
<g id="edge48" class="edge">
<title>Migrating&#45;&gt;Unknown</title>
<path fill="none" stroke="black" d="M2573.95,-788.19C2616.31,-786.33 2682.55,-782.6 2739.6,-775.77 2753.01,-774.17 2767.43,-771.93 2780.81,-769.63"/>
<polygon fill="black" stroke="black" points="2781.55,-773.05 2790.79,-767.87 2780.34,-766.15 2781.55,-773.05"/>
<text text-anchor="middle" x="2674.1" y="-789.57" font-family="Times,serif" font-size="14.00">MigratingFailure</text>
</g>
<!-- Migrating&#45;&gt;Unknown -->
<g id="edge49" class="edge">
<title>Migrating&#45;&gt;Unknown</title>
<path fill="none" stroke="black" d="M2572.31,-771.72C2589.74,-764.25 2606.47,-757.2 2608.6,-756.77 2666.76,-744.97 2735.2,-748.34 2780.87,-752.97"/>
<polygon fill="black" stroke="black" points="2780.51,-756.45 2790.83,-754.03 2781.26,-749.49 2780.51,-756.45"/>
<text text-anchor="middle" x="2674.1" y="-760.57" font-family="Times,serif" font-size="14.00">Unknown</text>
</g>
<!-- Migrating&#45;&gt;Started -->
<g id="edge47" class="edge">
<title>Migrating&#45;&gt;Started</title>
<path fill="none" stroke="black" d="M2573.84,-803.05C2580.91,-806.85 2587.56,-811.67 2592.6,-817.77 2612.1,-841.37 2584.57,-865.8 2608.6,-884.77 2645.28,-913.72 2962.12,-866.84 3080.89,-848.03"/>
<polygon fill="black" stroke="black" points="3081.76,-851.44 3091.09,-846.41 3080.66,-844.52 3081.76,-851.44"/>
<text text-anchor="middle" x="2833.1" y="-892.57" font-family="Times,serif" font-size="14.00">MigratingSuccess</text>
</g>
<!-- Stopping -->
<g id="node10" class="node">
<title>Stopping</title>
<path fill="none" stroke="black" d="M2501.1,-826.77C2501.1,-826.77 2558.1,-826.77 2558.1,-826.77 2564.1,-826.77 2570.1,-832.77 2570.1,-838.77 2570.1,-838.77 2570.1,-850.77 2570.1,-850.77 2570.1,-856.77 2564.1,-862.77 2558.1,-862.77 2558.1,-862.77 2501.1,-862.77 2501.1,-862.77 2495.1,-862.77 2489.1,-856.77 2489.1,-850.77 2489.1,-850.77 2489.1,-838.77 2489.1,-838.77 2489.1,-832.77 2495.1,-826.77 2501.1,-826.77"/>
<text text-anchor="middle" x="2529.6" y="-841.07" font-family="Times,serif" font-size="14.00">Stopping</text>
</g>
<!-- Stopping&#45;&gt;Unknown -->
<g id="edge51" class="edge">
<title>Stopping&#45;&gt;Unknown</title>
<path fill="none" stroke="black" d="M2570.29,-840.34C2612.93,-834.86 2682.28,-823.83 2739.6,-804.77 2757.02,-798.98 2775.37,-790.58 2791.09,-782.6"/>
<polygon fill="black" stroke="black" points="2792.75,-785.69 2800.02,-777.98 2789.53,-779.47 2792.75,-785.69"/>
<text text-anchor="middle" x="2674.1" y="-837.57" font-family="Times,serif" font-size="14.00">StoppingFailure</text>
</g>
<!-- Stopping&#45;&gt;Unknown -->
<g id="edge52" class="edge">
<title>Stopping&#45;&gt;Unknown</title>
<path fill="none" stroke="black" d="M2570.46,-855.55C2613.84,-865.17 2684.39,-874.55 2739.6,-851.77 2771.58,-838.58 2798.32,-808.38 2814.7,-786.17"/>
<polygon fill="black" stroke="black" points="2817.71,-787.98 2820.66,-777.8 2812,-783.91 2817.71,-787.98"/>
<text text-anchor="middle" x="2674.1" y="-869.57" font-family="Times,serif" font-size="14.00">Unknown</text>
</g>
<!-- Stopping&#45;&gt;Stopped -->
<g id="edge50" class="edge">
<title>Stopping&#45;&gt;Stopped</title>
<path fill="none" stroke="black" d="M2532.88,-862.95C2540.56,-921.31 2567.34,-1102.38 2608.6,-1141.77 2651.66,-1182.89 2693.78,-1131.76 2739.6,-1169.77 2755.55,-1183 2742.49,-1198.6 2757.6,-1212.77 2811.27,-1263.1 3004.54,-1288.38 3070.6,-1320.77 3077.88,-1324.34 3085.35,-1328.7 3092.35,-1333.14"/>
<polygon fill="black" stroke="black" points="3090.63,-1336.19 3100.91,-1338.74 3094.46,-1330.34 3090.63,-1336.19"/>
<text text-anchor="middle" x="2833.1" y="-1275.57" font-family="Times,serif" font-size="14.00">StoppingSuccess</text>
</g>
<!-- Unknown&#45;&gt;Started -->
<g id="edge56" class="edge">
<title>Unknown&#45;&gt;Started</title>
<path fill="none" stroke="black" d="M2875.25,-771.21C2929.73,-786.34 3025.43,-812.94 3081.4,-828.49"/>
<polygon fill="black" stroke="black" points="3080.46,-831.86 3091.03,-831.17 3082.34,-825.12 3080.46,-831.86"/>
<text text-anchor="middle" x="2998.6" y="-828.57" font-family="Times,serif" font-size="14.00">UnknownToStarted</text>
</g>
<!-- Unknown&#45;&gt;Stopped -->
<g id="edge58" class="edge">
<title>Unknown&#45;&gt;Stopped</title>
<path fill="none" stroke="black" d="M2853.53,-777.89C2871.31,-795.78 2896.61,-824.9 2908.6,-855.77 2926.59,-902.12 2899.12,-1037.34 2926.6,-1078.77 2966.48,-1138.91 3025.36,-1097.55 3070.6,-1153.77 3112.19,-1205.46 3122.45,-1286.03 3124.9,-1328.45"/>
<polygon fill="black" stroke="black" points="3121.41,-1328.79 3125.38,-1338.62 3128.41,-1328.46 3121.41,-1328.79"/>
<text text-anchor="middle" x="2998.6" y="-1157.57" font-family="Times,serif" font-size="14.00">UnknownToStopped</text>
</g>
<!-- Unknown&#45;&gt;Deleted -->
<g id="edge59" class="edge">
<title>Unknown&#45;&gt;Deleted</title>
<path fill="none" stroke="black" d="M2848.36,-777.92C2895.92,-838.45 3049.28,-1033.63 3105.06,-1104.64"/>
<polygon fill="black" stroke="black" points="3102.44,-1106.96 3111.37,-1112.66 3107.94,-1102.64 3102.44,-1106.96"/>
<text text-anchor="middle" x="2998.6" y="-1063.57" font-family="Times,serif" font-size="14.00">UnknownToDeleted</text>
</g>
<!-- Unknown&#45;&gt;Paused -->
<g id="edge57" class="edge">
<title>Unknown&#45;&gt;Paused</title>
<path fill="none" stroke="black" d="M2875.27,-757.55C2927.87,-752.48 3018.36,-735.9 3070.6,-681.77 3113.41,-637.42 3123.2,-561.74 3125.24,-520.89"/>
<polygon fill="black" stroke="black" points="3128.74,-520.95 3125.63,-510.83 3121.75,-520.69 3128.74,-520.95"/>
<text text-anchor="middle" x="2998.6" y="-752.57" font-family="Times,serif" font-size="14.00">UnknownToPaused</text>
</g>
<!-- CreatingXML&#45;&gt;CreatingPostXML -->
<g id="edge13" class="edge">
<title>CreatingXML&#45;&gt;CreatingPostXML</title>
<path fill="none" stroke="black" d="M788.74,-535.77C838.16,-535.77 911.29,-535.77 967.31,-535.77"/>
<polygon fill="black" stroke="black" points="967.56,-539.27 977.56,-535.77 967.56,-532.27 967.56,-539.27"/>
<text text-anchor="middle" x="883.1" y="-539.57" font-family="Times,serif" font-size="14.00">CreatingXMLSuccess</text>
</g>
<!-- CreatingXML&#45;&gt;Unknown -->
<g id="edge15" class="edge">
<title>CreatingXML&#45;&gt;Unknown</title>
<path fill="none" stroke="black" d="M743.73,-517.49C778.03,-458.31 896.14,-275.77 1048.1,-275.77 1048.1,-275.77 1048.1,-275.77 1618.6,-275.77 1743.93,-275.77 1775.4,-270.09 1900.6,-275.77 2145.8,-286.89 2206.6,-299.07 2450.6,-325.77 2579.32,-339.86 2650.38,-268.92 2739.6,-362.77 2757.57,-381.67 2751.08,-571.52 2757.6,-596.77 2770.57,-647.01 2798.25,-700.96 2815.98,-732.47"/>
<polygon fill="black" stroke="black" points="2813.14,-734.55 2821.13,-741.5 2819.22,-731.08 2813.14,-734.55"/>
<text text-anchor="middle" x="1812.1" y="-279.57" font-family="Times,serif" font-size="14.00">Unknown</text>
</g>
<!-- CreatingXML&#45;&gt;CreatingFailed -->
<g id="edge14" class="edge">
<title>CreatingXML&#45;&gt;CreatingFailed</title>
<path fill="none" stroke="black" d="M735.64,-517.52C742.32,-461.54 765.46,-294.07 806.6,-261.77 885.18,-200.08 1605.7,-246.17 1705.6,-246.77 2036.73,-248.77 2119.79,-241.07 2450.6,-255.77 2453.15,-255.89 2455.75,-256.02 2458.38,-256.16"/>
<polygon fill="black" stroke="black" points="2458.39,-259.66 2468.58,-256.76 2458.8,-252.68 2458.39,-259.66"/>
<text text-anchor="middle" x="1617.6" y="-250.57" font-family="Times,serif" font-size="14.00">CreatingXMLFailure</text>
</g>
<!-- CreatingPreDisk&#45;&gt;Unknown -->
<g id="edge18" class="edge">
<title>CreatingPreDisk&#45;&gt;Unknown</title>
<path fill="none" stroke="black" d="M1493.82,-525.62C1747.98,-487.66 2645.93,-360.48 2739.6,-443.77 2765.18,-466.52 2748.37,-563.8 2757.6,-596.77 2771.58,-646.74 2798.96,-700.77 2816.35,-732.37"/>
<polygon fill="black" stroke="black" points="2813.47,-734.4 2821.4,-741.43 2819.59,-730.99 2813.47,-734.4"/>
<text text-anchor="middle" x="2178.1" y="-449.57" font-family="Times,serif" font-size="14.00">Unknown</text>
</g>
<!-- CreatingDisk -->
<g id="node14" class="node">
<title>CreatingDisk</title>
<path fill="none" stroke="black" d="M1769.1,-517.77C1769.1,-517.77 1855.1,-517.77 1855.1,-517.77 1861.1,-517.77 1867.1,-523.77 1867.1,-529.77 1867.1,-529.77 1867.1,-541.77 1867.1,-541.77 1867.1,-547.77 1861.1,-553.77 1855.1,-553.77 1855.1,-553.77 1769.1,-553.77 1769.1,-553.77 1763.1,-553.77 1757.1,-547.77 1757.1,-541.77 1757.1,-541.77 1757.1,-529.77 1757.1,-529.77 1757.1,-523.77 1763.1,-517.77 1769.1,-517.77"/>
<text text-anchor="middle" x="1812.1" y="-532.07" font-family="Times,serif" font-size="14.00">CreatingDisk</text>
</g>
<!-- CreatingPreDisk&#45;&gt;CreatingDisk -->
<g id="edge16" class="edge">
<title>CreatingPreDisk&#45;&gt;CreatingDisk</title>
<path fill="none" stroke="black" d="M1493.99,-535.77C1565.16,-535.77 1676.95,-535.77 1747.03,-535.77"/>
<polygon fill="black" stroke="black" points="1747.06,-539.27 1757.06,-535.77 1747.06,-532.27 1747.06,-539.27"/>
<text text-anchor="middle" x="1617.6" y="-539.57" font-family="Times,serif" font-size="14.00">CreatingPreDiskSuccess</text>
</g>
<!-- CreatingPreDisk&#45;&gt;CreatingFailed -->
<g id="edge17" class="edge">
<title>CreatingPreDisk&#45;&gt;CreatingFailed</title>
<path fill="none" stroke="black" d="M1439.76,-517.63C1457.2,-494.08 1490.89,-453.44 1529.6,-431.77 1677.3,-349.11 1746.51,-415.81 1900.6,-345.77 1909.58,-341.69 1909.49,-336.56 1918.6,-332.77 2064.16,-272.35 2111.91,-292.7 2268.6,-275.77 2332.64,-268.85 2405.95,-265.3 2458.36,-263.51"/>
<polygon fill="black" stroke="black" points="2458.68,-267 2468.56,-263.17 2458.45,-260 2458.68,-267"/>
<text text-anchor="middle" x="2003.1" y="-336.57" font-family="Times,serif" font-size="14.00">CreatingPreDiskFailure</text>
</g>
<!-- CreatingDisk&#45;&gt;Unknown -->
<g id="edge21" class="edge">
<title>CreatingDisk&#45;&gt;Unknown</title>
<path fill="none" stroke="black" d="M1867.18,-525.68C1952.23,-510.37 2122.62,-481.98 2268.6,-471.77 2349.29,-466.13 2369.75,-469.12 2450.6,-471.77 2579.25,-476 2644.03,-404.54 2739.6,-490.77 2775.08,-522.79 2743.55,-551.1 2757.6,-596.77 2772.86,-646.36 2799.85,-700.51 2816.81,-732.23"/>
<polygon fill="black" stroke="black" points="2813.9,-734.2 2821.73,-741.33 2820.05,-730.87 2813.9,-734.2"/>
<text text-anchor="middle" x="2359.6" y="-475.57" font-family="Times,serif" font-size="14.00">Unknown</text>
</g>
<!-- CreatingPostDisk -->
<g id="node15" class="node">
<title>CreatingPostDisk</title>
<path fill="none" stroke="black" d="M2119.6,-517.77C2119.6,-517.77 2236.6,-517.77 2236.6,-517.77 2242.6,-517.77 2248.6,-523.77 2248.6,-529.77 2248.6,-529.77 2248.6,-541.77 2248.6,-541.77 2248.6,-547.77 2242.6,-553.77 2236.6,-553.77 2236.6,-553.77 2119.6,-553.77 2119.6,-553.77 2113.6,-553.77 2107.6,-547.77 2107.6,-541.77 2107.6,-541.77 2107.6,-529.77 2107.6,-529.77 2107.6,-523.77 2113.6,-517.77 2119.6,-517.77"/>
<text text-anchor="middle" x="2178.1" y="-532.07" font-family="Times,serif" font-size="14.00">CreatingPostDisk</text>
</g>
<!-- CreatingDisk&#45;&gt;CreatingPostDisk -->
<g id="edge19" class="edge">
<title>CreatingDisk&#45;&gt;CreatingPostDisk</title>
<path fill="none" stroke="black" d="M1867.2,-535.77C1928.08,-535.77 2027.55,-535.77 2097.34,-535.77"/>
<polygon fill="black" stroke="black" points="2097.42,-539.27 2107.42,-535.77 2097.42,-532.27 2097.42,-539.27"/>
<text text-anchor="middle" x="2003.1" y="-539.57" font-family="Times,serif" font-size="14.00">CreatingDiskSuccess</text>
</g>
<!-- CreatingDisk&#45;&gt;CreatingFailed -->
<g id="edge20" class="edge">
<title>CreatingDisk&#45;&gt;CreatingFailed</title>
<path fill="none" stroke="black" d="M1843.29,-517.64C1864.23,-505.23 1892.88,-488.59 1918.6,-474.77 1956.86,-454.23 2227.18,-313.82 2268.6,-300.77 2277.64,-297.92 2384.51,-282.34 2458.38,-271.75"/>
<polygon fill="black" stroke="black" points="2459.17,-275.18 2468.58,-270.3 2458.18,-268.25 2459.17,-275.18"/>
<text text-anchor="middle" x="2178.1" y="-381.57" font-family="Times,serif" font-size="14.00">CreatingDiskFailure</text>
</g>
<!-- CreatingPostDisk&#45;&gt;Unknown -->
<g id="edge3" class="edge">
<title>CreatingPostDisk&#45;&gt;Unknown</title>
<path fill="none" stroke="black" d="M2248.66,-519.57C2330.88,-502.54 2471.8,-479.98 2592.6,-493.77 2659.23,-501.38 2691.53,-481.02 2739.6,-527.77 2762.32,-549.87 2746.97,-566.91 2757.6,-596.77 2775.09,-645.92 2801.63,-700.6 2817.86,-732.49"/>
<polygon fill="black" stroke="black" points="2814.86,-734.33 2822.54,-741.63 2821.09,-731.13 2814.86,-734.33"/>
<text text-anchor="middle" x="2529.6" y="-497.57" font-family="Times,serif" font-size="14.00">Unknown</text>
</g>
<!-- PostCreating -->
<g id="node16" class="node">
<title>PostCreating</title>
<path fill="none" stroke="black" d="M2486.6,-517.77C2486.6,-517.77 2572.6,-517.77 2572.6,-517.77 2578.6,-517.77 2584.6,-523.77 2584.6,-529.77 2584.6,-529.77 2584.6,-541.77 2584.6,-541.77 2584.6,-547.77 2578.6,-553.77 2572.6,-553.77 2572.6,-553.77 2486.6,-553.77 2486.6,-553.77 2480.6,-553.77 2474.6,-547.77 2474.6,-541.77 2474.6,-541.77 2474.6,-529.77 2474.6,-529.77 2474.6,-523.77 2480.6,-517.77 2486.6,-517.77"/>
<text text-anchor="middle" x="2529.6" y="-532.07" font-family="Times,serif" font-size="14.00">PostCreating</text>
</g>
<!-- CreatingPostDisk&#45;&gt;PostCreating -->
<g id="edge1" class="edge">
<title>CreatingPostDisk&#45;&gt;PostCreating</title>
<path fill="none" stroke="black" d="M2248.99,-535.77C2311.79,-535.77 2403.26,-535.77 2464.29,-535.77"/>
<polygon fill="black" stroke="black" points="2464.56,-539.27 2474.56,-535.77 2464.56,-532.27 2464.56,-539.27"/>
<text text-anchor="middle" x="2359.6" y="-539.57" font-family="Times,serif" font-size="14.00">CreatingPostDiskSuccess</text>
</g>
<!-- CreatingPostDisk&#45;&gt;CreatingFailed -->
<g id="edge2" class="edge">
<title>CreatingPostDisk&#45;&gt;CreatingFailed</title>
<path fill="none" stroke="black" d="M2203.77,-517.72C2219.64,-504.77 2239.32,-485.92 2250.6,-464.77 2270.42,-427.63 2241.64,-404.11 2268.6,-371.77 2324.2,-305.09 2371.24,-336 2450.6,-300.77 2461.84,-295.78 2473.81,-290.03 2484.9,-284.5"/>
<polygon fill="black" stroke="black" points="2486.62,-287.56 2493.98,-279.94 2483.47,-281.3 2486.62,-287.56"/>
<text text-anchor="middle" x="2359.6" y="-375.57" font-family="Times,serif" font-size="14.00">CreatingPostDiskFailure</text>
</g>
<!-- PostCreating&#45;&gt;Unknown -->
<g id="edge6" class="edge">
<title>PostCreating&#45;&gt;Unknown</title>
<path fill="none" stroke="black" d="M2584.76,-531.85C2630.35,-531.35 2695.07,-537.56 2739.6,-570.77 2793.05,-610.64 2817.31,-689.74 2826.83,-731.86"/>
<polygon fill="black" stroke="black" points="2823.42,-732.68 2828.94,-741.72 2830.27,-731.21 2823.42,-732.68"/>
<text text-anchor="middle" x="2674.1" y="-574.57" font-family="Times,serif" font-size="14.00">Unknown</text>
</g>
<!-- PostCreating&#45;&gt;CreatingFailed -->
<g id="edge5" class="edge">
<title>PostCreating&#45;&gt;CreatingFailed</title>
<path fill="none" stroke="black" d="M2474.32,-523.69C2398.43,-504.23 2275.66,-460.85 2315.6,-390.27 2346.08,-336.42 2409.14,-302.66 2458.95,-283.34"/>
<polygon fill="black" stroke="black" points="2460.28,-286.58 2468.41,-279.78 2457.81,-280.03 2460.28,-286.58"/>
<text text-anchor="middle" x="2359.6" y="-394.07" font-family="Times,serif" font-size="14.00">PostCreatingFailure</text>
</g>
<!-- PostCreating&#45;&gt;Started -->
<g id="edge4" class="edge">
<title>PostCreating&#45;&gt;Started</title>
<path fill="none" stroke="black" d="M2584.88,-519.18C2587.66,-517.27 2590.26,-515.14 2592.6,-512.77 2607.51,-497.66 2595.18,-484.22 2608.6,-467.77 2657.52,-407.84 2683.07,-398.53 2757.6,-377.77 2822.25,-359.76 2846.52,-352.28 2908.6,-377.77 3002.21,-416.21 3023.37,-448.27 3070.6,-537.77 3119.02,-629.53 3125.64,-756.29 3126,-812.26"/>
<polygon fill="black" stroke="black" points="3122.5,-812.48 3126,-822.48 3129.5,-812.48 3122.5,-812.48"/>
<text text-anchor="middle" x="2833.1" y="-381.57" font-family="Times,serif" font-size="14.00">PostCreatingSuccess</text>
</g>
<!-- CreatingFailed&#45;&gt;PreCreating -->
<g id="edge60" class="edge">
<title>CreatingFailed&#45;&gt;PreCreating</title>
<path fill="none" stroke="black" d="M2499.24,-243.72C2485.04,-235.77 2467.44,-227.06 2450.6,-221.77 2094.59,-109.92 1991.77,-108.77 1618.6,-108.77 393.1,-108.77 393.1,-108.77 393.1,-108.77 197.58,-108.77 118.81,-412.56 98.95,-507.66"/>
<polygon fill="black" stroke="black" points="95.47,-507.2 96.91,-517.7 102.33,-508.59 95.47,-507.2"/>
<text text-anchor="middle" x="1230.6" y="-112.57" font-family="Times,serif" font-size="14.00">CreatingRetry</text>
</g>
<!-- CreatingFailed&#45;&gt;Unknown -->
<g id="edge61" class="edge">
<title>CreatingFailed&#45;&gt;Unknown</title>
<path fill="none" stroke="black" d="M2590.85,-249.05C2638.2,-242.91 2702.22,-243.85 2739.6,-282.77 2762.81,-306.94 2749.96,-551.15 2757.6,-583.77 2770.51,-638.9 2799.32,-698.74 2817.09,-732.51"/>
<polygon fill="black" stroke="black" points="2814.2,-734.55 2822,-741.72 2820.38,-731.25 2814.2,-734.55"/>
<text text-anchor="middle" x="2674.1" y="-286.57" font-family="Times,serif" font-size="14.00">Unknown</text>
</g>
<!-- Resuming -->
<g id="node18" class="node">
<title>Resuming</title>
<path fill="none" stroke="black" d="M2497.6,-602.77C2497.6,-602.77 2561.6,-602.77 2561.6,-602.77 2567.6,-602.77 2573.6,-608.77 2573.6,-614.77 2573.6,-614.77 2573.6,-626.77 2573.6,-626.77 2573.6,-632.77 2567.6,-638.77 2561.6,-638.77 2561.6,-638.77 2497.6,-638.77 2497.6,-638.77 2491.6,-638.77 2485.6,-632.77 2485.6,-626.77 2485.6,-626.77 2485.6,-614.77 2485.6,-614.77 2485.6,-608.77 2491.6,-602.77 2497.6,-602.77"/>
<text text-anchor="middle" x="2529.6" y="-617.07" font-family="Times,serif" font-size="14.00">Resuming</text>
</g>
<!-- Resuming&#45;&gt;Unknown -->
<g id="edge8" class="edge">
<title>Resuming&#45;&gt;Unknown</title>
<path fill="none" stroke="black" d="M2573.96,-623.63C2626.64,-627.71 2711.91,-636.47 2739.6,-651.77 2773.85,-670.7 2801.16,-707.6 2816.98,-732.96"/>
<polygon fill="black" stroke="black" points="2814.11,-734.98 2822.28,-741.72 2820.1,-731.36 2814.11,-734.98"/>
<text text-anchor="middle" x="2674.1" y="-655.57" font-family="Times,serif" font-size="14.00">ResumingFailure</text>
</g>
<!-- Resuming&#45;&gt;Unknown -->
<g id="edge9" class="edge">
<title>Resuming&#45;&gt;Unknown</title>
<path fill="none" stroke="black" d="M2573.68,-605.13C2618.2,-591.79 2688.26,-578.92 2739.6,-607.77 2786.78,-634.29 2812.71,-695.71 2824.37,-731.83"/>
<polygon fill="black" stroke="black" points="2821.13,-733.2 2827.42,-741.73 2827.82,-731.15 2821.13,-733.2"/>
<text text-anchor="middle" x="2674.1" y="-611.57" font-family="Times,serif" font-size="14.00">Unknown</text>
</g>
<!-- Resuming&#45;&gt;Started -->
<g id="edge7" class="edge">
<title>Resuming&#45;&gt;Started</title>
<path fill="none" stroke="black" d="M2573.81,-605.3C2580.89,-601.17 2587.54,-596.05 2592.6,-589.77 2610.72,-567.27 2588.95,-547.95 2608.6,-526.77 2654.56,-477.22 2853.18,-438.09 2908.6,-476.77 2927.62,-490.05 2910.25,-509.31 2926.6,-525.77 2974.77,-574.27 3026.05,-527.93 3070.6,-579.77 3100.5,-614.57 3117.07,-751.89 3123.03,-812.16"/>
<polygon fill="black" stroke="black" points="3119.58,-812.85 3124.02,-822.47 3126.54,-812.18 3119.58,-812.85"/>
<text text-anchor="middle" x="2833.1" y="-480.57" font-family="Times,serif" font-size="14.00">ResumingSuccess</text>
</g>
<!-- Started&#45;&gt;Pausing -->
<g id="edge42" class="edge">
<title>Started&#45;&gt;Pausing</title>
<path fill="none" stroke="black" d="M3124.4,-822.54C3121.28,-789.41 3110.1,-718.93 3070.6,-677.77 2961.49,-564.1 2894.53,-579.47 2739.6,-550.77 2682.35,-540.17 2652.32,-512.33 2608.6,-550.77 2587.73,-569.12 2605.06,-649.94 2592.6,-674.77 2585.9,-688.13 2575,-700.19 2564.2,-709.94"/>
<polygon fill="black" stroke="black" points="2561.73,-707.44 2556.41,-716.61 2566.28,-712.76 2561.73,-707.44"/>
<text text-anchor="middle" x="2833.1" y="-581.57" font-family="Times,serif" font-size="14.00">Pause</text>
</g>
<!-- Started&#45;&gt;Migrating -->
<g id="edge43" class="edge">
<title>Started&#45;&gt;Migrating</title>
<path fill="none" stroke="black" d="M3111.61,-858.99C3101.57,-870.58 3086.97,-884.69 3070.6,-891.77 2979.35,-931.27 2635.05,-937.22 2608.6,-914.77 2575.28,-886.5 2619.22,-852.42 2592.6,-817.77 2589.77,-814.09 2586.35,-810.88 2582.58,-808.08"/>
<polygon fill="black" stroke="black" points="2584.21,-804.97 2573.88,-802.59 2580.47,-810.89 2584.21,-804.97"/>
<text text-anchor="middle" x="2833.1" y="-930.57" font-family="Times,serif" font-size="14.00">Migrate</text>
</g>
<!-- Started&#45;&gt;Stopping -->
<g id="edge44" class="edge">
<title>Started&#45;&gt;Stopping</title>
<path fill="none" stroke="black" d="M3120.89,-858.97C3113.91,-882.14 3098.54,-921.68 3070.6,-942.77 2950.37,-1033.54 2889.36,-999.45 2739.6,-1015.77 2681.72,-1022.08 2657.57,-1047.26 2608.6,-1015.77 2559.32,-984.09 2540.8,-912.74 2534.13,-872.94"/>
<polygon fill="black" stroke="black" points="2537.56,-872.2 2532.58,-862.85 2530.64,-873.26 2537.56,-872.2"/>
<text text-anchor="middle" x="2833.1" y="-1017.57" font-family="Times,serif" font-size="14.00">Stop</text>
</g>
<!-- Stopped&#45;&gt;Templating -->
<g id="edge28" class="edge">
<title>Stopped&#45;&gt;Templating</title>
<path fill="none" stroke="black" d="M3122.9,-1375.12C3117.87,-1401.84 3104.36,-1450.68 3070.6,-1472.77 2984.69,-1528.99 2696.31,-1526.13 2608.6,-1472.77 2568.49,-1448.38 2547.29,-1395.28 2537.55,-1362.23"/>
<polygon fill="black" stroke="black" points="2540.83,-1360.96 2534.78,-1352.26 2534.08,-1362.83 2540.83,-1360.96"/>
<text text-anchor="middle" x="2833.1" y="-1517.57" font-family="Times,serif" font-size="14.00">Template</text>
</g>
<!-- Stopped&#45;&gt;Updating -->
<g id="edge29" class="edge">
<title>Stopped&#45;&gt;Updating</title>
<path fill="none" stroke="black" d="M3116.13,-1374.79C3106.84,-1390.36 3091.1,-1411.88 3070.6,-1421.77 2978.14,-1466.4 2684.9,-1490.47 2608.6,-1421.77 2570.25,-1387.24 2623.52,-1348.09 2592.6,-1306.77 2589.19,-1302.22 2584.88,-1298.39 2580.11,-1295.17"/>
<polygon fill="black" stroke="black" points="2581.57,-1291.97 2571.16,-1290.02 2578.08,-1298.04 2581.57,-1291.97"/>
<text text-anchor="middle" x="2833.1" y="-1467.57" font-family="Times,serif" font-size="14.00">Update</text>
</g>
<!-- Stopped&#45;&gt;Deleting -->
<g id="edge25" class="edge">
<title>Stopped&#45;&gt;Deleting</title>
<path fill="none" stroke="black" d="M3088.27,-1359C2972.56,-1365.74 2626.61,-1384.49 2608.6,-1368.77 2569.05,-1334.27 2624,-1293.83 2592.6,-1251.77 2588.52,-1246.3 2583.12,-1241.88 2577.21,-1238.3"/>
<polygon fill="black" stroke="black" points="2578.76,-1235.16 2568.27,-1233.65 2575.52,-1241.37 2578.76,-1235.16"/>
<text text-anchor="middle" x="2833.1" y="-1377.57" font-family="Times,serif" font-size="14.00">Delete</text>
</g>
<!-- Stopped&#45;&gt;Starting -->
<g id="edge26" class="edge">
<title>Stopped&#45;&gt;Starting</title>
<path fill="none" stroke="black" d="M3088.31,-1350.92C2971.11,-1332.45 2617.41,-1276.14 2608.6,-1267.77 2585.15,-1245.49 2613.04,-1221.84 2592.6,-1196.77 2588.29,-1191.48 2582.76,-1187.16 2576.79,-1183.62"/>
<polygon fill="black" stroke="black" points="2578.31,-1180.47 2567.82,-1179 2575.11,-1186.69 2578.31,-1180.47"/>
<text text-anchor="middle" x="2833.1" y="-1324.57" font-family="Times,serif" font-size="14.00">Start</text>
</g>
<!-- Stopped&#45;&gt;Unknown -->
<g id="edge27" class="edge">
<title>Stopped&#45;&gt;Unknown</title>
<path fill="none" stroke="black" d="M3123.45,-1338.65C3118.98,-1309.11 3105.97,-1250.62 3070.6,-1217.77 3021.47,-1172.14 2967.83,-1225.65 2926.6,-1172.77 2904.91,-1144.95 2920.97,-888.81 2908.6,-855.77 2898.44,-828.63 2877.73,-802.98 2860.72,-785.03"/>
<polygon fill="black" stroke="black" points="2863.18,-782.54 2853.7,-777.82 2858.17,-787.43 2863.18,-782.54"/>
<text text-anchor="middle" x="2998.6" y="-1221.57" font-family="Times,serif" font-size="14.00">Unknown</text>
</g>
<!-- Paused&#45;&gt;Unknown -->
<g id="edge46" class="edge">
<title>Paused&#45;&gt;Unknown</title>
<path fill="none" stroke="black" d="M3103.96,-510.84C3066.94,-541.93 2989.37,-607.91 2926.6,-666.77 2902.95,-688.95 2876.99,-715.23 2858.61,-734.18"/>
<polygon fill="black" stroke="black" points="2855.9,-731.95 2851.47,-741.57 2860.94,-736.81 2855.9,-731.95"/>
<text text-anchor="middle" x="2998.6" y="-670.57" font-family="Times,serif" font-size="14.00">Unknown</text>
</g>
<!-- Paused&#45;&gt;Resuming -->
<g id="edge45" class="edge">
<title>Paused&#45;&gt;Resuming</title>
<path fill="none" stroke="black" d="M3096.05,-474.72C3088,-470.35 3079.14,-466.01 3070.6,-462.77 2974.28,-426.3 2684.88,-356.57 2608.6,-425.77 2581.48,-450.38 2613.34,-559.6 2592.6,-589.77 2589.77,-593.89 2586.22,-597.49 2582.26,-600.63"/>
<polygon fill="black" stroke="black" points="2579.99,-597.95 2573.67,-606.45 2583.91,-603.74 2579.99,-597.95"/>
<text text-anchor="middle" x="2833.1" y="-420.57" font-family="Times,serif" font-size="14.00">Resume</text>
</g>
<!-- init -->
<g id="node23" class="node">
<title>init</title>
<ellipse fill="black" stroke="black" cx="1.8" cy="-535.77" rx="1.8" ry="1.8"/>
</g>
<!-- init&#45;&gt;PreCreating -->
<g id="edge65" class="edge">
<title>init&#45;&gt;PreCreating</title>
<path fill="none" stroke="black" d="M3.8,-535.77C6.99,-535.77 17.47,-535.77 30.14,-535.77"/>
<polygon fill="black" stroke="black" points="30.17,-539.27 40.17,-535.77 30.17,-532.27 30.17,-539.27"/>
</g>
</g>
</svg>
