<?xml version="1.0" encoding="UTF-8" standalone="no"?>
<!DOCTYPE svg PUBLIC "-//W3C//DTD SVG 1.1//EN"
 "http://www.w3.org/Graphics/SVG/1.1/DTD/svg11.dtd">
<!-- Generated by graphviz version 2.42.3 (20191010.1750)
 -->
<!-- Title: %3 Pages: 1 -->
<svg width="3173pt" height="1356pt"
 viewBox="0.00 0.00 3172.60 1355.88" xmlns="http://www.w3.org/2000/svg" xmlns:xlink="http://www.w3.org/1999/xlink">
<g id="graph0" class="graph" transform="scale(1 1) rotate(0) translate(4 1351.88)">
<title>%3</title>
<polygon fill="white" stroke="transparent" points="-4,4 -4,-1351.88 3168.6,-1351.88 3168.6,4 -4,4"/>
<g id="clust1" class="cluster">
<title>cluster_Started</title>
<polygon fill="none" stroke="black" points="2477.6,-1030.88 2477.6,-1217.88 2581.6,-1217.88 2581.6,-1030.88 2477.6,-1030.88"/>
<text text-anchor="middle" x="2529.6" y="-1202.68" font-family="Times,serif" font-size="14.00">Started</text>
</g>
<g id="clust2" class="cluster">
<title>cluster_Paused</title>
<polygon fill="none" stroke="black" points="2477.6,-908.88 2477.6,-985.88 2581.6,-985.88 2581.6,-908.88 2477.6,-908.88"/>
<text text-anchor="middle" x="2529.6" y="-970.68" font-family="Times,serif" font-size="14.00">Paused</text>
</g>
<g id="clust3" class="cluster">
<title>cluster_Creating</title>
<polygon fill="none" stroke="black" points="32.6,-795.88 32.6,-872.88 2592.6,-872.88 2592.6,-795.88 32.6,-795.88"/>
<text text-anchor="middle" x="1312.6" y="-857.68" font-family="Times,serif" font-size="14.00">Creating</text>
</g>
<g id="clust4" class="cluster">
<title>cluster_Stopped</title>
<polygon fill="none" stroke="black" points="2473.1,-136.88 2473.1,-378.88 2586.1,-378.88 2586.1,-136.88 2473.1,-136.88"/>
<text text-anchor="middle" x="2529.6" y="-363.68" font-family="Times,serif" font-size="14.00">Stopped</text>
</g>
<!-- Pausing -->
<g id="node1" class="node">
<title>Pausing</title>
<path fill="none" stroke="black" d="M2505.1,-1094.88C2505.1,-1094.88 2554.1,-1094.88 2554.1,-1094.88 2560.1,-1094.88 2566.1,-1100.88 2566.1,-1106.88 2566.1,-1106.88 2566.1,-1118.88 2566.1,-1118.88 2566.1,-1124.88 2560.1,-1130.88 2554.1,-1130.88 2554.1,-1130.88 2505.1,-1130.88 2505.1,-1130.88 2499.1,-1130.88 2493.1,-1124.88 2493.1,-1118.88 2493.1,-1118.88 2493.1,-1106.88 2493.1,-1106.88 2493.1,-1100.88 2499.1,-1094.88 2505.1,-1094.88"/>
<text text-anchor="middle" x="2529.6" y="-1109.18" font-family="Times,serif" font-size="14.00">Pausing</text>
</g>
<!-- Unknown -->
<g id="node17" class="node">
<title>Unknown</title>
<path fill="none" stroke="black" d="M2803.1,-630.88C2803.1,-630.88 2863.1,-630.88 2863.1,-630.88 2869.1,-630.88 2875.1,-636.88 2875.1,-642.88 2875.1,-642.88 2875.1,-654.88 2875.1,-654.88 2875.1,-660.88 2869.1,-666.88 2863.1,-666.88 2863.1,-666.88 2803.1,-666.88 2803.1,-666.88 2797.1,-666.88 2791.1,-660.88 2791.1,-654.88 2791.1,-654.88 2791.1,-642.88 2791.1,-642.88 2791.1,-636.88 2797.1,-630.88 2803.1,-630.88"/>
<text text-anchor="middle" x="2833.1" y="-645.18" font-family="Times,serif" font-size="14.00">Unknown</text>
</g>
<!-- Pausing&#45;&gt;Unknown -->
<g id="edge2" class="edge">
<title>Pausing&#45;&gt;Unknown</title>
<path fill="none" stroke="black" d="M2566.4,-1100.7C2620.47,-1081.55 2718.86,-1043.4 2739.6,-1012.88 2766.42,-973.41 2744.76,-844.84 2757.6,-798.88 2770.38,-753.14 2797.18,-704.71 2814.9,-675.64"/>
<polygon fill="black" stroke="black" points="2818.02,-677.25 2820.31,-666.9 2812.07,-673.56 2818.02,-677.25"/>
<text text-anchor="middle" x="2674.1" y="-1086.68" font-family="Times,serif" font-size="14.00">PausingFailure</text>
</g>
<!-- Pausing&#45;&gt;Unknown -->
<g id="edge3" class="edge">
<title>Pausing&#45;&gt;Unknown</title>
<path fill="none" stroke="black" d="M2566.12,-1104.29C2576.04,-1100.24 2585.93,-1094.37 2592.6,-1085.88 2618.25,-1053.25 2578.84,-1022.81 2608.6,-993.88 2650.78,-952.87 2698.89,-1017.34 2739.6,-974.88 2766.81,-946.5 2746.68,-836.64 2757.6,-798.88 2770.79,-753.26 2797.47,-704.79 2815.06,-675.68"/>
<polygon fill="black" stroke="black" points="2818.18,-677.29 2820.43,-666.94 2812.22,-673.63 2818.18,-677.29"/>
<text text-anchor="middle" x="2674.1" y="-997.68" font-family="Times,serif" font-size="14.00">Unknown</text>
</g>
<!-- Paused -->
<g id="node19" class="node">
<title>Paused</title>
<path fill="none" stroke="black" d="M3104.6,-859.88C3104.6,-859.88 3148.6,-859.88 3148.6,-859.88 3154.6,-859.88 3160.6,-865.88 3160.6,-871.88 3160.6,-871.88 3160.6,-883.88 3160.6,-883.88 3160.6,-889.88 3154.6,-895.88 3148.6,-895.88 3148.6,-895.88 3104.6,-895.88 3104.6,-895.88 3098.6,-895.88 3092.6,-889.88 3092.6,-883.88 3092.6,-883.88 3092.6,-871.88 3092.6,-871.88 3092.6,-865.88 3098.6,-859.88 3104.6,-859.88"/>
<text text-anchor="middle" x="3126.6" y="-874.18" font-family="Times,serif" font-size="14.00">Paused</text>
</g>
<!-- Pausing&#45;&gt;Paused -->
<g id="edge1" class="edge">
<title>Pausing&#45;&gt;Paused</title>
<path fill="none" stroke="black" d="M2566.19,-1123.7C2575.66,-1127.89 2585.27,-1133.51 2592.6,-1140.88 2604.94,-1153.29 2593.92,-1167.34 2608.6,-1176.88 2657.42,-1208.6 2694.61,-1213.84 2739.6,-1176.88 2771.46,-1150.7 2729.95,-1116.46 2757.6,-1085.88 2804.66,-1033.84 2845.69,-1070.93 2908.6,-1039.88 2988.01,-1000.68 3000.59,-978.1 3070.6,-923.88 3079.33,-917.12 3088.61,-909.52 3097.01,-902.48"/>
<polygon fill="black" stroke="black" points="3099.37,-905.07 3104.75,-895.95 3094.85,-899.72 3099.37,-905.07"/>
<text text-anchor="middle" x="2833.1" y="-1089.68" font-family="Times,serif" font-size="14.00">PausingSuccess</text>
</g>
<!-- Migrating -->
<g id="node2" class="node">
<title>Migrating</title>
<path fill="none" stroke="black" d="M2497.6,-1149.88C2497.6,-1149.88 2561.6,-1149.88 2561.6,-1149.88 2567.6,-1149.88 2573.6,-1155.88 2573.6,-1161.88 2573.6,-1161.88 2573.6,-1173.88 2573.6,-1173.88 2573.6,-1179.88 2567.6,-1185.88 2561.6,-1185.88 2561.6,-1185.88 2497.6,-1185.88 2497.6,-1185.88 2491.6,-1185.88 2485.6,-1179.88 2485.6,-1173.88 2485.6,-1173.88 2485.6,-1161.88 2485.6,-1161.88 2485.6,-1155.88 2491.6,-1149.88 2497.6,-1149.88"/>
<text text-anchor="middle" x="2529.6" y="-1164.18" font-family="Times,serif" font-size="14.00">Migrating</text>
</g>
<!-- Migrating&#45;&gt;Unknown -->
<g id="edge54" class="edge">
<title>Migrating&#45;&gt;Unknown</title>
<path fill="none" stroke="black" d="M2573.85,-1151.76C2580.37,-1148.57 2586.84,-1144.93 2592.6,-1140.88 2601.09,-1134.91 2599.47,-1128.8 2608.6,-1123.88 2660.62,-1095.81 2700.26,-1144.99 2739.6,-1100.88 2761.97,-1075.79 2748.95,-831.36 2757.6,-798.88 2769.75,-753.24 2796.47,-705.13 2814.39,-676.06"/>
<polygon fill="black" stroke="black" points="2817.52,-677.65 2819.86,-667.32 2811.59,-673.93 2817.52,-677.65"/>
<text text-anchor="middle" x="2674.1" y="-1127.68" font-family="Times,serif" font-size="14.00">MigratingFailure</text>
</g>
<!-- Migrating&#45;&gt;Unknown -->
<g id="edge55" class="edge">
<title>Migrating&#45;&gt;Unknown</title>
<path fill="none" stroke="black" d="M2573.81,-1176.14C2621.89,-1182.55 2698.22,-1183.93 2739.6,-1138.88 2765.19,-1111.01 2747.99,-835.47 2757.6,-798.88 2769.6,-753.2 2796.36,-705.1 2814.32,-676.04"/>
<polygon fill="black" stroke="black" points="2817.46,-677.63 2819.82,-667.3 2811.53,-673.91 2817.46,-677.63"/>
<text text-anchor="middle" x="2674.1" y="-1182.68" font-family="Times,serif" font-size="14.00">Unknown</text>
</g>
<!-- Started -->
<g id="node21" class="node">
<title>Started</title>
<path fill="none" stroke="black" d="M3103.1,-1143.88C3103.1,-1143.88 3150.1,-1143.88 3150.1,-1143.88 3156.1,-1143.88 3162.1,-1149.88 3162.1,-1155.88 3162.1,-1155.88 3162.1,-1167.88 3162.1,-1167.88 3162.1,-1173.88 3156.1,-1179.88 3150.1,-1179.88 3150.1,-1179.88 3103.1,-1179.88 3103.1,-1179.88 3097.1,-1179.88 3091.1,-1173.88 3091.1,-1167.88 3091.1,-1167.88 3091.1,-1155.88 3091.1,-1155.88 3091.1,-1149.88 3097.1,-1143.88 3103.1,-1143.88"/>
<text text-anchor="middle" x="3126.6" y="-1158.18" font-family="Times,serif" font-size="14.00">Started</text>
</g>
<!-- Migrating&#45;&gt;Started -->
<g id="edge53" class="edge">
<title>Migrating&#45;&gt;Started</title>
<path fill="none" stroke="black" d="M2534.82,-1186.24C2543.03,-1217.2 2564.36,-1279.06 2608.6,-1305.88 2722.64,-1375 2775.26,-1312.93 2908.6,-1310.88 2980.63,-1309.77 3011.91,-1347.64 3070.6,-1305.88 3107.89,-1279.35 3119.9,-1224.01 3123.77,-1190.19"/>
<polygon fill="black" stroke="black" points="3127.27,-1190.32 3124.76,-1180.03 3120.3,-1189.64 3127.27,-1190.32"/>
<text text-anchor="middle" x="2833.1" y="-1336.68" font-family="Times,serif" font-size="14.00">MigratingSuccess</text>
</g>
<!-- Stopping -->
<g id="node3" class="node">
<title>Stopping</title>
<path fill="none" stroke="black" d="M2501.1,-1039.88C2501.1,-1039.88 2558.1,-1039.88 2558.1,-1039.88 2564.1,-1039.88 2570.1,-1045.88 2570.1,-1051.88 2570.1,-1051.88 2570.1,-1063.88 2570.1,-1063.88 2570.1,-1069.88 2564.1,-1075.88 2558.1,-1075.88 2558.1,-1075.88 2501.1,-1075.88 2501.1,-1075.88 2495.1,-1075.88 2489.1,-1069.88 2489.1,-1063.88 2489.1,-1063.88 2489.1,-1051.88 2489.1,-1051.88 2489.1,-1045.88 2495.1,-1039.88 2501.1,-1039.88"/>
<text text-anchor="middle" x="2529.6" y="-1054.18" font-family="Times,serif" font-size="14.00">Stopping</text>
</g>
<!-- Stopping&#45;&gt;Unknown -->
<g id="edge37" class="edge">
<title>Stopping&#45;&gt;Unknown</title>
<path fill="none" stroke="black" d="M2549.59,-1039.62C2562.62,-1026.51 2579.79,-1008.02 2592.6,-989.88 2601.31,-977.53 2597.2,-969.8 2608.6,-959.88 2655.38,-919.18 2700.19,-959.75 2739.6,-911.88 2771.92,-872.61 2742.11,-847.32 2757.6,-798.88 2772.06,-753.64 2798.4,-705.07 2815.56,-675.83"/>
<polygon fill="black" stroke="black" points="2818.69,-677.43 2820.79,-667.05 2812.67,-673.85 2818.69,-677.43"/>
<text text-anchor="middle" x="2674.1" y="-963.68" font-family="Times,serif" font-size="14.00">Unknown</text>
</g>
<!-- Stopping&#45;&gt;Unknown -->
<g id="edge39" class="edge">
<title>Stopping&#45;&gt;Unknown</title>
<path fill="none" stroke="black" d="M2552.75,-1039.67C2566.46,-1027.13 2583.19,-1009.28 2592.6,-989.88 2611.66,-950.56 2577.41,-923.47 2608.6,-892.88 2650.6,-851.68 2696.14,-913.53 2739.6,-873.88 2764.92,-850.77 2745.9,-831.1 2757.6,-798.88 2773.81,-754.24 2799.66,-705.5 2816.25,-676.07"/>
<polygon fill="black" stroke="black" points="2819.38,-677.64 2821.29,-667.22 2813.3,-674.18 2819.38,-677.64"/>
<text text-anchor="middle" x="2674.1" y="-896.68" font-family="Times,serif" font-size="14.00">StoppingFailure</text>
</g>
<!-- Stopped -->
<g id="node20" class="node">
<title>Stopped</title>
<path fill="none" stroke="black" d="M3100.6,-213.88C3100.6,-213.88 3152.6,-213.88 3152.6,-213.88 3158.6,-213.88 3164.6,-219.88 3164.6,-225.88 3164.6,-225.88 3164.6,-237.88 3164.6,-237.88 3164.6,-243.88 3158.6,-249.88 3152.6,-249.88 3152.6,-249.88 3100.6,-249.88 3100.6,-249.88 3094.6,-249.88 3088.6,-243.88 3088.6,-237.88 3088.6,-237.88 3088.6,-225.88 3088.6,-225.88 3088.6,-219.88 3094.6,-213.88 3100.6,-213.88"/>
<text text-anchor="middle" x="3126.6" y="-228.18" font-family="Times,serif" font-size="14.00">Stopped</text>
</g>
<!-- Stopping&#45;&gt;Stopped -->
<g id="edge38" class="edge">
<title>Stopping&#45;&gt;Stopped</title>
<path fill="none" stroke="black" d="M2570.27,-1067.15C2614.76,-1075.27 2687.5,-1081.54 2739.6,-1050.88 2753,-1042.99 2745.55,-1030.7 2757.6,-1020.88 2812.73,-975.93 2857.78,-1017.63 2908.6,-967.88 2924.88,-951.94 2911.26,-936.72 2926.6,-919.88 2974.51,-867.26 3031.79,-909.52 3070.6,-849.88 3101.46,-802.44 3078.4,-396.54 3088.6,-340.88 3093.83,-312.37 3105.01,-281.18 3113.72,-259.49"/>
<polygon fill="black" stroke="black" points="3117.07,-260.53 3117.64,-249.95 3110.6,-257.87 3117.07,-260.53"/>
<text text-anchor="middle" x="2833.1" y="-1024.68" font-family="Times,serif" font-size="14.00">StoppingSuccess</text>
</g>
<!-- Resuming -->
<g id="node4" class="node">
<title>Resuming</title>
<path fill="none" stroke="black" d="M2497.6,-917.88C2497.6,-917.88 2561.6,-917.88 2561.6,-917.88 2567.6,-917.88 2573.6,-923.88 2573.6,-929.88 2573.6,-929.88 2573.6,-941.88 2573.6,-941.88 2573.6,-947.88 2567.6,-953.88 2561.6,-953.88 2561.6,-953.88 2497.6,-953.88 2497.6,-953.88 2491.6,-953.88 2485.6,-947.88 2485.6,-941.88 2485.6,-941.88 2485.6,-929.88 2485.6,-929.88 2485.6,-923.88 2491.6,-917.88 2497.6,-917.88"/>
<text text-anchor="middle" x="2529.6" y="-932.18" font-family="Times,serif" font-size="14.00">Resuming</text>
</g>
<!-- Resuming&#45;&gt;Unknown -->
<g id="edge50" class="edge">
<title>Resuming&#45;&gt;Unknown</title>
<path fill="none" stroke="black" d="M2555.14,-917.82C2567.98,-907.21 2582.98,-892.77 2592.6,-876.88 2606,-854.73 2590.72,-839.59 2608.6,-820.88 2651.03,-776.47 2690.14,-813.29 2739.6,-776.88 2775.9,-750.15 2803.73,-704.96 2818.99,-676.04"/>
<polygon fill="black" stroke="black" points="2822.23,-677.4 2823.68,-666.91 2816,-674.21 2822.23,-677.4"/>
<text text-anchor="middle" x="2674.1" y="-824.68" font-family="Times,serif" font-size="14.00">Unknown</text>
</g>
<!-- Resuming&#45;&gt;Unknown -->
<g id="edge52" class="edge">
<title>Resuming&#45;&gt;Unknown</title>
<path fill="none" stroke="black" d="M2550.55,-917.68C2562.91,-906.22 2578.97,-890.98 2592.6,-876.88 2600.04,-869.18 2599.25,-864.09 2608.6,-858.88 2660.22,-830.07 2692.4,-871.46 2739.6,-835.88 2754.2,-824.87 2749.53,-815.29 2757.6,-798.88 2778.67,-756.02 2803.36,-706.42 2818.36,-676.36"/>
<polygon fill="black" stroke="black" points="2821.54,-677.84 2822.88,-667.33 2815.28,-674.71 2821.54,-677.84"/>
<text text-anchor="middle" x="2674.1" y="-862.68" font-family="Times,serif" font-size="14.00">ResumingFailure</text>
</g>
<!-- Resuming&#45;&gt;Started -->
<g id="edge51" class="edge">
<title>Resuming&#45;&gt;Started</title>
<path fill="none" stroke="black" d="M2545.31,-954.09C2559.04,-971.82 2579.36,-999.94 2592.6,-1026.88 2602.71,-1047.44 2591.29,-1060.87 2608.6,-1075.88 2617.59,-1083.66 2956.88,-1136.12 3080.84,-1155.06"/>
<polygon fill="black" stroke="black" points="3080.36,-1158.53 3090.78,-1156.58 3081.42,-1151.61 3080.36,-1158.53"/>
<text text-anchor="middle" x="2833.1" y="-1130.68" font-family="Times,serif" font-size="14.00">ResumingSuccess</text>
</g>
<!-- Deleting -->
<g id="node5" class="node">
<title>Deleting</title>
<path fill="none" stroke="black" d="M2503.1,-255.88C2503.1,-255.88 2556.1,-255.88 2556.1,-255.88 2562.1,-255.88 2568.1,-261.88 2568.1,-267.88 2568.1,-267.88 2568.1,-279.88 2568.1,-279.88 2568.1,-285.88 2562.1,-291.88 2556.1,-291.88 2556.1,-291.88 2503.1,-291.88 2503.1,-291.88 2497.1,-291.88 2491.1,-285.88 2491.1,-279.88 2491.1,-279.88 2491.1,-267.88 2491.1,-267.88 2491.1,-261.88 2497.1,-255.88 2503.1,-255.88"/>
<text text-anchor="middle" x="2529.6" y="-270.18" font-family="Times,serif" font-size="14.00">Deleting</text>
</g>
<!-- Deleting&#45;&gt;Unknown -->
<g id="edge57" class="edge">
<title>Deleting&#45;&gt;Unknown</title>
<path fill="none" stroke="black" d="M2568.31,-283.48C2577.45,-287.48 2586.38,-293.07 2592.6,-300.88 2616.56,-330.93 2583.06,-357.15 2608.6,-385.88 2649.14,-431.47 2694.53,-385.76 2739.6,-426.88 2797.26,-479.49 2820.03,-573.64 2828.12,-620.61"/>
<polygon fill="black" stroke="black" points="2824.7,-621.38 2829.76,-630.69 2831.61,-620.26 2824.7,-621.38"/>
<text text-anchor="middle" x="2674.1" y="-430.68" font-family="Times,serif" font-size="14.00">DeletingFailure</text>
</g>
<!-- Deleting&#45;&gt;Unknown -->
<g id="edge58" class="edge">
<title>Deleting&#45;&gt;Unknown</title>
<path fill="none" stroke="black" d="M2568.13,-284.47C2577.06,-288.44 2585.93,-293.78 2592.6,-300.88 2606.85,-316.04 2592.61,-331.56 2608.6,-344.88 2653.97,-382.65 2695.97,-327.1 2739.6,-366.88 2762.7,-387.94 2748.45,-404.98 2757.6,-434.88 2778.29,-502.5 2806.66,-580.68 2821.72,-621.24"/>
<polygon fill="black" stroke="black" points="2818.48,-622.56 2825.25,-630.71 2825.04,-620.12 2818.48,-622.56"/>
<text text-anchor="middle" x="2674.1" y="-370.68" font-family="Times,serif" font-size="14.00">Unknown</text>
</g>
<!-- Deleted -->
<g id="node22" class="node">
<title>Deleted</title>
<path fill="none" stroke="black" d="M3102.6,-350.88C3102.6,-350.88 3150.6,-350.88 3150.6,-350.88 3156.6,-350.88 3162.6,-356.88 3162.6,-362.88 3162.6,-362.88 3162.6,-374.88 3162.6,-374.88 3162.6,-380.88 3156.6,-386.88 3150.6,-386.88 3150.6,-386.88 3102.6,-386.88 3102.6,-386.88 3096.6,-386.88 3090.6,-380.88 3090.6,-374.88 3090.6,-374.88 3090.6,-362.88 3090.6,-362.88 3090.6,-356.88 3096.6,-350.88 3102.6,-350.88"/>
<text text-anchor="middle" x="3126.6" y="-365.18" font-family="Times,serif" font-size="14.00">Deleted</text>
</g>
<!-- Deleting&#45;&gt;Deleted -->
<g id="edge56" class="edge">
<title>Deleting&#45;&gt;Deleted</title>
<path fill="none" stroke="black" d="M2568.19,-286.94C2576.64,-290.76 2585.26,-295.4 2592.6,-300.88 2601.45,-307.48 2598.74,-314.92 2608.6,-319.88 2700.5,-366.06 2970.06,-326.17 3070.6,-347.88 3074,-348.61 3077.47,-349.52 3080.93,-350.55"/>
<polygon fill="black" stroke="black" points="3079.99,-353.92 3090.58,-353.7 3082.16,-347.27 3079.99,-353.92"/>
<text text-anchor="middle" x="2833.1" y="-347.68" font-family="Times,serif" font-size="14.00">DeletingSuccess</text>
</g>
<!-- PostCreating -->
<g id="node6" class="node">
<title>PostCreating</title>
<path fill="none" stroke="black" d="M2486.6,-804.88C2486.6,-804.88 2572.6,-804.88 2572.6,-804.88 2578.6,-804.88 2584.6,-810.88 2584.6,-816.88 2584.6,-816.88 2584.6,-828.88 2584.6,-828.88 2584.6,-834.88 2578.6,-840.88 2572.6,-840.88 2572.6,-840.88 2486.6,-840.88 2486.6,-840.88 2480.6,-840.88 2474.6,-834.88 2474.6,-828.88 2474.6,-828.88 2474.6,-816.88 2474.6,-816.88 2474.6,-810.88 2480.6,-804.88 2486.6,-804.88"/>
<text text-anchor="middle" x="2529.6" y="-819.18" font-family="Times,serif" font-size="14.00">PostCreating</text>
</g>
<!-- PostCreating&#45;&gt;Unknown -->
<g id="edge61" class="edge">
<title>PostCreating&#45;&gt;Unknown</title>
<path fill="none" stroke="black" d="M2573.08,-804.85C2580.14,-800.62 2586.98,-795.64 2592.6,-789.88 2603.7,-778.49 2595.85,-767.38 2608.6,-757.88 2656,-722.55 2686.67,-761.19 2739.6,-734.88 2768.42,-720.55 2794.6,-694.38 2811.69,-674.66"/>
<polygon fill="black" stroke="black" points="2814.45,-676.82 2818.22,-666.92 2809.1,-672.3 2814.45,-676.82"/>
<text text-anchor="middle" x="2674.1" y="-761.68" font-family="Times,serif" font-size="14.00">Unknown</text>
</g>
<!-- CreatingFailed -->
<g id="node18" class="node">
<title>CreatingFailed</title>
<path fill="none" stroke="black" d="M2480.6,-541.88C2480.6,-541.88 2578.6,-541.88 2578.6,-541.88 2584.6,-541.88 2590.6,-547.88 2590.6,-553.88 2590.6,-553.88 2590.6,-565.88 2590.6,-565.88 2590.6,-571.88 2584.6,-577.88 2578.6,-577.88 2578.6,-577.88 2480.6,-577.88 2480.6,-577.88 2474.6,-577.88 2468.6,-571.88 2468.6,-565.88 2468.6,-565.88 2468.6,-553.88 2468.6,-553.88 2468.6,-547.88 2474.6,-541.88 2480.6,-541.88"/>
<text text-anchor="middle" x="2529.6" y="-556.18" font-family="Times,serif" font-size="14.00">CreatingFailed</text>
</g>
<!-- PostCreating&#45;&gt;CreatingFailed -->
<g id="edge60" class="edge">
<title>PostCreating&#45;&gt;CreatingFailed</title>
<path fill="none" stroke="black" d="M2474.42,-809.28C2423.06,-793.36 2349.48,-761.45 2315.6,-703.38 2277.63,-638.3 2382.27,-596.73 2458.29,-575.92"/>
<polygon fill="black" stroke="black" points="2459.58,-579.19 2468.34,-573.24 2457.78,-572.43 2459.58,-579.19"/>
<text text-anchor="middle" x="2359.6" y="-692.18" font-family="Times,serif" font-size="14.00">PostCreatingFailure</text>
</g>
<!-- PostCreating&#45;&gt;Started -->
<g id="edge59" class="edge">
<title>PostCreating&#45;&gt;Started</title>
<path fill="none" stroke="black" d="M2584.93,-805.73C2627.76,-794.92 2688.56,-785.62 2739.6,-800.88 2922.96,-855.71 3063.77,-1060.84 3109.65,-1134.95"/>
<polygon fill="black" stroke="black" points="3106.81,-1137.01 3115.01,-1143.72 3112.78,-1133.36 3106.81,-1137.01"/>
<text text-anchor="middle" x="2833.1" y="-896.68" font-family="Times,serif" font-size="14.00">PostCreatingSuccess</text>
</g>
<!-- CreatingPreXML -->
<g id="node7" class="node">
<title>CreatingPreXML</title>
<path fill="none" stroke="black" d="M337.6,-804.88C337.6,-804.88 450.6,-804.88 450.6,-804.88 456.6,-804.88 462.6,-810.88 462.6,-816.88 462.6,-816.88 462.6,-828.88 462.6,-828.88 462.6,-834.88 456.6,-840.88 450.6,-840.88 450.6,-840.88 337.6,-840.88 337.6,-840.88 331.6,-840.88 325.6,-834.88 325.6,-828.88 325.6,-828.88 325.6,-816.88 325.6,-816.88 325.6,-810.88 331.6,-804.88 337.6,-804.88"/>
<text text-anchor="middle" x="394.1" y="-819.18" font-family="Times,serif" font-size="14.00">CreatingPreXML</text>
</g>
<!-- CreatingXML -->
<g id="node10" class="node">
<title>CreatingXML</title>
<path fill="none" stroke="black" d="M688.6,-804.88C688.6,-804.88 776.6,-804.88 776.6,-804.88 782.6,-804.88 788.6,-810.88 788.6,-816.88 788.6,-816.88 788.6,-828.88 788.6,-828.88 788.6,-834.88 782.6,-840.88 776.6,-840.88 776.6,-840.88 688.6,-840.88 688.6,-840.88 682.6,-840.88 676.6,-834.88 676.6,-828.88 676.6,-828.88 676.6,-816.88 676.6,-816.88 676.6,-810.88 682.6,-804.88 688.6,-804.88"/>
<text text-anchor="middle" x="732.6" y="-819.18" font-family="Times,serif" font-size="14.00">CreatingXML</text>
</g>
<!-- CreatingPreXML&#45;&gt;CreatingXML -->
<g id="edge11" class="edge">
<title>CreatingPreXML&#45;&gt;CreatingXML</title>
<path fill="none" stroke="black" d="M462.79,-822.88C522.09,-822.88 607.7,-822.88 666.28,-822.88"/>
<polygon fill="black" stroke="black" points="666.52,-826.38 676.52,-822.88 666.52,-819.38 666.52,-826.38"/>
<text text-anchor="middle" x="569.6" y="-826.68" font-family="Times,serif" font-size="14.00">CreatingPreXMLSuccess</text>
</g>
<!-- CreatingPreXML&#45;&gt;Unknown -->
<g id="edge10" class="edge">
<title>CreatingPreXML&#45;&gt;Unknown</title>
<path fill="none" stroke="black" d="M397.39,-804.62C405.57,-742.31 435.29,-539.44 480.6,-494.88 562.45,-414.37 616.8,-433.88 731.6,-433.88 731.6,-433.88 731.6,-433.88 1618.6,-433.88 1988.8,-433.88 2138.76,-194.35 2450.6,-393.88 2466.68,-404.17 2456.82,-417.85 2468.6,-432.88 2512.1,-488.38 2539.28,-485.72 2592.6,-531.88 2599.97,-538.26 2599.96,-542.36 2608.6,-546.88 2661.36,-574.47 2685.8,-549.37 2739.6,-574.88 2765.06,-586.95 2789.77,-607.29 2807.23,-623.6"/>
<polygon fill="black" stroke="black" points="2805.07,-626.38 2814.72,-630.77 2809.91,-621.32 2805.07,-626.38"/>
<text text-anchor="middle" x="1617.6" y="-437.68" font-family="Times,serif" font-size="14.00">Unknown</text>
</g>
<!-- CreatingPreXML&#45;&gt;CreatingFailed -->
<g id="edge12" class="edge">
<title>CreatingPreXML&#45;&gt;CreatingFailed</title>
<path fill="none" stroke="black" d="M402.3,-804.44C431.47,-733.19 548.08,-479.88 731.6,-479.88 731.6,-479.88 731.6,-479.88 1231.6,-479.88 1356.05,-479.88 1387.22,-476.88 1511.6,-480.88 1929.49,-494.3 2038.37,-468.06 2450.6,-537.88 2453.62,-538.39 2456.7,-538.97 2459.79,-539.61"/>
<polygon fill="black" stroke="black" points="2459.18,-543.06 2469.71,-541.83 2460.71,-536.23 2459.18,-543.06"/>
<text text-anchor="middle" x="1426.1" y="-484.68" font-family="Times,serif" font-size="14.00">CreatingPreXMLFailure</text>
</g>
<!-- Templating -->
<g id="node8" class="node">
<title>Templating</title>
<path fill="none" stroke="black" d="M2493.1,-200.88C2493.1,-200.88 2566.1,-200.88 2566.1,-200.88 2572.1,-200.88 2578.1,-206.88 2578.1,-212.88 2578.1,-212.88 2578.1,-224.88 2578.1,-224.88 2578.1,-230.88 2572.1,-236.88 2566.1,-236.88 2566.1,-236.88 2493.1,-236.88 2493.1,-236.88 2487.1,-236.88 2481.1,-230.88 2481.1,-224.88 2481.1,-224.88 2481.1,-212.88 2481.1,-212.88 2481.1,-206.88 2487.1,-200.88 2493.1,-200.88"/>
<text text-anchor="middle" x="2529.6" y="-215.18" font-family="Times,serif" font-size="14.00">Templating</text>
</g>
<!-- Templating&#45;&gt;Unknown -->
<g id="edge5" class="edge">
<title>Templating&#45;&gt;Unknown</title>
<path fill="none" stroke="black" d="M2574.8,-236.88C2580.87,-239.71 2586.95,-242.74 2592.6,-245.88 2600.15,-250.06 2601.21,-252.41 2608.6,-256.88 2664.92,-290.91 2701.11,-272.5 2739.6,-325.88 2768.32,-365.7 2745.48,-387.29 2757.6,-434.88 2775.01,-503.23 2804.58,-580.82 2820.73,-621.17"/>
<polygon fill="black" stroke="black" points="2817.55,-622.63 2824.54,-630.6 2824.04,-620.01 2817.55,-622.63"/>
<text text-anchor="middle" x="2674.1" y="-329.68" font-family="Times,serif" font-size="14.00">TemplatingFailure</text>
</g>
<!-- Templating&#45;&gt;Unknown -->
<g id="edge6" class="edge">
<title>Templating&#45;&gt;Unknown</title>
<path fill="none" stroke="black" d="M2578.44,-207.65C2626.14,-199.58 2698.11,-196.41 2739.6,-237.88 2770.69,-268.95 2748.3,-391.91 2757.6,-434.88 2772.52,-503.82 2803.08,-581.17 2820.06,-621.33"/>
<polygon fill="black" stroke="black" points="2816.92,-622.89 2824.07,-630.71 2823.36,-620.14 2816.92,-622.89"/>
<text text-anchor="middle" x="2674.1" y="-241.68" font-family="Times,serif" font-size="14.00">Unknown</text>
</g>
<!-- Templating&#45;&gt;Stopped -->
<g id="edge4" class="edge">
<title>Templating&#45;&gt;Stopped</title>
<path fill="none" stroke="black" d="M2578.21,-203.52C2583.7,-200.09 2588.71,-195.93 2592.6,-190.88 2618.74,-156.97 2575.91,-123.52 2608.6,-95.88 2653.06,-58.28 2681.7,-89.74 2739.6,-95.88 2889.22,-111.74 2941.55,-89.53 3070.6,-166.88 3086.31,-176.29 3099.69,-191.81 3109.32,-205.33"/>
<polygon fill="black" stroke="black" points="3106.58,-207.52 3115.1,-213.83 3112.38,-203.59 3106.58,-207.52"/>
<text text-anchor="middle" x="2833.1" y="-111.68" font-family="Times,serif" font-size="14.00">TemplatingSuccess</text>
</g>
<!-- PreCreating -->
<g id="node9" class="node">
<title>PreCreating</title>
<path fill="none" stroke="black" d="M52.6,-804.88C52.6,-804.88 132.6,-804.88 132.6,-804.88 138.6,-804.88 144.6,-810.88 144.6,-816.88 144.6,-816.88 144.6,-828.88 144.6,-828.88 144.6,-834.88 138.6,-840.88 132.6,-840.88 132.6,-840.88 52.6,-840.88 52.6,-840.88 46.6,-840.88 40.6,-834.88 40.6,-828.88 40.6,-828.88 40.6,-816.88 40.6,-816.88 40.6,-810.88 46.6,-804.88 52.6,-804.88"/>
<text text-anchor="middle" x="92.6" y="-819.18" font-family="Times,serif" font-size="14.00">PreCreating</text>
</g>
<!-- PreCreating&#45;&gt;CreatingPreXML -->
<g id="edge8" class="edge">
<title>PreCreating&#45;&gt;CreatingPreXML</title>
<path fill="none" stroke="black" d="M144.75,-822.88C191.6,-822.88 261.63,-822.88 315.39,-822.88"/>
<polygon fill="black" stroke="black" points="315.58,-826.38 325.58,-822.88 315.58,-819.38 315.58,-826.38"/>
<text text-anchor="middle" x="235.1" y="-826.68" font-family="Times,serif" font-size="14.00">PreCreatingSuccess</text>
</g>
<!-- PreCreating&#45;&gt;Unknown -->
<g id="edge7" class="edge">
<title>PreCreating&#45;&gt;Unknown</title>
<path fill="none" stroke="black" d="M93.5,-804.78C93.42,-725.25 97.27,-407.64 162.6,-338.88 234.49,-263.2 288.72,-293.88 393.1,-293.88 393.1,-293.88 393.1,-293.88 2004.1,-293.88 2202.79,-293.88 2295.96,-191.13 2450.6,-315.88 2474.6,-335.24 2448.15,-359.8 2468.6,-382.88 2508,-427.35 2555.11,-386.77 2592.6,-432.88 2617.96,-464.06 2580.65,-493 2608.6,-521.88 2650.01,-564.66 2687.78,-520.55 2739.6,-549.88 2771,-567.65 2797.99,-599.67 2814.57,-622.48"/>
<polygon fill="black" stroke="black" points="2811.77,-624.58 2820.4,-630.72 2817.48,-620.54 2811.77,-624.58"/>
<text text-anchor="middle" x="1426.1" y="-297.68" font-family="Times,serif" font-size="14.00">Unknown</text>
</g>
<!-- PreCreating&#45;&gt;CreatingFailed -->
<g id="edge9" class="edge">
<title>PreCreating&#45;&gt;CreatingFailed</title>
<path fill="none" stroke="black" d="M93.63,-804.74C94.14,-729.25 100.23,-441.12 162.6,-381.88 237.28,-310.94 290.1,-357.88 393.1,-357.88 393.1,-357.88 393.1,-357.88 1813.1,-357.88 1954.99,-357.88 2344.59,-299.56 2450.6,-393.88 2485.32,-424.77 2447.68,-455.38 2468.6,-496.88 2475.78,-511.12 2487.25,-524.34 2498.25,-534.95"/>
<polygon fill="black" stroke="black" points="2496.01,-537.64 2505.73,-541.86 2500.76,-532.5 2496.01,-537.64"/>
<text text-anchor="middle" x="1230.6" y="-361.68" font-family="Times,serif" font-size="14.00">PreCreatingFailure</text>
</g>
<!-- CreatingPostXML -->
<g id="node11" class="node">
<title>CreatingPostXML</title>
<path fill="none" stroke="black" d="M989.6,-804.88C989.6,-804.88 1108.6,-804.88 1108.6,-804.88 1114.6,-804.88 1120.6,-810.88 1120.6,-816.88 1120.6,-816.88 1120.6,-828.88 1120.6,-828.88 1120.6,-834.88 1114.6,-840.88 1108.6,-840.88 1108.6,-840.88 989.6,-840.88 989.6,-840.88 983.6,-840.88 977.6,-834.88 977.6,-828.88 977.6,-828.88 977.6,-816.88 977.6,-816.88 977.6,-810.88 983.6,-804.88 989.6,-804.88"/>
<text text-anchor="middle" x="1049.1" y="-819.18" font-family="Times,serif" font-size="14.00">CreatingPostXML</text>
</g>
<!-- CreatingXML&#45;&gt;CreatingPostXML -->
<g id="edge30" class="edge">
<title>CreatingXML&#45;&gt;CreatingPostXML</title>
<path fill="none" stroke="black" d="M788.74,-822.88C838.16,-822.88 911.29,-822.88 967.31,-822.88"/>
<polygon fill="black" stroke="black" points="967.56,-826.38 977.56,-822.88 967.56,-819.38 967.56,-826.38"/>
<text text-anchor="middle" x="883.1" y="-826.68" font-family="Times,serif" font-size="14.00">CreatingXMLSuccess</text>
</g>
<!-- CreatingXML&#45;&gt;Unknown -->
<g id="edge32" class="edge">
<title>CreatingXML&#45;&gt;Unknown</title>
<path fill="none" stroke="black" d="M743.73,-804.59C778.03,-745.41 896.14,-562.88 1048.1,-562.88 1048.1,-562.88 1048.1,-562.88 1618.6,-562.88 1743.93,-562.88 1775.4,-557.11 1900.6,-562.88 2237.33,-578.39 2640.35,-625.28 2780.83,-642.47"/>
<polygon fill="black" stroke="black" points="2780.52,-645.96 2790.88,-643.7 2781.38,-639.01 2780.52,-645.96"/>
<text text-anchor="middle" x="1812.1" y="-566.68" font-family="Times,serif" font-size="14.00">Unknown</text>
</g>
<!-- CreatingXML&#45;&gt;CreatingFailed -->
<g id="edge31" class="edge">
<title>CreatingXML&#45;&gt;CreatingFailed</title>
<path fill="none" stroke="black" d="M735.64,-804.63C742.32,-748.65 765.46,-581.18 806.6,-548.88 937.9,-445.8 2150.73,-530.95 2458.07,-554.35"/>
<polygon fill="black" stroke="black" points="2457.95,-557.85 2468.19,-555.12 2458.49,-550.87 2457.95,-557.85"/>
<text text-anchor="middle" x="1617.6" y="-513.68" font-family="Times,serif" font-size="14.00">CreatingXMLFailure</text>
</g>
<!-- CreatingPreDisk -->
<g id="node16" class="node">
<title>CreatingPreDisk</title>
<path fill="none" stroke="black" d="M1370.6,-804.88C1370.6,-804.88 1481.6,-804.88 1481.6,-804.88 1487.6,-804.88 1493.6,-810.88 1493.6,-816.88 1493.6,-816.88 1493.6,-828.88 1493.6,-828.88 1493.6,-834.88 1487.6,-840.88 1481.6,-840.88 1481.6,-840.88 1370.6,-840.88 1370.6,-840.88 1364.6,-840.88 1358.6,-834.88 1358.6,-828.88 1358.6,-828.88 1358.6,-816.88 1358.6,-816.88 1358.6,-810.88 1364.6,-804.88 1370.6,-804.88"/>
<text text-anchor="middle" x="1426.1" y="-819.18" font-family="Times,serif" font-size="14.00">CreatingPreDisk</text>
</g>
<!-- CreatingPostXML&#45;&gt;CreatingPreDisk -->
<g id="edge13" class="edge">
<title>CreatingPostXML&#45;&gt;CreatingPreDisk</title>
<path fill="none" stroke="black" d="M1120.63,-822.88C1185.51,-822.88 1281.51,-822.88 1348.3,-822.88"/>
<polygon fill="black" stroke="black" points="1348.35,-826.38 1358.35,-822.88 1348.35,-819.38 1348.35,-826.38"/>
<text text-anchor="middle" x="1230.6" y="-826.68" font-family="Times,serif" font-size="14.00">CreatingPostXMLSuccess</text>
</g>
<!-- CreatingPostXML&#45;&gt;Unknown -->
<g id="edge15" class="edge">
<title>CreatingPostXML&#45;&gt;Unknown</title>
<path fill="none" stroke="black" d="M1120.64,-813.39C1268.45,-793.72 1621.52,-747.73 1918.6,-716.88 2073.89,-700.75 2112.95,-699.04 2268.6,-686.88 2419.63,-675.07 2457.45,-672.95 2608.6,-662.88 2667.62,-658.94 2735.43,-654.74 2780.74,-651.98"/>
<polygon fill="black" stroke="black" points="2781.13,-655.46 2790.9,-651.36 2780.71,-648.47 2781.13,-655.46"/>
<text text-anchor="middle" x="2003.1" y="-720.68" font-family="Times,serif" font-size="14.00">Unknown</text>
</g>
<!-- CreatingPostXML&#45;&gt;CreatingFailed -->
<g id="edge14" class="edge">
<title>CreatingPostXML&#45;&gt;CreatingFailed</title>
<path fill="none" stroke="black" d="M1052.99,-804.74C1060.04,-767.24 1081.86,-681.43 1138.6,-642.88 1279.1,-547.4 1733.33,-611.52 1900.6,-581.88 1908.78,-580.43 1910.4,-578.21 1918.6,-576.88 2072.34,-551.88 2112.89,-562.88 2268.6,-558.88 2332.8,-557.23 2405.94,-557.72 2458.26,-558.48"/>
<polygon fill="black" stroke="black" points="2458.38,-561.99 2468.43,-558.64 2458.49,-554.99 2458.38,-561.99"/>
<text text-anchor="middle" x="1812.1" y="-594.68" font-family="Times,serif" font-size="14.00">CreatingPostXMLFailure</text>
</g>
<!-- CreatingDisk -->
<g id="node12" class="node">
<title>CreatingDisk</title>
<path fill="none" stroke="black" d="M1769.1,-804.88C1769.1,-804.88 1855.1,-804.88 1855.1,-804.88 1861.1,-804.88 1867.1,-810.88 1867.1,-816.88 1867.1,-816.88 1867.1,-828.88 1867.1,-828.88 1867.1,-834.88 1861.1,-840.88 1855.1,-840.88 1855.1,-840.88 1769.1,-840.88 1769.1,-840.88 1763.1,-840.88 1757.1,-834.88 1757.1,-828.88 1757.1,-828.88 1757.1,-816.88 1757.1,-816.88 1757.1,-810.88 1763.1,-804.88 1769.1,-804.88"/>
<text text-anchor="middle" x="1812.1" y="-819.18" font-family="Times,serif" font-size="14.00">CreatingDisk</text>
</g>
<!-- CreatingPostDisk -->
<g id="node13" class="node">
<title>CreatingPostDisk</title>
<path fill="none" stroke="black" d="M2119.6,-804.88C2119.6,-804.88 2236.6,-804.88 2236.6,-804.88 2242.6,-804.88 2248.6,-810.88 2248.6,-816.88 2248.6,-816.88 2248.6,-828.88 2248.6,-828.88 2248.6,-834.88 2242.6,-840.88 2236.6,-840.88 2236.6,-840.88 2119.6,-840.88 2119.6,-840.88 2113.6,-840.88 2107.6,-834.88 2107.6,-828.88 2107.6,-828.88 2107.6,-816.88 2107.6,-816.88 2107.6,-810.88 2113.6,-804.88 2119.6,-804.88"/>
<text text-anchor="middle" x="2178.1" y="-819.18" font-family="Times,serif" font-size="14.00">CreatingPostDisk</text>
</g>
<!-- CreatingDisk&#45;&gt;CreatingPostDisk -->
<g id="edge16" class="edge">
<title>CreatingDisk&#45;&gt;CreatingPostDisk</title>
<path fill="none" stroke="black" d="M1867.2,-822.88C1928.08,-822.88 2027.55,-822.88 2097.34,-822.88"/>
<polygon fill="black" stroke="black" points="2097.42,-826.38 2107.42,-822.88 2097.42,-819.38 2097.42,-826.38"/>
<text text-anchor="middle" x="2003.1" y="-826.68" font-family="Times,serif" font-size="14.00">CreatingDiskSuccess</text>
</g>
<!-- CreatingDisk&#45;&gt;Unknown -->
<g id="edge18" class="edge">
<title>CreatingDisk&#45;&gt;Unknown</title>
<path fill="none" stroke="black" d="M1867.33,-813.55C1952.58,-799.06 2123.24,-770.74 2268.6,-750.88 2349.28,-739.85 2369.91,-740.81 2450.6,-729.88 2579.42,-712.42 2614.07,-718.65 2739.6,-684.88 2753.53,-681.13 2768.23,-675.99 2781.72,-670.76"/>
<polygon fill="black" stroke="black" points="2783.3,-673.9 2791.3,-666.96 2780.71,-667.39 2783.3,-673.9"/>
<text text-anchor="middle" x="2359.6" y="-754.68" font-family="Times,serif" font-size="14.00">Unknown</text>
</g>
<!-- CreatingDisk&#45;&gt;CreatingFailed -->
<g id="edge17" class="edge">
<title>CreatingDisk&#45;&gt;CreatingFailed</title>
<path fill="none" stroke="black" d="M1842.72,-804.81C1863.65,-792.27 1892.52,-775.46 1918.6,-761.88 1994.7,-722.25 2186.44,-623.61 2268.6,-598.88 2277.68,-596.14 2384.54,-580.52 2458.4,-569.9"/>
<polygon fill="black" stroke="black" points="2459.19,-573.32 2468.59,-568.44 2458.19,-566.39 2459.19,-573.32"/>
<text text-anchor="middle" x="2178.1" y="-670.68" font-family="Times,serif" font-size="14.00">CreatingDiskFailure</text>
</g>
<!-- CreatingPostDisk&#45;&gt;PostCreating -->
<g id="edge19" class="edge">
<title>CreatingPostDisk&#45;&gt;PostCreating</title>
<path fill="none" stroke="black" d="M2248.99,-822.88C2311.79,-822.88 2403.26,-822.88 2464.29,-822.88"/>
<polygon fill="black" stroke="black" points="2464.56,-826.38 2474.56,-822.88 2464.56,-819.38 2464.56,-826.38"/>
<text text-anchor="middle" x="2359.6" y="-826.68" font-family="Times,serif" font-size="14.00">CreatingPostDiskSuccess</text>
</g>
<!-- CreatingPostDisk&#45;&gt;Unknown -->
<g id="edge21" class="edge">
<title>CreatingPostDisk&#45;&gt;Unknown</title>
<path fill="none" stroke="black" d="M2248.67,-809.21C2396.24,-780.17 2728.19,-714.58 2739.6,-709.88 2761.91,-700.68 2784.58,-685.84 2801.88,-673.11"/>
<polygon fill="black" stroke="black" points="2804.04,-675.87 2809.92,-667.06 2799.83,-670.27 2804.04,-675.87"/>
<text text-anchor="middle" x="2529.6" y="-768.68" font-family="Times,serif" font-size="14.00">Unknown</text>
</g>
<!-- CreatingPostDisk&#45;&gt;CreatingFailed -->
<g id="edge20" class="edge">
<title>CreatingPostDisk&#45;&gt;CreatingFailed</title>
<path fill="none" stroke="black" d="M2203.62,-804.74C2219.42,-791.75 2239.08,-772.89 2250.6,-751.88 2268.74,-718.77 2244.04,-697.54 2268.6,-668.88 2325,-603.07 2371.31,-633.85 2450.6,-598.88 2461.96,-593.86 2474.05,-588.06 2485.24,-582.49"/>
<polygon fill="black" stroke="black" points="2487.03,-585.5 2494.38,-577.88 2483.88,-579.25 2487.03,-585.5"/>
<text text-anchor="middle" x="2359.6" y="-672.68" font-family="Times,serif" font-size="14.00">CreatingPostDiskFailure</text>
</g>
<!-- Updating -->
<g id="node14" class="node">
<title>Updating</title>
<path fill="none" stroke="black" d="M2500.1,-145.88C2500.1,-145.88 2559.1,-145.88 2559.1,-145.88 2565.1,-145.88 2571.1,-151.88 2571.1,-157.88 2571.1,-157.88 2571.1,-169.88 2571.1,-169.88 2571.1,-175.88 2565.1,-181.88 2559.1,-181.88 2559.1,-181.88 2500.1,-181.88 2500.1,-181.88 2494.1,-181.88 2488.1,-175.88 2488.1,-169.88 2488.1,-169.88 2488.1,-157.88 2488.1,-157.88 2488.1,-151.88 2494.1,-145.88 2500.1,-145.88"/>
<text text-anchor="middle" x="2529.6" y="-160.18" font-family="Times,serif" font-size="14.00">Updating</text>
</g>
<!-- Updating&#45;&gt;Unknown -->
<g id="edge25" class="edge">
<title>Updating&#45;&gt;Unknown</title>
<path fill="none" stroke="black" d="M2555.55,-145.8C2598.92,-116.74 2688.46,-67.54 2739.6,-115.88 2765.4,-140.26 2750.7,-400.05 2757.6,-434.88 2771.32,-504.07 2802.37,-581.32 2819.74,-621.39"/>
<polygon fill="black" stroke="black" points="2816.62,-623 2823.84,-630.75 2823.03,-620.19 2816.62,-623"/>
<text text-anchor="middle" x="2674.1" y="-119.68" font-family="Times,serif" font-size="14.00">UpdatingFailure</text>
</g>
<!-- Updating&#45;&gt;Unknown -->
<g id="edge26" class="edge">
<title>Updating&#45;&gt;Unknown</title>
<path fill="none" stroke="black" d="M2571.28,-154.04C2618.81,-145.24 2696.44,-139.67 2739.6,-183.88 2759.13,-203.88 2751.95,-407.49 2757.6,-434.88 2771.84,-503.96 2802.68,-581.25 2819.88,-621.36"/>
<polygon fill="black" stroke="black" points="2816.75,-622.95 2823.94,-630.73 2823.18,-620.17 2816.75,-622.95"/>
<text text-anchor="middle" x="2674.1" y="-187.68" font-family="Times,serif" font-size="14.00">Unknown</text>
</g>
<!-- Updating&#45;&gt;Stopped -->
<g id="edge24" class="edge">
<title>Updating&#45;&gt;Stopped</title>
<path fill="none" stroke="black" d="M2536.82,-145.6C2547.12,-118.35 2570.44,-67.64 2608.6,-42.88 2720.77,29.92 2775.21,-10.45 2908.6,-19.88 2981.14,-25 3015.66,4.76 3070.6,-42.88 3117.51,-83.55 3125.54,-161.69 3126.25,-203.62"/>
<polygon fill="black" stroke="black" points="3122.75,-203.72 3126.28,-213.71 3129.75,-203.69 3122.75,-203.72"/>
<text text-anchor="middle" x="2833.1" y="-23.68" font-family="Times,serif" font-size="14.00">UpdatingSuccess</text>
</g>
<!-- Starting -->
<g id="node15" class="node">
<title>Starting</title>
<path fill="none" stroke="black" d="M2503.6,-310.88C2503.6,-310.88 2555.6,-310.88 2555.6,-310.88 2561.6,-310.88 2567.6,-316.88 2567.6,-322.88 2567.6,-322.88 2567.6,-334.88 2567.6,-334.88 2567.6,-340.88 2561.6,-346.88 2555.6,-346.88 2555.6,-346.88 2503.6,-346.88 2503.6,-346.88 2497.6,-346.88 2491.6,-340.88 2491.6,-334.88 2491.6,-334.88 2491.6,-322.88 2491.6,-322.88 2491.6,-316.88 2497.6,-310.88 2503.6,-310.88"/>
<text text-anchor="middle" x="2529.6" y="-325.18" font-family="Times,serif" font-size="14.00">Starting</text>
</g>
<!-- Starting&#45;&gt;Unknown -->
<g id="edge28" class="edge">
<title>Starting&#45;&gt;Unknown</title>
<path fill="none" stroke="black" d="M2549.79,-347.06C2563.8,-361.44 2582.11,-382.71 2592.6,-404.88 2607.93,-437.26 2582.94,-458.88 2608.6,-483.88 2650.94,-525.13 2690.27,-474.3 2739.6,-506.88 2781.43,-534.5 2808.55,-588.25 2822.02,-621.12"/>
<polygon fill="black" stroke="black" points="2818.83,-622.58 2825.76,-630.59 2825.34,-620.01 2818.83,-622.58"/>
<text text-anchor="middle" x="2674.1" y="-510.68" font-family="Times,serif" font-size="14.00">StartingFailure</text>
</g>
<!-- Starting&#45;&gt;Unknown -->
<g id="edge29" class="edge">
<title>Starting&#45;&gt;Unknown</title>
<path fill="none" stroke="black" d="M2548.16,-347.02C2561.67,-361.7 2580.07,-383.4 2592.6,-404.88 2602.46,-421.77 2593.28,-433.71 2608.6,-445.88 2654.66,-482.47 2691.87,-430.48 2739.6,-464.88 2792.16,-502.76 2816.66,-579.22 2826.49,-620.65"/>
<polygon fill="black" stroke="black" points="2823.12,-621.63 2828.73,-630.62 2829.95,-620.1 2823.12,-621.63"/>
<text text-anchor="middle" x="2674.1" y="-468.68" font-family="Times,serif" font-size="14.00">Unknown</text>
</g>
<!-- Starting&#45;&gt;Started -->
<g id="edge27" class="edge">
<title>Starting&#45;&gt;Started</title>
<path fill="none" stroke="black" d="M2551.74,-346.97C2566.7,-358.87 2587.74,-373.86 2608.6,-382.88 2663.25,-406.5 2685.12,-386.87 2739.6,-410.88 2904.94,-483.72 2982.34,-489.23 3070.6,-646.88 3098.79,-697.22 3082.47,-848.51 3088.6,-905.88 3097.48,-988.93 3112.99,-1086.45 3120.81,-1133.56"/>
<polygon fill="black" stroke="black" points="3117.39,-1134.33 3122.49,-1143.62 3124.29,-1133.18 3117.39,-1134.33"/>
<text text-anchor="middle" x="2833.1" y="-485.68" font-family="Times,serif" font-size="14.00">StartingSuccess</text>
</g>
<!-- CreatingPreDisk&#45;&gt;CreatingDisk -->
<g id="edge45" class="edge">
<title>CreatingPreDisk&#45;&gt;CreatingDisk</title>
<path fill="none" stroke="black" d="M1493.99,-822.88C1565.16,-822.88 1676.95,-822.88 1747.03,-822.88"/>
<polygon fill="black" stroke="black" points="1747.06,-826.38 1757.06,-822.88 1747.06,-819.38 1747.06,-826.38"/>
<text text-anchor="middle" x="1617.6" y="-826.68" font-family="Times,serif" font-size="14.00">CreatingPreDiskSuccess</text>
</g>
<!-- CreatingPreDisk&#45;&gt;Unknown -->
<g id="edge47" class="edge">
<title>CreatingPreDisk&#45;&gt;Unknown</title>
<path fill="none" stroke="black" d="M1493.91,-813.06C1615.43,-795.45 1880.87,-758.05 2105.6,-733.88 2258.59,-717.42 2297.74,-722.5 2450.6,-704.88 2569.13,-691.21 2707.54,-669.43 2780.69,-657.46"/>
<polygon fill="black" stroke="black" points="2781.7,-660.84 2791,-655.76 2780.56,-653.93 2781.7,-660.84"/>
<text text-anchor="middle" x="2178.1" y="-737.68" font-family="Times,serif" font-size="14.00">Unknown</text>
</g>
<!-- CreatingPreDisk&#45;&gt;CreatingFailed -->
<g id="edge46" class="edge">
<title>CreatingPreDisk&#45;&gt;CreatingFailed</title>
<path fill="none" stroke="black" d="M1439.76,-804.74C1457.2,-781.19 1490.89,-740.54 1529.6,-718.88 1677.3,-636.21 1746.51,-702.92 1900.6,-632.88 1909.58,-628.79 1909.43,-623.52 1918.6,-619.88 2064.41,-561.96 2112.37,-588.33 2268.6,-573.88 2332.64,-567.95 2405.8,-564.29 2458.16,-562.2"/>
<polygon fill="black" stroke="black" points="2458.49,-565.69 2468.35,-561.81 2458.22,-558.7 2458.49,-565.69"/>
<text text-anchor="middle" x="2003.1" y="-623.68" font-family="Times,serif" font-size="14.00">CreatingPreDiskFailure</text>
</g>
<!-- Unknown&#45;&gt;Paused -->
<g id="edge34" class="edge">
<title>Unknown&#45;&gt;Paused</title>
<path fill="none" stroke="black" d="M2852.18,-667.11C2869.66,-683.6 2897.68,-707.19 2926.6,-719.88 2986.09,-745.96 3019.9,-704.27 3070.6,-744.88 3102.87,-770.73 3116.41,-818.73 3121.94,-849.45"/>
<polygon fill="black" stroke="black" points="3118.52,-850.22 3123.58,-859.53 3125.43,-849.1 3118.52,-850.22"/>
<text text-anchor="middle" x="2998.6" y="-748.68" font-family="Times,serif" font-size="14.00">UnknownToPaused</text>
</g>
<!-- Unknown&#45;&gt;Stopped -->
<g id="edge35" class="edge">
<title>Unknown&#45;&gt;Stopped</title>
<path fill="none" stroke="black" d="M2840.22,-630.51C2858.27,-576.71 2910.97,-422.07 2926.6,-403.88 2974.45,-348.18 3017.87,-373.98 3070.6,-322.88 3089.31,-304.74 3104.11,-278.94 3113.62,-259.44"/>
<polygon fill="black" stroke="black" points="3116.9,-260.7 3117.98,-250.16 3110.56,-257.72 3116.9,-260.7"/>
<text text-anchor="middle" x="2998.6" y="-407.68" font-family="Times,serif" font-size="14.00">UnknownToStopped</text>
</g>
<!-- Unknown&#45;&gt;Started -->
<g id="edge33" class="edge">
<title>Unknown&#45;&gt;Started</title>
<path fill="none" stroke="black" d="M2846.87,-667.07C2863.61,-690.18 2894.6,-730.57 2926.6,-759.88 2984.06,-812.5 3028.42,-794.36 3070.6,-859.88 3099.77,-905.19 3117.18,-1067.39 3123.2,-1133.51"/>
<polygon fill="black" stroke="black" points="3119.73,-1133.97 3124.1,-1143.62 3126.7,-1133.35 3119.73,-1133.97"/>
<text text-anchor="middle" x="2998.6" y="-863.68" font-family="Times,serif" font-size="14.00">UnknownToStarted</text>
</g>
<!-- Unknown&#45;&gt;Deleted -->
<g id="edge36" class="edge">
<title>Unknown&#45;&gt;Deleted</title>
<path fill="none" stroke="black" d="M2853.23,-630.5C2903.9,-581.83 3041.66,-449.5 3099.49,-393.95"/>
<polygon fill="black" stroke="black" points="3102,-396.4 3106.78,-386.95 3097.15,-391.35 3102,-396.4"/>
<text text-anchor="middle" x="2998.6" y="-562.68" font-family="Times,serif" font-size="14.00">UnknownToDeleted</text>
</g>
<!-- CreatingFailed&#45;&gt;PreCreating -->
<g id="edge48" class="edge">
<title>CreatingFailed&#45;&gt;PreCreating</title>
<path fill="none" stroke="black" d="M2507.23,-541.72C2492.33,-530.09 2471.46,-515.75 2450.6,-507.88 2101.52,-376.12 1991.71,-395.88 1618.6,-395.88 393.1,-395.88 393.1,-395.88 393.1,-395.88 197.58,-395.88 118.81,-699.66 98.95,-794.77"/>
<polygon fill="black" stroke="black" points="95.47,-794.31 96.91,-804.8 102.33,-795.7 95.47,-794.31"/>
<text text-anchor="middle" x="1230.6" y="-399.68" font-family="Times,serif" font-size="14.00">CreatingRetry</text>
</g>
<!-- CreatingFailed&#45;&gt;Unknown -->
<g id="edge49" class="edge">
<title>CreatingFailed&#45;&gt;Unknown</title>
<path fill="none" stroke="black" d="M2590.79,-569.41C2650,-578.88 2732.56,-592.33 2739.6,-594.88 2760.3,-602.37 2781.63,-614.47 2798.59,-625.33"/>
<polygon fill="black" stroke="black" points="2796.75,-628.31 2807.03,-630.86 2800.58,-622.45 2796.75,-628.31"/>
<text text-anchor="middle" x="2674.1" y="-598.68" font-family="Times,serif" font-size="14.00">Unknown</text>
</g>
<!-- Paused&#45;&gt;Resuming -->
<g id="edge22" class="edge">
<title>Paused&#45;&gt;Resuming</title>
<path fill="none" stroke="black" d="M3092.46,-887.78C3010.63,-911.09 2792.29,-966.23 2608.6,-949.88 2600.51,-949.16 2592.01,-948.02 2583.71,-946.71"/>
<polygon fill="black" stroke="black" points="2584.18,-943.24 2573.74,-945.03 2583.02,-950.14 2584.18,-943.24"/>
<text text-anchor="middle" x="2833.1" y="-952.68" font-family="Times,serif" font-size="14.00">Resume</text>
</g>
<!-- Paused&#45;&gt;Unknown -->
<g id="edge23" class="edge">
<title>Paused&#45;&gt;Unknown</title>
<path fill="none" stroke="black" d="M3125.37,-859.67C3123.9,-824.36 3115.43,-746.45 3070.6,-704.88 3020.28,-658.21 2938.43,-648.24 2885.43,-647.17"/>
<polygon fill="black" stroke="black" points="2885.27,-643.67 2875.23,-647.07 2885.19,-650.67 2885.27,-643.67"/>
<text text-anchor="middle" x="2998.6" y="-708.68" font-family="Times,serif" font-size="14.00">Unknown</text>
</g>
<!-- Stopped&#45;&gt;Deleting -->
<g id="edge41" class="edge">
<title>Stopped&#45;&gt;Deleting</title>
<path fill="none" stroke="black" d="M3088.36,-229.07C2976.8,-220.97 2650.5,-199.45 2608.6,-221.88 2597.3,-227.93 2602.38,-237.58 2592.6,-245.88 2588.04,-249.74 2582.86,-253.18 2577.49,-256.19"/>
<polygon fill="black" stroke="black" points="2575.63,-253.21 2568.33,-260.89 2578.82,-259.44 2575.63,-253.21"/>
<text text-anchor="middle" x="2833.1" y="-221.68" font-family="Times,serif" font-size="14.00">Delete</text>
</g>
<!-- Stopped&#45;&gt;Templating -->
<g id="edge44" class="edge">
<title>Stopped&#45;&gt;Templating</title>
<path fill="none" stroke="black" d="M3088.45,-221.84C3082.5,-220.4 3076.4,-219.02 3070.6,-217.88 2868.96,-178.02 2812.01,-167.35 2608.6,-196.88 2601.96,-197.84 2595.08,-199.21 2588.29,-200.8"/>
<polygon fill="black" stroke="black" points="2587.29,-197.44 2578.44,-203.26 2588.99,-204.23 2587.29,-197.44"/>
<text text-anchor="middle" x="2833.1" y="-192.68" font-family="Times,serif" font-size="14.00">Template</text>
</g>
<!-- Stopped&#45;&gt;Updating -->
<g id="edge40" class="edge">
<title>Stopped&#45;&gt;Updating</title>
<path fill="none" stroke="black" d="M3123.07,-213.7C3118.2,-186 3104.78,-133.61 3070.6,-106.88 3013.04,-61.86 2981.3,-86.2 2908.6,-78.88 2891.79,-77.18 2625.71,-66.07 2608.6,-73.88 2580.46,-86.73 2558.57,-115.3 2545.23,-136.83"/>
<polygon fill="black" stroke="black" points="2542.15,-135.17 2540.05,-145.56 2548.17,-138.75 2542.15,-135.17"/>
<text text-anchor="middle" x="2833.1" y="-82.68" font-family="Times,serif" font-size="14.00">Update</text>
</g>
<!-- Stopped&#45;&gt;Starting -->
<g id="edge42" class="edge">
<title>Stopped&#45;&gt;Starting</title>
<path fill="none" stroke="black" d="M3088.34,-237.96C3019.47,-249.22 2867.6,-274.02 2739.6,-294.88 2684.13,-303.92 2620.36,-314.29 2578,-321.17"/>
<polygon fill="black" stroke="black" points="2577.29,-317.74 2567.98,-322.8 2578.41,-324.65 2577.29,-317.74"/>
<text text-anchor="middle" x="2833.1" y="-295.68" font-family="Times,serif" font-size="14.00">Start</text>
</g>
<!-- Stopped&#45;&gt;Unknown -->
<g id="edge43" class="edge">
<title>Stopped&#45;&gt;Unknown</title>
<path fill="none" stroke="black" d="M3110.67,-250.05C3100.55,-261.09 3086.21,-274.44 3070.6,-281.88 3012.15,-309.73 2972.03,-257.75 2926.6,-303.88 2905.98,-324.81 2915.46,-406.3 2908.6,-434.88 2892.12,-503.46 2862.18,-580.95 2845.72,-621.23"/>
<polygon fill="black" stroke="black" points="2842.41,-620.06 2841.84,-630.64 2848.89,-622.73 2842.41,-620.06"/>
<text text-anchor="middle" x="2998.6" y="-307.68" font-family="Times,serif" font-size="14.00">Unknown</text>
</g>
<!-- Started&#45;&gt;Pausing -->
<g id="edge62" class="edge">
<title>Started&#45;&gt;Pausing</title>
<path fill="none" stroke="black" d="M3107.44,-1180.1C3097.45,-1188.92 3084.31,-1198.7 3070.6,-1203.88 2976.12,-1239.52 2633.78,-1247.8 2608.6,-1226.88 2578.7,-1202.03 2616.6,-1171.46 2592.6,-1140.88 2588.04,-1135.06 2582,-1130.42 2575.49,-1126.72"/>
<polygon fill="black" stroke="black" points="2576.92,-1123.52 2566.4,-1122.24 2573.82,-1129.8 2576.92,-1123.52"/>
<text text-anchor="middle" x="2833.1" y="-1241.68" font-family="Times,serif" font-size="14.00">Pause</text>
</g>
<!-- Started&#45;&gt;Migrating -->
<g id="edge63" class="edge">
<title>Started&#45;&gt;Migrating</title>
<path fill="none" stroke="black" d="M3120.69,-1180.04C3113.66,-1202.12 3098.38,-1238.46 3070.6,-1254.88 2950.83,-1325.67 2896.71,-1262.21 2757.6,-1259.88 2691.35,-1258.77 2668.64,-1282.9 2608.6,-1254.88 2581.54,-1242.25 2559.81,-1215.37 2546.22,-1194.81"/>
<polygon fill="black" stroke="black" points="2549.05,-1192.74 2540.74,-1186.17 2543.14,-1196.49 2549.05,-1192.74"/>
<text text-anchor="middle" x="2833.1" y="-1285.68" font-family="Times,serif" font-size="14.00">Migrate</text>
</g>
<!-- Started&#45;&gt;Stopping -->
<g id="edge64" class="edge">
<title>Started&#45;&gt;Stopping</title>
<path fill="none" stroke="black" d="M3090.97,-1167.07C2981.02,-1183.18 2644.92,-1229.38 2608.6,-1197.88 2570.61,-1164.93 2622.8,-1126.08 2592.6,-1085.88 2588.96,-1081.04 2584.3,-1077.01 2579.16,-1073.67"/>
<polygon fill="black" stroke="black" points="2580.61,-1070.47 2570.17,-1068.67 2577.21,-1076.59 2580.61,-1070.47"/>
<text text-anchor="middle" x="2833.1" y="-1208.68" font-family="Times,serif" font-size="14.00">Stop</text>
</g>
<!-- init -->
<g id="node23" class="node">
<title>init</title>
<ellipse fill="black" stroke="black" cx="1.8" cy="-822.88" rx="1.8" ry="1.8"/>
</g>
<!-- init&#45;&gt;PreCreating -->
<g id="edge65" class="edge">
<title>init&#45;&gt;PreCreating</title>
<path fill="none" stroke="black" d="M3.8,-822.88C6.99,-822.88 17.47,-822.88 30.14,-822.88"/>
<polygon fill="black" stroke="black" points="30.17,-826.38 40.17,-822.88 30.17,-819.38 30.17,-826.38"/>
</g>
</g>
</svg>
