<?xml version="1.0" encoding="UTF-8" standalone="no"?>
<!DOCTYPE svg PUBLIC "-//W3C//DTD SVG 1.1//EN"
 "http://www.w3.org/Graphics/SVG/1.1/DTD/svg11.dtd">
<!-- Generated by graphviz version 2.42.3 (20191010.1750)
 -->
<!-- Title: %3 Pages: 1 -->
<svg width="827pt" height="273pt"
 viewBox="0.00 0.00 827.00 272.67" xmlns="http://www.w3.org/2000/svg" xmlns:xlink="http://www.w3.org/1999/xlink">
<g id="graph0" class="graph" transform="scale(1 1) rotate(0) translate(4 268.67)">
<title>%3</title>
<polygon fill="white" stroke="transparent" points="-4,4 -4,-268.67 823,-268.67 823,4 -4,4"/>
<!-- Down -->
<g id="node1" class="node">
<title>Down</title>
<path fill="none" stroke="black" d="M12,-105.67C12,-105.67 45,-105.67 45,-105.67 51,-105.67 57,-111.67 57,-117.67 57,-117.67 57,-129.67 57,-129.67 57,-135.67 51,-141.67 45,-141.67 45,-141.67 12,-141.67 12,-141.67 6,-141.67 0,-135.67 0,-129.67 0,-129.67 0,-117.67 0,-117.67 0,-111.67 6,-105.67 12,-105.67"/>
<text text-anchor="middle" x="28.5" y="-119.97" font-family="Times,serif" font-size="14.00">Down</text>
</g>
<!-- Unknown -->
<g id="node2" class="node">
<title>Unknown</title>
<path fill="none" stroke="black" d="M230,-176.67C230,-176.67 290,-176.67 290,-176.67 296,-176.67 302,-182.67 302,-188.67 302,-188.67 302,-200.67 302,-200.67 302,-206.67 296,-212.67 290,-212.67 290,-212.67 230,-212.67 230,-212.67 224,-212.67 218,-206.67 218,-200.67 218,-200.67 218,-188.67 218,-188.67 218,-182.67 224,-176.67 230,-176.67"/>
<text text-anchor="middle" x="260" y="-190.97" font-family="Times,serif" font-size="14.00">Unknown</text>
</g>
<!-- Down&#45;&gt;Unknown -->
<g id="edge6" class="edge">
<title>Down&#45;&gt;Unknown</title>
<path fill="none" stroke="black" d="M41.57,-142.13C49.67,-152.91 61.34,-165.72 75,-172.67 116.15,-193.61 168.98,-197.99 207.47,-197.79"/>
<polygon fill="black" stroke="black" points="207.98,-201.28 217.93,-197.62 207.87,-194.28 207.98,-201.28"/>
<text text-anchor="middle" x="137.5" y="-201.47" font-family="Times,serif" font-size="14.00">Unknown</text>
</g>
<!-- Ready -->
<g id="node3" class="node">
<title>Ready</title>
<path fill="none" stroke="black" d="M526.5,-118.67C526.5,-118.67 563.5,-118.67 563.5,-118.67 569.5,-118.67 575.5,-124.67 575.5,-130.67 575.5,-130.67 575.5,-142.67 575.5,-142.67 575.5,-148.67 569.5,-154.67 563.5,-154.67 563.5,-154.67 526.5,-154.67 526.5,-154.67 520.5,-154.67 514.5,-148.67 514.5,-142.67 514.5,-142.67 514.5,-130.67 514.5,-130.67 514.5,-124.67 520.5,-118.67 526.5,-118.67"/>
<text text-anchor="middle" x="545" y="-132.97" font-family="Times,serif" font-size="14.00">Ready</text>
</g>
<!-- Down&#45;&gt;Ready -->
<g id="edge7" class="edge">
<title>Down&#45;&gt;Ready</title>
<path fill="none" stroke="black" d="M57.16,-124.37C142.84,-126.53 404.05,-133.13 504.27,-135.67"/>
<polygon fill="black" stroke="black" points="504.21,-139.17 514.29,-135.92 504.38,-132.17 504.21,-139.17"/>
<text text-anchor="middle" x="260" y="-133.47" font-family="Times,serif" font-size="14.00">Ready</text>
</g>
<!-- Unknown&#45;&gt;Down -->
<g id="edge10" class="edge">
<title>Unknown&#45;&gt;Down</title>
<path fill="none" stroke="black" d="M237.97,-176.52C227.28,-168.25 213.67,-159.12 200,-153.67 147.8,-132.88 130.14,-145.51 75,-134.67 72.49,-134.18 69.91,-133.64 67.31,-133.07"/>
<polygon fill="black" stroke="black" points="67.86,-129.61 57.33,-130.8 66.3,-136.43 67.86,-129.61"/>
<text text-anchor="middle" x="137.5" y="-157.47" font-family="Times,serif" font-size="14.00">UnknownToDown</text>
</g>
<!-- Unknown&#45;&gt;Ready -->
<g id="edge8" class="edge">
<title>Unknown&#45;&gt;Ready</title>
<path fill="none" stroke="black" d="M302.22,-192.76C340.66,-190.3 399.36,-184.79 449,-172.67 467.76,-168.09 487.86,-160.84 504.71,-154.05"/>
<polygon fill="black" stroke="black" points="506.32,-157.17 514.22,-150.12 503.65,-150.7 506.32,-157.17"/>
<text text-anchor="middle" x="384.5" y="-194.47" font-family="Times,serif" font-size="14.00">UnknownToReady</text>
</g>
<!-- Migrating -->
<g id="node4" class="node">
<title>Migrating</title>
<path fill="none" stroke="black" d="M743,-193.67C743,-193.67 807,-193.67 807,-193.67 813,-193.67 819,-199.67 819,-205.67 819,-205.67 819,-217.67 819,-217.67 819,-223.67 813,-229.67 807,-229.67 807,-229.67 743,-229.67 743,-229.67 737,-229.67 731,-223.67 731,-217.67 731,-217.67 731,-205.67 731,-205.67 731,-199.67 737,-193.67 743,-193.67"/>
<text text-anchor="middle" x="775" y="-207.97" font-family="Times,serif" font-size="14.00">Migrating</text>
</g>
<!-- Unknown&#45;&gt;Migrating -->
<g id="edge9" class="edge">
<title>Unknown&#45;&gt;Migrating</title>
<path fill="none" stroke="black" d="M287.52,-212.69C297.31,-218.47 308.77,-224.25 320,-227.67 448.92,-266.95 488.36,-245.64 623,-239.67 663.12,-237.89 673.66,-239.76 713,-231.67 715.62,-231.13 718.29,-230.52 720.97,-229.85"/>
<polygon fill="black" stroke="black" points="721.94,-233.21 730.68,-227.21 720.11,-226.46 721.94,-233.21"/>
<text text-anchor="middle" x="545" y="-253.47" font-family="Times,serif" font-size="14.00">UnknownToMigrating</text>
</g>
<!-- Ready&#45;&gt;Down -->
<g id="edge3" class="edge">
<title>Ready&#45;&gt;Down</title>
<path fill="none" stroke="black" d="M514.29,-127.22C495.67,-121.55 471.11,-114.52 449,-109.67 348.22,-87.55 320.85,-78.45 218,-86.67 153.83,-91.8 137.69,-95.06 75,-109.67 72.37,-110.28 69.68,-110.97 66.97,-111.69"/>
<polygon fill="black" stroke="black" points="65.9,-108.36 57.25,-114.46 67.82,-115.09 65.9,-108.36"/>
<text text-anchor="middle" x="260" y="-90.47" font-family="Times,serif" font-size="14.00">Down</text>
</g>
<!-- Ready&#45;&gt;Unknown -->
<g id="edge2" class="edge">
<title>Ready&#45;&gt;Unknown</title>
<path fill="none" stroke="black" d="M514.47,-135.17C470.74,-133.88 386.77,-135.04 320,-157.67 310.57,-160.87 301.09,-165.84 292.59,-171.11"/>
<polygon fill="black" stroke="black" points="290.56,-168.25 284.11,-176.65 294.39,-174.11 290.56,-168.25"/>
<text text-anchor="middle" x="384.5" y="-161.47" font-family="Times,serif" font-size="14.00">Unknown</text>
</g>
<!-- Ready&#45;&gt;Migrating -->
<g id="edge1" class="edge">
<title>Ready&#45;&gt;Migrating</title>
<path fill="none" stroke="black" d="M575.81,-146.48C612.69,-158.61 676.15,-179.48 721.32,-194.34"/>
<polygon fill="black" stroke="black" points="720.35,-197.71 730.95,-197.51 722.54,-191.06 720.35,-197.71"/>
<text text-anchor="middle" x="677" y="-194.47" font-family="Times,serif" font-size="14.00">Migrating</text>
</g>
<!-- Migrating&#45;&gt;Down -->
<g id="edge4" class="edge">
<title>Migrating&#45;&gt;Down</title>
<path fill="none" stroke="black" d="M753.94,-193.54C705.79,-151.47 578.04,-48.3 449,-15.67 349.41,9.51 317.77,0.82 218,-23.67 150.9,-40.14 133.69,-48.21 75,-84.67 68.44,-88.75 61.86,-93.74 55.82,-98.77"/>
<polygon fill="black" stroke="black" points="53.23,-96.39 47.97,-105.58 57.82,-101.67 53.23,-96.39"/>
<text text-anchor="middle" x="384.5" y="-19.47" font-family="Times,serif" font-size="14.00">Down</text>
</g>
<!-- Migrating&#45;&gt;Unknown -->
<g id="edge5" class="edge">
<title>Migrating&#45;&gt;Unknown</title>
<path fill="none" stroke="black" d="M730.89,-214.96C649.97,-220.38 469.93,-228.77 320,-209.67 317.34,-209.33 314.63,-208.91 311.9,-208.43"/>
<polygon fill="black" stroke="black" points="312.51,-204.99 302.02,-206.46 311.14,-211.85 312.51,-204.99"/>
<text text-anchor="middle" x="545" y="-224.47" font-family="Times,serif" font-size="14.00">Unknown</text>
</g>
<!-- init -->
<g id="node5" class="node">
<title>init</title>
<ellipse fill="black" stroke="black" cx="260" cy="-34.67" rx="1.8" ry="1.8"/>
</g>
<!-- init&#45;&gt;Ready -->
<g id="edge11" class="edge">
<title>init&#45;&gt;Ready</title>
<path fill="none" stroke="black" d="M262.26,-34.57C274.7,-33.67 376.49,-27.4 449,-58.67 476.78,-70.65 502.92,-93.28 520.72,-111.09"/>
<polygon fill="black" stroke="black" points="518.34,-113.66 527.82,-118.38 523.35,-108.78 518.34,-113.66"/>
</g>
</g>
</svg>
