<?xml version="1.0" encoding="UTF-8" standalone="no"?>
<!DOCTYPE svg PUBLIC "-//W3C//DTD SVG 1.1//EN"
 "http://www.w3.org/Graphics/SVG/1.1/DTD/svg11.dtd">
<!-- Generated by graphviz version 2.42.3 (20191010.1750)
 -->
<!-- Title: %3 Pages: 1 -->
<svg width="796pt" height="270pt"
 viewBox="0.00 0.00 796.00 270.00" xmlns="http://www.w3.org/2000/svg" xmlns:xlink="http://www.w3.org/1999/xlink">
<g id="graph0" class="graph" transform="scale(1 1) rotate(0) translate(4 266)">
<title>%3</title>
<polygon fill="white" stroke="transparent" points="-4,4 -4,-266 792,-266 792,4 -4,4"/>
<!-- Unknown -->
<g id="node1" class="node">
<title>Unknown</title>
<path fill="none" stroke="black" d="M12,-85.2C12,-85.2 72,-85.2 72,-85.2 78,-85.2 84,-91.2 84,-97.2 84,-97.2 84,-109.2 84,-109.2 84,-115.2 78,-121.2 72,-121.2 72,-121.2 12,-121.2 12,-121.2 6,-121.2 0,-115.2 0,-109.2 0,-109.2 0,-97.2 0,-97.2 0,-91.2 6,-85.2 12,-85.2"/>
<text text-anchor="middle" x="42" y="-99.5" font-family="Times,serif" font-size="14.00">Unknown</text>
</g>
<!-- Ready -->
<g id="node2" class="node">
<title>Ready</title>
<path fill="none" stroke="black" d="M308.5,-135.2C308.5,-135.2 345.5,-135.2 345.5,-135.2 351.5,-135.2 357.5,-141.2 357.5,-147.2 357.5,-147.2 357.5,-159.2 357.5,-159.2 357.5,-165.2 351.5,-171.2 345.5,-171.2 345.5,-171.2 308.5,-171.2 308.5,-171.2 302.5,-171.2 296.5,-165.2 296.5,-159.2 296.5,-159.2 296.5,-147.2 296.5,-147.2 296.5,-141.2 302.5,-135.2 308.5,-135.2"/>
<text text-anchor="middle" x="327" y="-149.5" font-family="Times,serif" font-size="14.00">Ready</text>
</g>
<!-- Unknown&#45;&gt;Ready -->
<g id="edge5" class="edge">
<title>Unknown&#45;&gt;Ready</title>
<path fill="none" stroke="black" d="M70.76,-121.34C80.3,-126.72 91.28,-132.01 102,-135.2 164.46,-153.74 240.75,-155.75 286.24,-154.91"/>
<polygon fill="black" stroke="black" points="286.38,-158.41 296.3,-154.66 286.21,-151.41 286.38,-158.41"/>
<text text-anchor="middle" x="166.5" y="-158" font-family="Times,serif" font-size="14.00">UnknownToReady</text>
</g>
<!-- Migrating -->
<g id="node3" class="node">
<title>Migrating</title>
<path fill="none" stroke="black" d="M578,-68.2C578,-68.2 642,-68.2 642,-68.2 648,-68.2 654,-74.2 654,-80.2 654,-80.2 654,-92.2 654,-92.2 654,-98.2 648,-104.2 642,-104.2 642,-104.2 578,-104.2 578,-104.2 572,-104.2 566,-98.2 566,-92.2 566,-92.2 566,-80.2 566,-80.2 566,-74.2 572,-68.2 578,-68.2"/>
<text text-anchor="middle" x="610" y="-82.5" font-family="Times,serif" font-size="14.00">Migrating</text>
</g>
<!-- Unknown&#45;&gt;Migrating -->
<g id="edge3" class="edge">
<title>Unknown&#45;&gt;Migrating</title>
<path fill="none" stroke="black" d="M72.78,-85.12C81.89,-80.27 92.11,-75.47 102,-72.2 164.78,-51.43 183.07,-54.32 249,-49.2 381.88,-38.87 417.18,-46.69 548,-72.2 550.61,-72.71 553.28,-73.25 555.97,-73.81"/>
<polygon fill="black" stroke="black" points="555.24,-77.23 565.75,-75.9 556.71,-70.38 555.24,-77.23"/>
<text text-anchor="middle" x="327" y="-53" font-family="Times,serif" font-size="14.00">UnknownToMigrating</text>
</g>
<!-- Down -->
<g id="node4" class="node">
<title>Down</title>
<path fill="none" stroke="black" d="M743,-123.2C743,-123.2 776,-123.2 776,-123.2 782,-123.2 788,-129.2 788,-135.2 788,-135.2 788,-147.2 788,-147.2 788,-153.2 782,-159.2 776,-159.2 776,-159.2 743,-159.2 743,-159.2 737,-159.2 731,-153.2 731,-147.2 731,-147.2 731,-135.2 731,-135.2 731,-129.2 737,-123.2 743,-123.2"/>
<text text-anchor="middle" x="759.5" y="-137.5" font-family="Times,serif" font-size="14.00">Down</text>
</g>
<!-- Unknown&#45;&gt;Down -->
<g id="edge4" class="edge">
<title>Unknown&#45;&gt;Down</title>
<path fill="none" stroke="black" d="M56.26,-85.02C66.97,-71.92 83.31,-55.2 102,-47.2 284.34,30.88 351.19,-6.53 548,-31.2 626.05,-40.98 651.62,-46.02 713,-95.2 720.73,-101.39 728.52,-108.77 735.43,-115.78"/>
<polygon fill="black" stroke="black" points="733.08,-118.39 742.53,-123.18 738.13,-113.54 733.08,-118.39"/>
<text text-anchor="middle" x="485.5" y="-35" font-family="Times,serif" font-size="14.00">UnknownToDown</text>
</g>
<!-- Ready&#45;&gt;Unknown -->
<g id="edge8" class="edge">
<title>Ready&#45;&gt;Unknown</title>
<path fill="none" stroke="black" d="M296.35,-138.97C277.97,-130.83 253.63,-121.26 231,-116.2 185.62,-106.04 132.68,-103.15 94.56,-102.6"/>
<polygon fill="black" stroke="black" points="94.25,-99.09 84.22,-102.5 94.18,-106.09 94.25,-99.09"/>
<text text-anchor="middle" x="166.5" y="-120" font-family="Times,serif" font-size="14.00">Unknown</text>
</g>
<!-- Ready&#45;&gt;Migrating -->
<g id="edge7" class="edge">
<title>Ready&#45;&gt;Migrating</title>
<path fill="none" stroke="black" d="M357.59,-141.6C376.15,-134.66 400.71,-126.07 423,-120.2 426.26,-119.34 502.05,-105.56 555.86,-95.81"/>
<polygon fill="black" stroke="black" points="556.75,-99.21 565.96,-93.98 555.5,-92.32 556.75,-99.21"/>
<text text-anchor="middle" x="485.5" y="-124" font-family="Times,serif" font-size="14.00">Migrating</text>
</g>
<!-- Ready&#45;&gt;Down -->
<g id="edge6" class="edge">
<title>Ready&#45;&gt;Down</title>
<path fill="none" stroke="black" d="M357.9,-156.99C376.58,-159.21 401.15,-161.82 423,-163.2 525.47,-169.65 551.62,-173.96 654,-166.2 680.45,-164.19 687.27,-163.63 713,-157.2 715.65,-156.54 718.36,-155.78 721.08,-154.97"/>
<polygon fill="black" stroke="black" points="722.38,-158.23 730.84,-151.85 720.25,-151.57 722.38,-158.23"/>
<text text-anchor="middle" x="610" y="-175" font-family="Times,serif" font-size="14.00">Down</text>
</g>
<!-- Migrating&#45;&gt;Unknown -->
<g id="edge10" class="edge">
<title>Migrating&#45;&gt;Unknown</title>
<path fill="none" stroke="black" d="M565.92,-87.05C478.46,-88.86 273.79,-93.46 102,-100.2 99.49,-100.3 96.92,-100.4 94.32,-100.52"/>
<polygon fill="black" stroke="black" points="94.09,-97.02 84.26,-100.98 94.41,-104.02 94.09,-97.02"/>
<text text-anchor="middle" x="327" y="-99" font-family="Times,serif" font-size="14.00">Unknown</text>
</g>
<!-- Migrating&#45;&gt;Down -->
<g id="edge9" class="edge">
<title>Migrating&#45;&gt;Down</title>
<path fill="none" stroke="black" d="M654.18,-94.02C672.74,-98.18 694.38,-104.14 713,-112.2 716.87,-113.87 720.78,-115.85 724.61,-117.98"/>
<polygon fill="black" stroke="black" points="722.92,-121.05 733.3,-123.15 726.49,-115.03 722.92,-121.05"/>
<text text-anchor="middle" x="692.5" y="-116" font-family="Times,serif" font-size="14.00">Down</text>
</g>
<!-- Down&#45;&gt;Unknown -->
<g id="edge2" class="edge">
<title>Down&#45;&gt;Unknown</title>
<path fill="none" stroke="black" d="M737.86,-159.31C730.43,-165.08 721.72,-171.04 713,-175.2 653.73,-203.49 631.66,-191.23 566,-190.2 360.43,-186.96 116.95,-180.59 102,-173.2 83.18,-163.9 68.08,-145.56 57.86,-129.99"/>
<polygon fill="black" stroke="black" points="60.67,-127.88 52.42,-121.23 54.72,-131.57 60.67,-127.88"/>
<text text-anchor="middle" x="485.5" y="-194" font-family="Times,serif" font-size="14.00">Unknown</text>
</g>
<!-- Down&#45;&gt;Ready -->
<g id="edge1" class="edge">
<title>Down&#45;&gt;Ready</title>
<path fill="none" stroke="black" d="M730.95,-141.97C657.04,-144.03 454.15,-149.68 367.77,-152.09"/>
<polygon fill="black" stroke="black" points="367.49,-148.6 357.59,-152.37 367.68,-155.59 367.49,-148.6"/>
<text text-anchor="middle" x="610" y="-151" font-family="Times,serif" font-size="14.00">Ready</text>
</g>
<!-- init -->
<g id="node5" class="node">
<title>init</title>
<ellipse fill="black" stroke="black" cx="42" cy="-260.2" rx="1.8" ry="1.8"/>
</g>
<!-- init&#45;&gt;Ready -->
<g id="edge11" class="edge">
<title>init&#45;&gt;Ready</title>
<path fill="none" stroke="black" d="M43.81,-259.89C56.41,-255.13 212.4,-196.15 286.9,-167.98"/>
<polygon fill="black" stroke="black" points="288.3,-171.19 296.42,-164.38 285.82,-164.65 288.3,-171.19"/>
</g>
</g>
</svg>
