<svg width="248" height="193" viewBox="0 0 248 193" fill="none" xmlns="http://www.w3.org/2000/svg">
<path d="M95.7134 129.855H93.1719V140.859H95.7134V129.855Z" fill="#017D91"/>
<path d="M99.9411 134.098H88.9375V136.639H99.9411V134.098Z" fill="#017D91"/>
<path d="M78.3931 129.855H75.8516V140.859H78.3931V129.855Z" fill="#017D91"/>
<path d="M82.6208 134.098H71.6172V136.639H82.6208V134.098Z" fill="#017D91"/>
<path d="M61.0804 129.844H58.5391V140.847H61.0804V129.844Z" fill="#017D91"/>
<path d="M65.3083 134.098H54.3047V136.639H65.3083V134.098Z" fill="#017D91"/>
<path d="M43.7601 129.855H41.2188V140.859H43.7601V129.855Z" fill="#017D91"/>
<path d="M47.9958 134.098H36.9922V136.639H47.9958V134.098Z" fill="#017D91"/>
<path d="M26.4398 129.855H23.8984V140.859H26.4398V129.855Z" fill="#017D91"/>
<path d="M30.6833 134.098H19.6797V136.639H30.6833V134.098Z" fill="#017D91"/>
<path d="M9.12747 129.855H6.58594V140.859H9.12747V129.855Z" fill="#017D91"/>
<path d="M13.363 134.098H2.35938V136.639H13.363V134.098Z" fill="#017D91"/>
<path d="M95.7134 147.039H93.1719V158.043H95.7134V147.039Z" fill="#017D91"/>
<path d="M99.9411 151.273H88.9375V153.815H99.9411V151.273Z" fill="#017D91"/>
<path d="M78.3931 147.039H75.8516V158.043H78.3931V147.039Z" fill="#017D91"/>
<path d="M82.6208 151.273H71.6172V153.815H82.6208V151.273Z" fill="#017D91"/>
<path d="M61.0804 147.039H58.5391V158.043H61.0804V147.039Z" fill="#017D91"/>
<path d="M65.3083 151.273H54.3047V153.815H65.3083V151.273Z" fill="#017D91"/>
<path d="M43.7601 147.039H41.2188V158.043H43.7601V147.039Z" fill="#017D91"/>
<path d="M47.9958 151.273H36.9922V153.815H47.9958V151.273Z" fill="#017D91"/>
<path d="M26.4398 147.039H23.8984V158.043H26.4398V147.039Z" fill="#017D91"/>
<path d="M30.6833 151.273H19.6797V153.815H30.6833V151.273Z" fill="#017D91"/>
<path d="M9.12747 147.039H6.58594V158.043H9.12747V147.039Z" fill="#017D91"/>
<path d="M13.363 151.273H2.35938V153.815H13.363V151.273Z" fill="#017D91"/>
<path d="M95.7134 164.223H93.1719V175.226H95.7134V164.223Z" fill="#017D91"/>
<path d="M99.9411 168.469H88.9375V171.01H99.9411V168.469Z" fill="#017D91"/>
<path d="M78.3931 164.223H75.8516V175.226H78.3931V164.223Z" fill="#017D91"/>
<path d="M82.6208 168.469H71.6172V171.01H82.6208V168.469Z" fill="#017D91"/>
<path d="M61.0804 164.223H58.5391V175.226H61.0804V164.223Z" fill="#017D91"/>
<path d="M65.3083 168.469H54.3047V171.01H65.3083V168.469Z" fill="#017D91"/>
<path d="M43.7601 164.223H41.2188V175.226H43.7601V164.223Z" fill="#017D91"/>
<path d="M47.9958 168.469H36.9922V171.01H47.9958V168.469Z" fill="#017D91"/>
<path d="M26.4398 164.223H23.8984V175.226H26.4398V164.223Z" fill="#017D91"/>
<path d="M30.6833 168.469H19.6797V171.01H30.6833V168.469Z" fill="#017D91"/>
<path d="M9.12747 164.223H6.58594V175.226H9.12747V164.223Z" fill="#017D91"/>
<path d="M13.363 168.469H2.35938V171.01H13.363V168.469Z" fill="#017D91"/>
<path d="M95.7289 181.406H93.1875V192.41H95.7289V181.406Z" fill="#017D91"/>
<path d="M99.9411 185.633H88.9375V188.174H99.9411V185.633Z" fill="#017D91"/>
<path d="M78.3931 181.406H75.8516V192.41H78.3931V181.406Z" fill="#017D91"/>
<path d="M82.6208 185.645H71.6172V188.186H82.6208V185.645Z" fill="#017D91"/>
<path d="M61.0804 181.406H58.5391V192.41H61.0804V181.406Z" fill="#017D91"/>
<path d="M65.3083 185.633H54.3047V188.174H65.3083V185.633Z" fill="#017D91"/>
<path d="M43.7601 181.406H41.2188V192.41H43.7601V181.406Z" fill="#017D91"/>
<path d="M47.9958 185.633H36.9922V188.174H47.9958V185.633Z" fill="#017D91"/>
<path d="M26.4398 181.406H23.8984V192.41H26.4398V181.406Z" fill="#017D91"/>
<path d="M30.6833 185.645H19.6797V188.186H30.6833V185.645Z" fill="#017D91"/>
<path d="M9.12747 181.406H6.58594V192.41H9.12747V181.406Z" fill="#017D91"/>
<path d="M13.363 185.633H2.35938V188.174H13.363V185.633Z" fill="#017D91"/>
<path d="M95.7134 61.2031H93.1719V72.2067H95.7134V61.2031Z" fill="#017D91"/>
<path d="M99.9411 65.4414H88.9375V67.9829H99.9411V65.4414Z" fill="#017D91"/>
<path d="M78.3931 61.2031H75.8516V72.2067H78.3931V61.2031Z" fill="#017D91"/>
<path d="M82.6208 65.4531H71.6172V67.9946H82.6208V65.4531Z" fill="#017D91"/>
<path d="M61.0804 61.2031H58.5391V72.2067H61.0804V61.2031Z" fill="#017D91"/>
<path d="M65.3083 65.4531H54.3047V67.9946H65.3083V65.4531Z" fill="#017D91"/>
<path d="M43.7601 61.2031H41.2188V72.2067H43.7601V61.2031Z" fill="#017D91"/>
<path d="M47.9958 65.4414H36.9922V67.9829H47.9958V65.4414Z" fill="#017D91"/>
<path d="M26.4398 61.2031H23.8984V72.2067H26.4398V61.2031Z" fill="#017D91"/>
<path d="M30.6833 65.4414H19.6797V67.9829H30.6833V65.4414Z" fill="#017D91"/>
<path d="M9.12747 61.2031H6.58594V72.2067H9.12747V61.2031Z" fill="#017D91"/>
<path d="M13.363 65.4414H2.35938V67.9829H13.363V65.4414Z" fill="#017D91"/>
<path d="M95.7134 78.3945H93.1719V89.3981H95.7134V78.3945Z" fill="#017D91"/>
<path d="M99.9411 82.6289H88.9375V85.1703H99.9411V82.6289Z" fill="#017D91"/>
<path d="M78.3931 78.3945H75.8516V89.3981H78.3931V78.3945Z" fill="#017D91"/>
<path d="M82.6208 82.6289H71.6172V85.1703H82.6208V82.6289Z" fill="#017D91"/>
<path d="M61.0804 78.3945H58.5391V89.3981H61.0804V78.3945Z" fill="#017D91"/>
<path d="M65.3083 82.6289H54.3047V85.1703H65.3083V82.6289Z" fill="#017D91"/>
<path d="M43.7601 78.3945H41.2188V89.3981H43.7601V78.3945Z" fill="#017D91"/>
<path d="M47.9958 82.6289H36.9922V85.1703H47.9958V82.6289Z" fill="#017D91"/>
<path d="M26.4398 78.3945H23.8984V89.3981H26.4398V78.3945Z" fill="#017D91"/>
<path d="M30.6833 82.6289H19.6797V85.1703H30.6833V82.6289Z" fill="#017D91"/>
<path d="M9.12747 78.3945H6.58594V89.3981H9.12747V78.3945Z" fill="#017D91"/>
<path d="M13.363 82.6289H2.35938V85.1703H13.363V82.6289Z" fill="#017D91"/>
<path d="M95.7134 95.582H93.1719V106.586H95.7134V95.582Z" fill="#017D91"/>
<path d="M99.9411 99.8125H88.9375V102.354H99.9411V99.8125Z" fill="#017D91"/>
<path d="M78.3931 95.582H75.8516V106.586H78.3931V95.582Z" fill="#017D91"/>
<path d="M82.6208 99.8125H71.6172V102.354H82.6208V99.8125Z" fill="#017D91"/>
<path d="M61.0804 95.582H58.5391V106.586H61.0804V95.582Z" fill="#017D91"/>
<path d="M65.3083 99.8125H54.3047V102.354H65.3083V99.8125Z" fill="#017D91"/>
<path d="M43.7601 95.582H41.2188V106.586H43.7601V95.582Z" fill="#017D91"/>
<path d="M47.9958 99.8125H36.9922V102.354H47.9958V99.8125Z" fill="#017D91"/>
<path d="M26.4398 95.582H23.8984V106.586H26.4398V95.582Z" fill="#017D91"/>
<path d="M30.6833 99.8125H19.6797V102.354H30.6833V99.8125Z" fill="#017D91"/>
<path d="M9.12747 95.582H6.58594V106.586H9.12747V95.582Z" fill="#017D91"/>
<path d="M13.363 99.8125H2.35938V102.354H13.363V99.8125Z" fill="#017D91"/>
<path d="M95.7134 112.758H93.1719V123.761H95.7134V112.758Z" fill="#017D91"/>
<path d="M99.9411 116.988H88.9375V119.53H99.9411V116.988Z" fill="#017D91"/>
<path d="M78.3931 112.758H75.8516V123.761H78.3931V112.758Z" fill="#017D91"/>
<path d="M82.6208 116.988H71.6172V119.53H82.6208V116.988Z" fill="#017D91"/>
<path d="M61.0804 112.758H58.5391V123.761H61.0804V112.758Z" fill="#017D91"/>
<path d="M65.3083 116.988H54.3047V119.53H65.3083V116.988Z" fill="#017D91"/>
<path d="M43.7601 112.758H41.2188V123.761H43.7601V112.758Z" fill="#017D91"/>
<path d="M47.9958 116.988H36.9922V119.53H47.9958V116.988Z" fill="#017D91"/>
<path d="M26.4398 112.758H23.8984V123.761H26.4398V112.758Z" fill="#017D91"/>
<path d="M30.6833 116.988H19.6797V119.53H30.6833V116.988Z" fill="#017D91"/>
<path d="M9.12747 112.758H6.58594V123.761H9.12747V112.758Z" fill="#017D91"/>
<path d="M13.363 116.988H2.35938V119.53H13.363V116.988Z" fill="#017D91"/>
<path d="M29.1707 17.3555L0 67.891L29.1707 118.427H87.526L116.711 67.891L87.526 17.3555H29.1707Z" fill="#96D0DD"/>
<path d="M138.66 0H90.345L66.1875 41.836L90.345 83.686H138.66L162.818 41.836L138.66 0Z" fill="#96D0DD"/>
<path d="M143.692 43.4141H82.3757L51.7109 96.519L82.3757 149.61H143.692L174.342 96.519L143.692 43.4141Z" fill="#96D0DD"/>
<path d="M190.167 21.7148H138.612L112.82 66.3716L138.612 111.028H190.167L215.958 66.3716L190.167 21.7148Z" fill="#96D0DD"/>
<path d="M192.985 34.9062L174.734 66.5206L192.985 98.149H229.515L247.766 66.5206L229.515 34.9062H192.985Z" fill="#96D0DD"/>
<mask id="mask0_16066_13185" style="mask-type:luminance" maskUnits="userSpaceOnUse" x="0" y="0" width="248" height="150">
<path d="M90.3076 0.0507812L80.1698 17.7152L29.5085 16.9332L0.15625 69.7728L28.9919 118.256L64.8372 118.772L82.7671 149.172L143.301 149.689L165.126 110.98L190.317 110.715L198.123 97.7287L229.556 98.2453L248.002 66.2958L230.338 35.1143L198.123 34.8629L190.317 21.6111L152.14 22.3931L138.371 0.302133L90.3076 0.0507812Z" fill="white"/>
</mask>
<g mask="url(#mask0_16066_13185)">
<path d="M-1.11649 -405.707L-173.055 340.192M6.4101 -403.975L-165.528 341.923M13.9367 -402.244L-158.002 343.655M21.4633 -400.512L-150.475 345.386M28.9759 -398.781L-142.962 347.118M36.5025 -397.049L-135.436 348.849M44.0291 -395.318L-127.909 350.581M51.5557 -393.586L-120.383 352.312M59.0821 -391.855L-112.856 354.044M66.6087 -390.123L-105.33 355.79M74.1213 -388.378L-97.8169 357.535M81.6339 -386.632L-90.3043 359.281M89.1605 -384.887L-82.7777 361.026M96.6871 -383.141L-75.2511 362.758M104.214 -381.41L-67.7245 364.489M111.726 -379.678L-60.2119 366.221M119.253 -377.947L-52.6853 367.952M126.779 -376.215L-45.1587 369.684M134.306 -374.484L-37.6323 371.415M141.833 -372.752L-30.1057 373.147M149.359 -371.021L-22.5791 374.878M156.872 -369.289L-15.0665 376.61M164.384 -367.557L-7.55386 378.341M171.897 -365.826L-0.041243 380.087M179.41 -364.08L7.47137 381.832M186.922 -362.335L14.984 383.578M194.449 -360.589L22.5106 385.309M201.975 -358.858L30.0372 387.041M209.502 -357.126L37.5638 388.772M217.029 -355.395L45.0904 390.504M224.555 -353.663L52.6168 392.235M232.082 -351.932L60.1434 393.967M239.594 -350.2L67.656 395.699M247.121 -348.469L75.1826 397.43M254.633 -346.737L82.6952 399.162M262.16 -345.006L90.2218 400.893M269.687 -343.274L97.7484 402.625M277.199 -341.543L105.261 404.356M284.726 -339.811L112.788 406.102M292.238 -338.066L120.3 407.833M299.751 -336.334L127.813 409.565M307.264 -334.603L135.325 411.296M314.79 -332.871L142.852 413.028M322.317 -331.139L150.378 414.759M329.843 -329.408L157.905 416.491M337.356 -327.676L165.418 418.222M344.868 -325.945L172.93 419.968M352.395 -324.199L180.457 421.699M359.922 -322.468L187.983 423.445M367.448 -320.722L195.51 425.176M374.975 -318.991L203.037 426.922M382.501 -317.245L210.563 428.653M390.014 -315.514L218.076 430.385M397.526 -313.782L225.588 432.116M405.053 -312.051L233.115 433.848M412.566 -310.319L240.627 435.593M420.078 -308.574L248.14 437.325" stroke="white" stroke-width="0.64" stroke-miterlimit="10"/>
</g>
</svg>
