<svg width="480" height="481" viewBox="0 0 480 481" fill="none" xmlns="http://www.w3.org/2000/svg">
<g clip-path="url(#clip0_12636_18161)">
<mask id="mask0_12636_18161" style="mask-type:alpha" maskUnits="userSpaceOnUse" x="0" y="0" width="480" height="481">
<rect width="480" height="480" transform="translate(0 0.59375)" fill="url(#paint0_radial_12636_18161)"/>
</mask>
<g mask="url(#mask0_12636_18161)">
<path d="M-68.5 41.5938C-68.5 42.4222 -69.1716 43.0938 -70 43.0938C-70.8284 43.0938 -71.5 42.4222 -71.5 41.5938C-71.5 40.7653 -70.8284 40.0938 -70 40.0938C-69.1716 40.0938 -68.5 40.7653 -68.5 41.5938Z" fill="#D7D3D0"/>
<path d="M-45.5 41.5938C-45.5 42.4222 -46.1716 43.0938 -47 43.0938C-47.8284 43.0938 -48.5 42.4222 -48.5 41.5938C-48.5 40.7653 -47.8284 40.0938 -47 40.0938C-46.1716 40.0938 -45.5 40.7653 -45.5 41.5938Z" fill="#D7D3D0"/>
<path d="M-22.5 41.5938C-22.5 42.4222 -23.1716 43.0938 -24 43.0938C-24.8284 43.0938 -25.5 42.4222 -25.5 41.5938C-25.5 40.7653 -24.8284 40.0938 -24 40.0938C-23.1716 40.0938 -22.5 40.7653 -22.5 41.5938Z" fill="#D7D3D0"/>
<path d="M0.5 41.5938C0.5 42.4222 -0.171573 43.0938 -1 43.0938C-1.82843 43.0938 -2.5 42.4222 -2.5 41.5938C-2.5 40.7653 -1.82843 40.0938 -1 40.0938C-0.171573 40.0938 0.5 40.7653 0.5 41.5938Z" fill="#D7D3D0"/>
<path d="M23.5 41.5938C23.5 42.4222 22.8284 43.0938 22 43.0938C21.1716 43.0938 20.5 42.4222 20.5 41.5938C20.5 40.7653 21.1716 40.0938 22 40.0938C22.8284 40.0938 23.5 40.7653 23.5 41.5938Z" fill="#D7D3D0"/>
<path d="M46.5 41.5938C46.5 42.4222 45.8284 43.0938 45 43.0938C44.1716 43.0938 43.5 42.4222 43.5 41.5938C43.5 40.7653 44.1716 40.0938 45 40.0938C45.8284 40.0938 46.5 40.7653 46.5 41.5938Z" fill="#D7D3D0"/>
<path d="M69.5 41.5938C69.5 42.4222 68.8284 43.0938 68 43.0938C67.1716 43.0938 66.5 42.4222 66.5 41.5938C66.5 40.7653 67.1716 40.0938 68 40.0938C68.8284 40.0938 69.5 40.7653 69.5 41.5938Z" fill="#D7D3D0"/>
<path d="M92.5 41.5938C92.5 42.4222 91.8284 43.0938 91 43.0938C90.1716 43.0938 89.5 42.4222 89.5 41.5938C89.5 40.7653 90.1716 40.0938 91 40.0938C91.8284 40.0938 92.5 40.7653 92.5 41.5938Z" fill="#D7D3D0"/>
<path d="M115.5 41.5938C115.5 42.4222 114.828 43.0938 114 43.0938C113.172 43.0938 112.5 42.4222 112.5 41.5938C112.5 40.7653 113.172 40.0938 114 40.0938C114.828 40.0938 115.5 40.7653 115.5 41.5938Z" fill="#D7D3D0"/>
<path d="M138.5 41.5938C138.5 42.4222 137.828 43.0938 137 43.0938C136.172 43.0938 135.5 42.4222 135.5 41.5938C135.5 40.7653 136.172 40.0938 137 40.0938C137.828 40.0938 138.5 40.7653 138.5 41.5938Z" fill="#D7D3D0"/>
<path d="M161.5 41.5938C161.5 42.4222 160.828 43.0938 160 43.0938C159.172 43.0938 158.5 42.4222 158.5 41.5938C158.5 40.7653 159.172 40.0938 160 40.0938C160.828 40.0938 161.5 40.7653 161.5 41.5938Z" fill="#D7D3D0"/>
<path d="M184.5 41.5938C184.5 42.4222 183.828 43.0938 183 43.0938C182.172 43.0938 181.5 42.4222 181.5 41.5938C181.5 40.7653 182.172 40.0938 183 40.0938C183.828 40.0938 184.5 40.7653 184.5 41.5938Z" fill="#D7D3D0"/>
<path d="M207.5 41.5938C207.5 42.4222 206.828 43.0938 206 43.0938C205.172 43.0938 204.5 42.4222 204.5 41.5938C204.5 40.7653 205.172 40.0938 206 40.0938C206.828 40.0938 207.5 40.7653 207.5 41.5938Z" fill="#D7D3D0"/>
<path d="M230.5 41.5938C230.5 42.4222 229.828 43.0938 229 43.0938C228.172 43.0938 227.5 42.4222 227.5 41.5938C227.5 40.7653 228.172 40.0938 229 40.0938C229.828 40.0938 230.5 40.7653 230.5 41.5938Z" fill="#D7D3D0"/>
<path d="M253.5 41.5938C253.5 42.4222 252.828 43.0938 252 43.0938C251.172 43.0938 250.5 42.4222 250.5 41.5938C250.5 40.7653 251.172 40.0938 252 40.0938C252.828 40.0938 253.5 40.7653 253.5 41.5938Z" fill="#D7D3D0"/>
<path d="M276.5 41.5938C276.5 42.4222 275.828 43.0938 275 43.0938C274.172 43.0938 273.5 42.4222 273.5 41.5938C273.5 40.7653 274.172 40.0938 275 40.0938C275.828 40.0938 276.5 40.7653 276.5 41.5938Z" fill="#D7D3D0"/>
<path d="M299.5 41.5938C299.5 42.4222 298.828 43.0938 298 43.0938C297.172 43.0938 296.5 42.4222 296.5 41.5938C296.5 40.7653 297.172 40.0938 298 40.0938C298.828 40.0938 299.5 40.7653 299.5 41.5938Z" fill="#D7D3D0"/>
<path d="M322.5 41.5938C322.5 42.4222 321.828 43.0938 321 43.0938C320.172 43.0938 319.5 42.4222 319.5 41.5938C319.5 40.7653 320.172 40.0938 321 40.0938C321.828 40.0938 322.5 40.7653 322.5 41.5938Z" fill="#D7D3D0"/>
<path d="M345.5 41.5938C345.5 42.4222 344.828 43.0938 344 43.0938C343.172 43.0938 342.5 42.4222 342.5 41.5938C342.5 40.7653 343.172 40.0938 344 40.0938C344.828 40.0938 345.5 40.7653 345.5 41.5938Z" fill="#D7D3D0"/>
<path d="M368.5 41.5938C368.5 42.4222 367.828 43.0938 367 43.0938C366.172 43.0938 365.5 42.4222 365.5 41.5938C365.5 40.7653 366.172 40.0938 367 40.0938C367.828 40.0938 368.5 40.7653 368.5 41.5938Z" fill="#D7D3D0"/>
<path d="M391.5 41.5938C391.5 42.4222 390.828 43.0938 390 43.0938C389.172 43.0938 388.5 42.4222 388.5 41.5938C388.5 40.7653 389.172 40.0938 390 40.0938C390.828 40.0938 391.5 40.7653 391.5 41.5938Z" fill="#D7D3D0"/>
<path d="M-68.5 64.5938C-68.5 65.4222 -69.1716 66.0938 -70 66.0938C-70.8284 66.0938 -71.5 65.4222 -71.5 64.5938C-71.5 63.7653 -70.8284 63.0938 -70 63.0938C-69.1716 63.0938 -68.5 63.7653 -68.5 64.5938Z" fill="#D7D3D0"/>
<path d="M-45.5 64.5938C-45.5 65.4222 -46.1716 66.0938 -47 66.0938C-47.8284 66.0938 -48.5 65.4222 -48.5 64.5938C-48.5 63.7653 -47.8284 63.0938 -47 63.0938C-46.1716 63.0938 -45.5 63.7653 -45.5 64.5938Z" fill="#D7D3D0"/>
<path d="M-22.5 64.5938C-22.5 65.4222 -23.1716 66.0938 -24 66.0938C-24.8284 66.0938 -25.5 65.4222 -25.5 64.5938C-25.5 63.7653 -24.8284 63.0938 -24 63.0938C-23.1716 63.0938 -22.5 63.7653 -22.5 64.5938Z" fill="#D7D3D0"/>
<path d="M0.5 64.5938C0.5 65.4222 -0.171573 66.0938 -1 66.0938C-1.82843 66.0938 -2.5 65.4222 -2.5 64.5938C-2.5 63.7653 -1.82843 63.0938 -1 63.0938C-0.171573 63.0938 0.5 63.7653 0.5 64.5938Z" fill="#D7D3D0"/>
<path d="M23.5 64.5938C23.5 65.4222 22.8284 66.0938 22 66.0938C21.1716 66.0938 20.5 65.4222 20.5 64.5938C20.5 63.7653 21.1716 63.0938 22 63.0938C22.8284 63.0938 23.5 63.7653 23.5 64.5938Z" fill="#D7D3D0"/>
<path d="M46.5 64.5938C46.5 65.4222 45.8284 66.0938 45 66.0938C44.1716 66.0938 43.5 65.4222 43.5 64.5938C43.5 63.7653 44.1716 63.0938 45 63.0938C45.8284 63.0938 46.5 63.7653 46.5 64.5938Z" fill="#D7D3D0"/>
<path d="M69.5 64.5938C69.5 65.4222 68.8284 66.0938 68 66.0938C67.1716 66.0938 66.5 65.4222 66.5 64.5938C66.5 63.7653 67.1716 63.0938 68 63.0938C68.8284 63.0938 69.5 63.7653 69.5 64.5938Z" fill="#D7D3D0"/>
<path d="M92.5 64.5938C92.5 65.4222 91.8284 66.0938 91 66.0938C90.1716 66.0938 89.5 65.4222 89.5 64.5938C89.5 63.7653 90.1716 63.0938 91 63.0938C91.8284 63.0938 92.5 63.7653 92.5 64.5938Z" fill="#D7D3D0"/>
<path d="M115.5 64.5938C115.5 65.4222 114.828 66.0938 114 66.0938C113.172 66.0938 112.5 65.4222 112.5 64.5938C112.5 63.7653 113.172 63.0938 114 63.0938C114.828 63.0938 115.5 63.7653 115.5 64.5938Z" fill="#D7D3D0"/>
<path d="M138.5 64.5938C138.5 65.4222 137.828 66.0938 137 66.0938C136.172 66.0938 135.5 65.4222 135.5 64.5938C135.5 63.7653 136.172 63.0938 137 63.0938C137.828 63.0938 138.5 63.7653 138.5 64.5938Z" fill="#D7D3D0"/>
<path d="M161.5 64.5938C161.5 65.4222 160.828 66.0938 160 66.0938C159.172 66.0938 158.5 65.4222 158.5 64.5938C158.5 63.7653 159.172 63.0938 160 63.0938C160.828 63.0938 161.5 63.7653 161.5 64.5938Z" fill="#D7D3D0"/>
<path d="M184.5 64.5938C184.5 65.4222 183.828 66.0938 183 66.0938C182.172 66.0938 181.5 65.4222 181.5 64.5938C181.5 63.7653 182.172 63.0938 183 63.0938C183.828 63.0938 184.5 63.7653 184.5 64.5938Z" fill="#D7D3D0"/>
<path d="M207.5 64.5938C207.5 65.4222 206.828 66.0938 206 66.0938C205.172 66.0938 204.5 65.4222 204.5 64.5938C204.5 63.7653 205.172 63.0938 206 63.0938C206.828 63.0938 207.5 63.7653 207.5 64.5938Z" fill="#D7D3D0"/>
<path d="M230.5 64.5938C230.5 65.4222 229.828 66.0938 229 66.0938C228.172 66.0938 227.5 65.4222 227.5 64.5938C227.5 63.7653 228.172 63.0938 229 63.0938C229.828 63.0938 230.5 63.7653 230.5 64.5938Z" fill="#D7D3D0"/>
<path d="M253.5 64.5938C253.5 65.4222 252.828 66.0938 252 66.0938C251.172 66.0938 250.5 65.4222 250.5 64.5938C250.5 63.7653 251.172 63.0938 252 63.0938C252.828 63.0938 253.5 63.7653 253.5 64.5938Z" fill="#D7D3D0"/>
<path d="M276.5 64.5938C276.5 65.4222 275.828 66.0938 275 66.0938C274.172 66.0938 273.5 65.4222 273.5 64.5938C273.5 63.7653 274.172 63.0938 275 63.0938C275.828 63.0938 276.5 63.7653 276.5 64.5938Z" fill="#D7D3D0"/>
<path d="M299.5 64.5938C299.5 65.4222 298.828 66.0938 298 66.0938C297.172 66.0938 296.5 65.4222 296.5 64.5938C296.5 63.7653 297.172 63.0938 298 63.0938C298.828 63.0938 299.5 63.7653 299.5 64.5938Z" fill="#D7D3D0"/>
<path d="M322.5 64.5938C322.5 65.4222 321.828 66.0938 321 66.0938C320.172 66.0938 319.5 65.4222 319.5 64.5938C319.5 63.7653 320.172 63.0938 321 63.0938C321.828 63.0938 322.5 63.7653 322.5 64.5938Z" fill="#D7D3D0"/>
<path d="M345.5 64.5938C345.5 65.4222 344.828 66.0938 344 66.0938C343.172 66.0938 342.5 65.4222 342.5 64.5938C342.5 63.7653 343.172 63.0938 344 63.0938C344.828 63.0938 345.5 63.7653 345.5 64.5938Z" fill="#D7D3D0"/>
<path d="M368.5 64.5938C368.5 65.4222 367.828 66.0938 367 66.0938C366.172 66.0938 365.5 65.4222 365.5 64.5938C365.5 63.7653 366.172 63.0938 367 63.0938C367.828 63.0938 368.5 63.7653 368.5 64.5938Z" fill="#D7D3D0"/>
<path d="M391.5 64.5938C391.5 65.4222 390.828 66.0938 390 66.0938C389.172 66.0938 388.5 65.4222 388.5 64.5938C388.5 63.7653 389.172 63.0938 390 63.0938C390.828 63.0938 391.5 63.7653 391.5 64.5938Z" fill="#D7D3D0"/>
<path d="M-68.5 87.5938C-68.5 88.4222 -69.1716 89.0938 -70 89.0938C-70.8284 89.0938 -71.5 88.4222 -71.5 87.5938C-71.5 86.7653 -70.8284 86.0938 -70 86.0938C-69.1716 86.0938 -68.5 86.7653 -68.5 87.5938Z" fill="#D7D3D0"/>
<path d="M-45.5 87.5938C-45.5 88.4222 -46.1716 89.0938 -47 89.0938C-47.8284 89.0938 -48.5 88.4222 -48.5 87.5938C-48.5 86.7653 -47.8284 86.0938 -47 86.0938C-46.1716 86.0938 -45.5 86.7653 -45.5 87.5938Z" fill="#D7D3D0"/>
<path d="M-22.5 87.5938C-22.5 88.4222 -23.1716 89.0938 -24 89.0938C-24.8284 89.0938 -25.5 88.4222 -25.5 87.5938C-25.5 86.7653 -24.8284 86.0938 -24 86.0938C-23.1716 86.0938 -22.5 86.7653 -22.5 87.5938Z" fill="#D7D3D0"/>
<path d="M0.5 87.5938C0.5 88.4222 -0.171573 89.0938 -1 89.0938C-1.82843 89.0938 -2.5 88.4222 -2.5 87.5938C-2.5 86.7653 -1.82843 86.0938 -1 86.0938C-0.171573 86.0938 0.5 86.7653 0.5 87.5938Z" fill="#D7D3D0"/>
<path d="M23.5 87.5938C23.5 88.4222 22.8284 89.0938 22 89.0938C21.1716 89.0938 20.5 88.4222 20.5 87.5938C20.5 86.7653 21.1716 86.0938 22 86.0938C22.8284 86.0938 23.5 86.7653 23.5 87.5938Z" fill="#D7D3D0"/>
<path d="M46.5 87.5938C46.5 88.4222 45.8284 89.0938 45 89.0938C44.1716 89.0938 43.5 88.4222 43.5 87.5938C43.5 86.7653 44.1716 86.0938 45 86.0938C45.8284 86.0938 46.5 86.7653 46.5 87.5938Z" fill="#D7D3D0"/>
<path d="M69.5 87.5938C69.5 88.4222 68.8284 89.0938 68 89.0938C67.1716 89.0938 66.5 88.4222 66.5 87.5938C66.5 86.7653 67.1716 86.0938 68 86.0938C68.8284 86.0938 69.5 86.7653 69.5 87.5938Z" fill="#D7D3D0"/>
<path d="M92.5 87.5938C92.5 88.4222 91.8284 89.0938 91 89.0938C90.1716 89.0938 89.5 88.4222 89.5 87.5938C89.5 86.7653 90.1716 86.0938 91 86.0938C91.8284 86.0938 92.5 86.7653 92.5 87.5938Z" fill="#D7D3D0"/>
<path d="M115.5 87.5938C115.5 88.4222 114.828 89.0938 114 89.0938C113.172 89.0938 112.5 88.4222 112.5 87.5938C112.5 86.7653 113.172 86.0938 114 86.0938C114.828 86.0938 115.5 86.7653 115.5 87.5938Z" fill="#D7D3D0"/>
<path d="M138.5 87.5938C138.5 88.4222 137.828 89.0938 137 89.0938C136.172 89.0938 135.5 88.4222 135.5 87.5938C135.5 86.7653 136.172 86.0938 137 86.0938C137.828 86.0938 138.5 86.7653 138.5 87.5938Z" fill="#D7D3D0"/>
<path d="M161.5 87.5938C161.5 88.4222 160.828 89.0938 160 89.0938C159.172 89.0938 158.5 88.4222 158.5 87.5938C158.5 86.7653 159.172 86.0938 160 86.0938C160.828 86.0938 161.5 86.7653 161.5 87.5938Z" fill="#D7D3D0"/>
<path d="M184.5 87.5938C184.5 88.4222 183.828 89.0938 183 89.0938C182.172 89.0938 181.5 88.4222 181.5 87.5938C181.5 86.7653 182.172 86.0938 183 86.0938C183.828 86.0938 184.5 86.7653 184.5 87.5938Z" fill="#D7D3D0"/>
<path d="M207.5 87.5938C207.5 88.4222 206.828 89.0938 206 89.0938C205.172 89.0938 204.5 88.4222 204.5 87.5938C204.5 86.7653 205.172 86.0938 206 86.0938C206.828 86.0938 207.5 86.7653 207.5 87.5938Z" fill="#D7D3D0"/>
<path d="M230.5 87.5938C230.5 88.4222 229.828 89.0938 229 89.0938C228.172 89.0938 227.5 88.4222 227.5 87.5938C227.5 86.7653 228.172 86.0938 229 86.0938C229.828 86.0938 230.5 86.7653 230.5 87.5938Z" fill="#D7D3D0"/>
<path d="M253.5 87.5938C253.5 88.4222 252.828 89.0938 252 89.0938C251.172 89.0938 250.5 88.4222 250.5 87.5938C250.5 86.7653 251.172 86.0938 252 86.0938C252.828 86.0938 253.5 86.7653 253.5 87.5938Z" fill="#D7D3D0"/>
<path d="M276.5 87.5938C276.5 88.4222 275.828 89.0938 275 89.0938C274.172 89.0938 273.5 88.4222 273.5 87.5938C273.5 86.7653 274.172 86.0938 275 86.0938C275.828 86.0938 276.5 86.7653 276.5 87.5938Z" fill="#D7D3D0"/>
<path d="M299.5 87.5938C299.5 88.4222 298.828 89.0938 298 89.0938C297.172 89.0938 296.5 88.4222 296.5 87.5938C296.5 86.7653 297.172 86.0938 298 86.0938C298.828 86.0938 299.5 86.7653 299.5 87.5938Z" fill="#D7D3D0"/>
<path d="M322.5 87.5938C322.5 88.4222 321.828 89.0938 321 89.0938C320.172 89.0938 319.5 88.4222 319.5 87.5938C319.5 86.7653 320.172 86.0938 321 86.0938C321.828 86.0938 322.5 86.7653 322.5 87.5938Z" fill="#D7D3D0"/>
<path d="M345.5 87.5938C345.5 88.4222 344.828 89.0938 344 89.0938C343.172 89.0938 342.5 88.4222 342.5 87.5938C342.5 86.7653 343.172 86.0938 344 86.0938C344.828 86.0938 345.5 86.7653 345.5 87.5938Z" fill="#D7D3D0"/>
<path d="M368.5 87.5938C368.5 88.4222 367.828 89.0938 367 89.0938C366.172 89.0938 365.5 88.4222 365.5 87.5938C365.5 86.7653 366.172 86.0938 367 86.0938C367.828 86.0938 368.5 86.7653 368.5 87.5938Z" fill="#D7D3D0"/>
<path d="M391.5 87.5938C391.5 88.4222 390.828 89.0938 390 89.0938C389.172 89.0938 388.5 88.4222 388.5 87.5938C388.5 86.7653 389.172 86.0938 390 86.0938C390.828 86.0938 391.5 86.7653 391.5 87.5938Z" fill="#D7D3D0"/>
<path d="M-68.5 110.594C-68.5 111.422 -69.1716 112.094 -70 112.094C-70.8284 112.094 -71.5 111.422 -71.5 110.594C-71.5 109.765 -70.8284 109.094 -70 109.094C-69.1716 109.094 -68.5 109.765 -68.5 110.594Z" fill="#D7D3D0"/>
<path d="M-45.5 110.594C-45.5 111.422 -46.1716 112.094 -47 112.094C-47.8284 112.094 -48.5 111.422 -48.5 110.594C-48.5 109.765 -47.8284 109.094 -47 109.094C-46.1716 109.094 -45.5 109.765 -45.5 110.594Z" fill="#D7D3D0"/>
<path d="M-22.5 110.594C-22.5 111.422 -23.1716 112.094 -24 112.094C-24.8284 112.094 -25.5 111.422 -25.5 110.594C-25.5 109.765 -24.8284 109.094 -24 109.094C-23.1716 109.094 -22.5 109.765 -22.5 110.594Z" fill="#D7D3D0"/>
<path d="M0.5 110.594C0.5 111.422 -0.171573 112.094 -1 112.094C-1.82843 112.094 -2.5 111.422 -2.5 110.594C-2.5 109.765 -1.82843 109.094 -1 109.094C-0.171573 109.094 0.5 109.765 0.5 110.594Z" fill="#D7D3D0"/>
<path d="M23.5 110.594C23.5 111.422 22.8284 112.094 22 112.094C21.1716 112.094 20.5 111.422 20.5 110.594C20.5 109.765 21.1716 109.094 22 109.094C22.8284 109.094 23.5 109.765 23.5 110.594Z" fill="#D7D3D0"/>
<path d="M46.5 110.594C46.5 111.422 45.8284 112.094 45 112.094C44.1716 112.094 43.5 111.422 43.5 110.594C43.5 109.765 44.1716 109.094 45 109.094C45.8284 109.094 46.5 109.765 46.5 110.594Z" fill="#D7D3D0"/>
<path d="M69.5 110.594C69.5 111.422 68.8284 112.094 68 112.094C67.1716 112.094 66.5 111.422 66.5 110.594C66.5 109.765 67.1716 109.094 68 109.094C68.8284 109.094 69.5 109.765 69.5 110.594Z" fill="#D7D3D0"/>
<path d="M92.5 110.594C92.5 111.422 91.8284 112.094 91 112.094C90.1716 112.094 89.5 111.422 89.5 110.594C89.5 109.765 90.1716 109.094 91 109.094C91.8284 109.094 92.5 109.765 92.5 110.594Z" fill="#D7D3D0"/>
<path d="M115.5 110.594C115.5 111.422 114.828 112.094 114 112.094C113.172 112.094 112.5 111.422 112.5 110.594C112.5 109.765 113.172 109.094 114 109.094C114.828 109.094 115.5 109.765 115.5 110.594Z" fill="#D7D3D0"/>
<path d="M138.5 110.594C138.5 111.422 137.828 112.094 137 112.094C136.172 112.094 135.5 111.422 135.5 110.594C135.5 109.765 136.172 109.094 137 109.094C137.828 109.094 138.5 109.765 138.5 110.594Z" fill="#D7D3D0"/>
<path d="M161.5 110.594C161.5 111.422 160.828 112.094 160 112.094C159.172 112.094 158.5 111.422 158.5 110.594C158.5 109.765 159.172 109.094 160 109.094C160.828 109.094 161.5 109.765 161.5 110.594Z" fill="#D7D3D0"/>
<path d="M184.5 110.594C184.5 111.422 183.828 112.094 183 112.094C182.172 112.094 181.5 111.422 181.5 110.594C181.5 109.765 182.172 109.094 183 109.094C183.828 109.094 184.5 109.765 184.5 110.594Z" fill="#D7D3D0"/>
<path d="M207.5 110.594C207.5 111.422 206.828 112.094 206 112.094C205.172 112.094 204.5 111.422 204.5 110.594C204.5 109.765 205.172 109.094 206 109.094C206.828 109.094 207.5 109.765 207.5 110.594Z" fill="#D7D3D0"/>
<path d="M230.5 110.594C230.5 111.422 229.828 112.094 229 112.094C228.172 112.094 227.5 111.422 227.5 110.594C227.5 109.765 228.172 109.094 229 109.094C229.828 109.094 230.5 109.765 230.5 110.594Z" fill="#D7D3D0"/>
<path d="M253.5 110.594C253.5 111.422 252.828 112.094 252 112.094C251.172 112.094 250.5 111.422 250.5 110.594C250.5 109.765 251.172 109.094 252 109.094C252.828 109.094 253.5 109.765 253.5 110.594Z" fill="#D7D3D0"/>
<path d="M276.5 110.594C276.5 111.422 275.828 112.094 275 112.094C274.172 112.094 273.5 111.422 273.5 110.594C273.5 109.765 274.172 109.094 275 109.094C275.828 109.094 276.5 109.765 276.5 110.594Z" fill="#D7D3D0"/>
<path d="M299.5 110.594C299.5 111.422 298.828 112.094 298 112.094C297.172 112.094 296.5 111.422 296.5 110.594C296.5 109.765 297.172 109.094 298 109.094C298.828 109.094 299.5 109.765 299.5 110.594Z" fill="#D7D3D0"/>
<path d="M322.5 110.594C322.5 111.422 321.828 112.094 321 112.094C320.172 112.094 319.5 111.422 319.5 110.594C319.5 109.765 320.172 109.094 321 109.094C321.828 109.094 322.5 109.765 322.5 110.594Z" fill="#D7D3D0"/>
<path d="M345.5 110.594C345.5 111.422 344.828 112.094 344 112.094C343.172 112.094 342.5 111.422 342.5 110.594C342.5 109.765 343.172 109.094 344 109.094C344.828 109.094 345.5 109.765 345.5 110.594Z" fill="#D7D3D0"/>
<path d="M368.5 110.594C368.5 111.422 367.828 112.094 367 112.094C366.172 112.094 365.5 111.422 365.5 110.594C365.5 109.765 366.172 109.094 367 109.094C367.828 109.094 368.5 109.765 368.5 110.594Z" fill="#D7D3D0"/>
<path d="M391.5 110.594C391.5 111.422 390.828 112.094 390 112.094C389.172 112.094 388.5 111.422 388.5 110.594C388.5 109.765 389.172 109.094 390 109.094C390.828 109.094 391.5 109.765 391.5 110.594Z" fill="#D7D3D0"/>
<path d="M-68.5 133.594C-68.5 134.422 -69.1716 135.094 -70 135.094C-70.8284 135.094 -71.5 134.422 -71.5 133.594C-71.5 132.765 -70.8284 132.094 -70 132.094C-69.1716 132.094 -68.5 132.765 -68.5 133.594Z" fill="#D7D3D0"/>
<path d="M-45.5 133.594C-45.5 134.422 -46.1716 135.094 -47 135.094C-47.8284 135.094 -48.5 134.422 -48.5 133.594C-48.5 132.765 -47.8284 132.094 -47 132.094C-46.1716 132.094 -45.5 132.765 -45.5 133.594Z" fill="#D7D3D0"/>
<path d="M-22.5 133.594C-22.5 134.422 -23.1716 135.094 -24 135.094C-24.8284 135.094 -25.5 134.422 -25.5 133.594C-25.5 132.765 -24.8284 132.094 -24 132.094C-23.1716 132.094 -22.5 132.765 -22.5 133.594Z" fill="#D7D3D0"/>
<path d="M0.5 133.594C0.5 134.422 -0.171573 135.094 -1 135.094C-1.82843 135.094 -2.5 134.422 -2.5 133.594C-2.5 132.765 -1.82843 132.094 -1 132.094C-0.171573 132.094 0.5 132.765 0.5 133.594Z" fill="#D7D3D0"/>
<path d="M23.5 133.594C23.5 134.422 22.8284 135.094 22 135.094C21.1716 135.094 20.5 134.422 20.5 133.594C20.5 132.765 21.1716 132.094 22 132.094C22.8284 132.094 23.5 132.765 23.5 133.594Z" fill="#D7D3D0"/>
<path d="M46.5 133.594C46.5 134.422 45.8284 135.094 45 135.094C44.1716 135.094 43.5 134.422 43.5 133.594C43.5 132.765 44.1716 132.094 45 132.094C45.8284 132.094 46.5 132.765 46.5 133.594Z" fill="#D7D3D0"/>
<path d="M69.5 133.594C69.5 134.422 68.8284 135.094 68 135.094C67.1716 135.094 66.5 134.422 66.5 133.594C66.5 132.765 67.1716 132.094 68 132.094C68.8284 132.094 69.5 132.765 69.5 133.594Z" fill="#D7D3D0"/>
<path d="M92.5 133.594C92.5 134.422 91.8284 135.094 91 135.094C90.1716 135.094 89.5 134.422 89.5 133.594C89.5 132.765 90.1716 132.094 91 132.094C91.8284 132.094 92.5 132.765 92.5 133.594Z" fill="#D7D3D0"/>
<path d="M115.5 133.594C115.5 134.422 114.828 135.094 114 135.094C113.172 135.094 112.5 134.422 112.5 133.594C112.5 132.765 113.172 132.094 114 132.094C114.828 132.094 115.5 132.765 115.5 133.594Z" fill="#D7D3D0"/>
<path d="M138.5 133.594C138.5 134.422 137.828 135.094 137 135.094C136.172 135.094 135.5 134.422 135.5 133.594C135.5 132.765 136.172 132.094 137 132.094C137.828 132.094 138.5 132.765 138.5 133.594Z" fill="#D7D3D0"/>
<path d="M161.5 133.594C161.5 134.422 160.828 135.094 160 135.094C159.172 135.094 158.5 134.422 158.5 133.594C158.5 132.765 159.172 132.094 160 132.094C160.828 132.094 161.5 132.765 161.5 133.594Z" fill="#D7D3D0"/>
<path d="M184.5 133.594C184.5 134.422 183.828 135.094 183 135.094C182.172 135.094 181.5 134.422 181.5 133.594C181.5 132.765 182.172 132.094 183 132.094C183.828 132.094 184.5 132.765 184.5 133.594Z" fill="#D7D3D0"/>
<path d="M207.5 133.594C207.5 134.422 206.828 135.094 206 135.094C205.172 135.094 204.5 134.422 204.5 133.594C204.5 132.765 205.172 132.094 206 132.094C206.828 132.094 207.5 132.765 207.5 133.594Z" fill="#D7D3D0"/>
<path d="M230.5 133.594C230.5 134.422 229.828 135.094 229 135.094C228.172 135.094 227.5 134.422 227.5 133.594C227.5 132.765 228.172 132.094 229 132.094C229.828 132.094 230.5 132.765 230.5 133.594Z" fill="#D7D3D0"/>
<path d="M253.5 133.594C253.5 134.422 252.828 135.094 252 135.094C251.172 135.094 250.5 134.422 250.5 133.594C250.5 132.765 251.172 132.094 252 132.094C252.828 132.094 253.5 132.765 253.5 133.594Z" fill="#D7D3D0"/>
<path d="M276.5 133.594C276.5 134.422 275.828 135.094 275 135.094C274.172 135.094 273.5 134.422 273.5 133.594C273.5 132.765 274.172 132.094 275 132.094C275.828 132.094 276.5 132.765 276.5 133.594Z" fill="#D7D3D0"/>
<path d="M299.5 133.594C299.5 134.422 298.828 135.094 298 135.094C297.172 135.094 296.5 134.422 296.5 133.594C296.5 132.765 297.172 132.094 298 132.094C298.828 132.094 299.5 132.765 299.5 133.594Z" fill="#D7D3D0"/>
<path d="M322.5 133.594C322.5 134.422 321.828 135.094 321 135.094C320.172 135.094 319.5 134.422 319.5 133.594C319.5 132.765 320.172 132.094 321 132.094C321.828 132.094 322.5 132.765 322.5 133.594Z" fill="#D7D3D0"/>
<path d="M345.5 133.594C345.5 134.422 344.828 135.094 344 135.094C343.172 135.094 342.5 134.422 342.5 133.594C342.5 132.765 343.172 132.094 344 132.094C344.828 132.094 345.5 132.765 345.5 133.594Z" fill="#D7D3D0"/>
<path d="M368.5 133.594C368.5 134.422 367.828 135.094 367 135.094C366.172 135.094 365.5 134.422 365.5 133.594C365.5 132.765 366.172 132.094 367 132.094C367.828 132.094 368.5 132.765 368.5 133.594Z" fill="#D7D3D0"/>
<path d="M391.5 133.594C391.5 134.422 390.828 135.094 390 135.094C389.172 135.094 388.5 134.422 388.5 133.594C388.5 132.765 389.172 132.094 390 132.094C390.828 132.094 391.5 132.765 391.5 133.594Z" fill="#D7D3D0"/>
<path d="M-68.5 156.594C-68.5 157.422 -69.1716 158.094 -70 158.094C-70.8284 158.094 -71.5 157.422 -71.5 156.594C-71.5 155.765 -70.8284 155.094 -70 155.094C-69.1716 155.094 -68.5 155.765 -68.5 156.594Z" fill="#D7D3D0"/>
<path d="M-45.5 156.594C-45.5 157.422 -46.1716 158.094 -47 158.094C-47.8284 158.094 -48.5 157.422 -48.5 156.594C-48.5 155.765 -47.8284 155.094 -47 155.094C-46.1716 155.094 -45.5 155.765 -45.5 156.594Z" fill="#D7D3D0"/>
<path d="M-22.5 156.594C-22.5 157.422 -23.1716 158.094 -24 158.094C-24.8284 158.094 -25.5 157.422 -25.5 156.594C-25.5 155.765 -24.8284 155.094 -24 155.094C-23.1716 155.094 -22.5 155.765 -22.5 156.594Z" fill="#D7D3D0"/>
<path d="M0.5 156.594C0.5 157.422 -0.171573 158.094 -1 158.094C-1.82843 158.094 -2.5 157.422 -2.5 156.594C-2.5 155.765 -1.82843 155.094 -1 155.094C-0.171573 155.094 0.5 155.765 0.5 156.594Z" fill="#D7D3D0"/>
<path d="M23.5 156.594C23.5 157.422 22.8284 158.094 22 158.094C21.1716 158.094 20.5 157.422 20.5 156.594C20.5 155.765 21.1716 155.094 22 155.094C22.8284 155.094 23.5 155.765 23.5 156.594Z" fill="#D7D3D0"/>
<path d="M46.5 156.594C46.5 157.422 45.8284 158.094 45 158.094C44.1716 158.094 43.5 157.422 43.5 156.594C43.5 155.765 44.1716 155.094 45 155.094C45.8284 155.094 46.5 155.765 46.5 156.594Z" fill="#D7D3D0"/>
<path d="M69.5 156.594C69.5 157.422 68.8284 158.094 68 158.094C67.1716 158.094 66.5 157.422 66.5 156.594C66.5 155.765 67.1716 155.094 68 155.094C68.8284 155.094 69.5 155.765 69.5 156.594Z" fill="#D7D3D0"/>
<path d="M92.5 156.594C92.5 157.422 91.8284 158.094 91 158.094C90.1716 158.094 89.5 157.422 89.5 156.594C89.5 155.765 90.1716 155.094 91 155.094C91.8284 155.094 92.5 155.765 92.5 156.594Z" fill="#D7D3D0"/>
<path d="M115.5 156.594C115.5 157.422 114.828 158.094 114 158.094C113.172 158.094 112.5 157.422 112.5 156.594C112.5 155.765 113.172 155.094 114 155.094C114.828 155.094 115.5 155.765 115.5 156.594Z" fill="#D7D3D0"/>
<path d="M138.5 156.594C138.5 157.422 137.828 158.094 137 158.094C136.172 158.094 135.5 157.422 135.5 156.594C135.5 155.765 136.172 155.094 137 155.094C137.828 155.094 138.5 155.765 138.5 156.594Z" fill="#D7D3D0"/>
<path d="M161.5 156.594C161.5 157.422 160.828 158.094 160 158.094C159.172 158.094 158.5 157.422 158.5 156.594C158.5 155.765 159.172 155.094 160 155.094C160.828 155.094 161.5 155.765 161.5 156.594Z" fill="#D7D3D0"/>
<path d="M184.5 156.594C184.5 157.422 183.828 158.094 183 158.094C182.172 158.094 181.5 157.422 181.5 156.594C181.5 155.765 182.172 155.094 183 155.094C183.828 155.094 184.5 155.765 184.5 156.594Z" fill="#D7D3D0"/>
<path d="M207.5 156.594C207.5 157.422 206.828 158.094 206 158.094C205.172 158.094 204.5 157.422 204.5 156.594C204.5 155.765 205.172 155.094 206 155.094C206.828 155.094 207.5 155.765 207.5 156.594Z" fill="#D7D3D0"/>
<path d="M230.5 156.594C230.5 157.422 229.828 158.094 229 158.094C228.172 158.094 227.5 157.422 227.5 156.594C227.5 155.765 228.172 155.094 229 155.094C229.828 155.094 230.5 155.765 230.5 156.594Z" fill="#D7D3D0"/>
<path d="M253.5 156.594C253.5 157.422 252.828 158.094 252 158.094C251.172 158.094 250.5 157.422 250.5 156.594C250.5 155.765 251.172 155.094 252 155.094C252.828 155.094 253.5 155.765 253.5 156.594Z" fill="#D7D3D0"/>
<path d="M276.5 156.594C276.5 157.422 275.828 158.094 275 158.094C274.172 158.094 273.5 157.422 273.5 156.594C273.5 155.765 274.172 155.094 275 155.094C275.828 155.094 276.5 155.765 276.5 156.594Z" fill="#D7D3D0"/>
<path d="M299.5 156.594C299.5 157.422 298.828 158.094 298 158.094C297.172 158.094 296.5 157.422 296.5 156.594C296.5 155.765 297.172 155.094 298 155.094C298.828 155.094 299.5 155.765 299.5 156.594Z" fill="#D7D3D0"/>
<path d="M322.5 156.594C322.5 157.422 321.828 158.094 321 158.094C320.172 158.094 319.5 157.422 319.5 156.594C319.5 155.765 320.172 155.094 321 155.094C321.828 155.094 322.5 155.765 322.5 156.594Z" fill="#D7D3D0"/>
<path d="M345.5 156.594C345.5 157.422 344.828 158.094 344 158.094C343.172 158.094 342.5 157.422 342.5 156.594C342.5 155.765 343.172 155.094 344 155.094C344.828 155.094 345.5 155.765 345.5 156.594Z" fill="#D7D3D0"/>
<path d="M368.5 156.594C368.5 157.422 367.828 158.094 367 158.094C366.172 158.094 365.5 157.422 365.5 156.594C365.5 155.765 366.172 155.094 367 155.094C367.828 155.094 368.5 155.765 368.5 156.594Z" fill="#D7D3D0"/>
<path d="M391.5 156.594C391.5 157.422 390.828 158.094 390 158.094C389.172 158.094 388.5 157.422 388.5 156.594C388.5 155.765 389.172 155.094 390 155.094C390.828 155.094 391.5 155.765 391.5 156.594Z" fill="#D7D3D0"/>
<path d="M-68.5 179.594C-68.5 180.422 -69.1716 181.094 -70 181.094C-70.8284 181.094 -71.5 180.422 -71.5 179.594C-71.5 178.765 -70.8284 178.094 -70 178.094C-69.1716 178.094 -68.5 178.765 -68.5 179.594Z" fill="#D7D3D0"/>
<path d="M-45.5 179.594C-45.5 180.422 -46.1716 181.094 -47 181.094C-47.8284 181.094 -48.5 180.422 -48.5 179.594C-48.5 178.765 -47.8284 178.094 -47 178.094C-46.1716 178.094 -45.5 178.765 -45.5 179.594Z" fill="#D7D3D0"/>
<path d="M-22.5 179.594C-22.5 180.422 -23.1716 181.094 -24 181.094C-24.8284 181.094 -25.5 180.422 -25.5 179.594C-25.5 178.765 -24.8284 178.094 -24 178.094C-23.1716 178.094 -22.5 178.765 -22.5 179.594Z" fill="#D7D3D0"/>
<path d="M0.5 179.594C0.5 180.422 -0.171573 181.094 -1 181.094C-1.82843 181.094 -2.5 180.422 -2.5 179.594C-2.5 178.765 -1.82843 178.094 -1 178.094C-0.171573 178.094 0.5 178.765 0.5 179.594Z" fill="#D7D3D0"/>
<path d="M23.5 179.594C23.5 180.422 22.8284 181.094 22 181.094C21.1716 181.094 20.5 180.422 20.5 179.594C20.5 178.765 21.1716 178.094 22 178.094C22.8284 178.094 23.5 178.765 23.5 179.594Z" fill="#D7D3D0"/>
<path d="M46.5 179.594C46.5 180.422 45.8284 181.094 45 181.094C44.1716 181.094 43.5 180.422 43.5 179.594C43.5 178.765 44.1716 178.094 45 178.094C45.8284 178.094 46.5 178.765 46.5 179.594Z" fill="#D7D3D0"/>
<path d="M69.5 179.594C69.5 180.422 68.8284 181.094 68 181.094C67.1716 181.094 66.5 180.422 66.5 179.594C66.5 178.765 67.1716 178.094 68 178.094C68.8284 178.094 69.5 178.765 69.5 179.594Z" fill="#D7D3D0"/>
<path d="M92.5 179.594C92.5 180.422 91.8284 181.094 91 181.094C90.1716 181.094 89.5 180.422 89.5 179.594C89.5 178.765 90.1716 178.094 91 178.094C91.8284 178.094 92.5 178.765 92.5 179.594Z" fill="#D7D3D0"/>
<path d="M115.5 179.594C115.5 180.422 114.828 181.094 114 181.094C113.172 181.094 112.5 180.422 112.5 179.594C112.5 178.765 113.172 178.094 114 178.094C114.828 178.094 115.5 178.765 115.5 179.594Z" fill="#D7D3D0"/>
<path d="M138.5 179.594C138.5 180.422 137.828 181.094 137 181.094C136.172 181.094 135.5 180.422 135.5 179.594C135.5 178.765 136.172 178.094 137 178.094C137.828 178.094 138.5 178.765 138.5 179.594Z" fill="#D7D3D0"/>
<path d="M161.5 179.594C161.5 180.422 160.828 181.094 160 181.094C159.172 181.094 158.5 180.422 158.5 179.594C158.5 178.765 159.172 178.094 160 178.094C160.828 178.094 161.5 178.765 161.5 179.594Z" fill="#D7D3D0"/>
<path d="M184.5 179.594C184.5 180.422 183.828 181.094 183 181.094C182.172 181.094 181.5 180.422 181.5 179.594C181.5 178.765 182.172 178.094 183 178.094C183.828 178.094 184.5 178.765 184.5 179.594Z" fill="#D7D3D0"/>
<path d="M207.5 179.594C207.5 180.422 206.828 181.094 206 181.094C205.172 181.094 204.5 180.422 204.5 179.594C204.5 178.765 205.172 178.094 206 178.094C206.828 178.094 207.5 178.765 207.5 179.594Z" fill="#D7D3D0"/>
<path d="M230.5 179.594C230.5 180.422 229.828 181.094 229 181.094C228.172 181.094 227.5 180.422 227.5 179.594C227.5 178.765 228.172 178.094 229 178.094C229.828 178.094 230.5 178.765 230.5 179.594Z" fill="#D7D3D0"/>
<path d="M253.5 179.594C253.5 180.422 252.828 181.094 252 181.094C251.172 181.094 250.5 180.422 250.5 179.594C250.5 178.765 251.172 178.094 252 178.094C252.828 178.094 253.5 178.765 253.5 179.594Z" fill="#D7D3D0"/>
<path d="M276.5 179.594C276.5 180.422 275.828 181.094 275 181.094C274.172 181.094 273.5 180.422 273.5 179.594C273.5 178.765 274.172 178.094 275 178.094C275.828 178.094 276.5 178.765 276.5 179.594Z" fill="#D7D3D0"/>
<path d="M299.5 179.594C299.5 180.422 298.828 181.094 298 181.094C297.172 181.094 296.5 180.422 296.5 179.594C296.5 178.765 297.172 178.094 298 178.094C298.828 178.094 299.5 178.765 299.5 179.594Z" fill="#D7D3D0"/>
<path d="M322.5 179.594C322.5 180.422 321.828 181.094 321 181.094C320.172 181.094 319.5 180.422 319.5 179.594C319.5 178.765 320.172 178.094 321 178.094C321.828 178.094 322.5 178.765 322.5 179.594Z" fill="#D7D3D0"/>
<path d="M345.5 179.594C345.5 180.422 344.828 181.094 344 181.094C343.172 181.094 342.5 180.422 342.5 179.594C342.5 178.765 343.172 178.094 344 178.094C344.828 178.094 345.5 178.765 345.5 179.594Z" fill="#D7D3D0"/>
<path d="M368.5 179.594C368.5 180.422 367.828 181.094 367 181.094C366.172 181.094 365.5 180.422 365.5 179.594C365.5 178.765 366.172 178.094 367 178.094C367.828 178.094 368.5 178.765 368.5 179.594Z" fill="#D7D3D0"/>
<path d="M391.5 179.594C391.5 180.422 390.828 181.094 390 181.094C389.172 181.094 388.5 180.422 388.5 179.594C388.5 178.765 389.172 178.094 390 178.094C390.828 178.094 391.5 178.765 391.5 179.594Z" fill="#D7D3D0"/>
<path d="M-68.5 202.594C-68.5 203.422 -69.1716 204.094 -70 204.094C-70.8284 204.094 -71.5 203.422 -71.5 202.594C-71.5 201.765 -70.8284 201.094 -70 201.094C-69.1716 201.094 -68.5 201.765 -68.5 202.594Z" fill="#D7D3D0"/>
<path d="M-45.5 202.594C-45.5 203.422 -46.1716 204.094 -47 204.094C-47.8284 204.094 -48.5 203.422 -48.5 202.594C-48.5 201.765 -47.8284 201.094 -47 201.094C-46.1716 201.094 -45.5 201.765 -45.5 202.594Z" fill="#D7D3D0"/>
<path d="M-22.5 202.594C-22.5 203.422 -23.1716 204.094 -24 204.094C-24.8284 204.094 -25.5 203.422 -25.5 202.594C-25.5 201.765 -24.8284 201.094 -24 201.094C-23.1716 201.094 -22.5 201.765 -22.5 202.594Z" fill="#D7D3D0"/>
<path d="M0.5 202.594C0.5 203.422 -0.171573 204.094 -1 204.094C-1.82843 204.094 -2.5 203.422 -2.5 202.594C-2.5 201.765 -1.82843 201.094 -1 201.094C-0.171573 201.094 0.5 201.765 0.5 202.594Z" fill="#D7D3D0"/>
<path d="M23.5 202.594C23.5 203.422 22.8284 204.094 22 204.094C21.1716 204.094 20.5 203.422 20.5 202.594C20.5 201.765 21.1716 201.094 22 201.094C22.8284 201.094 23.5 201.765 23.5 202.594Z" fill="#D7D3D0"/>
<path d="M46.5 202.594C46.5 203.422 45.8284 204.094 45 204.094C44.1716 204.094 43.5 203.422 43.5 202.594C43.5 201.765 44.1716 201.094 45 201.094C45.8284 201.094 46.5 201.765 46.5 202.594Z" fill="#D7D3D0"/>
<path d="M69.5 202.594C69.5 203.422 68.8284 204.094 68 204.094C67.1716 204.094 66.5 203.422 66.5 202.594C66.5 201.765 67.1716 201.094 68 201.094C68.8284 201.094 69.5 201.765 69.5 202.594Z" fill="#D7D3D0"/>
<path d="M92.5 202.594C92.5 203.422 91.8284 204.094 91 204.094C90.1716 204.094 89.5 203.422 89.5 202.594C89.5 201.765 90.1716 201.094 91 201.094C91.8284 201.094 92.5 201.765 92.5 202.594Z" fill="#D7D3D0"/>
<path d="M115.5 202.594C115.5 203.422 114.828 204.094 114 204.094C113.172 204.094 112.5 203.422 112.5 202.594C112.5 201.765 113.172 201.094 114 201.094C114.828 201.094 115.5 201.765 115.5 202.594Z" fill="#D7D3D0"/>
<path d="M138.5 202.594C138.5 203.422 137.828 204.094 137 204.094C136.172 204.094 135.5 203.422 135.5 202.594C135.5 201.765 136.172 201.094 137 201.094C137.828 201.094 138.5 201.765 138.5 202.594Z" fill="#D7D3D0"/>
<path d="M161.5 202.594C161.5 203.422 160.828 204.094 160 204.094C159.172 204.094 158.5 203.422 158.5 202.594C158.5 201.765 159.172 201.094 160 201.094C160.828 201.094 161.5 201.765 161.5 202.594Z" fill="#D7D3D0"/>
<path d="M184.5 202.594C184.5 203.422 183.828 204.094 183 204.094C182.172 204.094 181.5 203.422 181.5 202.594C181.5 201.765 182.172 201.094 183 201.094C183.828 201.094 184.5 201.765 184.5 202.594Z" fill="#D7D3D0"/>
<path d="M207.5 202.594C207.5 203.422 206.828 204.094 206 204.094C205.172 204.094 204.5 203.422 204.5 202.594C204.5 201.765 205.172 201.094 206 201.094C206.828 201.094 207.5 201.765 207.5 202.594Z" fill="#D7D3D0"/>
<path d="M230.5 202.594C230.5 203.422 229.828 204.094 229 204.094C228.172 204.094 227.5 203.422 227.5 202.594C227.5 201.765 228.172 201.094 229 201.094C229.828 201.094 230.5 201.765 230.5 202.594Z" fill="#D7D3D0"/>
<path d="M253.5 202.594C253.5 203.422 252.828 204.094 252 204.094C251.172 204.094 250.5 203.422 250.5 202.594C250.5 201.765 251.172 201.094 252 201.094C252.828 201.094 253.5 201.765 253.5 202.594Z" fill="#D7D3D0"/>
<path d="M276.5 202.594C276.5 203.422 275.828 204.094 275 204.094C274.172 204.094 273.5 203.422 273.5 202.594C273.5 201.765 274.172 201.094 275 201.094C275.828 201.094 276.5 201.765 276.5 202.594Z" fill="#D7D3D0"/>
<path d="M299.5 202.594C299.5 203.422 298.828 204.094 298 204.094C297.172 204.094 296.5 203.422 296.5 202.594C296.5 201.765 297.172 201.094 298 201.094C298.828 201.094 299.5 201.765 299.5 202.594Z" fill="#D7D3D0"/>
<path d="M322.5 202.594C322.5 203.422 321.828 204.094 321 204.094C320.172 204.094 319.5 203.422 319.5 202.594C319.5 201.765 320.172 201.094 321 201.094C321.828 201.094 322.5 201.765 322.5 202.594Z" fill="#D7D3D0"/>
<path d="M345.5 202.594C345.5 203.422 344.828 204.094 344 204.094C343.172 204.094 342.5 203.422 342.5 202.594C342.5 201.765 343.172 201.094 344 201.094C344.828 201.094 345.5 201.765 345.5 202.594Z" fill="#D7D3D0"/>
<path d="M368.5 202.594C368.5 203.422 367.828 204.094 367 204.094C366.172 204.094 365.5 203.422 365.5 202.594C365.5 201.765 366.172 201.094 367 201.094C367.828 201.094 368.5 201.765 368.5 202.594Z" fill="#D7D3D0"/>
<path d="M391.5 202.594C391.5 203.422 390.828 204.094 390 204.094C389.172 204.094 388.5 203.422 388.5 202.594C388.5 201.765 389.172 201.094 390 201.094C390.828 201.094 391.5 201.765 391.5 202.594Z" fill="#D7D3D0"/>
<path d="M-68.5 225.594C-68.5 226.422 -69.1716 227.094 -70 227.094C-70.8284 227.094 -71.5 226.422 -71.5 225.594C-71.5 224.765 -70.8284 224.094 -70 224.094C-69.1716 224.094 -68.5 224.765 -68.5 225.594Z" fill="#D7D3D0"/>
<path d="M-45.5 225.594C-45.5 226.422 -46.1716 227.094 -47 227.094C-47.8284 227.094 -48.5 226.422 -48.5 225.594C-48.5 224.765 -47.8284 224.094 -47 224.094C-46.1716 224.094 -45.5 224.765 -45.5 225.594Z" fill="#D7D3D0"/>
<path d="M-22.5 225.594C-22.5 226.422 -23.1716 227.094 -24 227.094C-24.8284 227.094 -25.5 226.422 -25.5 225.594C-25.5 224.765 -24.8284 224.094 -24 224.094C-23.1716 224.094 -22.5 224.765 -22.5 225.594Z" fill="#D7D3D0"/>
<path d="M0.5 225.594C0.5 226.422 -0.171573 227.094 -1 227.094C-1.82843 227.094 -2.5 226.422 -2.5 225.594C-2.5 224.765 -1.82843 224.094 -1 224.094C-0.171573 224.094 0.5 224.765 0.5 225.594Z" fill="#D7D3D0"/>
<path d="M23.5 225.594C23.5 226.422 22.8284 227.094 22 227.094C21.1716 227.094 20.5 226.422 20.5 225.594C20.5 224.765 21.1716 224.094 22 224.094C22.8284 224.094 23.5 224.765 23.5 225.594Z" fill="#D7D3D0"/>
<path d="M46.5 225.594C46.5 226.422 45.8284 227.094 45 227.094C44.1716 227.094 43.5 226.422 43.5 225.594C43.5 224.765 44.1716 224.094 45 224.094C45.8284 224.094 46.5 224.765 46.5 225.594Z" fill="#D7D3D0"/>
<path d="M69.5 225.594C69.5 226.422 68.8284 227.094 68 227.094C67.1716 227.094 66.5 226.422 66.5 225.594C66.5 224.765 67.1716 224.094 68 224.094C68.8284 224.094 69.5 224.765 69.5 225.594Z" fill="#D7D3D0"/>
<path d="M92.5 225.594C92.5 226.422 91.8284 227.094 91 227.094C90.1716 227.094 89.5 226.422 89.5 225.594C89.5 224.765 90.1716 224.094 91 224.094C91.8284 224.094 92.5 224.765 92.5 225.594Z" fill="#D7D3D0"/>
<path d="M115.5 225.594C115.5 226.422 114.828 227.094 114 227.094C113.172 227.094 112.5 226.422 112.5 225.594C112.5 224.765 113.172 224.094 114 224.094C114.828 224.094 115.5 224.765 115.5 225.594Z" fill="#D7D3D0"/>
<path d="M138.5 225.594C138.5 226.422 137.828 227.094 137 227.094C136.172 227.094 135.5 226.422 135.5 225.594C135.5 224.765 136.172 224.094 137 224.094C137.828 224.094 138.5 224.765 138.5 225.594Z" fill="#D7D3D0"/>
<path d="M161.5 225.594C161.5 226.422 160.828 227.094 160 227.094C159.172 227.094 158.5 226.422 158.5 225.594C158.5 224.765 159.172 224.094 160 224.094C160.828 224.094 161.5 224.765 161.5 225.594Z" fill="#D7D3D0"/>
<path d="M184.5 225.594C184.5 226.422 183.828 227.094 183 227.094C182.172 227.094 181.5 226.422 181.5 225.594C181.5 224.765 182.172 224.094 183 224.094C183.828 224.094 184.5 224.765 184.5 225.594Z" fill="#D7D3D0"/>
<path d="M207.5 225.594C207.5 226.422 206.828 227.094 206 227.094C205.172 227.094 204.5 226.422 204.5 225.594C204.5 224.765 205.172 224.094 206 224.094C206.828 224.094 207.5 224.765 207.5 225.594Z" fill="#D7D3D0"/>
<path d="M230.5 225.594C230.5 226.422 229.828 227.094 229 227.094C228.172 227.094 227.5 226.422 227.5 225.594C227.5 224.765 228.172 224.094 229 224.094C229.828 224.094 230.5 224.765 230.5 225.594Z" fill="#D7D3D0"/>
<path d="M253.5 225.594C253.5 226.422 252.828 227.094 252 227.094C251.172 227.094 250.5 226.422 250.5 225.594C250.5 224.765 251.172 224.094 252 224.094C252.828 224.094 253.5 224.765 253.5 225.594Z" fill="#D7D3D0"/>
<path d="M276.5 225.594C276.5 226.422 275.828 227.094 275 227.094C274.172 227.094 273.5 226.422 273.5 225.594C273.5 224.765 274.172 224.094 275 224.094C275.828 224.094 276.5 224.765 276.5 225.594Z" fill="#D7D3D0"/>
<path d="M299.5 225.594C299.5 226.422 298.828 227.094 298 227.094C297.172 227.094 296.5 226.422 296.5 225.594C296.5 224.765 297.172 224.094 298 224.094C298.828 224.094 299.5 224.765 299.5 225.594Z" fill="#D7D3D0"/>
<path d="M322.5 225.594C322.5 226.422 321.828 227.094 321 227.094C320.172 227.094 319.5 226.422 319.5 225.594C319.5 224.765 320.172 224.094 321 224.094C321.828 224.094 322.5 224.765 322.5 225.594Z" fill="#D7D3D0"/>
<path d="M345.5 225.594C345.5 226.422 344.828 227.094 344 227.094C343.172 227.094 342.5 226.422 342.5 225.594C342.5 224.765 343.172 224.094 344 224.094C344.828 224.094 345.5 224.765 345.5 225.594Z" fill="#D7D3D0"/>
<path d="M368.5 225.594C368.5 226.422 367.828 227.094 367 227.094C366.172 227.094 365.5 226.422 365.5 225.594C365.5 224.765 366.172 224.094 367 224.094C367.828 224.094 368.5 224.765 368.5 225.594Z" fill="#D7D3D0"/>
<path d="M391.5 225.594C391.5 226.422 390.828 227.094 390 227.094C389.172 227.094 388.5 226.422 388.5 225.594C388.5 224.765 389.172 224.094 390 224.094C390.828 224.094 391.5 224.765 391.5 225.594Z" fill="#D7D3D0"/>
<path d="M-68.5 248.594C-68.5 249.422 -69.1716 250.094 -70 250.094C-70.8284 250.094 -71.5 249.422 -71.5 248.594C-71.5 247.765 -70.8284 247.094 -70 247.094C-69.1716 247.094 -68.5 247.765 -68.5 248.594Z" fill="#D7D3D0"/>
<path d="M-45.5 248.594C-45.5 249.422 -46.1716 250.094 -47 250.094C-47.8284 250.094 -48.5 249.422 -48.5 248.594C-48.5 247.765 -47.8284 247.094 -47 247.094C-46.1716 247.094 -45.5 247.765 -45.5 248.594Z" fill="#D7D3D0"/>
<path d="M-22.5 248.594C-22.5 249.422 -23.1716 250.094 -24 250.094C-24.8284 250.094 -25.5 249.422 -25.5 248.594C-25.5 247.765 -24.8284 247.094 -24 247.094C-23.1716 247.094 -22.5 247.765 -22.5 248.594Z" fill="#D7D3D0"/>
<path d="M0.5 248.594C0.5 249.422 -0.171573 250.094 -1 250.094C-1.82843 250.094 -2.5 249.422 -2.5 248.594C-2.5 247.765 -1.82843 247.094 -1 247.094C-0.171573 247.094 0.5 247.765 0.5 248.594Z" fill="#D7D3D0"/>
<path d="M23.5 248.594C23.5 249.422 22.8284 250.094 22 250.094C21.1716 250.094 20.5 249.422 20.5 248.594C20.5 247.765 21.1716 247.094 22 247.094C22.8284 247.094 23.5 247.765 23.5 248.594Z" fill="#D7D3D0"/>
<path d="M46.5 248.594C46.5 249.422 45.8284 250.094 45 250.094C44.1716 250.094 43.5 249.422 43.5 248.594C43.5 247.765 44.1716 247.094 45 247.094C45.8284 247.094 46.5 247.765 46.5 248.594Z" fill="#D7D3D0"/>
<path d="M69.5 248.594C69.5 249.422 68.8284 250.094 68 250.094C67.1716 250.094 66.5 249.422 66.5 248.594C66.5 247.765 67.1716 247.094 68 247.094C68.8284 247.094 69.5 247.765 69.5 248.594Z" fill="#D7D3D0"/>
<path d="M92.5 248.594C92.5 249.422 91.8284 250.094 91 250.094C90.1716 250.094 89.5 249.422 89.5 248.594C89.5 247.765 90.1716 247.094 91 247.094C91.8284 247.094 92.5 247.765 92.5 248.594Z" fill="#D7D3D0"/>
<path d="M115.5 248.594C115.5 249.422 114.828 250.094 114 250.094C113.172 250.094 112.5 249.422 112.5 248.594C112.5 247.765 113.172 247.094 114 247.094C114.828 247.094 115.5 247.765 115.5 248.594Z" fill="#D7D3D0"/>
<path d="M138.5 248.594C138.5 249.422 137.828 250.094 137 250.094C136.172 250.094 135.5 249.422 135.5 248.594C135.5 247.765 136.172 247.094 137 247.094C137.828 247.094 138.5 247.765 138.5 248.594Z" fill="#D7D3D0"/>
<path d="M161.5 248.594C161.5 249.422 160.828 250.094 160 250.094C159.172 250.094 158.5 249.422 158.5 248.594C158.5 247.765 159.172 247.094 160 247.094C160.828 247.094 161.5 247.765 161.5 248.594Z" fill="#D7D3D0"/>
<path d="M184.5 248.594C184.5 249.422 183.828 250.094 183 250.094C182.172 250.094 181.5 249.422 181.5 248.594C181.5 247.765 182.172 247.094 183 247.094C183.828 247.094 184.5 247.765 184.5 248.594Z" fill="#D7D3D0"/>
<path d="M207.5 248.594C207.5 249.422 206.828 250.094 206 250.094C205.172 250.094 204.5 249.422 204.5 248.594C204.5 247.765 205.172 247.094 206 247.094C206.828 247.094 207.5 247.765 207.5 248.594Z" fill="#D7D3D0"/>
<path d="M230.5 248.594C230.5 249.422 229.828 250.094 229 250.094C228.172 250.094 227.5 249.422 227.5 248.594C227.5 247.765 228.172 247.094 229 247.094C229.828 247.094 230.5 247.765 230.5 248.594Z" fill="#D7D3D0"/>
<path d="M253.5 248.594C253.5 249.422 252.828 250.094 252 250.094C251.172 250.094 250.5 249.422 250.5 248.594C250.5 247.765 251.172 247.094 252 247.094C252.828 247.094 253.5 247.765 253.5 248.594Z" fill="#D7D3D0"/>
<path d="M276.5 248.594C276.5 249.422 275.828 250.094 275 250.094C274.172 250.094 273.5 249.422 273.5 248.594C273.5 247.765 274.172 247.094 275 247.094C275.828 247.094 276.5 247.765 276.5 248.594Z" fill="#D7D3D0"/>
<path d="M299.5 248.594C299.5 249.422 298.828 250.094 298 250.094C297.172 250.094 296.5 249.422 296.5 248.594C296.5 247.765 297.172 247.094 298 247.094C298.828 247.094 299.5 247.765 299.5 248.594Z" fill="#D7D3D0"/>
<path d="M322.5 248.594C322.5 249.422 321.828 250.094 321 250.094C320.172 250.094 319.5 249.422 319.5 248.594C319.5 247.765 320.172 247.094 321 247.094C321.828 247.094 322.5 247.765 322.5 248.594Z" fill="#D7D3D0"/>
<path d="M345.5 248.594C345.5 249.422 344.828 250.094 344 250.094C343.172 250.094 342.5 249.422 342.5 248.594C342.5 247.765 343.172 247.094 344 247.094C344.828 247.094 345.5 247.765 345.5 248.594Z" fill="#D7D3D0"/>
<path d="M368.5 248.594C368.5 249.422 367.828 250.094 367 250.094C366.172 250.094 365.5 249.422 365.5 248.594C365.5 247.765 366.172 247.094 367 247.094C367.828 247.094 368.5 247.765 368.5 248.594Z" fill="#D7D3D0"/>
<path d="M391.5 248.594C391.5 249.422 390.828 250.094 390 250.094C389.172 250.094 388.5 249.422 388.5 248.594C388.5 247.765 389.172 247.094 390 247.094C390.828 247.094 391.5 247.765 391.5 248.594Z" fill="#D7D3D0"/>
<path d="M-68.5 271.594C-68.5 272.422 -69.1716 273.094 -70 273.094C-70.8284 273.094 -71.5 272.422 -71.5 271.594C-71.5 270.765 -70.8284 270.094 -70 270.094C-69.1716 270.094 -68.5 270.765 -68.5 271.594Z" fill="#D7D3D0"/>
<path d="M-45.5 271.594C-45.5 272.422 -46.1716 273.094 -47 273.094C-47.8284 273.094 -48.5 272.422 -48.5 271.594C-48.5 270.765 -47.8284 270.094 -47 270.094C-46.1716 270.094 -45.5 270.765 -45.5 271.594Z" fill="#D7D3D0"/>
<path d="M-22.5 271.594C-22.5 272.422 -23.1716 273.094 -24 273.094C-24.8284 273.094 -25.5 272.422 -25.5 271.594C-25.5 270.765 -24.8284 270.094 -24 270.094C-23.1716 270.094 -22.5 270.765 -22.5 271.594Z" fill="#D7D3D0"/>
<path d="M0.5 271.594C0.5 272.422 -0.171573 273.094 -1 273.094C-1.82843 273.094 -2.5 272.422 -2.5 271.594C-2.5 270.765 -1.82843 270.094 -1 270.094C-0.171573 270.094 0.5 270.765 0.5 271.594Z" fill="#D7D3D0"/>
<path d="M23.5 271.594C23.5 272.422 22.8284 273.094 22 273.094C21.1716 273.094 20.5 272.422 20.5 271.594C20.5 270.765 21.1716 270.094 22 270.094C22.8284 270.094 23.5 270.765 23.5 271.594Z" fill="#D7D3D0"/>
<path d="M46.5 271.594C46.5 272.422 45.8284 273.094 45 273.094C44.1716 273.094 43.5 272.422 43.5 271.594C43.5 270.765 44.1716 270.094 45 270.094C45.8284 270.094 46.5 270.765 46.5 271.594Z" fill="#D7D3D0"/>
<path d="M69.5 271.594C69.5 272.422 68.8284 273.094 68 273.094C67.1716 273.094 66.5 272.422 66.5 271.594C66.5 270.765 67.1716 270.094 68 270.094C68.8284 270.094 69.5 270.765 69.5 271.594Z" fill="#D7D3D0"/>
<path d="M92.5 271.594C92.5 272.422 91.8284 273.094 91 273.094C90.1716 273.094 89.5 272.422 89.5 271.594C89.5 270.765 90.1716 270.094 91 270.094C91.8284 270.094 92.5 270.765 92.5 271.594Z" fill="#D7D3D0"/>
<path d="M115.5 271.594C115.5 272.422 114.828 273.094 114 273.094C113.172 273.094 112.5 272.422 112.5 271.594C112.5 270.765 113.172 270.094 114 270.094C114.828 270.094 115.5 270.765 115.5 271.594Z" fill="#D7D3D0"/>
<path d="M138.5 271.594C138.5 272.422 137.828 273.094 137 273.094C136.172 273.094 135.5 272.422 135.5 271.594C135.5 270.765 136.172 270.094 137 270.094C137.828 270.094 138.5 270.765 138.5 271.594Z" fill="#D7D3D0"/>
<path d="M161.5 271.594C161.5 272.422 160.828 273.094 160 273.094C159.172 273.094 158.5 272.422 158.5 271.594C158.5 270.765 159.172 270.094 160 270.094C160.828 270.094 161.5 270.765 161.5 271.594Z" fill="#D7D3D0"/>
<path d="M184.5 271.594C184.5 272.422 183.828 273.094 183 273.094C182.172 273.094 181.5 272.422 181.5 271.594C181.5 270.765 182.172 270.094 183 270.094C183.828 270.094 184.5 270.765 184.5 271.594Z" fill="#D7D3D0"/>
<path d="M207.5 271.594C207.5 272.422 206.828 273.094 206 273.094C205.172 273.094 204.5 272.422 204.5 271.594C204.5 270.765 205.172 270.094 206 270.094C206.828 270.094 207.5 270.765 207.5 271.594Z" fill="#D7D3D0"/>
<path d="M230.5 271.594C230.5 272.422 229.828 273.094 229 273.094C228.172 273.094 227.5 272.422 227.5 271.594C227.5 270.765 228.172 270.094 229 270.094C229.828 270.094 230.5 270.765 230.5 271.594Z" fill="#D7D3D0"/>
<path d="M253.5 271.594C253.5 272.422 252.828 273.094 252 273.094C251.172 273.094 250.5 272.422 250.5 271.594C250.5 270.765 251.172 270.094 252 270.094C252.828 270.094 253.5 270.765 253.5 271.594Z" fill="#D7D3D0"/>
<path d="M276.5 271.594C276.5 272.422 275.828 273.094 275 273.094C274.172 273.094 273.5 272.422 273.5 271.594C273.5 270.765 274.172 270.094 275 270.094C275.828 270.094 276.5 270.765 276.5 271.594Z" fill="#D7D3D0"/>
<path d="M299.5 271.594C299.5 272.422 298.828 273.094 298 273.094C297.172 273.094 296.5 272.422 296.5 271.594C296.5 270.765 297.172 270.094 298 270.094C298.828 270.094 299.5 270.765 299.5 271.594Z" fill="#D7D3D0"/>
<path d="M322.5 271.594C322.5 272.422 321.828 273.094 321 273.094C320.172 273.094 319.5 272.422 319.5 271.594C319.5 270.765 320.172 270.094 321 270.094C321.828 270.094 322.5 270.765 322.5 271.594Z" fill="#D7D3D0"/>
<path d="M345.5 271.594C345.5 272.422 344.828 273.094 344 273.094C343.172 273.094 342.5 272.422 342.5 271.594C342.5 270.765 343.172 270.094 344 270.094C344.828 270.094 345.5 270.765 345.5 271.594Z" fill="#D7D3D0"/>
<path d="M368.5 271.594C368.5 272.422 367.828 273.094 367 273.094C366.172 273.094 365.5 272.422 365.5 271.594C365.5 270.765 366.172 270.094 367 270.094C367.828 270.094 368.5 270.765 368.5 271.594Z" fill="#D7D3D0"/>
<path d="M391.5 271.594C391.5 272.422 390.828 273.094 390 273.094C389.172 273.094 388.5 272.422 388.5 271.594C388.5 270.765 389.172 270.094 390 270.094C390.828 270.094 391.5 270.765 391.5 271.594Z" fill="#D7D3D0"/>
<path d="M-68.5 294.594C-68.5 295.422 -69.1716 296.094 -70 296.094C-70.8284 296.094 -71.5 295.422 -71.5 294.594C-71.5 293.765 -70.8284 293.094 -70 293.094C-69.1716 293.094 -68.5 293.765 -68.5 294.594Z" fill="#D7D3D0"/>
<path d="M-45.5 294.594C-45.5 295.422 -46.1716 296.094 -47 296.094C-47.8284 296.094 -48.5 295.422 -48.5 294.594C-48.5 293.765 -47.8284 293.094 -47 293.094C-46.1716 293.094 -45.5 293.765 -45.5 294.594Z" fill="#D7D3D0"/>
<path d="M-22.5 294.594C-22.5 295.422 -23.1716 296.094 -24 296.094C-24.8284 296.094 -25.5 295.422 -25.5 294.594C-25.5 293.765 -24.8284 293.094 -24 293.094C-23.1716 293.094 -22.5 293.765 -22.5 294.594Z" fill="#D7D3D0"/>
<path d="M0.5 294.594C0.5 295.422 -0.171573 296.094 -1 296.094C-1.82843 296.094 -2.5 295.422 -2.5 294.594C-2.5 293.765 -1.82843 293.094 -1 293.094C-0.171573 293.094 0.5 293.765 0.5 294.594Z" fill="#D7D3D0"/>
<path d="M23.5 294.594C23.5 295.422 22.8284 296.094 22 296.094C21.1716 296.094 20.5 295.422 20.5 294.594C20.5 293.765 21.1716 293.094 22 293.094C22.8284 293.094 23.5 293.765 23.5 294.594Z" fill="#D7D3D0"/>
<path d="M46.5 294.594C46.5 295.422 45.8284 296.094 45 296.094C44.1716 296.094 43.5 295.422 43.5 294.594C43.5 293.765 44.1716 293.094 45 293.094C45.8284 293.094 46.5 293.765 46.5 294.594Z" fill="#D7D3D0"/>
<path d="M69.5 294.594C69.5 295.422 68.8284 296.094 68 296.094C67.1716 296.094 66.5 295.422 66.5 294.594C66.5 293.765 67.1716 293.094 68 293.094C68.8284 293.094 69.5 293.765 69.5 294.594Z" fill="#D7D3D0"/>
<path d="M92.5 294.594C92.5 295.422 91.8284 296.094 91 296.094C90.1716 296.094 89.5 295.422 89.5 294.594C89.5 293.765 90.1716 293.094 91 293.094C91.8284 293.094 92.5 293.765 92.5 294.594Z" fill="#D7D3D0"/>
<path d="M115.5 294.594C115.5 295.422 114.828 296.094 114 296.094C113.172 296.094 112.5 295.422 112.5 294.594C112.5 293.765 113.172 293.094 114 293.094C114.828 293.094 115.5 293.765 115.5 294.594Z" fill="#D7D3D0"/>
<path d="M138.5 294.594C138.5 295.422 137.828 296.094 137 296.094C136.172 296.094 135.5 295.422 135.5 294.594C135.5 293.765 136.172 293.094 137 293.094C137.828 293.094 138.5 293.765 138.5 294.594Z" fill="#D7D3D0"/>
<path d="M161.5 294.594C161.5 295.422 160.828 296.094 160 296.094C159.172 296.094 158.5 295.422 158.5 294.594C158.5 293.765 159.172 293.094 160 293.094C160.828 293.094 161.5 293.765 161.5 294.594Z" fill="#D7D3D0"/>
<path d="M184.5 294.594C184.5 295.422 183.828 296.094 183 296.094C182.172 296.094 181.5 295.422 181.5 294.594C181.5 293.765 182.172 293.094 183 293.094C183.828 293.094 184.5 293.765 184.5 294.594Z" fill="#D7D3D0"/>
<path d="M207.5 294.594C207.5 295.422 206.828 296.094 206 296.094C205.172 296.094 204.5 295.422 204.5 294.594C204.5 293.765 205.172 293.094 206 293.094C206.828 293.094 207.5 293.765 207.5 294.594Z" fill="#D7D3D0"/>
<path d="M230.5 294.594C230.5 295.422 229.828 296.094 229 296.094C228.172 296.094 227.5 295.422 227.5 294.594C227.5 293.765 228.172 293.094 229 293.094C229.828 293.094 230.5 293.765 230.5 294.594Z" fill="#D7D3D0"/>
<path d="M253.5 294.594C253.5 295.422 252.828 296.094 252 296.094C251.172 296.094 250.5 295.422 250.5 294.594C250.5 293.765 251.172 293.094 252 293.094C252.828 293.094 253.5 293.765 253.5 294.594Z" fill="#D7D3D0"/>
<path d="M276.5 294.594C276.5 295.422 275.828 296.094 275 296.094C274.172 296.094 273.5 295.422 273.5 294.594C273.5 293.765 274.172 293.094 275 293.094C275.828 293.094 276.5 293.765 276.5 294.594Z" fill="#D7D3D0"/>
<path d="M299.5 294.594C299.5 295.422 298.828 296.094 298 296.094C297.172 296.094 296.5 295.422 296.5 294.594C296.5 293.765 297.172 293.094 298 293.094C298.828 293.094 299.5 293.765 299.5 294.594Z" fill="#D7D3D0"/>
<path d="M322.5 294.594C322.5 295.422 321.828 296.094 321 296.094C320.172 296.094 319.5 295.422 319.5 294.594C319.5 293.765 320.172 293.094 321 293.094C321.828 293.094 322.5 293.765 322.5 294.594Z" fill="#D7D3D0"/>
<path d="M345.5 294.594C345.5 295.422 344.828 296.094 344 296.094C343.172 296.094 342.5 295.422 342.5 294.594C342.5 293.765 343.172 293.094 344 293.094C344.828 293.094 345.5 293.765 345.5 294.594Z" fill="#D7D3D0"/>
<path d="M368.5 294.594C368.5 295.422 367.828 296.094 367 296.094C366.172 296.094 365.5 295.422 365.5 294.594C365.5 293.765 366.172 293.094 367 293.094C367.828 293.094 368.5 293.765 368.5 294.594Z" fill="#D7D3D0"/>
<path d="M391.5 294.594C391.5 295.422 390.828 296.094 390 296.094C389.172 296.094 388.5 295.422 388.5 294.594C388.5 293.765 389.172 293.094 390 293.094C390.828 293.094 391.5 293.765 391.5 294.594Z" fill="#D7D3D0"/>
<path d="M-68.5 317.594C-68.5 318.422 -69.1716 319.094 -70 319.094C-70.8284 319.094 -71.5 318.422 -71.5 317.594C-71.5 316.765 -70.8284 316.094 -70 316.094C-69.1716 316.094 -68.5 316.765 -68.5 317.594Z" fill="#D7D3D0"/>
<path d="M-45.5 317.594C-45.5 318.422 -46.1716 319.094 -47 319.094C-47.8284 319.094 -48.5 318.422 -48.5 317.594C-48.5 316.765 -47.8284 316.094 -47 316.094C-46.1716 316.094 -45.5 316.765 -45.5 317.594Z" fill="#D7D3D0"/>
<path d="M-22.5 317.594C-22.5 318.422 -23.1716 319.094 -24 319.094C-24.8284 319.094 -25.5 318.422 -25.5 317.594C-25.5 316.765 -24.8284 316.094 -24 316.094C-23.1716 316.094 -22.5 316.765 -22.5 317.594Z" fill="#D7D3D0"/>
<path d="M0.5 317.594C0.5 318.422 -0.171573 319.094 -1 319.094C-1.82843 319.094 -2.5 318.422 -2.5 317.594C-2.5 316.765 -1.82843 316.094 -1 316.094C-0.171573 316.094 0.5 316.765 0.5 317.594Z" fill="#D7D3D0"/>
<path d="M23.5 317.594C23.5 318.422 22.8284 319.094 22 319.094C21.1716 319.094 20.5 318.422 20.5 317.594C20.5 316.765 21.1716 316.094 22 316.094C22.8284 316.094 23.5 316.765 23.5 317.594Z" fill="#D7D3D0"/>
<path d="M46.5 317.594C46.5 318.422 45.8284 319.094 45 319.094C44.1716 319.094 43.5 318.422 43.5 317.594C43.5 316.765 44.1716 316.094 45 316.094C45.8284 316.094 46.5 316.765 46.5 317.594Z" fill="#D7D3D0"/>
<path d="M69.5 317.594C69.5 318.422 68.8284 319.094 68 319.094C67.1716 319.094 66.5 318.422 66.5 317.594C66.5 316.765 67.1716 316.094 68 316.094C68.8284 316.094 69.5 316.765 69.5 317.594Z" fill="#D7D3D0"/>
<path d="M92.5 317.594C92.5 318.422 91.8284 319.094 91 319.094C90.1716 319.094 89.5 318.422 89.5 317.594C89.5 316.765 90.1716 316.094 91 316.094C91.8284 316.094 92.5 316.765 92.5 317.594Z" fill="#D7D3D0"/>
<path d="M115.5 317.594C115.5 318.422 114.828 319.094 114 319.094C113.172 319.094 112.5 318.422 112.5 317.594C112.5 316.765 113.172 316.094 114 316.094C114.828 316.094 115.5 316.765 115.5 317.594Z" fill="#D7D3D0"/>
<path d="M138.5 317.594C138.5 318.422 137.828 319.094 137 319.094C136.172 319.094 135.5 318.422 135.5 317.594C135.5 316.765 136.172 316.094 137 316.094C137.828 316.094 138.5 316.765 138.5 317.594Z" fill="#D7D3D0"/>
<path d="M161.5 317.594C161.5 318.422 160.828 319.094 160 319.094C159.172 319.094 158.5 318.422 158.5 317.594C158.5 316.765 159.172 316.094 160 316.094C160.828 316.094 161.5 316.765 161.5 317.594Z" fill="#D7D3D0"/>
<path d="M184.5 317.594C184.5 318.422 183.828 319.094 183 319.094C182.172 319.094 181.5 318.422 181.5 317.594C181.5 316.765 182.172 316.094 183 316.094C183.828 316.094 184.5 316.765 184.5 317.594Z" fill="#D7D3D0"/>
<path d="M207.5 317.594C207.5 318.422 206.828 319.094 206 319.094C205.172 319.094 204.5 318.422 204.5 317.594C204.5 316.765 205.172 316.094 206 316.094C206.828 316.094 207.5 316.765 207.5 317.594Z" fill="#D7D3D0"/>
<path d="M230.5 317.594C230.5 318.422 229.828 319.094 229 319.094C228.172 319.094 227.5 318.422 227.5 317.594C227.5 316.765 228.172 316.094 229 316.094C229.828 316.094 230.5 316.765 230.5 317.594Z" fill="#D7D3D0"/>
<path d="M253.5 317.594C253.5 318.422 252.828 319.094 252 319.094C251.172 319.094 250.5 318.422 250.5 317.594C250.5 316.765 251.172 316.094 252 316.094C252.828 316.094 253.5 316.765 253.5 317.594Z" fill="#D7D3D0"/>
<path d="M276.5 317.594C276.5 318.422 275.828 319.094 275 319.094C274.172 319.094 273.5 318.422 273.5 317.594C273.5 316.765 274.172 316.094 275 316.094C275.828 316.094 276.5 316.765 276.5 317.594Z" fill="#D7D3D0"/>
<path d="M299.5 317.594C299.5 318.422 298.828 319.094 298 319.094C297.172 319.094 296.5 318.422 296.5 317.594C296.5 316.765 297.172 316.094 298 316.094C298.828 316.094 299.5 316.765 299.5 317.594Z" fill="#D7D3D0"/>
<path d="M322.5 317.594C322.5 318.422 321.828 319.094 321 319.094C320.172 319.094 319.5 318.422 319.5 317.594C319.5 316.765 320.172 316.094 321 316.094C321.828 316.094 322.5 316.765 322.5 317.594Z" fill="#D7D3D0"/>
<path d="M345.5 317.594C345.5 318.422 344.828 319.094 344 319.094C343.172 319.094 342.5 318.422 342.5 317.594C342.5 316.765 343.172 316.094 344 316.094C344.828 316.094 345.5 316.765 345.5 317.594Z" fill="#D7D3D0"/>
<path d="M368.5 317.594C368.5 318.422 367.828 319.094 367 319.094C366.172 319.094 365.5 318.422 365.5 317.594C365.5 316.765 366.172 316.094 367 316.094C367.828 316.094 368.5 316.765 368.5 317.594Z" fill="#D7D3D0"/>
<path d="M391.5 317.594C391.5 318.422 390.828 319.094 390 319.094C389.172 319.094 388.5 318.422 388.5 317.594C388.5 316.765 389.172 316.094 390 316.094C390.828 316.094 391.5 316.765 391.5 317.594Z" fill="#D7D3D0"/>
<path d="M-68.5 340.594C-68.5 341.422 -69.1716 342.094 -70 342.094C-70.8284 342.094 -71.5 341.422 -71.5 340.594C-71.5 339.765 -70.8284 339.094 -70 339.094C-69.1716 339.094 -68.5 339.765 -68.5 340.594Z" fill="#D7D3D0"/>
<path d="M-45.5 340.594C-45.5 341.422 -46.1716 342.094 -47 342.094C-47.8284 342.094 -48.5 341.422 -48.5 340.594C-48.5 339.765 -47.8284 339.094 -47 339.094C-46.1716 339.094 -45.5 339.765 -45.5 340.594Z" fill="#D7D3D0"/>
<path d="M-22.5 340.594C-22.5 341.422 -23.1716 342.094 -24 342.094C-24.8284 342.094 -25.5 341.422 -25.5 340.594C-25.5 339.765 -24.8284 339.094 -24 339.094C-23.1716 339.094 -22.5 339.765 -22.5 340.594Z" fill="#D7D3D0"/>
<path d="M0.5 340.594C0.5 341.422 -0.171573 342.094 -1 342.094C-1.82843 342.094 -2.5 341.422 -2.5 340.594C-2.5 339.765 -1.82843 339.094 -1 339.094C-0.171573 339.094 0.5 339.765 0.5 340.594Z" fill="#D7D3D0"/>
<path d="M23.5 340.594C23.5 341.422 22.8284 342.094 22 342.094C21.1716 342.094 20.5 341.422 20.5 340.594C20.5 339.765 21.1716 339.094 22 339.094C22.8284 339.094 23.5 339.765 23.5 340.594Z" fill="#D7D3D0"/>
<path d="M46.5 340.594C46.5 341.422 45.8284 342.094 45 342.094C44.1716 342.094 43.5 341.422 43.5 340.594C43.5 339.765 44.1716 339.094 45 339.094C45.8284 339.094 46.5 339.765 46.5 340.594Z" fill="#D7D3D0"/>
<path d="M69.5 340.594C69.5 341.422 68.8284 342.094 68 342.094C67.1716 342.094 66.5 341.422 66.5 340.594C66.5 339.765 67.1716 339.094 68 339.094C68.8284 339.094 69.5 339.765 69.5 340.594Z" fill="#D7D3D0"/>
<path d="M92.5 340.594C92.5 341.422 91.8284 342.094 91 342.094C90.1716 342.094 89.5 341.422 89.5 340.594C89.5 339.765 90.1716 339.094 91 339.094C91.8284 339.094 92.5 339.765 92.5 340.594Z" fill="#D7D3D0"/>
<path d="M115.5 340.594C115.5 341.422 114.828 342.094 114 342.094C113.172 342.094 112.5 341.422 112.5 340.594C112.5 339.765 113.172 339.094 114 339.094C114.828 339.094 115.5 339.765 115.5 340.594Z" fill="#D7D3D0"/>
<path d="M138.5 340.594C138.5 341.422 137.828 342.094 137 342.094C136.172 342.094 135.5 341.422 135.5 340.594C135.5 339.765 136.172 339.094 137 339.094C137.828 339.094 138.5 339.765 138.5 340.594Z" fill="#D7D3D0"/>
<path d="M161.5 340.594C161.5 341.422 160.828 342.094 160 342.094C159.172 342.094 158.5 341.422 158.5 340.594C158.5 339.765 159.172 339.094 160 339.094C160.828 339.094 161.5 339.765 161.5 340.594Z" fill="#D7D3D0"/>
<path d="M184.5 340.594C184.5 341.422 183.828 342.094 183 342.094C182.172 342.094 181.5 341.422 181.5 340.594C181.5 339.765 182.172 339.094 183 339.094C183.828 339.094 184.5 339.765 184.5 340.594Z" fill="#D7D3D0"/>
<path d="M207.5 340.594C207.5 341.422 206.828 342.094 206 342.094C205.172 342.094 204.5 341.422 204.5 340.594C204.5 339.765 205.172 339.094 206 339.094C206.828 339.094 207.5 339.765 207.5 340.594Z" fill="#D7D3D0"/>
<path d="M230.5 340.594C230.5 341.422 229.828 342.094 229 342.094C228.172 342.094 227.5 341.422 227.5 340.594C227.5 339.765 228.172 339.094 229 339.094C229.828 339.094 230.5 339.765 230.5 340.594Z" fill="#D7D3D0"/>
<path d="M253.5 340.594C253.5 341.422 252.828 342.094 252 342.094C251.172 342.094 250.5 341.422 250.5 340.594C250.5 339.765 251.172 339.094 252 339.094C252.828 339.094 253.5 339.765 253.5 340.594Z" fill="#D7D3D0"/>
<path d="M276.5 340.594C276.5 341.422 275.828 342.094 275 342.094C274.172 342.094 273.5 341.422 273.5 340.594C273.5 339.765 274.172 339.094 275 339.094C275.828 339.094 276.5 339.765 276.5 340.594Z" fill="#D7D3D0"/>
<path d="M299.5 340.594C299.5 341.422 298.828 342.094 298 342.094C297.172 342.094 296.5 341.422 296.5 340.594C296.5 339.765 297.172 339.094 298 339.094C298.828 339.094 299.5 339.765 299.5 340.594Z" fill="#D7D3D0"/>
<path d="M322.5 340.594C322.5 341.422 321.828 342.094 321 342.094C320.172 342.094 319.5 341.422 319.5 340.594C319.5 339.765 320.172 339.094 321 339.094C321.828 339.094 322.5 339.765 322.5 340.594Z" fill="#D7D3D0"/>
<path d="M345.5 340.594C345.5 341.422 344.828 342.094 344 342.094C343.172 342.094 342.5 341.422 342.5 340.594C342.5 339.765 343.172 339.094 344 339.094C344.828 339.094 345.5 339.765 345.5 340.594Z" fill="#D7D3D0"/>
<path d="M368.5 340.594C368.5 341.422 367.828 342.094 367 342.094C366.172 342.094 365.5 341.422 365.5 340.594C365.5 339.765 366.172 339.094 367 339.094C367.828 339.094 368.5 339.765 368.5 340.594Z" fill="#D7D3D0"/>
<path d="M391.5 340.594C391.5 341.422 390.828 342.094 390 342.094C389.172 342.094 388.5 341.422 388.5 340.594C388.5 339.765 389.172 339.094 390 339.094C390.828 339.094 391.5 339.765 391.5 340.594Z" fill="#D7D3D0"/>
<path d="M-68.5 363.594C-68.5 364.422 -69.1716 365.094 -70 365.094C-70.8284 365.094 -71.5 364.422 -71.5 363.594C-71.5 362.765 -70.8284 362.094 -70 362.094C-69.1716 362.094 -68.5 362.765 -68.5 363.594Z" fill="#D7D3D0"/>
<path d="M-45.5 363.594C-45.5 364.422 -46.1716 365.094 -47 365.094C-47.8284 365.094 -48.5 364.422 -48.5 363.594C-48.5 362.765 -47.8284 362.094 -47 362.094C-46.1716 362.094 -45.5 362.765 -45.5 363.594Z" fill="#D7D3D0"/>
<path d="M-22.5 363.594C-22.5 364.422 -23.1716 365.094 -24 365.094C-24.8284 365.094 -25.5 364.422 -25.5 363.594C-25.5 362.765 -24.8284 362.094 -24 362.094C-23.1716 362.094 -22.5 362.765 -22.5 363.594Z" fill="#D7D3D0"/>
<path d="M0.5 363.594C0.5 364.422 -0.171573 365.094 -1 365.094C-1.82843 365.094 -2.5 364.422 -2.5 363.594C-2.5 362.765 -1.82843 362.094 -1 362.094C-0.171573 362.094 0.5 362.765 0.5 363.594Z" fill="#D7D3D0"/>
<path d="M23.5 363.594C23.5 364.422 22.8284 365.094 22 365.094C21.1716 365.094 20.5 364.422 20.5 363.594C20.5 362.765 21.1716 362.094 22 362.094C22.8284 362.094 23.5 362.765 23.5 363.594Z" fill="#D7D3D0"/>
<path d="M46.5 363.594C46.5 364.422 45.8284 365.094 45 365.094C44.1716 365.094 43.5 364.422 43.5 363.594C43.5 362.765 44.1716 362.094 45 362.094C45.8284 362.094 46.5 362.765 46.5 363.594Z" fill="#D7D3D0"/>
<path d="M69.5 363.594C69.5 364.422 68.8284 365.094 68 365.094C67.1716 365.094 66.5 364.422 66.5 363.594C66.5 362.765 67.1716 362.094 68 362.094C68.8284 362.094 69.5 362.765 69.5 363.594Z" fill="#D7D3D0"/>
<path d="M92.5 363.594C92.5 364.422 91.8284 365.094 91 365.094C90.1716 365.094 89.5 364.422 89.5 363.594C89.5 362.765 90.1716 362.094 91 362.094C91.8284 362.094 92.5 362.765 92.5 363.594Z" fill="#D7D3D0"/>
<path d="M115.5 363.594C115.5 364.422 114.828 365.094 114 365.094C113.172 365.094 112.5 364.422 112.5 363.594C112.5 362.765 113.172 362.094 114 362.094C114.828 362.094 115.5 362.765 115.5 363.594Z" fill="#D7D3D0"/>
<path d="M138.5 363.594C138.5 364.422 137.828 365.094 137 365.094C136.172 365.094 135.5 364.422 135.5 363.594C135.5 362.765 136.172 362.094 137 362.094C137.828 362.094 138.5 362.765 138.5 363.594Z" fill="#D7D3D0"/>
<path d="M161.5 363.594C161.5 364.422 160.828 365.094 160 365.094C159.172 365.094 158.5 364.422 158.5 363.594C158.5 362.765 159.172 362.094 160 362.094C160.828 362.094 161.5 362.765 161.5 363.594Z" fill="#D7D3D0"/>
<path d="M184.5 363.594C184.5 364.422 183.828 365.094 183 365.094C182.172 365.094 181.5 364.422 181.5 363.594C181.5 362.765 182.172 362.094 183 362.094C183.828 362.094 184.5 362.765 184.5 363.594Z" fill="#D7D3D0"/>
<path d="M207.5 363.594C207.5 364.422 206.828 365.094 206 365.094C205.172 365.094 204.5 364.422 204.5 363.594C204.5 362.765 205.172 362.094 206 362.094C206.828 362.094 207.5 362.765 207.5 363.594Z" fill="#D7D3D0"/>
<path d="M230.5 363.594C230.5 364.422 229.828 365.094 229 365.094C228.172 365.094 227.5 364.422 227.5 363.594C227.5 362.765 228.172 362.094 229 362.094C229.828 362.094 230.5 362.765 230.5 363.594Z" fill="#D7D3D0"/>
<path d="M253.5 363.594C253.5 364.422 252.828 365.094 252 365.094C251.172 365.094 250.5 364.422 250.5 363.594C250.5 362.765 251.172 362.094 252 362.094C252.828 362.094 253.5 362.765 253.5 363.594Z" fill="#D7D3D0"/>
<path d="M276.5 363.594C276.5 364.422 275.828 365.094 275 365.094C274.172 365.094 273.5 364.422 273.5 363.594C273.5 362.765 274.172 362.094 275 362.094C275.828 362.094 276.5 362.765 276.5 363.594Z" fill="#D7D3D0"/>
<path d="M299.5 363.594C299.5 364.422 298.828 365.094 298 365.094C297.172 365.094 296.5 364.422 296.5 363.594C296.5 362.765 297.172 362.094 298 362.094C298.828 362.094 299.5 362.765 299.5 363.594Z" fill="#D7D3D0"/>
<path d="M322.5 363.594C322.5 364.422 321.828 365.094 321 365.094C320.172 365.094 319.5 364.422 319.5 363.594C319.5 362.765 320.172 362.094 321 362.094C321.828 362.094 322.5 362.765 322.5 363.594Z" fill="#D7D3D0"/>
<path d="M345.5 363.594C345.5 364.422 344.828 365.094 344 365.094C343.172 365.094 342.5 364.422 342.5 363.594C342.5 362.765 343.172 362.094 344 362.094C344.828 362.094 345.5 362.765 345.5 363.594Z" fill="#D7D3D0"/>
<path d="M368.5 363.594C368.5 364.422 367.828 365.094 367 365.094C366.172 365.094 365.5 364.422 365.5 363.594C365.5 362.765 366.172 362.094 367 362.094C367.828 362.094 368.5 362.765 368.5 363.594Z" fill="#D7D3D0"/>
<path d="M391.5 363.594C391.5 364.422 390.828 365.094 390 365.094C389.172 365.094 388.5 364.422 388.5 363.594C388.5 362.765 389.172 362.094 390 362.094C390.828 362.094 391.5 362.765 391.5 363.594Z" fill="#D7D3D0"/>
<path d="M-68.5 386.594C-68.5 387.422 -69.1716 388.094 -70 388.094C-70.8284 388.094 -71.5 387.422 -71.5 386.594C-71.5 385.765 -70.8284 385.094 -70 385.094C-69.1716 385.094 -68.5 385.765 -68.5 386.594Z" fill="#D7D3D0"/>
<path d="M-45.5 386.594C-45.5 387.422 -46.1716 388.094 -47 388.094C-47.8284 388.094 -48.5 387.422 -48.5 386.594C-48.5 385.765 -47.8284 385.094 -47 385.094C-46.1716 385.094 -45.5 385.765 -45.5 386.594Z" fill="#D7D3D0"/>
<path d="M-22.5 386.594C-22.5 387.422 -23.1716 388.094 -24 388.094C-24.8284 388.094 -25.5 387.422 -25.5 386.594C-25.5 385.765 -24.8284 385.094 -24 385.094C-23.1716 385.094 -22.5 385.765 -22.5 386.594Z" fill="#D7D3D0"/>
<path d="M0.5 386.594C0.5 387.422 -0.171573 388.094 -1 388.094C-1.82843 388.094 -2.5 387.422 -2.5 386.594C-2.5 385.765 -1.82843 385.094 -1 385.094C-0.171573 385.094 0.5 385.765 0.5 386.594Z" fill="#D7D3D0"/>
<path d="M23.5 386.594C23.5 387.422 22.8284 388.094 22 388.094C21.1716 388.094 20.5 387.422 20.5 386.594C20.5 385.765 21.1716 385.094 22 385.094C22.8284 385.094 23.5 385.765 23.5 386.594Z" fill="#D7D3D0"/>
<path d="M46.5 386.594C46.5 387.422 45.8284 388.094 45 388.094C44.1716 388.094 43.5 387.422 43.5 386.594C43.5 385.765 44.1716 385.094 45 385.094C45.8284 385.094 46.5 385.765 46.5 386.594Z" fill="#D7D3D0"/>
<path d="M69.5 386.594C69.5 387.422 68.8284 388.094 68 388.094C67.1716 388.094 66.5 387.422 66.5 386.594C66.5 385.765 67.1716 385.094 68 385.094C68.8284 385.094 69.5 385.765 69.5 386.594Z" fill="#D7D3D0"/>
<path d="M92.5 386.594C92.5 387.422 91.8284 388.094 91 388.094C90.1716 388.094 89.5 387.422 89.5 386.594C89.5 385.765 90.1716 385.094 91 385.094C91.8284 385.094 92.5 385.765 92.5 386.594Z" fill="#D7D3D0"/>
<path d="M115.5 386.594C115.5 387.422 114.828 388.094 114 388.094C113.172 388.094 112.5 387.422 112.5 386.594C112.5 385.765 113.172 385.094 114 385.094C114.828 385.094 115.5 385.765 115.5 386.594Z" fill="#D7D3D0"/>
<path d="M138.5 386.594C138.5 387.422 137.828 388.094 137 388.094C136.172 388.094 135.5 387.422 135.5 386.594C135.5 385.765 136.172 385.094 137 385.094C137.828 385.094 138.5 385.765 138.5 386.594Z" fill="#D7D3D0"/>
<path d="M161.5 386.594C161.5 387.422 160.828 388.094 160 388.094C159.172 388.094 158.5 387.422 158.5 386.594C158.5 385.765 159.172 385.094 160 385.094C160.828 385.094 161.5 385.765 161.5 386.594Z" fill="#D7D3D0"/>
<path d="M184.5 386.594C184.5 387.422 183.828 388.094 183 388.094C182.172 388.094 181.5 387.422 181.5 386.594C181.5 385.765 182.172 385.094 183 385.094C183.828 385.094 184.5 385.765 184.5 386.594Z" fill="#D7D3D0"/>
<path d="M207.5 386.594C207.5 387.422 206.828 388.094 206 388.094C205.172 388.094 204.5 387.422 204.5 386.594C204.5 385.765 205.172 385.094 206 385.094C206.828 385.094 207.5 385.765 207.5 386.594Z" fill="#D7D3D0"/>
<path d="M230.5 386.594C230.5 387.422 229.828 388.094 229 388.094C228.172 388.094 227.5 387.422 227.5 386.594C227.5 385.765 228.172 385.094 229 385.094C229.828 385.094 230.5 385.765 230.5 386.594Z" fill="#D7D3D0"/>
<path d="M253.5 386.594C253.5 387.422 252.828 388.094 252 388.094C251.172 388.094 250.5 387.422 250.5 386.594C250.5 385.765 251.172 385.094 252 385.094C252.828 385.094 253.5 385.765 253.5 386.594Z" fill="#D7D3D0"/>
<path d="M276.5 386.594C276.5 387.422 275.828 388.094 275 388.094C274.172 388.094 273.5 387.422 273.5 386.594C273.5 385.765 274.172 385.094 275 385.094C275.828 385.094 276.5 385.765 276.5 386.594Z" fill="#D7D3D0"/>
<path d="M299.5 386.594C299.5 387.422 298.828 388.094 298 388.094C297.172 388.094 296.5 387.422 296.5 386.594C296.5 385.765 297.172 385.094 298 385.094C298.828 385.094 299.5 385.765 299.5 386.594Z" fill="#D7D3D0"/>
<path d="M322.5 386.594C322.5 387.422 321.828 388.094 321 388.094C320.172 388.094 319.5 387.422 319.5 386.594C319.5 385.765 320.172 385.094 321 385.094C321.828 385.094 322.5 385.765 322.5 386.594Z" fill="#D7D3D0"/>
<path d="M345.5 386.594C345.5 387.422 344.828 388.094 344 388.094C343.172 388.094 342.5 387.422 342.5 386.594C342.5 385.765 343.172 385.094 344 385.094C344.828 385.094 345.5 385.765 345.5 386.594Z" fill="#D7D3D0"/>
<path d="M368.5 386.594C368.5 387.422 367.828 388.094 367 388.094C366.172 388.094 365.5 387.422 365.5 386.594C365.5 385.765 366.172 385.094 367 385.094C367.828 385.094 368.5 385.765 368.5 386.594Z" fill="#D7D3D0"/>
<path d="M391.5 386.594C391.5 387.422 390.828 388.094 390 388.094C389.172 388.094 388.5 387.422 388.5 386.594C388.5 385.765 389.172 385.094 390 385.094C390.828 385.094 391.5 385.765 391.5 386.594Z" fill="#D7D3D0"/>
<path d="M-68.5 409.594C-68.5 410.422 -69.1716 411.094 -70 411.094C-70.8284 411.094 -71.5 410.422 -71.5 409.594C-71.5 408.765 -70.8284 408.094 -70 408.094C-69.1716 408.094 -68.5 408.765 -68.5 409.594Z" fill="#D7D3D0"/>
<path d="M-45.5 409.594C-45.5 410.422 -46.1716 411.094 -47 411.094C-47.8284 411.094 -48.5 410.422 -48.5 409.594C-48.5 408.765 -47.8284 408.094 -47 408.094C-46.1716 408.094 -45.5 408.765 -45.5 409.594Z" fill="#D7D3D0"/>
<path d="M-22.5 409.594C-22.5 410.422 -23.1716 411.094 -24 411.094C-24.8284 411.094 -25.5 410.422 -25.5 409.594C-25.5 408.765 -24.8284 408.094 -24 408.094C-23.1716 408.094 -22.5 408.765 -22.5 409.594Z" fill="#D7D3D0"/>
<path d="M0.5 409.594C0.5 410.422 -0.171573 411.094 -1 411.094C-1.82843 411.094 -2.5 410.422 -2.5 409.594C-2.5 408.765 -1.82843 408.094 -1 408.094C-0.171573 408.094 0.5 408.765 0.5 409.594Z" fill="#D7D3D0"/>
<path d="M23.5 409.594C23.5 410.422 22.8284 411.094 22 411.094C21.1716 411.094 20.5 410.422 20.5 409.594C20.5 408.765 21.1716 408.094 22 408.094C22.8284 408.094 23.5 408.765 23.5 409.594Z" fill="#D7D3D0"/>
<path d="M46.5 409.594C46.5 410.422 45.8284 411.094 45 411.094C44.1716 411.094 43.5 410.422 43.5 409.594C43.5 408.765 44.1716 408.094 45 408.094C45.8284 408.094 46.5 408.765 46.5 409.594Z" fill="#D7D3D0"/>
<path d="M69.5 409.594C69.5 410.422 68.8284 411.094 68 411.094C67.1716 411.094 66.5 410.422 66.5 409.594C66.5 408.765 67.1716 408.094 68 408.094C68.8284 408.094 69.5 408.765 69.5 409.594Z" fill="#D7D3D0"/>
<path d="M92.5 409.594C92.5 410.422 91.8284 411.094 91 411.094C90.1716 411.094 89.5 410.422 89.5 409.594C89.5 408.765 90.1716 408.094 91 408.094C91.8284 408.094 92.5 408.765 92.5 409.594Z" fill="#D7D3D0"/>
<path d="M115.5 409.594C115.5 410.422 114.828 411.094 114 411.094C113.172 411.094 112.5 410.422 112.5 409.594C112.5 408.765 113.172 408.094 114 408.094C114.828 408.094 115.5 408.765 115.5 409.594Z" fill="#D7D3D0"/>
<path d="M138.5 409.594C138.5 410.422 137.828 411.094 137 411.094C136.172 411.094 135.5 410.422 135.5 409.594C135.5 408.765 136.172 408.094 137 408.094C137.828 408.094 138.5 408.765 138.5 409.594Z" fill="#D7D3D0"/>
<path d="M161.5 409.594C161.5 410.422 160.828 411.094 160 411.094C159.172 411.094 158.5 410.422 158.5 409.594C158.5 408.765 159.172 408.094 160 408.094C160.828 408.094 161.5 408.765 161.5 409.594Z" fill="#D7D3D0"/>
<path d="M184.5 409.594C184.5 410.422 183.828 411.094 183 411.094C182.172 411.094 181.5 410.422 181.5 409.594C181.5 408.765 182.172 408.094 183 408.094C183.828 408.094 184.5 408.765 184.5 409.594Z" fill="#D7D3D0"/>
<path d="M207.5 409.594C207.5 410.422 206.828 411.094 206 411.094C205.172 411.094 204.5 410.422 204.5 409.594C204.5 408.765 205.172 408.094 206 408.094C206.828 408.094 207.5 408.765 207.5 409.594Z" fill="#D7D3D0"/>
<path d="M230.5 409.594C230.5 410.422 229.828 411.094 229 411.094C228.172 411.094 227.5 410.422 227.5 409.594C227.5 408.765 228.172 408.094 229 408.094C229.828 408.094 230.5 408.765 230.5 409.594Z" fill="#D7D3D0"/>
<path d="M253.5 409.594C253.5 410.422 252.828 411.094 252 411.094C251.172 411.094 250.5 410.422 250.5 409.594C250.5 408.765 251.172 408.094 252 408.094C252.828 408.094 253.5 408.765 253.5 409.594Z" fill="#D7D3D0"/>
<path d="M276.5 409.594C276.5 410.422 275.828 411.094 275 411.094C274.172 411.094 273.5 410.422 273.5 409.594C273.5 408.765 274.172 408.094 275 408.094C275.828 408.094 276.5 408.765 276.5 409.594Z" fill="#D7D3D0"/>
<path d="M299.5 409.594C299.5 410.422 298.828 411.094 298 411.094C297.172 411.094 296.5 410.422 296.5 409.594C296.5 408.765 297.172 408.094 298 408.094C298.828 408.094 299.5 408.765 299.5 409.594Z" fill="#D7D3D0"/>
<path d="M322.5 409.594C322.5 410.422 321.828 411.094 321 411.094C320.172 411.094 319.5 410.422 319.5 409.594C319.5 408.765 320.172 408.094 321 408.094C321.828 408.094 322.5 408.765 322.5 409.594Z" fill="#D7D3D0"/>
<path d="M345.5 409.594C345.5 410.422 344.828 411.094 344 411.094C343.172 411.094 342.5 410.422 342.5 409.594C342.5 408.765 343.172 408.094 344 408.094C344.828 408.094 345.5 408.765 345.5 409.594Z" fill="#D7D3D0"/>
<path d="M368.5 409.594C368.5 410.422 367.828 411.094 367 411.094C366.172 411.094 365.5 410.422 365.5 409.594C365.5 408.765 366.172 408.094 367 408.094C367.828 408.094 368.5 408.765 368.5 409.594Z" fill="#D7D3D0"/>
<path d="M391.5 409.594C391.5 410.422 390.828 411.094 390 411.094C389.172 411.094 388.5 410.422 388.5 409.594C388.5 408.765 389.172 408.094 390 408.094C390.828 408.094 391.5 408.765 391.5 409.594Z" fill="#D7D3D0"/>
<path d="M-68.5 432.594C-68.5 433.422 -69.1716 434.094 -70 434.094C-70.8284 434.094 -71.5 433.422 -71.5 432.594C-71.5 431.765 -70.8284 431.094 -70 431.094C-69.1716 431.094 -68.5 431.765 -68.5 432.594Z" fill="#D7D3D0"/>
<path d="M-45.5 432.594C-45.5 433.422 -46.1716 434.094 -47 434.094C-47.8284 434.094 -48.5 433.422 -48.5 432.594C-48.5 431.765 -47.8284 431.094 -47 431.094C-46.1716 431.094 -45.5 431.765 -45.5 432.594Z" fill="#D7D3D0"/>
<path d="M-22.5 432.594C-22.5 433.422 -23.1716 434.094 -24 434.094C-24.8284 434.094 -25.5 433.422 -25.5 432.594C-25.5 431.765 -24.8284 431.094 -24 431.094C-23.1716 431.094 -22.5 431.765 -22.5 432.594Z" fill="#D7D3D0"/>
<path d="M0.5 432.594C0.5 433.422 -0.171573 434.094 -1 434.094C-1.82843 434.094 -2.5 433.422 -2.5 432.594C-2.5 431.765 -1.82843 431.094 -1 431.094C-0.171573 431.094 0.5 431.765 0.5 432.594Z" fill="#D7D3D0"/>
<path d="M23.5 432.594C23.5 433.422 22.8284 434.094 22 434.094C21.1716 434.094 20.5 433.422 20.5 432.594C20.5 431.765 21.1716 431.094 22 431.094C22.8284 431.094 23.5 431.765 23.5 432.594Z" fill="#D7D3D0"/>
<path d="M46.5 432.594C46.5 433.422 45.8284 434.094 45 434.094C44.1716 434.094 43.5 433.422 43.5 432.594C43.5 431.765 44.1716 431.094 45 431.094C45.8284 431.094 46.5 431.765 46.5 432.594Z" fill="#D7D3D0"/>
<path d="M69.5 432.594C69.5 433.422 68.8284 434.094 68 434.094C67.1716 434.094 66.5 433.422 66.5 432.594C66.5 431.765 67.1716 431.094 68 431.094C68.8284 431.094 69.5 431.765 69.5 432.594Z" fill="#D7D3D0"/>
<path d="M92.5 432.594C92.5 433.422 91.8284 434.094 91 434.094C90.1716 434.094 89.5 433.422 89.5 432.594C89.5 431.765 90.1716 431.094 91 431.094C91.8284 431.094 92.5 431.765 92.5 432.594Z" fill="#D7D3D0"/>
<path d="M115.5 432.594C115.5 433.422 114.828 434.094 114 434.094C113.172 434.094 112.5 433.422 112.5 432.594C112.5 431.765 113.172 431.094 114 431.094C114.828 431.094 115.5 431.765 115.5 432.594Z" fill="#D7D3D0"/>
<path d="M138.5 432.594C138.5 433.422 137.828 434.094 137 434.094C136.172 434.094 135.5 433.422 135.5 432.594C135.5 431.765 136.172 431.094 137 431.094C137.828 431.094 138.5 431.765 138.5 432.594Z" fill="#D7D3D0"/>
<path d="M161.5 432.594C161.5 433.422 160.828 434.094 160 434.094C159.172 434.094 158.5 433.422 158.5 432.594C158.5 431.765 159.172 431.094 160 431.094C160.828 431.094 161.5 431.765 161.5 432.594Z" fill="#D7D3D0"/>
<path d="M184.5 432.594C184.5 433.422 183.828 434.094 183 434.094C182.172 434.094 181.5 433.422 181.5 432.594C181.5 431.765 182.172 431.094 183 431.094C183.828 431.094 184.5 431.765 184.5 432.594Z" fill="#D7D3D0"/>
<path d="M207.5 432.594C207.5 433.422 206.828 434.094 206 434.094C205.172 434.094 204.5 433.422 204.5 432.594C204.5 431.765 205.172 431.094 206 431.094C206.828 431.094 207.5 431.765 207.5 432.594Z" fill="#D7D3D0"/>
<path d="M230.5 432.594C230.5 433.422 229.828 434.094 229 434.094C228.172 434.094 227.5 433.422 227.5 432.594C227.5 431.765 228.172 431.094 229 431.094C229.828 431.094 230.5 431.765 230.5 432.594Z" fill="#D7D3D0"/>
<path d="M253.5 432.594C253.5 433.422 252.828 434.094 252 434.094C251.172 434.094 250.5 433.422 250.5 432.594C250.5 431.765 251.172 431.094 252 431.094C252.828 431.094 253.5 431.765 253.5 432.594Z" fill="#D7D3D0"/>
<path d="M276.5 432.594C276.5 433.422 275.828 434.094 275 434.094C274.172 434.094 273.5 433.422 273.5 432.594C273.5 431.765 274.172 431.094 275 431.094C275.828 431.094 276.5 431.765 276.5 432.594Z" fill="#D7D3D0"/>
<path d="M299.5 432.594C299.5 433.422 298.828 434.094 298 434.094C297.172 434.094 296.5 433.422 296.5 432.594C296.5 431.765 297.172 431.094 298 431.094C298.828 431.094 299.5 431.765 299.5 432.594Z" fill="#D7D3D0"/>
<path d="M322.5 432.594C322.5 433.422 321.828 434.094 321 434.094C320.172 434.094 319.5 433.422 319.5 432.594C319.5 431.765 320.172 431.094 321 431.094C321.828 431.094 322.5 431.765 322.5 432.594Z" fill="#D7D3D0"/>
<path d="M345.5 432.594C345.5 433.422 344.828 434.094 344 434.094C343.172 434.094 342.5 433.422 342.5 432.594C342.5 431.765 343.172 431.094 344 431.094C344.828 431.094 345.5 431.765 345.5 432.594Z" fill="#D7D3D0"/>
<path d="M368.5 432.594C368.5 433.422 367.828 434.094 367 434.094C366.172 434.094 365.5 433.422 365.5 432.594C365.5 431.765 366.172 431.094 367 431.094C367.828 431.094 368.5 431.765 368.5 432.594Z" fill="#D7D3D0"/>
<path d="M391.5 432.594C391.5 433.422 390.828 434.094 390 434.094C389.172 434.094 388.5 433.422 388.5 432.594C388.5 431.765 389.172 431.094 390 431.094C390.828 431.094 391.5 431.765 391.5 432.594Z" fill="#D7D3D0"/>
<path d="M-68.5 455.594C-68.5 456.422 -69.1716 457.094 -70 457.094C-70.8284 457.094 -71.5 456.422 -71.5 455.594C-71.5 454.765 -70.8284 454.094 -70 454.094C-69.1716 454.094 -68.5 454.765 -68.5 455.594Z" fill="#D7D3D0"/>
<path d="M-45.5 455.594C-45.5 456.422 -46.1716 457.094 -47 457.094C-47.8284 457.094 -48.5 456.422 -48.5 455.594C-48.5 454.765 -47.8284 454.094 -47 454.094C-46.1716 454.094 -45.5 454.765 -45.5 455.594Z" fill="#D7D3D0"/>
<path d="M-22.5 455.594C-22.5 456.422 -23.1716 457.094 -24 457.094C-24.8284 457.094 -25.5 456.422 -25.5 455.594C-25.5 454.765 -24.8284 454.094 -24 454.094C-23.1716 454.094 -22.5 454.765 -22.5 455.594Z" fill="#D7D3D0"/>
<path d="M0.5 455.594C0.5 456.422 -0.171573 457.094 -1 457.094C-1.82843 457.094 -2.5 456.422 -2.5 455.594C-2.5 454.765 -1.82843 454.094 -1 454.094C-0.171573 454.094 0.5 454.765 0.5 455.594Z" fill="#D7D3D0"/>
<path d="M23.5 455.594C23.5 456.422 22.8284 457.094 22 457.094C21.1716 457.094 20.5 456.422 20.5 455.594C20.5 454.765 21.1716 454.094 22 454.094C22.8284 454.094 23.5 454.765 23.5 455.594Z" fill="#D7D3D0"/>
<path d="M46.5 455.594C46.5 456.422 45.8284 457.094 45 457.094C44.1716 457.094 43.5 456.422 43.5 455.594C43.5 454.765 44.1716 454.094 45 454.094C45.8284 454.094 46.5 454.765 46.5 455.594Z" fill="#D7D3D0"/>
<path d="M69.5 455.594C69.5 456.422 68.8284 457.094 68 457.094C67.1716 457.094 66.5 456.422 66.5 455.594C66.5 454.765 67.1716 454.094 68 454.094C68.8284 454.094 69.5 454.765 69.5 455.594Z" fill="#D7D3D0"/>
<path d="M92.5 455.594C92.5 456.422 91.8284 457.094 91 457.094C90.1716 457.094 89.5 456.422 89.5 455.594C89.5 454.765 90.1716 454.094 91 454.094C91.8284 454.094 92.5 454.765 92.5 455.594Z" fill="#D7D3D0"/>
<path d="M115.5 455.594C115.5 456.422 114.828 457.094 114 457.094C113.172 457.094 112.5 456.422 112.5 455.594C112.5 454.765 113.172 454.094 114 454.094C114.828 454.094 115.5 454.765 115.5 455.594Z" fill="#D7D3D0"/>
<path d="M138.5 455.594C138.5 456.422 137.828 457.094 137 457.094C136.172 457.094 135.5 456.422 135.5 455.594C135.5 454.765 136.172 454.094 137 454.094C137.828 454.094 138.5 454.765 138.5 455.594Z" fill="#D7D3D0"/>
<path d="M161.5 455.594C161.5 456.422 160.828 457.094 160 457.094C159.172 457.094 158.5 456.422 158.5 455.594C158.5 454.765 159.172 454.094 160 454.094C160.828 454.094 161.5 454.765 161.5 455.594Z" fill="#D7D3D0"/>
<path d="M184.5 455.594C184.5 456.422 183.828 457.094 183 457.094C182.172 457.094 181.5 456.422 181.5 455.594C181.5 454.765 182.172 454.094 183 454.094C183.828 454.094 184.5 454.765 184.5 455.594Z" fill="#D7D3D0"/>
<path d="M207.5 455.594C207.5 456.422 206.828 457.094 206 457.094C205.172 457.094 204.5 456.422 204.5 455.594C204.5 454.765 205.172 454.094 206 454.094C206.828 454.094 207.5 454.765 207.5 455.594Z" fill="#D7D3D0"/>
<path d="M230.5 455.594C230.5 456.422 229.828 457.094 229 457.094C228.172 457.094 227.5 456.422 227.5 455.594C227.5 454.765 228.172 454.094 229 454.094C229.828 454.094 230.5 454.765 230.5 455.594Z" fill="#D7D3D0"/>
<path d="M253.5 455.594C253.5 456.422 252.828 457.094 252 457.094C251.172 457.094 250.5 456.422 250.5 455.594C250.5 454.765 251.172 454.094 252 454.094C252.828 454.094 253.5 454.765 253.5 455.594Z" fill="#D7D3D0"/>
<path d="M276.5 455.594C276.5 456.422 275.828 457.094 275 457.094C274.172 457.094 273.5 456.422 273.5 455.594C273.5 454.765 274.172 454.094 275 454.094C275.828 454.094 276.5 454.765 276.5 455.594Z" fill="#D7D3D0"/>
<path d="M299.5 455.594C299.5 456.422 298.828 457.094 298 457.094C297.172 457.094 296.5 456.422 296.5 455.594C296.5 454.765 297.172 454.094 298 454.094C298.828 454.094 299.5 454.765 299.5 455.594Z" fill="#D7D3D0"/>
<path d="M322.5 455.594C322.5 456.422 321.828 457.094 321 457.094C320.172 457.094 319.5 456.422 319.5 455.594C319.5 454.765 320.172 454.094 321 454.094C321.828 454.094 322.5 454.765 322.5 455.594Z" fill="#D7D3D0"/>
<path d="M345.5 455.594C345.5 456.422 344.828 457.094 344 457.094C343.172 457.094 342.5 456.422 342.5 455.594C342.5 454.765 343.172 454.094 344 454.094C344.828 454.094 345.5 454.765 345.5 455.594Z" fill="#D7D3D0"/>
<path d="M368.5 455.594C368.5 456.422 367.828 457.094 367 457.094C366.172 457.094 365.5 456.422 365.5 455.594C365.5 454.765 366.172 454.094 367 454.094C367.828 454.094 368.5 454.765 368.5 455.594Z" fill="#D7D3D0"/>
<path d="M391.5 455.594C391.5 456.422 390.828 457.094 390 457.094C389.172 457.094 388.5 456.422 388.5 455.594C388.5 454.765 389.172 454.094 390 454.094C390.828 454.094 391.5 454.765 391.5 455.594Z" fill="#D7D3D0"/>
<path d="M-68.5 478.594C-68.5 479.422 -69.1716 480.094 -70 480.094C-70.8284 480.094 -71.5 479.422 -71.5 478.594C-71.5 477.765 -70.8284 477.094 -70 477.094C-69.1716 477.094 -68.5 477.765 -68.5 478.594Z" fill="#D7D3D0"/>
<path d="M-45.5 478.594C-45.5 479.422 -46.1716 480.094 -47 480.094C-47.8284 480.094 -48.5 479.422 -48.5 478.594C-48.5 477.765 -47.8284 477.094 -47 477.094C-46.1716 477.094 -45.5 477.765 -45.5 478.594Z" fill="#D7D3D0"/>
<path d="M-22.5 478.594C-22.5 479.422 -23.1716 480.094 -24 480.094C-24.8284 480.094 -25.5 479.422 -25.5 478.594C-25.5 477.765 -24.8284 477.094 -24 477.094C-23.1716 477.094 -22.5 477.765 -22.5 478.594Z" fill="#D7D3D0"/>
<path d="M0.5 478.594C0.5 479.422 -0.171573 480.094 -1 480.094C-1.82843 480.094 -2.5 479.422 -2.5 478.594C-2.5 477.765 -1.82843 477.094 -1 477.094C-0.171573 477.094 0.5 477.765 0.5 478.594Z" fill="#D7D3D0"/>
<path d="M23.5 478.594C23.5 479.422 22.8284 480.094 22 480.094C21.1716 480.094 20.5 479.422 20.5 478.594C20.5 477.765 21.1716 477.094 22 477.094C22.8284 477.094 23.5 477.765 23.5 478.594Z" fill="#D7D3D0"/>
<path d="M46.5 478.594C46.5 479.422 45.8284 480.094 45 480.094C44.1716 480.094 43.5 479.422 43.5 478.594C43.5 477.765 44.1716 477.094 45 477.094C45.8284 477.094 46.5 477.765 46.5 478.594Z" fill="#D7D3D0"/>
<path d="M69.5 478.594C69.5 479.422 68.8284 480.094 68 480.094C67.1716 480.094 66.5 479.422 66.5 478.594C66.5 477.765 67.1716 477.094 68 477.094C68.8284 477.094 69.5 477.765 69.5 478.594Z" fill="#D7D3D0"/>
<path d="M92.5 478.594C92.5 479.422 91.8284 480.094 91 480.094C90.1716 480.094 89.5 479.422 89.5 478.594C89.5 477.765 90.1716 477.094 91 477.094C91.8284 477.094 92.5 477.765 92.5 478.594Z" fill="#D7D3D0"/>
<path d="M115.5 478.594C115.5 479.422 114.828 480.094 114 480.094C113.172 480.094 112.5 479.422 112.5 478.594C112.5 477.765 113.172 477.094 114 477.094C114.828 477.094 115.5 477.765 115.5 478.594Z" fill="#D7D3D0"/>
<path d="M138.5 478.594C138.5 479.422 137.828 480.094 137 480.094C136.172 480.094 135.5 479.422 135.5 478.594C135.5 477.765 136.172 477.094 137 477.094C137.828 477.094 138.5 477.765 138.5 478.594Z" fill="#D7D3D0"/>
<path d="M161.5 478.594C161.5 479.422 160.828 480.094 160 480.094C159.172 480.094 158.5 479.422 158.5 478.594C158.5 477.765 159.172 477.094 160 477.094C160.828 477.094 161.5 477.765 161.5 478.594Z" fill="#D7D3D0"/>
<path d="M184.5 478.594C184.5 479.422 183.828 480.094 183 480.094C182.172 480.094 181.5 479.422 181.5 478.594C181.5 477.765 182.172 477.094 183 477.094C183.828 477.094 184.5 477.765 184.5 478.594Z" fill="#D7D3D0"/>
<path d="M207.5 478.594C207.5 479.422 206.828 480.094 206 480.094C205.172 480.094 204.5 479.422 204.5 478.594C204.5 477.765 205.172 477.094 206 477.094C206.828 477.094 207.5 477.765 207.5 478.594Z" fill="#D7D3D0"/>
<path d="M230.5 478.594C230.5 479.422 229.828 480.094 229 480.094C228.172 480.094 227.5 479.422 227.5 478.594C227.5 477.765 228.172 477.094 229 477.094C229.828 477.094 230.5 477.765 230.5 478.594Z" fill="#D7D3D0"/>
<path d="M253.5 478.594C253.5 479.422 252.828 480.094 252 480.094C251.172 480.094 250.5 479.422 250.5 478.594C250.5 477.765 251.172 477.094 252 477.094C252.828 477.094 253.5 477.765 253.5 478.594Z" fill="#D7D3D0"/>
<path d="M276.5 478.594C276.5 479.422 275.828 480.094 275 480.094C274.172 480.094 273.5 479.422 273.5 478.594C273.5 477.765 274.172 477.094 275 477.094C275.828 477.094 276.5 477.765 276.5 478.594Z" fill="#D7D3D0"/>
<path d="M299.5 478.594C299.5 479.422 298.828 480.094 298 480.094C297.172 480.094 296.5 479.422 296.5 478.594C296.5 477.765 297.172 477.094 298 477.094C298.828 477.094 299.5 477.765 299.5 478.594Z" fill="#D7D3D0"/>
<path d="M322.5 478.594C322.5 479.422 321.828 480.094 321 480.094C320.172 480.094 319.5 479.422 319.5 478.594C319.5 477.765 320.172 477.094 321 477.094C321.828 477.094 322.5 477.765 322.5 478.594Z" fill="#D7D3D0"/>
<path d="M345.5 478.594C345.5 479.422 344.828 480.094 344 480.094C343.172 480.094 342.5 479.422 342.5 478.594C342.5 477.765 343.172 477.094 344 477.094C344.828 477.094 345.5 477.765 345.5 478.594Z" fill="#D7D3D0"/>
<path d="M368.5 478.594C368.5 479.422 367.828 480.094 367 480.094C366.172 480.094 365.5 479.422 365.5 478.594C365.5 477.765 366.172 477.094 367 477.094C367.828 477.094 368.5 477.765 368.5 478.594Z" fill="#D7D3D0"/>
<path d="M391.5 478.594C391.5 479.422 390.828 480.094 390 480.094C389.172 480.094 388.5 479.422 388.5 478.594C388.5 477.765 389.172 477.094 390 477.094C390.828 477.094 391.5 477.765 391.5 478.594Z" fill="#D7D3D0"/>
<path d="M-68.5 501.594C-68.5 502.422 -69.1716 503.094 -70 503.094C-70.8284 503.094 -71.5 502.422 -71.5 501.594C-71.5 500.765 -70.8284 500.094 -70 500.094C-69.1716 500.094 -68.5 500.765 -68.5 501.594Z" fill="#D7D3D0"/>
<path d="M-45.5 501.594C-45.5 502.422 -46.1716 503.094 -47 503.094C-47.8284 503.094 -48.5 502.422 -48.5 501.594C-48.5 500.765 -47.8284 500.094 -47 500.094C-46.1716 500.094 -45.5 500.765 -45.5 501.594Z" fill="#D7D3D0"/>
<path d="M-22.5 501.594C-22.5 502.422 -23.1716 503.094 -24 503.094C-24.8284 503.094 -25.5 502.422 -25.5 501.594C-25.5 500.765 -24.8284 500.094 -24 500.094C-23.1716 500.094 -22.5 500.765 -22.5 501.594Z" fill="#D7D3D0"/>
<path d="M0.5 501.594C0.5 502.422 -0.171573 503.094 -1 503.094C-1.82843 503.094 -2.5 502.422 -2.5 501.594C-2.5 500.765 -1.82843 500.094 -1 500.094C-0.171573 500.094 0.5 500.765 0.5 501.594Z" fill="#D7D3D0"/>
<path d="M23.5 501.594C23.5 502.422 22.8284 503.094 22 503.094C21.1716 503.094 20.5 502.422 20.5 501.594C20.5 500.765 21.1716 500.094 22 500.094C22.8284 500.094 23.5 500.765 23.5 501.594Z" fill="#D7D3D0"/>
<path d="M46.5 501.594C46.5 502.422 45.8284 503.094 45 503.094C44.1716 503.094 43.5 502.422 43.5 501.594C43.5 500.765 44.1716 500.094 45 500.094C45.8284 500.094 46.5 500.765 46.5 501.594Z" fill="#D7D3D0"/>
<path d="M69.5 501.594C69.5 502.422 68.8284 503.094 68 503.094C67.1716 503.094 66.5 502.422 66.5 501.594C66.5 500.765 67.1716 500.094 68 500.094C68.8284 500.094 69.5 500.765 69.5 501.594Z" fill="#D7D3D0"/>
<path d="M92.5 501.594C92.5 502.422 91.8284 503.094 91 503.094C90.1716 503.094 89.5 502.422 89.5 501.594C89.5 500.765 90.1716 500.094 91 500.094C91.8284 500.094 92.5 500.765 92.5 501.594Z" fill="#D7D3D0"/>
<path d="M115.5 501.594C115.5 502.422 114.828 503.094 114 503.094C113.172 503.094 112.5 502.422 112.5 501.594C112.5 500.765 113.172 500.094 114 500.094C114.828 500.094 115.5 500.765 115.5 501.594Z" fill="#D7D3D0"/>
<path d="M138.5 501.594C138.5 502.422 137.828 503.094 137 503.094C136.172 503.094 135.5 502.422 135.5 501.594C135.5 500.765 136.172 500.094 137 500.094C137.828 500.094 138.5 500.765 138.5 501.594Z" fill="#D7D3D0"/>
<path d="M161.5 501.594C161.5 502.422 160.828 503.094 160 503.094C159.172 503.094 158.5 502.422 158.5 501.594C158.5 500.765 159.172 500.094 160 500.094C160.828 500.094 161.5 500.765 161.5 501.594Z" fill="#D7D3D0"/>
<path d="M184.5 501.594C184.5 502.422 183.828 503.094 183 503.094C182.172 503.094 181.5 502.422 181.5 501.594C181.5 500.765 182.172 500.094 183 500.094C183.828 500.094 184.5 500.765 184.5 501.594Z" fill="#D7D3D0"/>
<path d="M207.5 501.594C207.5 502.422 206.828 503.094 206 503.094C205.172 503.094 204.5 502.422 204.5 501.594C204.5 500.765 205.172 500.094 206 500.094C206.828 500.094 207.5 500.765 207.5 501.594Z" fill="#D7D3D0"/>
<path d="M230.5 501.594C230.5 502.422 229.828 503.094 229 503.094C228.172 503.094 227.5 502.422 227.5 501.594C227.5 500.765 228.172 500.094 229 500.094C229.828 500.094 230.5 500.765 230.5 501.594Z" fill="#D7D3D0"/>
<path d="M253.5 501.594C253.5 502.422 252.828 503.094 252 503.094C251.172 503.094 250.5 502.422 250.5 501.594C250.5 500.765 251.172 500.094 252 500.094C252.828 500.094 253.5 500.765 253.5 501.594Z" fill="#D7D3D0"/>
<path d="M276.5 501.594C276.5 502.422 275.828 503.094 275 503.094C274.172 503.094 273.5 502.422 273.5 501.594C273.5 500.765 274.172 500.094 275 500.094C275.828 500.094 276.5 500.765 276.5 501.594Z" fill="#D7D3D0"/>
<path d="M299.5 501.594C299.5 502.422 298.828 503.094 298 503.094C297.172 503.094 296.5 502.422 296.5 501.594C296.5 500.765 297.172 500.094 298 500.094C298.828 500.094 299.5 500.765 299.5 501.594Z" fill="#D7D3D0"/>
<path d="M322.5 501.594C322.5 502.422 321.828 503.094 321 503.094C320.172 503.094 319.5 502.422 319.5 501.594C319.5 500.765 320.172 500.094 321 500.094C321.828 500.094 322.5 500.765 322.5 501.594Z" fill="#D7D3D0"/>
<path d="M345.5 501.594C345.5 502.422 344.828 503.094 344 503.094C343.172 503.094 342.5 502.422 342.5 501.594C342.5 500.765 343.172 500.094 344 500.094C344.828 500.094 345.5 500.765 345.5 501.594Z" fill="#D7D3D0"/>
<path d="M368.5 501.594C368.5 502.422 367.828 503.094 367 503.094C366.172 503.094 365.5 502.422 365.5 501.594C365.5 500.765 366.172 500.094 367 500.094C367.828 500.094 368.5 500.765 368.5 501.594Z" fill="#D7D3D0"/>
<path d="M391.5 501.594C391.5 502.422 390.828 503.094 390 503.094C389.172 503.094 388.5 502.422 388.5 501.594C388.5 500.765 389.172 500.094 390 500.094C390.828 500.094 391.5 500.765 391.5 501.594Z" fill="#D7D3D0"/>
</g>
</g>
<defs>
<radialGradient id="paint0_radial_12636_18161" cx="0" cy="0" r="1" gradientUnits="userSpaceOnUse" gradientTransform="translate(240 240) rotate(90) scale(240 240)">
<stop/>
<stop offset="1" stop-opacity="0"/>
</radialGradient>
<clipPath id="clip0_12636_18161">
<rect y="0.59375" width="480" height="480" fill="white"/>
</clipPath>
</defs>
</svg>
