<?xml version="1.0" encoding="iso-8859-1"?>
<!-- Generator: Adobe Illustrator 29.0.1, SVG Export Plug-In . SVG Version: 9.03 Build 54978)  -->
<svg version="1.1" id="Capa_1" xmlns="http://www.w3.org/2000/svg" xmlns:xlink="http://www.w3.org/1999/xlink" x="0px" y="0px"
	 width="283.465px" height="283.465px" viewBox="0 0 283.465 283.465" enable-background="new 0 0 283.465 283.465"
	 xml:space="preserve">
<g>
	<path fill="#007C8F" d="M226.475,250.628H35.635c-0.332,0-0.601-0.269-0.601-0.601c0-0.332,0.269-0.601,0.601-0.601h190.84
		c0.332,0,0.601,0.269,0.601,0.601C227.076,250.36,226.807,250.628,226.475,250.628z"/>
</g>
<g>
	<g>
		
			<rect x="97.972" y="138.811" transform="matrix(0.4586 -0.8886 0.8886 0.4586 -63.9305 174.4376)" fill="#0F4954" width="26.443" height="1.751"/>
	</g>
	<g>
		
			<rect x="109.253" y="146.384" transform="matrix(0.4586 -0.8886 0.8886 0.4586 -64.5529 188.5625)" fill="#0F4954" width="26.443" height="1.751"/>
	</g>
	<g>
		<g>
			<path fill="#EA7145" d="M80.744,246.177l-26.32-13.247c-2.052-1.033-2.878-3.533-1.845-5.584l39.235-77.958
				c1.033-2.052,3.533-2.878,5.584-1.845l26.32,13.247c2.052,1.033,2.878,3.533,1.845,5.584l-39.235,77.958
				C85.296,246.384,82.796,247.21,80.744,246.177z"/>
		</g>
		<g>
			<path fill="#EA7145" d="M80.409,246.335l-25.913-13.041c-2.304-1.16-3.235-3.978-2.076-6.282l39.029-77.551
				c0.561-1.116,1.524-1.947,2.711-2.339c1.187-0.39,2.455-0.299,3.571,0.264l25.914,13.041c2.304,1.16,3.235,3.978,2.076,6.282
				l-39.03,77.551c-0.821,1.632-2.474,2.575-4.187,2.575C81.799,246.834,81.082,246.674,80.409,246.335z M94.344,147.676
				c-1.038,0.343-1.881,1.07-2.373,2.047l-39.029,77.551c-1.014,2.016-0.199,4.483,1.817,5.499l25.913,13.041
				c2.017,1.014,4.484,0.199,5.499-1.817l39.03-77.551c1.015-2.017,0.2-4.484-1.817-5.499L97.47,147.906
				c-0.58-0.292-1.206-0.439-1.837-0.439C95.201,147.467,94.766,147.537,94.344,147.676z"/>
		</g>
	</g>
	<g>
		<g>
			<path fill="#EA7145" d="M129.802,137.129l-16.404-7.439c-0.915-0.415-1.321-1.494-0.906-2.409v0
				c0.415-0.915,1.494-1.321,2.409-0.906l16.404,7.439c0.915,0.415,1.321,1.494,0.906,2.409l0,0
				C131.796,137.139,130.717,137.544,129.802,137.129z"/>
		</g>
		<g>
			<path fill="#0F4954" d="M129.682,137.395l-16.405-7.439c-1.061-0.481-1.532-1.734-1.051-2.795c0.48-1.06,1.735-1.532,2.795-1.051
				l16.405,7.439c1.06,0.481,1.532,1.735,1.051,2.795c-0.353,0.778-1.123,1.24-1.926,1.24
				C130.259,137.583,129.963,137.523,129.682,137.395z M113.611,126.603c-0.382,0.144-0.685,0.428-0.854,0.799
				c-0.348,0.768-0.007,1.675,0.76,2.023l16.405,7.439h0.001c0.767,0.347,1.674,0.007,2.023-0.761
				c0.348-0.767,0.006-1.675-0.761-2.023l-16.404-7.439c-0.202-0.091-0.415-0.137-0.63-0.137
				C113.968,126.504,113.787,126.537,113.611,126.603z"/>
		</g>
	</g>
	<g>
		<g>
			<path fill="#BC474B" d="M62.079,224.789l-6.701-3.373l35.837-71.206c1.362-2.707,4.66-3.796,7.367-2.434l4.702,2.367
				l-36.843,73.205C65.635,224.95,63.682,225.595,62.079,224.789z"/>
		</g>
		<g>
			<path fill="#BC474B" d="M63.257,224.939l-6.427-3.234c-0.37-0.186-0.646-0.505-0.777-0.9c-0.13-0.394-0.099-0.815,0.088-1.185
				l35.275-70.09c0.57-1.135,1.55-1.979,2.755-2.377c1.205-0.398,2.494-0.303,3.629,0.268l5.84,2.938L66.673,223.81
				c-0.305,0.607-0.829,1.059-1.474,1.272c-0.262,0.087-0.532,0.13-0.8,0.13C64.007,225.212,63.617,225.12,63.257,224.939z
				 M97.538,147.941c-0.994-0.5-2.125-0.584-3.184-0.235c-1.058,0.35-1.917,1.09-2.417,2.085l-35.275,70.09
				c-0.116,0.231-0.136,0.494-0.054,0.74c0.081,0.246,0.253,0.446,0.484,0.562l6.427,3.234c0.468,0.235,1,0.275,1.497,0.111
				c0.497-0.164,0.901-0.512,1.136-0.98l36.704-72.931L97.538,147.941z"/>
		</g>
	</g>
	<g>
		<g>
			<path fill="#0F4954" d="M80.027,245.278c-0.177,2.747-2.547,4.83-5.294,4.653c-2.747-0.177-4.83-2.547-4.653-5.294
				c0.177-2.747,2.547-4.83,5.294-4.653C78.12,240.161,80.203,242.531,80.027,245.278z"/>
		</g>
		<g>
			<path fill="#0F4954" d="M74.714,250.222c-1.406-0.091-2.693-0.724-3.623-1.782c-0.931-1.058-1.393-2.416-1.302-3.822
				c0.187-2.902,2.702-5.109,5.604-4.926c1.406,0.091,2.693,0.723,3.623,1.781c0.931,1.059,1.393,2.416,1.302,3.822
				c-0.091,1.406-0.723,2.693-1.782,3.623c-0.971,0.854-2.194,1.314-3.476,1.313C74.946,250.233,74.83,250.23,74.714,250.222z
				 M71.955,241.434c-0.941,0.827-1.504,1.972-1.584,3.223c-0.081,1.25,0.331,2.457,1.158,3.399
				c0.827,0.941,1.972,1.504,3.223,1.585c1.256,0.083,2.457-0.331,3.399-1.158c0.941-0.827,1.504-1.972,1.584-3.223l0,0
				c0.081-1.251-0.331-2.458-1.158-3.399c-0.827-0.941-1.972-1.504-3.222-1.584c-0.103-0.007-0.206-0.01-0.308-0.01
				C73.907,240.266,72.819,240.674,71.955,241.434z"/>
		</g>
	</g>
	<g>
		<g>
			<path fill="#FFF7ED" d="M77.806,245.073c-0.093,1.446-1.341,2.542-2.787,2.449c-1.446-0.093-2.542-1.341-2.449-2.787
				c0.093-1.446,1.341-2.542,2.787-2.449C76.803,242.38,77.899,243.628,77.806,245.073z"/>
		</g>
		<g>
			<path fill="#FFF7ED" d="M75.002,247.798c-0.773-0.05-1.48-0.398-1.991-0.979c-0.511-0.581-0.765-1.328-0.715-2.1
				c0.05-0.773,0.397-1.48,0.979-1.991c0.582-0.512,1.332-0.769,2.101-0.715c1.595,0.103,2.81,1.484,2.707,3.08l0,0
				c-0.05,0.773-0.398,1.48-0.979,1.991c-0.533,0.469-1.206,0.721-1.909,0.721C75.129,247.804,75.066,247.802,75.002,247.798z
				 M77.531,245.056c0.083-1.291-0.9-2.41-2.192-2.493c-0.621-0.039-1.229,0.165-1.701,0.579c-0.471,0.414-0.753,0.986-0.793,1.613
				c-0.04,0.626,0.165,1.229,0.579,1.7c0.414,0.471,0.986,0.753,1.612,0.793C76.33,247.329,77.448,246.348,77.531,245.056
				L77.531,245.056z"/>
		</g>
	</g>
	<g>
		<path fill="#0F4954" d="M63.431,225.405c-0.839,0-1.668-0.216-2.423-0.641l-5.737-3.23c-0.135-0.076-0.182-0.246-0.106-0.381
			c0.076-0.134,0.247-0.183,0.381-0.106l5.737,3.23c1.054,0.593,2.272,0.728,3.429,0.378c1.157-0.349,2.097-1.135,2.647-2.212
			l19.027-37.917c0.069-0.137,0.238-0.193,0.375-0.125c0.138,0.07,0.194,0.238,0.125,0.376l-19.028,37.918
			c-0.62,1.215-1.68,2.101-2.984,2.494C64.397,225.334,63.912,225.405,63.431,225.405z"/>
	</g>
</g>
<g>
	
		<rect x="168.26" y="34.328" transform="matrix(0.2475 -0.9689 0.9689 0.2475 91.8921 190.7388)" fill="#63BCB1" width="0.959" height="3.767"/>
</g>
<g>
	<path fill="#007C8F" d="M130.934,213.204c-0.088,0-0.177-0.014-0.262-0.044c-0.216-0.075-0.389-0.239-0.477-0.449l-7.412-17.926
		c-0.086-0.209-0.08-0.445,0.017-0.649c0.097-0.204,0.276-0.357,0.493-0.422l12.583-3.756c0.381-0.113,0.789,0.072,0.955,0.433
		l6.845,14.948c0.173,0.378,0.027,0.827-0.336,1.03l-12.015,6.734C131.204,213.17,131.069,213.204,130.934,213.204z
		 M124.598,194.991l6.73,16.277l10.587-5.934l-6.249-13.647L124.598,194.991z"/>
</g>
<g>
	<path fill="#007C8F" d="M159.787,230.135h-19.398c-0.441,0-0.799-0.357-0.799-0.799v-13.221c0-0.442,0.358-0.799,0.799-0.799
		h19.398c0.441,0,0.799,0.357,0.799,0.799v13.221C160.586,229.777,160.228,230.135,159.787,230.135z M141.188,228.537h17.8v-11.623
		h-17.8V228.537z"/>
</g>
<g>
	<polygon fill="#FFF7ED" points="123.244,194.662 130.521,212.262 142.791,206.065 135.711,190.33 	"/>
</g>
<g>
	<path fill="#BC474B" d="M131.65,213.567l-8.351-20.385l-22.867,8.518l19.029,46.448l4.077-1.67l2.991-2.246
		c1.591-1.414,2.823-3.654,3.385-5.707c0.605-2.209,0.591-4.513,0.136-7.028l-2.913-16.082L131.65,213.567z"/>
</g>
<g>
	
		<rect x="140.817" y="216.009" transform="matrix(-1 -4.488688e-11 4.488688e-11 -1 300.2751 445.2388)" fill="#FFF7ED" width="18.641" height="13.222"/>
</g>
<g>
	<polygon fill="#007C8F" points="164.112,128.334 161.28,219.912 139.251,220.856 137.363,124.872 155.93,122.04 	"/>
</g>
<g>
	<path fill="#BC474B" d="M161.274,225.607h-22.029l-0.787,24.389h50.195v-4.406l-0.944-3.619c-0.706-2.008-2.311-3.997-3.998-5.295
		c-1.815-1.397-3.952-2.258-6.451-2.79l-15.986-3.401V225.607z"/>
</g>
<g>
	
		<rect x="109.848" y="198.964" transform="matrix(-0.9264 0.3765 -0.3765 -0.9264 298.7247 389.8925)" fill="#0F4954" width="2.832" height="50.344"/>
</g>
<g>
	
		<rect x="162.283" y="223.62" transform="matrix(-4.495622e-11 1 -1 -4.495622e-11 412.4906 85.093)" fill="#0F4954" width="2.832" height="50.344"/>
</g>
<g>
	<g>
		<polygon fill="#0F4954" points="121.837,205.901 122.798,208.465 119.22,213.666 118.984,213.754 112.868,212.187 
			111.908,209.624 117.948,210.651 		"/>
	</g>
	<g>
		<polygon fill="#0F4954" points="119.911,200.763 120.872,203.326 117.294,208.527 117.057,208.616 110.942,207.048 
			109.981,204.486 116.022,205.513 		"/>
	</g>
</g>
<g>
	<g>
		<polygon fill="#0F4954" points="150.086,231.002 153.033,231.099 156.739,236.8 156.73,237.072 152.655,242.515 149.709,242.418 
			153.215,236.827 		"/>
	</g>
	<g>
		<polygon fill="#0F4954" points="144.178,230.807 147.125,230.904 150.831,236.605 150.822,236.876 146.748,242.32 
			143.801,242.223 147.308,236.632 		"/>
	</g>
</g>
<g>
	<path fill="#62BBB1" d="M139.251,221.335c-0.122,0-0.239-0.046-0.329-0.131c-0.094-0.088-0.149-0.211-0.151-0.341l-0.944-52.135
		c-0.005-0.265,0.206-0.483,0.471-0.488c0.282,0.005,0.483,0.206,0.488,0.471l0.935,51.643l21.094-0.904l2.503-75.188
		c0.009-0.264,0.231-0.487,0.495-0.463c0.265,0.008,0.472,0.23,0.463,0.495l-2.517,75.633c-0.008,0.25-0.208,0.452-0.459,0.463
		l-22.029,0.944C139.265,221.335,139.258,221.335,139.251,221.335z"/>
</g>
<g>
	<path fill="#007C8F" d="M183.624,123.299l16.175,49.066c1.544,5.31-1.086,10.942-6.149,13.166l-58.49,25.884l-7.553-19.616
		l44.058-23.812l-18.882-36.505L183.624,123.299z"/>
</g>
<g>
	<path fill="#62BBB1" d="M135.16,211.894c-0.063,0-0.125-0.012-0.184-0.037c-0.121-0.05-0.216-0.147-0.263-0.27l-7.553-19.512
		c-0.087-0.226,0.007-0.48,0.219-0.595l45.71-24.704c0.233-0.125,0.524-0.04,0.65,0.194c0.126,0.233,0.039,0.524-0.194,0.65
		l-45.338,24.503l7.219,18.65l39.088-17.212c0.242-0.108,0.525,0.003,0.632,0.245c0.106,0.242-0.003,0.525-0.246,0.632
		l-39.547,17.414C135.292,211.881,135.226,211.894,135.16,211.894z"/>
</g>
<g>
	<path fill="#0F4954" d="M140.195,38.54c-1.555-1.643-2.413-4.563-1.173-6.096c-0.614-2.68,1.224-10.26,9.799-11.898
		c8.575-1.638,14.453,3.49,14.453,3.49l0.964,0.671c2.358,0.474,3.886,2.771,3.412,5.129c-0.189,0.939-0.668,1.744-1.325,2.345
		c-0.234,0.459-0.802,0.668-1.538,0.721c-0.103-0.42-0.252-0.823-0.438-1.206c0.19,4.255-2.565,8.229-6.846,9.403
		c-0.859,0.235-1.721,0.335-2.569,0.326c0.046,0.609,0.026,1.232-0.087,1.861c-0.717,4.009-4.19,6.987-8.199,6.27
		c-4.009-0.718-7.798-4.75-7.081-8.759C139.685,40.129,139.918,39.122,140.195,38.54z"/>
</g>
<g>
	<g>
		<path fill="#FFF7ED" d="M151.873,52.983c2.01,0.716,4.255,0.826,6.451,0.153c1.257-0.198,2.423-0.59,3.466-1.127l0.702,10.29
			l-14.326,0.977l-0.928-13.616C148.448,51.191,150.062,52.338,151.873,52.983z"/>
	</g>
	<g>
		<path fill="#007C8F" d="M147.853,63.297l-0.928-13.616c-0.009-0.137,0.072-0.264,0.2-0.314c0.13-0.05,0.274-0.01,0.359,0.098
			c1.166,1.476,2.721,2.59,4.495,3.222l0,0c2.038,0.726,4.201,0.777,6.297,0.138c1.187-0.187,2.322-0.555,3.372-1.095
			c0.094-0.049,0.207-0.047,0.298,0.005c0.092,0.052,0.152,0.147,0.159,0.252l0.702,10.29c0.012,0.173-0.119,0.323-0.292,0.334
			l-14.326,0.977C148.014,63.601,147.865,63.47,147.853,63.297z M161.509,52.496c-0.988,0.459-2.036,0.777-3.094,0.94
			c-2.182,0.669-4.481,0.615-6.647-0.157l0,0c-1.585-0.565-3.006-1.491-4.154-2.704l0.843,12.367l13.7-0.934L161.509,52.496z
			 M151.867,52.984l0.006,0L151.867,52.984z"/>
	</g>
</g>
<g>
	<path fill="#FFF7ED" d="M146.299,42.717c1.391-2.015,3.205-2.329,3.24-6.12c0.172,0.04,1.583,0.145,1.762,0.172
		c3.076,0.455,6.034-1.299,6.748-3.944c0.455,0.778,1.305,1.364,2.372,1.522c1.821,0.269,3.575-0.806,3.917-2.403
		c0.015-0.071,0.024-0.141,0.033-0.212c1.191,1.345,1.949,3.009,2.08,4.848l3.118,8.884c0.272,3.829-2.482,6.915-6.399,7.815
		c-1.14,0.262-5.341,1.169-6.609,1.101c-2.292,0.161-5.032,1.093-6.818,0.105c-1.61-0.891-1.993-3.252-2.36-4.825
		c-0.228-0.975-0.783-3.194-0.896-4.221c-0.011-0.101-0.035-0.199-0.042-0.301L146.299,42.717z"/>
</g>
<g>
	<path fill="#007C8F" d="M145.624,42.398l0.049,0.813c-0.209-0.073-0.433-0.093-0.632-0.052l-0.05-0.822
		c-0.004-0.063,0.012-0.126,0.044-0.18c0.408-0.683,0.847-1.19,1.271-1.679c0.118-0.136,0.234-0.271,0.347-0.406
		c0.028,0.035,0.053,0.072,0.087,0.103c0.102,0.11,0.223,0.188,0.363,0.233c0.021,0.011,0.044,0.017,0.066,0.024
		c-0.127,0.154-0.257,0.304-0.388,0.456C146.393,41.339,145.991,41.803,145.624,42.398z"/>
</g>
<g>
	<g>
		<path fill="#007C8F" d="M207.658,63.969l-9.994-9.714c-0.068-0.066-0.088-0.166-0.053-0.253l0.962-2.365
			c0.427-1.05,0.542-2.194,0.331-3.308l-0.754-3.988c-0.132-0.698,0.02-1.407,0.451-2.029c0.363-0.524,0.96-0.79,1.589-0.711
			c0.632,0.079,1.143,0.482,1.365,1.079l0.63,1.686l0.012-0.042c0.108-0.365,0.232-0.725,0.357-1.084
			c0.089-0.258,0.178-0.515,0.261-0.775c0.536-1.68,0.793-3.294,0.762-4.799c-0.014-0.673,0.37-1.281,1.001-1.587
			c0.676-0.327,1.447-0.242,2.013,0.223c0.522,0.43,0.67,1.134,0.677,1.166c0.001,0.006,0.007,0.038,0.016,0.089
			c0.392-0.5,1.019-0.812,1.675-0.768c0.918,0.058,1.668,0.812,1.725,1.712c0.003,0.044,0.001,0.146-0.004,0.274
			c0.206-0.161,0.461-0.244,0.755-0.239c0.891,0.012,1.85,0.836,2.01,1.725c0.065,0.358,0.011,0.875-0.063,1.319
			c0.056-0.03,0.114-0.056,0.175-0.079c0.484-0.178,1.067-0.107,1.562,0.19c1.135,0.682,0.966,1.715,0.802,2.713
			c-0.001,0.004-0.008,0.049-0.009,0.053c-0.76,3.425-1.98,6.164-3.272,9.064l-4.61,10.377c-0.031,0.069-0.093,0.119-0.167,0.133
			c-0.023,0.004-0.046,0.005-0.068,0.003C207.744,64.028,207.696,64.006,207.658,63.969z M213.717,41.935
			c-0.179,0.066-0.416,0.214-0.527,0.545c-0.039,0.118-0.166,0.181-0.285,0.148c-0.119-0.036-0.189-0.16-0.157-0.28
			c0.1-0.379,0.337-1.476,0.242-2.004c-0.121-0.668-0.896-1.332-1.563-1.345c-0.421-0.006-0.69,0.252-0.801,0.768
			c-0.025,0.118-0.144,0.204-0.257,0.181c-0.12-0.016-0.207-0.122-0.2-0.243c0.026-0.43,0.059-1.078,0.053-1.174
			c-0.042-0.673-0.606-1.236-1.294-1.281c-0.747-0.049-1.469,0.535-1.579,1.275c0,0,0,0.001,0,0.001l0,0
			c-0.018,0.126-0.129,0.211-0.262,0.195c-0.126-0.019-0.214-0.136-0.195-0.262l0,0c0,0,0-0.001,0-0.001
			c0.026-0.183-0.021-0.602-0.078-0.901c-0.001-0.006-0.127-0.578-0.517-0.899c-0.507-0.417-1.116-0.358-1.517-0.164
			c-0.474,0.23-0.751,0.664-0.741,1.162c0.031,1.556-0.232,3.221-0.784,4.949c-0.084,0.263-0.175,0.524-0.265,0.786
			c-0.122,0.353-0.244,0.706-0.35,1.064l-0.208,0.706c-0.028,0.095-0.114,0.162-0.213,0.166c-0.102,0.004-0.19-0.057-0.225-0.15
			l-0.872-2.335c-0.161-0.432-0.531-0.725-0.989-0.782c-0.469-0.048-0.889,0.136-1.175,0.549c-0.337,0.486-0.462,1.071-0.353,1.647
			l0.754,3.988c0.227,1.202,0.104,2.435-0.357,3.568l-0.903,2.221l9.644,9.374l4.475-10.074c1.282-2.878,2.494-5.596,3.247-9.003
			c0.158-0.962,0.282-1.722-0.584-2.242c-0.196-0.118-0.413-0.189-0.625-0.212C214.067,41.855,213.881,41.874,213.717,41.935z"/>
		<path fill="#007C8F" d="M207.819,64.115c-0.011,0-0.022-0.001-0.033-0.002c-0.069-0.007-0.135-0.038-0.184-0.087l-9.994-9.714
			c-0.091-0.089-0.119-0.222-0.071-0.34l0.962-2.365c0.421-1.037,0.534-2.165,0.326-3.263l-0.754-3.988
			c-0.138-0.729,0.022-1.452,0.464-2.09c0.381-0.551,1.004-0.828,1.665-0.745c0.662,0.083,1.197,0.505,1.43,1.131l0.547,1.465
			c0.094-0.304,0.2-0.608,0.301-0.903c0.089-0.257,0.178-0.514,0.261-0.773c0.534-1.671,0.789-3.276,0.759-4.773
			c-0.014-0.705,0.386-1.341,1.046-1.661c0.704-0.341,1.508-0.251,2.098,0.233c0.451,0.371,0.635,0.941,0.688,1.14
			c0.421-0.456,1.032-0.711,1.635-0.671c0.949,0.061,1.74,0.846,1.8,1.787c0.001,0.025,0.002,0.065,0.001,0.125
			c0.188-0.11,0.405-0.165,0.645-0.165c0.009,0,0.017,0,0.026,0c0.925,0.012,1.921,0.866,2.088,1.791
			c0.051,0.282,0.037,0.684-0.04,1.196c0.015-0.006,0.03-0.012,0.045-0.017c0.506-0.187,1.116-0.113,1.631,0.196
			c1.182,0.71,1.008,1.77,0.84,2.795c-0.001,0.003-0.01,0.057-0.011,0.062c-0.76,3.431-1.982,6.172-3.276,9.074l-4.61,10.377
			c-0.042,0.093-0.125,0.16-0.225,0.179C207.859,64.113,207.839,64.115,207.819,64.115z M199.971,41.667
			c-0.521,0-0.998,0.249-1.304,0.69c-0.416,0.602-0.568,1.283-0.437,1.969l0.754,3.988c0.213,1.128,0.097,2.288-0.336,3.353
			l-0.962,2.365c-0.023,0.057-0.01,0.122,0.035,0.166l9.994,9.714c0.024,0.023,0.055,0.038,0.089,0.042
			c0.015,0.002,0.029,0.002,0.045-0.002c0.049-0.009,0.09-0.042,0.11-0.087l4.61-10.377c1.29-2.895,2.508-5.629,3.266-9.048
			c0.002-0.009,0.008-0.042,0.009-0.048c0.159-0.973,0.324-1.979-0.764-2.633c-0.473-0.284-1.031-0.353-1.494-0.184
			c-0.057,0.021-0.112,0.046-0.165,0.074l-0.144,0.077l0.027-0.161c0.093-0.557,0.115-1.004,0.063-1.291
			c-0.155-0.857-1.077-1.648-1.933-1.659c-0.273-0.014-0.51,0.07-0.704,0.222l-0.135,0.106l0.006-0.172
			c0.002-0.052,0.008-0.212,0.004-0.266c-0.054-0.863-0.779-1.583-1.65-1.638c-0.613-0.042-1.22,0.243-1.608,0.738l-0.113,0.143
			l-0.042-0.246c-0.002-0.015-0.004-0.024-0.004-0.027c-0.005-0.02-0.15-0.702-0.649-1.112c-0.541-0.445-1.28-0.526-1.927-0.213
			c-0.603,0.292-0.969,0.872-0.955,1.514c0.03,1.514-0.227,3.137-0.766,4.825c-0.084,0.261-0.173,0.519-0.262,0.777
			c-0.123,0.353-0.248,0.718-0.356,1.081l-0.081,0.268l-0.712-1.907c-0.212-0.569-0.699-0.953-1.3-1.028
			C200.11,41.671,200.04,41.667,199.971,41.667z M207.769,63.544l-9.765-9.492l0.924-2.271c0.455-1.118,0.577-2.337,0.353-3.524
			l-0.754-3.987c-0.113-0.597,0.017-1.203,0.366-1.707c0.296-0.428,0.742-0.635,1.248-0.583c0.49,0.061,0.884,0.373,1.056,0.834
			l0.872,2.335c0.023,0.062,0.081,0.094,0.147,0.098c0.066-0.002,0.122-0.046,0.14-0.109l0.208-0.706
			c0.107-0.362,0.231-0.721,0.351-1.068c0.09-0.261,0.18-0.521,0.264-0.784c0.549-1.719,0.812-3.376,0.78-4.923
			c-0.011-0.53,0.283-0.992,0.786-1.236c0.422-0.205,1.066-0.267,1.602,0.174c0.414,0.341,0.544,0.938,0.545,0.944
			c0.06,0.316,0.106,0.735,0.078,0.929c-0.005,0.041,0.004,0.081,0.029,0.113c0.024,0.032,0.06,0.054,0.099,0.06
			c0.089,0.008,0.159-0.044,0.171-0.128l0.005-0.029c0.129-0.742,0.825-1.319,1.566-1.319c0.031,0,0.061,0.001,0.093,0.003
			c0.723,0.047,1.324,0.642,1.368,1.356c0.007,0.109-0.032,0.844-0.052,1.183c-0.005,0.079,0.052,0.148,0.131,0.159
			c0.035,0.007,0.069,0,0.099-0.02c0.035-0.023,0.06-0.059,0.069-0.098c0.149-0.697,0.557-0.829,0.88-0.832
			c0.702,0.014,1.514,0.713,1.64,1.411c0.098,0.543-0.143,1.656-0.244,2.039c-0.02,0.079,0.025,0.16,0.103,0.184
			c0.078,0.022,0.161-0.02,0.187-0.097c0.12-0.361,0.379-0.523,0.575-0.595l0,0c0.171-0.063,0.371-0.085,0.575-0.064
			c0.229,0.024,0.456,0.101,0.658,0.223c0.913,0.549,0.778,1.371,0.622,2.324c-0.755,3.417-1.967,6.137-3.25,9.017L207.769,63.544z
			 M198.193,54.012l9.523,9.257l4.429-9.969c1.282-2.878,2.491-5.591,3.242-8.988c0.158-0.964,0.273-1.664-0.546-2.156
			c-0.182-0.11-0.387-0.179-0.593-0.201c-0.177-0.018-0.353,0-0.503,0.055l0,0c-0.162,0.06-0.378,0.195-0.478,0.495
			c-0.052,0.158-0.222,0.245-0.383,0.2c-0.163-0.049-0.256-0.215-0.213-0.378c0.091-0.348,0.333-1.457,0.24-1.97
			c-0.114-0.633-0.85-1.266-1.485-1.279c-0.005,0-0.01,0-0.014,0c-0.374,0-0.605,0.231-0.706,0.705
			c-0.017,0.08-0.067,0.153-0.137,0.199c-0.066,0.043-0.143,0.058-0.214,0.043c-0.155-0.021-0.273-0.164-0.264-0.326
			c0.03-0.496,0.058-1.082,0.052-1.163c-0.039-0.635-0.575-1.165-1.219-1.206c-0.708-0.046-1.39,0.506-1.495,1.207l-0.005,0.028
			c-0.035,0.155-0.184,0.254-0.345,0.237c-0.085-0.013-0.158-0.056-0.207-0.122c-0.05-0.067-0.071-0.149-0.058-0.231
			c0.024-0.168-0.02-0.577-0.077-0.875c-0.001-0.004-0.123-0.551-0.49-0.852c-0.479-0.394-1.053-0.337-1.431-0.154
			c-0.445,0.215-0.705,0.622-0.696,1.089c0.031,1.565-0.233,3.239-0.788,4.975c-0.085,0.264-0.175,0.526-0.265,0.787
			c-0.12,0.345-0.243,0.702-0.35,1.06l-0.208,0.706c-0.038,0.129-0.153,0.218-0.288,0.223c-0.135,0.013-0.255-0.075-0.302-0.202
			l-0.872-2.335c-0.151-0.404-0.496-0.677-0.925-0.731c-0.45-0.045-0.838,0.137-1.099,0.515c-0.324,0.468-0.445,1.032-0.34,1.587
			l0.754,3.987c0.229,1.217,0.104,2.466-0.362,3.613L198.193,54.012z"/>
	</g>
	<g>
		<path fill="#007C8F" d="M211.182,47.622c0.077,0.008,0.157-0.023,0.208-0.089c0.055-0.072,1.351-1.799,1.856-5.28
			c0.018-0.126-0.069-0.243-0.196-0.262c-0.118-0.02-0.244,0.069-0.262,0.196c-0.486,3.35-1.753,5.048-1.766,5.065
			c-0.077,0.102-0.058,0.247,0.044,0.324C211.101,47.603,211.141,47.618,211.182,47.622z"/>
		<path fill="#007C8F" d="M211.207,47.703c-0.011,0-0.022-0.001-0.033-0.002l0,0c-0.057-0.006-0.111-0.027-0.156-0.062
			c-0.135-0.104-0.162-0.299-0.059-0.436c0.013-0.017,1.27-1.708,1.751-5.028c0.012-0.082,0.058-0.157,0.126-0.207
			c0.067-0.049,0.152-0.069,0.228-0.057c0.168,0.025,0.286,0.183,0.261,0.352c-0.506,3.491-1.816,5.244-1.871,5.317
			C211.395,47.658,211.302,47.703,211.207,47.703z M213.018,42.069c-0.03,0-0.061,0.01-0.087,0.029
			c-0.034,0.025-0.057,0.062-0.063,0.101c-0.49,3.379-1.768,5.085-1.781,5.102c-0.051,0.066-0.037,0.162,0.029,0.212
			c0.022,0.017,0.048,0.027,0.075,0.03l0,0c0.057,0.005,0.105-0.016,0.136-0.058c0.055-0.072,1.34-1.792,1.841-5.243
			c0.011-0.082-0.046-0.159-0.128-0.171C213.032,42.069,213.025,42.069,213.018,42.069z"/>
	</g>
	<g>
		<path fill="#007C8F" d="M208.184,46.209c0.083,0.009,0.167-0.027,0.217-0.101c0.074-0.111,1.823-2.751,2.217-6.242
			c0.014-0.127-0.077-0.241-0.204-0.256c-0.001,0-0.001,0-0.002,0c-0.126-0.013-0.24,0.078-0.254,0.204
			c-0.38,3.375-2.124,6.01-2.141,6.037c-0.071,0.106-0.043,0.25,0.063,0.321C208.112,46.193,208.148,46.205,208.184,46.209z"/>
		<path fill="#007C8F" d="M208.208,46.29c-0.011,0-0.022-0.001-0.032-0.002l0,0c-0.05-0.005-0.099-0.023-0.141-0.051
			c-0.142-0.096-0.18-0.289-0.086-0.431c0.018-0.026,1.753-2.67,2.129-6.002c0.019-0.169,0.176-0.295,0.342-0.274
			c0.084,0.009,0.158,0.05,0.21,0.115c0.052,0.065,0.076,0.146,0.066,0.229c-0.393,3.491-2.155,6.165-2.229,6.278
			C208.408,46.24,208.311,46.29,208.208,46.29z M210.388,39.689c-0.076,0-0.142,0.057-0.151,0.134
			c-0.383,3.394-2.137,6.047-2.155,6.073c-0.046,0.068-0.027,0.163,0.042,0.209c0.02,0.014,0.044,0.022,0.067,0.024h0.001
			c0.055,0.004,0.11-0.02,0.142-0.066c0.073-0.11,1.814-2.754,2.203-6.207c0.01-0.083-0.051-0.158-0.134-0.167
			C210.399,39.689,210.393,39.689,210.388,39.689z"/>
	</g>
	<g>
		<path fill="#007C8F" d="M205.15,45.138c0.089,0.009,0.179-0.033,0.226-0.116c0.071-0.125,1.735-3.113,1.984-6.613
			c0.009-0.127-0.085-0.236-0.214-0.247c-0.127-0.009-0.238,0.087-0.247,0.214c-0.241,3.393-1.909,6.389-1.925,6.418
			c-0.063,0.111-0.023,0.252,0.088,0.315C205.089,45.125,205.119,45.134,205.15,45.138z"/>
		<path fill="#007C8F" d="M205.174,45.219c-0.011,0-0.022-0.001-0.032-0.002l0,0c-0.042-0.004-0.083-0.017-0.12-0.038
			c-0.073-0.041-0.125-0.108-0.147-0.188c-0.022-0.08-0.012-0.164,0.029-0.236c0.069-0.125,1.68-3.082,1.916-6.384
			c0.005-0.082,0.043-0.158,0.105-0.212c0.063-0.055,0.143-0.083,0.226-0.076c0.174,0.014,0.301,0.16,0.288,0.332
			c-0.251,3.539-1.922,6.521-1.993,6.646C205.389,45.159,205.286,45.219,205.174,45.219z M207.128,38.241
			c-0.036,0-0.072,0.013-0.099,0.037c-0.03,0.026-0.048,0.063-0.051,0.103c-0.238,3.338-1.865,6.324-1.934,6.45
			c-0.021,0.038-0.026,0.078-0.016,0.117c0.011,0.039,0.036,0.072,0.072,0.092c0.018,0.01,0.038,0.016,0.058,0.018h0.001
			c0.057,0.007,0.117-0.024,0.147-0.076c0.07-0.124,1.725-3.075,1.974-6.579c0.005-0.084-0.056-0.155-0.141-0.161
			C207.135,38.241,207.132,38.241,207.128,38.241z"/>
	</g>
</g>
<g>
	<path fill="#63BCB1" d="M162.381,57.527l9.021,0.839c4.365,0.412,6.219,1.573,8.117,3.967l8.658,8.902l9.135-18.901l13.847,5.35
		l-10.116,32.978c-0.704,3.595-3.348,6.216-6.547,7.141c-2.986,0.863-6.196-0.266-8.103-2.721l-5.131-3.988l11.591,50.876
		l-56.961,1.416l-2.937-60.685l-2.832-10.07c0.193-4.681,1.416-9.021,6.661-11.014l10.752-3.042c0,0,2.542,4.716,8.991,3.882
		C162.305,61.711,162.381,57.527,162.381,57.527z"/>
</g>
<g>
	<g>
		<g>
			<g>
				<g>
					<path fill="#FFF7ED" d="M138.063,129.931l-0.747,5.226c-0.317,2.214-1.794,4.614-6.641,2.912l-3.494-0.672
						c-3.032-0.583-5.348-3.017-5.804-6.099l0,0c-0.081-0.55-0.372-1.043-0.81-1.374l-4.55-3.443
						c-1.569-1.187-1.578-3.542-0.018-4.742l2.345-1.803c3.911-3.007,9.273-3.089,13.166-0.2l4.136,3.07
						C137.837,124.431,138.797,127.262,138.063,129.931L138.063,129.931z"/>
				</g>
				<g>
					<path fill="#007C8F" d="M121.098,131.339c-0.071-0.479-0.32-0.902-0.702-1.191l-4.55-3.443c-0.819-0.619-1.29-1.563-1.294-2.59
						c-0.004-1.026,0.46-1.974,1.274-2.6l2.346-1.803c3.985-3.063,9.538-3.146,13.506-0.202l4.137,3.07
						c2.263,1.679,3.276,4.655,2.525,7.409l-0.745,5.209c-0.211,1.478-0.848,2.578-1.842,3.181c-1.228,0.745-2.965,0.73-5.131-0.032
						l-3.494-0.672c-0.252-0.048-0.498-0.109-0.74-0.182C123.615,136.658,121.53,134.269,121.098,131.339z M135.46,137.896
						c1.067-0.648,1.446-1.869,1.576-2.779l0.747-5.226c0.002-0.012,0.004-0.023,0.007-0.035c0.699-2.536-0.231-5.279-2.313-6.824
						l-4.137-3.07c-3.766-2.795-9.041-2.714-12.826,0.197l-2.346,1.803c-0.673,0.518-1.057,1.302-1.054,2.151
						c0.003,0.849,0.393,1.63,1.071,2.143l4.55,3.443c0.5,0.378,0.827,0.932,0.919,1.558c0.436,2.95,2.676,5.308,5.578,5.863
						l3.534,0.683C132.806,138.522,134.383,138.549,135.46,137.896z M138.057,129.929l0.005,0.002L138.057,129.929z"/>
				</g>
			</g>
			<g>
				<g>
					<path fill="#007C8F" d="M124.161,133.993c0.146,0.044,0.301-0.036,0.349-0.181l0.437-1.312
						c0.318-0.954-0.197-2.005-1.147-2.343l-3.394-0.587c-0.154-0.026-0.3,0.076-0.326,0.23c-0.027,0.154,0.076,0.305,0.23,0.325
						l3.348,0.575c0.616,0.224,0.975,0.957,0.754,1.622l-0.437,1.312c-0.049,0.148,0.031,0.307,0.179,0.357
						C124.156,133.991,124.159,133.992,124.161,133.993z"/>
				</g>
			</g>
			<g>
				<g>
					<path fill="#007C8F" d="M125.136,136.984c0.04,0.012,0.083,0.015,0.126,0.008l1.891-0.306c1.709-0.277,3.008-1.685,3.158-3.424
						l0.428-4.95c0.013-0.155-0.101-0.292-0.257-0.305c-0.155-0.014-0.292,0.101-0.305,0.257l-0.428,4.95
						c-0.128,1.482-1.233,2.681-2.687,2.916l-1.891,0.306c-0.154,0.025-0.258,0.17-0.233,0.323
						C124.956,136.869,125.036,136.954,125.136,136.984z"/>
				</g>
			</g>
			<g>
				<g>
					<path fill="#007C8F" d="M129.665,138.16c0.027,0.008,0.056,0.012,0.085,0.012l0.704-0.01c0.684-0.009,1.32-0.178,1.839-0.487
						c1.05-0.624,1.741-1.726,1.846-2.948l0.313-6.623c0.008-0.155-0.114-0.289-0.268-0.295c-0.156-0.007-0.288,0.113-0.295,0.268
						l-0.312,6.613c-0.089,1.03-0.677,1.969-1.572,2.5c-0.435,0.259-0.974,0.4-1.559,0.408l-0.704,0.01
						c-0.156,0.002-0.28,0.13-0.278,0.286C129.466,138.02,129.551,138.126,129.665,138.16z"/>
				</g>
			</g>
		</g>
	</g>
</g>
<g>
	<path fill="#63BCB1" d="M132.642,64.555l-23.946,33.972c-2.259,3.128-2.859,7.158-1.608,10.808l8.061,16.647l14.946-7.485
		l-6.234-15l17.35-16.166L132.642,64.555z"/>
</g>
<g>
	<path fill="#007C8F" d="M154.499,63.307c-5.357,0-7.079-4.277-7.098-4.325c-0.079-0.205,0.023-0.436,0.228-0.516
		c0.205-0.08,0.437,0.022,0.517,0.227c0.077,0.195,1.949,4.766,8.238,3.639c5.742-1.026,5.391-4.882,5.373-5.046
		c-0.024-0.219,0.134-0.416,0.353-0.441c0.215-0.026,0.416,0.131,0.441,0.35c0.006,0.048,0.479,4.761-6.027,5.924
		C155.799,63.249,155.124,63.307,154.499,63.307z"/>
</g>
<g>
	<path fill="#FFF7ED" d="M148.061,41.052c0,0-3.677-5.672-5.704-3.867c-1.173,1.045-1.044,4.634-0.006,5.704
		c0.973,1.002,4.026,1.129,4.026,1.129L148.061,41.052z"/>
</g>
<g>
	<path fill="#007C8F" d="M146.377,44.332c-0.017,0-0.034-0.002-0.051-0.004c-0.094-0.016-2.314-0.383-3.377-0.659
		c-1.386-0.359-1.698-1.62-1.769-3.676c-0.044-1.285,0.289-2.273,0.963-2.857c0.537-0.465,1.242-0.636,2.042-0.491
		c1.649,0.296,3.513,3.164,3.591,3.286c0.094,0.146,0.052,0.34-0.094,0.434c-0.146,0.094-0.34,0.051-0.434-0.094
		c-0.494-0.767-2.028-2.802-3.174-3.008c-0.607-0.108-1.132,0.012-1.52,0.348c-0.526,0.456-0.784,1.272-0.747,2.362
		c0.081,2.348,0.501,2.883,1.3,3.09c1.036,0.268,3.299,0.643,3.322,0.647c0.171,0.028,0.287,0.19,0.258,0.361
		C146.661,44.223,146.528,44.332,146.377,44.332z"/>
</g>
<g>
	<path fill="#007C8F" d="M191.996,98.073c-0.203,0-0.409-0.006-0.62-0.017c-2.816-0.152-8.821-5.323-12.047-8.101
		c-0.768-0.661-1.431-1.232-1.577-1.314c-0.151-0.085-0.205-0.276-0.12-0.427c0.085-0.151,0.276-0.204,0.427-0.12
		c0.193,0.108,0.654,0.503,1.679,1.386c2.944,2.535,9.068,7.81,11.671,7.95c3.623,0.194,6.418-1.377,8.302-4.674
		c1.424-2.493,1.767-5.089,1.771-5.115l9.446-29.77l-13.454-5.14l-10.419,22.55c-0.073,0.157-0.26,0.226-0.416,0.153
		c-0.157-0.073-0.226-0.259-0.153-0.416l10.543-22.816c0.069-0.15,0.242-0.221,0.396-0.162l14.004,5.35
		c0.155,0.059,0.238,0.23,0.187,0.388l-9.524,29.997C202.091,87.827,200.694,98.073,191.996,98.073z"/>
</g>
<g>
	<path fill="#007C8F" d="M115.149,126.296c-0.035,0-0.069-0.006-0.103-0.017c-0.08-0.028-0.145-0.086-0.181-0.163l-7.053-14.957
		c-0.074-0.157-0.007-0.344,0.15-0.418c0.157-0.074,0.344-0.007,0.418,0.15l6.916,14.666l14.398-7.211l-7.621-18.426
		c-0.066-0.16,0.01-0.344,0.17-0.41c0.16-0.065,0.343,0.01,0.41,0.17l7.732,18.696c0.063,0.152-0.002,0.327-0.15,0.4l-14.946,7.486
		C115.246,126.285,115.197,126.296,115.149,126.296z"/>
</g>
<g>
	<g>
		<polygon fill="#0F4954" points="155.478,77.812 161.066,77.405 169.213,87.434 169.25,87.949 162.642,99.052 157.054,99.459 
			162.56,88.19 		"/>
	</g>
	<g>
		<polygon fill="#0F4954" points="144.277,78.627 149.864,78.22 158.01,88.249 158.048,88.764 151.44,99.867 145.853,100.274 
			151.358,89.006 		"/>
	</g>
</g>
<g>
	<path fill="#007C8F" d="M161.226,53.946c-0.248,0-0.474-0.015-0.672-0.043c-1.669-0.234-3.842-0.927-3.933-0.956
		c-0.165-0.053-0.256-0.23-0.203-0.394c0.053-0.165,0.229-0.256,0.394-0.203c0.022,0.007,2.213,0.705,3.829,0.932
		c1.436,0.201,4.513-0.338,6.657-2.646c1.912-2.057,2.518-5.02,1.752-8.569c-0.971-4.498-4.84-9.952-4.879-10.007
		c-0.1-0.141-0.068-0.337,0.073-0.438c0.141-0.101,0.337-0.068,0.438,0.073c0.162,0.227,3.983,5.613,4.981,10.239
		c1.025,4.747-0.47,7.584-1.905,9.128C165.744,53.231,162.943,53.946,161.226,53.946z"/>
</g>
<g>
	<path fill="#63BCB1" d="M166.793,41.439c-2.296,0-4.164-1.868-4.164-4.164c0-2.296,1.868-4.164,4.164-4.164
		s4.164,1.868,4.164,4.164C170.957,39.571,169.089,41.439,166.793,41.439z M166.793,34.071c-1.767,0-3.205,1.438-3.205,3.205
		s1.438,3.205,3.205,3.205c1.767,0,3.205-1.438,3.205-3.205S168.561,34.071,166.793,34.071z"/>
</g>
<g>
	<path fill="#63BCB1" d="M158.336,45.973c-2.296,0-4.164-1.868-4.164-4.164c0-2.296,1.868-4.164,4.164-4.164
		c2.296,0,4.164,1.868,4.164,4.164C162.5,44.105,160.632,45.973,158.336,45.973z M158.336,38.605c-1.767,0-3.205,1.438-3.205,3.205
		s1.438,3.205,3.205,3.205c1.767,0,3.205-1.438,3.205-3.205S160.103,38.605,158.336,38.605z"/>
</g>
<g>
	<path fill="#63BCB1" d="M154.16,42.153c-0.032,0-0.066-0.003-0.099-0.01l-6.215-1.298c-0.259-0.054-0.425-0.308-0.371-0.567
		c0.054-0.26,0.306-0.426,0.567-0.371l6.215,1.298c0.259,0.054,0.425,0.308,0.371,0.567
		C154.582,41.998,154.382,42.153,154.16,42.153z"/>
</g>
<g>
	
		<rect x="161.181" y="38.695" transform="matrix(0.9093 -0.4161 0.4161 0.9093 -1.5864 71.0685)" fill="#63BCB1" width="2.181" height="0.959"/>
</g>
<g>
	<g>
		<path fill="#0F4954" d="M111.582,35.727c0.394,0.384,0.591,0.964,0.591,1.738v2.977h-1.825v-2.679
			c0-0.711-0.285-1.066-0.855-1.066c-0.314,0-0.565,0.102-0.754,0.307c-0.189,0.205-0.283,0.512-0.283,0.922v2.516h-1.824v-7.126
			h1.824v2.401c0.198-0.186,0.433-0.326,0.701-0.423c0.269-0.096,0.557-0.144,0.864-0.144
			C110.667,35.151,111.188,35.343,111.582,35.727z"/>
	</g>
	<g>
		<path fill="#0F4954" d="M118.684,38.301H114.9c0.077,0.269,0.225,0.475,0.446,0.62c0.221,0.144,0.498,0.216,0.831,0.216
			c0.25,0,0.466-0.035,0.648-0.106c0.183-0.07,0.367-0.186,0.553-0.346l0.96,0.999c-0.505,0.563-1.245,0.845-2.218,0.845
			c-0.608,0-1.143-0.115-1.604-0.346c-0.461-0.23-0.818-0.551-1.071-0.96c-0.253-0.41-0.379-0.874-0.379-1.392
			c0-0.512,0.123-0.971,0.37-1.378c0.246-0.406,0.587-0.725,1.023-0.955c0.436-0.23,0.925-0.346,1.469-0.346
			c0.518,0,0.989,0.107,1.412,0.322s0.757,0.525,1.004,0.931c0.246,0.407,0.369,0.888,0.369,1.445
			C118.712,37.863,118.703,38.013,118.684,38.301z M115.231,36.688c-0.189,0.16-0.309,0.378-0.36,0.653h2.132
			c-0.051-0.275-0.172-0.493-0.36-0.653c-0.189-0.16-0.424-0.24-0.706-0.24C115.655,36.448,115.42,36.528,115.231,36.688z"/>
	</g>
	<g>
		<path fill="#0F4954" d="M119.557,33.317h1.824v7.126h-1.824V33.317z"/>
	</g>
	<g>
		<path fill="#0F4954" d="M122.563,33.317h1.824v7.126h-1.824V33.317z"/>
	</g>
	<g>
		<path fill="#0F4954" d="M126.673,40.184c-0.448-0.23-0.799-0.551-1.052-0.96c-0.253-0.41-0.379-0.874-0.379-1.392
			c0-0.512,0.127-0.973,0.379-1.383c0.253-0.41,0.602-0.728,1.047-0.955c0.445-0.227,0.949-0.341,1.513-0.341
			c0.563,0,1.069,0.114,1.517,0.341c0.448,0.227,0.797,0.544,1.047,0.951c0.25,0.407,0.375,0.869,0.375,1.388
			s-0.125,0.983-0.375,1.392c-0.25,0.41-0.599,0.73-1.047,0.96s-0.954,0.346-1.517,0.346
			C127.624,40.529,127.121,40.414,126.673,40.184z M128.968,38.748c0.205-0.221,0.307-0.526,0.307-0.917
			c0-0.384-0.102-0.685-0.307-0.903c-0.205-0.217-0.468-0.327-0.788-0.327c-0.32,0-0.583,0.109-0.788,0.327
			c-0.205,0.218-0.307,0.519-0.307,0.903c0,0.391,0.102,0.696,0.307,0.917c0.205,0.221,0.468,0.331,0.788,0.331
			C128.501,39.079,128.763,38.969,128.968,38.748z"/>
	</g>
	<g>
		<path fill="#0F4954" d="M132.041,40.236c-0.205-0.195-0.308-0.433-0.308-0.715c0-0.288,0.102-0.525,0.308-0.711
			c0.205-0.186,0.467-0.278,0.787-0.278c0.32,0,0.581,0.093,0.783,0.278c0.202,0.186,0.302,0.423,0.302,0.711
			c0,0.282-0.102,0.52-0.307,0.715c-0.205,0.195-0.465,0.293-0.778,0.293C132.508,40.529,132.246,40.432,132.041,40.236z
			 M131.744,33.72h2.17l-0.365,4.274h-1.45L131.744,33.72z"/>
	</g>
</g>
<g>
	<path fill="#007C8F" d="M136.986,51.268c-0.051,0-0.103-0.013-0.151-0.039l-10.7-5.875c-0.152-0.083-0.207-0.274-0.124-0.426
		c0.084-0.152,0.275-0.206,0.426-0.124l10.7,5.875c0.152,0.083,0.207,0.274,0.124,0.426
		C137.205,51.209,137.097,51.268,136.986,51.268z"/>
</g>
<g>
</g>
<g>
</g>
<g>
</g>
<g>
</g>
<g>
</g>
<g>
</g>
</svg>
