<svg xmlns="http://www.w3.org/2000/svg" fill="none" viewBox="0 0 24 24">
    <path
        d="M18.201574 23H4.201571C3.373248 23 2.701566 22.328559 2.701566 21.500038V2.500001C2.701566 1.671502 3.373248 1 4.201571 1H18.201574C19.030095 1 19.701646 1.671502 19.701646 2.500001V21.500038C19.701646 22.328559 19.030095 23 18.201574 23Z"
        stroke="currentColor" stroke-linecap="round" stroke-linejoin="round" stroke-width="1" />
    <path d="M2.701566 20.000846H19.701646" stroke="currentColor" stroke-linecap="round"
        stroke-linejoin="round" stroke-width="1" />
    <path
        d="M13.864929 13.306678C13.475749 13.090638 13.089978 12.974698 12.757888 13.306678C12.425687 13.639209 12.541737 14.024649 12.757888 14.41372C12.973928 14.80323 14.179969 16.943173 14.69521 17.458193C15.306811 18.069684 16.298022 18.069684 16.909513 17.458193C17.520783 16.847143 17.520783 15.855711 16.909513 15.244221C16.394272 14.72865 14.25422 13.523159 13.864929 13.306678Z"
        stroke="currentColor" stroke-linecap="round" stroke-linejoin="round" stroke-width="1" />
    <path
        d="M13.661759 15.973302C12.911118 16.311332 12.078747 16.498882 11.202376 16.498882C7.888677 16.498882 5.202353 13.812899 5.202353 10.498837C5.202353 7.185336 7.888677 4.498836 11.202376 4.498836C14.51624 4.498836 17.202333 7.185336 17.202333 10.498837C17.202333 11.43034 16.990253 12.311837 16.611962 13.097788"
        stroke="currentColor" stroke-linecap="round" stroke-linejoin="round" stroke-width="1" />
    <path
        d="M12.701238 10.500014C12.701238 11.328513 12.029687 11.999987 11.201188 11.999987C10.372832 11.999987 9.701182 11.328513 9.701182 10.500014C9.701182 9.671515 10.372832 9.000008 11.201188 9.000008C12.029687 9.000008 12.701238 9.671515 12.701238 10.500014Z"
        stroke="currentColor" stroke-linecap="round" stroke-linejoin="round" stroke-width="1" />
    <path d="M4.699619 21.500368H6.199636" stroke="currentColor" stroke-linecap="round"
        stroke-linejoin="round" stroke-width="1" />
    <path d="M7.204696 21.500368H8.704702" stroke="currentColor" stroke-linecap="round"
        stroke-linejoin="round" stroke-width="1" />
</svg>