<svg xmlns="http://www.w3.org/2000/svg" width="24" height="24" fill="none" viewBox="0 0 24 24">
  <path stroke="#000" stroke-linecap="round" stroke-linejoin="round" stroke-width="2" d="M12 14v-3.5M12 7h.01M9.9 19.2l1.46 1.947c.217.29.326.434.459.486a.5.5 0 0 0 .362 0c.133-.052.242-.197.459-.486L14.1 19.2c.293-.39.44-.586.619-.735a2 2 0 0 1 .822-.412c.226-.053.47-.053.959-.053 1.398 0 2.097 0 2.648-.228a3 3 0 0 0 1.624-1.624C21 15.597 21 14.898 21 13.5V7.8c0-1.68 0-2.52-.327-3.162a3 3 0 0 0-1.311-1.311C18.72 3 17.88 3 16.2 3H7.8c-1.68 0-2.52 0-3.162.327a3 3 0 0 0-1.311 1.311C3 5.28 3 6.12 3 7.8v5.7c0 1.398 0 2.097.228 2.648a3 3 0 0 0 1.624 1.624C5.403 18 6.102 18 7.5 18c.489 0 .733 0 .96.053a2 2 0 0 1 .821.412c.18.149.326.344.619.735Z"/>
</svg>
