<svg xmlns="http://www.w3.org/2000/svg" width="24" height="24" fill="none" viewBox="0 0 24 24">
  <path stroke="#000" stroke-linecap="round" stroke-linejoin="round" stroke-width="2" d="M9 21H4.6c-.56 0-.84 0-1.054-.109a1 1 0 0 1-.437-.437C3 20.24 3 19.96 3 19.4V4.6c0-.56 0-.84.109-1.054a1 1 0 0 1 .437-.437C3.76 3 4.04 3 4.6 3h2.8c.56 0 .84 0 1.054.109a1 1 0 0 1 .437.437C9 3.76 9 4.04 9 4.6V7m0 14h6m-6 0V7m0 0h4.4c.56 0 .84 0 1.054.109a1 1 0 0 1 .437.437C15 7.76 15 8.04 15 8.6V21m0-10h4.4c.56 0 .84 0 1.054.109a1 1 0 0 1 .437.437C21 11.76 21 12.04 21 12.6v6.8c0 .56 0 .84-.109 1.054a1 1 0 0 1-.437.437C20.24 21 19.96 21 19.4 21H15"/>
</svg>
