<svg xmlns="http://www.w3.org/2000/svg" width="24" height="24" fill="none" viewBox="0 0 24 24">
  <path stroke="#000" stroke-linecap="round" stroke-linejoin="round" stroke-width="2" d="m9.5 18 4-6h-6l4-6M22 13v-2m-8 7h.2c1.68 0 2.52 0 3.162-.327a3 3 0 0 0 1.311-1.311C19 15.72 19 14.88 19 13.2V10c0-.93 0-1.395-.102-1.776a3 3 0 0 0-2.122-2.122C16.395 6 15.93 6 15 6M7 6h-.2c-1.68 0-2.52 0-3.162.327a3 3 0 0 0-1.311 1.311C2 8.28 2 9.12 2 10.8V14c0 .93 0 1.395.102 1.777a3 3 0 0 0 2.122 2.12C4.605 18 5.07 18 6 18"/>
</svg>
