<svg xmlns="http://www.w3.org/2000/svg" width="24" height="24" fill="none" viewBox="0 0 24 24">
  <path stroke="#000" stroke-linecap="round" stroke-linejoin="round" stroke-width="2" d="M22 13v-2M6.8 18h7.4c1.68 0 2.52 0 3.162-.327a3 3 0 0 0 1.311-1.311C19 15.72 19 14.88 19 13.2v-2.4c0-1.68 0-2.52-.327-3.162a3 3 0 0 0-1.311-1.311C16.72 6 15.88 6 14.2 6H6.8c-1.68 0-2.52 0-3.162.327a3 3 0 0 0-1.311 1.311C2 8.28 2 9.12 2 10.8v2.4c0 1.68 0 2.52.327 3.162a3 3 0 0 0 1.311 1.311C4.28 18 5.12 18 6.8 18Z"/>
</svg>
