<svg xmlns="http://www.w3.org/2000/svg" width="24" height="24" fill="none" viewBox="0 0 24 24">
  <path stroke="#000" stroke-linecap="round" stroke-linejoin="round" stroke-width="2" d="M8 21V7c0-.93 0-1.395.102-1.776a3 3 0 0 1 2.121-2.122C10.605 3 11.07 3 12 3c.93 0 1.395 0 1.777.102a3 3 0 0 1 2.12 2.122C16 5.605 16 6.07 16 7v14M5.2 21h13.6c1.12 0 1.68 0 2.108-.218a2 2 0 0 0 .874-.874C22 19.48 22 18.92 22 17.8v-7.6c0-1.12 0-1.68-.218-2.108a2 2 0 0 0-.874-.874C20.48 7 19.92 7 18.8 7H5.2c-1.12 0-1.68 0-2.108.218a2 2 0 0 0-.874.874C2 8.52 2 9.08 2 10.2v7.6c0 1.12 0 1.68.218 2.108a2 2 0 0 0 .874.874C3.52 21 4.08 21 5.2 21Z"/>
</svg>
