<svg width="24" height="24" viewBox="0 0 24 24" fill="none" xmlns="http://www.w3.org/2000/svg">
<g id="camera-02">
<g id="Icon">
<path d="M2 7.70178C2 6.20963 3.20963 5 4.70178 5C5.47706 5 6.16537 4.5039 6.41053 3.7684L6.5 3.5C6.54219 3.37343 6.56329 3.31014 6.58586 3.254C6.87405 2.53712 7.54939 2.05037 8.32061 2.00366C8.38101 2 8.44772 2 8.58114 2H15.4189C15.5523 2 15.619 2 15.6794 2.00366C16.4506 2.05037 17.126 2.53712 17.4141 3.254C17.4367 3.31014 17.4578 3.37343 17.5 3.5L17.5895 3.7684C17.8346 4.5039 18.5229 5 19.2982 5C20.7904 5 22 6.20963 22 7.70178V16.2C22 17.8802 22 18.7202 21.673 19.362C21.3854 19.9265 20.9265 20.3854 20.362 20.673C19.7202 21 18.8802 21 17.2 21H6.8C5.11984 21 4.27976 21 3.63803 20.673C3.07354 20.3854 2.6146 19.9265 2.32698 19.362C2 18.7202 2 17.8802 2 16.2V7.70178Z" stroke="black" stroke-width="2" stroke-linecap="round" stroke-linejoin="round"/>
<path d="M12 16.5C14.4853 16.5 16.5 14.4853 16.5 12C16.5 9.51472 14.4853 7.5 12 7.5C9.51472 7.5 7.5 9.51472 7.5 12C7.5 14.4853 9.51472 16.5 12 16.5Z" stroke="black" stroke-width="2" stroke-linecap="round" stroke-linejoin="round"/>
</g>
</g>
</svg>
