<svg xmlns="http://www.w3.org/2000/svg" width="24" height="24" fill="none" viewBox="0 0 24 24">
  <path stroke="#000" stroke-linecap="round" stroke-linejoin="round" stroke-width="2" d="m6 15 2 2 4.5-4.5M8 8V5.2c0-1.12 0-1.68.218-2.108a2 2 0 0 1 .874-.874C9.52 2 10.08 2 11.2 2h7.6c1.12 0 1.68 0 2.108.218a2 2 0 0 1 .874.874C22 3.52 22 4.08 22 5.2v7.6c0 1.12 0 1.68-.218 2.108a2 2 0 0 1-.874.874C20.48 16 19.92 16 18.8 16H16M5.2 22h7.6c1.12 0 1.68 0 2.108-.218a2 2 0 0 0 .874-.874C16 20.48 16 19.92 16 18.8v-7.6c0-1.12 0-1.68-.218-2.108a2 2 0 0 0-.874-.874C14.48 8 13.92 8 12.8 8H5.2c-1.12 0-1.68 0-2.108.218a2 2 0 0 0-.874.874C2 9.52 2 10.08 2 11.2v7.6c0 1.12 0 1.68.218 2.108a2 2 0 0 0 .874.874C3.52 22 4.08 22 5.2 22Z"/>
</svg>
