<svg xmlns="http://www.w3.org/2000/svg" width="24" height="24" fill="none" viewBox="0 0 24 24">
  <path stroke="#000" stroke-linecap="round" stroke-linejoin="round" stroke-width="2" d="m12 9-7.936 5.16c-.688.447-1.032.67-1.151.954a1 1 0 0 0 0 .774M12 9l7.936 5.159c.688.447 1.032.67 1.151.954a1 1 0 0 1 0 .774M12 9V2.5M12 15 4.064 9.842c-.688-.447-1.032-.671-1.151-.954a1 1 0 0 1 0-.775M12 15l7.936-5.158c.688-.447 1.032-.671 1.151-.954a1 1 0 0 0 0-.775M12 15v6.5m9.272-5.527-8.4 5.46c-.316.206-.473.308-.643.348a1 1 0 0 1-.457 0c-.17-.04-.328-.142-.644-.348l-8.4-5.46c-.266-.173-.399-.259-.495-.374a1 1 0 0 1-.189-.348C2 15.108 2 14.95 2 14.631V9.369c0-.317 0-.475.044-.619a1 1 0 0 1 .189-.347c.096-.116.229-.202.495-.375l8.4-5.46c.316-.205.473-.308.643-.348a1 1 0 0 1 .457 0c.17.04.328.143.644.348l8.4 5.46c.266.173.399.26.495.375a1 1 0 0 1 .189.347c.044.144.044.302.044.62v5.263c0 .317 0 .476-.044.62a1 1 0 0 1-.189.347c-.096.115-.229.201-.495.374Z"/>
</svg>
