<svg xmlns="http://www.w3.org/2000/svg" width="24" height="24" fill="none" viewBox="0 0 24 24">
  <path stroke="#000" stroke-linecap="round" stroke-linejoin="round" stroke-width="2" d="M16 16v2.8c0 1.12 0 1.68-.218 2.108a2 2 0 0 1-.874.874C14.48 22 13.92 22 12.8 22H5.2c-1.12 0-1.68 0-2.108-.218a2 2 0 0 1-.874-.874C2 20.48 2 19.92 2 18.8v-7.6c0-1.12 0-1.68.218-2.108a2 2 0 0 1 .874-.874C3.52 8 4.08 8 5.2 8H8m3.2 8h7.6c1.12 0 1.68 0 2.108-.218a2 2 0 0 0 .874-.874C22 14.48 22 13.92 22 12.8V5.2c0-1.12 0-1.68-.218-2.108a2 2 0 0 0-.874-.874C20.48 2 19.92 2 18.8 2h-7.6c-1.12 0-1.68 0-2.108.218a2 2 0 0 0-.874.874C8 3.52 8 4.08 8 5.2v7.6c0 1.12 0 1.68.218 2.108a2 2 0 0 0 .874.874C9.52 16 10.08 16 11.2 16Z"/>
</svg>
