<svg xmlns="http://www.w3.org/2000/svg" width="24" height="24" fill="none" viewBox="0 0 24 24">
  <path stroke="#000" stroke-linecap="round" stroke-linejoin="round" stroke-width="2" d="M7.5 3h7.1c2.24 0 3.36 0 4.216.436a4 4 0 0 1 1.748 1.748C21 6.04 21 7.16 21 9.4v7.1M6.2 21h8.1c1.12 0 1.68 0 2.108-.218a2 2 0 0 0 .874-.874c.218-.428.218-.988.218-2.108V9.7c0-1.12 0-1.68-.218-2.108a2 2 0 0 0-.874-.874C15.98 6.5 15.42 6.5 14.3 6.5H6.2c-1.12 0-1.68 0-2.108.218a2 2 0 0 0-.874.874C3 8.02 3 8.58 3 9.7v8.1c0 1.12 0 1.68.218 2.108a2 2 0 0 0 .874.874C4.52 21 5.08 21 6.2 21Z"/>
</svg>
