<svg xmlns="http://www.w3.org/2000/svg" width="24" height="24" fill="none" viewBox="0 0 24 24">
  <path stroke="#000" stroke-linecap="round" stroke-linejoin="round" stroke-width="2" d="m9 17 3 3m0 0 3-3m-3 3v-7m10-4H2m3.5 9h-.3c-1.12 0-1.68 0-2.108-.218a2 2 0 0 1-.874-.874C2 16.48 2 15.92 2 14.8V7.2c0-1.12 0-1.68.218-2.108a2 2 0 0 1 .874-.874C3.52 4 4.08 4 5.2 4h13.6c1.12 0 1.68 0 2.108.218a2 2 0 0 1 .874.874C22 5.52 22 6.08 22 7.2v7.6c0 1.12 0 1.68-.218 2.108a2 2 0 0 1-.874.874C20.48 18 19.92 18 18.8 18h-.3"/>
</svg>
