<svg xmlns="http://www.w3.org/2000/svg" width="24" height="24" fill="none" viewBox="0 0 24 24">
  <path stroke="#000" stroke-linecap="round" stroke-linejoin="round" stroke-width="2" d="M2 10h20V8.2c0-1.12 0-1.68-.218-2.108a2 2 0 0 0-.874-.874C20.48 5 19.92 5 18.8 5H5.2c-1.12 0-1.68 0-2.108.218a2 2 0 0 0-.874.874C2 6.52 2 7.08 2 8.2v7.6c0 1.12 0 1.68.218 2.108a2 2 0 0 0 .874.874C3.52 19 4.08 19 5.2 19H11m3.5 2 2.025-.405c.177-.035.265-.053.347-.085a.994.994 0 0 0 .207-.111c.073-.05.136-.114.264-.242L21.5 16a1.414 1.414 0 1 0-2-2l-4.157 4.157a2.098 2.098 0 0 0-.242.264.994.994 0 0 0-.11.207c-.033.082-.05.17-.086.347L14.5 21Z"/>
</svg>
