<svg xmlns="http://www.w3.org/2000/svg" width="24" height="24" fill="none" viewBox="0 0 24 24">
  <path stroke="#000" stroke-linecap="round" stroke-linejoin="round" stroke-width="2" d="M3.5 8H16m0 0v12.5M16 8l4.5-4.5m.5 11.837V3.8c0-.28 0-.42-.055-.527a.5.5 0 0 0-.218-.219C20.62 3 20.48 3 20.2 3H8.663c-.245 0-.367 0-.482.028a1 1 0 0 0-.29.12c-.1.061-.187.148-.36.32L3.47 7.532c-.173.173-.26.26-.322.36a1 1 0 0 0-.12.29C3 8.296 3 8.418 3 8.663V20.2c0 .28 0 .42.054.527a.5.5 0 0 0 .219.218C3.38 21 3.52 21 3.8 21h11.537c.245 0 .367 0 .482-.028a.998.998 0 0 0 .29-.12c.1-.061.187-.148.36-.32l4.062-4.063c.173-.173.26-.26.322-.36a.998.998 0 0 0 .12-.29c.027-.115.027-.237.027-.482Z"/>
</svg>
