<svg xmlns="http://www.w3.org/2000/svg" width="24" height="24" fill="none" viewBox="0 0 24 24">
  <path stroke="#000" stroke-linecap="round" stroke-linejoin="round" stroke-width="2" d="M2.5 9h19M10 3 8 9l4 11.5L16 9l-2-6m-1.386 17.262 8.959-10.75c.152-.182.227-.273.256-.375a.5.5 0 0 0 0-.274c-.029-.102-.104-.193-.256-.375l-4.334-5.2a1.073 1.073 0 0 0-.186-.197.5.5 0 0 0-.158-.074C16.831 3 16.763 3 16.625 3h-9.25c-.138 0-.207 0-.271.017a.5.5 0 0 0-.158.074 1.08 1.08 0 0 0-.186.197l-4.334 5.2c-.151.182-.227.273-.256.375a.5.5 0 0 0 0 .274c.029.102.105.193.256.375l8.959 10.75c.211.254.316.38.443.427a.5.5 0 0 0 .343 0c.127-.047.232-.173.443-.427Z"/>
</svg>
