<svg xmlns="http://www.w3.org/2000/svg" width="24" height="24" fill="none" viewBox="0 0 24 24">
  <path stroke="#000" stroke-linecap="round" stroke-linejoin="round" stroke-width="2" d="m21 18-1 1.094A2.71 2.71 0 0 1 18 20c-.75 0-1.47-.326-2-.906a2.716 2.716 0 0 0-2-.904c-.75 0-1.469.325-2 .904M3 20h1.675c.489 0 .733 0 .964-.055.204-.05.399-.13.578-.24.201-.123.374-.296.72-.642L19.5 6.5a2.121 2.121 0 0 0-3-3L3.937 16.063c-.346.346-.519.519-.642.72a2 2 0 0 0-.24.578c-.055.23-.055.475-.055.965V20Z"/>
</svg>
