<svg xmlns="http://www.w3.org/2000/svg" width="24" height="24" fill="none" viewBox="0 0 24 24">
  <path stroke="#000" stroke-linecap="round" stroke-linejoin="round" stroke-width="2" d="M22 16.437c0 1.13 0 1.695-.229 1.972a1 1 0 0 1-.809.363c-.358-.013-.78-.388-1.625-1.14l-4.992-4.436c-.465-.414-.698-.62-.784-.865a1 1 0 0 1 0-.662c.086-.245.319-.451.784-.865l4.992-4.437c.844-.75 1.267-1.126 1.625-1.14a1 1 0 0 1 .81.364c.228.277.228.842.228 1.972v8.874Zm-11 0c0 1.13 0 1.695-.229 1.972a1 1 0 0 1-.809.363c-.358-.013-.78-.388-1.625-1.14l-4.992-4.436c-.465-.414-.698-.62-.784-.865a1 1 0 0 1 0-.662c.086-.245.319-.451.784-.865l4.992-4.437c.844-.75 1.267-1.126 1.625-1.14a1 1 0 0 1 .81.364c.228.277.228.842.228 1.972v8.874Z"/>
</svg>
