<svg xmlns="http://www.w3.org/2000/svg" width="24" height="24" fill="none" viewBox="0 0 24 24">
  <path stroke="#000" stroke-linecap="round" stroke-linejoin="round" stroke-width="2" d="M14 2.27V6.4c0 .56 0 .84.109 1.054a1 1 0 0 0 .437.437c.214.11.494.11 1.054.11h4.13M14 2H8.8c-1.68 0-2.52 0-3.162.327a3 3 0 0 0-1.311 1.311C4 4.28 4 5.12 4 6.8v10.4c0 1.68 0 2.52.327 3.162a3 3 0 0 0 1.311 1.311C6.28 22 7.12 22 8.8 22h6.4c1.68 0 2.52 0 3.162-.327a3 3 0 0 0 1.311-1.311C20 19.72 20 18.88 20 17.2V8l-6-6Zm-2.003 9.83c-.8-.908-2.133-1.153-3.135-.32-1.002.832-1.143 2.223-.356 3.208.787.984 3.491 3.282 3.491 3.282s2.705-2.298 3.492-3.282a2.256 2.256 0 0 0-.356-3.209c-1.02-.823-2.336-.587-3.136.322Z"/>
</svg>
