<svg xmlns="http://www.w3.org/2000/svg" width="24" height="24" fill="none" viewBox="0 0 24 24">
  <path stroke="#000" stroke-linecap="round" stroke-linejoin="round" stroke-width="2" d="M3.386 5.667C2.63 4.822 2.25 4.399 2.237 4.04a1 1 0 0 1 .363-.811C2.877 3 3.444 3 4.578 3h14.843c1.134 0 1.702 0 1.979.229a1 1 0 0 1 .362.81c-.014.36-.392.783-1.148 1.628l-5.707 6.377c-.15.169-.226.253-.28.35a1 1 0 0 0-.103.27c-.024.108-.024.221-.024.447v5.347c0 .196 0 .294-.032.378a.5.5 0 0 1-.132.196c-.067.06-.158.096-.34.17l-3.4 1.36c-.367.146-.55.22-.698.189a.5.5 0 0 1-.315-.213c-.083-.126-.083-.324-.083-.72v-6.707c0-.226 0-.339-.024-.446a1 1 0 0 0-.104-.272c-.054-.096-.13-.18-.28-.349L3.386 5.667Z"/>
</svg>
