<svg xmlns="http://www.w3.org/2000/svg" width="24" height="24" fill="none" viewBox="0 0 24 24">
  <path stroke="#000" stroke-linecap="round" stroke-linejoin="round" stroke-width="2" d="m13 7-1.116-2.231c-.32-.642-.481-.963-.72-1.198a2 2 0 0 0-.748-.462C10.1 3 9.74 3 9.022 3H5.2c-1.12 0-1.68 0-2.108.218a2 2 0 0 0-.874.874C2 4.52 2 5.08 2 6.2V7m0 0h15.2c1.68 0 2.52 0 3.162.327a3 3 0 0 1 1.311 1.311C22 9.28 22 10.12 22 11.8v4.4c0 1.68 0 2.52-.327 3.162a3 3 0 0 1-1.311 1.311C19.72 21 18.88 21 17.2 21H6.8c-1.68 0-2.52 0-3.162-.327a3 3 0 0 1-1.311-1.311C2 18.72 2 17.88 2 16.2V7Zm10 10.5s3-1.43 3-3.575v-2.502l-2.188-.782a2.41 2.41 0 0 0-1.626 0L9 11.423v2.502c0 2.145 3 3.575 3 3.575Z"/>
</svg>
