<svg xmlns="http://www.w3.org/2000/svg" width="24" height="24" fill="none" viewBox="0 0 24 24">
  <path stroke="#000" stroke-linecap="round" stroke-linejoin="round" stroke-width="2" d="M12.982 2.764c-.351-.273-.527-.41-.72-.462a1 1 0 0 0-.523 0c-.194.052-.37.189-.721.462L4.235 8.039c-.453.353-.68.53-.843.75a2 2 0 0 0-.318.65C3 9.704 3 9.991 3 10.565V17.8c0 1.12 0 1.68.218 2.108a2 2 0 0 0 .874.874C4.52 21 5.08 21 6.2 21h2c.28 0 .42 0 .527-.055a.5.5 0 0 0 .218-.218C9 20.62 9 20.48 9 20.2v-6.6c0-.56 0-.84.109-1.054a1 1 0 0 1 .437-.437C9.76 12 10.04 12 10.6 12h2.8c.56 0 .84 0 1.054.109a1 1 0 0 1 .437.437C15 12.76 15 13.04 15 13.6v6.6c0 .28 0 .42.055.527a.5.5 0 0 0 .218.218c.107.055.247.055.527.055h2c1.12 0 1.68 0 2.108-.218a2 2 0 0 0 .874-.874C21 19.48 21 18.92 21 17.8v-7.235c0-.574 0-.861-.074-1.126a2.002 2.002 0 0 0-.318-.65c-.163-.22-.39-.397-.843-.75l-6.783-5.275Z"/>
</svg>
