<svg width="24" height="24" viewBox="0 0 24 24" fill="none" xmlns="http://www.w3.org/2000/svg">
<g id="image-02">
<path id="Icon" d="M5.99958 20.0004L14.8686 11.1314C15.2646 10.7354 15.4627 10.5373 15.691 10.4632C15.8918 10.3979 16.1082 10.3979 16.309 10.4632C16.5373 10.5373 16.7354 10.7354 17.1314 11.1314L21.4053 15.4053M10.5 8.5C10.5 9.60457 9.60457 10.5 8.5 10.5C7.39543 10.5 6.5 9.60457 6.5 8.5C6.5 7.39543 7.39543 6.5 8.5 6.5C9.60457 6.5 10.5 7.39543 10.5 8.5ZM22 12C22 17.5228 17.5228 22 12 22C6.47715 22 2 17.5228 2 12C2 6.47715 6.47715 2 12 2C17.5228 2 22 6.47715 22 12Z" stroke="black" stroke-width="2" stroke-linecap="round" stroke-linejoin="round"/>
</g>
</svg>
