<svg xmlns="http://www.w3.org/2000/svg" width="24" height="24" fill="none" viewBox="0 0 24 24">
  <path stroke="#000" stroke-linecap="round" stroke-linejoin="round" stroke-width="2" d="M7 14.5h10M6 10h.01M10 10h.01M14 10h.01M18 10h.01M5.2 18h13.6c1.12 0 1.68 0 2.108-.218a2 2 0 0 0 .874-.874C22 16.48 22 15.92 22 14.8V9.2c0-1.12 0-1.68-.218-2.108a2 2 0 0 0-.874-.874C20.48 6 19.92 6 18.8 6H5.2c-1.12 0-1.68 0-2.108.218a2 2 0 0 0-.874.874C2 7.52 2 8.08 2 9.2v5.6c0 1.12 0 1.68.218 2.108a2 2 0 0 0 .874.874C3.52 18 4.08 18 5.2 18Z"/>
</svg>
