<svg xmlns="http://www.w3.org/2000/svg" width="24" height="24" fill="none" viewBox="0 0 24 24">
  <path stroke="#000" stroke-linecap="round" stroke-linejoin="round" stroke-width="2" d="M6.094 11.229A8.01 8.01 0 0 1 6 10c0-4.418 3.605-8 8.053-8 4.447 0 8.052 3.582 8.052 8a7.94 7.94 0 0 1-.52 2.835c-.07.182-.105.274-.12.345a.897.897 0 0 0-.024.194c-.002.073.008.153.028.314l.403 3.27c.043.355.065.532.006.66a.5.5 0 0 1-.257.252c-.13.055-.306.03-.66-.022l-3.184-.467c-.167-.024-.25-.037-.326-.036a.898.898 0 0 0-.2.021 2.989 2.989 0 0 0-.358.122 8.174 8.174 0 0 1-4.07.42M7.632 22C10.597 22 13 19.538 13 16.5S10.597 11 7.632 11c-2.965 0-5.369 2.462-5.369 5.5 0 .61.097 1.198.277 1.747.075.232.113.348.126.427.013.083.015.13.01.213-.005.08-.025.17-.065.351L2 22l2.995-.409c.163-.022.245-.034.316-.033.076 0 .115.005.19.02.07.013.173.05.381.123a5.246 5.246 0 0 0 1.75.299Z"/>
</svg>
