<svg xmlns="http://www.w3.org/2000/svg" width="24" height="24" fill="none" viewBox="0 0 24 24">
  <path stroke="#000" stroke-linecap="round" stroke-linejoin="round" stroke-width="2" d="M8.5 12.5S9.813 14 12 14c2.188 0 3.5-1.5 3.5-1.5m-.75-5h.01m-5.51 0h.01M7 18v2.335c0 .533 0 .8.11.937a.5.5 0 0 0 .39.188c.176 0 .384-.167.8-.5l2.385-1.908c.487-.39.731-.585 1.002-.724.241-.122.497-.212.762-.267.299-.061.61-.061 1.235-.061H16.2c1.68 0 2.52 0 3.162-.327a3 3 0 0 0 1.311-1.311C21 15.72 21 14.88 21 13.2V7.8c0-1.68 0-2.52-.327-3.162a3 3 0 0 0-1.311-1.311C18.72 3 17.88 3 16.2 3H7.8c-1.68 0-2.52 0-3.162.327a3 3 0 0 0-1.311 1.311C3 5.28 3 6.12 3 7.8V14c0 .93 0 1.395.102 1.777a3 3 0 0 0 2.122 2.12C5.605 18 6.07 18 7 18Zm8.25-10.5a.5.5 0 1 1-1 0 .5.5 0 0 1 1 0Zm-5.5 0a.5.5 0 1 1-1 0 .5.5 0 0 1 1 0Z"/>
</svg>
