<svg xmlns="http://www.w3.org/2000/svg" width="24" height="24" fill="none" viewBox="0 0 24 24">
  <path stroke="#000" stroke-linecap="round" stroke-linejoin="round" stroke-width="2" d="M2 14h20M8 21h8m-9.2-3h10.4c1.68 0 2.52 0 3.162-.327a3 3 0 0 0 1.311-1.311C22 15.72 22 14.88 22 13.2V7.8c0-1.68 0-2.52-.327-3.162a3 3 0 0 0-1.311-1.311C19.72 3 18.88 3 17.2 3H6.8c-1.68 0-2.52 0-3.162.327a3 3 0 0 0-1.311 1.311C2 5.28 2 6.12 2 7.8v5.4c0 1.68 0 2.52.327 3.162a3 3 0 0 0 1.311 1.311C4.28 18 5.12 18 6.8 18Z"/>
</svg>
