<svg xmlns="http://www.w3.org/2000/svg" width="24" height="24" fill="none" viewBox="0 0 24 24">
  <path stroke="#000" stroke-linecap="round" stroke-linejoin="round" stroke-width="2" d="M8 21h8m-4-4v4m-5.2-4h10.4c1.68 0 2.52 0 3.162-.327a3 3 0 0 0 1.311-1.311C22 14.72 22 13.88 22 12.2V7.8c0-1.68 0-2.52-.327-3.162a3 3 0 0 0-1.311-1.311C19.72 3 18.88 3 17.2 3H6.8c-1.68 0-2.52 0-3.162.327a3 3 0 0 0-1.311 1.311C2 5.28 2 6.12 2 7.8v4.4c0 1.68 0 2.52.327 3.162a3 3 0 0 0 1.311 1.311C4.28 17 5.12 17 6.8 17Z"/>
</svg>
