<svg xmlns="http://www.w3.org/2000/svg" width="24" height="24" fill="none" viewBox="0 0 24 24">
  <path stroke="#000" stroke-linecap="round" stroke-linejoin="round" stroke-width="2" d="M11.337 6.161 20.3 2.663c.537-.21.806-.314.978-.257a.5.5 0 0 1 .316.316c.057.172-.048.44-.258.977l-3.509 8.992m-1.441 3.695-1.64 4.201c-.232.595-.348.893-.515.98a.5.5 0 0 1-.462 0c-.167-.088-.282-.385-.514-.98l-2.628-6.759a1.075 1.075 0 0 0-.107-.232.5.5 0 0 0-.116-.117 1.069 1.069 0 0 0-.232-.106l-6.759-2.628c-.595-.232-.893-.348-.98-.515a.5.5 0 0 1 0-.461c.087-.167.385-.283.98-.515l4.204-1.641M21 21 3 3"/>
</svg>
