<svg xmlns="http://www.w3.org/2000/svg" width="24" height="24" fill="none" viewBox="0 0 24 24">
  <path stroke="#000" stroke-linecap="round" stroke-linejoin="round" stroke-width="2" d="M2 12c0 5.523 4.477 10 10 10a3 3 0 0 0 3-3v-.5c0-.464 0-.697.026-.892a3 3 0 0 1 2.582-2.582c.195-.026.428-.026.892-.026h.5a3 3 0 0 0 3-3c0-5.523-4.477-10-10-10S2 6.477 2 12Z"/>
  <path stroke="#000" stroke-linecap="round" stroke-linejoin="round" stroke-width="2" d="M7 13a1 1 0 1 0 0-2 1 1 0 0 0 0 2Zm9-4a1 1 0 1 0 0-2 1 1 0 0 0 0 2Zm-6-1a1 1 0 1 0 0-2 1 1 0 0 0 0 2Z"/>
</svg>
