<svg xmlns="http://www.w3.org/2000/svg" width="24" height="24" fill="none" viewBox="0 0 24 24">
  <path stroke="#000" stroke-linecap="round" stroke-linejoin="round" stroke-width="2" d="M22 11V8.2c0-1.12 0-1.68-.218-2.108a2 2 0 0 0-.874-.874C20.48 5 19.92 5 18.8 5H5.2c-1.12 0-1.68 0-2.108.218a2 2 0 0 0-.874.874C2 6.52 2 7.08 2 8.2v3.6c0 1.12 0 1.68.218 2.108a2 2 0 0 0 .874.874C3.52 15 4.08 15 5.2 15H11m1-5h.005M17 10h.005M7 10h.005m12.245 7v-1.75a1.75 1.75 0 1 0-3.5 0V17m-3.5-7a.25.25 0 1 1-.5 0 .25.25 0 0 1 .5 0Zm5 0a.25.25 0 1 1-.5 0 .25.25 0 0 1 .5 0Zm-10 0a.25.25 0 1 1-.5 0 .25.25 0 0 1 .5 0Zm8.35 11h3.8c.56 0 .84 0 1.054-.109a1 1 0 0 0 .437-.437C21 20.24 21 19.96 21 19.4v-.8c0-.56 0-.84-.109-1.054a1 1 0 0 0-.437-.437C20.24 17 19.96 17 19.4 17h-3.8c-.56 0-.84 0-1.054.109a1 1 0 0 0-.437.437C14 17.76 14 18.04 14 18.6v.8c0 .56 0 .84.109 1.054a1 1 0 0 0 .437.437C14.76 21 15.04 21 15.6 21Z"/>
</svg>
