<svg xmlns="http://www.w3.org/2000/svg" width="24" height="24" fill="none" viewBox="0 0 24 24">
  <path stroke="#000" stroke-linecap="round" stroke-linejoin="round" stroke-width="2" d="M13 6 6.502 7.3c-.363.072-.545.108-.692.197a1 1 0 0 0-.325.312c-.094.144-.138.324-.225.684L2 22m0 0 13.507-3.26c.36-.087.54-.13.684-.225a1 1 0 0 0 .312-.325c.088-.148.125-.329.197-.692L18 11M2 22l7.586-7.586m11.283-6.546L16.13 3.131c-.396-.396-.594-.594-.822-.668a1 1 0 0 0-.618 0c-.228.074-.426.272-.822.668l-.738.737c-.396.397-.594.595-.668.823a1 1 0 0 0 0 .618c.074.228.272.426.668.822l4.738 4.737c.396.396.594.595.822.669a1 1 0 0 0 .618 0c.228-.075.426-.273.822-.669l.738-.737c.396-.396.594-.594.668-.822a1 1 0 0 0 0-.618c-.074-.229-.272-.427-.668-.823ZM11 11a2 2 0 1 1 0 4 2 2 0 0 1 0-4Z"/>
</svg>
