<svg xmlns="http://www.w3.org/2000/svg" width="24" height="24" fill="none" viewBox="0 0 24 24">
  <path stroke="#000" stroke-linecap="round" stroke-linejoin="round" stroke-width="2" d="M12 15v7M8 7.308v2.13c0 .209 0 .313-.02.412a1.001 1.001 0 0 1-.09.254c-.045.09-.11.172-.24.334L6.08 12.4c-.666.833-.999 1.249-.999 1.599a1 1 0 0 0 .376.782C5.731 15 6.264 15 7.33 15h9.342c1.066 0 1.599 0 1.873-.219A1 1 0 0 0 18.92 14c0-.35-.333-.766-1-1.599l-1.569-1.962c-.13-.162-.195-.243-.241-.334a1.004 1.004 0 0 1-.09-.254C16 9.75 16 9.647 16 9.44V7.31c0-.116 0-.174.007-.23.006-.05.015-.1.029-.15a2.02 2.02 0 0 1 .079-.215l1.008-2.52c.294-.735.44-1.102.38-1.397a1 1 0 0 0-.427-.63C16.825 2 16.429 2 15.637 2H8.364c-.792 0-1.188 0-1.44.167a1 1 0 0 0-.426.63c-.06.295.086.662.38 1.397l1.008 2.52c.043.107.064.16.08.215a1 1 0 0 1 .028.15c.006.056.006.114.006.23Z"/>
</svg>
