<svg xmlns="http://www.w3.org/2000/svg" width="24" height="24" fill="none" viewBox="0 0 24 24">
  <path stroke="#000" stroke-linecap="round" stroke-linejoin="round" stroke-width="2" d="M8.377 15.616 2.72 21.273m8.974-14.631-1.56 1.56a2.1 2.1 0 0 1-.264.242 1 1 0 0 1-.207.111c-.082.032-.17.05-.347.085l-3.665.733c-.952.19-1.428.286-1.65.537a1 1 0 0 0-.243.8c.046.333.39.677 1.076 1.363l7.086 7.086c.686.687 1.03 1.03 1.362 1.076a1 1 0 0 0 .801-.242c.251-.223.346-.7.537-1.651l.733-3.665a2.11 2.11 0 0 1 .085-.347.997.997 0 0 1 .11-.207c.051-.072.115-.136.242-.263l1.561-1.561c.082-.082.122-.122.167-.158.04-.031.082-.06.126-.085.05-.029.103-.051.208-.097l2.495-1.069c.727-.312 1.091-.467 1.256-.72a1 1 0 0 0 .144-.747c-.06-.295-.34-.575-.9-1.135l-5.142-5.143c-.56-.56-.84-.84-1.135-.9a1 1 0 0 0-.748.145c-.252.165-.407.529-.72 1.256l-1.068 2.495a2.096 2.096 0 0 1-.097.208.998.998 0 0 1-.085.126 2.065 2.065 0 0 1-.158.167Z"/>
</svg>
