<svg xmlns="http://www.w3.org/2000/svg" width="24" height="24" fill="none" viewBox="0 0 24 24">
  <path stroke="#000" stroke-linecap="round" stroke-linejoin="round" stroke-width="2" d="M9.5 8.965c0-.477 0-.716.1-.849a.5.5 0 0 1 .364-.199c.166-.012.367.117.769.375l4.72 3.035c.349.224.523.336.583.478a.5.5 0 0 1 0 .39c-.06.142-.234.254-.583.478l-4.72 3.035c-.402.258-.603.387-.769.375a.5.5 0 0 1-.364-.2c-.1-.132-.1-.371-.1-.848v-6.07Z"/>
  <path stroke="#000" stroke-linecap="round" stroke-linejoin="round" stroke-width="2" d="M3 7.8c0-1.68 0-2.52.327-3.162a3 3 0 0 1 1.311-1.311C5.28 3 6.12 3 7.8 3h8.4c1.68 0 2.52 0 3.162.327a3 3 0 0 1 1.311 1.311C21 5.28 21 6.12 21 7.8v8.4c0 1.68 0 2.52-.327 3.162a3 3 0 0 1-1.311 1.311C18.72 21 17.88 21 16.2 21H7.8c-1.68 0-2.52 0-3.162-.327a3 3 0 0 1-1.311-1.311C3 18.72 3 17.88 3 16.2V7.8Z"/>
</svg>
