<svg xmlns="http://www.w3.org/2000/svg" width="24" height="24" fill="none" viewBox="0 0 24 24">
  <path stroke="#000" stroke-linecap="round" stroke-linejoin="round" stroke-width="2" d="M17.8 10c1.12 0 1.68 0 2.108-.218a2 2 0 0 0 .874-.874C21 8.48 21 7.92 21 6.8v-.6c0-1.12 0-1.68-.218-2.108a2 2 0 0 0-.874-.874C19.48 3 18.92 3 17.8 3H6.2c-1.12 0-1.68 0-2.108.218a2 2 0 0 0-.874.874C3 4.52 3 5.08 3 6.2v.6c0 1.12 0 1.68.218 2.108a2 2 0 0 0 .874.874C4.52 10 5.08 10 6.2 10h11.6Zm0 11c1.12 0 1.68 0 2.108-.218a2 2 0 0 0 .874-.874C21 19.48 21 18.92 21 17.8v-.6c0-1.12 0-1.68-.218-2.108a2 2 0 0 0-.874-.874C19.48 14 18.92 14 17.8 14H6.2c-1.12 0-1.68 0-2.108.218a2 2 0 0 0-.874.874C3 15.52 3 16.08 3 17.2v.6c0 1.12 0 1.68.218 2.108a2 2 0 0 0 .874.874C4.52 21 5.08 21 6.2 21h11.6Z"/>
</svg>
