<svg xmlns="http://www.w3.org/2000/svg" width="24" height="24" fill="none" viewBox="0 0 24 24">
  <path stroke="#000" stroke-linecap="round" stroke-linejoin="round" stroke-width="2" d="M2 2h1.306c.246 0 .37 0 .468.045a.5.5 0 0 1 .213.185c.059.092.076.213.111.457L4.571 6m0 0 1.052 7.731c.134.982.2 1.472.435 1.841a2 2 0 0 0 .853.745c.398.183.893.183 1.883.183h8.558c.942 0 1.414 0 1.799-.17a2 2 0 0 0 .841-.696c.239-.346.327-.81.503-1.735l1.324-6.95c.062-.325.093-.488.048-.615a.5.5 0 0 0-.22-.266C21.532 6 21.366 6 21.034 6H4.571ZM10 21a1 1 0 1 1-2 0 1 1 0 0 1 2 0Zm8 0a1 1 0 1 1-2 0 1 1 0 0 1 2 0Z"/>
</svg>
