<svg xmlns="http://www.w3.org/2000/svg" width="24" height="24" fill="none" viewBox="0 0 24 24">
  <path stroke="#000" stroke-linecap="round" stroke-linejoin="round" stroke-width="2" d="M6.5 17h10.83c.95 0 1.424 0 1.811-.172a2 2 0 0 0 .844-.703c.238-.35.323-.818.493-1.753l1.35-7.429c.06-.324.089-.486.043-.612a.5.5 0 0 0-.22-.264C21.536 6 21.372 6 21.042 6H5.001M2 2h1.316c.243 0 .364 0 .463.044a.5.5 0 0 1 .212.182c.059.09.078.21.116.45l2.786 17.649c.038.24.057.36.116.45a.5.5 0 0 0 .212.18c.099.045.22.045.463.045H19"/>
</svg>
