<svg xmlns="http://www.w3.org/2000/svg" width="24" height="24" fill="none" viewBox="0 0 24 24">
  <path stroke="#000" stroke-linecap="round" stroke-linejoin="round" stroke-width="2" d="M22 12c0 5.523-4.477 10-10 10S2 17.523 2 12m20 0c0-5.523-4.477-10-10-10m10 10h-2.5M2 12C2 6.477 6.477 2 12 2M2 12h2.5M12 2v2.5m7.078.5L13.5 10.5m5.578 8.578-.203-.203c-.692-.692-1.038-1.038-1.442-1.286a3.999 3.999 0 0 0-1.156-.479c-.46-.11-.95-.11-1.928-.11H9.651c-.978 0-1.468 0-1.928.11a4 4 0 0 0-1.156.48c-.404.247-.75.593-1.442 1.285l-.203.203M4.922 5l1.736 1.736M14 12a2 2 0 1 1-4 0 2 2 0 0 1 4 0Z"/>
</svg>
