<svg xmlns="http://www.w3.org/2000/svg" width="24" height="24" fill="none" viewBox="0 0 24 24">
  <path stroke="#000" stroke-linecap="round" stroke-linejoin="round" stroke-width="2" d="M3 7.8c0-1.68 0-2.52.327-3.162a3 3 0 0 1 1.311-1.311C5.28 3 6.12 3 7.8 3h8.4c1.68 0 2.52 0 3.162.327a3 3 0 0 1 1.311 1.311C21 5.28 21 6.12 21 7.8v8.4c0 1.68 0 2.52-.327 3.162a3 3 0 0 1-1.311 1.311C18.72 21 17.88 21 16.2 21H7.8c-1.68 0-2.52 0-3.162-.327a3 3 0 0 1-1.311-1.311C3 18.72 3 17.88 3 16.2V7.8Z"/>
  <path stroke="#000" stroke-linecap="round" stroke-linejoin="round" stroke-width="2" d="M8 9.6c0-.56 0-.84.109-1.054a1 1 0 0 1 .437-.437C8.76 8 9.04 8 9.6 8h4.8c.56 0 .84 0 1.054.109a1 1 0 0 1 .437.437C16 8.76 16 9.04 16 9.6v4.8c0 .56 0 .84-.109 1.054a1 1 0 0 1-.437.437C15.24 16 14.96 16 14.4 16H9.6c-.56 0-.84 0-1.054-.109a1 1 0 0 1-.437-.437C8 15.24 8 14.96 8 14.4V9.6Z"/>
</svg>
