<svg xmlns="http://www.w3.org/2000/svg" width="24" height="24" fill="none" viewBox="0 0 24 24">
  <path stroke="#000" stroke-linecap="round" stroke-linejoin="round" stroke-width="2" d="M15 2v1.4c0 .56 0 .84-.109 1.054a1 1 0 0 1-.437.437C14.24 5 13.96 5 13.4 5h-2.8c-.56 0-.84 0-1.054-.109a1 1 0 0 1-.437-.437C9 4.24 9 3.96 9 3.4V2M7.2 22h9.6c1.12 0 1.68 0 2.108-.218a2 2 0 0 0 .874-.874C20 20.48 20 19.92 20 18.8V5.2c0-1.12 0-1.68-.218-2.108a2 2 0 0 0-.874-.874C18.48 2 17.92 2 16.8 2H7.2c-1.12 0-1.68 0-2.108.218a2 2 0 0 0-.874.874C4 3.52 4 4.08 4 5.2v13.6c0 1.12 0 1.68.218 2.108a2 2 0 0 0 .874.874C5.52 22 6.08 22 7.2 22Z"/>
</svg>
