<svg xmlns="http://www.w3.org/2000/svg" width="24" height="24" fill="none" viewBox="0 0 24 24">
  <path stroke="#000" stroke-linecap="round" stroke-linejoin="round" stroke-width="2" d="m21 11-7.594-7.594c-.519-.519-.778-.778-1.081-.964a3.001 3.001 0 0 0-.867-.36C11.112 2 10.745 2 10.012 2H6M3 8.7v1.975c0 .489 0 .733.055.963.05.204.13.4.24.579.123.201.296.374.642.72l7.8 7.8c.792.792 1.188 1.188 1.645 1.337a2 2 0 0 0 1.236 0c.457-.149.853-.545 1.645-1.337l2.474-2.474c.792-.792 1.188-1.188 1.337-1.645a2 2 0 0 0 0-1.236c-.149-.457-.545-.853-1.337-1.645l-7.3-7.3c-.346-.346-.519-.519-.72-.642a2.001 2.001 0 0 0-.579-.24c-.23-.055-.474-.055-.963-.055H6.2c-1.12 0-1.68 0-2.108.218a2 2 0 0 0-.874.874C3 7.02 3 7.58 3 8.7Z"/>
</svg>
