<svg xmlns="http://www.w3.org/2000/svg" width="24" height="24" fill="none" viewBox="0 0 24 24">
  <path stroke="#000" stroke-linecap="round" stroke-linejoin="round" stroke-width="2" d="M18 9V3.6c0-.56 0-.84-.109-1.054a1 1 0 0 0-.437-.437C17.24 2 16.96 2 16.4 2H7.6c-.56 0-.84 0-1.054.109a1 1 0 0 0-.437.437C6 2.76 6 3.04 6 3.6V9m4-3V5m4 1V5M8.8 22h6.4c1.68 0 2.52 0 3.162-.327a3 3 0 0 0 1.311-1.311C20 19.72 20 18.88 20 17.2v-5c0-1.12 0-1.68-.218-2.108a2 2 0 0 0-.874-.874C18.48 9 17.92 9 16.8 9H7.2c-1.12 0-1.68 0-2.108.218a2 2 0 0 0-.874.874C4 10.52 4 11.08 4 12.2v5c0 1.68 0 2.52.327 3.162a3 3 0 0 0 1.311 1.311C6.28 22 7.12 22 8.8 22Z"/>
</svg>
