<?xml version="1.0" encoding="UTF-8" standalone="no"?>
<svg
   xmlns:dc="http://purl.org/dc/elements/1.1/"
   xmlns:cc="http://creativecommons.org/ns#"
   xmlns:rdf="http://www.w3.org/1999/02/22-rdf-syntax-ns#"
   xmlns:svg="http://www.w3.org/2000/svg"
   xmlns="http://www.w3.org/2000/svg"
   id="svg883"
   version="1.1"
   viewBox="0 0 113.51116 146.56673"
   height="146.56673mm"
   width="113.51116mm">
  <defs
     id="defs877" />
  <metadata
     id="metadata880">
    <rdf:RDF>
      <cc:Work
         rdf:about="">
        <dc:format>image/svg+xml</dc:format>
        <dc:type
           rdf:resource="http://purl.org/dc/dcmitype/StillImage" />
        <dc:title></dc:title>
      </cc:Work>
    </rdf:RDF>
  </metadata>
  <g
     transform="translate(-5.9981447,-4.7687163)"
     id="layer1">
    <g
       style="fill:#000000;fill-opacity:1;stroke-width:0.253941"
       transform="matrix(1.0419087,0,0,1.0419087,-3.3811197,-282.69663)"
       id="g52">
      <path
         style="fill:#000000;fill-opacity:1;stroke-width:0.253941"
         id="path48"
         d="m 33.316,321.116 c -0.618,4.831 1.914,8.774 1.914,8.774 0,0 -7.053,-4.205 -7.496,-8.631 -0.443,-4.426 1.771,-12.17 1.771,-12.17 0,0 4.53,6.417 3.811,12.027 z" />
      <path
         style="fill:#000000;fill-opacity:1;stroke-width:0.253941"
         id="path50"
         d="m 117.925,371.115 c -0.366,-2.152 -1.283,-3.669 -2.242,-5.16 -0.257,-0.366 -0.469,-0.712 -0.906,-1.191 -0.375,-0.402 -0.719,-0.705 -1.064,-0.998 -0.687,-0.577 -1.357,-1.068 -2.03,-1.553 -2.681,-1.915 -5.384,-3.592 -8.058,-5.318 -2.666,-1.728 -5.314,-3.45 -7.87,-5.248 -2.522,-1.805 -5.039,-3.711 -6.94,-5.837 -0.46,-0.514 -0.891,-1.103 -1.153,-1.555 l -1.076,-2.091 c -0.74,-1.433 -1.496,-2.867 -2.304,-4.278 -1.612,-2.831 -3.348,-5.583 -5.354,-8.242 l -1.475,-1.91 c -0.526,-0.668 -1.071,-1.306 -1.636,-1.924 -1.139,-1.239 -2.725,-2.726 -2.725,-2.726 0,0 1.332,-4.34 1.872,-6.563 0.624,-2.465 1.423,-4.979 2.164,-7.511 1.495,-5.055 2.905,-10.256 3.26,-15.647 0.122,-2.686 0.33,-5.396 -0.116,-8.141 -0.427,-2.685 -1.455,-5.626 -3.916,-7.521 -1.205,-0.93 -2.675,-1.486 -4.132,-1.685 -1.46,-0.206 -2.91,-0.114 -4.291,0.137 -2.772,0.505 -5.313,1.574 -7.724,2.797 l -0.217,0.109 -0.17,0.204 c -0.167,0.202 -0.282,0.354 -0.431,0.598 -0.07,0.125 -0.146,0.253 -0.228,0.493 -0.036,0.148 -0.089,0.269 -0.075,0.6 -0.016,0.301 0.268,0.916 0.704,1.129 0.78,0.342 0.946,0.149 1.153,0.158 0.192,-0.038 0.312,-0.08 0.437,-0.121 0.219,-0.076 0.394,-0.156 0.567,-0.234 l 0.141,-0.069 c 0.213,-0.105 0.782,-0.312 1.219,-0.433 0.471,-0.132 0.949,-0.251 1.43,-0.342 0.961,-0.18 1.933,-0.266 2.847,-0.199 1.868,0.119 3.282,0.92 3.882,2.436 0.633,1.526 0.59,3.563 0.286,5.526 -0.296,1.987 -0.905,3.946 -1.536,6.022 -1.245,4.084 -2.577,8.117 -4.157,12.041 -1.572,3.925 -4.675,10.494 -4.675,10.494 -3.131,-0.543 -6.357,-0.395 -9.403,0.304 -1.745,0.396 -3.44,0.958 -5.074,1.654 -1.052,0.458 -2.931,1.504 -2.932,1.442 -0.004,-0.163 -0.009,-0.324 -0.013,-0.484 -0.046,-2.179 -0.799,-4.396 -1.976,-6.198 -1.174,-1.823 -2.658,-3.23 -4.013,-4.552 l -3.933,-3.854 c -2.508,-2.461 -7.313,-12.505 -7.313,-12.505 l -1.226,3.784 c -1.354,4.18 -2.584,8.357 -2.964,12.682 -0.403,4.308 0.147,8.723 1.757,12.776 0.813,2.019 1.853,3.945 3.029,5.745 0.577,0.908 1.217,1.766 1.802,2.615 0.291,0.423 0.574,0.843 0.813,1.246 0.231,0.388 0.418,0.818 0.421,0.979 l -6.447,9.767 -6.896,10.563 -3.441,5.288 c -1.245,1.874 -2.18,3.856 -2.947,5.914 -1.526,4.12 -1.958,8.638 -1.385,12.976 0.592,4.348 2.385,8.46 4.964,11.836 l 0.537,-0.341 c -2.034,-3.65 -3.238,-7.658 -3.432,-11.695 -0.247,-4.047 0.62,-8.046 1.938,-11.831 0.673,-1.888 1.486,-3.766 2.554,-5.407 l 3.448,-5.28 6.882,-10.576 2.703,-4.188 c -2.694,9.897 -5.296,28.555 3.822,50.548 10.266,24.765 26.744,26.004 26.744,26.004 -1.06,-6.306 0.227,-12.898 3.633,-18.159 0.834,-1.323 1.787,-2.564 2.816,-3.732 0.516,-0.584 1.055,-1.145 1.615,-1.684 0,0 0.88,-0.828 1.5,-0.827 0.159,-0.006 0.699,0.114 1.105,0.144 0.426,0.04 0.847,0.062 1.262,0.069 0.831,0.016 1.651,-0.011 2.464,-0.058 1.627,-0.097 3.231,-0.273 4.83,-0.475 3.188,-0.402 6.375,-0.961 9.479,-1.436 2.979,-0.388 6.216,-0.361 9.391,-0.447 1.599,-0.034 3.2,-0.065 4.83,-0.146 0.837,-0.05 1.601,-0.085 2.571,-0.23 0.915,-0.144 1.928,-0.503 2.742,-0.962 1.663,-0.943 2.888,-2.149 4.06,-3.273 l 1.707,-1.676 c 0.26,-0.253 0.623,-0.602 0.942,-0.978 0.313,-0.371 0.599,-0.764 0.854,-1.165 1.023,-1.622 1.555,-3.388 1.917,-5.045 l 0.474,-2.341 0.105,-0.413 0.095,-0.312 c 0.052,-0.17 0.208,-1.77 0.128,-2.313 z M 61.603,281.128 c 10e-4,-0.002 0.002,-0.006 0.004,-0.008 -0.018,0.043 -0.018,0.03 -0.004,0.008 z m 51.855,94.627 c -0.264,1.464 -0.648,2.81 -1.297,3.919 -0.161,0.276 -0.339,0.538 -0.531,0.783 -0.188,0.239 -0.392,0.453 -0.694,0.768 l -1.65,1.736 c -1.078,1.123 -2.146,2.19 -3.251,2.859 -0.568,0.335 -1.07,0.54 -1.727,0.675 -0.604,0.114 -1.434,0.197 -2.188,0.265 -1.554,0.132 -3.141,0.222 -4.73,0.312 -3.193,0.217 -6.362,0.247 -9.696,0.842 -3.179,0.642 -6.251,1.329 -9.375,1.873 -1.557,0.271 -3.117,0.517 -4.669,0.681 -0.776,0.081 -1.552,0.144 -2.316,0.165 -0.381,0.01 -0.759,0.009 -1.128,-0.01 -0.393,-0.004 -0.634,-0.091 -1.273,-0.091 -0.512,0.031 -1.021,0.128 -1.543,0.444 -0.123,0.083 -1.005,0.945 -1.005,0.945 -0.563,0.594 -1.102,1.211 -1.613,1.848 -1.028,1.271 -1.936,2.635 -2.723,4.06 -1.577,2.853 -2.644,5.977 -3.075,9.177 -0.291,2.089 -0.285,4.198 -0.072,6.28 -0.933,-5.629 -3.113,-16.942 -6.23,-21.423 -5.385,-7.743 -20.311,-10.764 -22.152,-44.91 -0.134,-2.479 1.339,-9.374 2.098,-12.787 0.003,-0.01 0,-0.017 10e-4,-0.026 0.04,-0.062 0.246,-0.567 0.236,-0.755 0.04,-0.278 0.021,-0.533 -0.016,-0.756 -0.172,-0.883 -0.522,-1.387 -0.831,-1.894 -0.32,-0.487 -0.649,-0.925 -0.974,-1.353 l -1.92,-2.479 c -1.246,-1.635 -2.38,-3.332 -3.241,-5.177 -1.794,-3.649 -2.391,-7.867 -1.752,-11.905 0.467,-3.075 2.54,-8.444 2.951,-8.563 1.577,2.326 3.479,4.219 5.218,6.11 1.21,1.323 2.412,2.62 3.312,4.075 0.893,1.458 1.384,3.087 1.549,4.592 0.176,1.515 0.09,2.881 0.061,4.281 -0.026,1.892 0.067,3.678 0.277,5.561 0.115,0.948 0.239,1.875 0.496,2.96 0.066,0.279 0.135,0.563 0.257,0.934 0.063,0.186 0.126,0.374 0.264,0.68 0.048,0.115 0.169,0.354 0.29,0.546 0.089,0.142 0.213,0.311 0.334,0.452 0.139,0.169 0.454,0.461 0.725,0.629 0.491,0.291 0.966,0.479 1.656,0.487 0.547,-0.008 0.905,-0.107 1.235,-0.254 1.284,3.079 2.442,7.15 2.667,12.164 0.552,12.302 21.021,17.358 35.893,24.64 14.87,7.285 19.119,8.803 19.119,8.803 0,0 4.783,1.925 7.709,1.653 2.834,-0.263 4.692,-1.991 5.422,-4.381 z m -60.21,-29.279 c 0,0 0.478,-0.645 6.42,-3.144 5.938,-2.502 7.31,3.749 7.31,3.749 0,0 0.918,1.9 -3.32,4.439 -4.818,2.886 -10.41,-5.044 -10.41,-5.044 z m 60.855,25.817 c -0.003,0.034 -0.007,0.062 -0.014,0.083 l -0.002,0.019 c 0.01,-0.03 -0.013,0.048 -0.016,0.057 l -0.01,0.035 -0.043,0.152 c -0.076,0.285 -0.113,0.477 -0.154,0.68 0.011,-0.181 0.039,-0.354 0.039,-0.539 -2.708,0 -16.951,-9.726 -30.393,-17.476 -3.024,-1.744 -4.869,-4.842 -6.614,-7.423 -5.695,-8.415 -11.784,-18.377 -18.681,-19.986 -3.688,-0.861 -7.555,-0.233 -9.444,-1.021 -1.933,-0.805 -3.056,-1.814 -3.834,-2.753 0.019,-0.01 2.22,-1.202 3.318,-1.684 1.45,-0.631 2.951,-1.143 4.479,-1.501 3.054,-0.725 6.223,-0.804 9.229,-0.109 l 1.315,0.305 0.552,-1.216 c 1.769,-3.901 3.589,-7.821 5.18,-11.878 1.595,-4.055 2.923,-8.192 4.147,-12.328 0.599,-2.032 1.261,-4.188 1.585,-6.455 0.3,-2.241 0.476,-4.688 -0.581,-7.158 -0.523,-1.215 -1.495,-2.357 -2.693,-3.034 -0.634,-0.368 -1.3,-0.609 -1.968,-0.77 2.015,-0.235 4.022,0.032 5.533,1.163 1.819,1.314 2.803,3.675 3.231,6.103 0.405,2.448 0.467,5.045 0.023,7.574 -0.387,2.538 -0.984,5.05 -1.686,7.532 -0.676,2.502 -1.476,4.974 -2.306,7.452 -0.829,2.484 -1.722,4.948 -2.489,7.553 -0.685,2.483 -1.537,4.948 -2.379,7.401 l -0.369,1.081 0.884,0.803 c 1.087,0.985 2.191,2.118 3.182,3.253 0.499,0.573 0.977,1.16 1.423,1.757 l 1.405,1.911 c 1.78,2.479 3.397,5.173 4.877,7.921 0.737,1.38 1.462,2.772 2.164,4.187 l 1.086,2.179 c 0.522,0.938 1.054,1.631 1.64,2.321 2.336,2.663 4.948,4.64 7.571,6.586 5.238,3.842 10.837,7.091 16.01,10.542 0.631,0.433 1.256,0.874 1.802,1.313 0.27,0.216 0.525,0.438 0.697,0.616 0.112,0.102 0.346,0.423 0.549,0.705 0.809,1.143 1.52,2.472 1.715,3.478 0.051,0.243 0.054,0.443 0.04,0.569 z" />
    </g>
  </g>
</svg>
