<?xml version="1.0" encoding="UTF-8" standalone="no"?>
<!-- Created with Inkscape (http://www.inkscape.org/) -->

<svg
   version="1.1"
   id="svg1163"
   xml:space="preserve"
   width="401.53299"
   height="518.46503"
   viewBox="0 0 401.533 518.46504"
   xmlns="http://www.w3.org/2000/svg"
   xmlns:svg="http://www.w3.org/2000/svg"><defs
     id="defs1167"><clipPath
       clipPathUnits="userSpaceOnUse"
       id="clipPath1177"><path
         d="M 0,867.401 H 867.401 V 0 H 0 Z"
         id="path1175" /></clipPath></defs><g
     id="g1169"
     transform="matrix(1.3333333,0,0,-1.3333333,0,1156.5347)"><g
       id="g1207"
       transform="translate(157.85743,555.84874)"><path
         d="M 0,0 C 0.633,-1.623 1.241,-3.25 1.812,-4.889 1.245,-3.257 0.643,-1.626 0,0"
         style="fill:#cfcaaa;fill-opacity:1;fill-rule:nonzero;stroke:none"
         id="path1209" /></g><g
       id="g1211"
       transform="translate(161.36183,545.74424)"><path
         d="m 0,0 c -0.52,1.735 -1.082,3.46 -1.677,5.172 -0.007,0.013 -0.014,0.027 -0.015,0.044 -0.629,1.807 -1.251,3.642 -2.017,5.398 -1.301,3.327 -2.778,6.581 -4.341,9.792 -0.011,0.021 -0.019,0.051 -0.036,0.068 -7.905,16.233 -19.274,30.826 -32.989,42.555 -4.217,3.606 -8.661,6.943 -13.292,9.999 3.43,-2.261 6.759,-4.674 9.965,-7.242 l 0.119,0.144 c -10.815,8.525 -20.273,18.74 -27.961,30.165 -8.54,12.691 -14.892,26.816 -18.704,41.63 -2.215,8.609 -3.557,17.44 -4.006,26.317 -13.306,-14.496 -23.229,-31.915 -29.093,-50.687 -1.85,-5.925 -3.28,-11.981 -4.276,-18.107 -0.016,0 -0.031,0 -0.047,0 -2.692,-16.464 -2.272,-33.411 1.253,-49.718 3.519,-16.283 10.124,-31.869 19.313,-45.76 7.881,-11.912 17.672,-22.536 28.917,-31.343 11.016,-8.627 23.392,-15.495 36.532,-20.301 13.089,-4.789 26.919,-7.528 40.846,-8.077 1.703,-0.067 3.407,-0.101 5.111,-0.103 0.106,-0.004 0.216,0.003 0.323,0 C 7.144,-40.352 6,-19.812 0,0 -0.261,0.872 6,-19.812 0,0"
         style="fill:#000000;fill-opacity:1;fill-rule:nonzero;stroke:none"
         id="path1213" /></g><g
       id="g1215"
       transform="translate(92.367433,785.73774)"><path
         d="m 0,0 c -1.122,1.809 -2.3,3.548 -3.543,5.238 -4.4,-6.561 -8.179,-13.486 -11.317,-20.672 -8.287,-18.93 -12.152,-39.667 -11.099,-60.517 2.836,3.103 5.843,6.087 9.005,8.931 -2.594,13.762 -1.566,27.806 2.701,40.815 C -11.166,-16.751 -6.358,-7.844 0,0"
         style="fill:#000000;fill-opacity:1;fill-rule:nonzero;stroke:none"
         id="path1217" /></g><g
       id="g1219"
       transform="translate(95.877933,704.95224)"><path
         d="M 0,0 C 9.923,19.557 11.672,42.76 4.646,63.546 2.611,69.567 -0.106,75.413 -3.51,80.786 -15.112,66.473 -21.643,48.315 -21.87,29.895 c -0.066,-5.404 0.404,-10.814 1.404,-16.125 -3.16,-2.846 -6.163,-5.829 -9.004,-8.936 0.56,-11.073 2.508,-22.175 5.93,-33.049 0,0 10e-4,0.001 10e-4,0.001 6.274,-20.19 17.478,-38.851 32.301,-53.921 3.907,-3.972 8.065,-7.697 12.441,-11.146 l -0.123,-0.145 c 12.508,-10.007 23.401,-22.441 31.9,-37.068 4.825,11.145 12.133,21.169 21.285,29.154 9.429,8.226 20.735,14.255 32.817,17.509 7.348,1.979 15.017,2.959 22.629,2.784 3.675,0.237 7.281,1.155 10.637,2.666"
         style="fill:#d6d2c8;fill-opacity:1;fill-rule:nonzero;stroke:none"
         id="path1221" /></g><g
       id="g1223"
       transform="translate(236.22573,626.57104)"><path
         d="m 0,0 c 7.028,3.169 12.318,8.683 15.328,15.234 0.552,1.207 1.029,2.442 1.418,3.71 l 0.003,0.01 c -2.311,-0.716 -6.06,-1.826 -7.973,-2.326 -16.018,-4.212 -32.421,-5.305 -48.396,-3.537 -2.25,0.252 -4.493,0.558 -6.726,0.924 -0.055,0.005 -0.107,0.02 -0.166,0.032 -0.774,0.123 -1.551,0.253 -2.329,0.401 -0.028,0.002 -0.056,0.005 -0.076,0.011 -0.678,0.123 -1.359,0.252 -2.034,0.386 -0.021,0.006 -0.038,0.005 -0.059,0.011 -0.85,0.169 -1.709,0.352 -2.56,0.538 -0.942,0.207 -1.877,0.418 -2.809,0.639 -0.051,0.016 -0.104,0.031 -0.152,0.04 -0.731,0.173 -1.462,0.362 -2.194,0.552 -0.142,0.037 -0.284,0.074 -0.415,0.107 -0.642,0.169 -1.276,0.341 -1.904,0.517 -0.916,0.257 -1.828,0.523 -2.734,0.793 -0.68,0.209 -1.354,0.421 -2.027,0.634 -0.341,0.113 -0.678,0.219 -1.018,0.332 -1.414,0.467 -2.822,0.955 -4.223,1.464 -0.066,0.025 -0.136,0.057 -0.209,0.079 -0.73,0.269 -1.464,0.545 -2.185,0.828 -0.564,0.219 -1.124,0.431 -1.678,0.665 -0.473,0.181 -0.947,0.379 -1.41,0.574 -0.126,0.054 -0.248,0.102 -0.373,0.156 -0.463,0.195 -0.917,0.387 -1.366,0.589 -0.115,0.051 -0.227,0.096 -0.342,0.147 -0.645,0.272 -1.279,0.558 -1.907,0.847 -0.774,0.35 -1.546,0.711 -2.314,1.082 -0.635,0.303 -1.274,0.612 -1.899,0.929 -0.873,0.437 -1.746,0.873 -2.607,1.334 -0.328,0.171 -0.657,0.343 -0.982,0.525 -0.315,0.162 -0.623,0.328 -0.934,0.5 -0.406,0.217 -0.808,0.445 -1.211,0.673 -0.035,0.016 -0.063,0.036 -0.091,0.055 -0.682,0.374 -1.351,0.755 -2.02,1.153 -0.262,0.146 -0.522,0.303 -0.781,0.46 -0.256,0.15 -0.515,0.307 -0.771,0.456 -0.312,0.19 -0.624,0.379 -0.929,0.572 -0.091,0.056 -0.172,0.108 -0.263,0.164 -0.025,0.013 -0.039,0.023 -0.063,0.036 -0.014,0.01 -0.039,0.023 -0.053,0.032 -0.221,0.134 -0.452,0.271 -0.669,0.416 -0.221,0.134 -0.446,0.274 -0.663,0.419 -1.07,0.67 -2.127,1.365 -3.174,2.075 -0.039,0.022 -0.07,0.049 -0.109,0.072 -0.042,0.029 -0.081,0.052 -0.123,0.082 -0.348,0.24 -0.706,0.483 -1.057,0.729 -0.106,0.066 -0.208,0.141 -0.306,0.21 -0.028,0.02 -0.057,0.04 -0.085,0.06 -0.014,0.01 -0.024,0.013 -0.031,0.026 -0.391,0.27 -0.784,0.546 -1.168,0.819 -0.527,0.379 -1.055,0.757 -1.58,1.146 -0.003,0.007 -0.014,0.01 -0.017,0.017 -0.187,0.135 -0.373,0.27 -0.553,0.408 -0.18,0.139 -0.359,0.278 -0.546,0.412 -0.028,0.02 -0.053,0.033 -0.074,0.057 -0.126,0.088 -0.246,0.181 -0.366,0.273 -0.014,0.01 -0.018,0.017 -0.032,0.027 -0.412,0.31 -0.821,0.63 -1.226,0.944 -0.106,0.082 -0.212,0.165 -0.317,0.248 -0.004,0.006 -0.015,0.009 -0.018,0.016 -0.468,0.35 -0.92,0.717 -1.372,1.084 -0.631,0.506 -1.245,1.012 -1.867,1.532 -1.225,1.023 -2.434,2.064 -3.627,3.14 -0.268,0.239 -0.53,0.482 -0.793,0.724 -0.527,0.475 -1.044,0.964 -1.562,1.453 -0.077,0.063 -0.141,0.133 -0.212,0.199 -0.567,0.532 -1.127,1.068 -1.678,1.617 -0.329,0.32 -0.652,0.643 -0.976,0.966 -0.07,0.067 -0.138,0.144 -0.209,0.21 -0.302,0.3 -0.597,0.603 -0.895,0.913 -0.153,0.154 -0.299,0.311 -0.455,0.471 -0.516,0.533 -1.031,1.067 -1.537,1.614 -0.348,0.371 -0.701,0.748 -1.036,1.126 -0.27,0.29 -0.534,0.584 -0.798,0.879 -0.396,0.441 -0.784,0.886 -1.173,1.33 -0.321,0.368 -0.646,0.743 -0.964,1.121 -0.678,0.786 -1.35,1.594 -2.008,2.408 -0.533,0.663 -1.07,1.334 -1.604,2.015 -0.219,0.275 -0.43,0.553 -0.649,0.828 -0.309,0.41 -0.624,0.816 -0.926,1.229 -1.439,1.92 -2.835,3.89 -4.178,5.906 -0.184,0.277 -0.369,0.553 -0.553,0.828 -0.238,0.361 -0.466,0.718 -0.697,1.082 -0.525,0.808 -1.031,1.617 -1.535,2.436 -0.258,0.411 -0.508,0.826 -0.748,1.238 -0.05,0.077 -0.091,0.152 -0.141,0.229 -0.207,0.334 -0.404,0.682 -0.603,1.019"
         style="fill:#d5d5cc;fill-opacity:1;fill-rule:nonzero;stroke:none"
         id="path1225" /></g><g
       id="g1227"
       transform="translate(162.76163,698.96034)"><path
         d="m 0,0 c 1.772,-3.281 3.889,-6.383 6.167,-9.329 1.101,-1.423 2.217,-2.834 3.379,-4.207 0.62,-0.733 1.252,-1.455 1.9,-2.163 0.557,-0.608 1.142,-1.424 1.818,-1.898 4.347,-4.38 9.125,-8.261 14.351,-11.544 0.01,-0.003 0.014,-0.009 0.024,-0.013 0.39,-0.252 0.786,-0.5 1.186,-0.739 l 0.007,0.004 c 12,-7.261 25.859,-11.422 39.873,-11.992 4.235,-0.173 8.795,-0.26 12.973,0.556 0.01,-0.003 0.024,0.004 0.041,0.005 1.54,0.317 6.654,1.236 9.443,2.067 -0.311,1.788 -0.814,3.844 -1.461,5.608 -5.09,0.972 -10.091,2.338 -15.056,3.799 C 59.445,-25.037 45.1,-17.54 32.533,-7.725 20.21,1.902 9.628,13.715 1.378,26.998 c -2.462,3.965 -4.72,8.058 -6.759,12.256 -0.993,2.045 -1.934,4.116 -2.821,6.21 -0.452,1.065 -1.099,2.214 -1.256,3.357 -0.167,1.211 -0.176,2.47 -0.215,3.691 -2.112,-14.004 -0.52,-28.531 4.587,-41.741 C -3.631,7.01 -1.767,3.519 0.039,-0.072 0.005,-0.005 -0.037,0.06 -0.072,0.127 -0.046,0.085 -0.022,0.043 0,0 0.268,-0.496 -0.23,0.409 0,0"
         style="fill:#d6d2c8;fill-opacity:1;fill-rule:nonzero;stroke:none"
         id="path1229" /></g><g
       id="g1231"
       transform="translate(104.82933,856.12374)"><path
         d="M 0,0 C 1.149,-0.519 2.278,-1.08 3.387,-1.683 2.279,-1.08 1.149,-0.519 0,0 m 149.096,-196.279 c -6.071,-1.972 -12.435,-2.783 -18.797,-2.822 -7.743,-0.048 -15.547,0.94 -22.993,3.091 -4.248,1.228 -8.403,2.734 -12.415,4.599 10e-4,0.001 0.002,0.002 0.003,0.003 -11.632,5.407 -21.936,13.543 -29.87,23.624 -8.88,11.283 -14.758,24.873 -16.829,39.084 -1.161,7.966 -1.135,16.097 0.062,24.057 v 0 c 4.436,17.895 5.228,36.737 2.195,54.927 -0.863,5.174 -2.09,10.249 -3.53,15.29 -0.008,0.013 -0.012,0.037 -0.012,0.054 -1.039,3.378 -1.986,6.798 -3.441,10.031 1.121,-2.885 2.133,-5.81 3.049,-8.767 -0.916,2.957 -1.928,5.882 -3.049,8.767 -0.019,0.068 -0.045,0.132 -0.074,0.185 C 37.794,-11.071 27.311,-1.498 14.935,3.272 14.904,3.281 14.88,3.294 14.856,3.307 L 14.849,3.303 c 0,0 0,0 -10e-4,10e-4 -0.965,0.399 -1.952,0.75 -2.956,1.039 0.497,-0.16 0.985,-0.347 1.478,-0.52 -0.493,0.173 -0.981,0.36 -1.478,0.52 C 8.752,5.548 4.904,5.747 1.581,5.569 -2.04,5.375 -5.607,4.521 -8.932,3.078 c -4.661,-2.017 -7.967,-4.748 -10.964,-8.452 9.217,4.981 21.015,4.223 29.844,-1.19 2.535,-1.554 4.841,-3.48 6.819,-5.7 l 0.037,0.028 c -2.988,3.304 -6.415,6.209 -10.16,8.622 11.042,-7.113 18.968,-18.431 21.964,-31.213 -5.174,10.304 -13.68,18.633 -24.149,23.502 -2.85,1.326 -5.821,2.391 -8.864,3.177 0,0 0.016,-0.004 0.022,-0.015 -0.189,0.057 -0.378,0.113 -0.577,0.164 -0.032,0.009 -0.079,0.023 -0.12,0.027 -3.914,0.889 -7.799,1.268 -11.8,0.744 -3.873,-0.508 -8.065,-1.71 -11.365,-3.865 -4.444,-2.547 -8.026,-6.053 -10.608,-10.115 8.807,6.286 20.79,7.158 30.549,2.645 2.713,-1.254 5.243,-2.904 7.482,-4.884 l 0.025,0.026 c 8.005,-7.007 13.698,-16.498 16.169,-26.842 0.02,0.037 0.035,0.058 0.038,0.1 -0.124,0.458 -0.264,0.912 -0.394,1.369 0.13,-0.457 0.27,-0.911 0.394,-1.369 v 0 c 4.11,-15.037 5.496,-30.738 4.203,-46.267 -0.376,-4.51 -0.987,-9 -1.825,-13.448 l -0.01,-0.005 c -0.355,-0.126 -0.714,-0.241 -1.069,-0.367 -1.377,-0.303 -2.767,-0.97 -4.083,-1.471 -1.454,-0.554 -2.898,-1.133 -4.331,-1.738 -2.837,-1.198 -5.632,-2.495 -8.379,-3.886 -0.514,-11.714 -3.519,-23.38 -8.868,-33.827 5.944,-10.18 13.244,-19.599 21.682,-27.836 l 0.005,-0.01 c 19.943,-19.59 45.357,-32.159 72.313,-36.517 l 0.003,-0.003 c 16.299,-2.649 33.07,-2.257 49.218,1.205 4.174,0.895 8.198,2.208 12.324,3.262 0.535,0.158 1.059,0.319 1.549,0.462 1.42,4.548 1.796,9.458 0.954,14.33 -1.185,-0.385 0.842,-4.872 0,0"
         style="fill:#000000;fill-opacity:1;fill-rule:nonzero;stroke:none"
         id="path1233" /></g><g
       id="g1235"
       transform="translate(116.71933,702.11784)"><path
         d="M 0,0 C 2.738,-4.811 7.809,-8.154 13.749,-8.427 21.025,-8.755 27.417,-4.362 29.961,2.041 27.223,6.852 22.16,10.195 16.22,10.461 8.952,10.789 2.56,6.396 0,0"
         style="fill:#d6d2c8;fill-opacity:1;fill-rule:nonzero;stroke:none"
         id="path1237" /></g><rect
       style="fill:none;stroke:none;stroke-width:2.65305;stroke-opacity:1"
       id="rect1459"
       width="301.14978"
       height="388.84879"
       x="-2.8421709e-14"
       y="-867.40106"
       transform="scale(1,-1)" /></g></svg>
