<svg width="92" height="64" viewBox="0 0 92 64" xmlns="http://www.w3.org/2000/svg">
    <g fill-rule="nonzero" fill="none">
        <path d="M88.06 0H3.23A3.23 3.23 0 0 0 0 3.23V60a3.24 3.24 0 0 0 3.23 3.24h84.83A3.24 3.24 0 0 0 91.29 60V3.23A3.23 3.23 0 0 0 88.06 0z" fill="#636E72"/>
        <path d="M88.06 61.49H3.23A1.45 1.45 0 0 1 1.78 60V10.82h87.73V60a1.453 1.453 0 0 1-1.45 1.49z" fill="#EBF0F2"/>
        <path d="M3.23 1.78h84.83a1.45 1.45 0 0 1 1.45 1.45V9H1.78V3.23c0-.8.65-1.45 1.45-1.45z" fill="#DFE6E9"/>
        <path d="M86.22 7a.89.89 0 0 0 .89-.89V4.74a.89.89 0 0 0-1.78 0v1.34a.89.89 0 0 0 .89.92zM82.43 7a.89.89 0 0 0 .89-.89V4.74a.89.89 0 0 0-1.78 0v1.34a.89.89 0 0 0 .89.92zM78.64 7a.89.89 0 0 0 .89-.89V4.74a.89.89 0 0 0-1.78 0v1.34a.89.89 0 0 0 .89.92zM5.07 6.3h39.69a.89.89 0 0 0 0-1.78H5.07a.89.89 0 1 0 0 1.78z" fill="#B2BEC3"/>
        <path d="m54.81 26-.07-.09a12.12 12.12 0 0 0-18.05-.08.45.45 0 0 0-.12.06.93.93 0 0 0-.22.31 12.15 12.15 0 0 0 0 15.66.93.93 0 0 0 .22.31l.12.07a12.14 12.14 0 0 0 18.05-.08l.07-.09a12.13 12.13 0 0 0 0-16V26z" fill="#636E72"/>
        <path d="M54.07 40.12A12 12 0 0 0 51 38c.787-2.56.787-5.3 0-7.86A12.21 12.21 0 0 0 54.07 28a10.34 10.34 0 0 1 0 12.17v-.05zM41.52 34a12.06 12.06 0 0 1 .48-3.23 12 12 0 0 0 7.32 0 12.06 12.06 0 0 1 .46 3.23 11.68 11.68 0 0 1-.48 3.26 12 12 0 0 0-7.31 0 12 12 0 0 1-.47-3.26zM45.65 24.07a20.52 20.52 0 0 1 3.07 5 10.06 10.06 0 0 1-6.14 0 20.41 20.41 0 0 1 3.07-5zM40.92 28.4a10.19 10.19 0 0 1-2.53-1.81 10.3 10.3 0 0 1 5.17-2.75 21 21 0 0 0-2.64 4.56zM47.74 23.84a10.3 10.3 0 0 1 5.17 2.75 10.65 10.65 0 0 1-2.53 1.81 21.39 21.39 0 0 0-2.64-4.56zM45.65 38.51c1.038 0 2.07.158 3.06.47a20.44 20.44 0 0 1-3.06 5 19.92 19.92 0 0 1-3.07-5 10.2 10.2 0 0 1 3.07-.47zM43.56 44.23a10.39 10.39 0 0 1-5.17-2.76 10.45 10.45 0 0 1 2.53-1.81 21.32 21.32 0 0 0 2.64 4.57zM50.38 39.66a10.65 10.65 0 0 1 2.53 1.81 10.39 10.39 0 0 1-5.17 2.76 21.75 21.75 0 0 0 2.64-4.57zM37.22 28a12.56 12.56 0 0 0 3.11 2.16 13.14 13.14 0 0 0 0 7.85 12.05 12.05 0 0 0-3.11 2.16 10.34 10.34 0 0 1 0-12.17z" fill="#B2BEC3"/>
    </g>
</svg>
