<svg width="95" height="79" viewBox="0 0 95 79" xmlns="http://www.w3.org/2000/svg">
    <g transform="translate(1 1)" fill="none" fill-rule="evenodd">
        <path d="M1.7 0h89.65a1.7 1.7 0 0 1 1.7 1.7v45H1.7A1.71 1.71 0 0 1 0 44.99V1.7A1.7 1.7 0 0 1 1.7 0z" fill="#EBF0F2" fill-rule="nonzero"/>
        <path fill="#DFE6E9" fill-rule="nonzero" d="M93.06 46.74H0v14.25l.62 1.71h33.92l-4.03 14.41h32.27L58.74 62.7h33.22z"/>
        <rect stroke="#636E72" stroke-width="1.75" stroke-linecap="round" stroke-linejoin="round" width="93.06" height="62.7" rx="1.71"/>
        <path stroke="#636E72" stroke-width="1.75" stroke-linecap="round" stroke-linejoin="round" d="M0 46.74h93.05M34.54 62.7l-4.03 14.41M58.74 62.7l4.04 14.41M23.45 77.11H69.6"/>
        <path d="m32.95 26.28 2.24.22c.25.916.617 1.796 1.09 2.62l-1.43 1.7a1 1 0 0 0 .07 1.3l2.79 2.79a1 1 0 0 0 1.33.06l1.72-1.43c.819.47 1.692.84 2.6 1.1l.22 2.26a1 1 0 0 0 1 .92h4a1 1 0 0 0 1-.92l.21-2.25a10.88 10.88 0 0 0 2.61-1.1l1.72 1.42a1 1 0 0 0 1.32-.06l2.73-2.79a1 1 0 0 0 .06-1.33l-1.42-1.67a12.16 12.16 0 0 0 1.1-2.6l2.21-.24a1 1 0 0 0 .87-1v-3.93a1 1 0 0 0-.87-1l-2.26-.23a11.26 11.26 0 0 0-1.09-2.61l1.43-1.71a1 1 0 0 0-.08-1.3l-2.76-2.79a1 1 0 0 0-1.33-.06l-1.71 1.47a11.67 11.67 0 0 0-2.6-1.1l-.21-2.25a1 1 0 0 0-1-.89h-4a1 1 0 0 0-1 .89l-.22 2.24a12 12 0 0 0-2.54 1.11l-1.71-1.42a1 1 0 0 0-1.33.06l-2.79 2.74a1 1 0 0 0-.07 1.33l1.43 1.72a11.67 11.67 0 0 0-1.1 2.6l-2.23.21a1 1 0 0 0-.87 1v3.95a1 1 0 0 0 .87.97zm1.11-4 2-.19a1 1 0 0 0 .86-.77 10 10 0 0 1 1.38-3.28 1 1 0 0 0-.07-1.17l-1.3-1.57 1.52-1.52 1.57 1.3a1 1 0 0 0 1.17.07 9.59 9.59 0 0 1 3.28-1.38 1 1 0 0 0 .77-.87l.2-2.05h2.17l.19 2.05a1 1 0 0 0 .78.87 10 10 0 0 1 3.3 1.35 1 1 0 0 0 1.17-.07l1.56-1.29 1.51 1.5-1.31 1.57a1 1 0 0 0-.06 1.18 9.5 9.5 0 0 1 1.37 3.26 1 1 0 0 0 .85.78l2 .19v2.17l-2 .19a1 1 0 0 0-.85.77 9.81 9.81 0 0 1-1.39 3.28 1 1 0 0 0 .07 1.17l1.32 1.57-1.53 1.52-1.57-1.31a1 1 0 0 0-1.17-.06 9.46 9.46 0 0 1-3.27 1.38 1 1 0 0 0-.78.89l-.19 2.06h-2.15l-.2-2.06a1 1 0 0 0-.78-.88 9.81 9.81 0 0 1-3.28-1.39 1 1 0 0 0-1.16.07l-1.57 1.3-1.52-1.52 1.3-1.57a1 1 0 0 0 .06-1.18 9.5 9.5 0 0 1-1.38-3.26 1 1 0 0 0-.85-.78l-2-.19-.02-2.13z" fill="#636E72" fill-rule="nonzero"/>
        <path d="M46.53 30.9a7.58 7.58 0 1 0-.02-15.16 7.58 7.58 0 0 0 .02 15.16zm0-13.18a5.61 5.61 0 1 1-5.62 5.6 5.6 5.6 0 0 1 5.62-5.6z" fill="#636E72" fill-rule="nonzero"/>
        <path d="M56.97 22.05a1 1 0 0 1-.85-.78 9.5 9.5 0 0 0-1.38-3.26 1 1 0 0 1 .06-1.18l1.32-1.57-1.5-1.52-1.56 1.3a1 1 0 0 1-1.17.07 10 10 0 0 0-3.28-1.38 1 1 0 0 1-.78-.87l-.19-2.05h-2.18l-.2 2.05a1 1 0 0 1-.77.87 9.59 9.59 0 0 0-3.28 1.39 1 1 0 0 1-1.17-.07l-1.57-1.3-1.52 1.52 1.3 1.57a1 1 0 0 1 .07 1.17 10 10 0 0 0-1.38 3.28 1 1 0 0 1-.86.77l-2 .19v2.17l2 .19a1 1 0 0 1 .85.78 9.5 9.5 0 0 0 1.38 3.26 1 1 0 0 1-.06 1.18l-1.3 1.57 1.52 1.52 1.57-1.3a1 1 0 0 1 1.16-.07 9.81 9.81 0 0 0 3.28 1.39 1 1 0 0 1 .78.88l.2 2.06h2.17l.19-2.06a1 1 0 0 1 .78-.89 9.46 9.46 0 0 0 3.27-1.38 1 1 0 0 1 1.18.06l1.56 1.31 1.51-1.53-1.29-1.57a1 1 0 0 1-.07-1.17 9.81 9.81 0 0 0 1.36-3.28 1 1 0 0 1 .85-.77l2-.19v-2.17l-2-.19zM46.53 30.9a7.58 7.58 0 1 1 7.59-7.59 7.59 7.59 0 0 1-7.59 7.59z" fill="#B2BEC3" fill-rule="nonzero"/>
    </g>
</svg>
