<svg width="265" height="212" viewBox="0 0 265 212" fill="none" xmlns="http://www.w3.org/2000/svg">
    <path
        d="M256.455 0.558594H143.919C140.005 0.558594 136.832 3.73147 136.832 7.64542V91.7748C136.832 95.6888 140.005 98.8617 143.919 98.8617H256.455C260.369 98.8617 263.542 95.6888 263.542 91.7748V7.64542C263.542 3.73147 260.369 0.558594 256.455 0.558594Z"
        fill="#F5F5FA" />
    <path
        d="M182.657 24.6047C181.52 11.865 187.089 6.30696 196.712 4.37526C205.624 2.58578 214.311 7.78832 217.096 16.2143C219.193 20.6821 225.735 31.1227 242.599 35.9697C251.25 38.4584 258.645 44.8342 260.529 54.2201C263.077 66.8887 254.865 79.2373 242.196 81.7852C215.745 87.1063 173.354 99.9526 176.554 50.1671C176.815 46.0193 182.622 39.1813 182.764 35.0216C182.764 34.6898 183.06 29.0606 182.669 24.6047H182.657Z"
        fill="#41738A" />
    <path
        d="M257.021 11.8869C256.879 11.8869 256.737 11.8277 256.63 11.721L250.551 5.64149C250.337 5.42818 250.337 5.07265 250.551 4.84749C250.764 4.63417 251.12 4.63417 251.345 4.84749L257.424 10.927C257.637 11.1403 257.637 11.4958 257.424 11.721C257.318 11.8277 257.176 11.8869 257.033 11.8869H257.021Z"
        fill="#41738A" />
    <path
        d="M250.942 11.8869C250.8 11.8869 250.657 11.8277 250.551 11.721C250.337 11.5077 250.337 11.1522 250.551 10.927L256.63 4.84749C256.844 4.63417 257.199 4.63417 257.424 4.84749C257.637 5.0608 257.637 5.41633 257.424 5.64149L251.345 11.721C251.238 11.8277 251.096 11.8869 250.954 11.8869H250.942Z"
        fill="#41738A" />
    <path
        d="M120.181 111.602H7.6454C3.73145 111.602 0.558594 114.774 0.558594 118.688V202.818C0.558594 206.732 3.73145 209.905 7.6454 209.905H120.181C124.095 209.905 127.268 206.732 127.268 202.818V118.688C127.268 114.774 124.095 111.602 120.181 111.602Z"
        fill="#F5F5FA" />
    <path
        d="M120.168 210.46H7.64376C3.42485 210.46 0 207.023 0 202.816V118.698C0 114.48 3.4367 111.055 7.64376 111.055H120.168C124.387 111.055 127.812 114.491 127.812 118.698V202.816C127.812 207.035 124.375 210.46 120.168 210.46ZM7.64376 112.157C4.04109 112.157 1.11391 115.084 1.11391 118.687V202.804C1.11391 206.407 4.04109 209.334 7.64376 209.334H120.168C123.771 209.334 126.698 206.407 126.698 202.804V118.687C126.698 115.084 123.771 112.157 120.168 112.157H7.64376Z"
        fill="#41738A" />
    <path
        d="M0.554688 189.034C4.48918 177.622 9.27697 165.7 13.6262 158.459C24.0313 141.145 45.2562 143.954 45.2562 143.954L63.5779 144.226C83.0726 143.942 89.7799 153.482 92.079 160.012L93.5367 151.657L122.287 153.494C122.287 153.494 121.766 181.106 120.296 196.5C118.838 211.8 105.66 209.655 99.5451 209.88H8.74383C4.22865 209.88 0.578412 206.218 0.578412 201.715V189.023L0.554688 189.034Z"
        fill="#41738A" />
    <path
        d="M87.6965 210.104C87.4003 210.104 87.1514 209.867 87.1396 209.571L85.1606 162.167C85.1487 161.859 85.3857 161.598 85.6938 161.586C85.9901 161.575 86.2626 161.812 86.2745 162.12L88.2535 209.523C88.2654 209.831 88.0284 210.092 87.7203 210.104C87.7203 210.104 87.7084 210.104 87.6965 210.104Z"
        fill="white" />
    <path
        d="M22.0517 210.104C21.9806 210.104 21.9093 210.093 21.85 210.069C21.5656 209.95 21.4234 209.63 21.5419 209.346L35.8816 173.272C36.0001 172.987 36.3202 172.845 36.6046 172.964C36.889 173.082 37.0313 173.402 36.9128 173.687L22.5731 209.761C22.4901 209.974 22.2769 210.116 22.0517 210.116V210.104Z"
        fill="white" />
    <path
        d="M90.4961 186.356C90.1524 186.332 89.9154 186.072 89.9391 185.764L91.5032 159.988C91.5269 159.68 91.7877 159.443 92.0958 159.466C92.4039 159.49 92.6411 159.751 92.6174 160.059L91.053 185.835C91.0293 186.131 90.7924 186.356 90.4961 186.356Z"
        fill="white" />
    <path
        d="M66.0133 122.418C67.8627 113.604 62.2167 104.959 53.4026 103.11C44.5885 101.26 35.9441 106.906 34.0947 115.72C32.2453 124.534 37.8913 133.179 46.7054 135.028C55.5195 136.878 64.1639 131.232 66.0133 122.418Z"
        fill="#EB7045" />
    <path
        d="M44.6987 134.482C53.101 132.111 51.4774 122.808 51.4774 122.808C51.4774 122.808 54.4639 119.502 51.8448 110.14L57.0594 106.703C57.0594 106.703 63.909 107.639 65.1178 112.261C65.4733 113.6 66.0777 115.129 66.5991 116.954C66.7413 117.428 66.8837 117.914 67.0378 118.412C67.0378 118.412 70.4744 119.111 70.8181 120.355C71.1618 121.588 68.7561 124.527 68.7561 124.527C69.9175 129.741 69.6568 134.588 63.2337 136.615L62.795 146.392L44.0469 147.506L44.6987 134.482Z"
        fill="#F1E6CD" />
    <path fill-rule="evenodd" clip-rule="evenodd"
        d="M67.8438 175.511C67.8438 176.637 68.5074 177.549 69.3251 177.549C70.1428 177.549 70.8065 176.637 70.8065 175.511C70.8065 174.385 70.1428 173.473 69.3251 173.473C68.5074 173.473 67.8438 174.385 67.8438 175.511Z"
        fill="#F5F5FA" />
    <path fill-rule="evenodd" clip-rule="evenodd"
        d="M67.4062 197.636C67.4062 198.762 68.0699 199.674 68.8876 199.674C69.7053 199.674 70.369 198.762 70.369 197.636C70.369 196.51 69.7053 195.598 68.8876 195.598C68.0699 195.598 67.4062 196.51 67.4062 197.636Z"
        fill="#F5F5FA" />
    <path
        d="M61.5183 113.283C65.1442 113.283 68.0837 110.344 68.0837 106.718C68.0837 103.092 65.1442 100.152 61.5183 100.152C57.8923 100.152 54.9531 103.092 54.9531 106.718C54.9531 110.344 57.8923 113.283 61.5183 113.283Z"
        fill="#EB7045" />
    <path
        d="M48.4375 110.368C48.4375 113.13 50.6773 115.381 53.4504 115.381C56.2235 115.381 58.4633 113.142 58.4633 110.368C58.4633 107.595 56.2235 105.355 53.4504 105.355C50.6773 105.355 48.4375 107.595 48.4375 110.368Z"
        fill="#EB7045" />
    <path
        d="M53.1033 108.093C56.2776 108.093 58.8508 105.52 58.8508 102.345C58.8508 99.171 56.2776 96.5977 53.1033 96.5977C49.9289 96.5977 47.3555 99.171 47.3555 102.345C47.3555 105.52 49.9289 108.093 53.1033 108.093Z"
        fill="#EB7045" />
    <path fill-rule="evenodd" clip-rule="evenodd"
        d="M67.5611 144.307L63.2356 136.616L58.1752 146.144L44.606 136.367L39.3203 144.094L52.1193 160.033L58.4597 149.498L67.1936 158.114L67.5611 144.307Z"
        fill="#61BDB3" />
    <path
        d="M61.4131 211.311C61.0931 211.311 60.8443 211.05 60.8562 210.742C61.2946 181.506 57.6683 146.546 57.6209 146.19C57.5853 145.882 57.8104 145.61 58.1185 145.574C58.4267 145.538 58.6992 145.764 58.7348 146.072C58.7703 146.427 62.4085 181.447 61.9701 210.754C61.9701 211.062 61.7212 211.299 61.4131 211.299V211.311Z"
        fill="white" />
    <path
        d="M124.623 99.8086H92.2818C90.3183 99.8086 88.7266 101.4 88.7266 103.364V124.743C88.7266 126.706 90.3183 128.298 92.2818 128.298H124.623C126.586 128.298 128.178 126.706 128.178 124.743V103.364C128.178 101.4 126.586 99.8086 124.623 99.8086Z"
        fill="#EB7045" />
    <path
        d="M108.444 119.217C108.302 119.217 108.171 119.17 108.053 119.063L89.3639 101.275C89.1387 101.062 89.1272 100.706 89.3405 100.481C89.5538 100.256 89.9092 100.244 90.1344 100.458L108.444 117.878L126.753 100.458C126.979 100.244 127.334 100.256 127.548 100.481C127.761 100.706 127.749 101.062 127.524 101.275L108.835 119.063C108.728 119.17 108.586 119.217 108.444 119.217Z"
        fill="#41738A" />
    <path
        d="M127.136 127.811C126.994 127.811 126.864 127.763 126.745 127.657L112.88 114.467C112.655 114.253 112.643 113.898 112.856 113.673C113.069 113.447 113.425 113.436 113.65 113.649L127.516 126.851C127.741 127.064 127.753 127.42 127.539 127.645C127.433 127.763 127.279 127.823 127.136 127.823V127.811Z"
        fill="#41738A" />
    <path
        d="M89.7588 127.811C89.6166 127.811 89.4628 127.752 89.3561 127.633C89.1428 127.408 89.1544 127.052 89.3795 126.839L103.245 113.637C103.47 113.424 103.826 113.436 104.039 113.661C104.253 113.886 104.241 114.242 104.015 114.455L90.15 127.657C90.0434 127.763 89.9011 127.811 89.7707 127.811H89.7588Z"
        fill="#41738A" />
    <path
        d="M117.502 128.31C117.502 128.31 119.434 129.116 119.541 131.391C119.541 131.391 121.484 133.429 120.536 135.977C120.074 137.233 116.531 148.219 116.531 148.219L117.076 153.185L97.3441 151.917C97.3441 151.917 96.7631 134.851 96.5024 133.702C96.2298 132.552 91.1103 124.055 93.8834 122.23C97.6757 119.73 101.906 128.31 101.906 128.31H117.502Z"
        fill="#F1E6CD" />
    <path
        d="M105.734 134.485C105 134.485 104.229 134.283 103.684 133.643C102.203 131.925 103.175 129.91 104.443 128.002C104.609 127.741 104.964 127.67 105.213 127.848C105.474 128.014 105.545 128.37 105.367 128.618C103.731 131.095 103.838 132.126 104.526 132.92C105.403 133.951 107.619 132.932 107.642 132.92C107.915 132.79 108.259 132.908 108.389 133.181C108.519 133.465 108.401 133.797 108.128 133.928C108.057 133.963 106.931 134.485 105.734 134.485Z"
        fill="#41738A" />
    <path
        d="M112.951 143.005C112.773 143.005 112.583 142.993 112.417 142.969C111.28 142.78 110.497 142.045 110.26 140.955C109.929 139.379 110.817 137.53 112.417 136.475C113.946 135.468 119.125 131.012 119.184 130.964C119.421 130.763 119.765 130.787 119.978 131.024C120.18 131.261 120.156 131.604 119.919 131.806C119.705 131.995 114.633 136.357 113.034 137.399C111.659 138.3 111.149 139.746 111.351 140.706C111.445 141.156 111.742 141.713 112.583 141.855C114.219 142.116 116.909 140.433 117.809 139.77C118.058 139.58 118.402 139.639 118.592 139.888C118.781 140.137 118.722 140.481 118.485 140.67C118.343 140.777 115.333 143.005 112.951 143.005Z"
        fill="#41738A" />
    <path
        d="M109.524 139.092C109.524 139.092 109.417 139.092 109.358 139.092C108.517 139.045 107.77 138.654 107.142 137.943C105.329 135.833 106.94 133.7 108.647 131.449L108.943 131.058C109.524 130.275 111.562 128.036 111.657 127.941C111.87 127.716 112.214 127.692 112.451 127.905C112.676 128.107 112.7 128.462 112.487 128.699C112.463 128.723 110.401 130.998 109.844 131.733L109.548 132.124C107.782 134.459 106.834 135.857 108.007 137.22C108.422 137.706 108.896 137.955 109.429 137.99C110.603 138.05 111.752 137.019 111.764 137.007C111.989 136.793 112.344 136.805 112.558 137.03C112.771 137.256 112.759 137.611 112.534 137.824C112.475 137.884 111.136 139.116 109.536 139.116L109.524 139.092Z"
        fill="#41738A" />
    <path
        d="M108.447 147.424C108.376 147.424 108.305 147.412 108.234 147.388C107.949 147.27 107.807 146.95 107.926 146.665C110.272 140.906 107.309 138.109 107.191 138.002C106.966 137.801 106.942 137.445 107.155 137.208C107.357 136.983 107.712 136.959 107.938 137.161C108.092 137.291 111.623 140.55 108.968 147.08C108.885 147.293 108.672 147.424 108.447 147.424Z"
        fill="#41738A" />
    <path
        d="M153.234 52.0121L154.929 43.4439C154.929 43.4439 152.132 28.4289 154.503 27.2201C155.628 26.6394 156.647 28.2274 157.347 30.005C157.098 26.1061 157.264 21.7213 159.267 21.8042C160.653 21.8635 161.518 23.653 162.051 25.8335C162.431 22.859 163.319 20.3703 165.346 20.548C167.171 20.7139 167.633 23.2026 167.538 26.0468C167.621 24.7551 168.06 21.3065 170.454 21.7924C172.907 22.2901 172.231 29.0214 171.828 36.4401C173.653 34.7809 176.984 32.1856 178.512 33.8329C180.669 36.1556 177.09 39.071 175.17 40.7775C173.251 42.484 169.743 47.1533 169.743 47.1533V52.8891L153.246 52.0003L153.234 52.0121Z"
        fill="#F1E6CD" />
    <path
        d="M239.235 55.2247C231.223 42.9828 218.235 42.6154 212.546 42.6154L198.23 42.4258C186.534 44.2864 174.837 47.5809 171.815 60.9843L172.751 49.2993L151.621 48.1616C151.621 48.1616 145.767 72.6692 143.574 83.4061C143.574 83.4061 141.749 91.3107 142.662 98.8715H174.849C175.524 98.0301 178.842 93.6927 179.198 92.9579L180.075 98.8715H256.489C251.512 83.5957 242.802 60.688 239.235 55.2366V55.2247Z"
        fill="#4DAE6F" />
    <path
        d="M183.141 46.6328C196.52 57.0379 218.693 47.9009 225.614 44.6182C225.519 44.5589 225.425 44.4997 225.342 44.4404C220.258 42.7102 215.446 42.6154 212.543 42.6154L198.227 42.4258C192.929 43.2672 187.632 44.4167 183.141 46.6447V46.6328Z"
        fill="#F1E6CD" />
    <path
        d="M167.51 37.294C167.202 37.294 166.953 37.0451 166.953 36.737V26.5453C166.953 26.2371 167.202 25.9883 167.51 25.9883C167.818 25.9883 168.067 26.2371 168.067 26.5453V36.737C168.067 37.0451 167.818 37.294 167.51 37.294Z"
        fill="#41738A" />
    <path
        d="M161.622 41.0402C161.527 41.0402 161.444 41.0165 161.361 40.9691C161.089 40.8269 160.994 40.4832 161.136 40.2106C162.072 38.4804 163.352 37.402 164.952 36.9872C167.204 36.4065 169.444 37.3309 170.439 37.8405L171.328 36.1932C171.47 35.9206 171.814 35.8258 172.086 35.968C172.359 36.1102 172.454 36.4539 172.312 36.7265L171.15 38.8715C171.079 39.0137 170.949 39.1085 170.795 39.1441C170.641 39.1796 170.486 39.1559 170.356 39.073C170.332 39.0611 167.701 37.4138 165.225 38.0656C163.945 38.3975 162.89 39.2981 162.12 40.7439C162.013 40.9336 161.824 41.0402 161.634 41.0402H161.622Z"
        fill="#41738A" />
    <path
        d="M162.464 36.4412C162.168 36.4412 161.919 36.2041 161.908 35.9079L161.493 25.8702C161.481 25.5621 161.718 25.3013 162.026 25.2895C162.334 25.2776 162.595 25.5147 162.607 25.8228L163.021 35.8605C163.033 36.1686 162.796 36.4293 162.488 36.4412C162.488 36.4412 162.476 36.4412 162.464 36.4412Z"
        fill="#41738A" />
    <path
        d="M157.865 36.834C157.581 36.834 157.332 36.6089 157.308 36.3244L156.787 30.0553C156.763 29.7472 156.988 29.4746 157.296 29.4509C157.604 29.4272 157.877 29.6524 157.901 29.9605L158.422 36.2296C158.446 36.5378 158.221 36.8103 157.913 36.834C157.901 36.834 157.877 36.834 157.865 36.834Z"
        fill="#41738A" />
    <path
        d="M168.721 90.3763C168.353 90.3407 168.128 90.0563 168.164 89.7482L171.648 60.2632C171.683 59.9551 171.968 59.7418 172.264 59.7773C172.572 59.8129 172.786 60.0854 172.75 60.3936L169.266 89.8785C169.23 90.163 168.993 90.3763 168.709 90.3763H168.721Z"
        fill="#41738A" />
    <path
        d="M225.334 99.4181C225.097 99.4181 224.871 99.2641 224.8 99.0152L214.834 65.2283C214.751 64.9321 214.917 64.6239 215.213 64.5291C215.509 64.4462 215.817 64.6121 215.912 64.9084L225.879 98.6952C225.962 98.9915 225.796 99.2996 225.5 99.3944C225.452 99.4063 225.393 99.4181 225.346 99.4181H225.334Z"
        fill="#41738A" />
    <path
        d="M190.576 12.9869L195.613 10.8893C196.419 10.5574 197.331 11.0196 197.533 11.8729C198.267 15.0252 200.27 21.7921 204.264 23.4038C204.264 23.4038 203.352 40.1609 213.674 43.3488L198.896 46.513L196.893 36.6057C189.071 37.7908 187.329 32.5764 187.08 28.7367C186.879 25.5488 186.689 22.7875 186.547 20.4885C186.357 17.4309 187.91 14.5156 190.576 12.9869Z"
        fill="#F1E6CD" />
    <path
        d="M201.63 25.9397C203.099 26.6034 205.066 25.679 206.026 23.8895C206.986 22.1001 206.559 20.1091 205.09 19.4573C203.62 18.7937 201.653 19.718 200.693 21.5075C199.733 23.297 200.16 25.2879 201.63 25.9397Z"
        fill="#F1E6CD" />
    <path
        d="M201.906 26.1534C201.906 27.1726 202.736 28.0022 203.755 28.0022C204.774 28.0022 205.604 27.1726 205.604 26.1534C205.604 25.1343 204.774 24.3047 203.755 24.3047C202.736 24.3047 201.906 25.1343 201.906 26.1534Z"
        fill="white" />
    <path
        d="M54.2777 125.217C53.14 126.367 50.9831 126.224 49.4425 124.897C47.9018 123.57 47.5702 121.567 48.7079 120.418C49.8455 119.268 52.0022 119.41 53.5428 120.737C55.0834 122.065 55.4154 124.068 54.2777 125.217Z"
        fill="#F1E6CD" />
    <path
        d="M215.368 72.3368C215.238 72.3368 215.107 72.2894 215.001 72.2065L211.102 68.8527C210.865 68.6512 210.841 68.2957 211.042 68.0705C211.244 67.8335 211.599 67.8098 211.825 68.0113L215.724 71.3651C215.961 71.5665 215.984 71.9221 215.783 72.1472C215.676 72.2776 215.51 72.3368 215.356 72.3368H215.368Z"
        fill="#41738A" />
    <path
        d="M180.062 99.4186C179.777 99.4186 179.54 99.2053 179.505 98.9209L178.154 87.5796C169.313 80.2439 176.471 69.4122 177.703 67.6938L176.21 62.2898C176.127 61.9935 176.305 61.6854 176.601 61.6024C176.898 61.5195 177.206 61.6973 177.289 61.9935L178.853 67.6582C178.9 67.8242 178.853 68.0138 178.758 68.1441C178.403 68.6063 170.024 79.5921 179.043 86.8448C179.161 86.9396 179.232 87.07 179.244 87.2122L180.619 98.7787C180.654 99.0868 180.441 99.3593 180.133 99.3949C180.109 99.3949 180.085 99.3949 180.062 99.3949V99.4186Z"
        fill="#41738A" />
    <path
        d="M103.507 130.869C103.341 130.869 103.175 130.798 103.068 130.656L101.468 128.653C101.279 128.416 101.314 128.06 101.563 127.871C101.8 127.681 102.156 127.717 102.345 127.965L103.945 129.968C104.135 130.205 104.099 130.561 103.85 130.75C103.744 130.833 103.625 130.869 103.507 130.869Z"
        fill="#41738A" />
    <path
        d="M256.453 99.417H143.929C139.71 99.417 136.285 95.9803 136.285 91.7732V7.64382C136.285 3.42491 139.722 0 143.929 0H256.453C260.672 0 264.097 3.43676 264.097 7.64382V91.7614C264.097 95.9803 260.66 99.4052 256.453 99.4052V99.417ZM143.929 1.11398C140.326 1.11398 137.399 4.04115 137.399 7.64382V91.7614C137.399 95.364 140.326 98.2912 143.929 98.2912H256.453C260.056 98.2912 262.983 95.364 262.983 91.7614V7.64382C262.983 4.04115 260.056 1.11398 256.453 1.11398H143.929Z"
        fill="#41738A" />
</svg>