<svg xmlns="http://www.w3.org/2000/svg" width="400" height="234" viewBox="0 0 400 234" fill="none">
  <path
    d="M-40.9877 -181.201C-40.9877 -179.957 -41.9961 -178.949 -43.2399 -178.949C-44.4838 -178.949 -45.4922 -179.957 -45.4922 -181.201C-45.4922 -182.445 -44.4838 -183.453 -43.2399 -183.453C-41.9961 -183.453 -40.9877 -182.445 -40.9877 -181.201Z"
    fill="currentColor" fill-opacity="0.3" />
  <path
    d="M-12.4594 -181.201C-12.4594 -179.957 -13.4677 -178.949 -14.7116 -178.949C-15.9555 -178.949 -16.9638 -179.957 -16.9638 -181.201C-16.9638 -182.445 -15.9555 -183.453 -14.7116 -183.453C-13.4677 -183.453 -12.4594 -182.445 -12.4594 -181.201Z"
    fill="currentColor" fill-opacity="0.3" />
  <path
    d="M16.069 -181.201C16.069 -179.957 15.0606 -178.949 13.8168 -178.949C12.5729 -178.949 11.5645 -179.957 11.5645 -181.201C11.5645 -182.445 12.5729 -183.453 13.8168 -183.453C15.0606 -183.453 16.069 -182.445 16.069 -181.201Z"
    fill="currentColor" fill-opacity="0.3" />
  <path
    d="M44.5974 -181.201C44.5974 -179.957 43.589 -178.949 42.3451 -178.949C41.1012 -178.949 40.0929 -179.957 40.0929 -181.201C40.0929 -182.445 41.1012 -183.453 42.3451 -183.453C43.589 -183.453 44.5974 -182.445 44.5974 -181.201Z"
    fill="currentColor" fill-opacity="0.3" />
  <path
    d="M73.1257 -181.201C73.1257 -179.957 72.1174 -178.949 70.8735 -178.949C69.6296 -178.949 68.6212 -179.957 68.6212 -181.201C68.6212 -182.445 69.6296 -183.453 70.8735 -183.453C72.1174 -183.453 73.1257 -182.445 73.1257 -181.201Z"
    fill="currentColor" fill-opacity="0.3" />
  <path
    d="M101.654 -181.201C101.654 -179.957 100.646 -178.949 99.4018 -178.949C98.158 -178.949 97.1496 -179.957 97.1496 -181.201C97.1496 -182.445 98.158 -183.453 99.4018 -183.453C100.646 -183.453 101.654 -182.445 101.654 -181.201Z"
    fill="currentColor" fill-opacity="0.3" />
  <path
    d="M130.182 -181.201C130.182 -179.957 129.174 -178.949 127.93 -178.949C126.686 -178.949 125.678 -179.957 125.678 -181.201C125.678 -182.445 126.686 -183.453 127.93 -183.453C129.174 -183.453 130.182 -182.445 130.182 -181.201Z"
    fill="currentColor" fill-opacity="0.3" />
  <path
    d="M158.711 -181.201C158.711 -179.957 157.702 -178.949 156.459 -178.949C155.215 -178.949 154.206 -179.957 154.206 -181.201C154.206 -182.445 155.215 -183.453 156.459 -183.453C157.702 -183.453 158.711 -182.445 158.711 -181.201Z"
    fill="currentColor" fill-opacity="0.3" />
  <path
    d="M187.239 -181.201C187.239 -179.957 186.231 -178.949 184.987 -178.949C183.743 -178.949 182.735 -179.957 182.735 -181.201C182.735 -182.445 183.743 -183.453 184.987 -183.453C186.231 -183.453 187.239 -182.445 187.239 -181.201Z"
    fill="currentColor" fill-opacity="0.3" />
  <path
    d="M215.768 -181.201C215.768 -179.957 214.759 -178.949 213.515 -178.949C212.271 -178.949 211.263 -179.957 211.263 -181.201C211.263 -182.445 212.271 -183.453 213.515 -183.453C214.759 -183.453 215.768 -182.445 215.768 -181.201Z"
    fill="currentColor" fill-opacity="0.3" />
  <path
    d="M244.296 -181.201C244.296 -179.957 243.288 -178.949 242.044 -178.949C240.8 -178.949 239.791 -179.957 239.791 -181.201C239.791 -182.445 240.8 -183.453 242.044 -183.453C243.288 -183.453 244.296 -182.445 244.296 -181.201Z"
    fill="currentColor" fill-opacity="0.3" />
  <path
    d="M272.824 -181.201C272.824 -179.957 271.816 -178.949 270.572 -178.949C269.328 -178.949 268.32 -179.957 268.32 -181.201C268.32 -182.445 269.328 -183.453 270.572 -183.453C271.816 -183.453 272.824 -182.445 272.824 -181.201Z"
    fill="currentColor" fill-opacity="0.3" />
  <path
    d="M301.353 -181.201C301.353 -179.957 300.344 -178.949 299.1 -178.949C297.856 -178.949 296.848 -179.957 296.848 -181.201C296.848 -182.445 297.856 -183.453 299.1 -183.453C300.344 -183.453 301.353 -182.445 301.353 -181.201Z"
    fill="currentColor" fill-opacity="0.3" />
  <path
    d="M329.881 -181.201C329.881 -179.957 328.873 -178.949 327.629 -178.949C326.385 -178.949 325.376 -179.957 325.376 -181.201C325.376 -182.445 326.385 -183.453 327.629 -183.453C328.873 -183.453 329.881 -182.445 329.881 -181.201Z"
    fill="currentColor" fill-opacity="0.3" />
  <path
    d="M358.409 -181.201C358.409 -179.957 357.401 -178.949 356.157 -178.949C354.913 -178.949 353.905 -179.957 353.905 -181.201C353.905 -182.445 354.913 -183.453 356.157 -183.453C357.401 -183.453 358.409 -182.445 358.409 -181.201Z"
    fill="currentColor" fill-opacity="0.3" />
  <path
    d="M386.938 -181.201C386.938 -179.957 385.929 -178.949 384.685 -178.949C383.442 -178.949 382.433 -179.957 382.433 -181.201C382.433 -182.445 383.442 -183.453 384.685 -183.453C385.929 -183.453 386.938 -182.445 386.938 -181.201Z"
    fill="currentColor" fill-opacity="0.3" />
  <path
    d="M415.466 -181.201C415.466 -179.957 414.458 -178.949 413.214 -178.949C411.97 -178.949 410.962 -179.957 410.962 -181.201C410.962 -182.445 411.97 -183.453 413.214 -183.453C414.458 -183.453 415.466 -182.445 415.466 -181.201Z"
    fill="currentColor" fill-opacity="0.3" />
  <path
    d="M443.994 -181.201C443.994 -179.957 442.986 -178.949 441.742 -178.949C440.498 -178.949 439.49 -179.957 439.49 -181.201C439.49 -182.445 440.498 -183.453 441.742 -183.453C442.986 -183.453 443.994 -182.445 443.994 -181.201Z"
    fill="currentColor" fill-opacity="0.3" />
  <path
    d="M-40.9877 -152.673C-40.9877 -151.429 -41.9961 -150.42 -43.2399 -150.42C-44.4838 -150.42 -45.4922 -151.429 -45.4922 -152.673C-45.4922 -153.916 -44.4838 -154.925 -43.2399 -154.925C-41.9961 -154.925 -40.9877 -153.916 -40.9877 -152.673Z"
    fill="currentColor" fill-opacity="0.3" />
  <path
    d="M-12.4594 -152.673C-12.4594 -151.429 -13.4677 -150.42 -14.7116 -150.42C-15.9555 -150.42 -16.9638 -151.429 -16.9638 -152.673C-16.9638 -153.916 -15.9555 -154.925 -14.7116 -154.925C-13.4677 -154.925 -12.4594 -153.916 -12.4594 -152.673Z"
    fill="currentColor" fill-opacity="0.3" />
  <path
    d="M16.069 -152.673C16.069 -151.429 15.0606 -150.42 13.8168 -150.42C12.5729 -150.42 11.5645 -151.429 11.5645 -152.673C11.5645 -153.916 12.5729 -154.925 13.8168 -154.925C15.0606 -154.925 16.069 -153.916 16.069 -152.673Z"
    fill="currentColor" fill-opacity="0.3" />
  <path
    d="M44.5974 -152.673C44.5974 -151.429 43.589 -150.42 42.3451 -150.42C41.1012 -150.42 40.0929 -151.429 40.0929 -152.673C40.0929 -153.916 41.1012 -154.925 42.3451 -154.925C43.589 -154.925 44.5974 -153.916 44.5974 -152.673Z"
    fill="currentColor" fill-opacity="0.3" />
  <path
    d="M73.1257 -152.673C73.1257 -151.429 72.1174 -150.42 70.8735 -150.42C69.6296 -150.42 68.6212 -151.429 68.6212 -152.673C68.6212 -153.916 69.6296 -154.925 70.8735 -154.925C72.1174 -154.925 73.1257 -153.916 73.1257 -152.673Z"
    fill="currentColor" fill-opacity="0.3" />
  <path
    d="M101.654 -152.673C101.654 -151.429 100.646 -150.42 99.4018 -150.42C98.158 -150.42 97.1496 -151.429 97.1496 -152.673C97.1496 -153.916 98.158 -154.925 99.4018 -154.925C100.646 -154.925 101.654 -153.916 101.654 -152.673Z"
    fill="currentColor" fill-opacity="0.3" />
  <path
    d="M130.182 -152.673C130.182 -151.429 129.174 -150.42 127.93 -150.42C126.686 -150.42 125.678 -151.429 125.678 -152.673C125.678 -153.916 126.686 -154.925 127.93 -154.925C129.174 -154.925 130.182 -153.916 130.182 -152.673Z"
    fill="currentColor" fill-opacity="0.3" />
  <path
    d="M158.711 -152.673C158.711 -151.429 157.702 -150.42 156.459 -150.42C155.215 -150.42 154.206 -151.429 154.206 -152.673C154.206 -153.916 155.215 -154.925 156.459 -154.925C157.702 -154.925 158.711 -153.916 158.711 -152.673Z"
    fill="currentColor" fill-opacity="0.3" />
  <path
    d="M187.239 -152.673C187.239 -151.429 186.231 -150.42 184.987 -150.42C183.743 -150.42 182.735 -151.429 182.735 -152.673C182.735 -153.916 183.743 -154.925 184.987 -154.925C186.231 -154.925 187.239 -153.916 187.239 -152.673Z"
    fill="currentColor" fill-opacity="0.3" />
  <path
    d="M215.768 -152.673C215.768 -151.429 214.759 -150.42 213.515 -150.42C212.271 -150.42 211.263 -151.429 211.263 -152.673C211.263 -153.916 212.271 -154.925 213.515 -154.925C214.759 -154.925 215.768 -153.916 215.768 -152.673Z"
    fill="currentColor" fill-opacity="0.3" />
  <path
    d="M244.296 -152.673C244.296 -151.429 243.288 -150.42 242.044 -150.42C240.8 -150.42 239.791 -151.429 239.791 -152.673C239.791 -153.916 240.8 -154.925 242.044 -154.925C243.288 -154.925 244.296 -153.916 244.296 -152.673Z"
    fill="currentColor" fill-opacity="0.3" />
  <path
    d="M272.824 -152.673C272.824 -151.429 271.816 -150.42 270.572 -150.42C269.328 -150.42 268.32 -151.429 268.32 -152.673C268.32 -153.916 269.328 -154.925 270.572 -154.925C271.816 -154.925 272.824 -153.916 272.824 -152.673Z"
    fill="currentColor" fill-opacity="0.3" />
  <path
    d="M301.353 -152.673C301.353 -151.429 300.344 -150.42 299.1 -150.42C297.856 -150.42 296.848 -151.429 296.848 -152.673C296.848 -153.916 297.856 -154.925 299.1 -154.925C300.344 -154.925 301.353 -153.916 301.353 -152.673Z"
    fill="currentColor" fill-opacity="0.3" />
  <path
    d="M329.881 -152.673C329.881 -151.429 328.873 -150.42 327.629 -150.42C326.385 -150.42 325.376 -151.429 325.376 -152.673C325.376 -153.916 326.385 -154.925 327.629 -154.925C328.873 -154.925 329.881 -153.916 329.881 -152.673Z"
    fill="currentColor" fill-opacity="0.3" />
  <path
    d="M358.409 -152.673C358.409 -151.429 357.401 -150.42 356.157 -150.42C354.913 -150.42 353.905 -151.429 353.905 -152.673C353.905 -153.916 354.913 -154.925 356.157 -154.925C357.401 -154.925 358.409 -153.916 358.409 -152.673Z"
    fill="currentColor" fill-opacity="0.3" />
  <path
    d="M386.938 -152.673C386.938 -151.429 385.929 -150.42 384.685 -150.42C383.442 -150.42 382.433 -151.429 382.433 -152.673C382.433 -153.916 383.442 -154.925 384.685 -154.925C385.929 -154.925 386.938 -153.916 386.938 -152.673Z"
    fill="currentColor" fill-opacity="0.3" />
  <path
    d="M415.466 -152.673C415.466 -151.429 414.458 -150.42 413.214 -150.42C411.97 -150.42 410.962 -151.429 410.962 -152.673C410.962 -153.916 411.97 -154.925 413.214 -154.925C414.458 -154.925 415.466 -153.916 415.466 -152.673Z"
    fill="currentColor" fill-opacity="0.3" />
  <path
    d="M443.994 -152.673C443.994 -151.429 442.986 -150.42 441.742 -150.42C440.498 -150.42 439.49 -151.429 439.49 -152.673C439.49 -153.916 440.498 -154.925 441.742 -154.925C442.986 -154.925 443.994 -153.916 443.994 -152.673Z"
    fill="currentColor" fill-opacity="0.3" />
  <path
    d="M-40.9877 -124.144C-40.9877 -122.9 -41.9961 -121.892 -43.2399 -121.892C-44.4838 -121.892 -45.4922 -122.9 -45.4922 -124.144C-45.4922 -125.388 -44.4838 -126.396 -43.2399 -126.396C-41.9961 -126.396 -40.9877 -125.388 -40.9877 -124.144Z"
    fill="currentColor" fill-opacity="0.3" />
  <path
    d="M-12.4594 -124.144C-12.4594 -122.9 -13.4677 -121.892 -14.7116 -121.892C-15.9555 -121.892 -16.9638 -122.9 -16.9638 -124.144C-16.9638 -125.388 -15.9555 -126.396 -14.7116 -126.396C-13.4677 -126.396 -12.4594 -125.388 -12.4594 -124.144Z"
    fill="currentColor" fill-opacity="0.3" />
  <path
    d="M16.069 -124.144C16.069 -122.9 15.0606 -121.892 13.8168 -121.892C12.5729 -121.892 11.5645 -122.9 11.5645 -124.144C11.5645 -125.388 12.5729 -126.396 13.8168 -126.396C15.0606 -126.396 16.069 -125.388 16.069 -124.144Z"
    fill="currentColor" fill-opacity="0.3" />
  <path
    d="M44.5974 -124.144C44.5974 -122.9 43.589 -121.892 42.3451 -121.892C41.1012 -121.892 40.0929 -122.9 40.0929 -124.144C40.0929 -125.388 41.1012 -126.396 42.3451 -126.396C43.589 -126.396 44.5974 -125.388 44.5974 -124.144Z"
    fill="currentColor" fill-opacity="0.3" />
  <path
    d="M73.1257 -124.144C73.1257 -122.9 72.1174 -121.892 70.8735 -121.892C69.6296 -121.892 68.6212 -122.9 68.6212 -124.144C68.6212 -125.388 69.6296 -126.396 70.8735 -126.396C72.1174 -126.396 73.1257 -125.388 73.1257 -124.144Z"
    fill="currentColor" fill-opacity="0.3" />
  <path
    d="M101.654 -124.144C101.654 -122.9 100.646 -121.892 99.4018 -121.892C98.158 -121.892 97.1496 -122.9 97.1496 -124.144C97.1496 -125.388 98.158 -126.396 99.4018 -126.396C100.646 -126.396 101.654 -125.388 101.654 -124.144Z"
    fill="currentColor" fill-opacity="0.3" />
  <path
    d="M130.182 -124.144C130.182 -122.9 129.174 -121.892 127.93 -121.892C126.686 -121.892 125.678 -122.9 125.678 -124.144C125.678 -125.388 126.686 -126.396 127.93 -126.396C129.174 -126.396 130.182 -125.388 130.182 -124.144Z"
    fill="currentColor" fill-opacity="0.3" />
  <path
    d="M158.711 -124.144C158.711 -122.9 157.702 -121.892 156.459 -121.892C155.215 -121.892 154.206 -122.9 154.206 -124.144C154.206 -125.388 155.215 -126.396 156.459 -126.396C157.702 -126.396 158.711 -125.388 158.711 -124.144Z"
    fill="currentColor" fill-opacity="0.3" />
  <path
    d="M187.239 -124.144C187.239 -122.9 186.231 -121.892 184.987 -121.892C183.743 -121.892 182.735 -122.9 182.735 -124.144C182.735 -125.388 183.743 -126.396 184.987 -126.396C186.231 -126.396 187.239 -125.388 187.239 -124.144Z"
    fill="currentColor" fill-opacity="0.3" />
  <path
    d="M215.768 -124.144C215.768 -122.9 214.759 -121.892 213.515 -121.892C212.271 -121.892 211.263 -122.9 211.263 -124.144C211.263 -125.388 212.271 -126.396 213.515 -126.396C214.759 -126.396 215.768 -125.388 215.768 -124.144Z"
    fill="currentColor" fill-opacity="0.3" />
  <path
    d="M244.296 -124.144C244.296 -122.9 243.288 -121.892 242.044 -121.892C240.8 -121.892 239.791 -122.9 239.791 -124.144C239.791 -125.388 240.8 -126.396 242.044 -126.396C243.288 -126.396 244.296 -125.388 244.296 -124.144Z"
    fill="currentColor" fill-opacity="0.3" />
  <path
    d="M272.824 -124.144C272.824 -122.9 271.816 -121.892 270.572 -121.892C269.328 -121.892 268.32 -122.9 268.32 -124.144C268.32 -125.388 269.328 -126.396 270.572 -126.396C271.816 -126.396 272.824 -125.388 272.824 -124.144Z"
    fill="currentColor" fill-opacity="0.3" />
  <path
    d="M301.353 -124.144C301.353 -122.9 300.344 -121.892 299.1 -121.892C297.856 -121.892 296.848 -122.9 296.848 -124.144C296.848 -125.388 297.856 -126.396 299.1 -126.396C300.344 -126.396 301.353 -125.388 301.353 -124.144Z"
    fill="currentColor" fill-opacity="0.3" />
  <path
    d="M329.881 -124.144C329.881 -122.9 328.873 -121.892 327.629 -121.892C326.385 -121.892 325.376 -122.9 325.376 -124.144C325.376 -125.388 326.385 -126.396 327.629 -126.396C328.873 -126.396 329.881 -125.388 329.881 -124.144Z"
    fill="currentColor" fill-opacity="0.3" />
  <path
    d="M358.409 -124.144C358.409 -122.9 357.401 -121.892 356.157 -121.892C354.913 -121.892 353.905 -122.9 353.905 -124.144C353.905 -125.388 354.913 -126.396 356.157 -126.396C357.401 -126.396 358.409 -125.388 358.409 -124.144Z"
    fill="currentColor" fill-opacity="0.3" />
  <path
    d="M386.938 -124.144C386.938 -122.9 385.929 -121.892 384.685 -121.892C383.442 -121.892 382.433 -122.9 382.433 -124.144C382.433 -125.388 383.442 -126.396 384.685 -126.396C385.929 -126.396 386.938 -125.388 386.938 -124.144Z"
    fill="currentColor" fill-opacity="0.3" />
  <path
    d="M415.466 -124.144C415.466 -122.9 414.458 -121.892 413.214 -121.892C411.97 -121.892 410.962 -122.9 410.962 -124.144C410.962 -125.388 411.97 -126.396 413.214 -126.396C414.458 -126.396 415.466 -125.388 415.466 -124.144Z"
    fill="currentColor" fill-opacity="0.3" />
  <path
    d="M443.994 -124.144C443.994 -122.9 442.986 -121.892 441.742 -121.892C440.498 -121.892 439.49 -122.9 439.49 -124.144C439.49 -125.388 440.498 -126.396 441.742 -126.396C442.986 -126.396 443.994 -125.388 443.994 -124.144Z"
    fill="currentColor" fill-opacity="0.3" />
  <path
    d="M-40.9877 -95.6158C-40.9877 -94.3719 -41.9961 -93.3636 -43.2399 -93.3636C-44.4838 -93.3636 -45.4922 -94.3719 -45.4922 -95.6158C-45.4922 -96.8597 -44.4838 -97.868 -43.2399 -97.868C-41.9961 -97.868 -40.9877 -96.8597 -40.9877 -95.6158Z"
    fill="currentColor" fill-opacity="0.3" />
  <path
    d="M-12.4594 -95.6158C-12.4594 -94.3719 -13.4677 -93.3636 -14.7116 -93.3636C-15.9555 -93.3636 -16.9638 -94.3719 -16.9638 -95.6158C-16.9638 -96.8597 -15.9555 -97.868 -14.7116 -97.868C-13.4677 -97.868 -12.4594 -96.8597 -12.4594 -95.6158Z"
    fill="currentColor" fill-opacity="0.3" />
  <path
    d="M16.069 -95.6158C16.069 -94.3719 15.0606 -93.3636 13.8168 -93.3636C12.5729 -93.3636 11.5645 -94.3719 11.5645 -95.6158C11.5645 -96.8597 12.5729 -97.868 13.8168 -97.868C15.0606 -97.868 16.069 -96.8597 16.069 -95.6158Z"
    fill="currentColor" fill-opacity="0.3" />
  <path
    d="M44.5974 -95.6158C44.5974 -94.3719 43.589 -93.3636 42.3451 -93.3636C41.1012 -93.3636 40.0929 -94.3719 40.0929 -95.6158C40.0929 -96.8597 41.1012 -97.868 42.3451 -97.868C43.589 -97.868 44.5974 -96.8597 44.5974 -95.6158Z"
    fill="currentColor" fill-opacity="0.3" />
  <path
    d="M73.1257 -95.6158C73.1257 -94.3719 72.1174 -93.3636 70.8735 -93.3636C69.6296 -93.3636 68.6212 -94.3719 68.6212 -95.6158C68.6212 -96.8597 69.6296 -97.868 70.8735 -97.868C72.1174 -97.868 73.1257 -96.8597 73.1257 -95.6158Z"
    fill="currentColor" fill-opacity="0.3" />
  <path
    d="M101.654 -95.6158C101.654 -94.3719 100.646 -93.3636 99.4018 -93.3636C98.158 -93.3636 97.1496 -94.3719 97.1496 -95.6158C97.1496 -96.8597 98.158 -97.868 99.4018 -97.868C100.646 -97.868 101.654 -96.8597 101.654 -95.6158Z"
    fill="currentColor" fill-opacity="0.3" />
  <path
    d="M130.182 -95.6158C130.182 -94.3719 129.174 -93.3636 127.93 -93.3636C126.686 -93.3636 125.678 -94.3719 125.678 -95.6158C125.678 -96.8597 126.686 -97.868 127.93 -97.868C129.174 -97.868 130.182 -96.8597 130.182 -95.6158Z"
    fill="currentColor" fill-opacity="0.3" />
  <path
    d="M158.711 -95.6158C158.711 -94.3719 157.702 -93.3636 156.459 -93.3636C155.215 -93.3636 154.206 -94.3719 154.206 -95.6158C154.206 -96.8597 155.215 -97.868 156.459 -97.868C157.702 -97.868 158.711 -96.8597 158.711 -95.6158Z"
    fill="currentColor" fill-opacity="0.3" />
  <path
    d="M187.239 -95.6158C187.239 -94.3719 186.231 -93.3636 184.987 -93.3636C183.743 -93.3636 182.735 -94.3719 182.735 -95.6158C182.735 -96.8597 183.743 -97.868 184.987 -97.868C186.231 -97.868 187.239 -96.8597 187.239 -95.6158Z"
    fill="currentColor" fill-opacity="0.3" />
  <path
    d="M215.768 -95.6158C215.768 -94.3719 214.759 -93.3636 213.515 -93.3636C212.271 -93.3636 211.263 -94.3719 211.263 -95.6158C211.263 -96.8597 212.271 -97.868 213.515 -97.868C214.759 -97.868 215.768 -96.8597 215.768 -95.6158Z"
    fill="currentColor" fill-opacity="0.3" />
  <path
    d="M244.296 -95.6158C244.296 -94.3719 243.288 -93.3636 242.044 -93.3636C240.8 -93.3636 239.791 -94.3719 239.791 -95.6158C239.791 -96.8597 240.8 -97.868 242.044 -97.868C243.288 -97.868 244.296 -96.8597 244.296 -95.6158Z"
    fill="currentColor" fill-opacity="0.3" />
  <path
    d="M272.824 -95.6158C272.824 -94.3719 271.816 -93.3636 270.572 -93.3636C269.328 -93.3636 268.32 -94.3719 268.32 -95.6158C268.32 -96.8597 269.328 -97.868 270.572 -97.868C271.816 -97.868 272.824 -96.8597 272.824 -95.6158Z"
    fill="currentColor" fill-opacity="0.3" />
  <path
    d="M301.353 -95.6158C301.353 -94.3719 300.344 -93.3636 299.1 -93.3636C297.856 -93.3636 296.848 -94.3719 296.848 -95.6158C296.848 -96.8597 297.856 -97.868 299.1 -97.868C300.344 -97.868 301.353 -96.8597 301.353 -95.6158Z"
    fill="currentColor" fill-opacity="0.3" />
  <path
    d="M329.881 -95.6158C329.881 -94.3719 328.873 -93.3636 327.629 -93.3636C326.385 -93.3636 325.376 -94.3719 325.376 -95.6158C325.376 -96.8597 326.385 -97.868 327.629 -97.868C328.873 -97.868 329.881 -96.8597 329.881 -95.6158Z"
    fill="currentColor" fill-opacity="0.3" />
  <path
    d="M358.409 -95.6158C358.409 -94.3719 357.401 -93.3636 356.157 -93.3636C354.913 -93.3636 353.905 -94.3719 353.905 -95.6158C353.905 -96.8597 354.913 -97.868 356.157 -97.868C357.401 -97.868 358.409 -96.8597 358.409 -95.6158Z"
    fill="currentColor" fill-opacity="0.3" />
  <path
    d="M386.938 -95.6158C386.938 -94.3719 385.929 -93.3636 384.685 -93.3636C383.442 -93.3636 382.433 -94.3719 382.433 -95.6158C382.433 -96.8597 383.442 -97.868 384.685 -97.868C385.929 -97.868 386.938 -96.8597 386.938 -95.6158Z"
    fill="currentColor" fill-opacity="0.3" />
  <path
    d="M415.466 -95.6158C415.466 -94.3719 414.458 -93.3636 413.214 -93.3636C411.97 -93.3636 410.962 -94.3719 410.962 -95.6158C410.962 -96.8597 411.97 -97.868 413.214 -97.868C414.458 -97.868 415.466 -96.8597 415.466 -95.6158Z"
    fill="currentColor" fill-opacity="0.3" />
  <path
    d="M443.994 -95.6158C443.994 -94.3719 442.986 -93.3636 441.742 -93.3636C440.498 -93.3636 439.49 -94.3719 439.49 -95.6158C439.49 -96.8597 440.498 -97.868 441.742 -97.868C442.986 -97.868 443.994 -96.8597 443.994 -95.6158Z"
    fill="currentColor" fill-opacity="0.3" />
  <path
    d="M-40.9877 -67.0875C-40.9877 -65.8436 -41.9961 -64.8352 -43.2399 -64.8352C-44.4838 -64.8352 -45.4922 -65.8436 -45.4922 -67.0875C-45.4922 -68.3313 -44.4838 -69.3397 -43.2399 -69.3397C-41.9961 -69.3397 -40.9877 -68.3313 -40.9877 -67.0875Z"
    fill="currentColor" fill-opacity="0.3" />
  <path
    d="M-12.4594 -67.0875C-12.4594 -65.8436 -13.4677 -64.8352 -14.7116 -64.8352C-15.9555 -64.8352 -16.9638 -65.8436 -16.9638 -67.0875C-16.9638 -68.3313 -15.9555 -69.3397 -14.7116 -69.3397C-13.4677 -69.3397 -12.4594 -68.3313 -12.4594 -67.0875Z"
    fill="currentColor" fill-opacity="0.3" />
  <path
    d="M16.069 -67.0875C16.069 -65.8436 15.0606 -64.8352 13.8168 -64.8352C12.5729 -64.8352 11.5645 -65.8436 11.5645 -67.0875C11.5645 -68.3313 12.5729 -69.3397 13.8168 -69.3397C15.0606 -69.3397 16.069 -68.3313 16.069 -67.0875Z"
    fill="currentColor" fill-opacity="0.3" />
  <path
    d="M44.5974 -67.0875C44.5974 -65.8436 43.589 -64.8352 42.3451 -64.8352C41.1012 -64.8352 40.0929 -65.8436 40.0929 -67.0875C40.0929 -68.3313 41.1012 -69.3397 42.3451 -69.3397C43.589 -69.3397 44.5974 -68.3313 44.5974 -67.0875Z"
    fill="currentColor" fill-opacity="0.3" />
  <path
    d="M73.1257 -67.0875C73.1257 -65.8436 72.1174 -64.8352 70.8735 -64.8352C69.6296 -64.8352 68.6212 -65.8436 68.6212 -67.0875C68.6212 -68.3313 69.6296 -69.3397 70.8735 -69.3397C72.1174 -69.3397 73.1257 -68.3313 73.1257 -67.0875Z"
    fill="currentColor" fill-opacity="0.3" />
  <path
    d="M101.654 -67.0875C101.654 -65.8436 100.646 -64.8352 99.4018 -64.8352C98.158 -64.8352 97.1496 -65.8436 97.1496 -67.0875C97.1496 -68.3313 98.158 -69.3397 99.4018 -69.3397C100.646 -69.3397 101.654 -68.3313 101.654 -67.0875Z"
    fill="currentColor" fill-opacity="0.3" />
  <path
    d="M130.182 -67.0875C130.182 -65.8436 129.174 -64.8352 127.93 -64.8352C126.686 -64.8352 125.678 -65.8436 125.678 -67.0875C125.678 -68.3313 126.686 -69.3397 127.93 -69.3397C129.174 -69.3397 130.182 -68.3313 130.182 -67.0875Z"
    fill="currentColor" fill-opacity="0.3" />
  <path
    d="M158.711 -67.0875C158.711 -65.8436 157.702 -64.8352 156.459 -64.8352C155.215 -64.8352 154.206 -65.8436 154.206 -67.0875C154.206 -68.3313 155.215 -69.3397 156.459 -69.3397C157.702 -69.3397 158.711 -68.3313 158.711 -67.0875Z"
    fill="currentColor" fill-opacity="0.3" />
  <path
    d="M187.239 -67.0875C187.239 -65.8436 186.231 -64.8352 184.987 -64.8352C183.743 -64.8352 182.735 -65.8436 182.735 -67.0875C182.735 -68.3313 183.743 -69.3397 184.987 -69.3397C186.231 -69.3397 187.239 -68.3313 187.239 -67.0875Z"
    fill="currentColor" fill-opacity="0.3" />
  <path
    d="M215.768 -67.0875C215.768 -65.8436 214.759 -64.8352 213.515 -64.8352C212.271 -64.8352 211.263 -65.8436 211.263 -67.0875C211.263 -68.3313 212.271 -69.3397 213.515 -69.3397C214.759 -69.3397 215.768 -68.3313 215.768 -67.0875Z"
    fill="currentColor" fill-opacity="0.3" />
  <path
    d="M244.296 -67.0875C244.296 -65.8436 243.288 -64.8352 242.044 -64.8352C240.8 -64.8352 239.791 -65.8436 239.791 -67.0875C239.791 -68.3313 240.8 -69.3397 242.044 -69.3397C243.288 -69.3397 244.296 -68.3313 244.296 -67.0875Z"
    fill="currentColor" fill-opacity="0.3" />
  <path
    d="M272.824 -67.0875C272.824 -65.8436 271.816 -64.8352 270.572 -64.8352C269.328 -64.8352 268.32 -65.8436 268.32 -67.0875C268.32 -68.3313 269.328 -69.3397 270.572 -69.3397C271.816 -69.3397 272.824 -68.3313 272.824 -67.0875Z"
    fill="currentColor" fill-opacity="0.3" />
  <path
    d="M301.353 -67.0875C301.353 -65.8436 300.344 -64.8352 299.1 -64.8352C297.856 -64.8352 296.848 -65.8436 296.848 -67.0875C296.848 -68.3313 297.856 -69.3397 299.1 -69.3397C300.344 -69.3397 301.353 -68.3313 301.353 -67.0875Z"
    fill="currentColor" fill-opacity="0.3" />
  <path
    d="M329.881 -67.0875C329.881 -65.8436 328.873 -64.8352 327.629 -64.8352C326.385 -64.8352 325.376 -65.8436 325.376 -67.0875C325.376 -68.3313 326.385 -69.3397 327.629 -69.3397C328.873 -69.3397 329.881 -68.3313 329.881 -67.0875Z"
    fill="currentColor" fill-opacity="0.3" />
  <path
    d="M358.409 -67.0875C358.409 -65.8436 357.401 -64.8352 356.157 -64.8352C354.913 -64.8352 353.905 -65.8436 353.905 -67.0875C353.905 -68.3313 354.913 -69.3397 356.157 -69.3397C357.401 -69.3397 358.409 -68.3313 358.409 -67.0875Z"
    fill="currentColor" fill-opacity="0.3" />
  <path
    d="M386.938 -67.0875C386.938 -65.8436 385.929 -64.8352 384.685 -64.8352C383.442 -64.8352 382.433 -65.8436 382.433 -67.0875C382.433 -68.3313 383.442 -69.3397 384.685 -69.3397C385.929 -69.3397 386.938 -68.3313 386.938 -67.0875Z"
    fill="currentColor" fill-opacity="0.3" />
  <path
    d="M415.466 -67.0875C415.466 -65.8436 414.458 -64.8352 413.214 -64.8352C411.97 -64.8352 410.962 -65.8436 410.962 -67.0875C410.962 -68.3313 411.97 -69.3397 413.214 -69.3397C414.458 -69.3397 415.466 -68.3313 415.466 -67.0875Z"
    fill="currentColor" fill-opacity="0.3" />
  <path
    d="M443.994 -67.0875C443.994 -65.8436 442.986 -64.8352 441.742 -64.8352C440.498 -64.8352 439.49 -65.8436 439.49 -67.0875C439.49 -68.3313 440.498 -69.3397 441.742 -69.3397C442.986 -69.3397 443.994 -68.3313 443.994 -67.0875Z"
    fill="currentColor" fill-opacity="0.3" />
  <path
    d="M-40.9877 -38.5591C-40.9877 -37.3152 -41.9961 -36.3069 -43.2399 -36.3069C-44.4838 -36.3069 -45.4922 -37.3152 -45.4922 -38.5591C-45.4922 -39.803 -44.4838 -40.8113 -43.2399 -40.8113C-41.9961 -40.8113 -40.9877 -39.803 -40.9877 -38.5591Z"
    fill="currentColor" fill-opacity="0.3" />
  <path
    d="M-12.4594 -38.5591C-12.4594 -37.3152 -13.4677 -36.3069 -14.7116 -36.3069C-15.9555 -36.3069 -16.9638 -37.3152 -16.9638 -38.5591C-16.9638 -39.803 -15.9555 -40.8113 -14.7116 -40.8113C-13.4677 -40.8113 -12.4594 -39.803 -12.4594 -38.5591Z"
    fill="currentColor" fill-opacity="0.3" />
  <path
    d="M16.069 -38.5591C16.069 -37.3152 15.0606 -36.3069 13.8168 -36.3069C12.5729 -36.3069 11.5645 -37.3152 11.5645 -38.5591C11.5645 -39.803 12.5729 -40.8113 13.8168 -40.8113C15.0606 -40.8113 16.069 -39.803 16.069 -38.5591Z"
    fill="currentColor" fill-opacity="0.3" />
  <path
    d="M44.5974 -38.5591C44.5974 -37.3152 43.589 -36.3069 42.3451 -36.3069C41.1012 -36.3069 40.0929 -37.3152 40.0929 -38.5591C40.0929 -39.803 41.1012 -40.8113 42.3451 -40.8113C43.589 -40.8113 44.5974 -39.803 44.5974 -38.5591Z"
    fill="currentColor" fill-opacity="0.3" />
  <path
    d="M73.1257 -38.5591C73.1257 -37.3152 72.1174 -36.3069 70.8735 -36.3069C69.6296 -36.3069 68.6212 -37.3152 68.6212 -38.5591C68.6212 -39.803 69.6296 -40.8113 70.8735 -40.8113C72.1174 -40.8113 73.1257 -39.803 73.1257 -38.5591Z"
    fill="currentColor" fill-opacity="0.3" />
  <path
    d="M101.654 -38.5591C101.654 -37.3152 100.646 -36.3069 99.4018 -36.3069C98.158 -36.3069 97.1496 -37.3152 97.1496 -38.5591C97.1496 -39.803 98.158 -40.8113 99.4018 -40.8113C100.646 -40.8113 101.654 -39.803 101.654 -38.5591Z"
    fill="currentColor" fill-opacity="0.3" />
  <path
    d="M130.182 -38.5591C130.182 -37.3152 129.174 -36.3069 127.93 -36.3069C126.686 -36.3069 125.678 -37.3152 125.678 -38.5591C125.678 -39.803 126.686 -40.8113 127.93 -40.8113C129.174 -40.8113 130.182 -39.803 130.182 -38.5591Z"
    fill="currentColor" fill-opacity="0.3" />
  <path
    d="M158.711 -38.5591C158.711 -37.3152 157.702 -36.3069 156.459 -36.3069C155.215 -36.3069 154.206 -37.3152 154.206 -38.5591C154.206 -39.803 155.215 -40.8113 156.459 -40.8113C157.702 -40.8113 158.711 -39.803 158.711 -38.5591Z"
    fill="currentColor" fill-opacity="0.3" />
  <path
    d="M187.239 -38.5591C187.239 -37.3152 186.231 -36.3069 184.987 -36.3069C183.743 -36.3069 182.735 -37.3152 182.735 -38.5591C182.735 -39.803 183.743 -40.8113 184.987 -40.8113C186.231 -40.8113 187.239 -39.803 187.239 -38.5591Z"
    fill="currentColor" fill-opacity="0.3" />
  <path
    d="M215.768 -38.5591C215.768 -37.3152 214.759 -36.3069 213.515 -36.3069C212.271 -36.3069 211.263 -37.3152 211.263 -38.5591C211.263 -39.803 212.271 -40.8113 213.515 -40.8113C214.759 -40.8113 215.768 -39.803 215.768 -38.5591Z"
    fill="currentColor" fill-opacity="0.3" />
  <path
    d="M244.296 -38.5591C244.296 -37.3152 243.288 -36.3069 242.044 -36.3069C240.8 -36.3069 239.791 -37.3152 239.791 -38.5591C239.791 -39.803 240.8 -40.8113 242.044 -40.8113C243.288 -40.8113 244.296 -39.803 244.296 -38.5591Z"
    fill="currentColor" fill-opacity="0.3" />
  <path
    d="M272.824 -38.5591C272.824 -37.3152 271.816 -36.3069 270.572 -36.3069C269.328 -36.3069 268.32 -37.3152 268.32 -38.5591C268.32 -39.803 269.328 -40.8113 270.572 -40.8113C271.816 -40.8113 272.824 -39.803 272.824 -38.5591Z"
    fill="currentColor" fill-opacity="0.3" />
  <path
    d="M301.353 -38.5591C301.353 -37.3152 300.344 -36.3069 299.1 -36.3069C297.856 -36.3069 296.848 -37.3152 296.848 -38.5591C296.848 -39.803 297.856 -40.8113 299.1 -40.8113C300.344 -40.8113 301.353 -39.803 301.353 -38.5591Z"
    fill="currentColor" fill-opacity="0.3" />
  <path
    d="M329.881 -38.5591C329.881 -37.3152 328.873 -36.3069 327.629 -36.3069C326.385 -36.3069 325.376 -37.3152 325.376 -38.5591C325.376 -39.803 326.385 -40.8113 327.629 -40.8113C328.873 -40.8113 329.881 -39.803 329.881 -38.5591Z"
    fill="currentColor" fill-opacity="0.3" />
  <path
    d="M358.409 -38.5591C358.409 -37.3152 357.401 -36.3069 356.157 -36.3069C354.913 -36.3069 353.905 -37.3152 353.905 -38.5591C353.905 -39.803 354.913 -40.8113 356.157 -40.8113C357.401 -40.8113 358.409 -39.803 358.409 -38.5591Z"
    fill="currentColor" fill-opacity="0.3" />
  <path
    d="M386.938 -38.5591C386.938 -37.3152 385.929 -36.3069 384.685 -36.3069C383.442 -36.3069 382.433 -37.3152 382.433 -38.5591C382.433 -39.803 383.442 -40.8113 384.685 -40.8113C385.929 -40.8113 386.938 -39.803 386.938 -38.5591Z"
    fill="currentColor" fill-opacity="0.3" />
  <path
    d="M415.466 -38.5591C415.466 -37.3152 414.458 -36.3069 413.214 -36.3069C411.97 -36.3069 410.962 -37.3152 410.962 -38.5591C410.962 -39.803 411.97 -40.8113 413.214 -40.8113C414.458 -40.8113 415.466 -39.803 415.466 -38.5591Z"
    fill="currentColor" fill-opacity="0.3" />
  <path
    d="M443.994 -38.5591C443.994 -37.3152 442.986 -36.3069 441.742 -36.3069C440.498 -36.3069 439.49 -37.3152 439.49 -38.5591C439.49 -39.803 440.498 -40.8113 441.742 -40.8113C442.986 -40.8113 443.994 -39.803 443.994 -38.5591Z"
    fill="currentColor" fill-opacity="0.3" />
  <path
    d="M-40.9877 -10.0307C-40.9877 -8.78687 -41.9961 -7.7785 -43.2399 -7.7785C-44.4838 -7.7785 -45.4922 -8.78687 -45.4922 -10.0307C-45.4922 -11.2746 -44.4838 -12.283 -43.2399 -12.283C-41.9961 -12.283 -40.9877 -11.2746 -40.9877 -10.0307Z"
    fill="currentColor" fill-opacity="0.3" />
  <path
    d="M-12.4594 -10.0307C-12.4594 -8.78687 -13.4677 -7.7785 -14.7116 -7.7785C-15.9555 -7.7785 -16.9638 -8.78687 -16.9638 -10.0307C-16.9638 -11.2746 -15.9555 -12.283 -14.7116 -12.283C-13.4677 -12.283 -12.4594 -11.2746 -12.4594 -10.0307Z"
    fill="currentColor" fill-opacity="0.3" />
  <path
    d="M16.069 -10.0307C16.069 -8.78687 15.0606 -7.7785 13.8168 -7.7785C12.5729 -7.7785 11.5645 -8.78687 11.5645 -10.0307C11.5645 -11.2746 12.5729 -12.283 13.8168 -12.283C15.0606 -12.283 16.069 -11.2746 16.069 -10.0307Z"
    fill="currentColor" fill-opacity="0.3" />
  <path
    d="M44.5974 -10.0307C44.5974 -8.78687 43.589 -7.7785 42.3451 -7.7785C41.1012 -7.7785 40.0929 -8.78687 40.0929 -10.0307C40.0929 -11.2746 41.1012 -12.283 42.3451 -12.283C43.589 -12.283 44.5974 -11.2746 44.5974 -10.0307Z"
    fill="currentColor" fill-opacity="0.3" />
  <path
    d="M73.1257 -10.0307C73.1257 -8.78687 72.1174 -7.7785 70.8735 -7.7785C69.6296 -7.7785 68.6212 -8.78687 68.6212 -10.0307C68.6212 -11.2746 69.6296 -12.283 70.8735 -12.283C72.1174 -12.283 73.1257 -11.2746 73.1257 -10.0307Z"
    fill="currentColor" fill-opacity="0.3" />
  <path
    d="M101.654 -10.0307C101.654 -8.78687 100.646 -7.7785 99.4018 -7.7785C98.158 -7.7785 97.1496 -8.78687 97.1496 -10.0307C97.1496 -11.2746 98.158 -12.283 99.4018 -12.283C100.646 -12.283 101.654 -11.2746 101.654 -10.0307Z"
    fill="currentColor" fill-opacity="0.3" />
  <path
    d="M130.182 -10.0307C130.182 -8.78687 129.174 -7.7785 127.93 -7.7785C126.686 -7.7785 125.678 -8.78687 125.678 -10.0307C125.678 -11.2746 126.686 -12.283 127.93 -12.283C129.174 -12.283 130.182 -11.2746 130.182 -10.0307Z"
    fill="currentColor" fill-opacity="0.3" />
  <path
    d="M158.711 -10.0307C158.711 -8.78687 157.702 -7.7785 156.459 -7.7785C155.215 -7.7785 154.206 -8.78687 154.206 -10.0307C154.206 -11.2746 155.215 -12.283 156.459 -12.283C157.702 -12.283 158.711 -11.2746 158.711 -10.0307Z"
    fill="currentColor" fill-opacity="0.3" />
  <path
    d="M187.239 -10.0307C187.239 -8.78687 186.231 -7.7785 184.987 -7.7785C183.743 -7.7785 182.735 -8.78687 182.735 -10.0307C182.735 -11.2746 183.743 -12.283 184.987 -12.283C186.231 -12.283 187.239 -11.2746 187.239 -10.0307Z"
    fill="currentColor" fill-opacity="0.3" />
  <path
    d="M215.768 -10.0307C215.768 -8.78687 214.759 -7.7785 213.515 -7.7785C212.271 -7.7785 211.263 -8.78687 211.263 -10.0307C211.263 -11.2746 212.271 -12.283 213.515 -12.283C214.759 -12.283 215.768 -11.2746 215.768 -10.0307Z"
    fill="currentColor" fill-opacity="0.3" />
  <path
    d="M244.296 -10.0307C244.296 -8.78687 243.288 -7.7785 242.044 -7.7785C240.8 -7.7785 239.791 -8.78687 239.791 -10.0307C239.791 -11.2746 240.8 -12.283 242.044 -12.283C243.288 -12.283 244.296 -11.2746 244.296 -10.0307Z"
    fill="currentColor" fill-opacity="0.3" />
  <path
    d="M272.824 -10.0307C272.824 -8.78687 271.816 -7.7785 270.572 -7.7785C269.328 -7.7785 268.32 -8.78687 268.32 -10.0307C268.32 -11.2746 269.328 -12.283 270.572 -12.283C271.816 -12.283 272.824 -11.2746 272.824 -10.0307Z"
    fill="currentColor" fill-opacity="0.3" />
  <path
    d="M301.353 -10.0307C301.353 -8.78687 300.344 -7.7785 299.1 -7.7785C297.856 -7.7785 296.848 -8.78687 296.848 -10.0307C296.848 -11.2746 297.856 -12.283 299.1 -12.283C300.344 -12.283 301.353 -11.2746 301.353 -10.0307Z"
    fill="currentColor" fill-opacity="0.3" />
  <path
    d="M329.881 -10.0307C329.881 -8.78687 328.873 -7.7785 327.629 -7.7785C326.385 -7.7785 325.376 -8.78687 325.376 -10.0307C325.376 -11.2746 326.385 -12.283 327.629 -12.283C328.873 -12.283 329.881 -11.2746 329.881 -10.0307Z"
    fill="currentColor" fill-opacity="0.3" />
  <path
    d="M358.409 -10.0307C358.409 -8.78687 357.401 -7.7785 356.157 -7.7785C354.913 -7.7785 353.905 -8.78687 353.905 -10.0307C353.905 -11.2746 354.913 -12.283 356.157 -12.283C357.401 -12.283 358.409 -11.2746 358.409 -10.0307Z"
    fill="currentColor" fill-opacity="0.3" />
  <path
    d="M386.938 -10.0307C386.938 -8.78687 385.929 -7.7785 384.685 -7.7785C383.442 -7.7785 382.433 -8.78687 382.433 -10.0307C382.433 -11.2746 383.442 -12.283 384.685 -12.283C385.929 -12.283 386.938 -11.2746 386.938 -10.0307Z"
    fill="currentColor" fill-opacity="0.3" />
  <path
    d="M415.466 -10.0307C415.466 -8.78687 414.458 -7.7785 413.214 -7.7785C411.97 -7.7785 410.962 -8.78687 410.962 -10.0307C410.962 -11.2746 411.97 -12.283 413.214 -12.283C414.458 -12.283 415.466 -11.2746 415.466 -10.0307Z"
    fill="currentColor" fill-opacity="0.3" />
  <path
    d="M443.994 -10.0307C443.994 -8.78687 442.986 -7.7785 441.742 -7.7785C440.498 -7.7785 439.49 -8.78687 439.49 -10.0307C439.49 -11.2746 440.498 -12.283 441.742 -12.283C442.986 -12.283 443.994 -11.2746 443.994 -10.0307Z"
    fill="currentColor" fill-opacity="0.3" />
  <path
    d="M-40.9877 18.4976C-40.9877 19.7415 -41.9961 20.7498 -43.2399 20.7498C-44.4838 20.7498 -45.4922 19.7415 -45.4922 18.4976C-45.4922 17.2537 -44.4838 16.2454 -43.2399 16.2454C-41.9961 16.2454 -40.9877 17.2537 -40.9877 18.4976Z"
    fill="currentColor" fill-opacity="0.3" />
  <path
    d="M-12.4594 18.4976C-12.4594 19.7415 -13.4677 20.7498 -14.7116 20.7498C-15.9555 20.7498 -16.9638 19.7415 -16.9638 18.4976C-16.9638 17.2537 -15.9555 16.2454 -14.7116 16.2454C-13.4677 16.2454 -12.4594 17.2537 -12.4594 18.4976Z"
    fill="currentColor" fill-opacity="0.3" />
  <path
    d="M16.069 18.4976C16.069 19.7415 15.0606 20.7498 13.8168 20.7498C12.5729 20.7498 11.5645 19.7415 11.5645 18.4976C11.5645 17.2537 12.5729 16.2454 13.8168 16.2454C15.0606 16.2454 16.069 17.2537 16.069 18.4976Z"
    fill="currentColor" fill-opacity="0.3" />
  <path
    d="M44.5974 18.4976C44.5974 19.7415 43.589 20.7498 42.3451 20.7498C41.1012 20.7498 40.0929 19.7415 40.0929 18.4976C40.0929 17.2537 41.1012 16.2454 42.3451 16.2454C43.589 16.2454 44.5974 17.2537 44.5974 18.4976Z"
    fill="currentColor" fill-opacity="0.3" />
  <path
    d="M73.1257 18.4976C73.1257 19.7415 72.1174 20.7498 70.8735 20.7498C69.6296 20.7498 68.6212 19.7415 68.6212 18.4976C68.6212 17.2537 69.6296 16.2454 70.8735 16.2454C72.1174 16.2454 73.1257 17.2537 73.1257 18.4976Z"
    fill="currentColor" fill-opacity="0.3" />
  <path
    d="M101.654 18.4976C101.654 19.7415 100.646 20.7498 99.4018 20.7498C98.158 20.7498 97.1496 19.7415 97.1496 18.4976C97.1496 17.2537 98.158 16.2454 99.4018 16.2454C100.646 16.2454 101.654 17.2537 101.654 18.4976Z"
    fill="currentColor" fill-opacity="0.3" />
  <path
    d="M130.182 18.4976C130.182 19.7415 129.174 20.7498 127.93 20.7498C126.686 20.7498 125.678 19.7415 125.678 18.4976C125.678 17.2537 126.686 16.2454 127.93 16.2454C129.174 16.2454 130.182 17.2537 130.182 18.4976Z"
    fill="currentColor" fill-opacity="0.3" />
  <path
    d="M158.711 18.4976C158.711 19.7415 157.702 20.7498 156.459 20.7498C155.215 20.7498 154.206 19.7415 154.206 18.4976C154.206 17.2537 155.215 16.2454 156.459 16.2454C157.702 16.2454 158.711 17.2537 158.711 18.4976Z"
    fill="currentColor" fill-opacity="0.3" />
  <path
    d="M187.239 18.4976C187.239 19.7415 186.231 20.7498 184.987 20.7498C183.743 20.7498 182.735 19.7415 182.735 18.4976C182.735 17.2537 183.743 16.2454 184.987 16.2454C186.231 16.2454 187.239 17.2537 187.239 18.4976Z"
    fill="currentColor" fill-opacity="0.3" />
  <path
    d="M215.768 18.4976C215.768 19.7415 214.759 20.7498 213.515 20.7498C212.271 20.7498 211.263 19.7415 211.263 18.4976C211.263 17.2537 212.271 16.2454 213.515 16.2454C214.759 16.2454 215.768 17.2537 215.768 18.4976Z"
    fill="currentColor" fill-opacity="0.3" />
  <path
    d="M244.296 18.4976C244.296 19.7415 243.288 20.7498 242.044 20.7498C240.8 20.7498 239.791 19.7415 239.791 18.4976C239.791 17.2537 240.8 16.2454 242.044 16.2454C243.288 16.2454 244.296 17.2537 244.296 18.4976Z"
    fill="currentColor" fill-opacity="0.3" />
  <path
    d="M272.824 18.4976C272.824 19.7415 271.816 20.7498 270.572 20.7498C269.328 20.7498 268.32 19.7415 268.32 18.4976C268.32 17.2537 269.328 16.2454 270.572 16.2454C271.816 16.2454 272.824 17.2537 272.824 18.4976Z"
    fill="currentColor" fill-opacity="0.3" />
  <path
    d="M301.353 18.4976C301.353 19.7415 300.344 20.7498 299.1 20.7498C297.856 20.7498 296.848 19.7415 296.848 18.4976C296.848 17.2537 297.856 16.2454 299.1 16.2454C300.344 16.2454 301.353 17.2537 301.353 18.4976Z"
    fill="currentColor" fill-opacity="0.3" />
  <path
    d="M329.881 18.4976C329.881 19.7415 328.873 20.7498 327.629 20.7498C326.385 20.7498 325.376 19.7415 325.376 18.4976C325.376 17.2537 326.385 16.2454 327.629 16.2454C328.873 16.2454 329.881 17.2537 329.881 18.4976Z"
    fill="currentColor" fill-opacity="0.3" />
  <path
    d="M358.409 18.4976C358.409 19.7415 357.401 20.7498 356.157 20.7498C354.913 20.7498 353.905 19.7415 353.905 18.4976C353.905 17.2537 354.913 16.2454 356.157 16.2454C357.401 16.2454 358.409 17.2537 358.409 18.4976Z"
    fill="currentColor" fill-opacity="0.3" />
  <path
    d="M386.938 18.4976C386.938 19.7415 385.929 20.7498 384.685 20.7498C383.442 20.7498 382.433 19.7415 382.433 18.4976C382.433 17.2537 383.442 16.2454 384.685 16.2454C385.929 16.2454 386.938 17.2537 386.938 18.4976Z"
    fill="currentColor" fill-opacity="0.3" />
  <path
    d="M415.466 18.4976C415.466 19.7415 414.458 20.7498 413.214 20.7498C411.97 20.7498 410.962 19.7415 410.962 18.4976C410.962 17.2537 411.97 16.2454 413.214 16.2454C414.458 16.2454 415.466 17.2537 415.466 18.4976Z"
    fill="currentColor" fill-opacity="0.3" />
  <path
    d="M443.994 18.4976C443.994 19.7415 442.986 20.7498 441.742 20.7498C440.498 20.7498 439.49 19.7415 439.49 18.4976C439.49 17.2537 440.498 16.2454 441.742 16.2454C442.986 16.2454 443.994 17.2537 443.994 18.4976Z"
    fill="currentColor" fill-opacity="0.3" />
  <path
    d="M-40.9877 47.026C-40.9877 48.2699 -41.9961 49.2782 -43.2399 49.2782C-44.4838 49.2782 -45.4922 48.2699 -45.4922 47.026C-45.4922 45.7821 -44.4838 44.7737 -43.2399 44.7737C-41.9961 44.7737 -40.9877 45.7821 -40.9877 47.026Z"
    fill="currentColor" fill-opacity="0.3" />
  <path
    d="M-12.4594 47.026C-12.4594 48.2699 -13.4677 49.2782 -14.7116 49.2782C-15.9555 49.2782 -16.9638 48.2699 -16.9638 47.026C-16.9638 45.7821 -15.9555 44.7737 -14.7116 44.7737C-13.4677 44.7737 -12.4594 45.7821 -12.4594 47.026Z"
    fill="currentColor" fill-opacity="0.3" />
  <path
    d="M16.069 47.026C16.069 48.2699 15.0606 49.2782 13.8168 49.2782C12.5729 49.2782 11.5645 48.2699 11.5645 47.026C11.5645 45.7821 12.5729 44.7737 13.8168 44.7737C15.0606 44.7737 16.069 45.7821 16.069 47.026Z"
    fill="currentColor" fill-opacity="0.3" />
  <path
    d="M44.5974 47.026C44.5974 48.2699 43.589 49.2782 42.3451 49.2782C41.1012 49.2782 40.0929 48.2699 40.0929 47.026C40.0929 45.7821 41.1012 44.7737 42.3451 44.7737C43.589 44.7737 44.5974 45.7821 44.5974 47.026Z"
    fill="currentColor" fill-opacity="0.3" />
  <path
    d="M73.1257 47.026C73.1257 48.2699 72.1174 49.2782 70.8735 49.2782C69.6296 49.2782 68.6212 48.2699 68.6212 47.026C68.6212 45.7821 69.6296 44.7737 70.8735 44.7737C72.1174 44.7737 73.1257 45.7821 73.1257 47.026Z"
    fill="currentColor" fill-opacity="0.3" />
  <path
    d="M101.654 47.026C101.654 48.2699 100.646 49.2782 99.4018 49.2782C98.158 49.2782 97.1496 48.2699 97.1496 47.026C97.1496 45.7821 98.158 44.7737 99.4018 44.7737C100.646 44.7737 101.654 45.7821 101.654 47.026Z"
    fill="currentColor" fill-opacity="0.3" />
  <path
    d="M130.182 47.026C130.182 48.2699 129.174 49.2782 127.93 49.2782C126.686 49.2782 125.678 48.2699 125.678 47.026C125.678 45.7821 126.686 44.7737 127.93 44.7737C129.174 44.7737 130.182 45.7821 130.182 47.026Z"
    fill="currentColor" fill-opacity="0.3" />
  <path
    d="M158.711 47.026C158.711 48.2699 157.702 49.2782 156.459 49.2782C155.215 49.2782 154.206 48.2699 154.206 47.026C154.206 45.7821 155.215 44.7737 156.459 44.7737C157.702 44.7737 158.711 45.7821 158.711 47.026Z"
    fill="currentColor" fill-opacity="0.3" />
  <path
    d="M187.239 47.026C187.239 48.2699 186.231 49.2782 184.987 49.2782C183.743 49.2782 182.735 48.2699 182.735 47.026C182.735 45.7821 183.743 44.7737 184.987 44.7737C186.231 44.7737 187.239 45.7821 187.239 47.026Z"
    fill="currentColor" fill-opacity="0.3" />
  <path
    d="M215.768 47.026C215.768 48.2699 214.759 49.2782 213.515 49.2782C212.271 49.2782 211.263 48.2699 211.263 47.026C211.263 45.7821 212.271 44.7737 213.515 44.7737C214.759 44.7737 215.768 45.7821 215.768 47.026Z"
    fill="currentColor" fill-opacity="0.3" />
  <path
    d="M244.296 47.026C244.296 48.2699 243.288 49.2782 242.044 49.2782C240.8 49.2782 239.791 48.2699 239.791 47.026C239.791 45.7821 240.8 44.7737 242.044 44.7737C243.288 44.7737 244.296 45.7821 244.296 47.026Z"
    fill="currentColor" fill-opacity="0.3" />
  <path
    d="M272.824 47.026C272.824 48.2699 271.816 49.2782 270.572 49.2782C269.328 49.2782 268.32 48.2699 268.32 47.026C268.32 45.7821 269.328 44.7737 270.572 44.7737C271.816 44.7737 272.824 45.7821 272.824 47.026Z"
    fill="currentColor" fill-opacity="0.3" />
  <path
    d="M301.353 47.026C301.353 48.2699 300.344 49.2782 299.1 49.2782C297.856 49.2782 296.848 48.2699 296.848 47.026C296.848 45.7821 297.856 44.7737 299.1 44.7737C300.344 44.7737 301.353 45.7821 301.353 47.026Z"
    fill="currentColor" fill-opacity="0.3" />
  <path
    d="M329.881 47.026C329.881 48.2699 328.873 49.2782 327.629 49.2782C326.385 49.2782 325.376 48.2699 325.376 47.026C325.376 45.7821 326.385 44.7737 327.629 44.7737C328.873 44.7737 329.881 45.7821 329.881 47.026Z"
    fill="currentColor" fill-opacity="0.3" />
  <path
    d="M358.409 47.026C358.409 48.2699 357.401 49.2782 356.157 49.2782C354.913 49.2782 353.905 48.2699 353.905 47.026C353.905 45.7821 354.913 44.7737 356.157 44.7737C357.401 44.7737 358.409 45.7821 358.409 47.026Z"
    fill="currentColor" fill-opacity="0.3" />
  <path
    d="M386.938 47.026C386.938 48.2699 385.929 49.2782 384.685 49.2782C383.442 49.2782 382.433 48.2699 382.433 47.026C382.433 45.7821 383.442 44.7737 384.685 44.7737C385.929 44.7737 386.938 45.7821 386.938 47.026Z"
    fill="currentColor" fill-opacity="0.3" />
  <path
    d="M415.466 47.026C415.466 48.2699 414.458 49.2782 413.214 49.2782C411.97 49.2782 410.962 48.2699 410.962 47.026C410.962 45.7821 411.97 44.7737 413.214 44.7737C414.458 44.7737 415.466 45.7821 415.466 47.026Z"
    fill="currentColor" fill-opacity="0.3" />
  <path
    d="M443.994 47.026C443.994 48.2699 442.986 49.2782 441.742 49.2782C440.498 49.2782 439.49 48.2699 439.49 47.026C439.49 45.7821 440.498 44.7737 441.742 44.7737C442.986 44.7737 443.994 45.7821 443.994 47.026Z"
    fill="currentColor" fill-opacity="0.3" />
  <path
    d="M-40.9877 75.5543C-40.9877 76.7982 -41.9961 77.8066 -43.2399 77.8066C-44.4838 77.8066 -45.4922 76.7982 -45.4922 75.5543C-45.4922 74.3105 -44.4838 73.3021 -43.2399 73.3021C-41.9961 73.3021 -40.9877 74.3105 -40.9877 75.5543Z"
    fill="currentColor" fill-opacity="0.3" />
  <path
    d="M-12.4594 75.5543C-12.4594 76.7982 -13.4677 77.8066 -14.7116 77.8066C-15.9555 77.8066 -16.9638 76.7982 -16.9638 75.5543C-16.9638 74.3105 -15.9555 73.3021 -14.7116 73.3021C-13.4677 73.3021 -12.4594 74.3105 -12.4594 75.5543Z"
    fill="currentColor" fill-opacity="0.3" />
  <path
    d="M16.069 75.5543C16.069 76.7982 15.0606 77.8066 13.8168 77.8066C12.5729 77.8066 11.5645 76.7982 11.5645 75.5543C11.5645 74.3105 12.5729 73.3021 13.8168 73.3021C15.0606 73.3021 16.069 74.3105 16.069 75.5543Z"
    fill="currentColor" fill-opacity="0.3" />
  <path
    d="M44.5974 75.5543C44.5974 76.7982 43.589 77.8066 42.3451 77.8066C41.1012 77.8066 40.0929 76.7982 40.0929 75.5543C40.0929 74.3105 41.1012 73.3021 42.3451 73.3021C43.589 73.3021 44.5974 74.3105 44.5974 75.5543Z"
    fill="currentColor" fill-opacity="0.3" />
  <path
    d="M73.1257 75.5543C73.1257 76.7982 72.1174 77.8066 70.8735 77.8066C69.6296 77.8066 68.6212 76.7982 68.6212 75.5543C68.6212 74.3105 69.6296 73.3021 70.8735 73.3021C72.1174 73.3021 73.1257 74.3105 73.1257 75.5543Z"
    fill="currentColor" fill-opacity="0.3" />
  <path
    d="M101.654 75.5543C101.654 76.7982 100.646 77.8066 99.4018 77.8066C98.158 77.8066 97.1496 76.7982 97.1496 75.5543C97.1496 74.3105 98.158 73.3021 99.4018 73.3021C100.646 73.3021 101.654 74.3105 101.654 75.5543Z"
    fill="currentColor" fill-opacity="0.3" />
  <path
    d="M130.182 75.5543C130.182 76.7982 129.174 77.8066 127.93 77.8066C126.686 77.8066 125.678 76.7982 125.678 75.5543C125.678 74.3105 126.686 73.3021 127.93 73.3021C129.174 73.3021 130.182 74.3105 130.182 75.5543Z"
    fill="currentColor" fill-opacity="0.3" />
  <path
    d="M158.711 75.5543C158.711 76.7982 157.702 77.8066 156.459 77.8066C155.215 77.8066 154.206 76.7982 154.206 75.5543C154.206 74.3105 155.215 73.3021 156.459 73.3021C157.702 73.3021 158.711 74.3105 158.711 75.5543Z"
    fill="currentColor" fill-opacity="0.3" />
  <path
    d="M187.239 75.5543C187.239 76.7982 186.231 77.8066 184.987 77.8066C183.743 77.8066 182.735 76.7982 182.735 75.5543C182.735 74.3105 183.743 73.3021 184.987 73.3021C186.231 73.3021 187.239 74.3105 187.239 75.5543Z"
    fill="currentColor" fill-opacity="0.3" />
  <path
    d="M215.768 75.5543C215.768 76.7982 214.759 77.8066 213.515 77.8066C212.271 77.8066 211.263 76.7982 211.263 75.5543C211.263 74.3105 212.271 73.3021 213.515 73.3021C214.759 73.3021 215.768 74.3105 215.768 75.5543Z"
    fill="currentColor" fill-opacity="0.3" />
  <path
    d="M244.296 75.5543C244.296 76.7982 243.288 77.8066 242.044 77.8066C240.8 77.8066 239.791 76.7982 239.791 75.5543C239.791 74.3105 240.8 73.3021 242.044 73.3021C243.288 73.3021 244.296 74.3105 244.296 75.5543Z"
    fill="currentColor" fill-opacity="0.3" />
  <path
    d="M272.824 75.5543C272.824 76.7982 271.816 77.8066 270.572 77.8066C269.328 77.8066 268.32 76.7982 268.32 75.5543C268.32 74.3105 269.328 73.3021 270.572 73.3021C271.816 73.3021 272.824 74.3105 272.824 75.5543Z"
    fill="currentColor" fill-opacity="0.3" />
  <path
    d="M301.353 75.5543C301.353 76.7982 300.344 77.8066 299.1 77.8066C297.856 77.8066 296.848 76.7982 296.848 75.5543C296.848 74.3105 297.856 73.3021 299.1 73.3021C300.344 73.3021 301.353 74.3105 301.353 75.5543Z"
    fill="currentColor" fill-opacity="0.3" />
  <path
    d="M329.881 75.5543C329.881 76.7982 328.873 77.8066 327.629 77.8066C326.385 77.8066 325.376 76.7982 325.376 75.5543C325.376 74.3105 326.385 73.3021 327.629 73.3021C328.873 73.3021 329.881 74.3105 329.881 75.5543Z"
    fill="currentColor" fill-opacity="0.3" />
  <path
    d="M358.409 75.5543C358.409 76.7982 357.401 77.8066 356.157 77.8066C354.913 77.8066 353.905 76.7982 353.905 75.5543C353.905 74.3105 354.913 73.3021 356.157 73.3021C357.401 73.3021 358.409 74.3105 358.409 75.5543Z"
    fill="currentColor" fill-opacity="0.3" />
  <path
    d="M386.938 75.5543C386.938 76.7982 385.929 77.8066 384.685 77.8066C383.442 77.8066 382.433 76.7982 382.433 75.5543C382.433 74.3105 383.442 73.3021 384.685 73.3021C385.929 73.3021 386.938 74.3105 386.938 75.5543Z"
    fill="currentColor" fill-opacity="0.3" />
  <path
    d="M415.466 75.5543C415.466 76.7982 414.458 77.8066 413.214 77.8066C411.97 77.8066 410.962 76.7982 410.962 75.5543C410.962 74.3105 411.97 73.3021 413.214 73.3021C414.458 73.3021 415.466 74.3105 415.466 75.5543Z"
    fill="currentColor" fill-opacity="0.3" />
  <path
    d="M443.994 75.5543C443.994 76.7982 442.986 77.8066 441.742 77.8066C440.498 77.8066 439.49 76.7982 439.49 75.5543C439.49 74.3105 440.498 73.3021 441.742 73.3021C442.986 73.3021 443.994 74.3105 443.994 75.5543Z"
    fill="currentColor" fill-opacity="0.3" />
  <path
    d="M-40.9877 104.083C-40.9877 105.327 -41.9961 106.335 -43.2399 106.335C-44.4838 106.335 -45.4922 105.327 -45.4922 104.083C-45.4922 102.839 -44.4838 101.83 -43.2399 101.83C-41.9961 101.83 -40.9877 102.839 -40.9877 104.083Z"
    fill="currentColor" fill-opacity="0.3" />
  <path
    d="M-12.4594 104.083C-12.4594 105.327 -13.4677 106.335 -14.7116 106.335C-15.9555 106.335 -16.9638 105.327 -16.9638 104.083C-16.9638 102.839 -15.9555 101.83 -14.7116 101.83C-13.4677 101.83 -12.4594 102.839 -12.4594 104.083Z"
    fill="currentColor" fill-opacity="0.3" />
  <path
    d="M16.069 104.083C16.069 105.327 15.0606 106.335 13.8168 106.335C12.5729 106.335 11.5645 105.327 11.5645 104.083C11.5645 102.839 12.5729 101.83 13.8168 101.83C15.0606 101.83 16.069 102.839 16.069 104.083Z"
    fill="currentColor" fill-opacity="0.3" />
  <path
    d="M44.5974 104.083C44.5974 105.327 43.589 106.335 42.3451 106.335C41.1012 106.335 40.0929 105.327 40.0929 104.083C40.0929 102.839 41.1012 101.83 42.3451 101.83C43.589 101.83 44.5974 102.839 44.5974 104.083Z"
    fill="currentColor" fill-opacity="0.3" />
  <path
    d="M73.1257 104.083C73.1257 105.327 72.1174 106.335 70.8735 106.335C69.6296 106.335 68.6212 105.327 68.6212 104.083C68.6212 102.839 69.6296 101.83 70.8735 101.83C72.1174 101.83 73.1257 102.839 73.1257 104.083Z"
    fill="currentColor" fill-opacity="0.3" />
  <path
    d="M101.654 104.083C101.654 105.327 100.646 106.335 99.4018 106.335C98.158 106.335 97.1496 105.327 97.1496 104.083C97.1496 102.839 98.158 101.83 99.4018 101.83C100.646 101.83 101.654 102.839 101.654 104.083Z"
    fill="currentColor" fill-opacity="0.3" />
  <path
    d="M130.182 104.083C130.182 105.327 129.174 106.335 127.93 106.335C126.686 106.335 125.678 105.327 125.678 104.083C125.678 102.839 126.686 101.83 127.93 101.83C129.174 101.83 130.182 102.839 130.182 104.083Z"
    fill="currentColor" fill-opacity="0.3" />
  <path
    d="M158.711 104.083C158.711 105.327 157.702 106.335 156.459 106.335C155.215 106.335 154.206 105.327 154.206 104.083C154.206 102.839 155.215 101.83 156.459 101.83C157.702 101.83 158.711 102.839 158.711 104.083Z"
    fill="currentColor" fill-opacity="0.3" />
  <path
    d="M187.239 104.083C187.239 105.327 186.231 106.335 184.987 106.335C183.743 106.335 182.735 105.327 182.735 104.083C182.735 102.839 183.743 101.83 184.987 101.83C186.231 101.83 187.239 102.839 187.239 104.083Z"
    fill="currentColor" fill-opacity="0.3" />
  <path
    d="M215.768 104.083C215.768 105.327 214.759 106.335 213.515 106.335C212.271 106.335 211.263 105.327 211.263 104.083C211.263 102.839 212.271 101.83 213.515 101.83C214.759 101.83 215.768 102.839 215.768 104.083Z"
    fill="currentColor" fill-opacity="0.3" />
  <path
    d="M244.296 104.083C244.296 105.327 243.288 106.335 242.044 106.335C240.8 106.335 239.791 105.327 239.791 104.083C239.791 102.839 240.8 101.83 242.044 101.83C243.288 101.83 244.296 102.839 244.296 104.083Z"
    fill="currentColor" fill-opacity="0.3" />
  <path
    d="M272.824 104.083C272.824 105.327 271.816 106.335 270.572 106.335C269.328 106.335 268.32 105.327 268.32 104.083C268.32 102.839 269.328 101.83 270.572 101.83C271.816 101.83 272.824 102.839 272.824 104.083Z"
    fill="currentColor" fill-opacity="0.3" />
  <path
    d="M301.353 104.083C301.353 105.327 300.344 106.335 299.1 106.335C297.856 106.335 296.848 105.327 296.848 104.083C296.848 102.839 297.856 101.83 299.1 101.83C300.344 101.83 301.353 102.839 301.353 104.083Z"
    fill="currentColor" fill-opacity="0.3" />
  <path
    d="M329.881 104.083C329.881 105.327 328.873 106.335 327.629 106.335C326.385 106.335 325.376 105.327 325.376 104.083C325.376 102.839 326.385 101.83 327.629 101.83C328.873 101.83 329.881 102.839 329.881 104.083Z"
    fill="currentColor" fill-opacity="0.3" />
  <path
    d="M358.409 104.083C358.409 105.327 357.401 106.335 356.157 106.335C354.913 106.335 353.905 105.327 353.905 104.083C353.905 102.839 354.913 101.83 356.157 101.83C357.401 101.83 358.409 102.839 358.409 104.083Z"
    fill="currentColor" fill-opacity="0.3" />
  <path
    d="M386.938 104.083C386.938 105.327 385.929 106.335 384.685 106.335C383.442 106.335 382.433 105.327 382.433 104.083C382.433 102.839 383.442 101.83 384.685 101.83C385.929 101.83 386.938 102.839 386.938 104.083Z"
    fill="currentColor" fill-opacity="0.3" />
  <path
    d="M415.466 104.083C415.466 105.327 414.458 106.335 413.214 106.335C411.97 106.335 410.962 105.327 410.962 104.083C410.962 102.839 411.97 101.83 413.214 101.83C414.458 101.83 415.466 102.839 415.466 104.083Z"
    fill="currentColor" fill-opacity="0.3" />
  <path
    d="M443.994 104.083C443.994 105.327 442.986 106.335 441.742 106.335C440.498 106.335 439.49 105.327 439.49 104.083C439.49 102.839 440.498 101.83 441.742 101.83C442.986 101.83 443.994 102.839 443.994 104.083Z"
    fill="currentColor" fill-opacity="0.3" />
  <path
    d="M-40.9877 132.611C-40.9877 133.855 -41.9961 134.863 -43.2399 134.863C-44.4838 134.863 -45.4922 133.855 -45.4922 132.611C-45.4922 131.367 -44.4838 130.359 -43.2399 130.359C-41.9961 130.359 -40.9877 131.367 -40.9877 132.611Z"
    fill="currentColor" fill-opacity="0.3" />
  <path
    d="M-12.4594 132.611C-12.4594 133.855 -13.4677 134.863 -14.7116 134.863C-15.9555 134.863 -16.9638 133.855 -16.9638 132.611C-16.9638 131.367 -15.9555 130.359 -14.7116 130.359C-13.4677 130.359 -12.4594 131.367 -12.4594 132.611Z"
    fill="currentColor" fill-opacity="0.3" />
  <path
    d="M16.069 132.611C16.069 133.855 15.0606 134.863 13.8168 134.863C12.5729 134.863 11.5645 133.855 11.5645 132.611C11.5645 131.367 12.5729 130.359 13.8168 130.359C15.0606 130.359 16.069 131.367 16.069 132.611Z"
    fill="currentColor" fill-opacity="0.3" />
  <path
    d="M44.5974 132.611C44.5974 133.855 43.589 134.863 42.3451 134.863C41.1012 134.863 40.0929 133.855 40.0929 132.611C40.0929 131.367 41.1012 130.359 42.3451 130.359C43.589 130.359 44.5974 131.367 44.5974 132.611Z"
    fill="currentColor" fill-opacity="0.3" />
  <path
    d="M73.1257 132.611C73.1257 133.855 72.1174 134.863 70.8735 134.863C69.6296 134.863 68.6212 133.855 68.6212 132.611C68.6212 131.367 69.6296 130.359 70.8735 130.359C72.1174 130.359 73.1257 131.367 73.1257 132.611Z"
    fill="currentColor" fill-opacity="0.3" />
  <path
    d="M101.654 132.611C101.654 133.855 100.646 134.863 99.4018 134.863C98.158 134.863 97.1496 133.855 97.1496 132.611C97.1496 131.367 98.158 130.359 99.4018 130.359C100.646 130.359 101.654 131.367 101.654 132.611Z"
    fill="currentColor" fill-opacity="0.3" />
  <path
    d="M130.182 132.611C130.182 133.855 129.174 134.863 127.93 134.863C126.686 134.863 125.678 133.855 125.678 132.611C125.678 131.367 126.686 130.359 127.93 130.359C129.174 130.359 130.182 131.367 130.182 132.611Z"
    fill="currentColor" fill-opacity="0.3" />
  <path
    d="M158.711 132.611C158.711 133.855 157.702 134.863 156.459 134.863C155.215 134.863 154.206 133.855 154.206 132.611C154.206 131.367 155.215 130.359 156.459 130.359C157.702 130.359 158.711 131.367 158.711 132.611Z"
    fill="currentColor" fill-opacity="0.3" />
  <path
    d="M187.239 132.611C187.239 133.855 186.231 134.863 184.987 134.863C183.743 134.863 182.735 133.855 182.735 132.611C182.735 131.367 183.743 130.359 184.987 130.359C186.231 130.359 187.239 131.367 187.239 132.611Z"
    fill="currentColor" fill-opacity="0.3" />
  <path
    d="M215.768 132.611C215.768 133.855 214.759 134.863 213.515 134.863C212.271 134.863 211.263 133.855 211.263 132.611C211.263 131.367 212.271 130.359 213.515 130.359C214.759 130.359 215.768 131.367 215.768 132.611Z"
    fill="currentColor" fill-opacity="0.3" />
  <path
    d="M244.296 132.611C244.296 133.855 243.288 134.863 242.044 134.863C240.8 134.863 239.791 133.855 239.791 132.611C239.791 131.367 240.8 130.359 242.044 130.359C243.288 130.359 244.296 131.367 244.296 132.611Z"
    fill="currentColor" fill-opacity="0.3" />
  <path
    d="M272.824 132.611C272.824 133.855 271.816 134.863 270.572 134.863C269.328 134.863 268.32 133.855 268.32 132.611C268.32 131.367 269.328 130.359 270.572 130.359C271.816 130.359 272.824 131.367 272.824 132.611Z"
    fill="currentColor" fill-opacity="0.3" />
  <path
    d="M301.353 132.611C301.353 133.855 300.344 134.863 299.1 134.863C297.856 134.863 296.848 133.855 296.848 132.611C296.848 131.367 297.856 130.359 299.1 130.359C300.344 130.359 301.353 131.367 301.353 132.611Z"
    fill="currentColor" fill-opacity="0.3" />
  <path
    d="M329.881 132.611C329.881 133.855 328.873 134.863 327.629 134.863C326.385 134.863 325.376 133.855 325.376 132.611C325.376 131.367 326.385 130.359 327.629 130.359C328.873 130.359 329.881 131.367 329.881 132.611Z"
    fill="currentColor" fill-opacity="0.3" />
  <path
    d="M358.409 132.611C358.409 133.855 357.401 134.863 356.157 134.863C354.913 134.863 353.905 133.855 353.905 132.611C353.905 131.367 354.913 130.359 356.157 130.359C357.401 130.359 358.409 131.367 358.409 132.611Z"
    fill="currentColor" fill-opacity="0.3" />
  <path
    d="M386.938 132.611C386.938 133.855 385.929 134.863 384.685 134.863C383.442 134.863 382.433 133.855 382.433 132.611C382.433 131.367 383.442 130.359 384.685 130.359C385.929 130.359 386.938 131.367 386.938 132.611Z"
    fill="currentColor" fill-opacity="0.3" />
  <path
    d="M415.466 132.611C415.466 133.855 414.458 134.863 413.214 134.863C411.97 134.863 410.962 133.855 410.962 132.611C410.962 131.367 411.97 130.359 413.214 130.359C414.458 130.359 415.466 131.367 415.466 132.611Z"
    fill="currentColor" fill-opacity="0.3" />
  <path
    d="M443.994 132.611C443.994 133.855 442.986 134.863 441.742 134.863C440.498 134.863 439.49 133.855 439.49 132.611C439.49 131.367 440.498 130.359 441.742 130.359C442.986 130.359 443.994 131.367 443.994 132.611Z"
    fill="currentColor" fill-opacity="0.3" />
  <path
    d="M-40.9877 161.139C-40.9877 162.383 -41.9961 163.392 -43.2399 163.392C-44.4838 163.392 -45.4922 162.383 -45.4922 161.139C-45.4922 159.896 -44.4838 158.887 -43.2399 158.887C-41.9961 158.887 -40.9877 159.896 -40.9877 161.139Z"
    fill="currentColor" fill-opacity="0.3" />
  <path
    d="M-12.4594 161.139C-12.4594 162.383 -13.4677 163.392 -14.7116 163.392C-15.9555 163.392 -16.9638 162.383 -16.9638 161.139C-16.9638 159.896 -15.9555 158.887 -14.7116 158.887C-13.4677 158.887 -12.4594 159.896 -12.4594 161.139Z"
    fill="currentColor" fill-opacity="0.3" />
  <path
    d="M16.069 161.139C16.069 162.383 15.0606 163.392 13.8168 163.392C12.5729 163.392 11.5645 162.383 11.5645 161.139C11.5645 159.896 12.5729 158.887 13.8168 158.887C15.0606 158.887 16.069 159.896 16.069 161.139Z"
    fill="currentColor" fill-opacity="0.3" />
  <path
    d="M44.5974 161.139C44.5974 162.383 43.589 163.392 42.3451 163.392C41.1012 163.392 40.0929 162.383 40.0929 161.139C40.0929 159.896 41.1012 158.887 42.3451 158.887C43.589 158.887 44.5974 159.896 44.5974 161.139Z"
    fill="currentColor" fill-opacity="0.3" />
  <path
    d="M73.1257 161.139C73.1257 162.383 72.1174 163.392 70.8735 163.392C69.6296 163.392 68.6212 162.383 68.6212 161.139C68.6212 159.896 69.6296 158.887 70.8735 158.887C72.1174 158.887 73.1257 159.896 73.1257 161.139Z"
    fill="currentColor" fill-opacity="0.3" />
  <path
    d="M101.654 161.139C101.654 162.383 100.646 163.392 99.4018 163.392C98.158 163.392 97.1496 162.383 97.1496 161.139C97.1496 159.896 98.158 158.887 99.4018 158.887C100.646 158.887 101.654 159.896 101.654 161.139Z"
    fill="currentColor" fill-opacity="0.3" />
  <path
    d="M130.182 161.139C130.182 162.383 129.174 163.392 127.93 163.392C126.686 163.392 125.678 162.383 125.678 161.139C125.678 159.896 126.686 158.887 127.93 158.887C129.174 158.887 130.182 159.896 130.182 161.139Z"
    fill="currentColor" fill-opacity="0.3" />
  <path
    d="M158.711 161.139C158.711 162.383 157.702 163.392 156.459 163.392C155.215 163.392 154.206 162.383 154.206 161.139C154.206 159.896 155.215 158.887 156.459 158.887C157.702 158.887 158.711 159.896 158.711 161.139Z"
    fill="currentColor" fill-opacity="0.3" />
  <path
    d="M187.239 161.139C187.239 162.383 186.231 163.392 184.987 163.392C183.743 163.392 182.735 162.383 182.735 161.139C182.735 159.896 183.743 158.887 184.987 158.887C186.231 158.887 187.239 159.896 187.239 161.139Z"
    fill="currentColor" fill-opacity="0.3" />
  <path
    d="M215.768 161.139C215.768 162.383 214.759 163.392 213.515 163.392C212.271 163.392 211.263 162.383 211.263 161.139C211.263 159.896 212.271 158.887 213.515 158.887C214.759 158.887 215.768 159.896 215.768 161.139Z"
    fill="currentColor" fill-opacity="0.3" />
  <path
    d="M244.296 161.139C244.296 162.383 243.288 163.392 242.044 163.392C240.8 163.392 239.791 162.383 239.791 161.139C239.791 159.896 240.8 158.887 242.044 158.887C243.288 158.887 244.296 159.896 244.296 161.139Z"
    fill="currentColor" fill-opacity="0.3" />
  <path
    d="M272.824 161.139C272.824 162.383 271.816 163.392 270.572 163.392C269.328 163.392 268.32 162.383 268.32 161.139C268.32 159.896 269.328 158.887 270.572 158.887C271.816 158.887 272.824 159.896 272.824 161.139Z"
    fill="currentColor" fill-opacity="0.3" />
  <path
    d="M301.353 161.139C301.353 162.383 300.344 163.392 299.1 163.392C297.856 163.392 296.848 162.383 296.848 161.139C296.848 159.896 297.856 158.887 299.1 158.887C300.344 158.887 301.353 159.896 301.353 161.139Z"
    fill="currentColor" fill-opacity="0.3" />
  <path
    d="M329.881 161.139C329.881 162.383 328.873 163.392 327.629 163.392C326.385 163.392 325.376 162.383 325.376 161.139C325.376 159.896 326.385 158.887 327.629 158.887C328.873 158.887 329.881 159.896 329.881 161.139Z"
    fill="currentColor" fill-opacity="0.3" />
  <path
    d="M358.409 161.139C358.409 162.383 357.401 163.392 356.157 163.392C354.913 163.392 353.905 162.383 353.905 161.139C353.905 159.896 354.913 158.887 356.157 158.887C357.401 158.887 358.409 159.896 358.409 161.139Z"
    fill="currentColor" fill-opacity="0.3" />
  <path
    d="M386.938 161.139C386.938 162.383 385.929 163.392 384.685 163.392C383.442 163.392 382.433 162.383 382.433 161.139C382.433 159.896 383.442 158.887 384.685 158.887C385.929 158.887 386.938 159.896 386.938 161.139Z"
    fill="currentColor" fill-opacity="0.3" />
  <path
    d="M415.466 161.139C415.466 162.383 414.458 163.392 413.214 163.392C411.97 163.392 410.962 162.383 410.962 161.139C410.962 159.896 411.97 158.887 413.214 158.887C414.458 158.887 415.466 159.896 415.466 161.139Z"
    fill="currentColor" fill-opacity="0.3" />
  <path
    d="M443.994 161.139C443.994 162.383 442.986 163.392 441.742 163.392C440.498 163.392 439.49 162.383 439.49 161.139C439.49 159.896 440.498 158.887 441.742 158.887C442.986 158.887 443.994 159.896 443.994 161.139Z"
    fill="currentColor" fill-opacity="0.3" />
  <path
    d="M-40.9877 189.668C-40.9877 190.912 -41.9961 191.92 -43.2399 191.92C-44.4838 191.92 -45.4922 190.912 -45.4922 189.668C-45.4922 188.424 -44.4838 187.416 -43.2399 187.416C-41.9961 187.416 -40.9877 188.424 -40.9877 189.668Z"
    fill="currentColor" fill-opacity="0.3" />
  <path
    d="M-12.4594 189.668C-12.4594 190.912 -13.4677 191.92 -14.7116 191.92C-15.9555 191.92 -16.9638 190.912 -16.9638 189.668C-16.9638 188.424 -15.9555 187.416 -14.7116 187.416C-13.4677 187.416 -12.4594 188.424 -12.4594 189.668Z"
    fill="currentColor" fill-opacity="0.3" />
  <path
    d="M16.069 189.668C16.069 190.912 15.0606 191.92 13.8168 191.92C12.5729 191.92 11.5645 190.912 11.5645 189.668C11.5645 188.424 12.5729 187.416 13.8168 187.416C15.0606 187.416 16.069 188.424 16.069 189.668Z"
    fill="currentColor" fill-opacity="0.3" />
  <path
    d="M44.5974 189.668C44.5974 190.912 43.589 191.92 42.3451 191.92C41.1012 191.92 40.0929 190.912 40.0929 189.668C40.0929 188.424 41.1012 187.416 42.3451 187.416C43.589 187.416 44.5974 188.424 44.5974 189.668Z"
    fill="currentColor" fill-opacity="0.3" />
  <path
    d="M73.1257 189.668C73.1257 190.912 72.1174 191.92 70.8735 191.92C69.6296 191.92 68.6212 190.912 68.6212 189.668C68.6212 188.424 69.6296 187.416 70.8735 187.416C72.1174 187.416 73.1257 188.424 73.1257 189.668Z"
    fill="currentColor" fill-opacity="0.3" />
  <path
    d="M101.654 189.668C101.654 190.912 100.646 191.92 99.4018 191.92C98.158 191.92 97.1496 190.912 97.1496 189.668C97.1496 188.424 98.158 187.416 99.4018 187.416C100.646 187.416 101.654 188.424 101.654 189.668Z"
    fill="currentColor" fill-opacity="0.3" />
  <path
    d="M130.182 189.668C130.182 190.912 129.174 191.92 127.93 191.92C126.686 191.92 125.678 190.912 125.678 189.668C125.678 188.424 126.686 187.416 127.93 187.416C129.174 187.416 130.182 188.424 130.182 189.668Z"
    fill="currentColor" fill-opacity="0.3" />
  <path
    d="M158.711 189.668C158.711 190.912 157.702 191.92 156.459 191.92C155.215 191.92 154.206 190.912 154.206 189.668C154.206 188.424 155.215 187.416 156.459 187.416C157.702 187.416 158.711 188.424 158.711 189.668Z"
    fill="currentColor" fill-opacity="0.3" />
  <path
    d="M187.239 189.668C187.239 190.912 186.231 191.92 184.987 191.92C183.743 191.92 182.735 190.912 182.735 189.668C182.735 188.424 183.743 187.416 184.987 187.416C186.231 187.416 187.239 188.424 187.239 189.668Z"
    fill="currentColor" fill-opacity="0.3" />
  <path
    d="M215.768 189.668C215.768 190.912 214.759 191.92 213.515 191.92C212.271 191.92 211.263 190.912 211.263 189.668C211.263 188.424 212.271 187.416 213.515 187.416C214.759 187.416 215.768 188.424 215.768 189.668Z"
    fill="currentColor" fill-opacity="0.3" />
  <path
    d="M244.296 189.668C244.296 190.912 243.288 191.92 242.044 191.92C240.8 191.92 239.791 190.912 239.791 189.668C239.791 188.424 240.8 187.416 242.044 187.416C243.288 187.416 244.296 188.424 244.296 189.668Z"
    fill="currentColor" fill-opacity="0.3" />
  <path
    d="M272.824 189.668C272.824 190.912 271.816 191.92 270.572 191.92C269.328 191.92 268.32 190.912 268.32 189.668C268.32 188.424 269.328 187.416 270.572 187.416C271.816 187.416 272.824 188.424 272.824 189.668Z"
    fill="currentColor" fill-opacity="0.3" />
  <path
    d="M301.353 189.668C301.353 190.912 300.344 191.92 299.1 191.92C297.856 191.92 296.848 190.912 296.848 189.668C296.848 188.424 297.856 187.416 299.1 187.416C300.344 187.416 301.353 188.424 301.353 189.668Z"
    fill="currentColor" fill-opacity="0.3" />
  <path
    d="M329.881 189.668C329.881 190.912 328.873 191.92 327.629 191.92C326.385 191.92 325.376 190.912 325.376 189.668C325.376 188.424 326.385 187.416 327.629 187.416C328.873 187.416 329.881 188.424 329.881 189.668Z"
    fill="currentColor" fill-opacity="0.3" />
  <path
    d="M358.409 189.668C358.409 190.912 357.401 191.92 356.157 191.92C354.913 191.92 353.905 190.912 353.905 189.668C353.905 188.424 354.913 187.416 356.157 187.416C357.401 187.416 358.409 188.424 358.409 189.668Z"
    fill="currentColor" fill-opacity="0.3" />
  <path
    d="M386.938 189.668C386.938 190.912 385.929 191.92 384.685 191.92C383.442 191.92 382.433 190.912 382.433 189.668C382.433 188.424 383.442 187.416 384.685 187.416C385.929 187.416 386.938 188.424 386.938 189.668Z"
    fill="currentColor" fill-opacity="0.3" />
  <path
    d="M415.466 189.668C415.466 190.912 414.458 191.92 413.214 191.92C411.97 191.92 410.962 190.912 410.962 189.668C410.962 188.424 411.97 187.416 413.214 187.416C414.458 187.416 415.466 188.424 415.466 189.668Z"
    fill="currentColor" fill-opacity="0.3" />
  <path
    d="M443.994 189.668C443.994 190.912 442.986 191.92 441.742 191.92C440.498 191.92 439.49 190.912 439.49 189.668C439.49 188.424 440.498 187.416 441.742 187.416C442.986 187.416 443.994 188.424 443.994 189.668Z"
    fill="currentColor" fill-opacity="0.3" />
  <path
    d="M-40.9877 218.196C-40.9877 219.44 -41.9961 220.448 -43.2399 220.448C-44.4838 220.448 -45.4922 219.44 -45.4922 218.196C-45.4922 216.952 -44.4838 215.944 -43.2399 215.944C-41.9961 215.944 -40.9877 216.952 -40.9877 218.196Z"
    fill="currentColor" fill-opacity="0.3" />
  <path
    d="M-12.4594 218.196C-12.4594 219.44 -13.4677 220.448 -14.7116 220.448C-15.9555 220.448 -16.9638 219.44 -16.9638 218.196C-16.9638 216.952 -15.9555 215.944 -14.7116 215.944C-13.4677 215.944 -12.4594 216.952 -12.4594 218.196Z"
    fill="currentColor" fill-opacity="0.3" />
  <path
    d="M16.069 218.196C16.069 219.44 15.0606 220.448 13.8168 220.448C12.5729 220.448 11.5645 219.44 11.5645 218.196C11.5645 216.952 12.5729 215.944 13.8168 215.944C15.0606 215.944 16.069 216.952 16.069 218.196Z"
    fill="currentColor" fill-opacity="0.3" />
  <path
    d="M44.5974 218.196C44.5974 219.44 43.589 220.448 42.3451 220.448C41.1012 220.448 40.0929 219.44 40.0929 218.196C40.0929 216.952 41.1012 215.944 42.3451 215.944C43.589 215.944 44.5974 216.952 44.5974 218.196Z"
    fill="currentColor" fill-opacity="0.3" />
  <path
    d="M73.1257 218.196C73.1257 219.44 72.1174 220.448 70.8735 220.448C69.6296 220.448 68.6212 219.44 68.6212 218.196C68.6212 216.952 69.6296 215.944 70.8735 215.944C72.1174 215.944 73.1257 216.952 73.1257 218.196Z"
    fill="currentColor" fill-opacity="0.3" />
  <path
    d="M101.654 218.196C101.654 219.44 100.646 220.448 99.4018 220.448C98.158 220.448 97.1496 219.44 97.1496 218.196C97.1496 216.952 98.158 215.944 99.4018 215.944C100.646 215.944 101.654 216.952 101.654 218.196Z"
    fill="currentColor" fill-opacity="0.3" />
  <path
    d="M130.182 218.196C130.182 219.44 129.174 220.448 127.93 220.448C126.686 220.448 125.678 219.44 125.678 218.196C125.678 216.952 126.686 215.944 127.93 215.944C129.174 215.944 130.182 216.952 130.182 218.196Z"
    fill="currentColor" fill-opacity="0.3" />
  <path
    d="M158.711 218.196C158.711 219.44 157.702 220.448 156.459 220.448C155.215 220.448 154.206 219.44 154.206 218.196C154.206 216.952 155.215 215.944 156.459 215.944C157.702 215.944 158.711 216.952 158.711 218.196Z"
    fill="currentColor" fill-opacity="0.3" />
  <path
    d="M187.239 218.196C187.239 219.44 186.231 220.448 184.987 220.448C183.743 220.448 182.735 219.44 182.735 218.196C182.735 216.952 183.743 215.944 184.987 215.944C186.231 215.944 187.239 216.952 187.239 218.196Z"
    fill="currentColor" fill-opacity="0.3" />
  <path
    d="M215.768 218.196C215.768 219.44 214.759 220.448 213.515 220.448C212.271 220.448 211.263 219.44 211.263 218.196C211.263 216.952 212.271 215.944 213.515 215.944C214.759 215.944 215.768 216.952 215.768 218.196Z"
    fill="currentColor" fill-opacity="0.3" />
  <path
    d="M244.296 218.196C244.296 219.44 243.288 220.448 242.044 220.448C240.8 220.448 239.791 219.44 239.791 218.196C239.791 216.952 240.8 215.944 242.044 215.944C243.288 215.944 244.296 216.952 244.296 218.196Z"
    fill="currentColor" fill-opacity="0.3" />
  <path
    d="M272.824 218.196C272.824 219.44 271.816 220.448 270.572 220.448C269.328 220.448 268.32 219.44 268.32 218.196C268.32 216.952 269.328 215.944 270.572 215.944C271.816 215.944 272.824 216.952 272.824 218.196Z"
    fill="currentColor" fill-opacity="0.3" />
  <path
    d="M301.353 218.196C301.353 219.44 300.344 220.448 299.1 220.448C297.856 220.448 296.848 219.44 296.848 218.196C296.848 216.952 297.856 215.944 299.1 215.944C300.344 215.944 301.353 216.952 301.353 218.196Z"
    fill="currentColor" fill-opacity="0.3" />
  <path
    d="M329.881 218.196C329.881 219.44 328.873 220.448 327.629 220.448C326.385 220.448 325.376 219.44 325.376 218.196C325.376 216.952 326.385 215.944 327.629 215.944C328.873 215.944 329.881 216.952 329.881 218.196Z"
    fill="currentColor" fill-opacity="0.3" />
  <path
    d="M358.409 218.196C358.409 219.44 357.401 220.448 356.157 220.448C354.913 220.448 353.905 219.44 353.905 218.196C353.905 216.952 354.913 215.944 356.157 215.944C357.401 215.944 358.409 216.952 358.409 218.196Z"
    fill="currentColor" fill-opacity="0.3" />
  <path
    d="M386.938 218.196C386.938 219.44 385.929 220.448 384.685 220.448C383.442 220.448 382.433 219.44 382.433 218.196C382.433 216.952 383.442 215.944 384.685 215.944C385.929 215.944 386.938 216.952 386.938 218.196Z"
    fill="currentColor" fill-opacity="0.3" />
  <path
    d="M415.466 218.196C415.466 219.44 414.458 220.448 413.214 220.448C411.97 220.448 410.962 219.44 410.962 218.196C410.962 216.952 411.97 215.944 413.214 215.944C414.458 215.944 415.466 216.952 415.466 218.196Z"
    fill="currentColor" fill-opacity="0.3" />
  <path
    d="M443.994 218.196C443.994 219.44 442.986 220.448 441.742 220.448C440.498 220.448 439.49 219.44 439.49 218.196C439.49 216.952 440.498 215.944 441.742 215.944C442.986 215.944 443.994 216.952 443.994 218.196Z"
    fill="currentColor" fill-opacity="0.3" />
  <path
    d="M-40.9877 246.724C-40.9877 247.968 -41.9961 248.977 -43.2399 248.977C-44.4838 248.977 -45.4922 247.968 -45.4922 246.724C-45.4922 245.481 -44.4838 244.472 -43.2399 244.472C-41.9961 244.472 -40.9877 245.481 -40.9877 246.724Z"
    fill="currentColor" fill-opacity="0.3" />
  <path
    d="M-12.4594 246.724C-12.4594 247.968 -13.4677 248.977 -14.7116 248.977C-15.9555 248.977 -16.9638 247.968 -16.9638 246.724C-16.9638 245.481 -15.9555 244.472 -14.7116 244.472C-13.4677 244.472 -12.4594 245.481 -12.4594 246.724Z"
    fill="currentColor" fill-opacity="0.3" />
  <path
    d="M16.069 246.724C16.069 247.968 15.0606 248.977 13.8168 248.977C12.5729 248.977 11.5645 247.968 11.5645 246.724C11.5645 245.481 12.5729 244.472 13.8168 244.472C15.0606 244.472 16.069 245.481 16.069 246.724Z"
    fill="currentColor" fill-opacity="0.3" />
  <path
    d="M44.5974 246.724C44.5974 247.968 43.589 248.977 42.3451 248.977C41.1012 248.977 40.0929 247.968 40.0929 246.724C40.0929 245.481 41.1012 244.472 42.3451 244.472C43.589 244.472 44.5974 245.481 44.5974 246.724Z"
    fill="currentColor" fill-opacity="0.3" />
  <path
    d="M73.1257 246.724C73.1257 247.968 72.1174 248.977 70.8735 248.977C69.6296 248.977 68.6212 247.968 68.6212 246.724C68.6212 245.481 69.6296 244.472 70.8735 244.472C72.1174 244.472 73.1257 245.481 73.1257 246.724Z"
    fill="currentColor" fill-opacity="0.3" />
  <path
    d="M101.654 246.724C101.654 247.968 100.646 248.977 99.4018 248.977C98.158 248.977 97.1496 247.968 97.1496 246.724C97.1496 245.481 98.158 244.472 99.4018 244.472C100.646 244.472 101.654 245.481 101.654 246.724Z"
    fill="currentColor" fill-opacity="0.3" />
  <path
    d="M130.182 246.724C130.182 247.968 129.174 248.977 127.93 248.977C126.686 248.977 125.678 247.968 125.678 246.724C125.678 245.481 126.686 244.472 127.93 244.472C129.174 244.472 130.182 245.481 130.182 246.724Z"
    fill="currentColor" fill-opacity="0.3" />
  <path
    d="M158.711 246.724C158.711 247.968 157.702 248.977 156.459 248.977C155.215 248.977 154.206 247.968 154.206 246.724C154.206 245.481 155.215 244.472 156.459 244.472C157.702 244.472 158.711 245.481 158.711 246.724Z"
    fill="currentColor" fill-opacity="0.3" />
  <path
    d="M187.239 246.724C187.239 247.968 186.231 248.977 184.987 248.977C183.743 248.977 182.735 247.968 182.735 246.724C182.735 245.481 183.743 244.472 184.987 244.472C186.231 244.472 187.239 245.481 187.239 246.724Z"
    fill="currentColor" fill-opacity="0.3" />
  <path
    d="M215.768 246.724C215.768 247.968 214.759 248.977 213.515 248.977C212.271 248.977 211.263 247.968 211.263 246.724C211.263 245.481 212.271 244.472 213.515 244.472C214.759 244.472 215.768 245.481 215.768 246.724Z"
    fill="currentColor" fill-opacity="0.3" />
  <path
    d="M244.296 246.724C244.296 247.968 243.288 248.977 242.044 248.977C240.8 248.977 239.791 247.968 239.791 246.724C239.791 245.481 240.8 244.472 242.044 244.472C243.288 244.472 244.296 245.481 244.296 246.724Z"
    fill="currentColor" fill-opacity="0.3" />
  <path
    d="M272.824 246.724C272.824 247.968 271.816 248.977 270.572 248.977C269.328 248.977 268.32 247.968 268.32 246.724C268.32 245.481 269.328 244.472 270.572 244.472C271.816 244.472 272.824 245.481 272.824 246.724Z"
    fill="currentColor" fill-opacity="0.3" />
  <path
    d="M301.353 246.724C301.353 247.968 300.344 248.977 299.1 248.977C297.856 248.977 296.848 247.968 296.848 246.724C296.848 245.481 297.856 244.472 299.1 244.472C300.344 244.472 301.353 245.481 301.353 246.724Z"
    fill="currentColor" fill-opacity="0.3" />
  <path
    d="M329.881 246.724C329.881 247.968 328.873 248.977 327.629 248.977C326.385 248.977 325.376 247.968 325.376 246.724C325.376 245.481 326.385 244.472 327.629 244.472C328.873 244.472 329.881 245.481 329.881 246.724Z"
    fill="currentColor" fill-opacity="0.3" />
  <path
    d="M358.409 246.724C358.409 247.968 357.401 248.977 356.157 248.977C354.913 248.977 353.905 247.968 353.905 246.724C353.905 245.481 354.913 244.472 356.157 244.472C357.401 244.472 358.409 245.481 358.409 246.724Z"
    fill="currentColor" fill-opacity="0.3" />
  <path
    d="M386.938 246.724C386.938 247.968 385.929 248.977 384.685 248.977C383.442 248.977 382.433 247.968 382.433 246.724C382.433 245.481 383.442 244.472 384.685 244.472C385.929 244.472 386.938 245.481 386.938 246.724Z"
    fill="currentColor" fill-opacity="0.3" />
  <path
    d="M415.466 246.724C415.466 247.968 414.458 248.977 413.214 248.977C411.97 248.977 410.962 247.968 410.962 246.724C410.962 245.481 411.97 244.472 413.214 244.472C414.458 244.472 415.466 245.481 415.466 246.724Z"
    fill="currentColor" fill-opacity="0.3" />
  <path
    d="M443.994 246.724C443.994 247.968 442.986 248.977 441.742 248.977C440.498 248.977 439.49 247.968 439.49 246.724C439.49 245.481 440.498 244.472 441.742 244.472C442.986 244.472 443.994 245.481 443.994 246.724Z"
    fill="currentColor" fill-opacity="0.3" />
  <path
    d="M-40.9877 275.253C-40.9877 276.497 -41.9961 277.505 -43.2399 277.505C-44.4838 277.505 -45.4922 276.497 -45.4922 275.253C-45.4922 274.009 -44.4838 273.001 -43.2399 273.001C-41.9961 273.001 -40.9877 274.009 -40.9877 275.253Z"
    fill="currentColor" fill-opacity="0.3" />
  <path
    d="M-12.4594 275.253C-12.4594 276.497 -13.4677 277.505 -14.7116 277.505C-15.9555 277.505 -16.9638 276.497 -16.9638 275.253C-16.9638 274.009 -15.9555 273.001 -14.7116 273.001C-13.4677 273.001 -12.4594 274.009 -12.4594 275.253Z"
    fill="currentColor" fill-opacity="0.3" />
  <path
    d="M16.069 275.253C16.069 276.497 15.0606 277.505 13.8168 277.505C12.5729 277.505 11.5645 276.497 11.5645 275.253C11.5645 274.009 12.5729 273.001 13.8168 273.001C15.0606 273.001 16.069 274.009 16.069 275.253Z"
    fill="currentColor" fill-opacity="0.3" />
  <path
    d="M44.5974 275.253C44.5974 276.497 43.589 277.505 42.3451 277.505C41.1012 277.505 40.0929 276.497 40.0929 275.253C40.0929 274.009 41.1012 273.001 42.3451 273.001C43.589 273.001 44.5974 274.009 44.5974 275.253Z"
    fill="currentColor" fill-opacity="0.3" />
  <path
    d="M73.1257 275.253C73.1257 276.497 72.1174 277.505 70.8735 277.505C69.6296 277.505 68.6212 276.497 68.6212 275.253C68.6212 274.009 69.6296 273.001 70.8735 273.001C72.1174 273.001 73.1257 274.009 73.1257 275.253Z"
    fill="currentColor" fill-opacity="0.3" />
  <path
    d="M101.654 275.253C101.654 276.497 100.646 277.505 99.4018 277.505C98.158 277.505 97.1496 276.497 97.1496 275.253C97.1496 274.009 98.158 273.001 99.4018 273.001C100.646 273.001 101.654 274.009 101.654 275.253Z"
    fill="currentColor" fill-opacity="0.3" />
  <path
    d="M130.182 275.253C130.182 276.497 129.174 277.505 127.93 277.505C126.686 277.505 125.678 276.497 125.678 275.253C125.678 274.009 126.686 273.001 127.93 273.001C129.174 273.001 130.182 274.009 130.182 275.253Z"
    fill="currentColor" fill-opacity="0.3" />
  <path
    d="M158.711 275.253C158.711 276.497 157.702 277.505 156.459 277.505C155.215 277.505 154.206 276.497 154.206 275.253C154.206 274.009 155.215 273.001 156.459 273.001C157.702 273.001 158.711 274.009 158.711 275.253Z"
    fill="currentColor" fill-opacity="0.3" />
  <path
    d="M187.239 275.253C187.239 276.497 186.231 277.505 184.987 277.505C183.743 277.505 182.735 276.497 182.735 275.253C182.735 274.009 183.743 273.001 184.987 273.001C186.231 273.001 187.239 274.009 187.239 275.253Z"
    fill="currentColor" fill-opacity="0.3" />
  <path
    d="M215.768 275.253C215.768 276.497 214.759 277.505 213.515 277.505C212.271 277.505 211.263 276.497 211.263 275.253C211.263 274.009 212.271 273.001 213.515 273.001C214.759 273.001 215.768 274.009 215.768 275.253Z"
    fill="currentColor" fill-opacity="0.3" />
  <path
    d="M244.296 275.253C244.296 276.497 243.288 277.505 242.044 277.505C240.8 277.505 239.791 276.497 239.791 275.253C239.791 274.009 240.8 273.001 242.044 273.001C243.288 273.001 244.296 274.009 244.296 275.253Z"
    fill="currentColor" fill-opacity="0.3" />
  <path
    d="M272.824 275.253C272.824 276.497 271.816 277.505 270.572 277.505C269.328 277.505 268.32 276.497 268.32 275.253C268.32 274.009 269.328 273.001 270.572 273.001C271.816 273.001 272.824 274.009 272.824 275.253Z"
    fill="currentColor" fill-opacity="0.3" />
  <path
    d="M301.353 275.253C301.353 276.497 300.344 277.505 299.1 277.505C297.856 277.505 296.848 276.497 296.848 275.253C296.848 274.009 297.856 273.001 299.1 273.001C300.344 273.001 301.353 274.009 301.353 275.253Z"
    fill="currentColor" fill-opacity="0.3" />
  <path
    d="M329.881 275.253C329.881 276.497 328.873 277.505 327.629 277.505C326.385 277.505 325.376 276.497 325.376 275.253C325.376 274.009 326.385 273.001 327.629 273.001C328.873 273.001 329.881 274.009 329.881 275.253Z"
    fill="currentColor" fill-opacity="0.3" />
  <path
    d="M358.409 275.253C358.409 276.497 357.401 277.505 356.157 277.505C354.913 277.505 353.905 276.497 353.905 275.253C353.905 274.009 354.913 273.001 356.157 273.001C357.401 273.001 358.409 274.009 358.409 275.253Z"
    fill="currentColor" fill-opacity="0.3" />
  <path
    d="M386.938 275.253C386.938 276.497 385.929 277.505 384.685 277.505C383.442 277.505 382.433 276.497 382.433 275.253C382.433 274.009 383.442 273.001 384.685 273.001C385.929 273.001 386.938 274.009 386.938 275.253Z"
    fill="currentColor" fill-opacity="0.3" />
  <path
    d="M415.466 275.253C415.466 276.497 414.458 277.505 413.214 277.505C411.97 277.505 410.962 276.497 410.962 275.253C410.962 274.009 411.97 273.001 413.214 273.001C414.458 273.001 415.466 274.009 415.466 275.253Z"
    fill="currentColor" fill-opacity="0.3" />
  <path
    d="M443.994 275.253C443.994 276.497 442.986 277.505 441.742 277.505C440.498 277.505 439.49 276.497 439.49 275.253C439.49 274.009 440.498 273.001 441.742 273.001C442.986 273.001 443.994 274.009 443.994 275.253Z"
    fill="currentColor" fill-opacity="0.3" />
  <path
    d="M-40.9877 303.781C-40.9877 305.025 -41.9961 306.033 -43.2399 306.033C-44.4838 306.033 -45.4922 305.025 -45.4922 303.781C-45.4922 302.537 -44.4838 301.529 -43.2399 301.529C-41.9961 301.529 -40.9877 302.537 -40.9877 303.781Z"
    fill="currentColor" fill-opacity="0.3" />
  <path
    d="M-12.4594 303.781C-12.4594 305.025 -13.4677 306.033 -14.7116 306.033C-15.9555 306.033 -16.9638 305.025 -16.9638 303.781C-16.9638 302.537 -15.9555 301.529 -14.7116 301.529C-13.4677 301.529 -12.4594 302.537 -12.4594 303.781Z"
    fill="currentColor" fill-opacity="0.3" />
  <path
    d="M16.069 303.781C16.069 305.025 15.0606 306.033 13.8168 306.033C12.5729 306.033 11.5645 305.025 11.5645 303.781C11.5645 302.537 12.5729 301.529 13.8168 301.529C15.0606 301.529 16.069 302.537 16.069 303.781Z"
    fill="currentColor" fill-opacity="0.3" />
  <path
    d="M44.5974 303.781C44.5974 305.025 43.589 306.033 42.3451 306.033C41.1012 306.033 40.0929 305.025 40.0929 303.781C40.0929 302.537 41.1012 301.529 42.3451 301.529C43.589 301.529 44.5974 302.537 44.5974 303.781Z"
    fill="currentColor" fill-opacity="0.3" />
  <path
    d="M73.1257 303.781C73.1257 305.025 72.1174 306.033 70.8735 306.033C69.6296 306.033 68.6212 305.025 68.6212 303.781C68.6212 302.537 69.6296 301.529 70.8735 301.529C72.1174 301.529 73.1257 302.537 73.1257 303.781Z"
    fill="currentColor" fill-opacity="0.3" />
  <path
    d="M101.654 303.781C101.654 305.025 100.646 306.033 99.4018 306.033C98.158 306.033 97.1496 305.025 97.1496 303.781C97.1496 302.537 98.158 301.529 99.4018 301.529C100.646 301.529 101.654 302.537 101.654 303.781Z"
    fill="currentColor" fill-opacity="0.3" />
  <path
    d="M130.182 303.781C130.182 305.025 129.174 306.033 127.93 306.033C126.686 306.033 125.678 305.025 125.678 303.781C125.678 302.537 126.686 301.529 127.93 301.529C129.174 301.529 130.182 302.537 130.182 303.781Z"
    fill="currentColor" fill-opacity="0.3" />
  <path
    d="M158.711 303.781C158.711 305.025 157.702 306.033 156.459 306.033C155.215 306.033 154.206 305.025 154.206 303.781C154.206 302.537 155.215 301.529 156.459 301.529C157.702 301.529 158.711 302.537 158.711 303.781Z"
    fill="currentColor" fill-opacity="0.3" />
  <path
    d="M187.239 303.781C187.239 305.025 186.231 306.033 184.987 306.033C183.743 306.033 182.735 305.025 182.735 303.781C182.735 302.537 183.743 301.529 184.987 301.529C186.231 301.529 187.239 302.537 187.239 303.781Z"
    fill="currentColor" fill-opacity="0.3" />
  <path
    d="M215.768 303.781C215.768 305.025 214.759 306.033 213.515 306.033C212.271 306.033 211.263 305.025 211.263 303.781C211.263 302.537 212.271 301.529 213.515 301.529C214.759 301.529 215.768 302.537 215.768 303.781Z"
    fill="currentColor" fill-opacity="0.3" />
  <path
    d="M244.296 303.781C244.296 305.025 243.288 306.033 242.044 306.033C240.8 306.033 239.791 305.025 239.791 303.781C239.791 302.537 240.8 301.529 242.044 301.529C243.288 301.529 244.296 302.537 244.296 303.781Z"
    fill="currentColor" fill-opacity="0.3" />
  <path
    d="M272.824 303.781C272.824 305.025 271.816 306.033 270.572 306.033C269.328 306.033 268.32 305.025 268.32 303.781C268.32 302.537 269.328 301.529 270.572 301.529C271.816 301.529 272.824 302.537 272.824 303.781Z"
    fill="currentColor" fill-opacity="0.3" />
  <path
    d="M301.353 303.781C301.353 305.025 300.344 306.033 299.1 306.033C297.856 306.033 296.848 305.025 296.848 303.781C296.848 302.537 297.856 301.529 299.1 301.529C300.344 301.529 301.353 302.537 301.353 303.781Z"
    fill="currentColor" fill-opacity="0.3" />
  <path
    d="M329.881 303.781C329.881 305.025 328.873 306.033 327.629 306.033C326.385 306.033 325.376 305.025 325.376 303.781C325.376 302.537 326.385 301.529 327.629 301.529C328.873 301.529 329.881 302.537 329.881 303.781Z"
    fill="currentColor" fill-opacity="0.3" />
  <path
    d="M358.409 303.781C358.409 305.025 357.401 306.033 356.157 306.033C354.913 306.033 353.905 305.025 353.905 303.781C353.905 302.537 354.913 301.529 356.157 301.529C357.401 301.529 358.409 302.537 358.409 303.781Z"
    fill="currentColor" fill-opacity="0.3" />
  <path
    d="M386.938 303.781C386.938 305.025 385.929 306.033 384.685 306.033C383.442 306.033 382.433 305.025 382.433 303.781C382.433 302.537 383.442 301.529 384.685 301.529C385.929 301.529 386.938 302.537 386.938 303.781Z"
    fill="currentColor" fill-opacity="0.3" />
  <path
    d="M415.466 303.781C415.466 305.025 414.458 306.033 413.214 306.033C411.97 306.033 410.962 305.025 410.962 303.781C410.962 302.537 411.97 301.529 413.214 301.529C414.458 301.529 415.466 302.537 415.466 303.781Z"
    fill="currentColor" fill-opacity="0.3" />
  <path
    d="M443.994 303.781C443.994 305.025 442.986 306.033 441.742 306.033C440.498 306.033 439.49 305.025 439.49 303.781C439.49 302.537 440.498 301.529 441.742 301.529C442.986 301.529 443.994 302.537 443.994 303.781Z"
    fill="currentColor" fill-opacity="0.3" />
</svg>