<svg width="177" height="203" viewBox="0 0 177 203" fill="none" xmlns="http://www.w3.org/2000/svg">
    <path
        d="M142.735 0.5H95.1719C94.9384 0.500112 94.6763 0.634285 94.4522 0.954102C94.2291 1.27268 94.0753 1.74026 94.0753 2.28027V29.9385C94.0753 30.4783 94.2291 30.9451 94.4522 31.2637C94.6763 31.5836 94.9383 31.7177 95.1719 31.7178H114.31C115.088 31.7178 115.72 32.2581 116.072 32.9814V32.9824L118.09 37.1289C118.348 37.6579 118.696 37.826 118.953 37.8262C119.211 37.8262 119.56 37.6582 119.817 37.1289L121.835 32.9824V32.9814C122.187 32.2581 122.82 31.7178 123.598 31.7178H142.735C142.969 31.7176 143.231 31.5836 143.455 31.2637C143.678 30.9451 143.832 30.4783 143.832 29.9385V2.28027L143.825 2.08105C143.793 1.6255 143.65 1.23288 143.455 0.954102C143.231 0.634289 142.969 0.500126 142.735 0.5Z"
        fill="#F5F5FA" stroke="#41738A" />
    <g clip-path="url(#clip0_9163_100579)">
        <path
            d="M106.232 9.79343L104.228 11.6673L105.165 12.6695L107.169 10.7956C107.996 10.0226 109.305 10.0666 110.078 10.8934C110.851 11.7202 110.807 13.0291 109.98 13.8021L107.976 15.676L108.913 16.6782L110.917 14.8042C112.3 13.5112 112.373 11.3394 111.08 9.95645C109.787 8.57346 107.615 8.50043 106.232 9.79343ZM106.974 16.613L104.969 18.4869C104.143 19.2599 102.834 19.2158 102.061 18.3891C101.288 17.5623 101.332 16.2534 102.158 15.4804L104.163 13.6065L103.226 12.6043L101.222 14.4782C99.8385 15.7712 99.7655 17.943 101.059 19.326C102.352 20.709 104.523 20.782 105.906 19.489L107.911 17.6151L106.974 16.613ZM103.597 16.0141L107.605 12.2662L108.542 13.2684L104.533 17.0162L103.597 16.0141Z"
            fill="#EDAD6D" />
    </g>
    <path
        d="M132.635 12.8057H129.891V14.1777H132.635C133.767 14.1777 134.693 15.1037 134.693 16.2356C134.693 17.3674 133.767 18.2935 132.635 18.2935H129.891V19.6654H132.635C134.528 19.6654 136.065 18.1289 136.065 16.2356C136.065 14.3423 134.528 12.8057 132.635 12.8057ZM128.519 18.2935H125.775C124.644 18.2935 123.718 17.3674 123.718 16.2356C123.718 15.1037 124.644 14.1777 125.775 14.1777H128.519V12.8057H125.775C123.882 12.8057 122.346 14.3423 122.346 16.2356C122.346 18.1289 123.882 19.6654 125.775 19.6654H128.519V18.2935ZM126.461 15.5496H131.949V16.9215H126.461V15.5496Z"
        fill="#EA6F46" />
    <path
        d="M109.421 177.746C109.421 177.746 118.826 191.525 119.061 195.83C119.297 200.135 91.1974 183.797 91.1974 183.797L93.7821 176.969L109.43 177.746H109.421Z"
        fill="#EDAD6D" />
    <path
        d="M118.451 195.08C118.721 195.08 118.87 195.027 118.974 194.992C119.193 194.914 119.306 194.687 119.228 194.469C119.149 194.25 118.922 194.137 118.704 194.215C116.783 194.888 101.31 186.942 92.0186 181.781C91.8178 181.667 91.5733 181.746 91.4598 181.938C91.3462 182.139 91.4248 182.383 91.6169 182.497C91.678 182.532 97.7468 185.894 104.086 189.098C114.399 194.311 117.394 195.071 118.451 195.071V195.08Z"
        fill="white" />
    <path
        d="M106.172 181.231C106.242 181.231 106.303 181.213 106.373 181.178L110.425 178.96C110.626 178.847 110.696 178.602 110.591 178.402C110.486 178.201 110.233 178.131 110.032 178.236L105.98 180.454C105.779 180.567 105.71 180.812 105.814 181.012C105.893 181.152 106.033 181.222 106.172 181.222V181.231Z"
        fill="white" />
    <path
        d="M108.452 184.312C108.522 184.312 108.6 184.294 108.662 184.251L112.259 182.111C112.451 181.998 112.521 181.745 112.399 181.544C112.285 181.352 112.032 181.282 111.831 181.404L108.234 183.543C108.042 183.657 107.972 183.91 108.094 184.111C108.172 184.242 108.304 184.312 108.452 184.312Z"
        fill="white" />
    <path
        d="M48.6913 99.28C48.6913 99.28 47.9927 106.178 47.7744 113.583C47.5473 120.979 94.351 125.232 94.351 125.232L88.9285 178.794L122.014 180.994C122.014 180.994 126.668 135.308 126.904 125.878C127.306 109.767 126.406 99.3935 106.969 98.1448C90.2907 97.0708 75.3851 97.1406 75.3851 97.1406L48.6913 99.2713V99.28Z"
        fill="#41738A" />
    <path d="M21.3596 126.253H144.944V163.137H21.3596V126.253Z" fill="#61BDB3" />
    <path
        d="M89.3111 182.252C89.3111 182.252 96.3753 197.367 95.9212 201.646C95.4584 205.925 70.3538 185.299 70.3538 185.299L73.9951 178.977L89.3111 182.252Z"
        fill="#EDAD6D" />
    <path
        d="M95.7104 200.834C95.8239 200.834 95.9025 200.816 95.9724 200.808C96.1994 200.773 96.3477 200.554 96.3041 200.327C96.2692 200.1 96.0509 199.952 95.8239 199.995C95.789 199.995 95.754 199.995 95.7104 199.995C93.3527 199.995 79.6871 189.91 71.479 183.431C71.3043 183.291 71.0423 183.317 70.9026 183.501C70.7629 183.675 70.7892 183.937 70.9725 184.077C71.0249 184.121 76.4737 188.417 82.2194 192.599C92.5232 200.1 94.907 200.825 95.7104 200.825V200.834Z"
        fill="white" />
    <path
        d="M85.6055 185.167C85.6492 185.167 85.7016 185.167 85.7452 185.141L90.1025 183.595C90.3208 183.516 90.4256 183.281 90.3558 183.071C90.2772 182.853 90.0415 182.748 89.8319 182.818L85.4746 184.363C85.2563 184.442 85.1515 184.678 85.2213 184.887C85.2825 185.053 85.4396 185.158 85.6055 185.158V185.167Z"
        fill="white" />
    <path
        d="M87.3727 188.584C87.4251 188.584 87.4776 188.575 87.5212 188.557L91.4157 187.021C91.6252 186.933 91.73 186.697 91.6515 186.488C91.5641 186.278 91.3284 186.174 91.1188 186.252L87.2244 187.789C87.0148 187.876 86.91 188.112 86.9886 188.322C87.0497 188.488 87.2068 188.584 87.3727 188.584Z"
        fill="white" />
    <path
        d="M38.9458 92.5396C38.9458 92.5396 37.1469 99.2371 35.7411 106.502C34.3352 113.767 37.6621 127.485 46.9006 126.402L76.3887 126.376L65.5872 177.406L98.1926 184.968C98.1926 184.968 109.343 138.776 111.09 129.502C114.076 113.671 115.63 105.131 96.647 100.774C80.353 97.0366 85.4526 98.2504 85.4526 98.2504L79.3839 89.9637L38.9545 92.5222L38.9458 92.5396Z"
        fill="#41738A" />
    <path
        d="M98.1918 185.387C98.3751 185.387 98.5499 185.265 98.5935 185.073C98.707 184.61 109.762 138.767 111.491 129.589C112.975 121.713 114.145 115.496 112.495 110.711C110.748 105.672 105.893 102.485 96.7336 100.389C91.7214 99.2454 88.735 98.5643 87.0061 98.1713C86.1329 97.9792 85.5827 97.8482 85.2422 97.7784C85.085 97.7434 84.9453 97.7172 84.8318 97.6998C84.5262 97.6561 84.3602 97.6998 84.2991 97.9967C84.203 98.3983 84.5261 98.477 84.9802 98.5905L85.3645 98.6778C85.4169 98.6865 85.4692 98.6952 85.5216 98.6778C86.7877 98.9572 89.7828 99.6383 96.5676 101.193C105.413 103.218 110.094 106.24 111.735 110.981C113.324 115.566 112.163 121.687 110.705 129.441C108.976 138.601 97.9211 184.426 97.8164 184.889C97.764 185.108 97.8949 185.335 98.122 185.387C98.1569 185.387 98.1831 185.396 98.218 185.396L98.1918 185.387Z"
        fill="#0D4057" />
    <path
        d="M6.4275 14.7031C6.62834 14.5284 6.65448 14.2228 6.47984 14.022C6.31393 13.8124 6.00839 13.7775 5.79882 13.9434C5.58925 14.1093 5.55426 14.4237 5.7289 14.642C5.91227 14.8515 6.22666 14.8777 6.4275 14.7031Z"
        fill="#41738A" />
    <path
        d="M17.2822 29.9394C17.3696 29.8346 17.4046 29.7036 17.3871 29.5814C17.3871 29.5203 17.3609 29.4591 17.3347 29.4067C17.3085 29.3456 17.2648 29.2932 17.2124 29.2496C17.0116 29.0749 16.7059 29.1011 16.5226 29.302C16.3479 29.5028 16.3742 29.8171 16.5837 30.0005C16.6361 30.0442 16.6972 30.0791 16.7583 30.0966C16.8195 30.114 16.8894 30.1228 16.9505 30.114C17.0815 30.1053 17.1949 30.0442 17.2822 29.9394Z"
        fill="#41738A" />
    <path
        d="M31.7492 19.6463C31.8714 19.4105 31.7928 19.1136 31.5571 18.9739C31.3301 18.8429 31.0244 18.9215 30.8934 19.1573C30.7537 19.3931 30.841 19.69 31.0855 19.8297C31.3213 19.9694 31.6269 19.8908 31.7492 19.6463Z"
        fill="#41738A" />
    <path
        d="M26.763 35.0569C26.8416 34.795 26.7018 34.5243 26.4573 34.4369C26.2041 34.3496 25.9247 34.4893 25.8374 34.7426C25.7413 34.9958 25.881 35.2752 26.143 35.3625C26.405 35.4499 26.6845 35.3189 26.763 35.0569Z"
        fill="#41738A" />
    <path
        d="M37.6272 4.59086C37.6621 4.32016 37.47 4.07569 37.2081 4.04076C36.9461 4.00583 36.6929 4.18919 36.6492 4.45988C36.6055 4.72184 36.7889 4.97508 37.0683 5.01C37.339 5.04493 37.5923 4.86155 37.6272 4.59086Z"
        fill="#41738A" />
    <path
        d="M18.8113 23.0495C19.0034 22.8749 19.0995 22.6391 19.1083 22.4034C19.1083 22.1676 19.0471 21.9231 18.8812 21.7397C18.7153 21.5476 18.4883 21.4429 18.2526 21.4254C18.0168 21.3992 17.7723 21.4603 17.5714 21.6262C17.3706 21.7921 17.2483 22.0192 17.2309 22.2637C17.2134 22.5082 17.292 22.7614 17.4754 22.971C17.6588 23.1805 17.8945 23.294 18.139 23.3115C18.3835 23.329 18.6279 23.2416 18.8201 23.067L18.8113 23.0495Z"
        fill="#41738A" />
    <path
        d="M35.0603 23.8615C35.1563 23.6257 35.1563 23.3725 35.0603 23.1454C34.973 22.9184 34.807 22.735 34.58 22.6302C34.3529 22.5342 34.0997 22.5167 33.8814 22.5953C33.6543 22.6739 33.4535 22.8311 33.34 23.0581C33.2177 23.2852 33.2091 23.5471 33.2877 23.7741C33.3662 24.0012 33.5408 24.2195 33.7941 24.3243C34.0386 24.4378 34.3092 24.4465 34.5363 24.3592C34.7633 24.2806 34.9555 24.0972 35.0515 23.8615H35.0603Z"
        fill="#41738A" />
    <path
        d="M149.23 90.3815C149.037 90.5736 149.037 90.8792 149.23 91.0713C149.422 91.2547 149.718 91.2722 149.919 91.0888C150.12 90.9054 150.138 90.5823 149.937 90.3902C149.745 90.1894 149.43 90.1894 149.238 90.3815H149.23Z"
        fill="#41738A" />
    <path
        d="M134.83 91.4395C134.716 91.684 134.829 91.9809 135.065 92.0944C135.31 92.2079 135.598 92.1031 135.72 91.8586C135.842 91.6141 135.729 91.326 135.484 91.2125C135.231 91.0902 134.943 91.195 134.83 91.4482V91.4395Z"
        fill="#41738A" />
    <path
        d="M152.25 105.785C152.058 105.96 151.953 106.195 151.944 106.431C151.944 106.553 151.944 106.667 151.988 106.781C152.005 106.833 152.032 106.894 152.058 106.946C152.075 106.973 152.093 106.999 152.11 107.025C152.128 107.051 152.145 107.077 152.163 107.104C152.32 107.296 152.547 107.409 152.783 107.435C153.018 107.462 153.272 107.401 153.472 107.235C153.673 107.077 153.796 106.85 153.813 106.606C153.83 106.361 153.761 106.108 153.586 105.89C153.569 105.864 153.542 105.837 153.516 105.811C153.49 105.785 153.464 105.768 153.437 105.75C153.385 105.706 153.333 105.68 153.272 105.645C153.158 105.593 153.036 105.558 152.914 105.549C152.669 105.532 152.425 105.61 152.232 105.785H152.25Z"
        fill="#41738A" />
    <path
        d="M128.158 87.797C128.158 88.059 128.272 88.286 128.438 88.4606C128.525 88.548 128.621 88.6091 128.726 88.6615C128.83 88.7051 128.953 88.74 129.075 88.7488C129.328 88.7575 129.555 88.6615 129.73 88.5043C129.905 88.3384 130.027 88.1201 130.044 87.8581C130.062 87.6049 129.974 87.3517 129.809 87.177C129.643 87.0024 129.398 86.8889 129.127 86.8714C128.988 86.8714 128.857 86.8889 128.743 86.9325C128.621 86.9849 128.516 87.0461 128.429 87.1334C128.254 87.308 128.149 87.5438 128.149 87.797H128.158Z"
        fill="#41738A" />
    <path
        d="M76.3871 126.795C76.4656 126.795 76.553 126.769 76.6228 126.717L84.927 120.875C85.1104 120.744 85.154 120.491 85.0231 120.299C84.8921 120.115 84.6388 120.072 84.4467 120.203L76.1425 126.044C75.9592 126.175 75.9155 126.428 76.0465 126.621C76.1251 126.734 76.2561 126.795 76.3871 126.795Z"
        fill="#0D4057" />
    <path
        d="M3.57628e-05 109.103C3.57628e-05 110.797 1.37097 112.168 3.06499 112.168C4.75901 112.168 6.12994 110.797 6.12994 109.103C6.12994 107.409 4.75901 106.039 3.06499 106.039C1.37097 106.039 3.57628e-05 107.409 3.57628e-05 109.103Z"
        fill="#61BDB3" />
    <path
        d="M167.001 132.357C167.001 134.051 168.371 135.422 170.065 135.422C171.759 135.422 173.13 134.051 173.13 132.357C173.13 130.663 171.759 129.292 170.065 129.292C168.371 129.292 167.001 130.663 167.001 132.357Z"
        fill="#EB7045" />
    <mask id="mask0_9163_100579" style="mask-type:luminance" maskUnits="userSpaceOnUse" x="155"
        y="59" width="22" height="21">
        <path d="M176.091 79.6023H155.571C155.597 68.2943 164.774 59.1344 176.091 59.1344V79.6023Z"
            fill="white" />
    </mask>
    <g mask="url(#mask0_9163_100579)">
        <path d="M176.091 79.6023H155.571C155.597 68.2943 164.774 59.1344 176.091 59.1344V79.6023Z"
            fill="#FFC050" />
        <path d="M176.091 79.6023H155.571C155.597 68.2943 164.774 59.1344 176.091 59.1344V79.6023Z"
            fill="#EDAD6D" />
    </g>
    <path
        d="M164.328 70.0811C164.441 70.0811 164.555 70.0374 164.633 69.9501C164.791 69.7842 164.773 69.5222 164.607 69.365L151.745 57.6379C151.579 57.4807 151.317 57.4982 151.16 57.6641C151.003 57.83 151.02 58.092 151.186 58.2491L164.048 69.9763C164.127 70.0461 164.223 70.0811 164.328 70.0811Z"
        fill="#41738A" />
    <path
        d="M96.8994 35.954C97.5019 31.5793 101.196 28.4532 101.021 26.6282C100.846 24.8032 102.069 22.2098 104.357 23.9038C105.693 24.8993 105.736 27.0997 105.544 28.7501C106.147 28.7239 106.644 28.8025 106.644 28.8025C107.16 26.8989 111.272 27.711 111.272 27.711C111.272 27.711 109.997 19.564 111.814 19.3544C112.853 19.2322 114.04 19.5465 115.132 22.2535C115.944 24.2706 116.87 28.4707 116.756 30.2171C116.494 34.3037 108.976 41.5076 108.976 41.5076L107.509 48.2225L94.6204 47.1485C94.6204 47.1485 96.2882 40.32 96.8907 35.9453L96.8994 35.954Z"
        fill="#F1E6CD" />
    <path fill-rule="evenodd" clip-rule="evenodd"
        d="M30.012 56.1601C39.4338 37.9538 51.1609 39.5168 55.5182 39.1763C58.1204 38.9667 68.6163 39.2199 68.6163 39.2199C76.0298 39.7089 81.9414 39.9098 88.8135 48.1004L89.1278 43.9353L112.329 46.8605L109.543 81.9021C111.089 93.1228 101.458 100.117 90.4726 94.2929C87.3727 92.6426 85.7922 90.7826 85.7922 90.7826L85.4517 98.2747L35.4345 99.9775L35.6528 96.4323C35.6528 96.4323 25.2006 98.7724 20.4067 90.4683C15.281 81.5965 26.0826 63.7657 30.012 56.1688V56.1601Z"
        fill="#EB7045" />
    <path
        d="M103.693 37.5708C103.746 37.5708 103.789 37.5708 103.842 37.5708C104.435 37.5271 104.959 37.2128 105.283 36.7238L105.597 36.2523C105.719 36.0602 105.667 35.8069 105.475 35.6847C105.282 35.5624 105.029 35.6148 104.907 35.8069L104.593 36.2785C104.409 36.5579 104.112 36.7325 103.781 36.7587C103.449 36.7849 103.126 36.6539 102.907 36.4094C102.008 35.4052 101.493 34.1042 101.615 33.1C101.772 31.7465 104.051 31.7727 104.077 31.7727C104.191 31.7727 104.304 31.7291 104.383 31.6505C104.462 31.5719 104.505 31.4584 104.497 31.3449C104.392 29.6159 106.217 29.2928 106.601 29.2404C107.134 29.3976 110.784 30.6201 112.347 34.4011C112.434 34.6106 112.67 34.7154 112.888 34.6281C113.098 34.5408 113.194 34.305 113.115 34.0867C111.273 29.6247 106.933 28.472 106.75 28.4196C106.706 28.4109 106.662 28.4022 106.619 28.4109C105.623 28.4895 103.824 29.1269 103.693 30.9694C102.846 31.0392 101.004 31.3711 100.812 33.0039C100.663 34.2264 101.257 35.7807 102.305 36.9596C102.672 37.3612 103.169 37.5883 103.711 37.5883L103.693 37.5708Z"
        fill="#41738A" />
    <path
        d="M114.652 31.9634C114.704 31.9634 114.757 31.9547 114.801 31.9372C115.01 31.8499 115.115 31.6141 115.036 31.4046C113.962 28.6889 111.57 27.4053 111.465 27.3529C111.264 27.2481 111.011 27.3267 110.906 27.5276C110.801 27.7284 110.88 27.9816 111.081 28.0864C111.116 28.1039 113.316 29.3001 114.268 31.7189C114.329 31.8848 114.486 31.9809 114.652 31.9809V31.9634Z"
        fill="#41738A" />
    <path
        d="M108.959 36.9237C108.959 36.9237 109.046 36.9237 109.09 36.9062C109.308 36.8364 109.422 36.6006 109.352 36.3823C107.859 31.9202 104.34 30.9859 104.191 30.951C103.973 30.8986 103.746 31.0296 103.693 31.2479C103.641 31.4662 103.772 31.6932 103.99 31.7456C104.121 31.7805 107.23 32.6188 108.575 36.6443C108.636 36.8189 108.793 36.9237 108.968 36.9237H108.959Z"
        fill="#41738A" />
    <path
        d="M85.7939 91.1776C86.0122 91.1776 86.1955 91.003 86.2043 90.7847L87.7499 52.8527C87.7586 52.6257 87.5839 52.4336 87.3569 52.4249C87.1124 52.4249 86.9377 52.5908 86.929 52.8178L85.3835 90.7498C85.3748 90.9768 85.5494 91.1689 85.7764 91.1776C85.7764 91.1776 85.7852 91.1776 85.7939 91.1776Z"
        fill="#41738A" />
    <path
        d="M87.5457 80.8466H76.0631C73.3736 80.8466 71.339 78.4191 71.7931 75.7733L75.8971 51.2887C76.2551 49.2105 78.0627 47.6998 80.1671 47.6998H91.6498C94.3392 47.6998 96.3738 50.1273 95.9197 52.7731L91.8157 77.2578C91.4577 79.336 89.6502 80.8466 87.5457 80.8466Z"
        fill="#F5F5FA" />
    <path
        d="M76.063 81.2568H87.5457C89.8596 81.2568 91.8243 79.6065 92.2173 77.3274L96.3213 52.8427C96.5571 51.4631 96.1816 50.0572 95.2735 48.9832C94.3741 47.9092 93.0468 47.2892 91.6409 47.2892H80.1583C77.8443 47.2892 75.8796 48.9395 75.4867 51.2186L71.3826 75.7032C71.1469 77.0829 71.5223 78.4888 72.4304 79.5628C73.3298 80.6368 74.6571 81.2568 76.063 81.2568ZM91.6497 48.11C92.811 48.11 93.9026 48.6164 94.6536 49.5071C95.3958 50.3978 95.7101 51.5591 95.518 52.703L91.4139 77.1877C91.0908 79.0651 89.4667 80.436 87.5544 80.436H76.0717C74.9104 80.436 73.8188 79.9295 73.0679 79.0389C72.3256 78.1482 72.0113 76.9868 72.2034 75.8429L76.3075 51.3583C76.6306 49.4809 78.2547 48.11 80.167 48.11H91.6497Z"
        fill="#41738A" />
    <path
        d="M86.1404 59.5489C87.6248 59.5489 88.8386 58.3351 88.8386 56.8507C88.8386 55.3662 87.6248 54.1525 86.1404 54.1525C84.6559 54.1525 83.4421 55.3662 83.4421 56.8507C83.4421 58.3351 84.6559 59.5489 86.1404 59.5489ZM86.1404 54.9733C87.1708 54.9733 88.0177 55.8116 88.0177 56.8507C88.0177 57.8898 87.1795 58.728 86.1404 58.728C85.1013 58.728 84.263 57.8898 84.263 56.8507C84.263 55.8116 85.1013 54.9733 86.1404 54.9733Z"
        fill="#41738A" />
    <path
        d="M64.4718 65.1491C64.4718 65.1491 65.7729 60.2505 69.2308 58.2857C72.6887 56.321 78.0588 53.2386 79.194 55.1946C80.1545 56.845 78.1549 58.4167 77.4301 59.1415C79.3861 58.6263 82.3376 57.9365 82.8703 59.5082C83.3855 61.0363 81.15 62.678 78.8709 63.9092C80.7396 63.2979 82.9227 62.3287 83.6212 64.11C84.1888 65.5595 82.3026 66.6685 79.7267 67.7425C81.0365 67.5592 82.128 67.7425 82.3463 68.7729C82.9575 71.6545 75.0376 72.8857 75.0376 72.8857C75.0376 72.8857 72.9244 78.1948 66.7509 77.4613L64.4107 78.3432L58.8484 66.3978L64.4718 65.1317V65.1491Z"
        fill="#F1E6CD" />
    <path
        d="M70.0422 63.2284C70.1033 63.2284 70.1644 63.2109 70.2255 63.1847L77.6129 59.5085C77.8138 59.4037 77.901 59.1592 77.7963 58.9584C77.6915 58.7575 77.447 58.6702 77.2461 58.775L69.8589 62.4512C69.658 62.556 69.5706 62.8005 69.6754 63.0013C69.7453 63.1498 69.8938 63.2284 70.0422 63.2284Z"
        fill="#41738A" />
    <path
        d="M72.3848 66.8778C72.4372 66.8778 72.4895 66.8691 72.5331 66.8516L79.0124 64.3018C79.2219 64.2145 79.3267 63.9788 79.2481 63.7692C79.1608 63.5596 78.9251 63.4548 78.7155 63.5334L72.2363 66.0832C72.0267 66.1705 71.9219 66.4063 72.0005 66.6158C72.0616 66.7818 72.2189 66.8778 72.3848 66.8778Z"
        fill="#41738A" />
    <path
        d="M74.165 70.223C74.2086 70.223 74.261 70.223 74.3047 70.1968L79.867 68.1361C80.0766 68.0575 80.1901 67.8217 80.1115 67.6034C80.0329 67.3939 79.7972 67.2803 79.5789 67.3589L74.0166 69.4197C73.807 69.4983 73.6935 69.734 73.7721 69.9523C73.8332 70.1183 73.9903 70.223 74.1562 70.223H74.165Z"
        fill="#41738A" />
    <path
        d="M67.2578 71.0515C67.3189 71.0515 67.38 71.0341 67.4412 71.0079C67.642 70.9031 67.7205 70.6586 67.6245 70.4578L64.839 64.9653C64.7342 64.7645 64.4897 64.6859 64.2889 64.7819C64.0881 64.8867 64.0095 65.1312 64.1056 65.3321L66.891 70.8158C66.9609 70.9555 67.1094 71.0428 67.2578 71.0428V71.0515Z"
        fill="#41738A" />
    <path
        d="M35.6534 96.834C35.7145 96.834 35.7757 96.8253 35.8281 96.7991L66.3203 82.4698C66.5299 82.3737 66.6172 82.1293 66.5211 81.9197L57.3264 62.1591C57.2391 61.967 57.012 61.8709 56.8111 61.9495L26.8516 73.2487C26.642 73.3273 26.5285 73.5631 26.6158 73.7814C26.6944 73.991 26.9301 74.1045 27.1484 74.0172L56.75 62.8576L65.6131 81.8935L35.4876 96.0481C35.278 96.1442 35.1907 96.3887 35.2867 96.5982C35.3566 96.7467 35.505 96.834 35.6621 96.834H35.6534Z"
        fill="#41738A" />
    <path
        d="M46.1052 66.5269C46.3322 66.5269 46.5157 66.3436 46.5157 66.1165V53.3241C46.5157 53.0971 46.3322 52.9137 46.1052 52.9137C45.8782 52.9137 45.6948 53.0971 45.6948 53.3241V66.1165C45.6948 66.3436 45.8782 66.5269 46.1052 66.5269Z"
        fill="#41738A" />
    <path fill-rule="evenodd" clip-rule="evenodd"
        d="M65.5981 48.7475C59.4945 48.9396 52.5175 43.1328 48.9461 39.7011C51.7316 39.186 54.0456 39.282 55.5213 39.1685C58.1235 38.9589 68.6194 39.2122 68.6194 39.2122C70.8199 39.3606 73.099 39.5527 75.4217 39.9893C75.4217 39.9893 74.2341 48.4768 65.5894 48.7475H65.5981Z"
        fill="#F1E6CD" />
    <path
        d="M42.7701 57.6883C42.8399 57.6883 42.9098 57.6708 42.9709 57.6359C43.1717 57.5224 43.2329 57.2692 43.1194 57.0771L41.565 54.3701C41.4515 54.1693 41.1983 54.1082 41.0062 54.2217C40.8053 54.3352 40.7442 54.5884 40.8577 54.7805L42.412 57.4875C42.4906 57.6185 42.6304 57.697 42.7701 57.697V57.6883Z"
        fill="#41738A" />
    <path
        d="M50.8498 18.6162C50.2298 25.305 55.2595 31.2165 62.0879 31.819C68.9164 32.4303 75.3519 23.707 75.4218 16.992C75.4829 11.0805 71.728 7.96312 64.332 7.61384C57.4861 7.28202 51.461 11.9362 50.841 18.6162H50.8498Z"
        fill="#41738A" />
    <path
        d="M54.8039 41.7371L57.3012 30.4116C65.4657 30.2457 67.0287 19.9332 67.0811 16.9294C67.0811 16.9294 75.4289 16.9992 75.4289 16.8945C75.4289 15.3576 75.3853 22.1773 75.4289 23.2426L76.2497 23.4609C77.5857 23.819 78.2145 25.3558 77.5159 26.5521L76.4418 28.3945C76.4418 32.551 74.8962 35.4413 70.0325 34.7864L68.2425 44.0773C68.2163 44.2781 54.7951 41.7458 54.7951 41.7458L54.8039 41.7371Z"
        fill="#F1E6CD" />
    <path
        d="M68.8634 40.8553C68.715 41.6412 67.6235 41.7459 67.3266 40.995L64.4974 33.695C64.3315 33.2846 64.7594 32.8829 65.1611 33.0838C66.4447 33.7212 68.5316 34.6468 70.0335 34.7778L68.8634 40.8553Z"
        fill="#D8CCB0" />
    <path
        d="M66.3286 26.4299C65.3593 27.111 63.805 26.7268 62.862 25.5655C61.9189 24.4041 61.945 22.9109 62.9143 22.2211C63.8836 21.54 65.4379 21.9242 66.381 23.0856C67.3241 24.2469 67.2978 25.7401 66.3286 26.4299Z"
        fill="#F1E6CD" />
    <path
        d="M66.2324 25.8558C66.4856 25.8383 66.6602 25.6462 66.6428 25.4191C66.5031 23.3147 64.5034 22.5987 63.473 22.5114C63.246 22.4939 63.0452 22.6598 63.0277 22.8869C63.0102 23.1139 63.1762 23.3147 63.4032 23.3322C63.4993 23.3322 65.691 23.5592 65.822 25.4715C65.8395 25.6898 66.0141 25.8558 66.2324 25.8558Z"
        fill="#41738A" />
    <path
        d="M64.9683 9.77832C67.0815 7.30715 70.0678 4.67881 71.919 6.07594C72.9145 6.82689 71.5959 8.33753 71.5959 8.33753C71.5959 8.33753 75.4293 5.93623 76.9662 7.96206C78.1624 9.54256 75.2808 11.6033 75.2808 11.6033C78.1275 11.2279 80.2407 14.3015 77.9354 16.1964C75.6389 18.0825 67.0814 16.9386 67.0814 16.9386L66.2432 15.5677C66.2432 15.5677 63.7022 11.2628 64.9683 9.77832Z"
        fill="#41738A" />
    <defs>
        <clipPath id="clip0_9163_100579">
            <rect width="16.4633" height="16.4633" fill="white"
                transform="translate(94.4346 14.25) rotate(-43.0741)" />
        </clipPath>
    </defs>
</svg>