<svg width="159" height="233" viewBox="0 0 159 233" fill="none" xmlns="http://www.w3.org/2000/svg">
<path d="M87.4559 47.5352C86.4988 47.1927 85.1641 48.0883 84.0665 49.0718C85.0939 46.5342 86.0949 43.3204 84.9446 42.7321C83.9787 42.2316 82.6616 43.9877 81.5815 45.9019C82.161 43.619 82.4069 41.4238 81.1776 41.4238C79.9483 41.4238 79.0351 43.0394 78.3941 44.7517C78.517 42.8199 78.3679 41.0286 77.3844 41.055C75.2419 41.1252 74.1443 49.1947 74.1443 49.1947C74.1443 49.1947 72.9062 43.9526 71.0622 44.3653C69.2183 44.778 70.4212 49.265 70.7022 50.4328C70.9744 51.6094 71.0622 56.3159 71.0622 56.3159C65.9694 63.1912 59.4453 71.9105 59.4453 71.9105L67.8924 89.7793C72.432 80.5244 79.1757 64.4469 80.1064 61.2858C80.1064 61.2858 89.3964 48.2288 87.4647 47.5352H87.4559Z" fill="#F1E6CD"/>
<path d="M76.8329 50.4036C76.8329 50.4036 76.7538 50.4036 76.7187 50.386C76.4992 50.3246 76.3762 50.0875 76.4377 49.868L78.0007 44.6171C78.0621 44.3976 78.2992 44.2746 78.5187 44.3361C78.7382 44.3976 78.8612 44.6347 78.7997 44.8542L77.2367 50.1051C77.1841 50.2807 77.0173 50.4036 76.8417 50.4036H76.8329Z" fill="#285B65"/>
<path d="M79.4565 51.5907C79.4038 51.5907 79.3511 51.582 79.2984 51.5644C79.0877 51.4766 78.9823 51.2395 79.0701 51.0288L81.1951 45.7515C81.2829 45.5408 81.52 45.4354 81.7307 45.5232C81.9414 45.611 82.0468 45.8481 81.959 46.0589L79.834 51.3361C79.7726 51.4941 79.6146 51.5995 79.4477 51.5995L79.4565 51.5907Z" fill="#285B65"/>
<path d="M82.2136 53.4194C82.1522 53.4194 82.0906 53.4106 82.0379 53.3755C81.8272 53.2789 81.7394 53.0331 81.836 52.8223L83.6887 48.8973C83.7853 48.6866 84.0312 48.5988 84.2419 48.6954C84.4527 48.792 84.5404 49.0378 84.4439 49.2486L82.5911 53.1736C82.5209 53.3228 82.3717 53.4106 82.2136 53.4106V53.4194Z" fill="#285B65"/>
<path d="M77.6115 57.5288C77.5588 57.5288 77.5062 57.52 77.4535 57.4937C77.2428 57.4059 77.1462 57.16 77.234 56.9493C77.8047 55.5707 77.8486 54.359 77.3481 53.3316C76.4437 51.4877 74.0641 50.8291 74.0378 50.8203C73.8534 50.7676 73.7305 50.6096 73.7305 50.4164V49.1783C73.7305 48.95 73.9148 48.7656 74.1431 48.7656C74.3714 48.7656 74.5558 48.95 74.5558 49.1783V50.1179C75.3022 50.3813 77.2076 51.1891 78.0857 52.9628C78.7003 54.2097 78.674 55.6585 77.9979 57.2654C77.9276 57.4234 77.7783 57.52 77.6115 57.52V57.5288Z" fill="#285B65"/>
<path d="M129.849 130.152C129.603 130.275 129.313 130.187 129.19 129.941C129.076 129.704 129.146 129.406 129.383 129.274C129.62 129.142 129.928 129.221 130.051 129.476C130.182 129.722 130.086 130.029 129.849 130.152Z" fill="#285B65"/>
<path d="M142.8 129.933C142.668 129.969 142.537 129.951 142.431 129.898C142.379 129.872 142.326 129.828 142.291 129.784C142.247 129.74 142.212 129.679 142.194 129.617C142.106 129.363 142.247 129.082 142.502 129.003C142.756 128.915 143.037 129.055 143.125 129.319C143.143 129.38 143.151 129.451 143.151 129.512C143.151 129.573 143.125 129.644 143.099 129.696C143.037 129.811 142.94 129.898 142.809 129.942L142.8 129.933Z" fill="#285B65"/>
<path d="M124.389 143.603C124.117 143.629 123.871 143.436 123.836 143.173C123.801 142.909 123.994 142.655 124.266 142.62C124.539 142.576 124.784 142.769 124.811 143.05C124.846 143.322 124.653 143.577 124.389 143.603Z" fill="#285B65"/>
<path d="M156.446 145.657C156.174 145.639 155.972 145.402 155.989 145.13C156.016 144.866 156.227 144.656 156.507 144.664C156.78 144.673 156.999 144.91 156.973 145.191C156.955 145.472 156.718 145.674 156.446 145.657Z" fill="#285B65"/>
<path d="M144.961 164.115C144.83 164.08 144.725 163.992 144.663 163.887C144.628 163.834 144.61 163.772 144.602 163.711C144.602 163.649 144.602 163.588 144.61 163.518C144.672 163.254 144.935 163.096 145.199 163.158C145.462 163.219 145.629 163.491 145.568 163.764C145.55 163.834 145.524 163.895 145.48 163.948C145.436 164.001 145.392 164.045 145.33 164.08C145.225 164.141 145.084 164.168 144.953 164.132L144.961 164.115Z" fill="#285B65"/>
<path d="M116.046 122.494C115.818 122.626 115.563 122.643 115.326 122.591C115.212 122.564 115.098 122.512 115.001 122.441C114.958 122.406 114.905 122.362 114.87 122.318C114.852 122.292 114.835 122.275 114.808 122.248C114.791 122.222 114.773 122.195 114.756 122.169C114.615 121.958 114.58 121.713 114.633 121.475C114.685 121.238 114.817 121.019 115.037 120.87C115.247 120.72 115.502 120.685 115.739 120.738C115.976 120.791 116.204 120.949 116.354 121.177C116.371 121.203 116.389 121.238 116.406 121.265C116.424 121.291 116.433 121.326 116.442 121.361C116.468 121.423 116.477 121.484 116.485 121.546C116.503 121.669 116.503 121.8 116.468 121.923C116.406 122.16 116.257 122.371 116.029 122.503L116.046 122.494Z" fill="#285B65"/>
<path d="M126.908 141.468C126.776 141.477 126.654 141.468 126.539 141.433C126.425 141.398 126.311 141.336 126.215 141.266C126.021 141.117 125.89 140.906 125.863 140.652C125.863 140.59 125.854 140.529 125.863 140.467C125.863 140.406 125.881 140.344 125.89 140.292C125.916 140.177 125.969 140.063 126.039 139.967C126.179 139.773 126.39 139.624 126.645 139.58C126.899 139.536 127.154 139.598 127.347 139.747C127.444 139.817 127.532 139.914 127.602 140.019C127.637 140.072 127.663 140.133 127.681 140.195C127.698 140.256 127.716 140.318 127.725 140.388C127.76 140.66 127.69 140.924 127.54 141.117C127.47 141.214 127.374 141.293 127.268 141.354C127.163 141.415 127.04 141.451 126.908 141.468Z" fill="#285B65"/>
<path d="M125.812 151.111C125.566 151.032 125.373 150.857 125.268 150.646C125.215 150.54 125.18 150.426 125.171 150.303C125.162 150.18 125.171 150.057 125.198 149.935C125.268 149.689 125.426 149.504 125.637 149.381C125.847 149.267 126.093 149.214 126.348 149.276C126.594 149.337 126.813 149.504 126.927 149.715C127.042 149.926 127.077 150.198 127.006 150.461C126.971 150.593 126.91 150.716 126.831 150.813C126.752 150.909 126.646 150.988 126.541 151.05C126.322 151.164 126.067 151.19 125.821 151.111H125.812Z" fill="#285B65"/>
<path d="M110.874 143.851C110.497 143.93 110.119 143.851 109.821 143.666C109.671 143.578 109.54 143.464 109.434 143.324C109.329 143.192 109.241 143.034 109.188 142.858C109.162 142.77 109.153 142.683 109.145 142.595C109.145 142.507 109.136 142.419 109.145 142.34C109.162 142.173 109.215 141.998 109.294 141.84C109.373 141.682 109.487 141.541 109.61 141.418C109.742 141.295 109.9 141.19 110.075 141.128C110.251 141.058 110.444 141.032 110.62 141.041C110.804 141.049 110.98 141.102 111.147 141.19C111.305 141.278 111.463 141.401 111.586 141.55C111.647 141.629 111.708 141.708 111.752 141.796C111.796 141.884 111.831 141.98 111.867 142.086C111.928 142.288 111.946 142.498 111.928 142.691C111.902 142.885 111.84 143.069 111.744 143.227C111.559 143.552 111.252 143.78 110.874 143.851Z" fill="#285B65"/>
<mask id="mask0_8942_29414" style="mask-type:luminance" maskUnits="userSpaceOnUse" x="15" y="174" width="29" height="30">
<path d="M43.5708 203.31L15.1914 174.922V203.31H43.5708Z" fill="white"/>
</mask>
<g mask="url(#mask0_8942_29414)">
<path d="M43.5708 203.31L15.1914 174.922V203.31H43.5708Z" fill="#61BDB3"/>
</g>
<path d="M138.173 187.859C138.173 187.859 154.602 189.782 158.246 192.083C161.907 194.392 134.634 206.949 134.634 206.949L127.926 198.387L138.173 187.859Z" fill="#EB7045"/>
<path d="M133.581 205.622C133.423 205.622 133.274 205.534 133.203 205.385C133.107 205.174 133.195 204.929 133.397 204.832C142.107 200.696 156.139 193.408 156.709 191.441C156.771 191.222 156.999 191.099 157.219 191.16C157.438 191.222 157.561 191.45 157.5 191.67C156.639 194.646 136.092 204.472 133.748 205.578C133.686 205.605 133.634 205.622 133.572 205.622H133.581Z" fill="white"/>
<path d="M138.437 194.348C138.174 194.33 138.007 194.128 138.025 193.9L138.578 187.578C138.596 187.35 138.797 187.183 139.026 187.2C139.254 187.218 139.421 187.42 139.403 187.648L138.85 193.97C138.832 194.19 138.648 194.348 138.437 194.348Z" fill="white"/>
<path d="M142.301 194.269C142.037 194.251 141.87 194.049 141.888 193.821L142.345 188.148C142.362 187.92 142.564 187.753 142.792 187.771C143.021 187.788 143.188 187.99 143.17 188.219L142.714 193.891C142.696 194.11 142.512 194.269 142.301 194.269Z" fill="white"/>
<path d="M143.559 185.119L64.7606 110.922L36.6797 119.07C50.0879 146.098 53.8461 138.88 83.9289 165.731C91.4189 172.422 125.058 204.226 125.058 204.226L143.55 185.119H143.559Z" fill="#285B65"/>
<path d="M94.665 216.543C94.665 216.543 109.241 224.358 111.787 227.844C114.343 231.339 84.3653 232.998 84.3653 232.998L81.2656 222.567L94.665 216.543Z" fill="#EB7045"/>
<path d="M84.0233 231.407C83.8037 231.407 83.6281 231.24 83.6106 231.021C83.593 230.792 83.7686 230.599 83.9969 230.582C93.6118 229.932 109.347 228.308 110.603 226.683C110.743 226.499 111.007 226.472 111.182 226.613C111.367 226.753 111.393 227.017 111.252 227.192C109.356 229.642 86.6399 231.232 84.0496 231.407C84.0408 231.407 84.032 231.407 84.0233 231.407Z" fill="white"/>
<path d="M92.6792 222.699C92.6177 222.699 92.5563 222.681 92.4949 222.655C92.2929 222.55 92.2051 222.304 92.3105 222.102L95.1467 216.421C95.252 216.219 95.4979 216.131 95.6998 216.236C95.9018 216.342 95.9896 216.588 95.8842 216.789L93.048 222.471C92.9778 222.62 92.8285 222.699 92.6792 222.699Z" fill="white"/>
<path d="M96.3075 224.049C96.246 224.049 96.1846 224.032 96.1231 224.005C95.9211 223.909 95.8334 223.654 95.9299 223.452L98.4324 218.342C98.529 218.14 98.7837 218.052 98.9856 218.149C99.1876 218.245 99.2754 218.5 99.1788 218.702L96.6763 223.812C96.606 223.962 96.4567 224.041 96.3075 224.041V224.049Z" fill="white"/>
<path d="M102.929 216.8L62.3971 112.02L36.2744 114.399C33.3768 140.522 40.937 136.509 55.9609 173.933C59.7015 183.258 77.8688 225.704 77.8688 225.704L102.92 216.8H102.929Z" fill="#285B65"/>
<path d="M82.7773 165.127C82.6104 165.127 82.4524 165.031 82.391 164.864L65.409 120.96C65.33 120.75 65.4354 120.504 65.6461 120.425C65.8569 120.346 66.1027 120.451 66.1818 120.662L83.1637 164.565C83.2427 164.776 83.1373 165.022 82.9266 165.101C82.8739 165.119 82.83 165.127 82.7773 165.127Z" fill="white"/>
<path d="M91.5943 82.8941C92.9641 82.8941 94.0792 81.779 94.0792 80.4092V42.731C94.0792 41.3612 92.9641 40.2461 91.5943 40.2461C90.2245 40.2461 89.1094 41.3612 89.1094 42.731V80.4092C89.1094 81.779 90.2245 82.8941 91.5943 82.8941Z" fill="#285B65"/>
<path d="M53.5079 59.5066C58.1132 54.9013 58.1132 47.4347 53.5079 42.8294C48.9026 38.2241 41.436 38.2242 36.8307 42.8294C32.2255 47.4347 32.2255 54.9013 36.8308 59.5065C41.436 64.1118 48.9026 64.1119 53.5079 59.5066Z" fill="#285B65"/>
<path d="M21.5938 76.6753C21.5938 83.1819 26.8709 88.4679 33.3862 88.4679C39.9015 88.4679 45.1788 83.1907 45.1788 76.6753C45.1788 70.16 39.9015 64.8828 33.3862 64.8828C26.8709 64.8828 21.5938 70.16 21.5938 76.6753Z" fill="#285B65"/>
<path d="M29.6016 62.9586C29.6016 67.7616 33.4915 71.6515 38.2945 71.6515C43.0976 71.6515 46.9875 67.7616 46.9875 62.9586C46.9875 58.1555 43.0976 54.2656 38.2945 54.2656C33.4915 54.2656 29.6016 58.1555 29.6016 62.9586Z" fill="#285B65"/>
<path d="M58.6664 65.9033C60.5037 61.4678 58.3974 56.3827 53.9619 54.5454C49.5263 52.7082 44.4412 54.8145 42.604 59.25C40.7667 63.6855 42.873 68.7706 47.3086 70.6079C51.7441 72.4451 56.8292 70.3388 58.6664 65.9033Z" fill="#285B65"/>
<path d="M48.4805 43.7387C48.4805 46.891 51.0357 49.4462 54.1879 49.4462C57.3402 49.4462 59.8954 46.891 59.8954 43.7387C59.8954 40.5864 57.3402 38.0312 54.1879 38.0312C51.0357 38.0312 48.4805 40.5864 48.4805 43.7387Z" fill="#285B65"/>
<path d="M102.98 100.805C102.98 102.508 104.359 103.887 106.063 103.887C107.766 103.887 109.145 102.508 109.145 100.805C109.145 99.1012 107.766 97.7227 106.063 97.7227C104.359 97.7227 102.98 99.1012 102.98 100.805Z" fill="#61BDB3"/>
<path d="M15.3945 45.6367C15.3945 47.3402 16.7731 48.7188 18.4766 48.7188C20.18 48.7188 21.5586 47.3402 21.5586 45.6367C21.5586 43.9333 20.18 42.5547 18.4766 42.5547C16.7731 42.5547 15.3945 43.9333 15.3945 45.6367Z" fill="#EB7045"/>
<path d="M19.652 118.149C19.4149 118.281 19.327 118.579 19.4499 118.816C19.5816 119.053 19.8626 119.15 20.1085 119.027C20.3543 118.904 20.4597 118.605 20.3192 118.36C20.1875 118.114 19.889 118.017 19.6432 118.149H19.652Z" fill="#285B65"/>
<path d="M5.44477 115.109C5.26916 115.319 5.28676 115.627 5.48872 115.802C5.69068 115.978 5.99793 115.96 6.18233 115.758C6.36672 115.556 6.34923 115.249 6.13849 115.065C5.92775 114.88 5.62039 114.898 5.44477 115.109Z" fill="#285B65"/>
<path d="M18.2215 133.867C17.9844 133.981 17.8263 134.183 17.7385 134.411C17.6946 134.525 17.677 134.639 17.6858 134.762C17.6858 134.824 17.6946 134.885 17.7122 134.938C17.7122 134.964 17.7297 134.999 17.7385 135.026C17.7473 135.052 17.7561 135.087 17.7737 135.114C17.8703 135.342 18.0546 135.517 18.2829 135.605C18.5024 135.693 18.7658 135.702 19.0029 135.605C19.2488 135.509 19.4244 135.324 19.5122 135.096C19.6001 134.868 19.6 134.595 19.4947 134.341C19.4771 134.306 19.4683 134.279 19.4507 134.253C19.4332 134.227 19.4157 134.2 19.3981 134.174C19.363 134.121 19.319 134.069 19.2664 134.033C19.1698 133.946 19.0644 133.884 18.9503 133.84C18.722 133.753 18.4586 133.761 18.2303 133.875L18.2215 133.867Z" fill="#285B65"/>
<path d="M22.7061 99.9115C22.6183 100.008 22.5656 100.122 22.5305 100.236C22.4953 100.351 22.4778 100.473 22.4866 100.596C22.5042 100.833 22.6007 101.071 22.7939 101.237C22.8378 101.281 22.8905 101.316 22.9432 101.343C22.9959 101.369 23.0486 101.395 23.11 101.422C23.2242 101.466 23.3383 101.483 23.4613 101.483C23.6983 101.483 23.9354 101.387 24.1198 101.202C24.3042 101.018 24.392 100.772 24.3832 100.526C24.3832 100.403 24.3481 100.28 24.2954 100.157C24.2691 100.096 24.2339 100.043 24.1988 99.9905C24.1549 99.9378 24.111 99.8939 24.0583 99.8412C23.8563 99.6568 23.593 99.5778 23.3559 99.5866C23.233 99.5866 23.1188 99.6217 23.0047 99.6744C22.8905 99.7271 22.794 99.8061 22.7149 99.9115H22.7061Z" fill="#285B65"/>
<path d="M0.0361436 109.709C-0.0341023 109.954 0.00109785 110.218 0.115247 110.42C0.167932 110.525 0.24686 110.622 0.343448 110.692C0.431255 110.771 0.536719 110.833 0.659649 110.876C0.896729 110.955 1.15131 110.929 1.36204 110.824C1.58156 110.71 1.75722 110.534 1.84503 110.297C1.93283 110.051 1.91524 109.788 1.80987 109.577C1.69572 109.357 1.49374 109.182 1.2391 109.094C1.10739 109.05 0.97573 109.032 0.8528 109.041C0.721088 109.059 0.606909 109.094 0.492759 109.147C0.273241 109.261 0.10639 109.463 0.0361436 109.709Z" fill="#285B65"/>
<mask id="mask1_8942_29414" style="mask-type:luminance" maskUnits="userSpaceOnUse" x="123" y="65" width="20" height="19">
<path d="M123.49 83.8828H142.281V65.092H123.49V83.8828Z" fill="white"/>
</mask>
<g mask="url(#mask1_8942_29414)">
<path d="M142.283 65.0938H123.492V83.8845H142.283V65.0938Z" fill="#4DAE6F"/>
</g>
<path d="M43.7471 68.7375L43.7031 67.7014C50.6575 65.6379 48.1374 53.7576 48.1374 53.7576C51.5531 52.9322 52.0185 46.3818 52.001 43.7563C52.001 43.2383 52.4751 42.8431 52.9844 42.9573C54.9777 44.0285 56.6372 45.6091 57.7348 51.3165C57.7348 51.3165 60.0003 51.4219 60.2637 52.0278C60.6149 52.8268 58.7709 54.9254 58.648 55.1274C59.886 60.4485 58.4372 62.4154 53.1512 62.7578L54.1874 69.7385L43.7383 68.7375H43.7471Z" fill="#F1E6CD"/>
<path d="M83.5769 71.9779C83.5769 71.9779 83.5154 67.4558 84.0686 65.603C84.4813 64.2333 85.7632 61.4849 86.5184 60.4224C87.0979 59.6058 89.1176 58.7014 89.1176 58.7014V60.8702C89.3634 61.6781 92.0503 61.7307 92.7352 61.0458C93.3587 60.4224 94.0874 57.9023 94.0874 57.9023C94.0874 57.9023 94.2894 57.9287 94.8689 58.3063C96.107 59.1229 95.589 61.4322 95.589 61.4322C95.589 61.4322 97.7929 61.6166 97.3802 64.1718C97.3802 64.1718 98.2758 66.1562 97.8192 67.7543C97.5294 68.7641 95.229 73.4003 92.6299 76.9565C91.7079 80.1176 84.9555 96.1951 80.4158 105.45L71.9688 87.5812C71.9688 87.5812 78.4928 78.862 83.5857 71.9867L83.5769 71.9779Z" fill="#F1E6CD"/>
<path d="M34.8145 120.799L37.0097 105.433C29.5987 76.6672 38.2741 67.1226 46.7124 67.0084C49.8296 66.9645 53.2716 67.2016 57.2405 69.467C61.8416 72.0837 64.0456 77.519 71.9571 87.5729L80.4041 105.442C77.1113 108.199 73.0107 109.156 67.4613 108.55L71.9571 114.925L34.8233 120.808L34.8145 120.799Z" fill="#4DAE6F"/>
<path d="M71.9573 87.9836C71.8343 87.9836 71.7114 87.9309 71.6324 87.8255C68.7523 84.164 66.6011 81.0731 64.8713 78.5882C62.1492 74.6895 60.3579 72.108 58.0047 70.4397C57.8203 70.308 57.7764 70.0445 57.9081 69.8601C58.0398 69.6757 58.3033 69.6318 58.4876 69.7636C60.955 71.5197 62.7814 74.1451 65.5473 78.114C67.2683 80.5902 69.4196 83.6635 72.2822 87.3075C72.4226 87.4831 72.3963 87.7465 72.2119 87.887C72.1329 87.9485 72.0451 87.9748 71.9573 87.9748V87.9836Z" fill="#285B65"/>
<path d="M94.6379 63.2348C94.5588 63.2348 94.4798 63.2084 94.4096 63.1645C94.2164 63.0328 94.1725 62.7782 94.2954 62.5938L95.235 61.2064C95.3667 61.0132 95.6214 60.9693 95.8058 61.0923C95.9989 61.224 96.0429 61.4786 95.9199 61.663L94.9803 63.0504C94.9013 63.1733 94.7696 63.2348 94.6379 63.2348Z" fill="#285B65"/>
<path d="M96.2635 66.0147C96.1757 66.0147 96.0878 65.9883 96.0088 65.9268C95.8244 65.7864 95.7893 65.5317 95.9298 65.3473L97.0362 63.9073C97.1767 63.7229 97.4313 63.6878 97.6157 63.8283C97.8001 63.9687 97.8353 64.2234 97.6948 64.4078L96.5884 65.8478C96.5094 65.9532 96.3864 66.0059 96.2635 66.0059V66.0147Z" fill="#285B65"/>
<path d="M96.8331 68.6849C96.7541 68.6849 96.6751 68.6586 96.6048 68.6147C96.4116 68.4917 96.359 68.2283 96.4907 68.0439L97.4127 66.6478C97.5356 66.4546 97.7991 66.4019 97.9835 66.5336C98.1766 66.6566 98.2293 66.92 98.0976 67.1044L97.1756 68.5005C97.0966 68.6235 96.9648 68.6849 96.8331 68.6849Z" fill="#285B65"/>
<path d="M67.6027 94.5872C67.5236 94.5872 67.4446 94.5609 67.3744 94.517C67.1812 94.394 67.1285 94.1306 67.2602 93.9462L71.6154 87.3431C71.7383 87.1499 72.0018 87.0972 72.1862 87.2289C72.3794 87.3519 72.432 87.6153 72.3003 87.7997L67.9451 94.4028C67.8661 94.5257 67.7344 94.5872 67.6027 94.5872Z" fill="#285B65"/>
<path d="M49.1377 56.0581C48.2771 56.8835 46.6702 56.7342 45.5638 55.7244C44.4487 54.7146 44.2468 53.2219 45.1073 52.3965C45.9678 51.5711 47.5747 51.7204 48.681 52.7302C49.7874 53.74 49.9982 55.2327 49.1377 56.0581Z" fill="#F1E6CD"/>
<path d="M97.4609 51.0245C109.449 48.195 116.874 36.1828 114.044 24.1946C111.215 12.2063 99.2027 4.78167 87.2144 7.61115C75.2261 10.4406 67.8016 22.4528 70.6311 34.441C73.4605 46.4293 85.4726 53.854 97.4609 51.0245Z" fill="#F5F5FA"/>
<path d="M92.3212 51.9589C79.7999 51.9589 69.6055 41.7732 69.6055 29.2431C69.6055 16.713 79.7911 6.52734 92.3212 6.52734C104.851 6.52734 115.037 16.713 115.037 29.2431C115.037 41.7732 104.851 51.9589 92.3212 51.9589ZM92.3212 7.36151C80.2565 7.36151 70.4309 17.1784 70.4309 29.2519C70.4309 41.3254 80.2477 51.1423 92.3212 51.1423C104.395 51.1423 114.212 41.3254 114.212 29.2519C114.212 17.1784 104.395 7.36151 92.3212 7.36151Z" fill="#285B65"/>
<path d="M103.651 17.5625H80.6593C78.7894 17.5625 77.2734 19.0784 77.2734 20.9484V37.6123C77.2734 39.4823 78.7894 40.9982 80.6593 40.9982H103.651C105.521 40.9982 107.037 39.4823 107.037 37.6123V20.9484C107.037 19.0784 105.521 17.5625 103.651 17.5625Z" fill="#61BDB3"/>
<path d="M103.106 23.262C103.106 24.5541 102.059 25.6061 100.762 25.6061C99.4649 25.6061 98.418 24.5592 98.418 23.262C98.418 21.9649 99.4649 20.918 100.762 20.918C102.059 20.918 103.106 21.9649 103.106 23.262Z" fill="white"/>
<path d="M107.033 37.6134V30.1624C107.033 30.1624 102.493 36.3163 92.1511 30.2288C81.8096 24.1414 77.2695 30.0041 77.2695 30.2288V37.6134C77.2695 39.4775 78.7914 40.9993 80.6554 40.9993H103.642C105.506 40.9993 107.028 39.4775 107.028 37.6134H107.033Z" fill="#EB7045"/>
<path d="M66.8844 13.4462C66.8844 13.4462 66.8054 13.4462 66.7615 13.4287L58.3672 10.9086C58.1476 10.8471 58.0246 10.6101 58.0861 10.3905C58.1564 10.171 58.3847 10.0481 58.6042 10.1095L66.9986 12.6296C67.2181 12.6999 67.3411 12.9282 67.2796 13.1477C67.2269 13.3233 67.06 13.4462 66.8844 13.4462Z" fill="#285B65"/>
<path d="M72.5282 7.35257C72.3526 7.35257 72.1945 7.23842 72.133 7.06281L70.0081 0.538716C69.9379 0.319198 70.0608 0.0908988 70.2715 0.0206528C70.491 -0.0495931 70.7194 0.0645565 70.7896 0.284075L72.9145 6.80816C72.9847 7.02768 72.8707 7.25598 72.6511 7.32623C72.6072 7.34379 72.5633 7.34379 72.5194 7.34379L72.5282 7.35257Z" fill="#285B65"/>
<path d="M67.4624 108.962C58.9012 108.567 46.6082 87.2909 46.0902 86.3865C45.976 86.1845 46.0462 85.9387 46.2394 85.8245C46.4413 85.7104 46.6872 85.7806 46.8013 85.9738C46.9243 86.1933 59.3842 107.768 67.48 108.136C67.7083 108.145 67.8839 108.338 67.8751 108.567C67.8663 108.786 67.682 108.962 67.4624 108.962Z" fill="#285B65"/>
</svg>
