<svg width="140" height="203" viewBox="0 0 140 203" fill="none" xmlns="http://www.w3.org/2000/svg">
    <path
        d="M109.753 43.0556C102.937 43.0556 97.4097 48.5829 97.4097 55.3983C97.4097 55.7726 98.0017 72.6676 104.721 75.0613L108.917 67.7061C109.196 67.7235 109.474 67.741 109.761 67.741C116.577 67.741 122.104 62.2138 122.104 55.3983C122.104 48.5829 116.577 43.0556 109.761 43.0556H109.753Z"
        fill="#EB7045" />
    <path
        d="M115.141 72.6669L115.071 64.3717C107.995 63.0748 108.073 58.3744 108.073 58.3744C104.617 57.9218 103.46 51.5241 103.19 48.9303C103.138 48.4167 102.624 48.086 102.137 48.2514C100.283 49.5222 98.8553 51.4458 98.3852 57.182C98.3852 57.182 96.1308 57.3473 95.9306 57.9653C95.6694 58.7922 96.2613 61.1076 96.3222 61.3252C97.7584 66.5478 98.8379 68.0014 104.078 67.7751L103.799 74.7646L115.124 72.6581L115.141 72.6669Z"
        fill="#F1E6CD" />
    <path
        d="M108.003 68.0886L104.495 71.9359C104.295 72.1622 103.921 72.0055 103.93 71.7009L104.086 67.7752L107.742 67.5489C108.038 67.5315 108.203 67.8797 108.003 68.0886Z"
        fill="#EA758B" />
    <path
        d="M123.365 67.6103L122.094 55.1719L108.411 58.2097C108.411 58.2097 104.99 68.4198 108.089 72.0494L110.169 74.1211C108.785 76.3058 107.976 78.8997 107.976 81.6851C107.976 89.4841 114.304 95.8122 122.103 95.8122C129.902 95.8122 136.23 89.4841 136.23 81.6851C136.23 74.3126 130.581 68.2631 123.374 67.619L123.365 67.6103Z"
        fill="#EB7045" />
    <path
        d="M106.854 60.41C107.864 61.028 109.387 60.5406 110.24 59.322C111.102 58.1034 110.98 56.615 109.97 56.0057C108.96 55.3877 107.437 55.8751 106.584 57.0937C105.722 58.3123 105.844 59.8007 106.854 60.41Z"
        fill="#F1E6CD" />
    <path
        d="M106.889 59.8267C106.663 59.8267 106.48 59.6439 106.48 59.4176C106.48 57.3199 108.413 56.4668 109.44 56.3189C109.666 56.2841 109.875 56.4407 109.91 56.667C109.945 56.8933 109.788 57.1023 109.57 57.1371C109.475 57.1545 107.307 57.5113 107.307 59.4263C107.307 59.6526 107.124 59.8354 106.898 59.8354L106.889 59.8267Z"
        fill="#41738A" />
    <path
        d="M103.92 74.3201L98.5494 81.562L88.2957 71.909C88.2957 71.909 88.6353 67.4523 89.0444 66.2337C89.5754 64.6322 88.9748 63.3701 87.9302 63.2134C86.0327 62.9261 84.9099 66.8692 84.9099 66.8692C82.229 62.3169 80.3489 58.722 79.0606 59.3835C78.1293 59.8622 77.8334 60.8371 78.6777 62.7347C77.6854 61.2201 76.5798 60.0538 75.7007 60.5673C74.6736 61.1679 75.1175 63.196 75.9009 65.2328C74.5952 63.1002 73.4114 62.8391 72.8282 63.1612C72.1232 63.5442 71.8622 64.6844 73.6814 67.6438C73.6814 67.6438 72.8719 66.9475 72.3584 67.67C71.5141 68.8799 80.4185 76.4352 80.4185 76.4352C80.4185 76.4352 86.7725 88.8823 90.907 94.1223C100.125 105.803 109.856 98.4048 118.595 87.7333L103.911 74.3113L103.92 74.3201Z"
        fill="#F1E6CD" />
    <path
        d="M99.7954 202.23C102.407 191.776 104.983 181.601 106.089 177.58C106.228 177.084 106.367 176.587 106.498 176.109L111.886 202.23H139.574C137.354 189.287 134.786 174.507 133.803 169.398C126.23 130.15 129.66 126.642 124.681 120.062L93.2149 119.313L72.6553 202.23H99.8039H99.7954Z"
        fill="#EDAD6D" />
    <path
        d="M109.7 22.4256C109.7 24.1143 108.333 25.4808 106.645 25.4808C104.956 25.4808 103.589 24.1143 103.589 22.4256C103.589 20.737 104.956 19.3704 106.645 19.3704C108.333 19.3704 109.7 20.737 109.7 22.4256Z"
        fill="#73C0AE" />
    <path
        d="M75.1361 140.073C75.1361 141.761 73.7695 143.128 72.0808 143.128C70.3922 143.128 69.0256 141.761 69.0256 140.073C69.0256 138.384 70.3922 137.018 72.0808 137.018C73.7695 137.018 75.1361 138.384 75.1361 140.073Z"
        fill="#EB7045" />
    <path
        d="M50.2928 172.53C50.0491 172.652 49.9446 172.939 50.0665 173.174C50.1884 173.409 50.4582 173.522 50.7106 173.418C50.9543 173.313 51.0762 173.017 50.9544 172.765C50.8325 172.512 50.5365 172.408 50.3015 172.53H50.2928Z"
        fill="#41738A" />
    <path
        d="M58.1704 162.399C58.066 162.477 57.9964 162.599 57.979 162.712C57.9703 162.773 57.979 162.834 57.979 162.895C57.9877 162.956 58.0136 163.017 58.0572 163.069C58.2051 163.287 58.5098 163.348 58.7274 163.191C58.9537 163.043 59.0061 162.73 58.8494 162.503C58.8059 162.451 58.7622 162.399 58.71 162.364C58.6578 162.329 58.5969 162.312 58.5272 162.303C58.4054 162.286 58.2749 162.303 58.1617 162.39L58.1704 162.399Z"
        fill="#41738A" />
    <path
        d="M36.3744 168.848C36.1916 169.048 36.2003 169.353 36.3831 169.536C36.5746 169.719 36.888 169.719 37.0795 169.536C37.271 169.344 37.2623 169.04 37.0621 168.848C36.8619 168.657 36.5572 168.657 36.3744 168.848Z"
        fill="#41738A" />
    <path
        d="M53.8438 142.213C53.6958 142.44 53.7654 142.744 53.9917 142.884C54.218 143.023 54.514 142.979 54.6707 142.753C54.8274 142.535 54.7665 142.213 54.5315 142.074C54.2965 141.926 53.9918 141.987 53.8525 142.213H53.8438Z"
        fill="#41738A" />
    <path
        d="M32.3793 140.325C32.3271 140.446 32.3358 140.586 32.3793 140.699C32.4054 140.751 32.4404 140.803 32.4839 140.847C32.5274 140.89 32.5796 140.925 32.6405 140.951C32.8842 141.064 33.1714 140.951 33.2759 140.708C33.3891 140.464 33.2759 140.168 33.0147 140.055C32.9538 140.029 32.8842 140.011 32.8233 140.011C32.7623 140.011 32.6927 140.029 32.6318 140.046C32.5186 140.098 32.4141 140.185 32.3706 140.316L32.3793 140.325Z"
        fill="#41738A" />
    <path
        d="M48.135 188.033C47.8999 188.138 47.7258 188.329 47.63 188.547C47.5865 188.66 47.5605 188.773 47.5605 188.895C47.5605 188.956 47.5604 189.017 47.5778 189.069C47.5778 189.095 47.5952 189.13 47.6039 189.156C47.6039 189.182 47.6213 189.217 47.63 189.243C47.7171 189.478 47.8912 189.652 48.1088 189.757C48.3264 189.852 48.5789 189.878 48.8226 189.791C49.0663 189.704 49.249 189.53 49.3448 189.313C49.4405 189.086 49.4579 188.825 49.3622 188.564C49.3535 188.529 49.336 188.503 49.3186 188.468C49.3012 188.442 49.284 188.407 49.2666 188.381C49.2317 188.329 49.1881 188.277 49.1446 188.233C49.0575 188.146 48.9532 188.068 48.8401 188.024C48.6137 187.929 48.3613 187.92 48.1262 188.024L48.135 188.033Z"
        fill="#41738A" />
    <path
        d="M39.5694 168.117C39.4824 168.212 39.4215 168.317 39.378 168.43C39.3345 168.543 39.317 168.665 39.317 168.787C39.317 169.031 39.4128 169.257 39.5869 169.431C39.6304 169.474 39.6828 169.509 39.735 169.544C39.7872 169.579 39.8394 169.605 39.8916 169.631C39.9961 169.675 40.1178 169.701 40.231 169.701C40.466 169.701 40.7097 169.622 40.9012 169.448C41.0927 169.274 41.1885 169.039 41.1885 168.787C41.1885 168.665 41.1711 168.543 41.1188 168.421C41.0927 168.36 41.0667 168.308 41.0319 168.256C40.9971 168.204 40.9535 168.151 40.9012 168.108C40.7097 167.916 40.4573 167.821 40.2136 167.821C40.0917 167.821 39.9699 167.847 39.8655 167.89C39.7523 167.942 39.6478 168.012 39.5607 168.108L39.5694 168.117Z"
        fill="#41738A" />
    <path
        d="M31.2742 163.243C31.1959 163.487 31.222 163.74 31.3178 163.957C31.37 164.062 31.4396 164.157 31.5267 164.236C31.6137 164.314 31.7182 164.384 31.8314 164.427C32.0664 164.514 32.3102 164.506 32.5365 164.41C32.7541 164.314 32.9367 164.149 33.0412 163.905C33.1369 163.67 33.1369 163.409 33.0412 163.191C32.9455 162.974 32.7541 162.782 32.5016 162.686C32.3711 162.634 32.2493 162.617 32.1187 162.617C31.9881 162.617 31.8661 162.652 31.7617 162.704C31.5441 162.808 31.3613 162.991 31.2829 163.243H31.2742Z"
        fill="#41738A" />
    <path
        d="M103.094 8.20193C103.294 8.37602 103.32 8.68065 103.146 8.88955C102.972 9.08975 102.676 9.12458 102.458 8.9592C102.25 8.79382 102.206 8.47178 102.389 8.27158C102.572 8.06268 102.876 8.03656 103.085 8.21065L103.094 8.20193Z"
        fill="#41738A" />
    <path
        d="M123.096 0.186177C123.183 0.290628 123.218 0.421222 123.2 0.543082C123.2 0.604012 123.174 0.664953 123.148 0.717179C123.122 0.769404 123.079 0.821615 123.026 0.865137C122.826 1.03922 122.521 1.01311 122.347 0.812913C122.173 0.612714 122.199 0.299371 122.408 0.116581C122.461 0.0730596 122.522 0.0382021 122.582 0.0207936C122.643 0.00338501 122.713 -0.00528315 122.774 0.00342113C122.896 0.0121254 123.018 0.0817703 123.105 0.177517L123.096 0.186177Z"
        fill="#41738A" />
    <path
        d="M117.656 13.1389C117.743 13.2433 117.778 13.3739 117.76 13.4958C117.76 13.5567 117.734 13.6177 117.708 13.6699C117.682 13.7221 117.638 13.7743 117.586 13.8178C117.386 13.9919 117.081 13.9658 116.907 13.7656C116.733 13.5654 116.759 13.2521 116.968 13.0693C117.02 13.0258 117.081 12.9909 117.142 12.9735C117.203 12.9561 117.273 12.9474 117.334 12.9561C117.456 12.9648 117.577 13.0345 117.664 13.1302L117.656 13.1389Z"
        fill="#41738A" />
    <path
        d="M130.791 21.8072C130.939 22.0162 130.992 22.2686 130.957 22.5036C130.939 22.6167 130.896 22.7299 130.835 22.8343C130.774 22.9388 130.696 23.0346 130.6 23.1129C130.4 23.2696 130.165 23.3218 129.921 23.2957C129.686 23.2609 129.46 23.1564 129.294 22.9649C129.129 22.7647 129.059 22.5123 129.094 22.2773C129.129 22.0335 129.251 21.8072 129.468 21.6332C129.573 21.5461 129.695 21.4852 129.817 21.4591C129.939 21.4329 130.069 21.4243 130.191 21.4417C130.435 21.4765 130.652 21.6071 130.8 21.816L130.791 21.8072Z"
        fill="#41738A" />
    <path
        d="M130.973 37.2488C131.121 37.4577 131.173 37.7101 131.139 37.9452C131.121 38.0583 131.078 38.1715 131.017 38.2759C130.956 38.3804 130.878 38.4761 130.782 38.5545C130.582 38.7111 130.347 38.7634 130.103 38.7373C129.868 38.7025 129.642 38.598 129.476 38.4065C129.311 38.2063 129.241 37.9539 129.276 37.7189C129.311 37.4752 129.433 37.2488 129.65 37.0747C129.755 36.9877 129.877 36.9268 129.999 36.9007C130.12 36.8746 130.251 36.8659 130.373 36.8833C130.616 36.9181 130.834 37.0486 130.982 37.2575L130.973 37.2488Z"
        fill="#41738A" />
    <path
        d="M85.4333 10.1357H7.19037C3.44553 10.1357 0.409698 13.1715 0.409698 16.9164V73.4245C0.409698 77.1694 3.44553 80.2052 7.19037 80.2052H85.4333C89.1781 80.2052 92.2137 77.1694 92.2137 73.4245V16.9164C92.2137 13.1715 89.1781 10.1357 85.4333 10.1357Z"
        fill="#F5F5FA" />
    <path
        d="M85.4239 80.6135H7.18975C3.22059 80.6135 0 77.3842 0 73.4237V16.9242C0 12.9551 3.2293 9.7345 7.18975 9.7345H85.4239C89.3931 9.7345 92.6137 12.9638 92.6137 16.9242V73.4237C92.6137 77.3929 89.3844 80.6135 85.4239 80.6135ZM7.18975 10.544C3.67322 10.544 0.818152 13.399 0.818152 16.9155V73.415C0.818152 76.9315 3.67322 79.7865 7.18975 79.7865H85.4239C88.9405 79.7865 91.7953 76.9315 91.7953 73.415V16.9155C91.7953 13.399 88.9405 10.544 85.4239 10.544H7.18975Z"
        fill="#41738A" />
    <path
        d="M64.6127 67.339H28.0112C27.7848 67.339 27.6021 67.1562 27.6021 66.9299V30.3283C27.6021 30.102 27.7848 29.9193 28.0112 29.9193H64.6127C64.839 29.9193 65.0218 30.102 65.0218 30.3283V66.9299C65.0218 67.1562 64.839 67.339 64.6127 67.339ZM28.4289 66.5207H64.2036V30.7462H28.4289V66.5207Z"
        fill="#41738A" />
    <path
        d="M32.4228 30.3372C32.4228 32.7744 30.4469 34.7503 28.0097 34.7503C25.5725 34.7503 23.5968 32.7744 23.5968 30.3372C23.5968 27.9 25.5725 25.9241 28.0097 25.9241C30.4469 25.9241 32.4228 27.9 32.4228 30.3372Z"
        fill="#73C0AE" />
    <path
        d="M64.6121 34.7503C67.0493 34.7503 69.0252 32.7745 69.0252 30.3372C69.0252 27.8999 67.0493 25.9241 64.6121 25.9241C62.1748 25.9241 60.1989 27.8999 60.1989 30.3372C60.1989 32.7745 62.1748 34.7503 64.6121 34.7503Z"
        fill="#F1E6CD" />
    <path
        d="M32.4228 66.9309C32.4228 69.3681 30.4469 71.3439 28.0097 71.3439C25.5725 71.3439 23.5968 69.3681 23.5968 66.9309C23.5968 64.4937 25.5725 62.5178 28.0097 62.5178C30.4469 62.5178 32.4228 64.4937 32.4228 66.9309Z"
        fill="#F1E6CD" />
    <path
        d="M69.0165 66.9309C69.0165 69.3681 67.0406 71.3439 64.6034 71.3439C62.1662 71.3439 60.1905 69.3681 60.1905 66.9309C60.1905 64.4937 62.1662 62.5178 64.6034 62.5178C67.0406 62.5178 69.0165 64.4937 69.0165 66.9309Z"
        fill="#EB7045" />
    <mask id="mask0_9163_100658" style="mask-type:luminance" maskUnits="userSpaceOnUse" x="2"
        y="151" width="20" height="20">
        <path d="M21.1505 170.087V151.46H2.52335V170.087H21.1505Z" fill="white" />
    </mask>
    <g mask="url(#mask0_9163_100658)">
        <path d="M21.1501 151.46H2.52298V170.087H21.1501V151.46Z" fill="#EB7045" />
    </g>
    <path
        d="M106.497 176.518C106.315 176.518 106.14 176.387 106.097 176.204L97.0008 137.105C96.9486 136.887 97.0879 136.661 97.3055 136.609C97.5231 136.556 97.7495 136.696 97.8017 136.913L106.898 176.013C106.95 176.231 106.811 176.457 106.593 176.509C106.558 176.509 106.532 176.518 106.497 176.518Z"
        fill="#41738A" />
    <path
        d="M128.362 126.286L124.489 112.585C129.415 75.1045 119.571 70.822 110.492 71.3443C105.148 71.6489 99.7338 72.7457 90.6639 85.2798L91.813 86.1242L94.3112 111.018L90.6639 126.834L128.362 126.294V126.286Z"
        fill="#41738A" />
    <path
        d="M91.8123 86.1148L86.4418 93.3568L76.0663 83.5906C76.1534 78.1678 71.8708 73.8157 71.8708 73.8157C70.8524 71.1173 68.9288 68.3146 66.9356 69.4809C64.9423 70.6386 67.98 75.6871 67.98 75.6871C64.3504 75.1823 64.2459 77.9763 64.2459 77.9763C64.2459 77.9763 62.5659 76.4008 62.8967 74.1986C63.2884 71.57 63.4624 69.5331 61.7302 69.2372C59.9197 68.9325 59.3888 71.8224 58.9623 73.8505C58.2747 77.0623 59.8589 80.518 60.5465 81.754C61.2342 82.9987 68.3194 88.2299 68.3194 88.2299C68.3194 88.2299 74.6736 100.677 78.8081 105.917C88.0259 117.598 97.7574 110.2 106.496 99.5281L91.8123 86.1061V86.1148Z"
        fill="#F1E6CD" />
    <path
        d="M67.0834 79.9791C65.4383 79.9791 64.0107 78.3253 63.941 78.247C63.7931 78.0729 63.8192 77.8118 63.9846 77.6725C64.1587 77.5245 64.4197 77.5506 64.559 77.716C64.5764 77.7334 66.3087 79.7354 67.7711 78.9956C68.0496 78.8563 68.2148 78.6561 68.2932 78.3862C68.5195 77.5767 67.8928 76.3233 67.6317 75.9055C67.5098 75.7141 67.5709 75.4616 67.7623 75.3397C67.9538 75.2179 68.2062 75.2788 68.328 75.4703C68.3716 75.54 69.4597 77.2808 69.0854 78.6126C68.9461 79.1174 68.624 79.4917 68.1366 79.7354C67.7797 79.9095 67.4228 79.9879 67.0747 79.9879L67.0834 79.9791Z"
        fill="#41738A" />
    <path
        d="M67.7193 79.674C67.5713 79.674 67.4321 79.5956 67.3625 79.4651L66.1437 77.2803C66.0306 77.0801 66.1089 76.8364 66.3003 76.7233C66.5005 76.6101 66.7444 76.6797 66.8575 76.8799L68.0761 79.0647C68.1892 79.2649 68.1109 79.5086 67.9194 79.6218C67.8585 79.6566 67.7889 79.674 67.7193 79.674Z"
        fill="#41738A" />
    <path
        d="M90.6635 99.4926C90.5416 99.4926 90.4111 99.4316 90.3328 99.3272L86.1198 93.5997C86.0154 93.4518 86.0154 93.2603 86.1198 93.1123L91.4905 85.8703C91.6211 85.6875 91.8821 85.6528 92.0649 85.7833C92.2477 85.9226 92.2826 86.175 92.1521 86.3578L86.9641 93.3561L91.003 98.8397C91.1336 99.0225 91.0987 99.2749 90.9159 99.4142C90.8463 99.4664 90.7592 99.4926 90.6722 99.4926H90.6635Z"
        fill="#41738A" />
    <path d="M48.4814 96.3168H19.0958V125.702H48.4814V96.3168Z" fill="#73C0AE" />
    <path
        d="M41.4917 120.201C41.335 120.201 41.1871 120.106 41.1174 119.958L33.7885 103.254L26.4596 119.958C26.3725 120.166 26.1287 120.262 25.9198 120.166C25.7109 120.079 25.6152 119.836 25.7109 119.627L33.4143 102.062C33.4839 101.914 33.6231 101.818 33.7885 101.818C33.9539 101.818 34.1018 101.914 34.1627 102.062L41.8661 119.627C41.9532 119.836 41.8661 120.079 41.6572 120.166C41.605 120.193 41.5439 120.201 41.4917 120.201Z"
        fill="white" />
    <path
        d="M40.9432 115.352H26.6421C26.4158 115.352 26.233 115.17 26.233 114.943C26.233 114.717 26.4158 114.534 26.6421 114.534H40.9432C41.1695 114.534 41.3522 114.717 41.3522 114.943C41.3522 115.17 41.1695 115.352 40.9432 115.352Z"
        fill="white" />
    <path
        d="M114.513 93.8001C114.287 93.8001 114.104 93.6173 114.104 93.391C114.104 93.1647 114.287 92.9819 114.513 92.9732L117.76 92.9471C117.986 92.9471 118.169 93.1299 118.178 93.3562C118.178 93.5825 117.995 93.7653 117.769 93.774L114.522 93.8001H114.513Z"
        fill="#0D4057" />
    <path
        d="M106.497 99.9551C106.392 99.9551 106.297 99.9203 106.218 99.8506L90.3852 85.5843C90.2198 85.4364 90.2024 85.1752 90.359 85.0011C90.507 84.8357 90.7681 84.8184 90.9422 84.975L106.462 98.9541L115.776 87.6385C115.923 87.4645 116.176 87.4384 116.35 87.5863C116.524 87.7343 116.55 87.9867 116.402 88.1608L106.819 99.8071C106.749 99.8942 106.645 99.9464 106.532 99.9551C106.523 99.9551 106.514 99.9551 106.506 99.9551H106.497Z"
        fill="#0D4057" />
    <path
        d="M81.6563 18.0657C81.5518 18.0657 81.4473 18.0222 81.369 17.9439C81.2123 17.7872 81.2123 17.5261 81.369 17.3607L85.8344 12.8954C85.9911 12.7387 86.2521 12.7387 86.4175 12.8954C86.5742 13.0521 86.5742 13.3132 86.4175 13.4786L81.9523 17.9439C81.874 18.0222 81.7694 18.0657 81.665 18.0657H81.6563Z"
        fill="#41738A" />
    <path
        d="M86.1215 18.0657C86.017 18.0657 85.9127 18.0222 85.8344 17.9439L81.369 13.4786C81.2123 13.3219 81.2123 13.0608 81.369 12.8954C81.5256 12.7387 81.7869 12.7387 81.9523 12.8954L86.4175 17.3607C86.5742 17.5174 86.5742 17.7785 86.4175 17.9439C86.3392 18.0222 86.2346 18.0657 86.1302 18.0657H86.1215Z"
        fill="#41738A" />
    <path
        d="M92.2131 20.3025H0.409076C0.182764 20.3025 0 20.1197 0 19.8934C0 19.6671 0.182764 19.4843 0.409076 19.4843H92.2131C92.4394 19.4843 92.6222 19.6671 92.6222 19.8934C92.6222 20.1197 92.4394 20.3025 92.2131 20.3025Z"
        fill="#41738A" />
</svg>