<svg width="113" height="324" viewBox="0 0 113 324" fill="none" xmlns="http://www.w3.org/2000/svg">
<path d="M49.6319 323.624C51.1016 309.397 53.2339 288.737 54.7879 277.172C62.1242 222.288 75.1947 224.168 63.9553 184.125L28.4902 195.449L11.3359 323.612H49.6319V323.624Z" fill="#114954"/>
<path d="M98.662 323.621C97.6501 311.478 95.6744 287.614 95.036 275.543C92.1207 220.298 84.5194 189.688 84.5194 189.688L52.0781 202.059L60.1372 323.633H98.674L98.662 323.621Z" fill="#114954"/>
<path d="M63.7806 123.256C78.887 124.894 76.6825 105.113 70.1171 96.4159C64.9371 89.5493 58.7452 90.0071 54.288 90.8504C49.4573 91.7659 43.7352 92.9224 40.9284 100.464C38.1216 108.005 35.1098 125.508 50.3126 124.231C56.89 123.677 58.6247 122.689 63.7927 123.256H63.7806Z" fill="#114954"/>
<path d="M96.9829 60.6434C96.9829 60.6434 97.0913 60.6073 97.1395 60.5953C97.1395 60.5953 95.959 51.2953 95.8264 50.5605C95.5494 48.9583 97.9466 48.3078 98.6453 49.6329C98.6453 49.6329 95.2723 42.8628 96.9227 42.2122C98.5731 41.5617 98.9946 42.3689 99.5367 43.2844C99.5367 43.2844 100.416 41.8027 101.934 43.7903C103.452 45.7901 108.969 57.5354 108.897 58.6196C108.825 59.7159 102.874 70.9432 102.874 70.9432L104.175 76.4244H92.2487L91.3813 69.6904C90.8754 65.7271 93.2002 61.9204 96.9708 60.6434H96.9829Z" fill="#F1E6CD"/>
<path d="M101.006 58.7853C100.753 58.7853 100.536 58.6287 100.464 58.3758L97.8498 49.2204C97.7655 48.9192 97.9341 48.606 98.2352 48.5217C98.5364 48.4373 98.8496 48.606 98.9339 48.9072L101.548 58.0625C101.632 58.3637 101.464 58.6769 101.163 58.7612C101.114 58.7733 101.054 58.7853 101.006 58.7853Z" fill="#114954"/>
<path d="M105.452 58.2171C105.223 58.2171 105.018 58.0846 104.922 57.8677L99.0192 43.4962C98.8987 43.2071 99.0433 42.8698 99.3324 42.7614C99.6215 42.6409 99.9588 42.7855 100.067 43.0746L105.97 57.4461C106.091 57.7352 105.946 58.0725 105.657 58.193C105.585 58.2171 105.512 58.2412 105.44 58.2412L105.452 58.2171Z" fill="#114954"/>
<path d="M15.2115 60.6434C15.2115 60.6434 15.103 60.6073 15.0549 60.5953C15.0549 60.5953 16.2355 51.2953 16.368 50.5605C16.6451 48.9583 14.2477 48.3078 13.549 49.6329C13.549 49.6329 16.9221 42.8628 15.2718 42.2122C13.6214 41.5617 13.1997 42.3689 12.6576 43.2844C12.6576 43.2844 11.7782 41.8027 10.2604 43.7903C8.7425 45.7901 3.2253 57.5354 3.29758 58.6196C3.36986 59.7159 9.32085 70.9432 9.32085 70.9432L8.01973 76.4244H19.9458L20.8131 69.6904C21.3191 65.7271 18.9941 61.9204 15.2235 60.6434H15.2115Z" fill="#F1E6CD"/>
<path d="M11.1853 58.7897C11.1853 58.7897 11.0768 58.7897 11.0286 58.7656C10.7275 58.6813 10.5469 58.3681 10.6432 58.0669L13.2572 48.9115C13.3416 48.6104 13.6549 48.4297 13.956 48.526C14.2572 48.6104 14.4378 48.9236 14.3414 49.2248L11.7274 58.3801C11.6552 58.6331 11.4262 58.7897 11.1853 58.7897Z" fill="#114954"/>
<path d="M6.7446 58.2255C6.67232 58.2255 6.59998 58.2135 6.5277 58.1773C6.23858 58.0569 6.09401 57.7316 6.21448 57.4305L12.1173 43.0589C12.2378 42.7698 12.563 42.6253 12.8521 42.7457C13.1412 42.8662 13.2858 43.1914 13.1654 43.4805L7.26252 57.8521C7.17819 58.0689 6.96143 58.2014 6.73254 58.2014L6.7446 58.2255Z" fill="#114954"/>
<path d="M66.8551 130.007C66.5058 129.959 66.1565 129.923 65.8071 129.887C57.2179 129.176 48.9781 129.164 48.9781 129.164C48.9781 129.164 44.3041 129.453 39.0156 132.67C42.1236 133.597 54.1099 136.163 66.8551 130.007Z" fill="#F1E6CD"/>
<path d="M92.1309 76.4402C92.1309 76.4402 93.6728 122.566 69.6641 129.324L85.2281 154.092C85.2281 154.092 108.647 141.588 111.538 111.11C113.778 87.5351 110.249 75.7656 110.249 75.7656L92.1309 76.4402Z" fill="#61BDB3"/>
<path d="M20.1517 76.4402C20.1517 76.4402 18.6096 122.566 42.6184 129.325L27.5723 153.815C27.5723 153.815 3.63591 141.588 0.744747 111.11C-1.49591 87.5351 2.03366 75.7656 2.03366 75.7656L20.1517 76.4402Z" fill="#61BDB3"/>
<path d="M88.7678 141.29L81.07 169.081C80.3231 171.779 80.3834 174.634 81.2387 177.309L87.0692 198.39C87.0692 198.39 79.7208 200.534 56.9408 200.534C38.0759 200.534 27.475 197.776 27.475 197.776L29.0892 185.006C30.7275 175.791 30.4866 166.37 28.3544 157.251C28.1014 156.155 27.8364 154.999 27.5834 153.806C25.5837 144.446 33.2333 128.291 33.2333 128.291L88.7798 128.062V141.278L88.7678 141.29Z" fill="#61BDB3"/>
<path d="M63.9774 108.436L59.3273 96.0156C59.3273 96.0156 45.4016 97.3046 44.3174 104.725C43.1609 112.64 43.1008 118.916 46.0522 121.036C46.2931 121.205 47.7868 122.699 50.5575 122.506L50.2202 129.589L62.5558 129.385L63.9774 108.448V108.436Z" fill="#F1E6CD"/>
<path d="M59.8942 98.3125C59.8942 98.3125 58.8582 100.18 58.3281 101.613L59.8942 98.3125Z" fill="#4DAE6F"/>
<path d="M58.3297 102.414C58.2334 102.414 58.137 102.402 58.0406 102.366C57.619 102.21 57.4021 101.74 57.5587 101.318C58.1129 99.8485 59.1369 97.9933 59.1731 97.909C59.3899 97.5115 59.8837 97.379 60.2813 97.5958C60.6788 97.8126 60.8113 98.3066 60.5945 98.7041C60.5945 98.7282 59.5826 100.535 59.0766 101.896C58.9562 102.222 58.6429 102.426 58.3177 102.426L58.3297 102.414Z" fill="#4DAE6F"/>
<path d="M64.2783 110.579C64.2783 110.579 58.5562 109.47 57.8093 104.314C57.0624 99.1584 50.3404 98.5681 50.3404 98.5681C50.3404 98.5681 46.5818 99.568 44.1484 104.676L46.341 98.4356L55.7854 94.7253L60.8811 94.4844L64.2904 99.9173V110.566L64.2783 110.579Z" fill="#114954"/>
<path d="M68.1691 128.156C68.1691 128.156 65.796 141.203 56.1467 140.48C46.4974 139.757 47.3889 128.253 47.3889 128.253L68.1691 128.156Z" fill="#F1E6CD"/>
<path d="M27.4733 153.777C27.4733 153.777 27.3649 153.777 27.3167 153.753C27.0155 153.669 26.8349 153.356 26.9192 153.055C27.5095 150.922 33.0629 137.816 33.8098 137.069C34.0266 136.852 34.3881 136.852 34.6169 137.069C34.8338 137.286 34.8336 137.635 34.6289 137.852C34.0024 138.695 28.6779 150.959 28.0153 153.356C27.943 153.609 27.7142 153.765 27.4733 153.765V153.777Z" fill="#114954"/>
<path d="M85.4665 153.783C85.2737 153.783 85.0809 153.674 84.9725 153.493C82.1898 148.627 78.5879 140.82 78.5518 140.748C78.4192 140.459 78.5517 140.122 78.8288 139.989C79.1179 139.857 79.4552 139.989 79.5877 140.266C79.6239 140.339 83.2138 148.109 85.9725 152.927C86.1291 153.204 86.0326 153.542 85.7676 153.698C85.6833 153.746 85.5869 153.77 85.4906 153.77L85.4665 153.783Z" fill="#114954"/>
<path d="M60.161 112.435C61.3416 113.567 63.534 113.362 65.0639 111.977C66.5938 110.592 66.8709 108.544 65.6903 107.411C64.5098 106.279 62.3174 106.484 60.7875 107.869C59.2575 109.254 58.9805 111.302 60.161 112.435Z" fill="#F1E6CD"/>
<path d="M55.7221 276.095C55.3969 276.095 55.1439 275.83 55.1319 275.517L54.6139 213.767L48.7111 207.105C48.4943 206.864 48.5184 206.49 48.7594 206.274C49.0003 206.057 49.3737 206.081 49.5905 206.322L55.6379 213.152C55.7342 213.261 55.7824 213.393 55.7824 213.538L56.3005 275.505C56.3005 275.83 56.0474 276.095 55.7221 276.095Z" fill="white"/>
<path d="M80.2249 172.764C80.0923 172.764 79.9718 172.716 79.8634 172.632L73.9245 167.681C73.6836 167.476 73.6474 167.126 73.8522 166.885C74.057 166.645 74.4064 166.608 74.6473 166.813L80.5862 171.764C80.8271 171.969 80.8633 172.318 80.6585 172.559C80.5501 172.692 80.3815 172.764 80.2249 172.764Z" fill="#114954"/>
<path d="M36.8573 133.724C36.7609 133.724 36.6525 133.7 36.5682 133.64C36.3032 133.471 36.2188 133.134 36.3754 132.857L38.5437 129.279C38.7003 129.014 39.0497 128.93 39.3268 129.086C39.5918 129.255 39.6761 129.604 39.5195 129.869L37.3511 133.447C37.2427 133.628 37.0621 133.724 36.8694 133.724H36.8573Z" fill="#114954"/>
<path d="M49.168 1.01367C73.0395 -2.86109 95.5323 13.3501 99.4072 37.2217C103.282 61.0932 87.0717 83.586 63.2002 87.4609C39.3287 91.3358 16.836 75.1254 12.9609 51.2539C9.08603 27.3823 25.2963 4.88858 49.168 1.01367ZM38 44L44 38L54 50L70 26L76 32L54 62Z" fill="white"/>
</svg>
