<svg width="113" height="324" viewBox="0 0 113 324" fill="none" xmlns="http://www.w3.org/2000/svg">
<path d="M49.6319 323.62C51.1016 309.393 53.2339 288.733 54.7879 277.169C62.1242 222.284 75.1947 224.164 63.9553 184.121L28.4902 195.445L11.3359 323.608H49.6319V323.62Z" fill="#114954"/>
<path d="M98.662 323.621C97.6501 311.478 95.6744 287.614 95.036 275.543C92.1207 220.298 84.5194 189.688 84.5194 189.688L52.0781 202.059L60.1372 323.633H98.674L98.662 323.621Z" fill="#114954"/>
<path d="M63.7806 123.252C78.887 124.89 76.6825 105.11 70.1171 96.4119C64.9371 89.5454 58.7452 90.0032 54.288 90.8465C49.4573 91.762 43.7352 92.9185 40.9284 100.46C38.1216 108.001 35.1098 125.504 50.3126 124.227C56.89 123.673 58.6247 122.685 63.7927 123.252H63.7806Z" fill="#114954"/>
<path d="M96.9829 60.6434C96.9829 60.6434 97.0913 60.6073 97.1395 60.5953C97.1395 60.5953 95.959 51.2953 95.8264 50.5605C95.5494 48.9583 97.9466 48.3078 98.6453 49.6329C98.6453 49.6329 95.2723 42.8628 96.9227 42.2122C98.5731 41.5617 98.9946 42.3689 99.5367 43.2844C99.5367 43.2844 100.416 41.8027 101.934 43.7903C103.452 45.7901 108.969 57.5354 108.897 58.6196C108.825 59.7159 102.874 70.9432 102.874 70.9432L104.175 76.4244H92.2487L91.3813 69.6904C90.8754 65.7271 93.2002 61.9204 96.9708 60.6434H96.9829Z" fill="#F1E6CD"/>
<path d="M101.006 58.7893C100.753 58.7893 100.536 58.6327 100.464 58.3797L97.8498 49.2243C97.7655 48.9231 97.9341 48.6099 98.2352 48.5256C98.5364 48.4413 98.8496 48.6099 98.9339 48.9111L101.548 58.0665C101.632 58.3676 101.464 58.6808 101.163 58.7651C101.114 58.7772 101.054 58.7893 101.006 58.7893Z" fill="#114954"/>
<path d="M105.452 58.221C105.223 58.221 105.018 58.0885 104.922 57.8716L99.0192 43.5001C98.8987 43.211 99.0433 42.8737 99.3324 42.7653C99.6215 42.6448 99.9588 42.7894 100.067 43.0785L105.97 57.45C106.091 57.7391 105.946 58.0764 105.657 58.1969C105.585 58.221 105.512 58.2451 105.44 58.2451L105.452 58.221Z" fill="#114954"/>
<path d="M15.2115 60.6434C15.2115 60.6434 15.103 60.6073 15.0549 60.5953C15.0549 60.5953 16.2355 51.2953 16.368 50.5605C16.6451 48.9583 14.2477 48.3078 13.549 49.6329C13.549 49.6329 16.9221 42.8628 15.2718 42.2122C13.6214 41.5617 13.1997 42.3689 12.6576 43.2844C12.6576 43.2844 11.7782 41.8027 10.2604 43.7903C8.7425 45.7901 3.2253 57.5354 3.29758 58.6196C3.36986 59.7159 9.32085 70.9432 9.32085 70.9432L8.01973 76.4244H19.9458L20.8131 69.6904C21.3191 65.7271 18.9941 61.9204 15.2235 60.6434H15.2115Z" fill="#F1E6CD"/>
<path d="M11.1853 58.7897C11.1853 58.7897 11.0768 58.7897 11.0286 58.7656C10.7275 58.6813 10.5469 58.3681 10.6432 58.0669L13.2572 48.9115C13.3416 48.6104 13.6549 48.4297 13.956 48.526C14.2572 48.6104 14.4378 48.9236 14.3414 49.2248L11.7274 58.3801C11.6552 58.6331 11.4262 58.7897 11.1853 58.7897Z" fill="#114954"/>
<path d="M6.7446 58.2216C6.67232 58.2216 6.59998 58.2096 6.5277 58.1734C6.23858 58.053 6.09401 57.7277 6.21448 57.4265L12.1173 43.055C12.2378 42.7659 12.563 42.6214 12.8521 42.7418C13.1412 42.8623 13.2858 43.1875 13.1654 43.4766L7.26252 57.8482C7.17819 58.065 6.96143 58.1975 6.73254 58.1975L6.7446 58.2216Z" fill="#114954"/>
<path d="M66.8551 130.007C66.5058 129.959 66.1565 129.923 65.8071 129.887C57.2179 129.176 48.9781 129.164 48.9781 129.164C48.9781 129.164 44.3041 129.453 39.0156 132.67C42.1236 133.597 54.1099 136.163 66.8551 130.007Z" fill="#F1E6CD"/>
<path d="M92.1309 76.4402C92.1309 76.4402 93.6728 122.566 69.6641 129.324L85.2281 154.092C85.2281 154.092 108.647 141.588 111.538 111.11C113.778 87.5351 110.249 75.7656 110.249 75.7656L92.1309 76.4402Z" fill="#61BDB3"/>
<path d="M20.1517 76.4363C20.1517 76.4363 18.6096 122.562 42.6184 129.321L27.5723 153.811C27.5723 153.811 3.63591 141.584 0.744747 111.106C-1.49591 87.5312 2.03366 75.7617 2.03366 75.7617L20.1517 76.4363Z" fill="#61BDB3"/>
<path d="M88.7678 141.286L81.07 169.077C80.3231 171.775 80.3834 174.63 81.2387 177.305L87.0692 198.386C87.0692 198.386 79.7208 200.531 56.9408 200.531C38.0759 200.531 27.475 197.772 27.475 197.772L29.0892 185.003C30.7275 175.787 30.4866 166.367 28.3544 157.247C28.1014 156.151 27.8364 154.995 27.5834 153.802C25.5837 144.442 33.2333 128.287 33.2333 128.287L88.7798 128.059V141.274L88.7678 141.286Z" fill="#61BDB3"/>
<path d="M63.9774 108.436L59.3273 96.0156C59.3273 96.0156 45.4016 97.3046 44.3174 104.725C43.1609 112.64 43.1008 118.916 46.0522 121.036C46.2931 121.205 47.7868 122.699 50.5575 122.506L50.2202 129.589L62.5558 129.385L63.9774 108.448V108.436Z" fill="#F1E6CD"/>
<path d="M59.8942 98.3047C59.8942 98.3047 58.8582 100.172 58.3281 101.605L59.8942 98.3047Z" fill="#4DAE6F"/>
<path d="M58.3297 102.411C58.2334 102.411 58.137 102.398 58.0406 102.362C57.619 102.206 57.4021 101.736 57.5587 101.314C58.1129 99.8446 59.1369 97.9894 59.1731 97.9051C59.3899 97.5076 59.8837 97.3751 60.2813 97.5919C60.6788 97.8087 60.8113 98.3027 60.5945 98.7002C60.5945 98.7243 59.5826 100.531 59.0766 101.893C58.9562 102.218 58.6429 102.423 58.3177 102.423L58.3297 102.411Z" fill="#4DAE6F"/>
<path d="M64.2783 110.579C64.2783 110.579 58.5562 109.47 57.8093 104.314C57.0624 99.1584 50.3404 98.5681 50.3404 98.5681C50.3404 98.5681 46.5818 99.568 44.1484 104.676L46.341 98.4356L55.7854 94.7253L60.8811 94.4844L64.2904 99.9173V110.566L64.2783 110.579Z" fill="#114954"/>
<path d="M68.1691 128.152C68.1691 128.152 65.796 141.199 56.1467 140.476C46.4974 139.753 47.3889 128.249 47.3889 128.249L68.1691 128.152Z" fill="#F1E6CD"/>
<path d="M27.4733 153.777C27.4733 153.777 27.3649 153.777 27.3167 153.753C27.0155 153.669 26.8349 153.356 26.9192 153.055C27.5095 150.922 33.0629 137.816 33.8098 137.069C34.0266 136.852 34.3881 136.852 34.6169 137.069C34.8338 137.286 34.8336 137.635 34.6289 137.852C34.0024 138.695 28.6779 150.959 28.0153 153.356C27.943 153.609 27.7142 153.765 27.4733 153.765V153.777Z" fill="#114954"/>
<path d="M85.4665 153.779C85.2737 153.779 85.0809 153.67 84.9725 153.49C82.1898 148.623 78.5879 140.817 78.5518 140.744C78.4192 140.455 78.5517 140.118 78.8288 139.985C79.1179 139.853 79.4552 139.985 79.5877 140.262C79.6239 140.335 83.2138 148.105 85.9725 152.923C86.1291 153.2 86.0326 153.538 85.7676 153.694C85.6833 153.742 85.5869 153.767 85.4906 153.767L85.4665 153.779Z" fill="#114954"/>
<path d="M60.161 112.435C61.3416 113.567 63.534 113.362 65.0639 111.977C66.5938 110.592 66.8709 108.544 65.6903 107.411C64.5098 106.279 62.3174 106.484 60.7875 107.869C59.2575 109.254 58.9805 111.302 60.161 112.435Z" fill="#F1E6CD"/>
<path d="M55.7221 276.095C55.3969 276.095 55.1439 275.83 55.1319 275.517L54.6139 213.767L48.7111 207.105C48.4943 206.864 48.5184 206.49 48.7594 206.274C49.0003 206.057 49.3737 206.081 49.5905 206.322L55.6379 213.152C55.7342 213.261 55.7824 213.393 55.7824 213.538L56.3005 275.505C56.3005 275.83 56.0474 276.095 55.7221 276.095Z" fill="white"/>
<path d="M80.2249 172.764C80.0923 172.764 79.9718 172.716 79.8634 172.632L73.9245 167.681C73.6836 167.476 73.6474 167.126 73.8522 166.885C74.057 166.645 74.4064 166.608 74.6473 166.813L80.5862 171.764C80.8271 171.969 80.8633 172.318 80.6585 172.559C80.5501 172.692 80.3815 172.764 80.2249 172.764Z" fill="#114954"/>
<path d="M36.8573 133.72C36.7609 133.72 36.6525 133.696 36.5682 133.636C36.3032 133.467 36.2188 133.13 36.3754 132.853L38.5437 129.275C38.7003 129.01 39.0497 128.926 39.3268 129.082C39.5918 129.251 39.6761 129.6 39.5195 129.866L37.3511 133.443C37.2427 133.624 37.0621 133.72 36.8694 133.72H36.8573Z" fill="#114954"/>
<path d="M49.168 1.01367C73.0395 -2.86109 95.5323 13.3501 99.4072 37.2217C103.282 61.0932 87.0717 83.586 63.2002 87.4609C39.3287 91.3358 16.836 75.1254 12.9609 51.2539C9.08603 27.3823 25.2963 4.88858 49.168 1.01367ZM56.1533 51.957C53.7742 51.9571 51.8253 52.6542 50.3076 54.0488C48.7899 55.4436 48.0313 57.1667 48.0312 59.2178C48.0312 61.2278 48.7899 62.9715 50.3076 64.4482C51.8253 65.8839 53.7742 66.6015 56.1533 66.6016C58.5735 66.6016 60.5223 65.8838 61.999 64.4482C63.5168 62.9714 64.2764 61.2279 64.2764 59.2178C64.2764 57.1667 63.5168 55.4436 61.999 54.0488C60.5223 52.6543 58.5735 51.957 56.1533 51.957ZM47.8467 22.9131L50.6162 49.4951H61.6914L64.4609 22.9131H47.8467Z" fill="white"/>
</svg>
