<svg width="180" height="119" viewBox="0 0 180 119" fill="none" xmlns="http://www.w3.org/2000/svg">
<path d="M99.4999 18H149.43C152.462 18 154.92 20.4579 154.92 23.49V56.51C154.92 59.5421 152.462 62 149.43 62H99.4999C96.4679 62 94.0099 59.5421 94.0099 56.51V23.49C94.0099 20.4579 96.4679 18 99.4999 18Z" fill="#F5F5FA"/>
<path d="M99.4989 62.4691H149.419C152.709 62.4691 155.379 59.789 155.379 56.509V23.499C155.379 20.209 152.699 17.5391 149.419 17.5391H99.4989C96.2089 17.5391 93.5389 20.219 93.5389 23.499V56.509C93.5389 59.799 96.2189 62.4691 99.4989 62.4691ZM149.419 18.4691C152.189 18.4691 154.439 20.719 154.439 23.489V56.499C154.439 59.269 152.189 61.519 149.419 61.519H99.4989C96.7289 61.519 94.4789 59.269 94.4789 56.499V23.489C94.4789 20.719 96.7289 18.4691 99.4989 18.4691H149.419Z" fill="#114954"/>
<path d="M111.26 112.761C111.49 112.561 111.52 112.211 111.32 111.981C111.13 111.741 110.78 111.701 110.54 111.891C110.3 112.081 110.26 112.441 110.46 112.691C110.67 112.931 111.03 112.961 111.26 112.761Z" fill="#114954"/>
<path d="M140.259 118.42C140.399 118.15 140.309 117.81 140.039 117.65C139.779 117.5 139.429 117.59 139.279 117.86C139.119 118.13 139.219 118.47 139.499 118.63C139.779 118.79 140.119 118.7 140.259 118.42Z" fill="#114954"/>
<path d="M146.98 101.182C147.02 100.872 146.8 100.592 146.5 100.552C146.2 100.512 145.91 100.722 145.86 101.032C145.81 101.332 146.02 101.622 146.34 101.662C146.65 101.702 146.94 101.492 146.98 101.182Z" fill="#114954"/>
<path d="M75.419 41.0096C75.119 41.0696 74.9191 41.3496 74.9691 41.6496C75.0191 41.9496 75.2891 42.1595 75.5991 42.1195C75.8991 42.0795 76.1191 41.7896 76.0691 41.4696C76.0091 41.1596 75.7191 40.9495 75.4091 40.9995L75.419 41.0096Z" fill="#114954"/>
<path d="M73.4892 19.6807C73.3492 19.7307 73.2392 19.8407 73.1792 19.9707C73.1492 20.0407 73.1393 20.1007 73.1293 20.1807C73.1293 20.2507 73.1293 20.3307 73.1593 20.4007C73.2593 20.6907 73.5792 20.8407 73.8692 20.7407C74.1592 20.6407 74.3192 20.3207 74.2092 20.0207C74.1792 19.9507 74.1393 19.8807 74.0993 19.8307C74.0493 19.7707 73.9892 19.7307 73.9192 19.7007C73.7892 19.6407 73.6292 19.6307 73.4892 19.6907V19.6807Z" fill="#114954"/>
<path d="M53.2291 21.4995C52.9691 21.6595 52.8791 22.0095 53.0291 22.2695C53.1791 22.5295 53.5191 22.6295 53.7891 22.4795C54.0591 22.3295 54.1491 21.9795 53.9891 21.7095C53.8291 21.4395 53.4891 21.3395 53.2191 21.5095L53.2291 21.4995Z" fill="#114954"/>
<path d="M67.0692 9.14043C66.8392 9.35043 66.8191 9.70041 67.0191 9.93041C67.2191 10.1604 67.5691 10.1904 67.8091 9.99041C68.0491 9.79041 68.0691 9.44043 67.8591 9.20043C67.6491 8.96043 67.2992 8.93043 67.0692 9.14043Z" fill="#114954"/>
<path d="M38.729 33.0004C38.539 33.2504 38.579 33.6005 38.819 33.7905C39.059 33.9805 39.419 33.9405 39.609 33.7005C39.809 33.4605 39.759 33.1105 39.509 32.9105C39.259 32.7105 38.909 32.7504 38.719 33.0004H38.729Z" fill="#114954"/>
<path d="M67.988 25.6007C67.698 25.6707 67.468 25.8407 67.318 26.0707C67.178 26.3007 67.098 26.5807 67.158 26.8607C67.208 27.1407 67.378 27.3807 67.598 27.5407C67.818 27.7007 68.098 27.7807 68.388 27.7407C68.678 27.7007 68.928 27.5407 69.098 27.3107C69.258 27.0807 69.318 26.7807 69.268 26.4707C69.208 26.1607 69.048 25.9107 68.808 25.7507C68.568 25.5907 68.278 25.5407 67.998 25.6007H67.988Z" fill="#114954"/>
<path d="M52.3893 15.4207C52.1493 15.6007 52.0094 15.8506 51.9694 16.1306C51.9194 16.4006 51.9693 16.6807 52.1393 16.9207C52.3093 17.1507 52.5494 17.3107 52.8094 17.3607C53.0794 17.4107 53.3694 17.3706 53.6194 17.2106C53.8694 17.0506 54.0293 16.8106 54.0793 16.5306C54.1293 16.2606 54.0794 15.9506 53.8994 15.7006C53.7194 15.4406 53.4594 15.2807 53.1794 15.2307C52.9094 15.1807 52.6194 15.2507 52.3794 15.4207H52.3893Z" fill="#114954"/>
<path d="M91.6998 74.0701C92.3698 70.5301 93.8998 71.1101 94.6898 72.4001C95.1598 73.1701 94.6898 75.1401 94.6898 76.4801L96.6798 73.3201C97.4198 72.0901 100.26 68.3601 101.03 67.3601C102.66 65.2301 104.78 67.0801 103.84 68.5401C102.86 70.0601 100.97 72.5201 100.06 73.7001C101.23 72.2001 104.03 68.6401 104.69 68.0001C105.47 67.2301 107.46 68.2801 106.46 69.8401C107.37 68.6101 110 69.9101 109.02 71.4501C108.25 72.6501 103.56 78.6201 103.56 78.6201C103.56 78.6201 106.74 74.9701 107.57 74.3601C108.39 73.7601 110.38 74.5701 109.42 76.4201C108.41 78.3601 104.93 83.6201 103.64 86.0601C102.98 87.3101 100.68 90.9301 97.7098 91.4001C94.7398 91.8701 90.4998 85.8501 90.4998 85.8501C90.4998 85.8501 90.1298 81.8001 89.9898 80.5001C89.8498 79.2001 91.5398 74.9101 91.6898 74.0801L91.6998 74.0701Z" fill="#F1E6CD"/>
<path d="M69.6107 88.0591L79.9207 102.669L92.0307 82.8791C92.0107 81.7591 102.121 86.3891 100.381 88.5691C93.6007 107.559 96.1607 126.979 74.6107 123.029C62.2307 120.759 59.9607 96.6492 59.9607 96.6492L69.6107 88.0491V88.0591Z" fill="#F1E6CD"/>
<path d="M102.07 93.0513C102.07 93.0513 98.4403 92.3813 97.4203 92.2613C96.3903 92.1413 91.4703 95.1513 91.4703 95.1513L97.5203 95.5913C97.5203 95.5913 101.13 95.5213 101.84 94.7713C102.54 94.0113 102.36 93.4113 102.08 93.0513H102.07Z" fill="#F1E6CD"/>
<path d="M80.4196 94.0306L99.4696 97.3806L99.8496 94.7406L80.7996 91.3906L80.4196 94.0306Z" fill="#114954"/>
<path d="M42.9097 63.0801L37.9697 74.7501L51.3097 78.4501L55.9297 66.8801L42.9097 63.0801Z" fill="#F1E6CD"/>
<path d="M61.5597 55.72C61.4897 55.3 60.0997 47.71 58.6097 45.37C56.4597 41.99 52.6897 41.09 48.3897 41.25C41.7597 41.51 35.1097 46.05 35.3697 52.68C35.4997 56.02 37.0297 59.35 39.4297 61.67C40.2197 62.43 41.6497 63.34 42.5997 63.79C42.9997 63.98 45.0997 66.15 46.3197 66.63C46.9797 66.94 47.7097 67.07 48.4297 67.14C50.8897 67.38 55.8397 67.25 55.8297 66.99L59.6897 66.92C63.0997 66.86 63.2997 58.11 63.2597 56.94C63.2197 55.76 63.2597 55.22 61.5397 55.72H61.5597Z" fill="#F1E6CD"/>
<path d="M15.0799 70.7904C20.2899 60.3104 35.3699 65.6003 35.3699 65.6003V52.5903C35.2699 48.6903 37.5499 45.5203 40.8099 43.5303C40.9899 43.4203 41.1599 43.3204 41.3299 43.2304C41.5299 43.1204 41.6999 43.0303 41.8699 42.9503C41.8899 42.9403 41.9099 42.9304 41.9299 42.9204C42.0899 42.8404 42.2499 42.7603 42.4199 42.6903C42.4499 42.6803 42.4799 42.6703 42.5099 42.6503C42.6699 42.5803 42.8299 42.5103 42.9899 42.4403C43.0299 42.4203 43.0699 42.4103 43.1099 42.4003C43.2599 42.3403 43.4099 42.2803 43.5699 42.2203C43.6199 42.2003 43.6699 42.1904 43.7199 42.1704C43.8599 42.1204 44.0099 42.0703 44.1499 42.0203C44.2099 42.0003 44.2799 41.9803 44.3399 41.9603C44.4699 41.9203 44.6099 41.8803 44.7399 41.8403C44.8199 41.8203 44.8899 41.8003 44.9699 41.7803C45.0899 41.7503 45.2199 41.7103 45.3399 41.6803C45.4199 41.6603 45.5099 41.6403 45.5899 41.6203C45.7099 41.5903 45.8299 41.5704 45.9399 41.5404C46.0399 41.5204 46.1399 41.5103 46.2299 41.4903C46.3399 41.4703 46.4399 41.4503 46.5499 41.4303C46.6599 41.4103 46.7799 41.4003 46.8899 41.3803C46.9799 41.3703 47.0699 41.3503 47.1599 41.3403C47.2899 41.3203 47.4299 41.3103 47.5599 41.3003C47.6299 41.3003 47.7099 41.2803 47.7799 41.2803C47.9899 41.2603 48.1899 41.2503 48.3999 41.2403C52.6999 41.0703 56.4699 41.9703 58.6199 45.3503C59.1699 46.2103 59.6999 47.7903 60.1599 49.4603C58.7499 48.3803 55.9599 45.8003 55.9599 45.8003C55.3199 51.2203 48.1799 61.0203 42.8199 60.8203L39.5999 76.2603L24.6699 91.7603C24.6699 91.7603 8.53991 83.9403 15.0899 70.7703L15.0799 70.7904Z" fill="#EB7045"/>
<path d="M55.8401 66.9903L50.9901 66.6603C50.4401 66.6203 50.0301 67.1503 50.2001 67.6703L52.7801 74.7703L55.8401 66.9903Z" fill="#EB7045"/>
<path d="M23.7307 96.4611C23.7307 89.9911 27.4907 77.0211 35.3707 74.9511C42.2907 73.1311 50.8807 74.4611 50.8807 74.4611C50.8807 74.4611 61.2807 77.441 69.6107 88.061C69.7607 88.251 63.2807 93.9211 63.2807 93.9211L61.0007 111.941L65.3707 128.041C64.3507 127.921 33.2107 134.661 19.0707 126.231C19.0707 126.231 23.7307 118.521 23.7307 96.4611Z" fill="#114954"/>
<path d="M61.9403 104.54C62.1803 104.54 62.3903 104.35 62.4103 104.11L63.7603 86.9802C63.7803 86.7202 63.5903 86.4902 63.3303 86.4702C63.0703 86.4502 62.8403 86.6402 62.8203 86.9002L61.4703 104.03C61.4503 104.29 61.6403 104.52 61.9003 104.54C61.9103 104.54 61.9303 104.54 61.9403 104.54Z" fill="white"/>
<path d="M50.5002 74.0591C50.5002 74.0591 53.3902 75.1792 56.9102 77.1592C55.7902 78.3392 50.9102 82.2391 41.3102 74.0591C46.4102 73.7591 50.5002 74.0591 50.5002 74.0591Z" fill="#F1E6CD"/>
<path d="M48.3412 58.9492C48.3412 58.9492 54.7212 75.3592 37.7412 74.4492L40.9112 60.9292L48.3412 58.9492Z" fill="#EB7045"/>
<path d="M50.1298 59.9814C49.3398 61.0914 47.5097 61.2514 46.0597 60.3514C44.5997 59.4514 44.0597 57.8213 44.8597 56.7213C45.6497 55.6113 47.4797 55.4514 48.9297 56.3514C50.3897 57.2514 50.9298 58.8814 50.1298 59.9814Z" fill="#F1E6CD"/>
<path d="M76.5799 107.86C76.7299 107.86 76.8699 107.79 76.9699 107.66L80.3099 102.95C80.4599 102.74 80.4099 102.44 80.1999 102.29C79.9899 102.14 79.6899 102.19 79.5399 102.4L76.1999 107.11C76.0499 107.32 76.0999 107.62 76.3099 107.77C76.3899 107.83 76.4899 107.86 76.5799 107.86Z" fill="#114954"/>
<path d="M96.2802 81.8711C96.3902 81.8711 96.5002 81.8311 96.5902 81.7511C96.7802 81.5811 96.8002 81.2811 96.6302 81.0811L94.9402 79.1911C94.7702 79.0011 94.4701 78.9811 94.2701 79.1511C94.0801 79.3211 94.0601 79.6211 94.2301 79.8211L95.9201 81.7111C96.0101 81.8111 96.1401 81.8711 96.2701 81.8711H96.2802Z" fill="#114954"/>
<path d="M98.0396 76.8803C98.1896 76.8803 98.3296 76.8103 98.4196 76.6903L102.59 70.9903C102.74 70.7803 102.7 70.4803 102.49 70.3303C102.28 70.1803 101.99 70.2203 101.83 70.4303L97.6596 76.1303C97.5096 76.3403 97.5496 76.6404 97.7596 76.7904C97.8396 76.8504 97.9396 76.8803 98.0396 76.8803Z" fill="#114954"/>
<path d="M103.28 80.2909C103.44 80.2909 103.59 80.2109 103.68 80.0609C103.82 79.8409 103.75 79.5509 103.52 79.4109C103.34 79.3009 99.14 76.7409 97.24 75.9709C97 75.8709 96.72 75.9909 96.63 76.2309C96.53 76.4709 96.65 76.7509 96.89 76.8409C98.72 77.5809 102.98 80.1809 103.03 80.2109C103.11 80.2609 103.19 80.2809 103.28 80.2809V80.2909Z" fill="#114954"/>
<path d="M102.78 79.9793C102.91 79.9793 103.04 79.9292 103.13 79.8192L106.67 75.8792C106.84 75.6892 106.83 75.3892 106.63 75.2092C106.44 75.0392 106.14 75.0492 105.96 75.2492L102.42 79.1892C102.25 79.3792 102.26 79.6793 102.46 79.8593C102.55 79.9393 102.66 79.9793 102.77 79.9793H102.78Z" fill="#114954"/>
<path d="M100.61 78.5806C100.76 78.5806 100.9 78.5106 100.99 78.3906L107.06 70.0606C107.21 69.8506 107.17 69.5506 106.96 69.4006C106.75 69.2506 106.45 69.2906 106.3 69.5006L100.23 77.8306C100.08 78.0406 100.12 78.3406 100.33 78.4906C100.41 78.5506 100.51 78.5806 100.61 78.5806Z" fill="#114954"/>
<path d="M94.5899 79.8717C94.8399 79.8717 95.0499 79.6718 95.0599 79.4218L95.1699 76.5017C95.1699 76.2417 94.9799 76.0217 94.7199 76.0117C94.4699 76.0117 94.2399 76.2017 94.2299 76.4617L94.1199 79.3817C94.1199 79.6417 94.3099 79.8617 94.5699 79.8717C94.5699 79.8717 94.5799 79.8717 94.5899 79.8717Z" fill="#114954"/>
<mask id="mask0_11062_21068" style="mask-type:luminance" maskUnits="userSpaceOnUse" x="38" y="93" width="67" height="37">
<path d="M54.8697 93.3203C54.8697 93.3203 59.1197 99.1603 65.6297 110.17L84.4297 102.95C85.0597 102.07 89.1397 96.3803 90.1297 95.7403C90.4197 95.5503 94.7497 96.1503 96.0797 96.2703C97.4097 96.4003 101.37 95.0603 101.37 95.0603L102.19 94.2803C102.19 94.2803 103.36 95.6403 103.93 96.4103C104.5 97.1803 104.86 98.4403 104.14 99.2803C103.42 100.12 101.18 100.32 101.18 100.32C101.18 100.32 100.7 103.86 99.7797 104.95C98.8597 106.04 98.0597 107.69 97.3997 109C96.8097 110.15 90.3997 111.78 87.9397 112.35C72.3197 122.66 62.9397 139.25 50.2497 122.49C42.9497 112.85 38.9597 106.46 38.9597 106.46L54.8697 93.3303V93.3203Z" fill="white"/>
</mask>
<g mask="url(#mask0_11062_21068)">
<path d="M55.4897 94.3012C55.4897 94.3012 59.1097 99.1613 65.6297 110.171L84.4297 102.951C85.0597 102.071 89.1397 96.3812 90.1297 95.7412C90.4197 95.5512 94.7497 96.1512 96.0797 96.2712C97.4097 96.4012 101.37 95.0612 101.37 95.0612L102.19 94.2812C102.19 94.2812 103.36 95.6413 103.93 96.4113C104.5 97.1813 104.86 98.4412 104.14 99.2812C103.42 100.121 101.18 100.321 101.18 100.321C101.18 100.321 100.7 103.861 99.7797 104.951C98.8597 106.041 98.0597 107.691 97.3997 109.001C96.8097 110.151 90.3997 111.781 87.9397 112.351C72.3197 122.661 62.9397 139.251 50.2497 122.491C42.9497 112.851 38.9597 106.461 38.9597 106.461L55.4897 94.3112V94.3012Z" fill="#F1E6CD"/>
</g>
<path d="M70.8605 126.2C70.9505 126.2 71.0505 126.17 71.1305 126.11C73.3005 124.57 75.5305 122.7 77.8805 120.72C81.0905 118.03 84.4105 115.25 88.1305 112.78C89.0305 112.56 91.8505 111.75 93.7505 111.21L94.8205 110.9C95.0705 110.83 95.2205 110.57 95.1405 110.32C95.0705 110.07 94.8105 109.93 94.5605 110L93.4805 110.31C91.6505 110.84 88.6005 111.71 87.8305 111.89C87.7805 111.9 87.7205 111.92 87.6805 111.96C83.8805 114.47 80.5205 117.28 77.2805 120.01C74.9405 121.97 72.7205 123.83 70.5805 125.35C70.3705 125.5 70.3205 125.8 70.4705 126.01C70.5605 126.14 70.7105 126.21 70.8505 126.21L70.8605 126.2Z" fill="#114954"/>
<path d="M96.7793 96.0691C99.0893 95.8591 102.359 95.2391 102.389 95.2291C102.649 95.1791 102.809 94.9391 102.769 94.6791C102.719 94.4191 102.479 94.2591 102.219 94.2991C102.189 94.2991 98.9493 94.9091 96.7393 95.1191C96.4793 95.1391 96.2893 95.3691 96.3193 95.6291C96.3393 95.8691 96.5493 96.0591 96.7893 96.0591L96.7793 96.0691Z" fill="#114954"/>
<path d="M97.2706 101.341C97.2706 101.341 97.3106 101.341 97.3406 101.341C99.0706 101.091 101.721 100.711 101.921 100.701C102.181 100.671 102.371 100.441 102.341 100.181C102.311 99.9209 102.081 99.7309 101.821 99.7609C101.541 99.7909 97.6506 100.351 97.2006 100.411C96.9406 100.451 96.7606 100.691 96.8006 100.941C96.8306 101.181 97.0406 101.341 97.2706 101.341Z" fill="#114954"/>
<path d="M60.0505 113.42C60.1205 113.42 60.1905 113.4 60.2605 113.37L65.8405 110.59C66.0705 110.47 66.1705 110.19 66.0505 109.96C65.9305 109.73 65.6505 109.63 65.4205 109.75L59.8405 112.53C59.6105 112.65 59.5105 112.93 59.6305 113.16C59.7105 113.33 59.8805 113.42 60.0505 113.42Z" fill="#114954"/>
<path d="M65.6303 110.64C65.6903 110.64 65.7403 110.63 65.8003 110.61L84.6003 103.39C84.6903 103.36 84.7603 103.3 84.8103 103.22C87.0403 100.1 89.7303 96.5496 90.3803 96.1296L96.3403 92.7396L99.5003 93.0696C99.7603 93.0996 99.9903 92.9096 100.02 92.6496C100.05 92.3896 99.8603 92.1596 99.6003 92.1296L96.2903 91.7896C96.1903 91.7796 96.0903 91.7996 96.0103 91.8496L89.8903 95.3196C88.8703 95.9796 85.3203 100.88 84.1203 102.55L65.8203 109.57C59.4803 98.8796 55.2803 93.0796 55.2303 93.0296C55.0803 92.8196 54.7803 92.7696 54.5703 92.9296C54.3603 93.0796 54.3103 93.3796 54.4703 93.5896C54.5103 93.6496 58.7803 99.5396 65.2103 110.4C65.3003 110.55 65.4503 110.63 65.6203 110.63L65.6303 110.64Z" fill="#114954"/>
<path d="M38.9593 106.921C39.0293 106.921 39.0993 106.9 39.1693 106.87C42.1593 105.36 56.2993 94.1705 56.8993 93.6905C57.0993 93.5305 57.1393 93.2505 56.9893 93.0405C49.2493 82.3405 43.7793 76.5905 43.7293 76.5305C43.5493 76.3405 43.2493 76.3405 43.0593 76.5205C42.8693 76.7005 42.8693 77.0005 43.0493 77.1905C43.0993 77.2505 48.4093 82.8205 55.9693 93.2305C53.7993 94.9405 42.3093 103.98 39.0893 105.84L30.6793 95.0505C30.5193 94.8405 30.2193 94.8105 30.0193 94.9705C29.8093 95.1305 29.7793 95.4305 29.9393 95.6305L38.5893 106.731C38.6793 106.851 38.8193 106.911 38.9593 106.911V106.921Z" fill="white"/>
<path d="M100.181 96.0706C100.331 96.0706 100.491 95.9907 100.581 95.8607L128.711 52.6906L151.871 80.4207C152.051 80.6307 152.411 80.6307 152.591 80.4207L176.161 52.2007C176.331 52.0007 176.301 51.7007 176.101 51.5407C175.901 51.3707 175.601 51.4007 175.441 51.6007L152.231 79.3907L129.021 51.6007C128.921 51.4907 128.781 51.4206 128.631 51.4306C128.481 51.4306 128.341 51.5207 128.261 51.6407L99.7807 95.3407C99.6407 95.5607 99.7007 95.8506 99.9207 95.9906C100.001 96.0406 100.091 96.0706 100.181 96.0706Z" fill="#114954"/>
<path d="M124.459 51.8992C124.459 54.2192 126.339 56.0992 128.659 56.0992C130.979 56.0992 132.859 54.2192 132.859 51.8992C132.859 49.5792 130.979 47.6992 128.659 47.6992C126.339 47.6992 124.459 49.5792 124.459 51.8992Z" fill="#EB7045"/>
<path d="M171.6 51.8992C171.6 54.2192 173.48 56.0992 175.8 56.0992C178.12 56.0992 180 54.2192 180 51.8992C180 49.5792 178.12 47.6992 175.8 47.6992C173.48 47.6992 171.6 49.5792 171.6 51.8992Z" fill="#61BDB3"/>
<path d="M148.03 80.4617C148.03 82.7817 149.91 84.6517 152.23 84.6517C154.55 84.6517 156.42 82.7717 156.42 80.4617C156.42 78.1517 154.54 76.2617 152.23 76.2617C149.92 76.2617 148.03 78.1417 148.03 80.4617Z" fill="#C6D45B"/>
<path d="M21.9409 26.1604C21.9409 28.1004 23.5109 29.6704 25.4509 29.6704C27.3909 29.6704 28.9609 28.1004 28.9609 26.1604C28.9609 24.2204 27.3909 22.6504 25.4509 22.6504C23.5109 22.6504 21.9409 24.2204 21.9409 26.1604Z" fill="#EB7045"/>
<path d="M100.61 26.6314H116.7C116.96 26.6314 117.17 26.4214 117.17 26.1614C117.17 25.9014 116.96 25.6914 116.7 25.6914H100.61C100.35 25.6914 100.14 25.9014 100.14 26.1614C100.14 26.4214 100.35 26.6314 100.61 26.6314Z" fill="#114954"/>
<path d="M100.61 31.6607H116.7C116.96 31.6607 117.17 31.4507 117.17 31.1907C117.17 30.9307 116.96 30.7207 116.7 30.7207H100.61C100.35 30.7207 100.14 30.9307 100.14 31.1907C100.14 31.4507 100.35 31.6607 100.61 31.6607Z" fill="#114954"/>
<path d="M109.68 36.6802H116.7C116.96 36.6802 117.17 36.4703 117.17 36.2103C117.17 35.9503 116.96 35.7402 116.7 35.7402H109.68C109.42 35.7402 109.21 35.9503 109.21 36.2103C109.21 36.4703 109.42 36.6802 109.68 36.6802Z" fill="#114954"/>
<path d="M145.86 52.3714C146.12 52.3714 146.33 52.1614 146.33 51.9014V26.1614C146.33 25.9014 146.12 25.6914 145.86 25.6914C145.6 25.6914 145.39 25.9014 145.39 26.1614V51.9014C145.39 52.1614 145.6 52.3714 145.86 52.3714Z" fill="#114954"/>
</svg>
