<svg width="385" height="337" viewBox="0 0 385 337" fill="none" xmlns="http://www.w3.org/2000/svg">
    <g clip-path="url(#clip0_8844_19541)">
        <path
            d="M220.902 15.7344H42.7028C32.2182 15.7344 23.7188 24.2425 23.7188 34.7379V152.25C23.7188 162.746 32.2182 171.254 42.7028 171.254H220.902C231.387 171.254 239.886 162.746 239.886 152.25V34.7379C239.886 24.2425 231.387 15.7344 220.902 15.7344Z"
            fill="#F5F5FA" />
        <path
            d="M220.907 172.035H42.7241C31.8285 172.035 22.959 163.157 22.959 152.251V34.7381C22.959 23.8314 31.8285 14.9531 42.7241 14.9531H220.907C231.802 14.9531 240.671 23.8314 240.671 34.7381V152.234C240.671 163.141 231.802 172.019 220.907 172.019V172.035ZM42.7241 16.516C32.6922 16.516 24.5205 24.696 24.5205 34.7381V152.234C24.5205 162.276 32.6922 170.456 42.7241 170.456H220.907C230.938 170.456 239.11 162.276 239.11 152.234V34.7381C239.11 24.696 230.938 16.516 220.907 16.516H42.7241Z"
            fill="#41738A" />
        <path d="M320.299 327.685L362.982 290.293L193.442 96.3639L150.759 133.756L320.299 327.685Z" fill="#61BDB3" />
        <path
            d="M322.268 308.115C321.786 308.115 321.304 308.115 320.823 308.065C315.142 307.683 309.944 305.122 306.207 300.833C302.453 296.543 300.593 291.057 300.975 285.371C301.357 279.685 303.914 274.481 308.2 270.74C312.485 266.982 317.966 265.137 323.646 265.503C329.326 265.885 334.525 268.445 338.262 272.735C346.002 281.58 345.105 295.097 336.253 302.845C332.333 306.269 327.4 308.132 322.251 308.132L322.268 308.115ZM322.201 267.016C317.418 267.016 312.85 268.728 309.229 271.904C305.26 275.378 302.885 280.2 302.536 285.47C302.187 290.741 303.898 295.828 307.386 299.802C310.857 303.776 315.674 306.153 320.939 306.502C326.204 306.851 331.286 305.139 335.256 301.647C343.444 294.465 344.275 281.962 337.116 273.749C333.645 269.775 328.828 267.398 323.563 267.049C323.115 267.016 322.666 266.999 322.218 266.999L322.201 267.016Z"
            fill="#FBF7ED" />
        <path
            d="M268.39 120.933C270.683 106.794 261.091 93.4707 246.966 91.1755C232.841 88.8804 219.532 98.4822 217.239 112.621C214.947 126.761 224.538 140.083 238.663 142.378C252.788 144.673 266.097 135.072 268.39 120.933Z"
            fill="#114954" />
        <path
            d="M240.368 142.871C237.395 142.405 231.598 120.143 231.598 120.143C224.971 115.737 227.23 106.177 228.824 101.572C229.14 100.674 228.127 99.9091 227.329 100.441C225.452 101.721 222.911 103.833 221.201 106.809C220.752 107.59 216.849 114.557 216.849 114.557L214.158 113.792C212.73 113.393 211.401 114.673 211.767 116.119L212.531 119.195C209.491 128.888 205.787 134.824 221.084 139.579C222.729 140.094 221.084 148.341 220.686 150.003L222.845 156.853L252.027 158.549L240.368 142.854V142.871Z"
            fill="#F1E6CD" />
        <path
            d="M229.051 124.579C230.446 126.358 233.485 126.474 235.844 124.861C238.186 123.248 238.95 120.505 237.555 118.726C236.16 116.947 233.12 116.831 230.761 118.444C228.42 120.056 227.655 122.8 229.051 124.579Z"
            fill="#F1E6CD" />
        <path
            d="M214.377 146.462C214.377 158.217 223.894 167.76 235.653 167.76C247.413 167.76 256.93 158.233 256.93 146.462C256.93 134.691 247.413 125.164 235.653 125.164C223.894 125.164 214.377 134.691 214.377 146.462Z"
            fill="#114954" />
        <path
            d="M241.611 391.204L230.018 318.415C224.487 328.025 217.943 340.212 210.403 356.888C207.695 362.89 201.367 376.274 194.275 391.204H136.891L203.344 239.242L251.676 245.793L265.711 239.242C295.308 279.228 279.131 279.876 290.193 355.408C291.106 361.693 292.916 375.542 294.909 391.204H241.611Z"
            fill="#41738A" />
        <mask id="mask0_8844_19541" style="mask-type: luminance" maskUnits="userSpaceOnUse" x="21" y="200" width="36"
            height="36">
            <path d="M21.1461 235.629H56.6895L56.6895 200.049H21.1461L21.1461 235.629Z" fill="white" />
        </mask>
        <g mask="url(#mask0_8844_19541)">
            <path d="M56.6879 200.047H21.1445V235.627H56.6879V200.047Z" fill="#4DAE6F" />
        </g>
        <path
            d="M172.406 135.47C169.649 127.656 164.517 129.335 163.238 132.461C162.308 134.755 165.38 141.904 166.626 145.878C166.975 147.009 165.779 147.99 164.749 147.424C162.972 146.443 160.613 144.947 159.617 143.401L153.189 136.634C152.874 141.871 151.894 149.735 155.332 154.091C152.957 157.566 156.428 161.939 158.537 164.483C163.138 170.036 167.606 174.741 167.606 174.741L182.786 166.428C182.786 166.428 186.142 158.314 183.783 152.412C181.425 146.51 175.13 143.284 172.389 135.487L172.406 135.47Z"
            fill="#F1E6CD" />
        <path
            d="M152.838 218.09C154.831 187.165 155.761 171.67 155.761 171.67L184.544 162.941L185.258 167.414C185.258 167.414 189.311 163.889 190.574 162.609C198.612 154.528 210.587 149.923 238.69 150.688C246.114 150.887 252.127 151.087 259.368 152.683C273.436 155.792 278.867 158.003 309.212 183.574C318.297 191.239 333.91 211.389 323.828 223.393C318.68 229.528 313.83 234.117 313.83 234.117L300.111 218.422L279.133 206.801V253.952H192.284L193.082 248.133C193.082 248.133 186.106 251.657 177.967 252.389C160.444 253.952 151.609 236.594 152.804 218.073L152.838 218.09Z"
            fill="#EB7045" />
        <path
            d="M165.446 226C165.446 226 165.33 226 165.28 225.983C164.865 225.883 164.583 225.468 164.682 225.052C175.395 175.823 184.364 167.16 184.746 166.828C185.062 166.529 185.56 166.562 185.859 166.878C186.158 167.194 186.124 167.692 185.809 167.975C185.693 168.091 176.74 177.036 166.227 225.385C166.144 225.75 165.828 226 165.463 226H165.446Z"
            fill="#41738A" />
        <path
            d="M193.112 248.93C193.112 248.93 192.962 248.93 192.895 248.896C192.48 248.78 192.248 248.348 192.364 247.932C197.38 230.475 204.887 204.039 205.12 202.31C205.12 201.944 205.352 201.612 205.734 201.529C206.166 201.429 206.581 201.695 206.664 202.111C206.714 202.36 206.897 203.092 193.859 248.364C193.759 248.713 193.444 248.93 193.112 248.93Z"
            fill="#41738A" />
        <path
            d="M163.08 210.589C162.93 210.589 162.797 210.556 162.664 210.473C162.299 210.24 162.183 209.758 162.415 209.392L166.85 202.342C167.083 201.977 167.564 201.86 167.929 202.093C168.295 202.326 168.411 202.808 168.179 203.174L163.744 210.223C163.594 210.456 163.345 210.589 163.08 210.589Z"
            fill="#41738A" />
        <path
            d="M279.168 207.596C279.168 207.596 279.085 207.596 279.052 207.596C278.62 207.53 278.338 207.131 278.404 206.698L281.593 186.631C281.659 186.198 282.058 185.916 282.49 185.982C282.922 186.049 283.204 186.448 283.138 186.88L279.949 206.948C279.882 207.33 279.55 207.613 279.168 207.613V207.596Z"
            fill="#41738A" />
        <path
            d="M245.164 128.775L267.52 123.887C267.52 123.887 260.81 138.634 269.297 147.645C280.924 159.998 285.923 179.983 269.679 191.255C262.371 196.326 250.429 197.374 242.391 193.45C229.917 187.348 228.92 172.268 227.625 160.098C226.578 150.339 214.869 151.103 214.869 151.103L245.148 128.775H245.164Z"
            fill="#114954" />
        <path
            d="M230.003 319.192C229.87 319.192 229.738 319.159 229.621 319.092C229.239 318.876 229.106 318.411 229.322 318.028L238.822 300.953C240.932 297.163 244.071 294.103 247.891 292.075L260.846 285.225C261.228 285.026 261.71 285.175 261.909 285.558C262.109 285.94 261.959 286.422 261.577 286.622L248.622 293.472C245.068 295.35 242.144 298.21 240.185 301.735L230.684 318.81C230.535 319.059 230.269 319.209 230.003 319.209V319.192Z"
            fill="#FBF7ED" />
        <path
            d="M100.386 43.3672H47.3033C42.9828 43.3672 39.4805 46.8732 39.4805 51.198V89.7038C39.4805 94.0287 42.9828 97.5346 47.3033 97.5346H100.386C104.706 97.5346 108.209 94.0287 108.209 89.7038V51.198C108.209 46.8732 104.706 43.3672 100.386 43.3672Z"
            fill="#EB7045" />
        <path
            d="M108.209 89.6992V72.4747C108.209 72.4747 97.7285 86.7065 73.8446 72.6409C49.9607 58.5753 39.4805 72.1255 39.4805 72.6409V89.7158C39.4805 94.0219 43.0015 97.5467 47.3033 97.5467H100.386C104.688 97.5467 108.209 94.0219 108.209 89.7158V89.6992Z"
            fill="#4DAE6F" />
        <path
            d="M99.126 56.5412C99.126 59.5338 96.7011 61.9612 93.7115 61.9612C90.7218 61.9612 88.2969 59.5338 88.2969 56.5412C88.2969 53.5485 90.7218 51.1211 93.7115 51.1211C96.7011 51.1211 99.126 53.5485 99.126 56.5412Z"
            fill="#FBF7ED" />
        <path
            d="M72.2001 112.782H45.4759C45.0441 112.782 44.6953 112.432 44.6953 112C44.6953 111.568 45.0441 111.219 45.4759 111.219H72.2001C72.6319 111.219 72.9807 111.568 72.9807 112C72.9807 112.432 72.6319 112.782 72.2001 112.782Z"
            fill="#41738A" />
        <path
            d="M72.2001 121.145H45.4759C45.0441 121.145 44.6953 120.796 44.6953 120.363C44.6953 119.931 45.0441 119.582 45.4759 119.582H72.2001C72.6319 119.582 72.9807 119.931 72.9807 120.363C72.9807 120.796 72.6319 121.145 72.2001 121.145Z"
            fill="#41738A" />
        <path
            d="M72.2001 134.809H45.4759C45.0441 134.809 44.6953 134.46 44.6953 134.028C44.6953 133.595 45.0441 133.246 45.4759 133.246H72.2001C72.6319 133.246 72.9807 133.595 72.9807 134.028C72.9807 134.46 72.6319 134.809 72.2001 134.809Z"
            fill="#41738A" />
        <path
            d="M72.2001 143.161H45.4759C45.0441 143.161 44.6953 142.811 44.6953 142.379C44.6953 141.947 45.0441 141.598 45.4759 141.598H72.2001C72.6319 141.598 72.9807 141.947 72.9807 142.379C72.9807 142.811 72.6319 143.161 72.2001 143.161Z"
            fill="#41738A" />
        <path
            d="M147.041 109.821C146.609 109.821 146.26 109.472 146.26 109.04V43.3674C146.26 42.9351 146.609 42.5859 147.041 42.5859C147.473 42.5859 147.821 42.9351 147.821 43.3674V109.04C147.821 109.472 147.473 109.821 147.041 109.821Z"
            fill="#41738A" />
        <path
            d="M216.155 31.3659C215.956 31.3659 215.757 31.2828 215.607 31.1332C215.308 30.8339 215.308 30.3351 215.607 30.0192L224.128 21.4901C224.427 21.1908 224.925 21.1908 225.24 21.4901C225.539 21.7893 225.539 22.2881 225.24 22.604L216.72 31.1332C216.571 31.2828 216.371 31.3659 216.172 31.3659H216.155Z"
            fill="#41738A" />
        <path
            d="M224.676 31.3659C224.477 31.3659 224.277 31.2828 224.128 31.1332L215.607 22.604C215.308 22.3047 215.308 21.806 215.607 21.4901C215.906 21.1908 216.405 21.1908 216.72 21.4901L225.24 30.0192C225.539 30.3185 225.539 30.8173 225.24 31.1332C225.091 31.2828 224.892 31.3659 224.693 31.3659H224.676Z"
            fill="#41738A" />
        <path
            d="M239.886 37.4652H23.7185C23.2866 37.4652 22.9375 37.116 22.9375 36.6838C22.9375 36.2515 23.2866 35.9023 23.7185 35.9023H239.886C240.318 35.9023 240.666 36.2515 240.666 36.6838C240.666 37.116 240.318 37.4652 239.886 37.4652Z"
            fill="#41738A" />
        <path
            d="M300.146 219.221C299.798 219.221 299.499 218.989 299.399 218.656C299.283 218.24 299.515 217.808 299.93 217.692L318.118 212.538C318.533 212.421 318.964 212.654 319.081 213.086C319.197 213.502 318.964 213.934 318.549 214.051L300.362 219.205C300.362 219.205 300.213 219.238 300.146 219.238V219.221Z"
            fill="#41738A" />
        <path
            d="M284.132 197.559C283.983 197.559 283.85 197.526 283.717 197.443C283.352 197.21 283.235 196.728 283.468 196.362L286.939 190.842C287.172 190.477 287.653 190.36 288.019 190.593C288.384 190.826 288.5 191.308 288.268 191.674L284.797 197.194C284.647 197.426 284.398 197.559 284.132 197.559Z"
            fill="#41738A" />
        <path
            d="M161.64 161.383C161.441 161.383 161.225 161.3 161.076 161.151L154.781 154.633C154.482 154.317 154.482 153.819 154.797 153.519C155.113 153.22 155.595 153.22 155.91 153.536L162.205 160.053C162.504 160.369 162.504 160.868 162.188 161.167C162.039 161.317 161.839 161.383 161.64 161.383Z"
            fill="#41738A" />
    </g>
    <defs>
        <clipPath id="clip0_8844_19541">
            <rect width="384.5" height="336.23" fill="white" />
        </clipPath>
    </defs>
</svg>