<svg width="385" height="156" viewBox="0 0 385 156" fill="none" xmlns="http://www.w3.org/2000/svg">
<g clip-path="url(#clip0_13292_16907)">
<path d="M7.02483 151.355L152.615 33.6159L163.765 45.255L206.654 1.46484L268.572 56.3081L297.129 33.2292L313.855 48.408L353.547 19.7147L401.527 73.9601V154.086C401.527 155.75 399.785 157.098 397.633 157.087L9.76686 156.36C6.40359 156.36 4.69175 153.242 7.02483 151.367" fill="#114954"/>
<path d="M296.916 32.3398L264.299 58.6655V90.1017L268.344 86.5501L321.111 54.2467L296.916 32.3398Z" fill="#114954"/>
<path d="M276.782 61.1621L296.916 42.9826V32.3398L264.299 58.6655V103.007L276.782 61.1621Z" fill="#077C91"/>
<path d="M401.45 73.0462L353.41 18.8359L264.299 83.1382V156.571H525.164L401.45 73.0462Z" fill="#114954"/>
<path d="M340.957 50.4713H321.383L353.425 28.67V18.8359L280.978 68.0062H272.646L264.299 83.1382V131.007L277.797 120.845L340.957 50.4713Z" fill="#077C91"/>
<mask id="mask0_13292_16907" style="mask-type:luminance" maskUnits="userSpaceOnUse" x="264" y="18" width="90" height="114">
<path d="M280.978 68.0062H274.752L276.797 61.161L296.916 42.9815V32.3387L264.299 58.6644V83.1382V102.994V131.007L277.797 120.845L340.957 50.4596H321.383L353.41 28.67V18.8359L280.978 68.0062Z" fill="white"/>
</mask>
<g mask="url(#mask0_13292_16907)">
<path d="M262.723 -27.5781L168.264 288.94M266.844 -26.8397L172.384 289.678M270.965 -26.1013L176.505 290.417M275.1 -25.3628L180.641 291.155M279.221 -24.6244L184.762 291.893M283.342 -23.886L188.883 292.632M287.463 -23.1475L193.004 293.37M291.599 -22.4091L197.139 294.109M295.735 -21.6707L201.275 294.847M299.855 -20.9322L205.396 295.586M303.976 -20.1938L209.517 296.324M308.112 -19.4554L213.653 297.062M312.248 -18.7169L217.788 297.801M316.384 -17.9785L221.924 298.539M320.52 -17.2401L226.06 299.278M324.656 -16.5016L230.196 300.016M328.776 -15.7632L234.317 300.755M332.912 -15.0248L238.453 301.493M337.048 -14.2863L242.589 302.231M341.169 -13.5479L246.71 302.97M345.29 -12.8095L250.83 303.708M349.426 -12.071L254.966 304.447M353.562 -11.3326L259.102 305.185M357.698 -10.5942L263.238 305.924M361.833 -9.85575L267.374 306.662M365.984 -9.18765L271.525 307.33M370.105 -8.44921L275.646 308.069M374.241 -7.7225L279.782 308.795M378.377 -6.98407L283.918 309.534M382.498 -6.24564L288.039 310.272M386.634 -5.5072L292.174 311.011M390.755 -4.78049L296.295 311.737M394.891 -4.04206L300.431 312.476M399.026 -3.30363L304.567 313.214M403.147 -2.5652L308.688 313.953M407.283 -1.83849L312.823 314.679M411.419 -1.10006L316.959 315.418M415.54 -0.361622L321.08 316.156M419.675 0.365087L325.216 316.883M423.796 1.10352L329.337 317.621M427.932 1.84195L333.473 318.36M432.068 2.58039L337.609 319.098M436.189 3.3071L341.73 319.825M440.325 4.04553L345.865 320.563M444.461 4.78396L350.001 321.302M448.582 5.52239L354.122 322.04" stroke="#1E1E1C" stroke-width="0.41" stroke-miterlimit="10"/>
</g>
<path d="M152.251 32.7266L118.164 64.3737V102.151L122.406 97.8844L177.506 59.064L152.251 32.7266Z" fill="#114954"/>
<path d="M128.436 69.109L152.251 45.5143V32.7266L108.59 69.2028L118.164 117.658L128.436 69.109Z" fill="#077C91"/>
<path d="M118.164 90.4754V156.571H292.054V76.3749L206.352 0.585938L118.164 90.4754Z" fill="#114954"/>
<path d="M237.15 77.5823H169.673L206.351 37.5311V0L139.328 68.7328H109.24L6.8573 151.179C4.22122 153.301 -0.566117 156.337 0.0550273 156.817H142.312L237.15 77.5823Z" fill="#077C91"/>
<mask id="mask1_13292_16907" style="mask-type:luminance" maskUnits="userSpaceOnUse" x="5" y="1" width="233" height="156">
<path d="M128.434 69.1076L128.707 68.8381L128.329 69.5999L128.434 69.1194V69.1076ZM205.259 1.125L139.327 68.7326H128.798L152.25 45.513V32.7135L118.178 61.7585L6.9175 151.144C4.26627 153.265 6.22069 156.817 10.0385 156.817H142.327L237.165 77.582H169.687L206.365 37.5309V1.125H205.274H205.259Z" fill="white"/>
</mask>
<g mask="url(#mask1_13292_16907)">
<path d="M80.9849 -59.9297L-13.4746 256.588M85.1208 -59.1913L-9.33873 257.327M89.2415 -58.4528L-5.21801 258.065M93.3774 -57.7144L-1.08213 258.803M97.5132 -56.976L3.05393 259.542M101.634 -56.2375L7.17465 260.28M105.77 -55.4991L11.3105 261.019M109.906 -54.7607L15.4464 261.757M114.026 -54.0222L19.5671 262.496M118.147 -53.2838L23.688 263.234M122.283 -52.5454L27.8239 263.972M126.419 -51.8069L31.9598 264.711M130.54 -51.0685L36.0805 265.449M134.676 -50.3301L40.2164 266.188M138.812 -49.5916L44.3523 266.926M142.932 -48.8532L48.473 267.665M147.068 -48.1148L52.6089 268.403M151.189 -47.3763L56.73 269.142M155.31 -46.6379L60.8507 269.88M159.431 -45.8995L64.9714 270.618M163.552 -45.161L69.0921 271.357M167.687 -44.4226L73.228 272.095M171.808 -43.6842L77.3487 272.834M175.944 -42.9457L81.4846 273.572M180.08 -42.2073L85.6205 274.311M184.201 -41.4689L89.7412 275.049M188.321 -40.7304L93.8623 275.787M192.442 -39.992L97.983 276.526M196.578 -39.2536L102.119 277.264M200.699 -38.5152L106.24 278.003M204.82 -37.7767L110.36 278.729M208.956 -37.05L114.496 279.468M213.076 -36.3116L118.617 280.206M217.212 -35.5731L122.753 280.945M221.333 -34.8347L126.873 281.683M225.454 -34.0963L130.994 282.422M229.574 -33.3578L135.115 283.16M233.71 -32.6194L139.251 283.898M237.846 -31.881L143.387 284.637M241.982 -31.1425L147.523 285.375M246.118 -30.4041L151.659 286.114M250.254 -29.6657L155.795 286.852M254.39 -28.9273L159.931 287.591M258.511 -28.1888L164.051 288.329M262.632 -27.4504L168.172 289.067M266.767 -26.712L172.308 289.806M270.903 -25.9735L176.444 290.544M275.039 -25.2351L180.58 291.283M279.16 -24.4967L184.701 292.021M283.296 -23.7582L188.837 292.76M287.432 -23.0198L192.973 293.498M291.568 -22.2814L197.108 294.237M295.689 -21.5429L201.229 294.975M299.824 -20.8045L205.365 295.713M303.945 -20.0661L209.486 296.452M308.081 -19.3276L213.622 297.19M312.217 -18.5892L217.757 297.929M316.338 -17.8508L221.879 298.667M320.458 -17.1123L225.999 299.406M324.594 -16.3739L230.135 300.144M328.73 -15.6355L234.271 300.882M332.866 -14.897L238.407 301.621" stroke="#1E1E1C" stroke-width="0.25" stroke-miterlimit="10"/>
</g>
</g>
<defs>
<clipPath id="clip0_13292_16907">
<rect width="525" height="156" fill="white"/>
</clipPath>
</defs>
</svg>
