<svg width="150" height="139" viewBox="0 0 150 139" fill="none" xmlns="http://www.w3.org/2000/svg">
<path fill-rule="evenodd" clip-rule="evenodd" d="M24.0167 78.5068L69.8331 78.1328L81.3425 152.074L59.8959 152.295L47.5546 106.578L47.2874 151.624L22.4062 152.074L24.0167 78.5068Z" fill="#114954"/>
<path d="M47.8433 107.993C47.6296 107.986 47.477 107.818 47.4846 107.619L47.9503 96.4305C48.0114 94.9041 48.599 93.4234 49.5988 92.2709L52.3083 89.1494C52.438 88.9967 52.6669 88.9815 52.8196 89.1112C52.9722 89.241 52.9875 89.4699 52.8578 89.6226L50.1483 92.7441C49.2553 93.7745 48.7287 95.0949 48.6753 96.461L48.2097 107.65C48.202 107.841 48.0418 107.993 47.851 107.993H47.8433Z" fill="white"/>
<path d="M23.4644 104.01C23.2736 104.01 23.1134 103.858 23.1057 103.667C23.0981 103.469 23.2507 103.301 23.4492 103.293C27.3263 103.133 30.2877 101.774 32.2568 99.248C36.6682 93.5772 34.699 83.8461 34.6761 83.7469C34.638 83.5561 34.7602 83.3653 34.951 83.3195C35.1418 83.2813 35.3325 83.4034 35.3783 83.5942C35.4622 84.0064 37.4391 93.7604 32.8216 99.683C30.7151 102.385 27.5706 103.835 23.4721 104.003C23.4721 104.003 23.4644 104.003 23.4568 104.003L23.4644 104.01Z" fill="white"/>
<path d="M130.012 58.007C130.012 59.4877 131.21 60.6859 132.691 60.6859C134.171 60.6859 135.37 59.4877 135.37 58.007C135.37 56.5264 134.171 55.3281 132.691 55.3281C131.21 55.3281 130.012 56.5264 130.012 58.007Z" fill="#EB7045"/>
<path d="M102.918 135.312C102.918 136.792 104.116 137.991 105.597 137.991C107.078 137.991 108.276 136.792 108.276 135.312C108.276 133.831 107.078 132.633 105.597 132.633C104.116 132.633 102.918 133.831 102.918 135.312Z" fill="#4DAE6F"/>
<path d="M57.2389 13.5739C56.1856 19.5423 50.4921 23.5263 44.5237 22.4654C38.5552 21.4046 34.5711 15.7185 35.632 9.75013C36.6852 3.78172 42.3788 -0.202325 48.3472 0.858556C54.3156 1.9118 58.2998 7.60546 57.2389 13.5739Z" fill="#41738A"/>
<path d="M39.9805 28.5136L40.2782 20.7516C45.865 20.7211 45.5138 14.9588 45.5138 14.9588C46.59 14.3711 46.8648 12.5012 46.9259 10.6389C46.964 9.27274 48.9941 7.22731 53.6879 8.80718C56.1531 9.6391 57.0921 8.88349 57.0921 8.88349C57.0921 8.88349 57.443 9.23458 57.7025 10.5855C57.7788 10.9824 57.8475 11.3945 57.8857 11.8677C58.5191 19.706 59.4275 24.7127 51.8792 24.8883L51.1694 28.9639L39.9881 28.506L39.9805 28.5136Z" fill="#F1E6CD"/>
<path d="M15.1172 19.2024C15.1172 20.683 16.3155 21.8813 17.7961 21.8813C19.2768 21.8813 20.475 20.683 20.475 19.2024C20.475 17.7217 19.2768 16.5234 17.7961 16.5234C16.3155 16.5234 15.1172 17.7217 15.1172 19.2024Z" fill="#41738A"/>
<path d="M58.5224 10.3566L95.096 8.58594V18.1186L58.5224 16.3479C56.9196 16.2716 55.668 14.9512 55.668 13.3484C55.668 11.7457 56.9273 10.4253 58.5224 10.349V10.3566Z" fill="#F5F5FA"/>
<path d="M95.1032 18.4921L58.5143 16.7214C56.7207 16.6375 55.3164 15.1568 55.3164 13.3632C55.3164 11.5697 56.7207 10.089 58.5143 10.005L95.0881 8.23438C95.1873 8.23438 95.2788 8.26491 95.3551 8.3336C95.4238 8.40229 95.4697 8.49387 95.4697 8.59309V18.1257C95.4697 18.225 95.4314 18.3166 95.3551 18.3852C95.2864 18.4463 95.2024 18.4845 95.1032 18.4845V18.4921ZM58.5448 10.7225C57.1329 10.7912 56.0262 11.9513 56.0262 13.3632C56.0262 14.7752 57.1329 15.9353 58.5448 16.004L94.7445 17.7518V8.9747L58.5448 10.7225Z" fill="#114954"/>
<path d="M101.002 7.36719H74.2812V19.3498H101.002V7.36719Z" fill="#F5F5FA"/>
<path d="M101.009 19.7H74.2886C74.0901 19.7 73.9297 19.5398 73.9297 19.3413V7.35872C73.9297 7.16028 74.0901 7 74.2886 7H101.009C101.207 7 101.368 7.16028 101.368 7.35872V19.3413C101.368 19.5398 101.207 19.7 101.009 19.7ZM74.6473 18.9826H100.65V7.71743H74.6473V18.9826Z" fill="#114954"/>
<path d="M105.147 5.71094H93.9888C93.2723 5.71094 92.6914 6.29185 92.6914 7.00843V19.7008C92.6914 20.4174 93.2723 20.9983 93.9888 20.9983H105.147C105.864 20.9983 106.445 20.4174 106.445 19.7008V7.00843C106.445 6.29185 105.864 5.71094 105.147 5.71094Z" fill="#F5F5FA"/>
<path d="M105.147 21.3565H93.996C93.0801 21.3565 92.3398 20.6086 92.3398 19.7004V7.01558C92.3398 6.09971 93.0877 5.35938 93.996 5.35938H105.147C106.063 5.35938 106.803 6.10734 106.803 7.01558V19.7004C106.803 20.6162 106.055 21.3565 105.147 21.3565ZM93.996 6.06917C93.477 6.06917 93.0572 6.48895 93.0572 7.00794V19.6927C93.0572 20.2117 93.477 20.6315 93.996 20.6315H105.147C105.666 20.6315 106.086 20.2117 106.086 19.6927V7.00794C106.086 6.48895 105.666 6.06917 105.147 6.06917H93.996Z" fill="#114954"/>
<path d="M73.0513 16.0522C70.5479 12.8696 69.7848 10.5646 71.6165 9.70981C73.7001 8.74051 76.15 12.61 76.6613 13.129C77.1727 13.648 79.4319 13.1672 81.3247 14.1975C84.7287 16.0445 85.3773 19.3493 85.3773 19.3493L85.3469 29.027H73.5017C73.5017 29.027 73.5321 16.6704 73.0513 16.0522Z" fill="#F1E6CD"/>
<path d="M93.4993 54.1665C89.4695 32.3612 88.7977 25.0189 88.7977 25.0189L70.6712 23.8359L70.7399 36.2307C65.985 30.7508 64.306 27.5528 53.7964 27.8963L36.8452 28.4458C22.405 28.4229 20.1992 30.9645 11.1626 45.5039C4.24782 56.6317 -3.59814 66.9504 1.79022 76.0404C8.37684 87.153 24.6795 79.7345 24.6795 79.7345L69.992 79.1926L68.6181 72.1098C80.1275 84.8709 97.5138 75.9565 93.4917 54.1665H93.4993Z" fill="#EB7045"/>
<path d="M66.8538 63.6788C66.6553 63.6788 66.4951 63.5185 66.4951 63.3277L66.1211 43.4992C66.1211 43.3007 66.2737 43.1328 66.4721 43.1328C66.663 43.1328 66.8387 43.2855 66.8387 43.4839L67.2126 63.3124C67.2126 63.5109 67.0598 63.6788 66.8614 63.6788H66.8538Z" fill="#114954"/>
<path d="M29.7181 59.1972C29.5196 59.1972 29.3594 59.0369 29.3594 58.8385V42.765C29.3594 42.5665 29.5196 42.4062 29.7181 42.4062C29.9165 42.4062 30.0768 42.5665 30.0768 42.765V58.8385C30.0768 59.0369 29.9165 59.1972 29.7181 59.1972Z" fill="#114954"/>
<path d="M72.4101 7.02188C72.4101 5.25121 74.4708 4.5643 75.6615 5.65571C75.6615 5.65571 76.9972 4.03004 79.1418 5.2512C79.1418 5.2512 81.0956 3.80872 82.5305 5.35806C82.5305 5.35806 85.759 3.6408 86.0261 7.89959C86.133 9.57105 85.5988 11.9142 84.5455 11.9676C83.1412 12.0363 82.8435 10.7998 82.8435 9.57869C82.6985 10.403 82.5229 12.3415 81.004 12.4484C79.47 12.5552 79.3479 11.5249 78.9816 10.5556C78.9587 11.5325 78.6611 12.3874 77.6994 12.395C76.3332 12.4103 75.8676 10.7846 75.715 9.46421C75.5776 10.2427 75.1197 11.0135 73.8527 11.0212C72.3568 11.0288 72.4025 8.01407 72.4025 7.01425L72.4101 7.02188Z" fill="#F1E6CD"/>
<path d="M82.8601 9.93899C82.6769 9.93899 82.5165 9.79397 82.5012 9.60317L82.1807 5.38254C82.1655 5.1841 82.3181 5.00855 82.5089 4.99329C82.7073 4.97803 82.8829 5.12303 82.8981 5.32147L83.2188 9.5421C83.2341 9.74053 83.0813 9.91608 82.8905 9.93135C82.8829 9.93135 82.8754 9.93135 82.8601 9.93135V9.93899Z" fill="#114954"/>
<path d="M78.9996 10.9281C78.7935 10.9281 78.6333 10.7602 78.6409 10.5617L78.7935 5.25733C78.7935 5.05889 78.9614 4.90625 79.1598 4.90625C79.3583 4.90625 79.5185 5.07417 79.5109 5.27261L79.3583 10.577C79.3583 10.7754 79.1904 10.9281 78.9996 10.9281Z" fill="#114954"/>
<path d="M75.7474 9.98325C75.549 9.98325 75.3887 9.83061 75.3887 9.63218L75.3047 5.67104C75.3047 5.47261 75.4573 5.30469 75.6557 5.30469C75.8618 5.30469 76.0221 5.45735 76.0221 5.65579L76.1061 9.6169C76.1061 9.81533 75.9535 9.98325 75.7551 9.98325H75.7474Z" fill="#114954"/>
<path d="M74.7394 11.2271C74.6249 11.2271 74.5105 11.1737 74.4418 11.0745C73.7244 10.0441 72.6328 9.94492 72.587 9.93728C72.3886 9.92202 72.2437 9.74647 72.2589 9.54803C72.2742 9.34959 72.4421 9.20459 72.6405 9.21985C72.7016 9.21985 74.1137 9.34198 75.0372 10.6624C75.1516 10.8226 75.1134 11.0516 74.9455 11.1661C74.8844 11.2119 74.8081 11.2271 74.7394 11.2271Z" fill="#114954"/>
<path d="M46.8741 16.8803C46.0193 17.3917 44.7524 16.9719 44.0426 15.9492C43.3252 14.9265 43.4397 13.6824 44.2869 13.1711C45.1417 12.6597 46.4086 13.0795 47.1184 14.1022C47.8358 15.1249 47.7213 16.369 46.8741 16.8803Z" fill="#F1E6CD"/>
<path d="M50.9023 4.58696C50.9023 7.12086 52.9554 9.17394 55.4893 9.17394C58.0232 9.17394 60.0763 7.12086 60.0763 4.58696C60.0763 2.05306 58.0232 0 55.4893 0C52.9554 0 50.9023 2.05306 50.9023 4.58696Z" fill="#41738A"/>
<path d="M71.0926 57.7719C70.8941 57.7719 70.7339 57.6116 70.7339 57.4208L70.3828 36.2413C70.3828 36.0429 70.5354 35.8826 70.7339 35.875C70.9247 35.875 71.1002 36.0276 71.1002 36.2261L71.4513 57.4055C71.4513 57.604 71.2986 57.7643 71.1002 57.7719H71.0926Z" fill="#114954"/>
<path fill-rule="evenodd" clip-rule="evenodd" d="M53.8027 27.8873L52.3907 24.8649L51.8336 24.9031L48.3305 27.7652L40.2097 22.4531L36.8516 28.4444L44.0945 36.8323L48.5822 30.2838L54.2225 36.2217L53.8027 27.8873Z" fill="#4DAE6F"/>
<path d="M146.287 37.73C146.18 37.73 146.081 37.6842 146.012 37.6003L128.305 16.1384L110.591 37.6003C110.461 37.7529 110.24 37.7758 110.087 37.6461C109.935 37.5163 109.912 37.295 110.042 37.1423L128.031 15.3447C128.168 15.1768 128.451 15.1768 128.588 15.3447L146.577 37.1423C146.707 37.295 146.684 37.524 146.531 37.6461C146.463 37.6995 146.386 37.73 146.302 37.73H146.287Z" fill="#114954"/>
<path d="M146.284 40.5751C148.054 40.5751 149.489 39.14 149.489 37.3696C149.489 35.5992 148.054 34.1641 146.284 34.1641C144.513 34.1641 143.078 35.5992 143.078 37.3696C143.078 39.14 144.513 40.5751 146.284 40.5751Z" fill="#41738A"/>
<path d="M110.307 40.5751C112.077 40.5751 113.513 39.14 113.513 37.3696C113.513 35.5992 112.077 34.1641 110.307 34.1641C108.537 34.1641 107.102 35.5992 107.102 37.3696C107.102 39.14 108.537 40.5751 110.307 40.5751Z" fill="#41738A"/>
<path d="M131.493 15.5805C131.493 13.8098 130.058 12.375 128.295 12.375C126.532 12.375 125.09 13.8098 125.09 15.5805C125.09 17.3512 126.525 18.7784 128.295 18.7784C130.066 18.7784 131.493 17.3436 131.493 15.5805Z" fill="#4DAE6F"/>
<path d="M73.9754 47.3984H44.805C42.6216 47.3984 40.8516 49.1685 40.8516 51.352V69.0358C40.8516 71.2193 42.6216 72.9893 44.805 72.9893H73.9754C76.1589 72.9893 77.9288 71.2193 77.9288 69.0358V51.352C77.9288 49.1685 76.1589 47.3984 73.9754 47.3984Z" fill="#F5F5FA"/>
<path d="M73.9745 73.3472H44.7965C42.4229 73.3472 40.4844 71.4163 40.4844 69.035V51.3435C40.4844 48.9699 42.4153 47.0312 44.7965 47.0312H73.9745C76.3482 47.0312 78.2869 48.9622 78.2869 51.3435V69.035C78.2869 71.4086 76.3558 73.3472 73.9745 73.3472ZM44.7965 47.7563C42.8198 47.7563 41.2018 49.3667 41.2018 51.3511V69.0426C41.2018 71.0194 42.8121 72.6374 44.7965 72.6374H73.9745C75.9513 72.6374 77.5693 71.027 77.5693 69.0426V51.3511C77.5693 49.3743 75.9589 47.7563 73.9745 47.7563H44.7965Z" fill="#114954"/>
<path d="M59.3899 64.1861C57.1842 64.1861 55.3906 62.3925 55.3906 60.1868C55.3906 57.9811 57.1842 56.1875 59.3899 56.1875C61.5956 56.1875 63.3892 57.9811 63.3892 60.1868C63.3892 62.3925 61.5956 64.1861 59.3899 64.1861ZM59.3899 56.9126C57.5811 56.9126 56.1157 58.3856 56.1157 60.1868C56.1157 61.988 57.5887 63.461 59.3899 63.461C61.1911 63.461 62.664 61.988 62.664 60.1868C62.664 58.3856 61.1911 56.9126 59.3899 56.9126Z" fill="#114954"/>
<path d="M48.0656 57.7276C47.3405 56.1325 44.9516 56.8575 43.2114 57.4605C45.4019 56.4149 48.5541 55.0563 47.5543 53.1177C46.5697 51.2097 42.0971 53.1788 42.0971 53.1788C44.0663 52.2935 45.4172 51.0723 44.6464 50.0038C43.2649 48.0881 37.2889 51.3852 34.4955 52.9346C31.7021 54.4839 32.1905 58.01 32.1905 58.01L28.5117 59.048L33.8696 73.1447C40.3799 71.4122 38.8611 67.3671 38.8611 67.3671C38.8611 67.3671 48.2106 64.1234 47.0581 61.5819C46.6765 60.7424 45.7988 60.9026 45.7988 60.9026C47.3024 60.0478 48.5464 58.7732 48.0732 57.72L48.0656 57.7276Z" fill="#F1E6CD"/>
<path d="M24.6873 80.0906C24.5652 80.0906 24.4508 80.0296 24.3821 79.9151C24.2752 79.7472 24.3362 79.5258 24.5041 79.419L33.7392 73.8093L27.3511 57.0107L9.33135 63.4447C9.14054 63.5134 8.94203 63.4142 8.87334 63.2234C8.80465 63.0326 8.9039 62.8341 9.0947 62.7654L27.4426 56.2094C27.6258 56.1407 27.8319 56.2399 27.9006 56.4231L34.5177 73.8322C34.5788 73.9925 34.5178 74.1756 34.3651 74.2672L24.8707 80.0296C24.8096 80.0677 24.7484 80.083 24.6873 80.083V80.0906Z" fill="#114954"/>
<path d="M34.419 64.197C34.274 64.197 34.1366 64.1054 34.0832 63.968L31.847 58.1446C31.7783 57.9615 31.8699 57.7477 32.0531 57.6791C32.2363 57.6104 32.4499 57.702 32.5186 57.8851L34.755 63.7085C34.8236 63.8917 34.732 64.1054 34.5489 64.1741C34.5031 64.1894 34.4648 64.197 34.419 64.197Z" fill="#114954"/>
<path d="M37.2561 55.6702C37.1188 55.6702 36.9889 55.5863 36.9278 55.4565C36.8515 55.2733 36.9278 55.0596 37.111 54.9833L42.3009 52.7013C42.4841 52.6249 42.6979 52.7012 42.7742 52.8844C42.8506 53.0676 42.7742 53.2813 42.5911 53.3576L37.4011 55.6397C37.3553 55.6626 37.3019 55.6702 37.2561 55.6702Z" fill="#114954"/>
<path d="M38.7545 59.6673C38.6172 59.6673 38.4798 59.5833 38.4188 59.4459C38.3424 59.2628 38.4264 59.0491 38.6096 58.9728L43.4636 56.9578C43.6467 56.8815 43.8605 56.9655 43.9369 57.1486C44.0132 57.3318 43.9292 57.5455 43.7384 57.6219L38.8842 59.6368C38.8384 59.652 38.7927 59.6673 38.7469 59.6673H38.7545Z" fill="#114954"/>
<path d="M39.9526 63.7365C39.8076 63.7365 39.6779 63.6525 39.6168 63.5152C39.5405 63.332 39.6321 63.1183 39.8153 63.0496L45.6159 60.6989C45.799 60.6225 46.0126 60.7141 46.0813 60.8973C46.1576 61.0805 46.066 61.2942 45.8829 61.3629L40.0825 63.7136C40.0367 63.7289 39.9909 63.7365 39.9452 63.7365H39.9526Z" fill="#114954"/>
<path d="M96.347 21.3553C96.1485 21.3553 95.9883 21.195 95.9883 20.9966V5.6634C95.9883 5.46497 96.1485 5.30469 96.347 5.30469C96.5454 5.30469 96.7057 5.46497 96.7057 5.6634V20.9966C96.7057 21.195 96.5454 21.3553 96.347 21.3553Z" fill="#114954"/>
<path d="M105.598 88.0469V98.4573H95.1875C95.1875 104.204 99.8507 108.868 105.598 108.868C111.345 108.868 116.008 104.204 116.008 98.4573C116.008 92.7102 111.345 88.0469 105.598 88.0469Z" fill="#41738A"/>
<path d="M103.375 85.7656C97.6281 85.7656 92.9648 90.4289 92.9648 96.176H103.375V85.7656Z" fill="#4DAE6F"/>
</svg>
