<svg width="81" height="36" viewBox="0 0 81 36" fill="none" xmlns="http://www.w3.org/2000/svg">
<path d="M40.9482 35.1636L53.55 0.836365H59.6179L46.9695 35.1636H40.9482Z" fill="#C6D45B"/>
<path d="M69.6465 32.0577C71.1548 31.4952 71.9374 29.9224 71.9982 27.3395V23.5324C71.9982 20.9019 73.1132 19.0558 75.3393 17.9901C73.1132 16.9244 71.9982 15.0783 71.9982 12.4478V8.64072C71.9374 6.05776 71.1548 4.485 69.6465 3.92245L70.7777 0.836365C72.9186 1.42268 74.5283 2.37743 75.6069 3.70456C76.6854 5.0317 77.2288 6.77084 77.2409 8.92199V12.4478C77.2409 14.8208 78.21 16.0093 80.1481 16.0093V19.9907C78.21 19.9907 77.2409 21.1673 77.2409 23.5165V27.2523C77.1558 31.3684 75.0027 34.0069 70.7777 35.1636L69.6465 32.0577Z" fill="#EB7045"/>
<path d="M11.7844 18.0698L30.9215 24.4787V35.1636L0 22.6248V13.3652L30.9215 0.836365V11.4914L11.7844 18.0698Z" fill="#61BDB3"/>
</svg>
