<?xml version="1.0" standalone="no"?>
<!DOCTYPE svg PUBLIC "-//W3C//DTD SVG 20010904//EN"
 "http://www.w3.org/TR/2001/REC-SVG-20010904/DTD/svg10.dtd">
<svg version="1.0" xmlns="http://www.w3.org/2000/svg"
 width="367.000000pt" height="436.000000pt" viewBox="0 0 367.000000 436.000000"
 preserveAspectRatio="xMidYMid meet">
<metadata>
Created by potrace 1.13, written by Peter Selinger 2001-2015
</metadata>
<g transform="translate(0.000000,436.000000) scale(0.100000,-0.100000)"
fill="#000000" stroke="none">
<path d="M1981 4164 c-17 -13 -28 -14 -46 -6 -19 9 -27 6 -49 -17 -26 -27 -34
-51 -17 -51 6 0 13 5 16 10 21 34 79 -22 78 -75 -1 -36 -42 -104 -63 -105 -8
0 -21 9 -28 20 -14 23 -47 27 -55 6 -3 -8 -1 -16 4 -18 6 -2 7 -11 4 -21 -4
-9 -11 -15 -15 -12 -8 5 -40 -82 -40 -109 0 -9 -9 -25 -20 -36 -33 -33 -23
-41 11 -9 18 16 33 28 35 27 1 -2 -5 -29 -13 -60 -12 -42 -22 -60 -37 -64 -12
-4 -23 -6 -26 -5 -8 4 -19 -34 -19 -74 -1 -22 -10 -67 -20 -100 -10 -33 -22
-105 -25 -160 -4 -55 -11 -113 -16 -130 -5 -16 -11 -46 -14 -65 -16 -134 -26
-159 -102 -246 -75 -85 -68 -93 10 -11 54 57 69 67 100 69 58 2 60 2 74 16 19
18 37 15 22 -3 -9 -11 -9 -15 -1 -15 6 0 14 7 17 15 4 8 13 15 21 15 9 0 13 6
9 15 -10 26 14 75 37 75 19 0 20 1 2 20 -16 17 -16 20 -2 20 8 0 22 3 30 6 10
4 15 -1 14 -13 -2 -13 6 -19 26 -21 15 -2 27 1 27 7 0 17 37 13 44 -4 3 -9 18
-15 34 -15 16 0 32 -3 36 -7 4 -5 11 -8 15 -8 3 0 27 -20 52 -45 24 -25 64
-58 87 -73 27 -18 42 -36 42 -49 0 -12 3 -19 6 -15 15 14 -12 67 -62 122 -29
33 -54 66 -54 75 0 8 -7 28 -15 44 -22 42 -21 132 3 186 15 35 27 48 56 58 21
8 40 11 43 8 3 -3 18 1 34 9 21 11 46 14 96 9 52 -5 71 -3 79 7 17 23 37 96
29 108 -4 7 -2 18 4 24 15 18 2 55 -21 63 -23 7 -120 24 -163 29 -16 1 -37 3
-45 4 -22 3 -76 53 -84 78 -7 20 2 18 88 -27 53 -28 106 -50 119 -50 12 -1 39
-7 60 -14 20 -8 37 -11 37 -7 0 4 -39 22 -87 40 -157 61 -207 100 -259 204
-27 52 -27 52 -15 163 11 98 10 117 -4 150 -23 57 -44 66 -84 38z"/>
<path d="M1937 2770 c-17 -17 -38 -18 -86 -4 -22 7 -23 5 -17 -19 6 -25 2 -29
-20 -26 -4 0 -11 -5 -16 -13 -7 -10 -11 -10 -15 0 -2 6 -9 12 -15 12 -6 0 -4
-8 5 -18 25 -28 21 -33 -24 -27 -35 4 -40 3 -30 -9 7 -8 23 -17 36 -20 17 -4
25 -13 25 -29 1 -20 2 -20 11 -4 12 21 55 23 63 2 3 -8 11 -15 18 -15 10 0 10
2 1 8 -8 5 -1 12 19 21 24 11 33 11 36 3 6 -18 32 -14 32 4 0 10 6 14 15 10
11 -4 15 2 15 27 0 21 3 28 9 19 7 -12 12 -12 30 -1 24 16 29 34 6 25 -8 -3
-15 -2 -15 2 0 5 16 14 36 21 19 7 33 18 31 24 -5 15 -80 28 -88 15 -4 -7 -13
-7 -25 0 -14 7 -24 5 -37 -8z"/>
<path d="M2192 2669 c2 -14 -5 -32 -15 -42 -10 -10 -15 -22 -12 -26 2 -5 -2
-12 -11 -15 -14 -5 -14 -9 -3 -23 12 -15 12 -16 -4 -10 -10 4 -30 4 -43 1 -23
-6 -24 -7 -7 -21 10 -8 13 -12 6 -9 -6 4 -13 2 -15 -3 -1 -5 -15 -7 -30 -4
-18 3 -29 13 -33 32 l-7 26 -11 -22 c-13 -28 -31 -30 -24 -3 4 14 -4 26 -26
42 -17 12 -27 16 -22 9 6 -11 2 -13 -17 -9 -23 4 -48 -11 -48 -31 0 -5 10 -17
21 -25 14 -9 19 -21 15 -31 -3 -9 0 -18 9 -21 18 -7 20 -34 3 -34 -8 0 -4 -7
6 -15 11 -8 28 -12 39 -9 11 3 27 -2 39 -13 12 -10 18 -12 14 -5 -4 6 -3 12 2
12 6 0 13 -12 17 -27 3 -15 17 -40 31 -56 14 -16 22 -32 18 -36 -4 -3 -9 0
-11 7 -3 6 -11 12 -19 12 -8 0 -14 4 -14 9 0 27 -143 31 -171 5 -16 -14 -24
-16 -38 -7 -25 16 -48 -19 -26 -41 23 -22 19 -49 -5 -43 -17 4 -19 1 -16 -20
3 -16 1 -23 -7 -20 -7 2 -13 15 -15 29 -2 15 -9 29 -17 32 -10 4 -11 -2 -5
-25 5 -18 5 -27 -1 -24 -10 7 -11 5 -14 -41 -3 -28 -1 -30 21 -26 13 2 24 0
24 -4 -1 -14 -24 -40 -39 -45 -14 -5 -23 -28 -22 -62 0 -9 -4 -15 -10 -12 -5
4 -9 -4 -9 -16 0 -17 -3 -19 -13 -10 -8 6 -17 8 -20 4 -12 -11 -8 13 8 51 9
20 13 42 9 48 -11 18 -32 -19 -26 -47 2 -14 0 -25 -6 -25 -15 0 -26 -41 -14
-49 6 -4 4 -12 -6 -21 -14 -13 -15 -12 -9 3 3 9 2 19 -3 22 -6 4 -10 -3 -10
-14 0 -12 -5 -21 -10 -21 -6 0 -8 11 -4 25 5 19 2 25 -11 25 -9 0 -14 4 -11 9
8 12 -14 71 -25 71 -12 0 -11 -6 6 -64 17 -56 18 -66 7 -66 -5 0 -13 17 -20
38 l-11 37 2 -52 c1 -30 -2 -48 -7 -43 -5 5 -9 22 -10 38 -1 19 -5 28 -13 25
-15 -6 -17 16 -4 37 6 8 7 18 4 24 -4 5 -10 1 -14 -10 -11 -26 -11 -72 0 -76
8 -3 23 -98 15 -98 -2 0 -15 17 -29 37 -25 37 -25 37 -25 10 0 -17 -5 -27 -14
-27 -19 0 -64 42 -59 55 1 6 -13 11 -33 11 l-36 1 28 -23 c16 -13 34 -23 40
-24 21 0 23 -27 3 -44 -18 -15 -20 -15 -29 9 -14 38 -19 30 -9 -15 5 -23 10
-46 12 -53 1 -6 -7 -11 -18 -11 -14 0 -19 5 -18 19 6 53 -7 73 -55 85 -26 6
-50 17 -54 23 -13 22 -18 0 -5 -26 6 -15 17 -25 24 -22 16 6 22 -5 28 -54 4
-34 1 -46 -17 -64 -13 -13 -31 -40 -40 -59 -15 -32 -15 -38 -2 -48 8 -7 13
-25 12 -41 -2 -25 -7 -29 -30 -29 -15 0 -28 -5 -28 -11 0 -6 -7 -9 -15 -5 -11
4 -15 -2 -15 -26 0 -30 0 -31 -20 -13 -19 18 -20 17 -20 -2 0 -16 -5 -19 -25
-15 -20 3 -25 0 -25 -16 0 -47 -102 -178 -114 -147 -10 28 -59 17 -110 -25
-26 -22 -54 -40 -62 -40 -19 0 -55 -42 -50 -57 3 -7 -1 -13 -9 -13 -8 0 -15
-5 -15 -11 0 -6 9 -9 20 -6 11 3 23 1 26 -4 3 -5 -6 -9 -20 -9 -14 0 -26 -4
-26 -9 0 -4 17 -5 38 -1 21 3 43 5 50 2 23 -7 12 -20 -23 -26 -20 -4 -33 -11
-30 -17 4 -5 -2 -12 -12 -16 -23 -9 -43 -28 -43 -42 0 -6 -7 -11 -16 -11 -12
0 -15 -6 -11 -23 7 -27 -5 -49 -24 -45 -10 2 -14 -8 -14 -38 -1 -23 -10 -56
-23 -79 -13 -21 -21 -44 -18 -52 4 -11 1 -11 -15 -3 -19 11 -20 9 -14 -36 5
-41 4 -45 -10 -34 -17 14 -22 6 -28 -50 -4 -32 -5 -33 -12 -12 -4 13 -11 19
-14 14 -8 -12 -55 -27 -48 -15 6 9 11 120 8 153 -3 32 -17 43 -40 31 -22 -12
-64 -84 -55 -94 3 -3 -4 -8 -15 -12 -23 -7 -45 -40 -36 -54 3 -5 2 -11 -2 -13
-5 -1 -15 -17 -25 -35 -14 -27 -14 -32 -2 -37 17 -6 19 -36 3 -36 -8 0 -9 -4
0 -13 6 -8 8 -17 4 -21 -4 -4 -1 -11 6 -15 11 -7 11 -15 0 -45 -7 -20 -18 -36
-24 -36 -6 0 -15 -25 -21 -55 -7 -38 -7 -55 1 -55 5 0 4 -4 -4 -9 -9 -6 -10
-11 -2 -15 6 -4 11 -19 11 -34 1 -25 2 -26 14 -9 10 13 15 15 19 5 4 -10 7
-11 18 0 11 10 16 8 27 -10 12 -21 13 -21 9 -3 -2 11 2 26 10 33 18 17 17 58
-2 66 -8 3 -15 12 -15 21 0 11 -6 14 -25 9 -14 -3 -25 -3 -25 1 0 8 31 34 41
35 14 0 59 -50 59 -67 0 -10 12 -24 27 -30 36 -17 43 -16 43 4 0 9 7 24 15 33
16 17 56 122 50 128 -2 2 -13 -1 -24 -7 -17 -10 -20 -9 -14 5 4 11 3 15 -5 10
-6 -3 -13 -2 -16 3 -3 5 1 12 10 15 11 4 14 14 11 27 -3 13 -1 19 6 16 7 -2
13 -13 15 -24 4 -26 40 -37 59 -17 8 8 34 28 59 45 24 16 44 33 44 36 0 4 -7
15 -17 25 -15 17 -15 18 2 18 10 0 24 -8 31 -18 12 -16 14 -16 36 4 13 12 42
31 65 43 52 26 208 177 216 209 3 13 -1 28 -9 36 -22 22 -17 28 10 11 23 -15
24 -14 41 22 10 20 30 57 44 82 15 25 35 68 45 94 12 31 33 60 62 84 24 21 44
41 44 45 0 13 61 67 84 73 11 4 35 13 51 20 17 7 48 17 70 21 23 4 63 25 95
49 31 23 99 68 153 100 66 41 97 65 97 78 0 10 4 15 10 12 13 -8 137 77 173
118 15 18 46 56 68 85 25 33 47 52 60 52 29 0 59 18 59 35 0 22 27 32 146 56
60 12 115 26 122 32 21 16 91 26 101 13 5 -6 11 -67 15 -136 3 -69 5 -127 6
-129 0 -2 9 -1 20 2 22 6 28 -8 6 -16 -9 -4 -12 -15 -8 -32 3 -21 0 -27 -17
-32 -13 -3 -20 -13 -19 -27 0 -11 -3 -29 -7 -39 -7 -17 -6 -18 14 -5 12 7 25
27 30 43 6 24 12 29 30 27 12 -2 28 2 36 8 11 9 12 7 8 -10 -3 -12 -11 -24
-17 -26 -7 -3 -10 -19 -8 -39 2 -19 8 -32 13 -29 5 3 6 -2 3 -10 -3 -8 -12
-17 -20 -20 -8 -3 -14 -19 -14 -41 0 -22 4 -34 10 -30 14 8 40 72 40 97 0 10
7 21 15 24 17 7 22 84 5 84 -5 0 -9 10 -7 23 1 14 -3 21 -11 19 -8 -1 -11 2
-6 10 7 11 16 163 14 237 0 18 -10 51 -20 72 -22 43 -24 49 -11 49 4 0 13 -15
19 -32 l10 -33 1 30 c1 36 -29 89 -60 106 -16 8 -54 10 -118 6 -122 -6 -145 0
-149 38 -3 41 31 95 60 95 43 0 121 30 211 80 105 59 141 66 234 51 114 -20
334 -123 387 -182 36 -39 38 -40 71 -29 38 13 68 7 104 -21 25 -20 38 -19 128
10 59 20 83 37 83 58 0 12 -7 14 -37 7 -56 -12 -156 -6 -165 11 -5 7 -17 11
-28 8 -13 -4 -20 0 -20 10 0 23 -49 28 -61 6 -13 -25 -31 -24 -48 2 -12 20
-11 21 12 17 18 -4 24 -1 20 9 -3 7 -11 13 -18 13 -26 0 -26 20 0 30 19 7 32
6 48 -4 12 -7 34 -16 48 -20 21 -5 28 -2 32 15 5 18 2 20 -20 16 -14 -2 -37 2
-52 9 -14 8 -38 14 -52 14 -14 0 -29 3 -33 7 -4 4 -31 13 -59 19 -103 24 -133
33 -179 58 -26 14 -68 26 -95 28 -28 2 -47 8 -46 14 1 6 -33 18 -77 28 -72 15
-87 15 -167 2 -90 -15 -189 -16 -213 -1 -8 5 -11 4 -7 -2 4 -6 -7 -13 -24 -17
-37 -7 -100 -7 -81 1 6 2 12 11 12 19 0 18 9 18 31 -2 9 -8 20 -11 23 -6 3 5
-4 18 -15 28 -19 17 -21 17 -52 -1 -23 -14 -29 -15 -20 -3 7 8 10 18 6 21 -3
4 0 13 7 22 7 8 9 15 5 15 -4 0 -2 7 5 15 10 12 9 16 -6 21 -11 4 -23 9 -27
12 -5 2 -7 -6 -5 -19z"/>
</g>
</svg>
