<svg width="189" height="93" viewBox="0 0 189 93" fill="none" xmlns="http://www.w3.org/2000/svg">
<mask id="mask0_9150_34818" style="mask-type:luminance" maskUnits="userSpaceOnUse" x="0" y="0" width="189" height="93">
<path d="M188.39 0H0V93H188.39V0Z" fill="white"/>
</mask>
<g mask="url(#mask0_9150_34818)">
<path d="M63.6357 70.0681H58.029V41.4812H63.6357V70.0681ZM64.2576 35.515C64.2576 36.5547 63.9272 37.4195 63.2664 38.1094C62.6057 38.7993 61.7992 39.1394 60.8275 39.1394C59.8558 39.1394 59.0493 38.7993 58.3885 38.1094C57.7278 37.4195 57.3975 36.5547 57.3975 35.515C57.3975 34.4753 57.7278 33.6105 58.3885 32.9206C59.0493 32.2307 59.8558 31.8906 60.8275 31.8906C61.7992 31.8906 62.6057 32.2307 63.2664 32.9206C63.9272 33.6105 64.2576 34.4753 64.2576 35.515Z" fill="#3C3C3B"/>
<path d="M73.7024 64.2976C74.8976 65.2498 76.4426 65.7163 78.3471 65.7163C80.0475 65.7163 81.4176 65.3761 82.4767 64.6863C83.5359 63.9964 84.0606 63.0733 84.0606 61.9267C84.0606 60.955 83.8177 60.2359 83.3318 59.7501C82.846 59.2643 82.1949 58.9242 81.3884 58.7201C80.5722 58.5161 79.3188 58.3023 77.628 58.0788C75.3057 57.7776 73.4012 57.3792 71.8951 56.8739C70.389 56.3686 69.1744 55.5719 68.261 54.4739C67.3476 53.3759 66.8811 51.8989 66.8811 50.0333C66.8811 48.2842 67.3379 46.7295 68.261 45.3692C69.1744 44.0088 70.4375 42.9594 72.0505 42.2112C73.6635 41.463 75.4903 41.0938 77.5308 41.0938C80.8929 41.0938 83.6136 41.8905 85.7124 43.4938C87.8112 45.0971 88.9384 47.3417 89.1133 50.247H83.6622C83.5261 48.945 82.914 47.8761 81.8451 47.0405C80.7763 46.2048 79.4256 45.787 77.7932 45.787C76.1608 45.787 74.849 46.1174 73.8482 46.7878C72.8473 47.4583 72.3421 48.3717 72.3421 49.528C72.3421 50.3831 72.5947 51.0244 73.0902 51.4519C73.5955 51.8794 74.2271 52.1807 74.985 52.3459C75.7429 52.5111 76.9769 52.7054 78.6677 52.9289C80.9511 53.1912 82.8751 53.5896 84.4298 54.1338C85.9845 54.6779 87.2283 55.533 88.1708 56.699C89.1036 57.8748 89.57 59.4586 89.57 61.47C89.57 63.2579 89.0842 64.832 88.1125 66.1924C87.1408 67.5527 85.8096 68.5924 84.1189 69.3212C82.4184 70.05 80.5236 70.4095 78.4054 70.4095C74.8393 70.4095 71.9631 69.5447 69.7573 67.8151C67.5613 66.0855 66.4245 63.6952 66.3564 60.6441H71.759C71.8659 62.1307 72.5072 63.355 73.7024 64.2976Z" fill="#3C3C3B"/>
<path d="M103.048 57.3523C101.318 57.3523 99.9869 57.7119 99.0541 58.4406C98.1213 59.1694 97.6549 60.2383 97.6549 61.6472C97.6549 62.8715 98.0921 63.8626 98.9764 64.6011C99.8606 65.3493 101.066 65.7186 102.581 65.7186C104.904 65.7186 106.711 65.0481 108.003 63.7072C109.305 62.3662 109.966 60.5783 110.005 58.3435V57.3426H103.048V57.3523ZM118.974 70.0814H115.456C113.727 70.0814 112.483 69.6928 111.715 68.9057C110.957 68.1283 110.569 66.9915 110.569 65.5048C108.557 68.7794 105.632 70.4215 101.794 70.4215C98.8209 70.4215 96.4306 69.6733 94.633 68.1866C92.8353 66.6999 91.9316 64.6497 91.9316 62.0456C91.9316 59.1014 92.9033 56.8471 94.837 55.2632C96.7706 53.6794 99.5982 52.8923 103.3 52.8923H109.995V51.1627C109.995 49.5594 109.48 48.306 108.441 47.3926C107.401 46.4792 105.963 46.0225 104.136 46.0225C102.513 46.0225 101.172 46.4014 100.113 47.1691C99.0541 47.927 98.4225 48.9473 98.2184 50.2104H92.7187C93.0005 47.344 94.1762 45.1188 96.2459 43.535C98.3253 41.9511 101.036 41.1641 104.398 41.1641C107.964 41.1641 110.714 42.058 112.658 43.8459C114.601 45.6338 115.563 48.1991 115.563 51.5514V62.8327C115.563 64.1736 116.156 64.844 117.332 64.844H118.983V70.0912L118.974 70.0814Z" fill="#3C3C3B"/>
<path d="M136.172 47.1299H133.675C131.353 47.1299 129.682 47.9364 128.642 49.5591C127.602 51.1818 127.087 53.2321 127.087 55.7293V70.0811H121.48V41.4941H126.465L127.087 45.7889C127.845 44.448 128.836 43.3986 130.051 42.631C131.265 41.8731 132.888 41.4844 134.929 41.4844H136.172V47.1202V47.1299Z" fill="#3C3C3B"/>
<path d="M158.064 55.8927C158.064 53.0262 157.355 50.7136 155.936 48.9451C154.518 47.1767 152.652 46.2924 150.33 46.2924C148.007 46.2924 146.142 47.1767 144.723 48.9451C143.304 50.7136 142.595 52.9971 142.595 55.7858C142.595 58.5745 143.304 60.9163 144.723 62.6847C146.142 64.4532 148.007 65.3375 150.33 65.3375C152.652 65.3375 154.518 64.4629 155.936 62.7139C157.355 60.9649 158.064 58.6911 158.064 55.9024M163.622 70.0793H158.744L158.074 65.7844C155.965 68.8744 153.07 70.4194 149.407 70.4194C146.987 70.4194 144.82 69.8364 142.916 68.6606C141.011 67.4849 139.525 65.7941 138.446 63.5787C137.377 61.3633 136.833 58.7689 136.833 55.7955C136.833 52.8221 137.377 50.3346 138.465 48.1192C139.554 45.9037 141.05 44.1936 142.955 42.979C144.859 41.7741 147.007 41.1619 149.397 41.1619C151.331 41.1619 153.031 41.5409 154.489 42.3085C155.946 43.0761 157.122 44.1256 158.016 45.4665V31.0078H163.622V70.089V70.0793Z" fill="#3C3C3B"/>
</g>
<path d="M169.132 30.9453L171.454 38.6508L173.834 30.9453H175.972L172.698 41.3618H170.22L166.936 30.9453H169.132Z" fill="#3C3C3B"/>
<mask id="mask1_9150_34818" style="mask-type:luminance" maskUnits="userSpaceOnUse" x="0" y="0" width="189" height="93">
<path d="M188.39 0H0V93H188.39V0Z" fill="white"/>
</mask>
<g mask="url(#mask1_9150_34818)">
<path d="M182.201 38.5887C182.687 37.9765 182.93 37.17 182.93 36.1595C182.93 35.1489 182.687 34.3424 182.201 33.7302C181.716 33.1181 181.035 32.8169 180.161 32.8169H178.878V39.5118H180.161C181.035 39.5118 181.716 39.2105 182.201 38.5984M180.161 30.9609C181.133 30.9609 181.988 31.1844 182.726 31.6217C183.465 32.0589 184.038 32.6808 184.436 33.4679C184.835 34.255 185.039 35.1586 185.039 36.1692C185.039 37.1797 184.835 38.0834 184.436 38.8705C184.038 39.6575 183.465 40.2697 182.726 40.7167C181.988 41.1539 181.133 41.3774 180.161 41.3774H176.799V30.9707H180.161V30.9609Z" fill="#3C3C3B"/>
</g>
<path d="M188.39 30.9453H186.32V41.3521H188.39V30.9453Z" fill="#3C3C3B"/>
<mask id="mask2_9150_34818" style="mask-type:luminance" maskUnits="userSpaceOnUse" x="0" y="0" width="189" height="93">
<path d="M188.39 0H0V93H188.39V0Z" fill="white"/>
</mask>
<g mask="url(#mask2_9150_34818)">
<path d="M26.1182 0C26.3125 0.106885 26.4971 0.223494 26.6817 0.340096C26.4971 0.213777 26.3125 0.0971685 26.1182 0Z" fill="black"/>
<path d="M45.0171 47.5824C44.3855 47.6019 43.958 47.5824 43.7345 47.5824C43.7054 47.5824 43.686 47.5824 43.6762 47.5824C43.5694 47.5824 43.4527 47.563 43.3361 47.5436C43.1223 47.5241 42.9086 47.495 42.6948 47.4659C42.5879 47.4464 42.481 47.4367 42.3742 47.4172C42.3742 47.4172 42.3741 47.4172 42.3644 47.4172C42.2575 47.3978 42.1604 47.3784 42.0535 47.3589C41.9466 47.3395 41.8398 47.3201 41.7329 47.3007C41.6357 47.2812 41.5385 47.2618 41.4413 47.2424C41.3247 47.2132 41.2178 47.1938 41.1012 47.1646C40.8972 47.116 40.6834 47.0577 40.4794 46.9994C40.3725 46.9703 40.2753 46.9411 40.1684 46.912C40.0712 46.8828 39.9643 46.8537 39.8575 46.8148C39.6534 46.7468 39.4397 46.6788 39.2356 46.601C39.051 46.533 38.8567 46.4553 38.672 46.3873C38.468 46.2998 38.2639 46.2124 38.0599 46.1249C37.9627 46.0861 37.8655 46.0375 37.7684 45.9889C37.6712 45.9403 37.574 45.9014 37.4769 45.8528C37.3894 45.8043 37.302 45.7654 37.2145 45.7265C37.1076 45.6682 37.0104 45.6196 36.9036 45.5613C36.8064 45.5127 36.719 45.4642 36.6218 45.4059C36.5441 45.367 36.4663 45.3184 36.3983 45.2796C35.825 44.9492 35.2809 44.5799 34.7464 44.1912C31.8508 42.0244 29.5965 38.9344 28.4888 35.2032C27.3714 31.4428 27.5851 27.6046 28.858 24.1843C28.858 24.1454 28.8677 24.1065 28.8774 24.0579C30.335 20.8319 31.2581 17.2659 31.4038 13.622C31.4038 13.622 31.4038 13.622 31.4038 13.6123C31.4427 13.0196 31.4524 12.4269 31.4232 11.8244C31.4232 11.737 31.4232 11.6495 31.4135 11.5621C31.4135 11.4941 31.4136 11.4358 31.4038 11.3677C31.4038 11.3483 31.4038 11.3386 31.4038 11.3289C31.1804 8.32635 29.7326 5.68337 27.5851 3.88575C27.5851 3.88575 27.5851 3.88575 27.5754 3.87604C27.4102 3.73028 27.2353 3.59425 27.0507 3.46793C27.0312 3.4485 27.0021 3.42906 26.9826 3.41934C25.8458 2.63228 24.4563 2.20474 22.9696 2.28247C22.9113 2.28247 22.853 2.28247 22.7947 2.29219C21.7258 2.37964 20.8707 2.70029 20.0157 3.23472C20.2489 3.19585 20.3461 3.19586 20.589 3.17642C23.3874 3.03067 25.8652 4.68253 26.8855 7.12146C27.3713 8.24862 27.6726 9.49237 27.7406 10.7944C27.7697 11.3483 27.7503 11.9022 27.7017 12.4366C27.6726 12.2325 27.6434 12.0382 27.6143 11.8341C27.0312 8.86079 25.2822 6.40242 22.921 4.84772C22.8821 4.81857 22.853 4.79915 22.8141 4.77971C22.8141 4.77971 22.8044 4.76999 22.7947 4.76999C22.7267 4.73112 22.6684 4.69226 22.6004 4.64368C22.5226 4.59509 22.4546 4.55621 22.3769 4.50763C22.3186 4.46876 22.2505 4.43962 22.1922 4.40076C20.9873 3.77888 19.5687 3.52623 18.1209 3.76915C18.0626 3.76915 18.0043 3.78858 17.946 3.7983C16.8771 4.00235 15.9249 4.45904 15.1281 5.10036C15.3516 5.03234 15.5945 4.98376 15.8277 4.9449C18.6067 4.47849 21.2692 5.84856 22.5907 8.16117C23.2223 9.24946 23.6692 10.4738 23.883 11.7856C24.0481 12.7572 24.0773 13.7095 23.9802 14.6423C23.9802 14.6423 23.9899 14.6423 23.9899 14.6229C23.7955 17.7614 23.0668 20.7931 21.9007 23.6207C21.8424 23.7567 21.7841 23.8927 21.7258 24.0191C20.5695 24.1745 19.4229 24.4077 18.2666 24.709C17.9946 25.7487 17.6351 26.7689 17.1881 27.7406C16.9257 28.3042 16.6342 28.8484 16.3135 29.3731C16.1289 29.684 15.9346 29.9852 15.7306 30.2767C15.614 30.4516 15.4974 30.6168 15.371 30.782C15.2933 30.8889 15.2155 30.9958 15.1378 31.0929C15.0795 31.1707 15.0212 31.2484 14.9629 31.3164C15.1475 31.88 15.3613 32.4436 15.5751 32.9877C15.6431 33.1529 15.7111 33.3181 15.7791 33.4833C16.1289 34.3092 16.5176 35.1157 16.9452 35.8834C17.3436 36.6218 17.7711 37.3312 18.2375 38.0211C21.512 42.9475 26.2345 46.6593 31.6273 48.7388C31.8217 47.5533 32.3366 46.4359 33.114 45.5225C32.3366 46.4359 31.8217 47.5436 31.6273 48.7388C35.242 50.138 39.1676 50.7987 43.1612 50.5946C43.2195 50.5946 43.2973 50.5947 43.375 50.5849C43.6665 50.5655 44.094 50.5364 44.4924 50.4975C44.5216 50.4975 44.541 50.4975 44.5702 50.4975C44.6868 50.4975 44.8034 50.4781 44.9102 50.4684C45.4058 49.5841 45.6973 48.5833 45.7362 47.5436C45.4739 47.5727 45.1143 47.5824 44.9491 47.5921" fill="#3C3C3B"/>
<path d="M11.3871 27.5664C11.4454 24.6028 12.2714 21.7363 13.7289 19.2294C14.7783 17.4026 16.1678 15.7702 17.8197 14.4195C17.6642 13.992 17.4991 13.5839 17.3144 13.1758C16.1193 14.3418 15.031 15.6147 14.069 16.9653C11.5232 20.5217 9.82271 24.6514 9.13281 29.024C9.85186 28.509 10.6098 28.0134 11.3871 27.5664Z" fill="#3C3C3B"/>
<path d="M21.6586 67.1446C21.6392 66.9502 21.6197 66.7656 21.6003 66.5713C21.5809 66.3866 21.5614 66.1923 21.5323 65.998C21.4837 65.6384 21.4351 65.2692 21.3671 64.9097C21.3671 64.8708 21.3574 64.8319 21.3477 64.7931C21.3185 64.6279 21.2894 64.453 21.2602 64.2781C21.2214 64.0838 21.1825 63.8991 21.1436 63.7048C21.1048 63.5105 21.0562 63.3258 21.0173 63.1315C20.9785 62.9469 20.9299 62.7623 20.8813 62.5776C20.8813 62.5776 20.8813 62.5679 20.8813 62.5582C20.8424 62.4125 20.8035 62.257 20.7647 62.1112C20.755 62.0724 20.7452 62.0335 20.7258 61.9849C20.6869 61.8294 20.6384 61.6642 20.5898 61.5088C19.4821 57.7581 17.665 54.4155 15.3232 51.5782C15.2843 51.5296 15.2455 51.481 15.1969 51.4324C15.2358 51.481 15.2843 51.5296 15.3232 51.5782L15.3524 51.549C12.9523 48.6728 11.0867 45.2816 9.95954 41.4629C9.43483 39.6847 9.08502 37.8968 8.91983 36.1187C8.68663 33.7186 8.76433 31.3282 9.13357 29.0156C8.37566 29.5598 7.64689 30.1428 6.94728 30.7549C4.87759 32.7663 3.20628 35.1567 2.02083 37.7899C1.38923 39.1795 0.903391 40.6467 0.563301 42.1528C-0.107162 45.1262 -0.194587 48.2744 0.407858 51.4518C2.41925 62.0529 11.4365 69.5446 21.7655 70.0596C21.7849 69.0879 21.7558 68.1162 21.6683 67.1348" fill="#3C3C3B"/>
<path d="M40.6836 53.6656C42.2772 53.3158 43.6181 52.4024 44.5218 51.1781C44.6869 50.9546 44.8424 50.7214 44.9784 50.4688C44.4731 50.5173 43.6472 50.5853 43.2294 50.6048C42.7241 51.8485 41.8496 52.9271 40.6836 53.6656Z" fill="#F3E7CE"/>
<path d="M42.8608 44.9406C42.064 44.4936 41.2866 44.0078 40.5287 43.4831C35.4274 39.9461 31.4532 34.7088 29.5487 28.2956C29.228 27.2074 28.9754 26.1093 28.7811 25.0113C28.82 24.7295 28.8588 24.438 28.9074 24.1562C28.8394 24.3214 28.7811 24.4963 28.7228 24.6712C27.6151 27.9555 27.4693 31.5994 28.5382 35.1752C28.5673 35.2723 28.5964 35.3695 28.6256 35.457C28.645 35.525 28.6645 35.593 28.6936 35.661C28.713 35.7096 28.7227 35.7582 28.7422 35.797C28.7616 35.8456 28.7714 35.8942 28.7908 35.9331C28.82 36.0205 28.8491 36.108 28.888 36.1954C28.9268 36.2926 28.956 36.3898 28.9948 36.4869C29.0143 36.5452 29.0434 36.6133 29.0726 36.6716C29.1017 36.7396 29.1212 36.7979 29.1503 36.8659C29.1892 36.9631 29.2378 37.0699 29.2767 37.1671C29.2864 37.1963 29.3058 37.2254 29.3155 37.2546C29.403 37.4489 29.4904 37.6432 29.5876 37.8376C29.6265 37.925 29.6653 38.0028 29.7139 38.0902C29.7527 38.168 29.7917 38.236 29.8305 38.3137C29.8694 38.3914 29.9179 38.4692 29.9568 38.5469C29.9957 38.6247 30.0442 38.7024 30.0831 38.7801C30.1317 38.8676 30.19 38.9647 30.2386 39.0522C30.2386 39.0619 30.2483 39.0813 30.2581 39.0911C30.3164 39.1882 30.3747 39.2757 30.433 39.3728C30.4913 39.47 30.5496 39.5575 30.6079 39.6546C30.6079 39.6546 30.6079 39.6643 30.6176 39.6741C30.6759 39.7712 30.7439 39.8684 30.8119 39.9656C30.8799 40.0627 30.9382 40.1599 31.0062 40.2474C31.0742 40.3445 31.1423 40.432 31.2103 40.5292C31.2783 40.6166 31.3463 40.7138 31.4143 40.8012C31.4726 40.879 31.5406 40.9567 31.5989 41.0344C31.6572 41.1122 31.7156 41.1802 31.7739 41.2579C31.8322 41.3259 31.8808 41.3939 31.9391 41.4522C32.0654 41.598 32.1917 41.7438 32.3277 41.8895C32.454 42.0255 32.5804 42.1616 32.7067 42.2976C32.7358 42.3365 32.7747 42.3656 32.8039 42.3948C32.8427 42.4337 32.8719 42.4628 32.901 42.492C32.9593 42.5503 33.0176 42.6183 33.0856 42.6766C33.1537 42.7446 33.2314 42.8126 33.2994 42.8806C33.4063 42.9875 33.5229 43.0847 33.6298 43.1916C33.6492 43.211 33.6686 43.2207 33.6784 43.2401C33.7755 43.3276 33.8727 43.4053 33.9698 43.4928C34.0087 43.5317 34.0476 43.5608 34.0962 43.5997C34.1933 43.6774 34.2808 43.7551 34.378 43.8329C34.3974 43.8426 34.4169 43.862 34.4363 43.8717C34.4849 43.9106 34.5432 43.9592 34.5917 43.9981C34.6598 44.0467 34.7278 44.1049 34.7958 44.1535C35.3205 44.5519 35.8744 44.9115 36.4477 45.2418C36.5254 45.2904 36.5934 45.3293 36.6712 45.3682C36.7586 45.4265 36.8558 45.475 36.9529 45.5236C37.0598 45.5819 37.157 45.6305 37.2639 45.6888C37.3513 45.7374 37.4388 45.7763 37.5262 45.8151C37.6234 45.8637 37.7206 45.9123 37.8177 45.9511C37.9149 45.9997 38.0121 46.0386 38.1092 46.0872C38.3133 46.1746 38.5174 46.2621 38.7214 46.3495C38.906 46.4273 39.0907 46.4953 39.285 46.5633C39.4891 46.641 39.6931 46.7091 39.9069 46.7771C40.0041 46.8062 40.111 46.8451 40.2178 46.8743C40.315 46.9034 40.4218 46.9326 40.5287 46.9617C40.7328 47.02 40.9466 47.0783 41.1506 47.1269C41.2575 47.1561 41.3741 47.1755 41.4907 47.2046C41.5879 47.2241 41.6851 47.2435 41.7822 47.2629C41.8891 47.2824 41.996 47.3115 42.1028 47.3212C42.2097 47.3407 42.3069 47.3601 42.4138 47.3795C42.4138 47.3795 42.4138 47.3795 42.4235 47.3795C42.5304 47.399 42.6373 47.4184 42.7442 47.4281C42.8511 47.4476 42.9676 47.4573 43.0745 47.4767C43.1814 47.4961 43.2883 47.5059 43.3855 47.5156C43.5021 47.5253 43.609 47.5447 43.7256 47.5544C43.7353 47.5544 43.7645 47.5544 43.7839 47.5544C44.1143 47.5544 45.2123 47.5836 45.8341 47.535C45.8439 47.1463 45.8342 46.6994 45.7758 46.3107C44.7847 45.9026 43.8228 45.4265 42.89 44.9115" fill="#D6D1C4"/>
<path d="M33.0463 49.2278C32.5896 49.0821 32.1426 48.9169 31.6956 48.742C31.6859 48.742 31.6762 48.742 31.6665 48.7323C31.511 48.674 31.3555 48.6157 31.2001 48.5477C31.2001 48.5477 31.1903 48.5477 31.1806 48.5477C31.0446 48.4894 30.9086 48.4408 30.7725 48.3825C30.7725 48.3825 30.7725 48.3825 30.7628 48.3825C30.5976 48.3144 30.4228 48.2367 30.2576 48.159C30.0729 48.0715 29.8883 47.9938 29.7037 47.9063C29.694 47.9063 29.6842 47.8966 29.6745 47.8869C29.5288 47.8189 29.383 47.7509 29.247 47.6731C29.2178 47.6634 29.1887 47.644 29.1692 47.6343C29.0429 47.576 28.9166 47.5079 28.8 47.4399C28.6251 47.3428 28.4405 47.2553 28.2656 47.1582C28.1295 47.0901 28.0032 47.0124 27.8769 46.9347C27.8089 46.8958 27.7506 46.8569 27.6826 46.8181C27.4105 46.6626 27.1384 46.4974 26.8663 46.3322C26.8566 46.3322 26.8372 46.3128 26.8275 46.3031C26.6915 46.2156 26.5457 46.1282 26.4097 46.0407C26.3028 45.9727 26.1959 45.9047 26.089 45.827C26.0015 45.7687 25.9141 45.7103 25.8266 45.6423C25.8072 45.6229 25.7781 45.6132 25.7587 45.5937C25.6712 45.5354 25.5837 45.4771 25.4963 45.4091C25.4769 45.3897 25.4574 45.38 25.4283 45.3605C25.3019 45.2731 25.1853 45.1856 25.0687 45.0982C24.923 44.9913 24.7772 44.8844 24.6412 44.7775C24.5246 44.6901 24.408 44.5929 24.2914 44.5054C24.1262 44.3791 23.9708 44.2528 23.8056 44.1168C23.7473 44.0682 23.689 44.0196 23.6209 43.9613C23.5626 43.9127 23.5043 43.8641 23.446 43.8156C23.3683 43.7573 23.3003 43.6892 23.2225 43.6212C23.2225 43.6212 23.2128 43.6212 23.2031 43.6018C23.0768 43.4949 22.9602 43.388 22.8339 43.2714C22.7853 43.2325 22.7367 43.184 22.6881 43.1451C22.6395 43.1062 22.5909 43.0576 22.5521 43.0188C22.4938 42.9702 22.4355 42.9119 22.3869 42.8633C22.3674 42.8439 22.3577 42.8342 22.3383 42.8147C22.3383 42.8147 22.3383 42.8147 22.3286 42.805C22.2897 42.7661 22.2509 42.7273 22.212 42.6884C22.1731 42.6495 22.1343 42.6107 22.0954 42.5718C21.9011 42.3872 21.7164 42.1928 21.5318 42.0082C21.5318 42.0082 21.5221 41.9985 21.5124 41.9888C21.5124 41.9888 21.5027 41.9791 21.4929 41.9693C21.4346 41.9013 21.3666 41.843 21.3083 41.775C21.2889 41.7556 21.2695 41.7361 21.25 41.7167C21.25 41.7167 21.25 41.707 21.2306 41.6973C21.1626 41.6293 21.0946 41.5515 21.0266 41.4738C20.9294 41.3766 20.8419 41.2697 20.7447 41.1726C20.7156 41.1337 20.6767 41.1046 20.6476 41.0657C20.6184 41.0268 20.5893 40.9879 20.5504 40.9588C20.5504 40.9588 20.5504 40.9588 20.5407 40.9394C20.5213 40.9199 20.5018 40.8908 20.4727 40.8713C20.4047 40.7936 20.3269 40.7062 20.2589 40.6187C20.2395 40.5993 20.22 40.5798 20.2006 40.5507C20.1229 40.4535 20.0451 40.3661 19.9674 40.2689C19.8605 40.1329 19.7536 40.0066 19.6467 39.8705C19.433 39.6082 19.2289 39.3361 19.0346 39.064C18.986 39.0057 18.9472 38.9377 18.8986 38.8794C18.8111 38.7531 18.7236 38.6365 18.6362 38.5101C18.6265 38.4907 18.6168 38.481 18.5973 38.4616C18.5002 38.3255 18.4127 38.1895 18.3155 38.0535C18.2572 37.9757 18.2087 37.8883 18.1601 37.8105C18.1504 37.7911 18.1406 37.7717 18.1212 37.7619C18.0726 37.6842 18.024 37.6065 17.9755 37.5385C17.9463 37.4996 17.9269 37.4607 17.8977 37.4219C17.8103 37.2858 17.7325 37.1595 17.6451 37.0235C17.5868 36.936 17.5285 36.8389 17.4799 36.7417C17.441 36.6737 17.3924 36.5959 17.3536 36.5279C17.2953 36.421 17.2272 36.3141 17.1689 36.1975C17.1204 36.1101 17.0718 36.0129 17.0135 35.9255C16.9066 35.7311 16.7997 35.5368 16.7025 35.3425C16.6248 35.1773 16.5374 35.0218 16.4596 34.8566C16.4305 34.7886 16.3916 34.7206 16.3624 34.6526C16.3138 34.5554 16.2653 34.4582 16.2264 34.361C16.0127 33.9044 15.8086 33.4282 15.6143 32.9521C15.5851 32.8841 15.5657 32.8258 15.5365 32.7578C15.4976 32.6703 15.4685 32.5926 15.4394 32.5051C15.3616 32.3108 15.2936 32.1262 15.2256 31.9318C15.1867 31.8347 15.1576 31.7375 15.1284 31.6403C15.1284 31.6209 15.1187 31.6015 15.109 31.582C15.0798 31.5043 15.0507 31.4266 15.0312 31.3488C13.4377 33.3311 11.4068 34.9732 9.01648 36.1198C11.4068 34.9732 13.4474 33.3311 15.0312 31.3488C16.5956 29.4055 17.7228 27.1512 18.3447 24.7317C19.1026 21.7875 19.0929 18.61 18.1601 15.4812C18.0532 15.1314 17.9463 14.7913 17.82 14.4609C16.1584 15.8116 14.7786 17.444 13.7292 19.2708C12.2814 21.7777 11.4554 24.6442 11.3874 27.6078C10.6101 28.0645 9.85213 28.5504 9.13308 29.0654C8.76384 31.3877 8.68613 33.7683 8.91934 36.1684C9.08453 37.9466 9.43434 39.7345 9.95905 41.5127C11.0862 45.3314 12.9518 48.7226 15.3519 51.5988L15.3227 51.6279C17.4799 54.2417 19.19 57.2928 20.3172 60.6937C21.0362 59.6735 21.8622 58.7406 22.795 57.8855C24.68 56.1754 26.9635 54.8442 29.5677 54.0765C30.6171 53.7656 31.6762 53.5616 32.7256 53.445C34.3678 53.2701 36.0099 53.3381 37.5841 53.6296C37.8464 53.6782 38.1088 53.7267 38.3614 53.7948C39.0319 53.8919 39.7217 53.8822 40.4116 53.7559C40.4991 53.7364 40.5866 53.717 40.674 53.6976C41.8303 52.9591 42.7145 51.8805 43.2198 50.6368C39.7217 50.8117 36.2723 50.3259 33.0366 49.257" fill="#D6D1C4"/>
<path d="M19.248 33.8747C19.9574 34.8075 21.1136 35.3711 22.3671 35.2642C23.9024 35.1282 25.1267 34.0301 25.4862 32.6212C24.7769 31.6884 23.6206 31.1248 22.3671 31.2317C20.8319 31.3677 19.6076 32.4657 19.248 33.8747Z" fill="#D6D1C4"/>
<path d="M63.9946 79.5445C63.9946 77.9121 62.848 76.7752 61.3905 76.7752C59.933 76.7752 58.7572 77.951 58.7572 79.5445C58.7572 81.1381 59.865 82.3041 61.3905 82.3041C62.916 82.3041 63.9946 81.1673 63.9946 79.5445ZM57.8633 79.5445C57.8633 77.4554 59.35 75.9688 61.3905 75.9688C63.431 75.9688 64.8885 77.3971 64.8885 79.5445C64.8885 81.692 63.3533 83.1106 61.3905 83.1106C59.4277 83.1106 57.8633 81.624 57.8633 79.5445Z" fill="#3C3C3B"/>
<path d="M70.2138 78.1923C70.2138 77.2886 69.6308 76.8222 68.6883 76.8222H67.1822V79.6012H68.5425C69.7085 79.6012 70.2041 79.0085 70.2041 78.1923M68.7659 76.0352C70.4081 76.0352 71.0883 76.968 71.0883 78.2117C71.0883 79.6984 70.0778 80.3786 68.6202 80.3786H67.1724V83.0604H66.3076V76.0449H68.7563L68.7659 76.0352Z" fill="#3C3C3B"/>
</g>
<path d="M76.6855 76.0352V76.8222H73.2457V79.1737H76.0636V79.951H73.2457V82.2734H76.8993V83.0604H72.3906V76.0352H76.6855Z" fill="#3C3C3B"/>
<path d="M79.0954 76.0352L83.0599 81.6223H83.0696V76.0352H83.9344V83.0604H83.0501L79.1245 77.5315H79.1051V83.0604H78.25V76.0352H79.0954Z" fill="#3C3C3B"/>
<mask id="mask3_9150_34818" style="mask-type:luminance" maskUnits="userSpaceOnUse" x="0" y="0" width="189" height="93">
<path d="M188.39 0H0V93H188.39V0Z" fill="white"/>
</mask>
<g mask="url(#mask3_9150_34818)">
<path d="M87.9082 82.0301L88.4621 81.3694C88.9673 82.001 89.7155 82.3217 90.3957 82.3217C91.2605 82.3217 91.8435 81.9233 91.8435 81.2431C91.8435 80.4657 91.2119 80.252 90.2694 79.9021C89.2297 79.5135 88.1706 79.0762 88.1706 77.8325C88.1706 76.7831 89.1131 75.9766 90.318 75.9766C91.0954 75.9766 91.8727 76.2583 92.5334 76.7928L92.0087 77.4729C91.4452 77.0065 90.8427 76.7636 90.318 76.7636C89.6573 76.7636 89.0742 77.1231 89.0645 77.7936C89.0548 78.4641 89.6864 78.7167 90.5706 79.0471C91.7464 79.5135 92.7472 79.8244 92.7472 81.1459C92.7472 82.4674 91.62 83.1184 90.3957 83.1184C89.5212 83.1184 88.6175 82.7783 87.9179 82.0301" fill="#3C3C3B"/>
<path d="M99.9184 79.5445C99.9184 77.9121 98.7719 76.7752 97.3143 76.7752C95.8568 76.7752 94.6811 77.951 94.6811 79.5445C94.6811 81.1381 95.7888 82.3041 97.3143 82.3041C98.8399 82.3041 99.9184 81.1673 99.9184 79.5445ZM93.7871 79.5445C93.7871 77.4554 95.2738 75.9688 97.3143 75.9688C99.3549 75.9688 100.812 77.3971 100.812 79.5445C100.812 81.692 99.2771 83.1106 97.3143 83.1106C95.3515 83.1106 93.7871 81.624 93.7871 79.5445Z" fill="#3C3C3B"/>
<path d="M102.142 80.2057V76.0469H102.998V80.1474C102.998 81.4397 103.717 82.3143 104.853 82.3143C105.99 82.3143 106.719 81.5077 106.719 80.1474V76.0469H107.574V80.2057C107.574 82.0033 106.515 83.1207 104.844 83.1207C103.172 83.1207 102.123 82.0519 102.123 80.2057" fill="#3C3C3B"/>
<path d="M113.152 78.1962C113.152 77.2925 112.569 76.8261 111.597 76.8261H110.082V79.6051H111.471C112.637 79.6051 113.142 79.0124 113.142 78.1962M111.714 76.0391C113.337 76.0391 114.036 76.9719 114.036 78.2156C114.036 79.3914 113.395 80.0715 112.287 80.3047L114.231 83.0643H113.201L111.345 80.3825H110.091V83.0643H109.227V76.0488H111.714V76.0391Z" fill="#3C3C3B"/>
<path d="M115.027 79.564C115.027 77.572 116.271 75.9688 118.516 75.9688C119.526 75.9688 120.508 76.406 121.256 77.3097L120.615 77.8441C120.032 77.125 119.312 76.785 118.516 76.785C116.922 76.785 115.921 77.951 115.921 79.564C115.921 81.177 117.039 82.2944 118.525 82.2944C119.439 82.2944 120.129 81.8572 120.624 81.2353L121.266 81.7794C120.653 82.5374 119.759 83.1009 118.525 83.1009C116.631 83.1009 115.027 81.8572 115.027 79.564Z" fill="#3C3C3B"/>
</g>
<path d="M126.795 76.0352V76.8222H123.345V79.1737H126.163V79.951H123.345V82.2734H126.999V83.0604H122.49V76.0352H126.795Z" fill="#3C3C3B"/>
<path d="M62.7515 85.9258L60.6429 91.6976H60.6332L58.5247 85.9258H57.6016L60.2543 92.9413H61.0219L63.6746 85.9258H62.7515Z" fill="#3C3C3B"/>
<path d="M65.7056 85.9258H64.8408V92.9413H65.7056V85.9258Z" fill="#3C3C3B"/>
<mask id="mask4_9150_34818" style="mask-type:luminance" maskUnits="userSpaceOnUse" x="0" y="0" width="189" height="93">
<path d="M188.39 0H0V93H188.39V0Z" fill="white"/>
</mask>
<g mask="url(#mask4_9150_34818)">
<path d="M71.4187 88.0751C71.4187 87.1714 70.8357 86.705 69.864 86.705H68.3482V89.4841H69.7377C70.9037 89.4841 71.409 88.8913 71.409 88.0751M69.9806 85.918C71.6033 85.918 72.3029 86.8508 72.3029 88.0946C72.3029 89.2703 71.6616 89.9505 70.5539 90.1837L72.4875 92.9433H71.4576L69.6017 90.2614H68.3482V92.9433H67.4834V85.9277H69.9709L69.9806 85.918Z" fill="#3C3C3B"/>
</g>
<path d="M73.042 85.9258V86.7031H75.1311V92.9413H75.9959V86.7031H78.1239V85.9258H73.042Z" fill="#3C3C3B"/>
<mask id="mask5_9150_34818" style="mask-type:luminance" maskUnits="userSpaceOnUse" x="0" y="0" width="189" height="93">
<path d="M188.39 0H0V93H188.39V0Z" fill="white"/>
</mask>
<g mask="url(#mask5_9150_34818)">
<path d="M79.1728 90.0846V85.9258H80.0279V90.0263C80.0279 91.3186 80.7469 92.1932 81.8838 92.1932C83.0206 92.1932 83.7494 91.3867 83.7494 90.0263V85.9258H84.6045V90.0846C84.6045 91.8822 83.5454 92.9996 81.8741 92.9996C80.2028 92.9996 79.1533 91.9308 79.1533 90.0846" fill="#3C3C3B"/>
</g>
<path d="M88.4044 86.9538H88.4239L89.7162 90.4713H87.1218L88.3947 86.9538H88.4044ZM87.9866 85.9141L85.3242 92.9296H86.2279L86.8498 91.2195H89.9883L90.6199 92.9296H91.5236L88.8514 85.9141H87.9866Z" fill="#3C3C3B"/>
<path d="M92.6309 85.9258V92.9413H96.9646V92.164H93.4859V85.9258H92.6309Z" fill="#3C3C3B"/>
<mask id="mask6_9150_34818" style="mask-type:luminance" maskUnits="userSpaceOnUse" x="0" y="0" width="189" height="93">
<path d="M188.39 0H0V93H188.39V0Z" fill="white"/>
</mask>
<g mask="url(#mask6_9150_34818)">
<path d="M105.68 89.4433C105.68 87.84 104.572 86.7031 102.93 86.7031H101.686V92.164H102.901C104.611 92.164 105.68 91.0271 105.68 89.4433ZM102.92 85.9258C105.145 85.9258 106.564 87.3736 106.564 89.4433C106.564 91.513 105.194 92.9413 102.949 92.9413H100.821V85.9258H102.92Z" fill="#3C3C3B"/>
</g>
<path d="M108.003 85.9258V92.9413H112.512V92.164H108.858V89.8319H111.676V89.0546H108.858V86.7031H112.298V85.9258H108.003Z" fill="#3C3C3B"/>
<mask id="mask7_9150_34818" style="mask-type:luminance" maskUnits="userSpaceOnUse" x="0" y="0" width="189" height="93">
<path d="M188.39 0H0V93H188.39V0Z" fill="white"/>
</mask>
<g mask="url(#mask7_9150_34818)">
<path d="M113.406 91.913L113.96 91.2522C114.465 91.8838 115.214 92.2045 115.894 92.2045C116.759 92.2045 117.342 91.8061 117.342 91.1259C117.342 90.3486 116.71 90.1348 115.767 89.785C114.728 89.3963 113.669 88.9591 113.669 87.7153C113.669 86.6659 114.611 85.8594 115.816 85.8594C116.593 85.8594 117.371 86.1412 118.031 86.6756L117.507 87.3558C116.943 86.8894 116.341 86.6464 115.816 86.6464C115.155 86.6464 114.572 87.006 114.563 87.6764C114.563 88.3469 115.184 88.5995 116.069 88.9299C117.244 89.3963 118.245 89.7073 118.245 91.0287C118.245 92.3502 117.118 93.0013 115.894 93.0013C115.01 93.0013 114.116 92.6612 113.416 91.913" fill="#3C3C3B"/>
</g>
<path d="M123.656 85.9258L120.469 89.7639H120.45V85.9258H119.595V92.9413H120.45V90.9883L121.47 89.7931L123.754 92.9413H124.832L122.043 89.1226L124.764 85.9258H123.656Z" fill="#3C3C3B"/>
<path d="M125.405 85.9258V86.7031H127.504V92.9413H128.359V86.7031H130.487V85.9258H125.405Z" fill="#3C3C3B"/>
<mask id="mask8_9150_34818" style="mask-type:luminance" maskUnits="userSpaceOnUse" x="0" y="0" width="189" height="93">
<path d="M188.39 0H0V93H188.39V0Z" fill="white"/>
</mask>
<g mask="url(#mask8_9150_34818)">
<path d="M136.988 89.4352C136.988 87.8027 135.841 86.6659 134.384 86.6659C132.926 86.6659 131.75 87.8416 131.75 89.4352C131.75 91.0287 132.858 92.1948 134.384 92.1948C135.909 92.1948 136.988 91.0579 136.988 89.4352ZM130.856 89.4352C130.856 87.346 132.343 85.8594 134.384 85.8594C136.424 85.8594 137.882 87.2877 137.882 89.4352C137.882 91.5826 136.346 93.0013 134.384 93.0013C132.421 93.0013 130.856 91.5146 130.856 89.4352Z" fill="#3C3C3B"/>
<path d="M143.207 88.0751C143.207 87.1714 142.624 86.705 141.681 86.705H140.175V89.4841H141.536C142.702 89.4841 143.197 88.8913 143.197 88.0751M141.759 85.918C143.401 85.918 144.081 86.8508 144.081 88.0946C144.081 89.5812 143.071 90.2614 141.613 90.2614H140.166V92.9433H139.301V85.9277H141.749L141.759 85.918Z" fill="#3C3C3B"/>
<path d="M144.927 91.913L145.481 91.2522C145.986 91.8838 146.734 92.2045 147.414 92.2045C148.279 92.2045 148.862 91.8061 148.862 91.1259C148.862 90.3486 148.23 90.1348 147.288 89.785C146.248 89.3963 145.189 88.9591 145.189 87.7153C145.189 86.6659 146.132 85.8594 147.337 85.8594C148.114 85.8594 148.891 86.1412 149.552 86.6756L149.027 87.3558C148.464 86.8894 147.861 86.6464 147.337 86.6464C146.676 86.6464 146.093 87.006 146.083 87.6764C146.073 88.3469 146.705 88.5995 147.589 88.9299C148.765 89.3963 149.766 89.7073 149.766 91.0287C149.766 92.3502 148.639 93.0013 147.414 93.0013C146.54 93.0013 145.636 92.6612 144.936 91.913" fill="#3C3C3B"/>
</g>
</svg>
