<svg width="36" height="37" viewBox="0 0 36 37" fill="none" xmlns="http://www.w3.org/2000/svg">
<path d="M19.792 0C19.8947 0.0564964 19.9923 0.118132 20.0899 0.179765C19.9923 0.112996 19.8947 0.0513604 19.792 0Z" fill="black"/>
<path d="M29.7729 25.1321C29.4393 25.1424 29.2135 25.1321 29.0955 25.1321C29.0801 25.1321 29.0699 25.1321 29.0647 25.1321C29.0083 25.1321 28.9467 25.1218 28.8851 25.1116C28.7722 25.1013 28.6593 25.0859 28.5464 25.0705C28.49 25.0603 28.4335 25.0551 28.3771 25.0449C28.3771 25.0449 28.3771 25.0449 28.3719 25.0449C28.3155 25.0346 28.2642 25.0243 28.2077 25.0141C28.1513 25.0038 28.0948 24.9935 28.0384 24.9833C27.9871 24.973 27.9357 24.9628 27.8844 24.9525C27.8228 24.9371 27.7664 24.9268 27.7048 24.9114C27.597 24.8858 27.4841 24.855 27.3764 24.8242C27.3199 24.8088 27.2686 24.7934 27.2121 24.778C27.1608 24.7626 27.1044 24.7472 27.0479 24.7267C26.9402 24.6908 26.8273 24.6549 26.7195 24.6138C26.622 24.5779 26.5194 24.5368 26.4219 24.5009C26.3141 24.4547 26.2063 24.4085 26.0986 24.3623C26.0472 24.3418 25.9959 24.3162 25.9446 24.2905C25.8933 24.2648 25.842 24.2443 25.7907 24.2187C25.7445 24.193 25.6983 24.1725 25.6521 24.1519C25.5957 24.1212 25.5443 24.0955 25.4879 24.0647C25.4366 24.039 25.3904 24.0134 25.3391 23.9826C25.298 23.9621 25.2569 23.9364 25.221 23.9159C24.9183 23.7414 24.6309 23.5464 24.3487 23.3411C22.8194 22.1967 21.6288 20.5648 21.0438 18.5943C20.4537 16.6083 20.5666 14.5812 21.2388 12.7749C21.2388 12.7543 21.2439 12.7338 21.2491 12.7081C22.0188 11.0044 22.5064 9.12105 22.5833 7.19665C22.5833 7.19665 22.5833 7.19665 22.5833 7.19152C22.6039 6.87848 22.609 6.56545 22.5936 6.24728C22.5936 6.20109 22.5936 6.1549 22.5884 6.10872C22.5884 6.0728 22.5885 6.04201 22.5833 6.00608C22.5833 5.99582 22.5833 5.99068 22.5833 5.98555C22.4653 4.39984 21.7007 3.00401 20.5666 2.05463C20.5666 2.05463 20.5666 2.05464 20.5614 2.0495C20.4742 1.97253 20.3818 1.90068 20.2843 1.83397C20.274 1.82371 20.2586 1.81344 20.2484 1.80831C19.6479 1.39264 18.9141 1.16684 18.129 1.2079C18.0982 1.2079 18.0674 1.20789 18.0366 1.21303C17.4721 1.25921 17.0205 1.42856 16.5689 1.71081C16.6921 1.69028 16.7434 1.69028 16.8717 1.68002C18.3496 1.60304 19.6582 2.47544 20.1971 3.76351C20.4536 4.35879 20.6127 5.01565 20.6487 5.70331C20.664 5.99581 20.6538 6.28833 20.6281 6.57057C20.6127 6.46281 20.5973 6.36017 20.5819 6.25241C20.274 4.68209 19.3503 3.38376 18.1033 2.56268C18.0828 2.54728 18.0674 2.53702 18.0469 2.52676C18.0469 2.52676 18.0417 2.52162 18.0366 2.52162C18.0007 2.5011 17.9699 2.48057 17.934 2.45492C17.8929 2.42926 17.857 2.40872 17.8159 2.38306C17.7851 2.36254 17.7492 2.34715 17.7184 2.32662C17.0821 1.99819 16.3328 1.86476 15.5682 1.99305C15.5374 1.99305 15.5066 2.00332 15.4758 2.00845C14.9113 2.11622 14.4085 2.35741 13.9877 2.6961C14.1057 2.66018 14.234 2.63453 14.3571 2.614C15.8248 2.36768 17.2309 3.09125 17.9288 4.31261C18.2624 4.88736 18.4984 5.53396 18.6113 6.22675C18.6986 6.73992 18.714 7.24283 18.6627 7.73548C18.6627 7.73548 18.6678 7.73548 18.6678 7.72521C18.5652 9.38277 18.1803 10.9839 17.5645 12.4772C17.5337 12.5491 17.5029 12.6209 17.4721 12.6876C16.8614 12.7697 16.2559 12.8929 15.6452 13.052C15.5015 13.6011 15.3116 14.1399 15.0756 14.6531C14.937 14.9507 14.7831 15.2381 14.6137 15.5152C14.5162 15.6794 14.4136 15.8385 14.3058 15.9925C14.2442 16.0848 14.1827 16.1721 14.1159 16.2593C14.0749 16.3158 14.0338 16.3722 13.9928 16.4235C13.962 16.4646 13.9312 16.5056 13.9004 16.5416C13.9979 16.8392 14.1108 17.1368 14.2237 17.4242C14.2596 17.5115 14.2955 17.5987 14.3315 17.6859C14.5162 18.1221 14.7215 18.5481 14.9473 18.9535C15.1577 19.3435 15.3835 19.7181 15.6298 20.0825C17.3592 22.6843 19.8532 24.6446 22.7013 25.7428C22.804 25.1167 23.076 24.5266 23.4865 24.0442C23.076 24.5266 22.804 25.1116 22.7013 25.7428C24.6104 26.4818 26.6836 26.8307 28.7927 26.7229C28.8235 26.7229 28.8646 26.7229 28.9056 26.7178C29.0596 26.7076 29.2854 26.6922 29.4958 26.6716C29.5112 26.6716 29.5214 26.6716 29.5368 26.6716C29.5984 26.6716 29.66 26.6614 29.7164 26.6562C29.9782 26.1892 30.1321 25.6607 30.1527 25.1116C30.0141 25.127 29.8242 25.1321 29.737 25.1372" fill="#3C3C3B"/>
<path d="M12.0128 14.5571C12.0436 12.992 12.4798 11.4781 13.2496 10.1541C13.8038 9.18934 14.5377 8.32721 15.41 7.61389C15.3279 7.3881 15.2407 7.17256 15.1432 6.95703C14.512 7.57284 13.9372 8.2451 13.4292 8.95841C12.0847 10.8366 11.1866 13.0176 10.8223 15.3269C11.202 15.0549 11.6023 14.7932 12.0128 14.5571Z" fill="#3C3C3B"/>
<path d="M17.4365 35.4612C17.4262 35.3586 17.4159 35.2611 17.4057 35.1584C17.3954 35.0609 17.3851 34.9583 17.3698 34.8556C17.3441 34.6658 17.3184 34.4708 17.2825 34.2809C17.2825 34.2604 17.2774 34.2398 17.2722 34.2193C17.2569 34.1321 17.2415 34.0397 17.2261 33.9473C17.2056 33.8447 17.185 33.7472 17.1645 33.6446C17.144 33.5419 17.1183 33.4444 17.0978 33.3418C17.0773 33.2443 17.0516 33.1468 17.0259 33.0493C17.0259 33.0493 17.0259 33.0442 17.0259 33.039C17.0054 32.962 16.9849 32.8799 16.9644 32.8029C16.9592 32.7824 16.9541 32.7619 16.9438 32.7362C16.9233 32.6541 16.8976 32.5669 16.872 32.4848C16.287 30.5039 15.3273 28.7386 14.0906 27.2401C14.07 27.2145 14.0495 27.1888 14.0239 27.1632C14.0444 27.1888 14.07 27.2145 14.0906 27.2401L14.106 27.2247C12.8384 25.7057 11.8531 23.9148 11.2579 21.898C10.9807 20.9589 10.796 20.0146 10.7088 19.0755C10.5856 17.808 10.6266 16.5456 10.8216 15.3242C10.4214 15.6116 10.0365 15.9195 9.66699 16.2428C8.57393 17.3051 7.69127 18.5675 7.06519 19.9582C6.73163 20.692 6.47504 21.4669 6.29543 22.2623C5.94134 23.8327 5.89517 25.4953 6.21334 27.1734C7.27561 32.7722 12.0379 36.7287 17.4929 37.0007C17.5032 36.4876 17.4878 35.9744 17.4416 35.4561" fill="#3C3C3B"/>
<path d="M27.4844 28.3446C28.326 28.1598 29.0342 27.6775 29.5114 27.0309C29.5987 26.9128 29.6808 26.7897 29.7526 26.6562C29.4857 26.6819 29.0496 26.7178 28.8289 26.7281C28.562 27.385 28.1002 27.9546 27.4844 28.3446Z" fill="#D6D1C4"/>
<path d="M28.6326 23.7346C28.2118 23.4986 27.8012 23.242 27.4009 22.9649C24.7068 21.0969 22.6079 18.3309 21.6021 14.9439C21.4327 14.3692 21.2993 13.7893 21.1967 13.2094C21.2172 13.0606 21.2377 12.9066 21.2634 12.7578C21.2275 12.8451 21.1967 12.9374 21.1659 13.0298C20.5809 14.7643 20.5039 16.6887 21.0684 18.5772C21.0838 18.6285 21.0992 18.6799 21.1146 18.726C21.1248 18.762 21.1351 18.7979 21.1505 18.8338C21.1607 18.8595 21.1659 18.8851 21.1761 18.9057C21.1864 18.9313 21.1916 18.957 21.2018 18.9775C21.2172 19.0237 21.2326 19.0699 21.2531 19.116C21.2736 19.1674 21.289 19.2187 21.3096 19.27C21.3198 19.3008 21.3352 19.3367 21.3506 19.3675C21.366 19.4034 21.3763 19.4342 21.3917 19.4701C21.4122 19.5215 21.4379 19.5779 21.4584 19.6292C21.4635 19.6446 21.4738 19.66 21.4789 19.6754C21.5251 19.778 21.5713 19.8807 21.6226 19.9833C21.6431 20.0295 21.6636 20.0706 21.6893 20.1167C21.7098 20.1578 21.7304 20.1937 21.7509 20.2348C21.7714 20.2758 21.7971 20.3169 21.8176 20.3579C21.8381 20.399 21.8638 20.44 21.8843 20.4811C21.91 20.5273 21.9408 20.5786 21.9664 20.6248C21.9664 20.6299 21.9716 20.6402 21.9767 20.6453C22.0075 20.6966 22.0383 20.7428 22.0691 20.7941C22.0999 20.8454 22.1307 20.8916 22.1614 20.943C22.1614 20.943 22.1615 20.9481 22.1666 20.9532C22.1974 21.0045 22.2333 21.0558 22.2692 21.1072C22.3051 21.1585 22.3359 21.2098 22.3718 21.256C22.4078 21.3073 22.4437 21.3535 22.4796 21.4048C22.5155 21.451 22.5514 21.5023 22.5874 21.5485C22.6182 21.5896 22.6541 21.6306 22.6849 21.6717C22.7157 21.7127 22.7465 21.7486 22.7773 21.7897C22.8081 21.8256 22.8337 21.8615 22.8645 21.8923C22.9312 21.9693 22.9979 22.0463 23.0697 22.1233C23.1365 22.1951 23.2032 22.2669 23.2699 22.3388C23.2853 22.3593 23.3058 22.3747 23.3212 22.3901C23.3418 22.4106 23.3571 22.426 23.3725 22.4414C23.4033 22.4722 23.4341 22.5081 23.47 22.5389C23.506 22.5749 23.547 22.6108 23.5829 22.6467C23.6394 22.7031 23.701 22.7545 23.7574 22.8109C23.7677 22.8212 23.7779 22.8263 23.7831 22.8366C23.8344 22.8827 23.8857 22.9238 23.937 22.97C23.9575 22.9905 23.9781 23.0059 24.0037 23.0264C24.055 23.0675 24.1013 23.1085 24.1526 23.1496C24.1628 23.1547 24.1731 23.165 24.1834 23.1701C24.209 23.1907 24.2398 23.2163 24.2655 23.2368C24.3014 23.2625 24.3373 23.2933 24.3732 23.3189C24.6503 23.5293 24.9429 23.7192 25.2456 23.8937C25.2867 23.9194 25.3226 23.9399 25.3637 23.9604C25.4098 23.9912 25.4611 24.0169 25.5125 24.0425C25.5689 24.0733 25.6202 24.099 25.6767 24.1298C25.7229 24.1554 25.7691 24.176 25.8152 24.1965C25.8666 24.2221 25.9179 24.2478 25.9692 24.2683C26.0205 24.294 26.0718 24.3145 26.1231 24.3402C26.2309 24.3864 26.3387 24.4325 26.4464 24.4787C26.5439 24.5198 26.6415 24.5557 26.7441 24.5916C26.8519 24.6327 26.9596 24.6686 27.0725 24.7045C27.1239 24.7199 27.1803 24.7404 27.2368 24.7558C27.2881 24.7712 27.3445 24.7866 27.4009 24.802C27.5087 24.8328 27.6216 24.8636 27.7294 24.8893C27.7858 24.9047 27.8474 24.9149 27.909 24.9303C27.9603 24.9406 28.0116 24.9508 28.063 24.9611C28.1194 24.9714 28.1758 24.9868 28.2323 24.9919C28.2887 25.0022 28.3401 25.0124 28.3965 25.0227C28.3965 25.0227 28.3965 25.0227 28.4016 25.0227C28.4581 25.0329 28.5145 25.0432 28.571 25.0484C28.6274 25.0586 28.689 25.0637 28.7455 25.074C28.8019 25.0843 28.8584 25.0894 28.9097 25.0945C28.9713 25.0997 29.0277 25.1099 29.0893 25.1151C29.0944 25.1151 29.1098 25.1151 29.1201 25.1151C29.2946 25.1151 29.8745 25.1305 30.2029 25.1048C30.208 24.8995 30.2029 24.6635 30.1721 24.4582C29.6487 24.2427 29.1406 23.9912 28.648 23.7192" fill="#D6D1C4"/>
<path d="M23.4506 25.9981C23.2095 25.9211 22.9734 25.8339 22.7373 25.7415C22.7322 25.7415 22.727 25.7415 22.7219 25.7364C22.6398 25.7056 22.5577 25.6748 22.4756 25.6389C22.4756 25.6389 22.4705 25.6389 22.4653 25.6389C22.3935 25.6081 22.3216 25.5824 22.2498 25.5516C22.2498 25.5516 22.2498 25.5516 22.2447 25.5516C22.1574 25.5157 22.0651 25.4747 21.9778 25.4336C21.8803 25.3874 21.7828 25.3464 21.6853 25.3002C21.6802 25.3002 21.675 25.2951 21.6699 25.2899C21.5929 25.254 21.516 25.2181 21.4441 25.177C21.4287 25.1719 21.4133 25.1616 21.4031 25.1565C21.3363 25.1257 21.2697 25.0898 21.2081 25.0539C21.1157 25.0025 21.0182 24.9564 20.9258 24.9051C20.854 24.8691 20.7873 24.8281 20.7206 24.787C20.6846 24.7665 20.6538 24.746 20.6179 24.7254C20.4742 24.6433 20.3305 24.5561 20.1868 24.4689C20.1817 24.4689 20.1714 24.4586 20.1663 24.4535C20.0945 24.4073 20.0175 24.3611 19.9457 24.3149C19.8892 24.279 19.8327 24.2431 19.7763 24.202C19.7301 24.1712 19.6839 24.1404 19.6377 24.1045C19.6275 24.0942 19.6121 24.0891 19.6018 24.0788C19.5556 24.048 19.5095 24.0173 19.4633 23.9813C19.453 23.9711 19.4427 23.9659 19.4273 23.9557C19.3606 23.9095 19.299 23.8633 19.2375 23.8171C19.1605 23.7607 19.0835 23.7042 19.0117 23.6478C18.9501 23.6016 18.8885 23.5503 18.8269 23.5041C18.7397 23.4374 18.6576 23.3707 18.5703 23.2988C18.5396 23.2732 18.5088 23.2475 18.4728 23.2167C18.4421 23.191 18.4113 23.1654 18.3805 23.1397C18.3394 23.1089 18.3035 23.073 18.2624 23.0371C18.2624 23.0371 18.2573 23.0371 18.2522 23.0268C18.1855 22.9704 18.1239 22.9139 18.0572 22.8524C18.0315 22.8318 18.0058 22.8062 17.9802 22.7856C17.9545 22.7651 17.9289 22.7395 17.9083 22.7189C17.8775 22.6933 17.8468 22.6625 17.8211 22.6368C17.8108 22.6265 17.8057 22.6214 17.7954 22.6112C17.7954 22.6112 17.7954 22.6112 17.7903 22.606C17.7698 22.5855 17.7493 22.565 17.7287 22.5444C17.7082 22.5239 17.6877 22.5034 17.6672 22.4829C17.5645 22.3854 17.467 22.2827 17.3695 22.1852C17.3695 22.1852 17.3644 22.1801 17.3593 22.175C17.3593 22.175 17.3541 22.1698 17.349 22.1647C17.3182 22.1288 17.2823 22.098 17.2515 22.0621C17.2412 22.0518 17.231 22.0415 17.2207 22.0313C17.2207 22.0313 17.2207 22.0261 17.2104 22.021C17.1745 21.9851 17.1386 21.944 17.1027 21.903C17.0514 21.8517 17.0052 21.7952 16.9538 21.7439C16.9384 21.7234 16.9179 21.708 16.9025 21.6874C16.8871 21.6669 16.8717 21.6464 16.8512 21.631C16.8512 21.631 16.8512 21.631 16.8461 21.6207C16.8358 21.6105 16.8256 21.5951 16.8102 21.5848C16.7742 21.5438 16.7332 21.4976 16.6972 21.4514C16.687 21.4411 16.6767 21.4309 16.6665 21.4155C16.6254 21.3641 16.5844 21.318 16.5433 21.2666C16.4869 21.1948 16.4304 21.1281 16.3739 21.0562C16.261 20.9177 16.1533 20.774 16.0506 20.6303C16.025 20.5995 16.0045 20.5636 15.9788 20.5328C15.9326 20.4661 15.8864 20.4045 15.8403 20.3378C15.8351 20.3275 15.83 20.3224 15.8197 20.3121C15.7684 20.2403 15.7222 20.1684 15.6709 20.0966C15.6401 20.0555 15.6145 20.0094 15.5888 19.9683C15.5837 19.958 15.5785 19.9478 15.5683 19.9426C15.5426 19.9016 15.517 19.8605 15.4913 19.8246C15.4759 19.8041 15.4656 19.7836 15.4502 19.763C15.4041 19.6912 15.363 19.6245 15.3168 19.5526C15.286 19.5065 15.2552 19.4551 15.2296 19.4038C15.209 19.3679 15.1834 19.3268 15.1629 19.2909C15.1321 19.2345 15.0961 19.178 15.0654 19.1164C15.0397 19.0702 15.0141 19.0189 14.9833 18.9727C14.9268 18.8701 14.8704 18.7675 14.819 18.6648C14.778 18.5776 14.7318 18.4955 14.6907 18.4083C14.6754 18.3723 14.6548 18.3364 14.6394 18.3005C14.6138 18.2492 14.5881 18.1979 14.5676 18.1465C14.4547 17.9053 14.3469 17.6539 14.2443 17.4024C14.2289 17.3665 14.2186 17.3357 14.2032 17.2998C14.1827 17.2536 14.1673 17.2126 14.1519 17.1664C14.1109 17.0637 14.0749 16.9662 14.039 16.8636C14.0185 16.8123 14.0031 16.761 13.9877 16.7097C13.9877 16.6994 13.9826 16.6891 13.9774 16.6789C13.962 16.6378 13.9466 16.5968 13.9364 16.5557C13.0948 17.6026 12.0222 18.4698 10.7598 19.0754C12.0222 18.4698 13.0999 17.6026 13.9364 16.5557C14.7626 15.5293 15.3579 14.3388 15.6863 13.061C16.0866 11.5061 16.0815 9.82798 15.5888 8.17555C15.5324 7.99081 15.4759 7.8112 15.4092 7.63672C14.5316 8.35003 13.803 9.21216 13.2487 10.1769C12.4841 11.5009 12.0479 13.0148 12.012 14.58C11.6014 14.8212 11.2011 15.0778 10.8214 15.3497C10.6264 16.5762 10.5853 17.8335 10.7085 19.101C10.7957 20.0401 10.9805 20.9844 11.2576 21.9235C11.8529 23.9403 12.8382 25.7313 14.1057 27.2503L14.0903 27.2657C15.2296 28.6461 16.1328 30.2575 16.728 32.0536C17.1078 31.5147 17.544 31.0221 18.0366 30.5705C19.0322 29.6673 20.2382 28.9643 21.6135 28.5589C22.1677 28.3946 22.7271 28.2869 23.2813 28.2253C24.1486 28.1329 25.0158 28.1688 25.8472 28.3228C25.9857 28.3485 26.1243 28.3741 26.2577 28.41C26.6118 28.4613 26.9761 28.4562 27.3405 28.3895C27.3867 28.3792 27.4329 28.369 27.4791 28.3587C28.0897 27.9687 28.5567 27.3991 28.8236 26.7422C26.9761 26.8346 25.1544 26.578 23.4455 26.0135" fill="#D6D1C4"/>
<path d="M16.1641 17.887C16.5387 18.3797 17.1493 18.6773 17.8113 18.6209C18.6221 18.549 19.2688 17.9692 19.4586 17.2251C19.084 16.7324 18.4733 16.4348 17.8113 16.4912C17.0005 16.5631 16.3539 17.1429 16.1641 17.887Z" fill="#D6D1C4"/>
</svg>
